<svg width="345" height="345" viewBox="0 0 345 345" fill="none" xmlns="http://www.w3.org/2000/svg">
<path d="M219.08 105.94C223.7 132.56 233.38 169.96 265.72 199.22L254.28 214.62C229.86 188.66 214.9 155.88 201.92 110.78L219.08 105.94ZM81.5801 117.6C84.8801 117.82 89.5001 117.82 93.4601 117.6C113.04 116.72 150 111.66 162.98 106.6L168.04 122.22C165.18 123.1 159.68 124.64 156.38 125.96C142.52 136.3 108.86 174.8 108.86 220.12C108.86 251.14 129.32 261.48 151.98 261.48C204.34 261.48 222.16 205.16 205.44 118.92L221.5 148.62C232.94 211.54 220.4 279.52 151.54 279.52C116.78 279.52 91.7001 260.16 91.7001 223.86C91.7001 182.72 113.26 151.26 132.62 129.26C121.4 131.02 103.36 133.22 95.4401 134.32C91.2601 134.76 87.5201 135.42 82.9001 136.08L81.5801 117.6ZM238.44 93.4C242.84 101.76 249.66 115.4 253.4 124.42L241.96 128.6C238 118.7 232.28 105.72 227.44 97.36L238.44 93.4ZM260.88 84.8199C265.5 92.9599 272.32 106.38 276.5 115.62L264.84 120.02C260.88 110.12 255.16 97.36 250.1 89L260.88 84.8199Z" fill="#f00"/>
<path d="M232.283 78.5249C232.283 77.4071 232.671 76.494 233.445 75.7856C234.226 75.0773 235.23 74.7231 236.458 74.7231C237.643 74.7231 238.617 75.0469 239.38 75.6943C240.15 76.3418 240.534 77.1663 240.534 78.168C240.534 78.8099 240.34 79.4463 239.953 80.0771C239.566 80.7025 238.863 81.5187 237.845 82.5259L235.338 85.041V85.1821H240.717V87H232.399V85.5142L236.392 81.4302C237.211 80.6001 237.756 79.9775 238.027 79.5625C238.299 79.1419 238.434 78.7214 238.434 78.3008C238.434 77.7751 238.24 77.3407 237.853 76.9976C237.471 76.6545 236.984 76.4829 236.392 76.4829C235.767 76.4829 235.26 76.6711 234.873 77.0474C234.486 77.4237 234.292 77.9162 234.292 78.5249V78.5581H232.283V78.5249Z" fill="#000"/>
<path d="M262.439 75.6875V74.0273H263.9C264.509 74.0273 265.004 73.8613 265.386 73.5293C265.768 73.1917 265.958 72.7546 265.958 72.2178C265.958 71.6865 265.77 71.2632 265.394 70.9478C265.023 70.6268 264.525 70.4663 263.9 70.4663C263.28 70.4663 262.777 70.6296 262.389 70.9561C262.007 71.2826 261.797 71.728 261.758 72.2925H259.758C259.813 71.1912 260.217 70.3224 260.97 69.686C261.722 69.0441 262.721 68.7231 263.966 68.7231C265.128 68.7231 266.094 69.0275 266.863 69.6362C267.638 70.2394 268.025 71.0003 268.025 71.9189C268.025 72.6217 267.829 73.2222 267.436 73.7202C267.049 74.2183 266.523 74.5365 265.859 74.6748V74.8159C266.678 74.91 267.323 75.2171 267.793 75.7373C268.269 76.2575 268.507 76.916 268.507 77.7129C268.507 78.7422 268.075 79.5972 267.212 80.2778C266.354 80.9585 265.275 81.2988 263.975 81.2988C262.685 81.2988 261.634 80.9696 260.82 80.311C260.012 79.6525 259.581 78.7754 259.525 77.6797H261.576C261.62 78.2331 261.861 78.6758 262.298 79.0078C262.735 79.3343 263.299 79.4976 263.991 79.4976C264.677 79.4976 265.236 79.3205 265.668 78.9663C266.105 78.6066 266.324 78.1445 266.324 77.5801C266.324 76.9935 266.111 76.5314 265.685 76.1938C265.258 75.8563 264.677 75.6875 263.941 75.6875H262.439Z" fill="#000"/>
<path d="M91.4258 101V91.1802H91.2847L88.3047 93.272V91.2134L91.4341 89.022H93.5674V101H91.4258Z" fill="#000"/>
<path fill-rule="evenodd" clip-rule="evenodd" d="M141.424 94.774L148.603 100.202C149.043 100.536 149.13 101.163 148.797 101.603L143.369 108.782C143.036 109.222 142.409 109.309 141.968 108.976C141.528 108.643 141.44 108.016 141.774 107.576L145.746 102.323L87.5544 110.401L87.2794 108.42L145.471 100.342L140.218 96.3693C139.777 96.0362 139.69 95.409 140.023 94.9685C140.356 94.528 140.984 94.4409 141.424 94.774Z" fill="#000"/>
<path fill-rule="evenodd" clip-rule="evenodd" d="M186.13 108.712C185.447 118.338 187.227 129.987 192.413 141.592L190.587 142.408C185.272 130.513 183.428 118.537 184.135 108.57C184.838 98.6575 188.088 90.5269 193.201 86.5833C195.792 84.5856 198.848 83.6786 202.201 84.1852C205.526 84.6877 209.046 86.5649 212.645 89.9429C219.567 96.4404 226.989 108.685 234.136 128.406L236.994 122.454C237.233 121.956 237.83 121.746 238.328 121.986C238.826 122.225 239.036 122.822 238.797 123.32L234.901 131.433C234.662 131.931 234.065 132.141 233.567 131.902L225.454 128.006C224.956 127.767 224.746 127.169 224.985 126.672C225.224 126.174 225.821 125.964 226.319 126.203L232.241 129.046C225.14 109.465 217.857 97.5782 211.276 91.4012C207.867 88.201 204.703 86.586 201.902 86.1628C199.128 85.7436 196.614 86.4772 194.423 88.167C189.974 91.5984 186.817 99.0302 186.13 108.712Z" fill="#000"/>
</svg>
