<svg width="345" height="345" viewBox="0 0 345 345" fill="none" xmlns="http://www.w3.org/2000/svg">
<path d="M155.28 94.2799C154.4 98.2399 153.52 103.08 152.64 107.26C151.1 115.18 148.24 133.22 145.16 146.86C137.68 177.88 122.06 232.66 97.2001 272.7L79.1601 265.66C104.24 232 121.84 173.26 127.78 146.42C131.96 128.82 134.82 109.02 134.82 92.0799L155.28 94.2799ZM230.96 119.58C244.6 137.4 263.74 177.44 271.22 197.68L254.06 205.82C247.68 183.38 230.3 145.1 214.9 126.84L230.96 119.58ZM76.0801 142.46C82.9001 142.9 88.6201 142.68 95.6601 142.46C112.16 142.02 156.82 137.18 171.78 137.18C191.36 137.18 207.42 144.66 207.42 174.36C207.42 200.54 203.9 235.52 194.66 253.78C187.84 268.52 176.84 272.26 162.54 272.26C154.18 272.26 143.62 270.72 136.8 268.96L133.72 250.7C142.96 253.56 154.62 255.1 160.78 255.1C168.92 255.1 175.52 253.34 179.92 243.88C186.96 228.92 190.48 200.32 190.48 176.56C190.48 156.32 181.24 152.58 167.16 152.58C152.42 152.58 111.06 157.64 97.6401 158.96C92.5801 159.62 83.5601 160.72 77.8401 161.6L76.0801 142.46ZM233.38 87.6799C238.88 95.5999 246.8 109.02 251.42 118.04L239.54 123.32C235.14 114.3 227.66 101.1 221.5 92.7399L233.38 87.6799ZM257.58 78.8799C263.52 87.0199 271.88 100.88 276.28 109.02L264.18 114.3C259.56 104.62 252.3 92.0799 245.92 83.9399L257.58 78.8799Z" fill="#f00"/>
<path d="M74.4258 128V118.18H74.2847L71.3047 120.272V118.213L74.4341 116.022H76.5674V128H74.4258Z" fill="#000"/>
<path d="M173.283 93.5249C173.283 92.4071 173.671 91.494 174.445 90.7856C175.226 90.0773 176.23 89.7231 177.458 89.7231C178.643 89.7231 179.617 90.0469 180.38 90.6943C181.15 91.3418 181.534 92.1663 181.534 93.168C181.534 93.8099 181.34 94.4463 180.953 95.0771C180.566 95.7025 179.863 96.5187 178.845 97.5259L176.338 100.041V100.182H181.717V102H173.399V100.514L177.392 96.4302C178.211 95.6001 178.756 94.9775 179.027 94.5625C179.299 94.1419 179.434 93.7214 179.434 93.3008C179.434 92.7751 179.24 92.3407 178.853 91.9976C178.471 91.6545 177.984 91.4829 177.392 91.4829C176.767 91.4829 176.26 91.6711 175.873 92.0474C175.486 92.4237 175.292 92.9162 175.292 93.5249V93.5581H173.283V93.5249Z" fill="#000"/>
<path d="M261.019 126.964V125.304H262.48C263.089 125.304 263.584 125.138 263.966 124.806C264.348 124.469 264.539 124.031 264.539 123.495C264.539 122.963 264.35 122.54 263.974 122.225C263.603 121.904 263.105 121.743 262.48 121.743C261.86 121.743 261.357 121.906 260.969 122.233C260.587 122.559 260.377 123.005 260.338 123.569H258.338C258.393 122.468 258.797 121.599 259.55 120.963C260.302 120.321 261.301 120 262.546 120C263.708 120 264.674 120.304 265.443 120.913C266.218 121.516 266.605 122.277 266.605 123.196C266.605 123.899 266.409 124.499 266.016 124.997C265.629 125.495 265.103 125.813 264.439 125.952V126.093C265.258 126.187 265.903 126.494 266.373 127.014C266.849 127.534 267.087 128.193 267.087 128.99C267.087 130.019 266.655 130.874 265.792 131.555C264.934 132.235 263.855 132.576 262.555 132.576C261.265 132.576 260.214 132.246 259.4 131.588C258.592 130.929 258.161 130.052 258.105 128.957H260.156C260.2 129.51 260.441 129.953 260.878 130.285C261.315 130.611 261.88 130.774 262.571 130.774C263.257 130.774 263.816 130.597 264.248 130.243C264.685 129.883 264.904 129.421 264.904 128.857C264.904 128.27 264.691 127.808 264.265 127.471C263.839 127.133 263.257 126.964 262.521 126.964H261.019Z" fill="#000"/>
<path fill-rule="evenodd" clip-rule="evenodd" d="M111.343 125.929L117.707 132.293C118.098 132.684 118.098 133.317 117.707 133.707L111.343 140.071C110.953 140.462 110.319 140.462 109.929 140.071C109.538 139.681 109.538 139.048 109.929 138.657L114.586 134L71 134L71 132L114.586 132L109.929 127.343C109.538 126.953 109.538 126.32 109.929 125.929C110.319 125.539 110.953 125.539 111.343 125.929Z" fill="#000"/>
<path fill-rule="evenodd" clip-rule="evenodd" d="M167.905 123.583L160.581 128.814C160.132 129.135 159.507 129.031 159.186 128.582L153.955 121.258C153.634 120.809 153.738 120.184 154.188 119.863C154.637 119.542 155.261 119.646 155.582 120.095L159.41 125.455L166.014 85.8359L167.986 86.1647L161.383 125.783L166.742 121.955C167.192 121.634 167.816 121.739 168.137 122.188C168.458 122.637 168.354 123.262 167.905 123.583Z" fill="#000"/>
<path fill-rule="evenodd" clip-rule="evenodd" d="M272.529 158.186L269.701 166.73C269.527 167.254 268.961 167.539 268.437 167.365L259.893 164.536C259.369 164.363 259.085 163.797 259.258 163.273C259.432 162.748 259.997 162.464 260.522 162.638L266.774 164.708L247.687 126.726L249.474 125.828L268.561 163.809L270.631 157.557C270.804 157.033 271.37 156.749 271.894 156.922C272.419 157.096 272.703 157.662 272.529 158.186Z" fill="#000"/>
<path d="M234.087 80V77.7671H228.235V75.8579C229.209 74.0649 230.836 71.453 233.116 68.022H236.138V75.9575H237.756V77.7671H236.138V80H234.087ZM230.219 75.8828V76.0073H234.121V69.7651H234.004C232.709 71.6799 231.448 73.7191 230.219 75.8828Z" fill="#000"/>
<path d="M261.066 74.2988C259.832 74.2988 258.82 73.9613 258.028 73.2861C257.237 72.611 256.816 71.7422 256.767 70.6797H258.775C258.842 71.2275 259.088 71.6702 259.514 72.0078C259.94 72.3454 260.463 72.5142 261.083 72.5142C261.786 72.5142 262.353 72.2983 262.785 71.8667C263.222 71.4295 263.44 70.854 263.44 70.1401C263.44 69.4263 263.222 68.848 262.785 68.4053C262.353 67.957 261.791 67.7329 261.1 67.7329C260.613 67.7329 260.178 67.8353 259.796 68.04C259.42 68.2448 259.121 68.5353 258.9 68.9116H256.958L257.58 62.022H264.793V63.8315H259.24L258.95 67.1934H259.091C259.644 66.4463 260.488 66.0728 261.623 66.0728C262.757 66.0728 263.687 66.4491 264.412 67.2017C265.142 67.9543 265.507 68.9172 265.507 70.0903C265.507 71.341 265.098 72.3564 264.279 73.1367C263.465 73.9115 262.395 74.2988 261.066 74.2988Z" fill="#000"/>
</svg>
