<svg width="345" height="345" viewBox="0 0 345 345" fill="none" xmlns="http://www.w3.org/2000/svg">
<path d="M79.1602 120.24C87.5202 120.02 94.5602 119.58 98.9602 119.14C113.04 117.6 154.62 113.64 195.1 110.12C219.3 108.14 239.76 106.82 254.5 106.38L254.72 123.98C241.96 123.76 222.82 124.2 211.6 127.28C180.14 137.4 161 171.06 161 197.02C161 239.92 201.26 253.78 236.9 255.1L230.52 273.14C189.82 271.6 143.62 250.04 143.62 200.76C143.62 166.66 164.52 138.5 184.54 126.62C161 129.04 104.9 134.54 81.1402 139.6L79.1602 120.24ZM222.82 150.82C227.88 158.08 236.24 171.72 241.08 181.62L229.64 186.68C224.58 176.12 218.42 164.9 211.82 155.66L222.82 150.82ZM246.8 141.58C252.3 148.84 260.88 162.26 265.94 171.94L254.72 177.44C249.44 166.88 242.84 155.88 236.02 146.64L246.8 141.58Z" fill="#f00"/>
<path d="M225.283 137.525C225.283 136.407 225.671 135.494 226.445 134.786C227.226 134.077 228.23 133.723 229.458 133.723C230.643 133.723 231.617 134.047 232.38 134.694C233.15 135.342 233.534 136.166 233.534 137.168C233.534 137.81 233.34 138.446 232.953 139.077C232.566 139.702 231.863 140.519 230.845 141.526L228.338 144.041V144.182H233.717V146H225.399V144.514L229.392 140.43C230.211 139.6 230.756 138.978 231.027 138.562C231.299 138.142 231.434 137.721 231.434 137.301C231.434 136.775 231.24 136.341 230.853 135.998C230.471 135.654 229.984 135.483 229.392 135.483C228.767 135.483 228.26 135.671 227.873 136.047C227.486 136.424 227.292 136.916 227.292 137.525V137.558H225.283V137.525Z" fill="#000"/>
<path d="M255.439 134.688V133.027H256.9C257.509 133.027 258.004 132.861 258.386 132.529C258.768 132.192 258.958 131.755 258.958 131.218C258.958 130.687 258.77 130.263 258.394 129.948C258.023 129.627 257.525 129.466 256.9 129.466C256.28 129.466 255.777 129.63 255.389 129.956C255.007 130.283 254.797 130.728 254.758 131.292H252.758C252.813 130.191 253.217 129.322 253.97 128.686C254.722 128.044 255.721 127.723 256.966 127.723C258.128 127.723 259.094 128.028 259.863 128.636C260.638 129.239 261.025 130 261.025 130.919C261.025 131.622 260.829 132.222 260.436 132.72C260.049 133.218 259.523 133.536 258.859 133.675V133.816C259.678 133.91 260.323 134.217 260.793 134.737C261.269 135.257 261.507 135.916 261.507 136.713C261.507 137.742 261.075 138.597 260.212 139.278C259.354 139.958 258.275 140.299 256.975 140.299C255.685 140.299 254.634 139.97 253.82 139.311C253.012 138.653 252.581 137.775 252.525 136.68H254.576C254.62 137.233 254.861 137.676 255.298 138.008C255.735 138.334 256.299 138.498 256.991 138.498C257.677 138.498 258.236 138.32 258.668 137.966C259.105 137.607 259.324 137.145 259.324 136.58C259.324 135.993 259.111 135.531 258.685 135.194C258.258 134.856 257.677 134.688 256.941 134.688H255.439Z" fill="#000"/>
<path d="M86.4248 99V89.1802H86.2837L83.3037 91.272V89.2134L86.4331 87.022H88.5664V99H86.4248Z" fill="#000"/>
<path fill-rule="evenodd" clip-rule="evenodd" d="M143.84 95.3627L150.653 101.243C151.071 101.604 151.118 102.235 150.757 102.653L144.877 109.467C144.516 109.885 143.885 109.931 143.466 109.57C143.048 109.21 143.002 108.578 143.363 108.16L147.666 103.174L82.0733 107.997L81.9266 106.003L147.519 101.18L142.533 96.8768C142.115 96.516 142.069 95.8845 142.429 95.4664C142.79 95.0483 143.422 95.0019 143.84 95.3627Z" fill="#000"/>
</svg>
