<svg width="345" height="345" viewBox="0 0 345 345" fill="none" xmlns="http://www.w3.org/2000/svg">
<path d="M74.7598 154.12C82.8998 152.58 90.8198 150.16 99.1798 147.74C117.88 141.8 161 125.96 193.12 125.96C229.64 125.96 258.46 147.08 258.46 183.82C258.46 236.62 206.1 262.14 138.12 265.88L130.42 247.62C187.84 246.08 239.32 228.7 239.32 183.6C239.32 160.5 222.38 142.24 192.68 142.24C156.38 142.24 100.5 166.44 82.8998 173.48L74.7598 154.12ZM228.32 92.52C233.82 100.44 241.96 113.86 246.36 122.88L234.48 128.16C230.08 119.14 222.6 105.94 216.66 97.58L228.32 92.52ZM252.52 83.72C258.46 91.86 267.04 105.5 271 113.86L259.34 119.14C254.5 109.46 247.24 96.92 240.86 88.78L252.52 83.72Z" fill="#f00"/>
<path d="M225.283 76.5249C225.283 75.4071 225.671 74.494 226.445 73.7856C227.226 73.0773 228.23 72.7231 229.458 72.7231C230.643 72.7231 231.617 73.0469 232.38 73.6943C233.15 74.3418 233.534 75.1663 233.534 76.168C233.534 76.8099 233.34 77.4463 232.953 78.0771C232.566 78.7025 231.863 79.5187 230.845 80.5259L228.338 83.041V83.1821H233.717V85H225.399V83.5142L229.392 79.4302C230.211 78.6001 230.756 77.9775 231.027 77.5625C231.299 77.1419 231.434 76.7214 231.434 76.3008C231.434 75.7751 231.24 75.3407 230.853 74.9976C230.471 74.6545 229.984 74.4829 229.392 74.4829C228.767 74.4829 228.26 74.6711 227.873 75.0474C227.486 75.4237 227.292 75.9162 227.292 76.5249V76.5581H225.283V76.5249Z" fill="#000"/>
<path d="M255.439 73.6875V72.0273H256.9C257.509 72.0273 258.004 71.8613 258.386 71.5293C258.768 71.1917 258.958 70.7546 258.958 70.2178C258.958 69.6865 258.77 69.2632 258.394 68.9478C258.023 68.6268 257.525 68.4663 256.9 68.4663C256.28 68.4663 255.777 68.6296 255.389 68.9561C255.007 69.2826 254.797 69.728 254.758 70.2925H252.758C252.813 69.1912 253.217 68.3224 253.97 67.686C254.722 67.0441 255.721 66.7231 256.966 66.7231C258.128 66.7231 259.094 67.0275 259.863 67.6362C260.638 68.2394 261.025 69.0003 261.025 69.9189C261.025 70.6217 260.829 71.2222 260.436 71.7202C260.049 72.2183 259.523 72.5365 258.859 72.6748V72.8159C259.678 72.91 260.323 73.2171 260.793 73.7373C261.269 74.2575 261.507 74.916 261.507 75.7129C261.507 76.7422 261.075 77.5972 260.212 78.2778C259.354 78.9585 258.275 79.2988 256.975 79.2988C255.685 79.2988 254.634 78.9696 253.82 78.311C253.012 77.6525 252.581 76.7754 252.525 75.6797H254.576C254.62 76.2331 254.861 76.6758 255.298 77.0078C255.735 77.3343 256.299 77.4976 256.991 77.4976C257.677 77.4976 258.236 77.3205 258.668 76.9663C259.105 76.6066 259.324 76.1445 259.324 75.5801C259.324 74.9935 259.111 74.5314 258.685 74.1938C258.258 73.8563 257.677 73.6875 256.941 73.6875H255.439Z" fill="#000"/>
<path d="M79.4258 124V114.18H79.2847L76.3047 116.272V114.213L79.4341 112.022H81.5674V124H79.4258Z" fill="#000"/>
<path fill-rule="evenodd" clip-rule="evenodd" d="M149.704 107.636L157.5 112.134C157.978 112.41 158.142 113.021 157.866 113.5L153.369 121.295C153.093 121.774 152.481 121.938 152.003 121.662C151.524 121.386 151.36 120.774 151.636 120.296L154.927 114.591L75.2591 135.966L74.7409 134.034L154.409 112.66L148.705 109.369C148.226 109.093 148.062 108.481 148.338 108.003C148.614 107.524 149.226 107.36 149.704 107.636Z" fill="#000"/>
</svg>
