<svg width="345" height="345" viewBox="0 0 345 345" fill="none" xmlns="http://www.w3.org/2000/svg">
<path d="M224.58 96.9199C224.36 100.44 224.14 104.84 223.92 109.68C223.7 118.04 224.58 155 224.58 167.32C224.58 217.92 224.58 253.78 177.94 281.28L161.88 268.74C168.7 266.1 177.72 260.38 183.22 255.1C206.76 234.64 207.86 209.56 207.86 167.32C207.86 153.24 206.98 119.14 206.32 109.9C205.88 105.06 205 100.22 204.34 96.9199H224.58ZM146.7 142.24C156.16 143.78 170.24 144.88 182.12 144.88C209.18 144.88 240.42 142.9 262.42 138.06V155.88C241.3 159.4 210.28 161.16 182.34 161.16C171.56 161.16 156.16 160.5 146.7 159.84V142.24ZM115.68 100.22C114.36 104.18 112.82 110.34 111.94 114.3C104.9 146.42 97.4198 194.6 105.78 230.46C108.86 221.22 113.48 207.8 117.44 196.8L126.9 202.52C121.62 217.92 115.02 240.36 112.6 251.36C111.94 254.44 111.5 258.62 111.72 261.26C111.72 263.24 112.16 266.32 112.38 268.52L97.4198 270.5C93.0198 256.86 85.7598 228.26 85.7598 200.76C85.7598 164.9 91.4798 131.24 94.1198 112.76C94.9998 107.7 95.2198 101.98 95.2198 98.0199L115.68 100.22ZM242.18 90.9799C246.14 99.1199 251.86 112.54 254.94 121.56L243.72 125.3C240.64 115.84 235.8 102.86 231.4 94.4999L242.18 90.9799ZM264.18 84.3799C268.36 92.2999 273.86 105.72 277.16 114.52L266.16 118.26C262.86 108.58 258.02 96.0399 253.4 87.6799L264.18 84.3799Z" fill="#f00"/>
<path d="M243.087 89V86.7671H237.235V84.8579C238.209 83.0649 239.836 80.453 242.116 77.022H245.138V84.9575H246.756V86.7671H245.138V89H243.087ZM239.219 84.8828V85.0073H243.121V78.7651H243.004C241.709 80.6799 240.448 82.7191 239.219 84.8828Z" fill="#000"/>
<path d="M270.066 83.2988C268.832 83.2988 267.82 82.9613 267.028 82.2861C266.237 81.611 265.816 80.7422 265.767 79.6797H267.775C267.842 80.2275 268.088 80.6702 268.514 81.0078C268.94 81.3454 269.463 81.5142 270.083 81.5142C270.786 81.5142 271.353 81.2983 271.785 80.8667C272.222 80.4295 272.44 79.854 272.44 79.1401C272.44 78.4263 272.222 77.848 271.785 77.4053C271.353 76.957 270.791 76.7329 270.1 76.7329C269.613 76.7329 269.178 76.8353 268.796 77.04C268.42 77.2448 268.121 77.5353 267.9 77.9116H265.958L266.58 71.022H273.793V72.8315H268.24L267.95 76.1934H268.091C268.644 75.4463 269.488 75.0728 270.623 75.0728C271.757 75.0728 272.687 75.4491 273.412 76.2017C274.142 76.9543 274.507 77.9172 274.507 79.0903C274.507 80.341 274.098 81.3564 273.279 82.1367C272.465 82.9115 271.395 83.2988 270.066 83.2988Z" fill="#000"/>
<path d="M62.4258 112V102.18H62.2847L59.3047 104.272V102.213L62.4341 100.022H64.5674V112H62.4258Z" fill="#000"/>
<path d="M148.283 118.525C148.283 117.407 148.671 116.494 149.445 115.786C150.226 115.077 151.23 114.723 152.458 114.723C153.643 114.723 154.617 115.047 155.38 115.694C156.15 116.342 156.534 117.166 156.534 118.168C156.534 118.81 156.34 119.446 155.953 120.077C155.566 120.702 154.863 121.519 153.845 122.526L151.338 125.041V125.182H156.717V127H148.399V125.514L152.392 121.43C153.211 120.6 153.756 119.978 154.027 119.562C154.299 119.142 154.434 118.721 154.434 118.301C154.434 117.775 154.24 117.341 153.853 116.998C153.471 116.654 152.984 116.483 152.392 116.483C151.767 116.483 151.26 116.671 150.873 117.047C150.486 117.424 150.292 117.916 150.292 118.525V118.558H148.283V118.525Z" fill="#000"/>
<path d="M206.914 83.9644V82.3042H208.375C208.983 82.3042 209.479 82.1382 209.86 81.8062C210.242 81.4686 210.433 81.0314 210.433 80.4946C210.433 79.9634 210.245 79.54 209.869 79.2246C209.498 78.9036 209 78.7432 208.375 78.7432C207.755 78.7432 207.251 78.9064 206.864 79.2329C206.482 79.5594 206.272 80.0049 206.233 80.5693H204.232C204.288 79.4681 204.692 78.5993 205.444 77.9629C206.197 77.321 207.196 77 208.441 77C209.603 77 210.569 77.3044 211.338 77.9131C212.113 78.5163 212.5 79.2772 212.5 80.1958C212.5 80.8986 212.304 81.499 211.911 81.9971C211.523 82.4951 210.998 82.8133 210.333 82.9517V83.0928C211.153 83.1868 211.797 83.494 212.268 84.0142C212.743 84.5343 212.981 85.1929 212.981 85.9897C212.981 87.019 212.55 87.874 211.687 88.5547C210.829 89.2354 209.75 89.5757 208.449 89.5757C207.16 89.5757 206.108 89.2464 205.295 88.5879C204.487 87.9294 204.055 87.0522 204 85.9565H206.05C206.095 86.5099 206.335 86.9526 206.772 87.2847C207.21 87.6112 207.774 87.7744 208.466 87.7744C209.152 87.7744 209.711 87.5973 210.143 87.2432C210.58 86.8835 210.798 86.4214 210.798 85.8569C210.798 85.2703 210.585 84.8083 210.159 84.4707C209.733 84.1331 209.152 83.9644 208.416 83.9644H206.914Z" fill="#000"/>
<path fill-rule="evenodd" clip-rule="evenodd" d="M79.4317 171.826L72.6585 177.752C72.2429 178.116 71.6111 178.074 71.2474 177.658L65.3209 170.885C64.9572 170.47 64.9993 169.838 65.415 169.474C65.8306 169.11 66.4624 169.153 66.826 169.568L71.1628 174.525L76.0022 101.933L77.9978 102.066L73.1584 174.658L78.1147 170.321C78.5303 169.957 79.1621 169.999 79.5258 170.415C79.8895 170.83 79.8473 171.462 79.4317 171.826Z" fill="#000"/>
<path fill-rule="evenodd" clip-rule="evenodd" d="M186.343 124.929L192.707 131.293C193.098 131.684 193.098 132.317 192.707 132.707L186.343 139.071C185.953 139.462 185.319 139.462 184.929 139.071C184.538 138.681 184.538 138.048 184.929 137.657L189.586 133H147V131H189.586L184.929 126.343C184.538 125.953 184.538 125.32 184.929 124.929C185.319 124.539 185.953 124.539 186.343 124.929Z" fill="#000"/>
<path fill-rule="evenodd" clip-rule="evenodd" d="M205.435 116.343L199.071 122.707C198.68 123.098 198.047 123.098 197.656 122.707L191.293 116.343C190.902 115.953 190.902 115.319 191.293 114.929C191.683 114.538 192.316 114.538 192.707 114.929L197.364 119.586L197.364 77L199.364 77L199.364 119.586L204.02 114.929C204.411 114.538 205.044 114.538 205.435 114.929C205.825 115.319 205.825 115.953 205.435 116.343Z" fill="#000"/>
</svg>
