<svg width="345" height="345" viewBox="0 0 345 345" fill="none" xmlns="http://www.w3.org/2000/svg">
<path d="M152.64 95.16C151.32 100 149.56 108.36 148.68 112.54C145.6 128.38 140.98 153.46 134.82 175.24C126.9 206.48 112.16 252.02 100.5 276L81.1401 269.62C94.5601 246.96 109.96 202.08 118.1 171.06C123.6 150.82 129.32 123.32 130.86 111.66C131.74 105.5 132.18 98.02 131.74 93.4L152.64 95.16ZM104.02 131.9C128.22 131.9 160.56 128.16 187.84 121.12V138.5C160.56 144.66 127.34 148.18 103.58 148.18C93.9001 148.18 86.2001 147.96 78.0601 147.3L77.6201 130.36C87.9601 131.68 95.8801 131.9 104.02 131.9ZM173.54 162.26C184.98 161.16 199.5 160.28 213.8 160.28C226.56 160.28 239.98 160.72 251.86 162.04L251.42 178.76C239.98 177.44 227.22 176.34 214.24 176.34C200.38 176.34 186.96 177 173.54 178.54V162.26ZM177.94 215.72C176.18 222.76 174.86 229.8 174.86 235.52C174.86 245.86 180.8 255.98 212.04 255.98C226.34 255.98 241.52 254.22 255.16 251.58L254.5 269.4C242.62 270.94 227.88 272.48 211.82 272.48C177.28 272.48 158.36 261.7 158.36 239.92C158.36 231.56 159.68 223.42 161.66 213.96L177.94 215.72ZM227.88 101.98C233.6 109.68 241.52 123.32 246.14 132.12L234.26 137.4C229.86 128.6 222.16 115.18 216.22 106.82L227.88 101.98ZM252.3 92.96C258.24 101.1 266.6 114.74 270.78 123.1L258.9 128.38C254.28 118.7 246.8 106.38 240.64 98.02L252.3 92.96Z" fill="#f00"/>
<path d="M230.3 99.2769C229.066 99.2769 228.053 98.9393 227.262 98.2642C226.47 97.589 226.05 96.7202 226 95.6577H228.009C228.075 96.2056 228.321 96.6483 228.748 96.9858C229.174 97.3234 229.697 97.4922 230.316 97.4922C231.019 97.4922 231.586 97.2764 232.018 96.8447C232.455 96.4076 232.674 95.832 232.674 95.1182C232.674 94.4043 232.455 93.826 232.018 93.3833C231.586 92.9351 231.025 92.7109 230.333 92.7109C229.846 92.7109 229.412 92.8133 229.03 93.0181C228.653 93.2228 228.355 93.5133 228.133 93.8896H226.191L226.813 87H234.027V88.8096H228.474L228.183 92.1714H228.324C228.878 91.4243 229.722 91.0508 230.856 91.0508C231.99 91.0508 232.92 91.4271 233.645 92.1797C234.375 92.9323 234.741 93.8952 234.741 95.0684C234.741 96.319 234.331 97.3345 233.512 98.1147C232.699 98.8895 231.628 99.2769 230.3 99.2769Z" fill="#000"/>
<path d="M260.835 95.2905C259.956 95.2905 259.178 95.0885 258.503 94.6846C257.828 94.2806 257.291 93.694 256.893 92.9248C256.328 91.9287 256.046 90.667 256.046 89.1396C256.046 87.1253 256.472 85.5537 257.324 84.4248C258.182 83.2904 259.375 82.7231 260.902 82.7231C261.992 82.7231 262.922 83.022 263.691 83.6196C264.466 84.2118 264.942 85.0003 265.119 85.9854H262.977C262.844 85.5316 262.59 85.1746 262.213 84.9146C261.843 84.6489 261.4 84.5161 260.885 84.5161C260.011 84.5161 259.327 84.9035 258.835 85.6782C258.342 86.4474 258.096 87.5182 258.096 88.8906H258.237C258.52 88.3206 258.932 87.8807 259.474 87.5708C260.016 87.2554 260.639 87.0977 261.342 87.0977C262.482 87.0977 263.423 87.474 264.164 88.2266C264.911 88.9792 265.285 89.931 265.285 91.082C265.285 92.3161 264.867 93.326 264.031 94.1118C263.201 94.8976 262.136 95.2905 260.835 95.2905ZM260.811 93.5059C261.486 93.5059 262.05 93.2817 262.504 92.8335C262.958 92.3797 263.185 91.818 263.185 91.1484C263.185 90.4622 262.963 89.9006 262.521 89.4634C262.078 89.0207 261.513 88.7993 260.827 88.7993C260.141 88.7993 259.574 89.0179 259.125 89.4551C258.677 89.8923 258.453 90.4456 258.453 91.1152C258.453 91.7959 258.677 92.3659 259.125 92.8252C259.579 93.279 260.141 93.5059 260.811 93.5059Z" fill="#000"/>
<path d="M76.4258 118V108.18H76.2847L73.3047 110.272V108.214L76.4341 106.022H78.5674V118H76.4258Z" fill="#000"/>
<path d="M171.283 87.5251C171.283 86.4073 171.671 85.4942 172.445 84.7859C173.226 84.0776 174.23 83.7234 175.458 83.7234C176.643 83.7234 177.617 84.0471 178.38 84.6946C179.15 85.342 179.534 86.1666 179.534 87.1682C179.534 87.8101 179.34 88.4465 178.953 89.0774C178.566 89.7027 177.863 90.519 176.845 91.5261L174.338 94.0413V94.1824H179.717V96.0002H171.399V94.5144L175.392 90.4304C176.211 89.6003 176.756 88.9778 177.027 88.5627C177.299 88.1422 177.434 87.7216 177.434 87.301C177.434 86.7753 177.24 86.3409 176.853 85.9978C176.471 85.6547 175.984 85.4832 175.392 85.4832C174.767 85.4832 174.26 85.6713 173.873 86.0476C173.486 86.4239 173.292 86.9164 173.292 87.5251V87.5583H171.283V87.5251Z" fill="#000"/>
<path d="M207.439 138.688V137.028H208.9C209.509 137.028 210.004 136.862 210.386 136.53C210.768 136.192 210.958 135.755 210.958 135.218C210.958 134.687 210.77 134.263 210.394 133.948C210.023 133.627 209.525 133.467 208.9 133.467C208.28 133.467 207.777 133.63 207.389 133.956C207.007 134.283 206.797 134.728 206.758 135.293H204.758C204.813 134.191 205.217 133.323 205.97 132.686C206.722 132.044 207.721 131.723 208.966 131.723C210.128 131.723 211.094 132.028 211.863 132.636C212.638 133.24 213.025 134.001 213.025 134.919C213.025 135.622 212.829 136.222 212.436 136.72C212.049 137.219 211.523 137.537 210.859 137.675V137.816C211.678 137.91 212.323 138.217 212.793 138.738C213.269 139.258 213.507 139.916 213.507 140.713C213.507 141.742 213.075 142.597 212.212 143.278C211.354 143.959 210.275 144.299 208.975 144.299C207.685 144.299 206.634 143.97 205.82 143.311C205.012 142.653 204.581 141.776 204.525 140.68H206.576C206.62 141.233 206.861 141.676 207.298 142.008C207.735 142.335 208.299 142.498 208.991 142.498C209.677 142.498 210.236 142.321 210.668 141.967C211.105 141.607 211.324 141.145 211.324 140.58C211.324 139.994 211.111 139.532 210.685 139.194C210.258 138.857 209.677 138.688 208.941 138.688H207.439Z" fill="#000"/>
<path d="M134.087 247V244.767H128.235V242.858C129.209 241.065 130.836 238.453 133.116 235.022H136.138V242.958H137.756V244.767H136.138V247H134.087ZM130.219 242.883V243.008H134.121V236.765H134.004C132.709 238.68 131.448 240.719 130.219 242.883Z" fill="#000"/>
<path fill-rule="evenodd" clip-rule="evenodd" d="M113.343 115.929L119.707 122.293C120.098 122.684 120.098 123.317 119.707 123.707L113.343 130.071C112.953 130.462 112.319 130.462 111.929 130.071C111.538 129.681 111.538 129.048 111.929 128.657L116.586 124L73 124L73 122L116.586 122L111.929 117.343C111.538 116.953 111.538 116.32 111.929 115.929C112.319 115.539 112.953 115.539 113.343 115.929Z" fill="#000"/>
<path fill-rule="evenodd" clip-rule="evenodd" d="M243.343 143.929L249.707 150.293C250.098 150.684 250.098 151.317 249.707 151.707L243.343 158.071C242.953 158.462 242.319 158.462 241.929 158.071C241.538 157.681 241.538 157.048 241.929 156.657L246.586 152L203 152L203 150L246.586 150L241.929 145.343C241.538 144.953 241.538 144.32 241.929 143.929C242.319 143.539 242.953 143.539 243.343 143.929Z" fill="#000"/>
<path fill-rule="evenodd" clip-rule="evenodd" d="M165.905 117.583L158.581 122.814C158.132 123.135 157.507 123.031 157.186 122.582L151.955 115.258C151.634 114.809 151.738 114.184 152.188 113.863C152.637 113.542 153.261 113.646 153.582 114.095L157.41 119.455L164.014 79.8359L165.986 80.1647L159.383 119.783L164.742 115.955C165.192 115.634 165.816 115.739 166.137 116.188C166.458 116.637 166.354 117.262 165.905 117.583Z" fill="#000"/>
<path fill-rule="evenodd" clip-rule="evenodd" d="M154.875 270.351C143.721 259.778 143 245.234 143 233H145C145 245.266 145.779 258.973 156.25 268.9C166.528 278.642 186.411 284.987 225.003 282.189L219.997 277.931C219.576 277.573 219.525 276.942 219.883 276.521C220.241 276.101 220.872 276.05 221.292 276.407L228.148 282.239C228.569 282.596 228.62 283.227 228.262 283.648L222.431 290.504C222.073 290.924 221.442 290.975 221.021 290.617C220.6 290.26 220.549 289.629 220.907 289.208L225.183 284.181C186.416 286.997 165.787 280.696 154.875 270.351Z" fill="#000"/>
</svg>
