<svg width="345" height="345" viewBox="0 0 345 345" fill="none" xmlns="http://www.w3.org/2000/svg">
<path d="M193.56 93.4001C193.12 95.8201 192.46 104.4 192.46 107.26C192.02 121.34 192.46 163.8 192.68 181.4L175.96 172.82C175.96 163.14 175.74 119.58 175.08 107.26C174.64 101.32 173.98 95.1601 173.54 93.4001H193.56ZM76.7402 123.98C106.66 123.54 161.66 121.56 195.54 121.56C222.38 121.56 249.44 121.56 260 121.78L259.78 138.06C247.24 137.4 227.44 136.96 195.32 136.96C157.48 136.96 110.18 138.5 77.1802 140.92L76.7402 123.98ZM192.24 187.78C192.24 217.26 178.6 232 158.36 232C139.88 232 122.28 219.02 122.28 195.04C122.28 173.26 140.1 156.98 161 156.98C186.74 156.98 199.72 175.9 199.72 201.42C199.72 231.12 185.2 264.12 133.94 279.3L119.2 265C159.46 255.76 182.78 235.96 182.78 199.66C182.78 179.86 173.1 171.5 161 171.5C149.56 171.5 138.78 180.52 138.78 194.82C138.78 208.68 149.12 216.82 161 216.82C174.86 216.82 183.66 205.16 180.14 181.84L192.24 187.78ZM223.92 88.78C228.98 96.2601 236.02 107.26 240.42 115.4L227.88 120.9C223.26 112.1 217.1 101.54 211.6 94.0601L223.92 88.78ZM250.54 83.0601C255.6 90.5401 262.42 101.1 267.04 109.46L254.72 115.18C249.88 105.94 243.94 95.8201 238.22 88.3401L250.54 83.0601Z" fill="#f00"/>
<path d="M227.439 81.6875V80.0273H228.9C229.509 80.0273 230.004 79.8613 230.386 79.5293C230.768 79.1917 230.958 78.7546 230.958 78.2178C230.958 77.6865 230.77 77.2632 230.394 76.9478C230.023 76.6268 229.525 76.4663 228.9 76.4663C228.28 76.4663 227.777 76.6296 227.389 76.9561C227.007 77.2826 226.797 77.728 226.758 78.2925H224.758C224.813 77.1912 225.217 76.3224 225.97 75.686C226.722 75.0441 227.721 74.7231 228.966 74.7231C230.128 74.7231 231.094 75.0275 231.863 75.6362C232.638 76.2394 233.025 77.0003 233.025 77.9189C233.025 78.6217 232.829 79.2222 232.436 79.7202C232.049 80.2183 231.523 80.5365 230.859 80.6748V80.8159C231.678 80.91 232.323 81.2171 232.793 81.7373C233.269 82.2575 233.507 82.916 233.507 83.7129C233.507 84.7422 233.075 85.5972 232.212 86.2778C231.354 86.9585 230.275 87.2988 228.975 87.2988C227.685 87.2988 226.634 86.9696 225.82 86.311C225.012 85.6525 224.581 84.7754 224.525 83.6797H226.576C226.62 84.2331 226.861 84.6758 227.298 85.0078C227.735 85.3343 228.299 85.4976 228.991 85.4976C229.677 85.4976 230.236 85.3205 230.668 84.9663C231.105 84.6066 231.324 84.1445 231.324 83.5801C231.324 82.9935 231.111 82.5314 230.685 82.1938C230.258 81.8563 229.677 81.6875 228.941 81.6875H227.439Z" fill="#000"/>
<path d="M258.087 81V78.7671H252.235V76.8579C253.209 75.0649 254.836 72.453 257.116 69.022H260.138V76.9575H261.756V78.7671H260.138V81H258.087ZM254.219 76.8828V77.0073H258.121V70.7651H258.004C256.709 72.6799 255.448 74.7191 254.219 76.8828Z" fill="#000"/>
<path d="M80.4248 106V96.1802H80.2837L77.3037 98.272V96.2134L80.4331 94.022H82.5664V106H80.4248Z" fill="#000"/>
<path d="M188 77.8018C188 76.6839 188.387 75.7708 189.162 75.0625C189.942 74.3542 190.947 74 192.175 74C193.36 74 194.333 74.3237 195.097 74.9712C195.866 75.6187 196.251 76.4432 196.251 77.4448C196.251 78.0868 196.057 78.7231 195.67 79.354C195.283 79.9793 194.58 80.7956 193.562 81.8027L191.055 84.3179V84.459H196.434V86.2769H188.116V84.791L192.109 80.707C192.928 79.877 193.473 79.2544 193.744 78.8394C194.015 78.4188 194.151 77.9982 194.151 77.5776C194.151 77.0519 193.957 76.6175 193.57 76.2744C193.188 75.9313 192.701 75.7598 192.109 75.7598C191.484 75.7598 190.977 75.9479 190.59 76.3242C190.202 76.7005 190.009 77.193 190.009 77.8018V77.835H188V77.8018Z" fill="#000"/>
<path fill-rule="evenodd" clip-rule="evenodd" d="M117.343 103.929L123.707 110.293C124.098 110.683 124.098 111.317 123.707 111.707L117.343 118.071C116.953 118.462 116.319 118.462 115.929 118.071C115.538 117.68 115.538 117.047 115.929 116.657L120.586 112L77 112L77 110L120.586 110L115.929 105.343C115.538 104.953 115.538 104.319 115.929 103.929C116.319 103.538 116.953 103.538 117.343 103.929Z" fill="#000"/>
<path fill-rule="evenodd" clip-rule="evenodd" d="M210.071 107.343L203.707 113.707C203.317 114.098 202.684 114.098 202.293 113.707L195.929 107.343C195.539 106.953 195.539 106.319 195.929 105.929C196.32 105.538 196.953 105.538 197.343 105.929L202 110.586L202 80L204 80L204 110.586L208.657 105.929C209.048 105.538 209.681 105.538 210.071 105.929C210.462 106.319 210.462 106.953 210.071 107.343Z" fill="#000"/>
<path fill-rule="evenodd" clip-rule="evenodd" d="M120.879 161.507C121.427 161.441 121.925 161.831 121.992 162.379L123.082 171.313C123.149 171.861 122.758 172.36 122.21 172.427C121.662 172.493 121.163 172.103 121.097 171.555L120.307 165.079C108.36 181.524 106.878 199.175 111.693 212.856C116.71 227.111 128.515 237 142.5 237V239C127.485 239 115.04 228.389 109.806 213.52C104.752 199.157 106.38 180.768 118.78 163.778L112.187 164.582C111.639 164.649 111.14 164.259 111.073 163.711C111.006 163.162 111.397 162.664 111.945 162.597L120.879 161.507Z" fill="#000"/>
</svg>
