<svg width="345" height="345" viewBox="0 0 345 345" fill="none" xmlns="http://www.w3.org/2000/svg">
<path d="M112.82 100.66C118.1 101.32 123.6 101.54 130.42 101.54C140.1 101.54 185.2 99.5601 197.96 98.0201C203.02 97.5801 207.42 96.7001 210.06 95.8201L221.06 108.58C217.98 110.34 212.48 114.3 209.4 116.72C192.9 130.14 161 156.98 143.62 170.84C177.06 167.32 216.44 164.46 248.12 164.46L248.34 180.74C226.78 179.64 205.66 179.86 192.46 181.62C171.12 184.7 150 202.96 150 223.42C150 245.86 167.82 253.12 188.06 255.98C200.82 257.74 211.6 257.3 219.52 256.64L216 274.46C162.1 276.66 132.84 259.94 132.84 226.06C132.84 207.36 147.14 191.52 158.36 184.7C135.04 186.68 105.56 189.98 79.1601 194.38L77.6201 177.88C89.5001 176.56 104.46 174.8 115.68 173.48C139.66 156.98 174.42 126.18 188.5 114.08C178.6 114.74 140.1 116.5 130.64 117.16C124.92 117.6 118.54 118.26 113.7 118.7L112.82 100.66ZM221.94 123.54C227 131.02 233.82 141.8 238.66 151.7L227.22 156.98C222.82 147.3 217.32 137.4 210.94 128.6L221.94 123.54ZM245.04 114.74C250.32 121.78 257.8 133 262.64 142.46L251.2 147.96C246.58 138.5 240.42 128.16 234.26 119.8L245.04 114.74Z" fill="#f00"/>
<path d="M222.283 112.525C222.283 111.407 222.671 110.494 223.445 109.786C224.226 109.077 225.23 108.723 226.458 108.723C227.643 108.723 228.617 109.047 229.38 109.694C230.15 110.342 230.534 111.166 230.534 112.168C230.534 112.81 230.34 113.446 229.953 114.077C229.566 114.702 228.863 115.519 227.845 116.526L225.338 119.041V119.182H230.717V121H222.399V119.514L226.392 115.43C227.211 114.6 227.756 113.978 228.027 113.562C228.299 113.142 228.434 112.721 228.434 112.301C228.434 111.775 228.24 111.341 227.853 110.998C227.471 110.654 226.984 110.483 226.392 110.483C225.767 110.483 225.26 110.671 224.873 111.047C224.486 111.424 224.292 111.916 224.292 112.525V112.558H222.283V112.525Z" fill="#000"/>
<path d="M252.439 109.688V108.027H253.9C254.509 108.027 255.004 107.861 255.386 107.529C255.768 107.192 255.958 106.755 255.958 106.218C255.958 105.687 255.77 105.263 255.394 104.948C255.023 104.627 254.525 104.466 253.9 104.466C253.28 104.466 252.777 104.63 252.389 104.956C252.007 105.283 251.797 105.728 251.758 106.292H249.758C249.813 105.191 250.217 104.322 250.97 103.686C251.722 103.044 252.721 102.723 253.966 102.723C255.128 102.723 256.094 103.028 256.863 103.636C257.638 104.239 258.025 105 258.025 105.919C258.025 106.622 257.829 107.222 257.436 107.72C257.049 108.218 256.523 108.536 255.859 108.675V108.816C256.678 108.91 257.323 109.217 257.793 109.737C258.269 110.257 258.507 110.916 258.507 111.713C258.507 112.742 258.075 113.597 257.212 114.278C256.354 114.958 255.275 115.299 253.975 115.299C252.685 115.299 251.634 114.97 250.82 114.311C250.012 113.653 249.581 112.775 249.525 111.68H251.576C251.62 112.233 251.861 112.676 252.298 113.008C252.735 113.334 253.299 113.498 253.991 113.498C254.677 113.498 255.236 113.32 255.668 112.966C256.105 112.607 256.324 112.145 256.324 111.58C256.324 110.993 256.111 110.531 255.685 110.194C255.258 109.856 254.677 109.688 253.941 109.688H252.439Z" fill="#000"/>
<path d="M115.425 85V75.1802H115.284L112.304 77.272V75.2134L115.433 73.022H117.566V85H115.425Z" fill="#000"/>
<path fill-rule="evenodd" clip-rule="evenodd" d="M152.343 82.9289L158.707 89.2928C159.098 89.6834 159.098 90.3165 158.707 90.7071L152.343 97.071C151.953 97.4615 151.319 97.4615 150.929 97.071C150.538 96.6805 150.538 96.0473 150.929 95.6568L155.586 91L112 90.9999L112 88.9999L155.586 89L150.929 84.3431C150.538 83.9526 150.538 83.3194 150.929 82.9289C151.319 82.5384 151.953 82.5384 152.343 82.9289Z" fill="#000"/>
<path fill-rule="evenodd" clip-rule="evenodd" d="M57.6326 190.502C56.1969 179.278 63.5018 166.095 78.3604 164.01L78.6384 165.99C64.9971 167.905 58.302 179.972 59.6164 190.248C60.2703 195.36 62.9013 199.967 67.6062 202.664C71.9114 205.131 78.0859 206.075 86.3285 204.16L80.6465 201.003C80.1637 200.735 79.9897 200.126 80.2579 199.644C80.5262 199.161 81.135 198.987 81.6177 199.255L89.4852 203.626C89.968 203.894 90.1419 204.503 89.8737 204.986L85.5029 212.853C85.2347 213.336 84.6259 213.51 84.1431 213.242C83.6603 212.973 83.4864 212.365 83.7546 211.882L86.9894 206.059C78.2963 208.118 71.5091 207.206 66.6116 204.399C61.2853 201.346 58.3538 196.14 57.6326 190.502Z" fill="#000"/>
<path fill-rule="evenodd" clip-rule="evenodd" d="M267.935 174.32C268.663 163.86 260.847 153.074 246.139 151.01L245.861 152.99C259.653 154.926 266.586 164.89 265.94 174.181C265.615 178.837 263.394 183.39 259.09 186.794C255.195 189.875 249.548 192.049 241.976 192.438L246.571 187.843C246.961 187.453 246.961 186.82 246.571 186.429C246.18 186.038 245.547 186.038 245.157 186.429L238.793 192.793C238.402 193.183 238.402 193.817 238.793 194.207L245.157 200.571C245.547 200.962 246.18 200.962 246.571 200.571C246.961 200.181 246.961 199.547 246.571 199.157L241.86 194.446C249.867 194.071 256.008 191.782 260.331 188.362C265.075 184.61 267.571 179.539 267.935 174.32Z" fill="#000"/>
</svg>
