<svg width="345" height="345" viewBox="0 0 345 345" fill="none" xmlns="http://www.w3.org/2000/svg">
<path d="M229.2 139.6C224.14 142.68 218.64 145.54 212.26 148.84C197.3 156.54 172.88 167.98 151.32 182.28C130.86 195.7 118.54 210.22 118.54 226.72C118.54 244.98 135.92 256.42 170.68 256.42C194.66 256.42 224.14 253.34 241.3 248.94L241.08 268.74C224.58 271.6 199.06 274.02 171.56 274.02C130.2 274.02 100.28 261.7 100.28 228.7C100.28 204.94 116.34 186.24 142.08 169.08C164.52 154.12 190.26 142.02 204.56 134.1C210.94 130.36 215.78 127.5 220.4 123.54L229.2 139.6ZM123.82 96.7C133.94 124.86 147.36 152.36 157.7 169.96L142.52 179.2C131.52 161.16 118.32 131.46 106.44 104.18L123.82 96.7ZM232.94 94.5C238.44 102.64 246.36 115.84 250.76 124.86L238.88 130.36C234.48 121.34 227.22 107.92 221.06 99.56L232.94 94.5ZM257.14 85.7C262.86 93.84 271.44 107.7 275.62 115.84L263.74 121.12C258.9 111.66 251.86 98.8999 245.48 90.7599L257.14 85.7Z" fill="#f00"/>
<path d="M233.439 83.6875V82.0273H234.9C235.509 82.0273 236.004 81.8613 236.386 81.5293C236.768 81.1917 236.958 80.7546 236.958 80.2178C236.958 79.6865 236.77 79.2632 236.394 78.9478C236.023 78.6268 235.525 78.4663 234.9 78.4663C234.28 78.4663 233.777 78.6296 233.389 78.9561C233.007 79.2826 232.797 79.728 232.758 80.2925H230.758C230.813 79.1912 231.217 78.3224 231.97 77.686C232.722 77.0441 233.721 76.7231 234.966 76.7231C236.128 76.7231 237.094 77.0275 237.863 77.6362C238.638 78.2394 239.025 79.0003 239.025 79.9189C239.025 80.6217 238.829 81.2222 238.436 81.7202C238.049 82.2183 237.523 82.5365 236.859 82.6748V82.8159C237.678 82.91 238.323 83.2171 238.793 83.7373C239.269 84.2575 239.507 84.916 239.507 85.7129C239.507 86.7422 239.075 87.5972 238.212 88.2778C237.354 88.9585 236.275 89.2988 234.975 89.2988C233.685 89.2988 232.634 88.9696 231.82 88.311C231.012 87.6525 230.581 86.7754 230.525 85.6797H232.576C232.62 86.2331 232.861 86.6758 233.298 87.0078C233.735 87.3343 234.299 87.4976 234.991 87.4976C235.677 87.4976 236.236 87.3205 236.668 86.9663C237.105 86.6066 237.324 86.1445 237.324 85.5801C237.324 84.9935 237.111 84.5314 236.685 84.1938C236.258 83.8563 235.677 83.6875 234.941 83.6875H233.439Z" fill="#000"/>
<path d="M264.087 83V80.7671H258.235V78.8579C259.209 77.0649 260.836 74.453 263.116 71.022H266.138V78.9575H267.756V80.7671H266.138V83H264.087ZM260.219 78.8828V79.0073H264.121V72.7651H264.004C262.709 74.6799 261.448 76.7191 260.219 78.8828Z" fill="#000"/>
<path d="M144.426 97V87.1802H144.285L141.305 89.272V87.2134L144.434 85.022H146.567V97H144.426Z" fill="#000"/>
<path d="M230.283 161.525C230.283 160.407 230.671 159.494 231.445 158.786C232.226 158.077 233.23 157.723 234.458 157.723C235.643 157.723 236.617 158.047 237.38 158.694C238.15 159.342 238.534 160.166 238.534 161.168C238.534 161.81 238.34 162.446 237.953 163.077C237.566 163.702 236.863 164.519 235.845 165.526L233.338 168.041V168.182H238.717V170H230.399V168.514L234.392 164.43C235.211 163.6 235.756 162.978 236.027 162.562C236.299 162.142 236.434 161.721 236.434 161.301C236.434 160.775 236.24 160.341 235.853 159.998C235.471 159.654 234.984 159.483 234.392 159.483C233.767 159.483 233.26 159.671 232.873 160.047C232.486 160.424 232.292 160.916 232.292 161.525V161.558H230.283V161.525Z" fill="#000"/>
<path fill-rule="evenodd" clip-rule="evenodd" d="M153.218 124.728L149.695 133.009C149.478 133.518 148.891 133.754 148.383 133.538L140.101 130.015C139.593 129.798 139.357 129.211 139.573 128.703C139.789 128.195 140.376 127.958 140.884 128.174L146.945 130.753L131.073 91.3738L132.928 90.6261L148.8 130.005L151.378 123.945C151.594 123.437 152.181 123.2 152.689 123.416C153.198 123.632 153.434 124.22 153.218 124.728Z" fill="#000"/>
<path fill-rule="evenodd" clip-rule="evenodd" d="M194.516 182.077L185.766 179.972C185.229 179.843 184.898 179.303 185.027 178.766L187.132 170.016C187.261 169.479 187.801 169.148 188.338 169.277C188.875 169.406 189.206 169.946 189.076 170.483L187.536 176.886L234.477 148.147L235.522 149.853L188.581 178.592L194.984 180.132C195.521 180.261 195.852 180.801 195.722 181.338C195.593 181.875 195.053 182.206 194.516 182.077Z" fill="#000"/>
</svg>
