<svg width="345" height="345" viewBox="0 0 345 345" fill="none" xmlns="http://www.w3.org/2000/svg">
<path d="M167.82 146.42C173.54 142.68 179.92 138.06 183.22 135.2C173.54 127.5 153.08 116.28 136.14 109.46L146.26 96.9199C163.2 103.74 187.4 115.84 200.6 125.52L204.78 136.96C199.5 141.36 186.96 151.04 178.82 156.76L167.82 146.42ZM125.36 251.58C136.58 254.66 147.14 256.42 160.78 256.42C170.9 256.42 183.22 252.46 183.22 238.16C183.22 223.2 167.16 203.4 155.06 189.98C150.22 184.92 143.4 178.54 137.46 173.48L150.44 162.04C155.72 167.76 161.44 173.7 166.5 179.2C187.18 200.76 201.7 220.12 201.7 240.14C201.7 267.2 179.7 273.14 163.86 273.14C149.78 273.14 137.68 271.6 127.78 269.62L125.36 251.58ZM252.3 259.72C246.14 238.82 230.74 207.36 215.56 190.2L230.08 182.06C245.04 199.88 261.76 231.34 268.58 250.92L252.3 259.72ZM132.84 216.82C120.08 230.02 98.0797 248.72 76.7397 261.48L66.1797 246.74C84.4397 237.06 109.96 217.48 122.5 203.62L132.84 216.82ZM230.3 118.92C235.8 126.84 243.94 140.26 248.34 149.28L236.46 154.56C232.06 145.54 224.58 132.34 218.64 123.98L230.3 118.92ZM254.5 110.12C260.44 118.26 269.02 131.9 272.98 140.04L261.32 145.54C256.48 135.86 249.22 123.32 242.84 115.18L254.5 110.12Z" fill="#f00"/>
<path d="M236.066 112.299C234.832 112.299 233.82 111.961 233.028 111.286C232.237 110.611 231.816 109.742 231.767 108.68H233.775C233.842 109.228 234.088 109.67 234.514 110.008C234.94 110.345 235.463 110.514 236.083 110.514C236.786 110.514 237.353 110.298 237.785 109.867C238.222 109.43 238.44 108.854 238.44 108.14C238.44 107.426 238.222 106.848 237.785 106.405C237.353 105.957 236.791 105.733 236.1 105.733C235.613 105.733 235.178 105.835 234.796 106.04C234.42 106.245 234.121 106.535 233.9 106.912H231.958L232.58 100.022H239.793V101.832H234.24L233.95 105.193H234.091C234.644 104.446 235.488 104.073 236.623 104.073C237.757 104.073 238.687 104.449 239.412 105.202C240.142 105.954 240.507 106.917 240.507 108.09C240.507 109.341 240.098 110.356 239.279 111.137C238.465 111.911 237.395 112.299 236.066 112.299Z" fill="#000"/>
<path d="M264.167 106.291C263.287 106.291 262.509 106.089 261.834 105.685C261.159 105.281 260.622 104.694 260.224 103.925C259.659 102.929 259.377 101.667 259.377 100.14C259.377 98.1253 259.803 96.5537 260.655 95.4248C261.513 94.2904 262.706 93.7231 264.233 93.7231C265.323 93.7231 266.253 94.022 267.022 94.6196C267.797 95.2118 268.273 96.0003 268.45 96.9854H266.308C266.175 96.5316 265.921 96.1746 265.544 95.9146C265.174 95.6489 264.731 95.5161 264.216 95.5161C263.342 95.5161 262.659 95.9035 262.166 96.6782C261.674 97.4474 261.427 98.5182 261.427 99.8906H261.568C261.851 99.3206 262.263 98.8807 262.805 98.5708C263.347 98.2554 263.97 98.0977 264.673 98.0977C265.813 98.0977 266.754 98.474 267.495 99.2266C268.242 99.9792 268.616 100.931 268.616 102.082C268.616 103.316 268.198 104.326 267.362 105.112C266.532 105.898 265.467 106.291 264.167 106.291ZM264.142 104.506C264.817 104.506 265.381 104.282 265.835 103.833C266.289 103.38 266.516 102.818 266.516 102.148C266.516 101.462 266.294 100.901 265.852 100.463C265.409 100.021 264.844 99.7993 264.158 99.7993C263.472 99.7993 262.905 100.018 262.457 100.455C262.008 100.892 261.784 101.446 261.784 102.115C261.784 102.796 262.008 103.366 262.457 103.825C262.91 104.279 263.472 104.506 264.142 104.506Z" fill="#000"/>
<path d="M166.426 84V74.1802H166.285L163.305 76.272V74.2134L166.434 72.022H168.567V84H166.426Z" fill="#000"/>
<path d="M178.283 164.525C178.283 163.407 178.671 162.494 179.445 161.786C180.226 161.077 181.23 160.723 182.458 160.723C183.643 160.723 184.617 161.047 185.38 161.694C186.15 162.342 186.534 163.166 186.534 164.168C186.534 164.81 186.34 165.446 185.953 166.077C185.566 166.702 184.863 167.519 183.845 168.526L181.338 171.041V171.182H186.717V173H178.399V171.514L182.392 167.43C183.211 166.6 183.756 165.978 184.027 165.562C184.299 165.142 184.434 164.721 184.434 164.301C184.434 163.775 184.24 163.341 183.853 162.998C183.471 162.654 182.984 162.483 182.392 162.483C181.767 162.483 181.26 162.671 180.873 163.047C180.486 163.424 180.292 163.916 180.292 164.525V164.558H178.283V164.525Z" fill="#000"/>
<path d="M99.4399 192.688V191.027H100.901C101.51 191.027 102.005 190.861 102.387 190.529C102.769 190.192 102.959 189.755 102.959 189.218C102.959 188.687 102.771 188.263 102.395 187.948C102.024 187.627 101.526 187.466 100.901 187.466C100.281 187.466 99.7775 187.63 99.3901 187.956C99.0083 188.283 98.798 188.728 98.7593 189.292H96.7588C96.8141 188.191 97.2181 187.322 97.9707 186.686C98.7233 186.044 99.7222 185.723 100.967 185.723C102.129 185.723 103.095 186.028 103.864 186.636C104.639 187.239 105.026 188 105.026 188.919C105.026 189.622 104.83 190.222 104.437 190.72C104.05 191.218 103.524 191.536 102.86 191.675V191.816C103.679 191.91 104.324 192.217 104.794 192.737C105.27 193.257 105.508 193.916 105.508 194.713C105.508 195.742 105.076 196.597 104.213 197.278C103.355 197.958 102.276 198.299 100.976 198.299C99.6862 198.299 98.6348 197.97 97.8213 197.311C97.0133 196.653 96.5817 195.775 96.5264 194.68H98.5767C98.6209 195.233 98.8617 195.676 99.2988 196.008C99.736 196.334 100.3 196.498 100.992 196.498C101.678 196.498 102.237 196.32 102.669 195.966C103.106 195.607 103.325 195.145 103.325 194.58C103.325 193.993 103.112 193.531 102.686 193.194C102.259 192.856 101.678 192.688 100.942 192.688H99.4399Z" fill="#000"/>
<path d="M255.087 185V182.767H249.235V180.858C250.209 179.065 251.836 176.453 254.116 173.022H257.138V180.958H258.756V182.767H257.138V185H255.087ZM251.219 180.883V181.007H255.121V174.765H255.004C253.709 176.68 252.448 178.719 251.219 180.883Z" fill="#000"/>
<path fill-rule="evenodd" clip-rule="evenodd" d="M195.587 189.353L195.057 198.337C195.024 198.889 194.551 199.309 194 199.277L185.015 198.746C184.464 198.714 184.043 198.24 184.076 197.689C184.108 197.138 184.582 196.717 185.133 196.75L191.707 197.138L162.757 164.555L164.252 163.227L193.202 195.809L193.591 189.235C193.623 188.684 194.096 188.263 194.648 188.296C195.199 188.328 195.62 188.802 195.587 189.353Z" fill="#000"/>
<path fill-rule="evenodd" clip-rule="evenodd" d="M191.919 100.092L194.55 108.699C194.712 109.227 194.414 109.786 193.886 109.948L185.279 112.579C184.751 112.74 184.192 112.443 184.031 111.915C183.869 111.387 184.167 110.828 184.695 110.666L190.993 108.741L155.53 89.8829L156.469 88.1171L191.932 106.975L190.007 100.677C189.845 100.149 190.143 99.5898 190.671 99.4284C191.199 99.2669 191.758 99.5642 191.919 100.092Z" fill="#000"/>
<path fill-rule="evenodd" clip-rule="evenodd" d="M87.9252 230.359L78.941 229.825C78.3897 229.793 77.9693 229.319 78.002 228.768L78.5352 219.784C78.5679 219.232 79.0413 218.812 79.5926 218.845C80.144 218.877 80.5644 219.351 80.5316 219.902L80.1415 226.476L111.927 198.252L113.255 199.748L81.4694 227.972L88.0437 228.362C88.595 228.395 89.0154 228.868 88.9827 229.42C88.9499 229.971 88.4765 230.391 87.9252 230.359Z" fill="#000"/>
<path fill-rule="evenodd" clip-rule="evenodd" d="M267.544 210.648L265.154 219.325C265.007 219.857 264.456 220.17 263.924 220.024L255.247 217.634C254.715 217.487 254.402 216.936 254.549 216.404C254.695 215.871 255.246 215.559 255.778 215.705L262.128 217.454L241.131 180.494L242.87 179.506L263.867 216.466L265.615 210.117C265.762 209.585 266.313 209.272 266.845 209.418C267.378 209.565 267.69 210.116 267.544 210.648Z" fill="#000"/>
</svg>
