<svg width="345" height="345" viewBox="0 0 345 345" fill="none" xmlns="http://www.w3.org/2000/svg">
<path d="M220.4 98.6799C219.96 102.42 219.52 109.9 219.52 114.74C219.3 128.38 219.08 143.78 218.86 155.22C218.42 171.94 217.76 195.7 215.34 207.36C213.58 217.04 208.52 219.9 198.62 219.9C190.48 219.9 175.3 217.92 169.58 216.82L169.8 201.64C177.5 203.18 186.74 204.5 191.8 204.5C197.3 204.5 199.5 203.4 200.38 198.56C201.7 189.98 202.58 170.84 202.8 155.22C203.02 142.9 203.02 127.5 203.02 115.4C203.02 110.56 202.36 102.64 201.7 98.6799H220.4ZM133.5 105.72C132.84 110.78 132.62 116.72 132.62 123.54C132.4 147.3 131.74 207.8 132.18 223.2C133.06 246.74 133.28 255.1 171.34 255.1C195.32 255.1 222.6 252.68 236.9 250.04L236.24 268.52C221.5 270.28 194.66 272.26 172.22 272.26C121.4 272.26 116.56 260.6 115.68 225.62C115.24 206.92 115.46 134.32 115.46 124.2C115.46 117.6 115.24 112.54 114.14 105.72H133.5ZM67.7197 158.3C74.5397 158.3 82.6797 157.86 90.5997 157.2C114.36 155.22 198.18 146.2 243.28 143.78C249 143.56 255.38 143.12 260.44 142.68V160.06C257.14 159.84 248.78 160.06 243.28 160.06C208.08 160.94 119.64 169.96 91.6997 173.26C84.8797 174.14 75.6397 175.46 69.4797 176.34L67.7197 158.3ZM239.32 98.24C243.5 106.16 249.22 119.8 252.52 129.04L241.52 132.56C238.22 123.1 233.16 109.9 228.76 101.54L239.32 98.24ZM261.32 91.2C265.5 99.34 271.44 112.76 274.74 121.78L263.74 125.52C260.22 115.62 255.38 102.64 250.76 94.4999L261.32 91.2Z" fill="#f00"/>
<path d="M244.087 99V96.7671H238.235V94.8579C239.209 93.0649 240.836 90.453 243.116 87.022H246.138V94.9575H247.756V96.7671H246.138V99H244.087ZM240.219 94.8828V95.0073H244.121V88.7651H244.004C242.709 90.6799 241.448 92.7191 240.219 94.8828Z" fill="#000"/>
<path d="M271.066 93.2988C269.832 93.2988 268.82 92.9613 268.028 92.2861C267.237 91.611 266.816 90.7422 266.767 89.6797H268.775C268.842 90.2275 269.088 90.6702 269.514 91.0078C269.94 91.3454 270.463 91.5142 271.083 91.5142C271.786 91.5142 272.353 91.2983 272.785 90.8667C273.222 90.4295 273.44 89.854 273.44 89.1401C273.44 88.4263 273.222 87.848 272.785 87.4053C272.353 86.957 271.791 86.7329 271.1 86.7329C270.613 86.7329 270.178 86.8353 269.796 87.04C269.42 87.2448 269.121 87.5353 268.9 87.9116H266.958L267.58 81.022H274.793V82.8315H269.24L268.95 86.1934H269.091C269.644 85.4463 270.488 85.0728 271.623 85.0728C272.757 85.0728 273.687 85.4491 274.412 86.2017C275.142 86.9543 275.507 87.9172 275.507 89.0903C275.507 90.341 275.098 91.3564 274.279 92.1367C273.465 92.9115 272.395 93.2988 271.066 93.2988Z" fill="#000"/>
<path d="M65.4258 139V129.18H65.2847L62.3047 131.272V129.213L65.4341 127.022H67.5674V139H65.4258Z" fill="#000"/>
<path d="M179 96.8018C179 95.6839 179.387 94.7708 180.162 94.0625C180.942 93.3542 181.947 93 183.175 93C184.36 93 185.333 93.3237 186.097 93.9712C186.866 94.6187 187.251 95.4432 187.251 96.4448C187.251 97.0868 187.057 97.7231 186.67 98.354C186.283 98.9793 185.58 99.7956 184.562 100.803L182.055 103.318V103.459H187.434V105.277H179.116V103.791L183.109 99.707C183.928 98.877 184.473 98.2544 184.744 97.8394C185.015 97.4188 185.151 96.9982 185.151 96.5776C185.151 96.0519 184.957 95.6175 184.57 95.2744C184.188 94.9313 183.701 94.7598 183.109 94.7598C182.484 94.7598 181.977 94.9479 181.59 95.3242C181.202 95.7005 181.009 96.193 181.009 96.8018V96.835H179V96.8018Z" fill="#000"/>
<path d="M153.439 104.688V103.027H154.9C155.509 103.027 156.004 102.861 156.386 102.529C156.768 102.192 156.958 101.755 156.958 101.218C156.958 100.687 156.77 100.263 156.394 99.9478C156.023 99.6268 155.525 99.4663 154.9 99.4663C154.28 99.4663 153.777 99.6296 153.389 99.9561C153.007 100.283 152.797 100.728 152.758 101.292H150.758C150.813 100.191 151.217 99.3224 151.97 98.686C152.722 98.0441 153.721 97.7231 154.966 97.7231C156.128 97.7231 157.094 98.0275 157.863 98.6362C158.638 99.2394 159.025 100 159.025 100.919C159.025 101.622 158.829 102.222 158.436 102.72C158.049 103.218 157.523 103.536 156.859 103.675V103.816C157.678 103.91 158.323 104.217 158.793 104.737C159.269 105.257 159.507 105.916 159.507 106.713C159.507 107.742 159.075 108.597 158.212 109.278C157.354 109.958 156.275 110.299 154.975 110.299C153.685 110.299 152.634 109.97 151.82 109.311C151.012 108.653 150.581 107.775 150.525 106.68H152.576C152.62 107.233 152.861 107.676 153.298 108.008C153.735 108.334 154.299 108.498 154.991 108.498C155.677 108.498 156.236 108.32 156.668 107.966C157.105 107.607 157.324 107.145 157.324 106.58C157.324 105.993 157.111 105.531 156.685 105.194C156.258 104.856 155.677 104.688 154.941 104.688H153.439Z" fill="#000"/>
<path fill-rule="evenodd" clip-rule="evenodd" d="M102.343 136.929L108.707 143.293C109.098 143.683 109.098 144.317 108.707 144.707L102.343 151.071C101.953 151.462 101.319 151.462 100.929 151.071C100.538 150.68 100.538 150.047 100.929 149.657L105.586 145L62 145L62 143L105.586 143L100.929 138.343C100.538 137.953 100.538 137.319 100.929 136.929C101.319 136.538 101.953 136.538 102.343 136.929Z" fill="#000"/>
<path fill-rule="evenodd" clip-rule="evenodd" d="M201.435 135.343L195.071 141.707C194.68 142.098 194.047 142.098 193.656 141.707L187.293 135.343C186.902 134.953 186.902 134.319 187.293 133.929C187.683 133.538 188.316 133.538 188.707 133.929L193.364 138.586L193.364 95L195.364 95L195.364 138.586L200.02 133.929C200.411 133.538 201.044 133.538 201.435 133.929C201.825 134.319 201.825 134.953 201.435 135.343Z" fill="#000"/>
<path fill-rule="evenodd" clip-rule="evenodd" d="M151.071 139.343L144.707 145.707C144.317 146.098 143.684 146.098 143.293 145.707L136.929 139.343C136.539 138.953 136.539 138.319 136.929 137.929C137.32 137.538 137.953 137.538 138.343 137.929L143 142.586L143 99L145 99L145 142.586L149.657 137.929C150.048 137.538 150.681 137.538 151.071 137.929C151.462 138.319 151.462 138.953 151.071 139.343Z" fill="#000"/>
</svg>
