<svg width="345" height="345" viewBox="0 0 345 345" fill="none" xmlns="http://www.w3.org/2000/svg">
<path d="M202.36 140.04C208.08 148.18 217.1 164.02 221.5 172.16L209.4 177.44C204.78 168.64 196.42 153.46 190.92 144.88L202.36 140.04ZM228.1 129.92C233.82 137.62 242.84 152.8 247.68 161.6L235.58 166.88C230.52 157.64 222.38 143.56 216.44 135.42L228.1 129.92ZM213.8 102.86C209.18 106.38 202.36 112.32 198.62 115.4C183.66 128.6 151.98 153.46 135.7 167.1C122.5 178.54 122.28 181.84 136.58 193.72C156.6 210.22 195.32 241.46 218.64 265L203.02 279.3C198.4 274.02 193.34 268.74 188.06 263.24C172.44 247.4 139 218.8 118.54 201.86C97.6405 184.48 100.28 175.02 120.08 158.3C136.8 144.44 170.02 118.04 184.98 103.08C189.16 98.6798 194.88 92.2998 197.52 88.3398L213.8 102.86Z" fill="#f00"/>
<path d="M204.283 128.525C204.283 127.407 204.671 126.494 205.445 125.786C206.226 125.077 207.23 124.723 208.458 124.723C209.643 124.723 210.617 125.047 211.38 125.694C212.15 126.342 212.534 127.166 212.534 128.168C212.534 128.81 212.34 129.446 211.953 130.077C211.566 130.702 210.863 131.519 209.845 132.526L207.338 135.041V135.182H212.717V137H204.399V135.514L208.392 131.43C209.211 130.6 209.756 129.978 210.027 129.562C210.299 129.142 210.434 128.721 210.434 128.301C210.434 127.775 210.24 127.341 209.853 126.998C209.471 126.654 208.984 126.483 208.392 126.483C207.767 126.483 207.26 126.671 206.873 127.047C206.486 127.424 206.292 127.916 206.292 128.525V128.558H204.283V128.525Z" fill="#000"/>
<path d="M234.439 125.688V124.027H235.9C236.509 124.027 237.004 123.861 237.386 123.529C237.768 123.192 237.958 122.755 237.958 122.218C237.958 121.687 237.77 121.263 237.394 120.948C237.023 120.627 236.525 120.466 235.9 120.466C235.28 120.466 234.777 120.63 234.389 120.956C234.007 121.283 233.797 121.728 233.758 122.292H231.758C231.813 121.191 232.217 120.322 232.97 119.686C233.722 119.044 234.721 118.723 235.966 118.723C237.128 118.723 238.094 119.028 238.863 119.636C239.638 120.239 240.025 121 240.025 121.919C240.025 122.622 239.829 123.222 239.436 123.72C239.049 124.218 238.523 124.536 237.859 124.675V124.816C238.678 124.91 239.323 125.217 239.793 125.737C240.269 126.257 240.507 126.916 240.507 127.713C240.507 128.742 240.075 129.597 239.212 130.278C238.354 130.958 237.275 131.299 235.975 131.299C234.685 131.299 233.634 130.97 232.82 130.311C232.012 129.653 231.581 128.775 231.525 127.68H233.576C233.62 128.233 233.861 128.676 234.298 129.008C234.735 129.334 235.299 129.498 235.991 129.498C236.677 129.498 237.236 129.32 237.668 128.966C238.105 128.607 238.324 128.145 238.324 127.58C238.324 126.993 238.111 126.531 237.685 126.194C237.258 125.856 236.677 125.688 235.941 125.688H234.439Z" fill="#000"/>
<path d="M182.426 72V62.1802H182.285L179.305 64.272V62.2134L182.434 60.022H184.567V72H182.426Z" fill="#000"/>
<path fill-rule="evenodd" clip-rule="evenodd" d="M157.92 121.56L148.938 120.998C148.386 120.964 147.967 120.489 148.002 119.938L148.563 110.955C148.598 110.404 149.072 109.985 149.624 110.02C150.175 110.054 150.594 110.529 150.559 111.08L150.149 117.653L199.338 74.2504L200.662 75.75L151.472 119.153L158.045 119.564C158.596 119.598 159.015 120.073 158.98 120.624C158.946 121.175 158.471 121.594 157.92 121.56Z" fill="#000"/>
</svg>
