<svg width="345" height="345" viewBox="0 0 345 345" fill="none" xmlns="http://www.w3.org/2000/svg">
<path d="M109.52 112.98C125.36 114.96 145.82 115.84 167.82 115.84C188.94 115.84 211.16 114.3 227.22 112.76V130.8C212.26 131.9 188.06 133.44 167.82 133.44C145.82 133.44 126.9 132.34 109.52 131.02V112.98ZM118.54 201.64C115.68 210.44 113.92 218.58 113.92 226.72C113.92 243.66 130.86 255.1 166.28 255.1C196.64 255.1 224.8 251.8 241.52 246.52L241.74 265.22C225.9 269.62 197.96 272.92 166.72 272.92C121.84 272.92 96.0996 258.18 96.0996 230.68C96.0996 219.24 98.5196 208.9 100.5 200.1L118.54 201.64ZM233.38 88.5598C238.88 96.4798 246.8 109.9 251.42 118.92L239.32 124.2C234.92 115.18 227.44 101.76 221.5 93.6198L233.38 88.5598ZM257.58 79.7598C263.3 87.8998 271.88 101.54 276.06 109.68L264.18 115.18C259.34 105.5 252.08 92.9598 245.92 84.8198L257.58 79.7598Z" fill="#f00"/>
<path d="M231.439 74.6875V73.0273H232.9C233.509 73.0273 234.004 72.8613 234.386 72.5293C234.768 72.1917 234.958 71.7546 234.958 71.2178C234.958 70.6865 234.77 70.2632 234.394 69.9478C234.023 69.6268 233.525 69.4663 232.9 69.4663C232.28 69.4663 231.777 69.6296 231.389 69.9561C231.007 70.2826 230.797 70.728 230.758 71.2925H228.758C228.813 70.1912 229.217 69.3224 229.97 68.686C230.722 68.0441 231.721 67.7231 232.966 67.7231C234.128 67.7231 235.094 68.0275 235.863 68.6362C236.638 69.2394 237.025 70.0003 237.025 70.9189C237.025 71.6217 236.829 72.2222 236.436 72.7202C236.049 73.2183 235.523 73.5365 234.859 73.6748V73.8159C235.678 73.91 236.323 74.2171 236.793 74.7373C237.269 75.2575 237.507 75.916 237.507 76.7129C237.507 77.7422 237.075 78.5972 236.212 79.2778C235.354 79.9585 234.275 80.2988 232.975 80.2988C231.685 80.2988 230.634 79.9696 229.82 79.311C229.012 78.6525 228.581 77.7754 228.525 76.6797H230.576C230.62 77.2331 230.861 77.6758 231.298 78.0078C231.735 78.3343 232.299 78.4976 232.991 78.4976C233.677 78.4976 234.236 78.3205 234.668 77.9663C235.105 77.6066 235.324 77.1445 235.324 76.5801C235.324 75.9935 235.111 75.5314 234.685 75.1938C234.258 74.8563 233.677 74.6875 232.941 74.6875H231.439Z" fill="#000"/>
<path d="M262.087 74V71.7671H256.235V69.8579C257.209 68.0649 258.836 65.453 261.116 62.022H264.138V69.9575H265.756V71.7671H264.138V74H262.087ZM258.219 69.8828V70.0073H262.121V63.7651H262.004C260.709 65.6799 259.448 67.7191 258.219 69.8828Z" fill="#000"/>
<path d="M119.426 97V87.1802H119.285L116.305 89.272V87.2134L119.434 85.022H121.567V97H119.426Z" fill="#000"/>
<path d="M60.2832 205.525C60.2832 204.407 60.6706 203.494 61.4453 202.786C62.2256 202.077 63.23 201.723 64.4585 201.723C65.6427 201.723 66.6167 202.047 67.3804 202.694C68.1496 203.342 68.5342 204.166 68.5342 205.168C68.5342 205.81 68.3405 206.446 67.9531 207.077C67.5658 207.702 66.863 208.519 65.8447 209.526L63.3379 212.041V212.182H68.7168V214H60.3994V212.514L64.3921 208.43C65.2111 207.6 65.7562 206.978 66.0273 206.562C66.2985 206.142 66.4341 205.721 66.4341 205.301C66.4341 204.775 66.2404 204.341 65.853 203.998C65.4712 203.654 64.9842 203.483 64.3921 203.483C63.7668 203.483 63.2604 203.671 62.873 204.047C62.4857 204.424 62.292 204.916 62.292 205.525V205.558H60.2832V205.525Z" fill="#000"/>
<path fill-rule="evenodd" clip-rule="evenodd" d="M181.343 97.9291L187.707 104.293C188.098 104.684 188.098 105.317 187.707 105.707L181.343 112.071C180.953 112.462 180.319 112.462 179.929 112.071C179.538 111.681 179.538 111.048 179.929 110.657L184.586 106H115V104H184.586L179.929 99.3433C179.538 98.9528 179.538 98.3196 179.929 97.9291C180.319 97.5386 180.953 97.5386 181.343 97.9291Z" fill="#000"/>
<path fill-rule="evenodd" clip-rule="evenodd" d="M82.9976 250.754C75.4844 233.77 77.2339 213.827 82.5835 201.599L84.4158 202.401C79.2654 214.173 77.5648 233.529 84.8266 249.945C88.4476 258.131 94.2932 265.579 103.053 271.013C111.349 276.158 122.309 279.527 136.563 279.956L131.965 275.298C131.577 274.905 131.581 274.272 131.974 273.884C132.367 273.496 133 273.5 133.388 273.893L139.711 280.297C140.099 280.69 140.095 281.324 139.702 281.712L133.298 288.035C132.905 288.423 132.271 288.419 131.883 288.026C131.495 287.633 131.499 286.999 131.892 286.611L136.606 281.958C122.015 281.533 110.666 278.087 101.999 272.712C92.8623 267.045 86.7641 259.269 82.9976 250.754Z" fill="#000"/>
</svg>
