<svg width="345" height="345" viewBox="0 0 345 345" fill="none" xmlns="http://www.w3.org/2000/svg">
<path d="M231.84 84.1601C237.34 92.0801 245.26 105.72 249.88 114.52L238 119.8C233.6 111 226.12 97.5801 219.96 89.2201L231.84 84.1601ZM256.26 75.5801C261.98 83.7201 270.56 97.5801 274.74 105.72L262.86 111C258.02 101.32 250.76 89.0001 244.6 80.6401L256.26 75.5801ZM174.86 110.78C173.32 106.16 171.34 99.3401 169.36 93.6201L188.06 91.2001C190.26 103.96 195.76 122.88 201.04 137.18C207.86 156.32 219.08 176.56 228.32 189.54C231.4 193.72 234.7 197.46 238 201.2L228.98 213.52C218.42 211.1 191.8 208.68 175.96 207.58L177.28 192.84C189.6 193.94 205.88 195.26 213.8 196.14C204.34 182.28 192.46 160.28 184.98 140.48C180.14 127.72 177.06 117.82 174.86 110.78ZM94.3398 127.94C131.08 132.34 165.62 132.34 190.92 129.7C208.3 127.72 230.08 123.76 247.24 118.04L249.22 135.2C233.6 139.82 212.48 143.34 196.42 145.1C168.48 148.4 133.5 148.62 94.7798 145.54L94.3398 127.94ZM128.22 198.12C121.62 208.68 117.88 218.14 117.88 228.7C117.88 249.6 136.8 258.84 169.58 259.06C192.02 259.28 210.94 257.08 226.34 253.56L225.46 271.16C211.82 273.58 193.12 276 168.7 276C126.9 275.56 100.5 260.6 100.5 230.68C100.5 218.58 104.68 207.14 111.06 194.16L128.22 198.12Z" fill="#f00"/>
<path d="M231.439 74.6875V73.0273H232.9C233.509 73.0273 234.004 72.8613 234.386 72.5293C234.768 72.1917 234.958 71.7546 234.958 71.2178C234.958 70.6865 234.77 70.2632 234.394 69.9478C234.023 69.6268 233.525 69.4663 232.9 69.4663C232.28 69.4663 231.777 69.6296 231.389 69.9561C231.007 70.2826 230.797 70.728 230.758 71.2925H228.758C228.813 70.1912 229.217 69.3224 229.97 68.686C230.722 68.0441 231.721 67.7231 232.966 67.7231C234.128 67.7231 235.094 68.0275 235.863 68.6362C236.638 69.2394 237.025 70.0003 237.025 70.9189C237.025 71.6217 236.829 72.2222 236.436 72.7202C236.049 73.2183 235.523 73.5365 234.859 73.6748V73.8159C235.678 73.91 236.323 74.2171 236.793 74.7373C237.269 75.2575 237.507 75.916 237.507 76.7129C237.507 77.7422 237.075 78.5972 236.212 79.2778C235.354 79.9585 234.275 80.2988 232.975 80.2988C231.685 80.2988 230.634 79.9696 229.82 79.311C229.012 78.6525 228.581 77.7754 228.525 76.6797H230.576C230.62 77.2331 230.861 77.6758 231.298 78.0078C231.735 78.3343 232.299 78.4976 232.991 78.4976C233.677 78.4976 234.236 78.3205 234.668 77.9663C235.105 77.6066 235.324 77.1445 235.324 76.5801C235.324 75.9935 235.111 75.5314 234.685 75.1938C234.258 74.8563 233.677 74.6875 232.941 74.6875H231.439Z" fill="#000"/>
<path d="M262.087 74V71.7671H256.235V69.8579C257.209 68.0649 258.836 65.453 261.116 62.022H264.138V69.9575H265.756V71.7671H264.138V74H262.087ZM258.219 69.8828V70.0073H262.121V63.7651H262.004C260.709 65.6799 259.448 67.7191 258.219 69.8828Z" fill="#000"/>
<path d="M97.4258 112V102.18H97.2847L94.3047 104.272V102.213L97.4341 100.022H99.5674V112H97.4258Z" fill="#000"/>
<path d="M203.283 76.5249C203.283 75.4071 203.671 74.494 204.445 73.7856C205.226 73.0773 206.23 72.7231 207.458 72.7231C208.643 72.7231 209.617 73.0469 210.38 73.6943C211.15 74.3418 211.534 75.1663 211.534 76.168C211.534 76.8099 211.34 77.4463 210.953 78.0771C210.566 78.7025 209.863 79.5187 208.845 80.5259L206.338 83.041V83.1821H211.717V85H203.399V83.5142L207.392 79.4302C208.211 78.6001 208.756 77.9775 209.027 77.5625C209.299 77.1419 209.434 76.7214 209.434 76.3008C209.434 75.7751 209.24 75.3407 208.853 74.9976C208.471 74.6545 207.984 74.4829 207.392 74.4829C206.767 74.4829 206.26 74.6711 205.873 75.0474C205.486 75.4237 205.292 75.9162 205.292 76.5249V76.5581H203.283V76.5249Z" fill="#000"/>
<path fill-rule="evenodd" clip-rule="evenodd" d="M134.343 109.929L140.707 116.293C141.098 116.683 141.098 117.317 140.707 117.707L134.343 124.071C133.953 124.462 133.319 124.462 132.929 124.071C132.538 123.68 132.538 123.047 132.929 122.657L137.586 118L94 118L94 116L137.586 116L132.929 111.343C132.538 110.953 132.538 110.319 132.929 109.929C133.319 109.538 133.953 109.538 134.343 109.929Z" fill="#000"/>
<path fill-rule="evenodd" clip-rule="evenodd" d="M212.864 111.518L208.958 119.626C208.718 120.124 208.121 120.333 207.623 120.093L199.515 116.187C199.017 115.947 198.808 115.349 199.048 114.852C199.288 114.354 199.885 114.145 200.383 114.385L206.316 117.243L193.056 79.3301L194.944 78.6698L208.204 116.583L211.062 110.65C211.302 110.152 211.9 109.943 212.397 110.183C212.895 110.423 213.104 111.02 212.864 111.518Z" fill="#000"/>
<path fill-rule="evenodd" clip-rule="evenodd" d="M91.734 232.536L85.2286 231.01C84.6909 230.883 84.1528 231.217 84.0266 231.755C83.9005 232.293 84.2342 232.831 84.7719 232.957L93.534 235.012C94.0717 235.138 94.6099 234.805 94.736 234.267L96.7913 225.505C96.9174 224.967 96.5838 224.429 96.0461 224.303C95.5084 224.177 94.9702 224.51 94.8441 225.048L93.3662 231.349C87.0763 219.565 87.6057 205.718 95.521 196.503C103.896 186.752 120.893 181.801 147.957 190.491L148.568 188.587C121.132 179.777 103.128 184.576 94.0038 195.2C85.3844 205.235 85.0028 220.123 91.734 232.536Z" fill="#000"/>
</svg>
