<svg width="345" height="345" viewBox="0 0 345 345" fill="none" xmlns="http://www.w3.org/2000/svg">
<path d="M196.88 111.2C202.38 119.34 212.72 135.84 217.78 146.4L204.8 152.12C199.3 140.46 191.6 126.82 184.34 116.7L196.88 111.2ZM225.26 99.9799C230.98 107.68 241.54 124.18 246.82 134.52L234.28 140.68C228.34 129.02 220.2 115.6 212.94 105.7L225.26 99.9799ZM135.94 93.1599C134.84 100.64 134.18 108.12 133.74 115.38C132.86 140.24 131.1 192.38 131.1 225.16C131.1 249.36 146.28 257.72 167.18 257.72C207.44 257.72 230.32 235.28 246.16 212.4L258.48 227.36C243.52 248.04 215.14 275.76 166.74 275.76C135.06 275.76 113.28 262.78 113.28 226.7C113.28 194.14 115.48 138.48 115.48 115.38C115.48 107.24 115.04 99.5399 113.5 93.1599H135.94Z" fill="#f00"/>
<path d="M197.283 95.5249C197.283 94.4071 197.671 93.494 198.445 92.7856C199.226 92.0773 200.23 91.7231 201.458 91.7231C202.643 91.7231 203.617 92.0469 204.38 92.6943C205.15 93.3418 205.534 94.1663 205.534 95.168C205.534 95.8099 205.34 96.4463 204.953 97.0771C204.566 97.7025 203.863 98.5187 202.845 99.5259L200.338 102.041V102.182H205.717V104H197.399V102.514L201.392 98.4302C202.211 97.6001 202.756 96.9775 203.027 96.5625C203.299 96.1419 203.434 95.7214 203.434 95.3008C203.434 94.7751 203.24 94.3407 202.853 93.9976C202.471 93.6545 201.984 93.4829 201.392 93.4829C200.767 93.4829 200.26 93.6711 199.873 94.0474C199.486 94.4237 199.292 94.9162 199.292 95.5249V95.5581H197.283V95.5249Z" fill="#000"/>
<path d="M227.439 92.6875V91.0273H228.9C229.509 91.0273 230.004 90.8613 230.386 90.5293C230.768 90.1917 230.958 89.7546 230.958 89.2178C230.958 88.6865 230.77 88.2632 230.394 87.9478C230.023 87.6268 229.525 87.4663 228.9 87.4663C228.28 87.4663 227.777 87.6296 227.389 87.9561C227.007 88.2826 226.797 88.728 226.758 89.2925H224.758C224.813 88.1912 225.217 87.3224 225.97 86.686C226.722 86.0441 227.721 85.7231 228.966 85.7231C230.128 85.7231 231.094 86.0275 231.863 86.6362C232.638 87.2394 233.025 88.0003 233.025 88.9189C233.025 89.6217 232.829 90.2222 232.436 90.7202C232.049 91.2183 231.523 91.5365 230.859 91.6748V91.8159C231.678 91.91 232.323 92.2171 232.793 92.7373C233.269 93.2575 233.507 93.916 233.507 94.7129C233.507 95.7422 233.075 96.5972 232.212 97.2778C231.354 97.9585 230.275 98.2988 228.975 98.2988C227.685 98.2988 226.634 97.9696 225.82 97.311C225.012 96.6525 224.581 95.7754 224.525 94.6797H226.576C226.62 95.2331 226.861 95.6758 227.298 96.0078C227.735 96.3343 228.299 96.4976 228.991 96.4976C229.677 96.4976 230.236 96.3205 230.668 95.9663C231.105 95.6066 231.324 95.1445 231.324 94.5801C231.324 93.9935 231.111 93.5314 230.685 93.1938C230.258 92.8563 229.677 92.6875 228.941 92.6875H227.439Z" fill="#000"/>
<path d="M87.4258 105V95.1802H87.2847L84.3047 97.272V95.2134L87.4341 93.022H89.5674V105H87.4258Z" fill="#000"/>
<path fill-rule="evenodd" clip-rule="evenodd" d="M109.071 170.343L102.707 176.707C102.317 177.098 101.684 177.098 101.293 176.707L94.9292 170.343C94.5387 169.953 94.5387 169.319 94.9292 168.929C95.3197 168.538 95.9529 168.538 96.3434 168.929L101 173.586L101 92L103 92L103 173.586L107.657 168.929C108.048 168.538 108.681 168.538 109.071 168.929C109.462 169.319 109.462 169.953 109.071 170.343Z" fill="#000"/>
</svg>
