<svg width="345" height="345" viewBox="0 0 345 345" fill="none" xmlns="http://www.w3.org/2000/svg">
<path d="M228.76 89C234.04 96.26 242.18 109.68 246.8 119.36L235.36 124.86C230.52 114.08 224.36 102.86 217.76 93.62L228.76 89ZM251.86 79.98C257.36 87.24 265.72 100.66 270.78 110.12L259.56 115.62C254.28 105.06 247.9 94.28 241.08 85.26L251.86 79.98ZM92.5804 114.96C123.16 118.7 151.98 119.14 174.64 117.16C192.68 115.4 209.18 111.88 221.72 107.7L224.14 123.54C212.04 127.06 195.98 130.36 178.38 132.12C155.94 134.1 125.14 134.1 93.6804 131.24L92.5804 114.96ZM88.4004 160.28C125.8 164.02 163.42 163.58 188.94 160.5C209.84 158.08 227.88 153.68 239.54 150.16L242.18 166.66C230.08 169.96 213.36 173.04 195.1 175.46C167.82 178.76 127.12 179.42 89.2804 176.56L88.4004 160.28ZM163.42 112.1C161.66 105.72 159.68 98.9 157.48 92.52L176.18 90.32C178.38 108.58 184.98 130.8 190.48 146.42C196.42 163.58 206.32 184.7 217.76 201.64C219.96 205.16 222.82 208.24 225.9 211.1L216.66 224.52C204.34 221.44 183.88 219.24 168.7 217.7L170.24 204.28C181.9 205.6 196.2 207.14 203.24 207.8C190.92 188.88 181.68 167.76 175.3 149.94C169.8 134.98 166.5 123.1 163.42 112.1ZM120.3 207.58C115.02 215.06 111.06 222.76 111.06 232.44C111.06 250.48 127.34 259.72 161.88 259.72C182.34 259.72 198.4 258.18 214.24 255.1L213.58 272.48C198.18 275.12 180.8 276.44 162.1 276.44C118.98 276.44 94.7804 263.68 94.5604 235.3C94.3404 222.76 98.3004 213.52 103.14 203.84L120.3 207.58Z" fill="#f00"/>
<path d="M234.087 80V77.7671H228.235V75.8579C229.209 74.0649 230.836 71.453 233.116 68.022H236.138V75.9575H237.756V77.7671H236.138V80H234.087ZM230.219 75.8828V76.0073H234.121V69.7651H234.004C232.709 71.6799 231.448 73.7191 230.219 75.8828Z" fill="#000"/>
<path d="M261.066 74.2988C259.832 74.2988 258.82 73.9613 258.028 73.2861C257.237 72.611 256.816 71.7422 256.767 70.6797H258.775C258.842 71.2275 259.088 71.6702 259.514 72.0078C259.94 72.3454 260.463 72.5142 261.083 72.5142C261.786 72.5142 262.353 72.2983 262.785 71.8667C263.222 71.4295 263.44 70.854 263.44 70.1401C263.44 69.4263 263.222 68.848 262.785 68.4053C262.353 67.957 261.791 67.7329 261.1 67.7329C260.613 67.7329 260.178 67.8353 259.796 68.04C259.42 68.2448 259.121 68.5353 258.9 68.9116H256.958L257.58 62.022H264.793V63.8315H259.24L258.95 67.1934H259.091C259.644 66.4463 260.488 66.0728 261.623 66.0728C262.757 66.0728 263.687 66.4491 264.412 67.2017C265.142 67.9543 265.507 68.9172 265.507 70.0903C265.507 71.341 265.098 72.3564 264.279 73.1367C263.465 73.9115 262.395 74.2988 261.066 74.2988Z" fill="#000"/>
<path d="M97.4258 100V90.1802H97.2847L94.3047 92.272V90.2134L97.4341 88.022H99.5674V100H97.4258Z" fill="#000"/>
<path d="M77.2832 135.525C77.2832 134.407 77.6706 133.494 78.4453 132.786C79.2256 132.077 80.23 131.723 81.4585 131.723C82.6427 131.723 83.6167 132.047 84.3804 132.694C85.1496 133.342 85.5342 134.166 85.5342 135.168C85.5342 135.81 85.3405 136.446 84.9531 137.077C84.5658 137.702 83.863 138.519 82.8447 139.526L80.3379 142.041V142.182H85.7168V144H77.3994V142.514L81.3921 138.43C82.2111 137.6 82.7562 136.978 83.0273 136.562C83.2985 136.142 83.4341 135.721 83.4341 135.301C83.4341 134.775 83.2404 134.341 82.853 133.998C82.4712 133.654 81.9842 133.483 81.3921 133.483C80.7668 133.483 80.2604 133.671 79.873 134.047C79.4857 134.424 79.292 134.916 79.292 135.525V135.558H77.2832V135.525Z" fill="#000"/>
<path d="M196.439 61.6875V60.0273H197.9C198.509 60.0273 199.004 59.8613 199.386 59.5293C199.768 59.1917 199.958 58.7546 199.958 58.2178C199.958 57.6865 199.77 57.2632 199.394 56.9478C199.023 56.6268 198.525 56.4663 197.9 56.4663C197.28 56.4663 196.777 56.6296 196.389 56.9561C196.007 57.2826 195.797 57.728 195.758 58.2925H193.758C193.813 57.1912 194.217 56.3224 194.97 55.686C195.722 55.0441 196.721 54.7231 197.966 54.7231C199.128 54.7231 200.094 55.0275 200.863 55.6362C201.638 56.2394 202.025 57.0003 202.025 57.9189C202.025 58.6217 201.829 59.2222 201.436 59.7202C201.049 60.2183 200.523 60.5365 199.859 60.6748V60.8159C200.678 60.91 201.323 61.2171 201.793 61.7373C202.269 62.2575 202.507 62.916 202.507 63.7129C202.507 64.7422 202.075 65.5972 201.212 66.2778C200.354 66.9585 199.275 67.2988 197.975 67.2988C196.685 67.2988 195.634 66.9696 194.82 66.311C194.012 65.6525 193.581 64.7754 193.525 63.6797H195.576C195.62 64.2331 195.861 64.6758 196.298 65.0078C196.735 65.3343 197.299 65.4976 197.991 65.4976C198.677 65.4976 199.236 65.3205 199.668 64.9663C200.105 64.6066 200.324 64.1445 200.324 63.5801C200.324 62.9935 200.111 62.5314 199.685 62.1938C199.258 61.8563 198.677 61.6875 197.941 61.6875H196.439Z" fill="#000"/>
<path fill-rule="evenodd" clip-rule="evenodd" d="M134.343 97.9291L140.707 104.293C141.098 104.684 141.098 105.317 140.707 105.707L134.343 112.071C133.953 112.462 133.319 112.462 132.929 112.071C132.538 111.681 132.538 111.048 132.929 110.657L137.586 106L94 106L94 104L137.586 104L132.929 99.3433C132.538 98.9528 132.538 98.3197 132.929 97.9291C133.319 97.5386 133.953 97.5386 134.343 97.9291Z" fill="#000"/>
<path fill-rule="evenodd" clip-rule="evenodd" d="M153.343 142.929L159.707 149.293C160.098 149.684 160.098 150.317 159.707 150.707L153.343 157.071C152.953 157.462 152.319 157.462 151.929 157.071C151.538 156.681 151.538 156.048 151.929 155.657L156.586 151L73 151L73 149L156.586 149L151.929 144.343C151.538 143.953 151.538 143.32 151.929 142.929C152.319 142.539 152.953 142.539 153.343 142.929Z" fill="#000"/>
<path fill-rule="evenodd" clip-rule="evenodd" d="M198.422 98.914L192.997 106.095C192.664 106.536 192.037 106.623 191.597 106.29L184.415 100.865C183.975 100.533 183.887 99.9055 184.22 99.4648C184.553 99.0241 185.18 98.9367 185.621 99.2696L190.876 103.239L185.01 61.1381L186.991 60.8621L192.857 102.963L196.826 97.7084C197.159 97.2678 197.786 97.1804 198.227 97.5133C198.668 97.8462 198.755 98.4733 198.422 98.914Z" fill="#000"/>
<path fill-rule="evenodd" clip-rule="evenodd" d="M83.9713 241.497L77.4659 239.971C76.9282 239.845 76.3901 240.179 76.264 240.716C76.1378 241.254 76.4715 241.792 77.0092 241.918L85.7713 243.973C86.309 244.1 86.8472 243.766 86.9733 243.228L89.0286 234.466C89.1547 233.928 88.8211 233.39 88.2834 233.264C87.7457 233.138 87.2075 233.472 87.0814 234.009L85.6035 240.31C79.3136 228.526 79.843 214.68 87.7583 205.464C96.1336 195.713 113.13 190.762 140.194 199.452L140.805 197.548C113.369 188.738 95.3658 193.537 86.2411 204.161C77.6217 214.197 77.2401 229.085 83.9713 241.497Z" fill="#000"/>
</svg>
