<svg width="345" height="345" viewBox="0 0 345 345" fill="none" xmlns="http://www.w3.org/2000/svg">
<path d="M147.8 95.3799C146.26 101.32 144.94 108.14 143.84 113.86C140.76 131.46 131.96 173.92 124.26 194.16C143.4 180.74 163.2 175.46 186.3 175.46C221.28 175.46 241.74 193.28 241.74 219.02C241.74 264.78 194.66 281.94 127.78 274.68L123.38 257.3C174.2 264.34 223.7 255.54 223.7 219.46C223.7 202.96 210.06 190.42 184.54 190.42C158.14 190.42 133.94 199.22 119.42 216.82C116.56 220.12 114.58 222.98 112.6 226.94L96.0999 221C113.04 188.22 124.48 133.88 127.34 112.54C128.22 105.5 128.44 100.44 128.22 94.4999L147.8 95.3799ZM79.3799 123.54C91.0399 125.3 107.98 127.06 121.18 127.06C149.34 127.06 190.7 123.98 225.24 116.28L225.46 133.22C194.22 138.5 151.54 142.68 121.4 142.68C106.44 142.68 92.3599 141.8 79.5999 140.7L79.3799 123.54ZM230.52 87.6799C236.02 95.5999 243.94 109.24 248.56 118.04L236.68 123.32C232.28 114.52 224.8 101.1 218.64 92.7399L230.52 87.6799ZM254.72 78.8799C260.66 87.0199 269.02 100.88 273.2 109.02L261.32 114.3C256.48 104.84 249.44 92.2999 243.06 83.9399L254.72 78.8799Z" fill="#f00"/>
<path d="M231.439 74.6875V73.0273H232.9C233.509 73.0273 234.004 72.8613 234.386 72.5293C234.768 72.1917 234.958 71.7546 234.958 71.2178C234.958 70.6865 234.77 70.2632 234.394 69.9478C234.023 69.6268 233.525 69.4663 232.9 69.4663C232.28 69.4663 231.777 69.6296 231.389 69.9561C231.007 70.2826 230.797 70.728 230.758 71.2925H228.758C228.813 70.1912 229.217 69.3224 229.97 68.686C230.722 68.0441 231.721 67.7231 232.966 67.7231C234.128 67.7231 235.094 68.0275 235.863 68.6362C236.638 69.2394 237.025 70.0003 237.025 70.9189C237.025 71.6217 236.829 72.2222 236.436 72.7202C236.049 73.2183 235.523 73.5365 234.859 73.6748V73.8159C235.678 73.91 236.323 74.2171 236.793 74.7373C237.269 75.2575 237.507 75.916 237.507 76.7129C237.507 77.7422 237.075 78.5972 236.212 79.2778C235.354 79.9585 234.275 80.2988 232.975 80.2988C231.685 80.2988 230.634 79.9696 229.82 79.311C229.012 78.6525 228.581 77.7754 228.525 76.6797H230.576C230.62 77.2331 230.861 77.6758 231.298 78.0078C231.735 78.3343 232.299 78.4976 232.991 78.4976C233.677 78.4976 234.236 78.3205 234.668 77.9663C235.105 77.6066 235.324 77.1445 235.324 76.5801C235.324 75.9935 235.111 75.5314 234.685 75.1938C234.258 74.8563 233.677 74.6875 232.941 74.6875H231.439Z" fill="#000"/>
<path d="M262.087 74V71.7671H256.235V69.8579C257.209 68.0649 258.836 65.453 261.116 62.022H264.138V69.9575H265.756V71.7671H264.138V74H262.087ZM258.219 69.8828V70.0073H262.121V63.7651H262.004C260.709 65.6799 259.448 67.7191 258.219 69.8828Z" fill="#000"/>
<path d="M79.4258 111V101.18H79.2847L76.3047 103.272V101.213L79.4341 99.022H81.5674V111H79.4258Z" fill="#000"/>
<path d="M167.283 84.5249C167.283 83.4071 167.671 82.494 168.445 81.7856C169.226 81.0773 170.23 80.7231 171.458 80.7231C172.643 80.7231 173.617 81.0469 174.38 81.6943C175.15 82.3418 175.534 83.1663 175.534 84.168C175.534 84.8099 175.34 85.4463 174.953 86.0771C174.566 86.7025 173.863 87.5187 172.845 88.5259L170.338 91.041V91.1821H175.717V93H167.399V91.5142L171.392 87.4302C172.211 86.6001 172.756 85.9775 173.027 85.5625C173.299 85.1419 173.434 84.7214 173.434 84.3008C173.434 83.7751 173.24 83.3407 172.853 82.9976C172.471 82.6545 171.984 82.4829 171.392 82.4829C170.767 82.4829 170.26 82.6711 169.873 83.0474C169.486 83.4237 169.292 83.9162 169.292 84.5249V84.5581H167.283V84.5249Z" fill="#000"/>
<path fill-rule="evenodd" clip-rule="evenodd" d="M116.343 108.929L122.707 115.293C123.098 115.684 123.098 116.317 122.707 116.707L116.343 123.071C115.953 123.462 115.319 123.462 114.929 123.071C114.538 122.681 114.538 122.048 114.929 121.657L119.586 117L76 117L76 115L119.586 115L114.929 110.343C114.538 109.953 114.538 109.32 114.929 108.929C115.319 108.539 115.953 108.539 116.343 108.929Z" fill="#000"/>
<path fill-rule="evenodd" clip-rule="evenodd" d="M161.905 114.582L154.581 119.814C154.132 120.135 153.507 120.03 153.186 119.581L147.955 112.257C147.634 111.808 147.738 111.183 148.188 110.862C148.637 110.541 149.261 110.646 149.582 111.095L153.41 116.454L160.014 76.8354L161.986 77.1642L155.383 116.783L160.742 112.955C161.192 112.634 161.816 112.738 162.137 113.187C162.458 113.637 162.354 114.261 161.905 114.582Z" fill="#000"/>
<path fill-rule="evenodd" clip-rule="evenodd" d="M248.934 245.901C248.436 246.14 247.839 245.931 247.599 245.434L243.695 237.325C243.455 236.827 243.664 236.229 244.162 235.99C244.66 235.75 245.257 235.959 245.497 236.457L248.337 242.356C256.007 218.76 252.554 201.259 244.066 189.588C235.279 177.505 220.974 171.5 207.5 171.5L207.5 169.5C221.526 169.5 236.471 175.744 245.684 188.412C254.643 200.73 258.068 218.961 250.209 243.067L256.175 240.194C256.673 239.955 257.271 240.164 257.51 240.662C257.75 241.159 257.541 241.757 257.043 241.996L248.934 245.901Z" fill="#000"/>
</svg>
