<svg width="345" height="345" viewBox="0 0 345 345" fill="none" xmlns="http://www.w3.org/2000/svg">
<path d="M222.16 92.7399C227.66 100.66 235.58 113.86 239.98 122.88L228.1 128.16C223.7 119.36 216.44 106.16 210.5 97.7999L222.16 92.7399ZM246.14 83.9399C252.08 92.0799 260.44 105.72 264.62 113.86L252.74 119.14C248.12 109.68 240.86 97.1399 234.7 88.9999L246.14 83.9399ZM123.38 99.9999C122.72 105.28 122.06 111.66 122.06 117.82C122.06 129.7 122.06 218.14 122.06 233.98C122.06 245.42 126.9 248.28 137.46 250.26C144.5 251.58 155.72 252.02 166.5 252.02C189.82 252.02 223.48 249.82 241.96 244.98V265.22C222.82 268.08 189.82 269.62 165.84 269.62C152.64 269.62 139.66 269.18 130.42 267.64C113.7 264.56 104.24 256.86 104.24 238.82C104.24 217.7 104.24 129.7 104.24 117.82C104.24 112.54 103.8 105.28 102.92 99.9999H123.38ZM113.92 169.52C140.54 163.8 180.36 151.7 205.88 140.92C212.48 137.84 218.86 134.76 225.24 130.8L232.94 148.4C226.56 151.04 218.64 154.56 212.04 157.2C184.76 168.2 141.2 180.96 114.14 187.78L113.92 169.52Z" fill="#f00"/>
<path d="M223.439 84.6875V83.0273H224.9C225.509 83.0273 226.004 82.8613 226.386 82.5293C226.768 82.1917 226.958 81.7546 226.958 81.2178C226.958 80.6865 226.77 80.2632 226.394 79.9478C226.023 79.6268 225.525 79.4663 224.9 79.4663C224.28 79.4663 223.777 79.6296 223.389 79.9561C223.007 80.2826 222.797 80.728 222.758 81.2925H220.758C220.813 80.1912 221.217 79.3224 221.97 78.686C222.722 78.0441 223.721 77.7231 224.966 77.7231C226.128 77.7231 227.094 78.0275 227.863 78.6362C228.638 79.2394 229.025 80.0003 229.025 80.9189C229.025 81.6217 228.829 82.2222 228.436 82.7202C228.049 83.2183 227.523 83.5365 226.859 83.6748V83.8159C227.678 83.91 228.323 84.2171 228.793 84.7373C229.269 85.2575 229.507 85.916 229.507 86.7129C229.507 87.7422 229.075 88.5972 228.212 89.2778C227.354 89.9585 226.275 90.2988 224.975 90.2988C223.685 90.2988 222.634 89.9696 221.82 89.311C221.012 88.6525 220.581 87.7754 220.525 86.6797H222.576C222.62 87.2331 222.861 87.6758 223.298 88.0078C223.735 88.3343 224.299 88.4976 224.991 88.4976C225.677 88.4976 226.236 88.3205 226.668 87.9663C227.105 87.6066 227.324 87.1445 227.324 86.5801C227.324 85.9935 227.111 85.5314 226.685 85.1938C226.258 84.8563 225.677 84.6875 224.941 84.6875H223.439Z" fill="#000"/>
<path d="M253.087 79V76.7671H247.235V74.8579C248.209 73.0649 249.836 70.453 252.116 67.022H255.138V74.9575H256.756V76.7671H255.138V79H253.087ZM249.219 74.8828V75.0073H253.121V68.7651H253.004C251.709 70.6799 250.448 72.7191 249.219 74.8828Z" fill="#000"/>
<path d="M140.143 144.277V134.457H140.001L137.021 136.549V134.49L140.151 132.299H142.284V144.277H140.143Z" fill="#000"/>
<path d="M76 102.802C76 101.684 76.3874 100.771 77.1621 100.062C77.9424 99.3542 78.9468 99 80.1753 99C81.3595 99 82.3335 99.3237 83.0972 99.9712C83.8664 100.619 84.251 101.443 84.251 102.445C84.251 103.087 84.0573 103.723 83.6699 104.354C83.2826 104.979 82.5798 105.796 81.5615 106.803L79.0547 109.318V109.459H84.4336V111.277H76.1162V109.791L80.1089 105.707C80.9279 104.877 81.473 104.254 81.7441 103.839C82.0153 103.419 82.1509 102.998 82.1509 102.578C82.1509 102.052 81.9572 101.618 81.5698 101.274C81.188 100.931 80.701 100.76 80.1089 100.76C79.4836 100.76 78.9772 100.948 78.5898 101.324C78.2025 101.701 78.0088 102.193 78.0088 102.802V102.835H76V102.802Z" fill="#000"/>
<path fill-rule="evenodd" clip-rule="evenodd" d="M205.023 122.502L213.147 126.374C213.646 126.612 213.857 127.209 213.62 127.707L209.747 135.831C209.51 136.33 208.913 136.542 208.414 136.304C207.916 136.066 207.704 135.469 207.942 134.971L210.775 129.026L134.051 156.219L133.383 154.334L210.107 127.141L204.162 124.307C203.664 124.07 203.452 123.473 203.69 122.974C203.927 122.476 204.524 122.264 205.023 122.502Z" fill="#000"/>
<path fill-rule="evenodd" clip-rule="evenodd" d="M99.7882 149.62L93.4242 155.984C93.0337 156.374 92.4005 156.374 92.01 155.984L85.646 149.62C85.2555 149.229 85.2555 148.596 85.646 148.206C86.0365 147.815 86.6697 147.815 87.0602 148.206L91.7171 152.863L91.7171 99.2769L93.7171 99.2769L93.7171 152.863L98.3739 148.206C98.7645 147.815 99.3976 147.815 99.7882 148.206C100.179 148.596 100.179 149.229 99.7882 149.62Z" fill="#000"/>
<path fill-rule="evenodd" clip-rule="evenodd" d="M92.7168 217.277H94.7168V241.777C94.7168 252.37 97.4272 261.851 103.525 268.673C109.604 275.475 119.179 279.777 133.217 279.777H180.303L175.646 275.12C175.255 274.729 175.255 274.096 175.646 273.706C176.036 273.315 176.669 273.315 177.06 273.706L183.424 280.07C183.814 280.46 183.814 281.093 183.424 281.484L177.06 287.848C176.669 288.238 176.036 288.238 175.646 287.848C175.255 287.457 175.255 286.824 175.646 286.434L180.303 281.777H133.217C118.754 281.777 108.579 277.329 102.034 270.006C95.5064 262.703 92.7168 252.684 92.7168 241.777V217.277Z" fill="#000"/>
</svg>
