<svg width="345" height="345" viewBox="0 0 345 345" fill="none" xmlns="http://www.w3.org/2000/svg">
<path d="M92.4258 111V101.18H92.2847L89.3047 103.272V101.213L92.4341 99.022H94.5674V111H92.4258Z" fill="#000"/>
<path d="M188.646 87.8018C188.646 86.6839 189.034 85.7708 189.809 85.0625C190.589 84.3542 191.593 84 192.822 84C194.006 84 194.98 84.3237 195.744 84.9712C196.513 85.6187 196.897 86.4432 196.897 87.4448C196.897 88.0868 196.704 88.7231 196.316 89.354C195.929 89.9793 195.226 90.7956 194.208 91.8027L191.701 94.3179V94.459H197.08V96.2769H188.763V94.791L192.755 90.707C193.574 89.877 194.119 89.2544 194.391 88.8394C194.662 88.4188 194.797 87.9982 194.797 87.5776C194.797 87.0519 194.604 86.6175 194.216 86.2744C193.834 85.9313 193.347 85.7598 192.755 85.7598C192.13 85.7598 191.624 85.9479 191.236 86.3242C190.849 86.7005 190.655 87.193 190.655 87.8018V87.835H188.646V87.8018Z" fill="#000"/>
<path fill-rule="evenodd" clip-rule="evenodd" d="M139.343 112.929L145.707 119.293C146.098 119.684 146.098 120.317 145.707 120.707L139.343 127.071C138.953 127.462 138.319 127.462 137.929 127.071C137.538 126.681 137.538 126.048 137.929 125.657L142.586 121H88V119H142.586L137.929 114.343C137.538 113.953 137.538 113.32 137.929 112.929C138.319 112.539 138.953 112.539 139.343 112.929Z" fill="#000"/>
<path fill-rule="evenodd" clip-rule="evenodd" d="M187.435 120.62L181.071 126.984C180.68 127.374 180.047 127.374 179.656 126.984L173.293 120.62C172.902 120.229 172.902 119.596 173.293 119.206C173.683 118.815 174.316 118.815 174.707 119.206L179.364 123.863L179.364 88.2769L181.364 88.2769L181.364 123.863L186.02 119.206C186.411 118.815 187.044 118.815 187.435 119.206C187.825 119.596 187.825 120.229 187.435 120.62Z" fill="#000"/>
<path d="M228.44 90.7399C233.94 98.6599 242.08 111.86 246.48 120.88L234.6 126.16C230.2 117.14 222.72 103.94 216.78 95.5799L228.44 90.7399ZM252.64 81.9399C258.58 89.8599 266.94 103.72 271.12 111.86L259.24 117.14C254.4 107.46 247.36 95.1399 241.2 86.7799L252.64 81.9399ZM170.14 92.4999C169.7 97.5599 169.26 105.04 169.04 110.32C166.18 200.08 141.98 241.22 98.6401 271.58L82.5801 258.6C89.6201 254.86 98.4201 248.48 105.02 242.32C132.52 217.46 150.56 180.28 151 110.76C151 105.7 150.56 97.7799 149.68 92.4999H170.14ZM246.7 138.26C246.04 142 245.6 146.18 245.38 149.04C244.72 170.16 241.86 233.96 231.96 255.08C227.56 264.54 220.52 268.5 208.42 268.5C197.42 268.5 184.66 267.84 173.22 267.18L171.02 248.7C182.9 250.46 194.34 251.34 203.8 251.34C209.96 251.34 214.14 249.36 216.56 244.08C224.92 227.36 227.78 173.24 227.78 149.7H111.84C103.04 149.7 94.2401 149.7 86.3201 150.36V131.88C94.0201 132.54 103.04 133.2 111.62 133.2H220.3C226.24 133.2 230.42 132.54 234.16 132.1L246.7 138.26Z" fill="#f00"/>
<path d="M226.439 82.6875V81.0273H227.9C228.509 81.0273 229.004 80.8613 229.386 80.5293C229.768 80.1917 229.958 79.7546 229.958 79.2178C229.958 78.6865 229.77 78.2632 229.394 77.9478C229.023 77.6268 228.525 77.4663 227.9 77.4663C227.28 77.4663 226.777 77.6296 226.389 77.9561C226.007 78.2826 225.797 78.728 225.758 79.2925H223.758C223.813 78.1912 224.217 77.3224 224.97 76.686C225.722 76.0441 226.721 75.7231 227.966 75.7231C229.128 75.7231 230.094 76.0275 230.863 76.6362C231.638 77.2394 232.025 78.0003 232.025 78.9189C232.025 79.6217 231.829 80.2222 231.436 80.7202C231.049 81.2183 230.523 81.5365 229.859 81.6748V81.8159C230.678 81.91 231.323 82.2171 231.793 82.7373C232.269 83.2575 232.507 83.916 232.507 84.7129C232.507 85.7422 232.075 86.5972 231.212 87.2778C230.354 87.9585 229.275 88.2988 227.975 88.2988C226.685 88.2988 225.634 87.9696 224.82 87.311C224.012 86.6525 223.581 85.7754 223.525 84.6797H225.576C225.62 85.2331 225.861 85.6758 226.298 86.0078C226.735 86.3343 227.299 86.4976 227.991 86.4976C228.677 86.4976 229.236 86.3205 229.668 85.9663C230.105 85.6066 230.324 85.1445 230.324 84.5801C230.324 83.9935 230.111 83.5314 229.685 83.1938C229.258 82.8563 228.677 82.6875 227.941 82.6875H226.439Z" fill="#000"/>
<path d="M260.087 79V76.7671H254.235V74.8579C255.209 73.0649 256.836 70.453 259.116 67.022H262.138V74.9575H263.756V76.7671H262.138V79H260.087ZM256.219 74.8828V75.0073H260.121V68.7651H260.004C258.709 70.6799 257.448 72.7191 256.219 74.8828Z" fill="#000"/>
</svg>
