<svg width="345" height="345" viewBox="0 0 345 345" fill="none" xmlns="http://www.w3.org/2000/svg">
<path d="M230.3 93.6199C235.8 101.54 243.72 114.96 248.34 123.76L236.24 129.04C232.06 120.24 224.58 107.04 218.64 98.68L230.3 93.6199ZM254.5 84.8199C260.22 92.9599 268.8 106.6 272.76 114.74L261.1 120.02C256.26 110.56 249 98.02 242.84 89.88L254.5 84.8199ZM109.74 199C119.42 176.12 128.44 142.68 131.52 117.38L151.1 121.34C149.56 126.18 148.02 132.78 146.92 137.4C144.06 151.04 136.36 183.6 127.12 206.26C118.98 226.28 106.88 248.94 94.5604 266.76L75.8604 258.84C89.7204 240.36 102.26 217.26 109.74 199ZM218.2 190.64C209.4 167.98 195.76 137.4 186.3 120.9L204.12 114.96C212.7 131.02 226.78 161.38 236.24 184.48C245.04 206.26 256.7 239.92 262.64 259.94L243.06 266.1C237.56 243.88 227.22 213.96 218.2 190.64Z" fill="#f00"/>
<path d="M230.439 85.6875V84.0273H231.9C232.509 84.0273 233.004 83.8613 233.386 83.5293C233.768 83.1917 233.958 82.7546 233.958 82.2178C233.958 81.6865 233.77 81.2632 233.394 80.9478C233.023 80.6268 232.525 80.4663 231.9 80.4663C231.28 80.4663 230.777 80.6296 230.389 80.9561C230.007 81.2826 229.797 81.728 229.758 82.2925H227.758C227.813 81.1912 228.217 80.3224 228.97 79.686C229.722 79.0441 230.721 78.7231 231.966 78.7231C233.128 78.7231 234.094 79.0275 234.863 79.6362C235.638 80.2394 236.025 81.0003 236.025 81.9189C236.025 82.6217 235.829 83.2222 235.436 83.7202C235.049 84.2183 234.523 84.5365 233.859 84.6748V84.8159C234.678 84.91 235.323 85.2171 235.793 85.7373C236.269 86.2575 236.507 86.916 236.507 87.7129C236.507 88.7422 236.075 89.5972 235.212 90.2778C234.354 90.9585 233.275 91.2988 231.975 91.2988C230.685 91.2988 229.634 90.9696 228.82 90.311C228.012 89.6525 227.581 88.7754 227.525 87.6797H229.576C229.62 88.2331 229.861 88.6758 230.298 89.0078C230.735 89.3343 231.299 89.4976 231.991 89.4976C232.677 89.4976 233.236 89.3205 233.668 88.9663C234.105 88.6066 234.324 88.1445 234.324 87.5801C234.324 86.9935 234.111 86.5314 233.685 86.1938C233.258 85.8563 232.677 85.6875 231.941 85.6875H230.439Z" fill="#000"/>
<path d="M259.087 80V77.7671H253.235V75.8579C254.209 74.0649 255.836 71.453 258.116 68.022H261.138V75.9575H262.756V77.7671H261.138V80H259.087ZM255.219 75.8828V76.0073H259.121V69.7651H259.004C257.709 71.6799 256.448 73.7191 255.219 75.8828Z" fill="#000"/>
<path d="M109.121 122.277V112.457H108.98L106 114.549V112.49L109.129 110.299H111.263V122.277H109.121Z" fill="#000"/>
<path d="M168 129.802C168 128.684 168.387 127.771 169.162 127.062C169.942 126.354 170.947 126 172.175 126C173.36 126 174.333 126.324 175.097 126.971C175.866 127.619 176.251 128.443 176.251 129.445C176.251 130.087 176.057 130.723 175.67 131.354C175.283 131.979 174.58 132.796 173.562 133.803L171.055 136.318V136.459H176.434V138.277H168.116V136.791L172.109 132.707C172.928 131.877 173.473 131.254 173.744 130.839C174.015 130.419 174.151 129.998 174.151 129.578C174.151 129.052 173.957 128.618 173.57 128.274C173.188 127.931 172.701 127.76 172.109 127.76C171.484 127.76 170.977 127.948 170.59 128.324C170.202 128.701 170.009 129.193 170.009 129.802V129.835H168V129.802Z" fill="#000"/>
<path fill-rule="evenodd" clip-rule="evenodd" d="M114.175 172.459L106.386 176.968C105.908 177.245 105.296 177.082 105.019 176.604L100.51 168.815C100.233 168.337 100.396 167.725 100.874 167.448C101.352 167.172 101.964 167.335 102.241 167.813L105.541 173.512L120.918 115.845L122.851 116.36L107.473 174.028L113.172 170.728C113.65 170.451 114.262 170.614 114.539 171.092C114.816 171.57 114.653 172.182 114.175 172.459Z" fill="#000"/>
<path fill-rule="evenodd" clip-rule="evenodd" d="M210.068 177.605L206.714 185.957C206.509 186.47 205.926 186.718 205.414 186.512L197.062 183.159C196.549 182.953 196.301 182.371 196.506 181.858C196.712 181.346 197.295 181.097 197.807 181.303L203.919 183.757L178.522 124.285L180.361 123.499L205.758 182.971L208.212 176.86C208.418 176.347 209 176.099 209.512 176.304C210.025 176.51 210.274 177.093 210.068 177.605Z" fill="#000"/>
</svg>
