<svg width="345" height="345" viewBox="0 0 345 345" fill="none" xmlns="http://www.w3.org/2000/svg">
<path d="M106.66 104.4C112.82 105.06 119.42 105.5 126.46 105.5C139.22 105.5 190.48 105.5 202.8 105.5C208.96 105.5 216.88 105.06 223.26 104.4V122.66C216.66 122.22 208.96 121.78 202.8 121.78C190.48 121.78 139.22 121.78 126.9 121.78C119.42 121.78 112.38 122.22 106.66 122.66V104.4ZM80.4805 159.62C86.4205 160.28 92.8005 160.72 99.6205 160.72C112.38 160.72 231.84 160.72 243.5 160.72C248.12 160.72 255.38 160.28 260.88 159.62V177.88C256.04 177.44 249 177.22 243.5 177.22C231.84 177.22 112.38 177.22 99.6205 177.22C93.0205 177.22 86.4205 177.44 80.4805 177.88V159.62ZM184.1 168.42C184.1 196.14 180.58 219.02 170.9 237.5C162.76 252.24 146.26 268.08 127.56 277.54L111.28 265.66C128.22 258.4 144.06 245.86 152.86 231.78C163.86 214.4 165.4 192.84 165.62 168.64L184.1 168.42ZM234.7 86.3601C240.2 94.2801 248.12 107.7 252.52 116.5L240.64 121.78C236.46 112.98 228.98 99.7801 223.04 91.4201L234.7 86.3601ZM258.68 77.5601C264.62 85.7001 272.98 99.3401 277.16 107.48L265.5 112.76C260.66 103.3 253.4 90.7601 247.24 82.6201L258.68 77.5601Z" fill="#f00"/>
<path d="M238.086 82V79.7671H232.234V77.8579C233.208 76.0649 234.835 73.453 237.115 70.022H240.137V77.9575H241.755V79.7671H240.137V82H238.086ZM234.218 77.8828V78.0073H238.12V71.7651H238.003C236.708 73.6799 235.447 75.7191 234.218 77.8828Z" fill="#000"/>
<path d="M262.065 76.2988C260.831 76.2988 259.819 75.9613 259.027 75.2861C258.236 74.611 257.815 73.7422 257.766 72.6797H259.774C259.841 73.2275 260.087 73.6702 260.513 74.0078C260.939 74.3454 261.462 74.5142 262.082 74.5142C262.785 74.5142 263.352 74.2983 263.784 73.8667C264.221 73.4295 264.439 72.854 264.439 72.1401C264.439 71.4263 264.221 70.848 263.784 70.4053C263.352 69.957 262.79 69.7329 262.099 69.7329C261.612 69.7329 261.177 69.8353 260.795 70.04C260.419 70.2448 260.12 70.5353 259.899 70.9116H257.957L258.579 64.022H265.792V65.8315H260.239L259.949 69.1934H260.09C260.643 68.4463 261.487 68.0728 262.622 68.0728C263.756 68.0728 264.686 68.4491 265.411 69.2017C266.141 69.9543 266.506 70.9172 266.506 72.0903C266.506 73.341 266.097 74.3564 265.278 75.1367C264.464 75.9115 263.394 76.2988 262.065 76.2988Z" fill="#000"/>
<path d="M109.525 88.978V79.1582H109.384L106.404 81.25V79.1914L109.534 77H111.667V88.978H109.525Z" fill="#000"/>
<path d="M81.3828 134.503C81.3828 133.385 81.7702 132.472 82.5449 131.764C83.3252 131.055 84.3296 130.701 85.5581 130.701C86.7424 130.701 87.7163 131.025 88.48 131.672C89.2492 132.32 89.6338 133.144 89.6338 134.146C89.6338 134.788 89.4401 135.424 89.0527 136.055C88.6654 136.681 87.9626 137.497 86.9443 138.504L84.4375 141.019V141.16H89.8164V142.978H81.499V141.492L85.4917 137.408C86.3107 136.578 86.8558 135.956 87.127 135.541C87.3981 135.12 87.5337 134.699 87.5337 134.279C87.5337 133.753 87.34 133.319 86.9526 132.976C86.5708 132.632 86.0838 132.461 85.4917 132.461C84.8664 132.461 84.36 132.649 83.9727 133.025C83.5853 133.402 83.3916 133.894 83.3916 134.503V134.536H81.3828V134.503Z" fill="#000"/>
<path d="M203.539 194.666V193.005H205C205.608 193.005 206.104 192.839 206.485 192.507C206.867 192.17 207.058 191.733 207.058 191.196C207.058 190.665 206.87 190.241 206.494 189.926C206.123 189.605 205.625 189.444 205 189.444C204.38 189.444 203.876 189.608 203.489 189.934C203.107 190.261 202.897 190.706 202.858 191.271H200.857C200.913 190.169 201.317 189.3 202.069 188.664C202.822 188.022 203.821 187.701 205.066 187.701C206.228 187.701 207.194 188.006 207.963 188.614C208.738 189.217 209.125 189.978 209.125 190.897C209.125 191.6 208.929 192.2 208.536 192.698C208.148 193.196 207.623 193.514 206.958 193.653V193.794C207.778 193.888 208.422 194.195 208.893 194.715C209.368 195.236 209.606 195.894 209.606 196.691C209.606 197.72 209.175 198.575 208.312 199.256C207.454 199.937 206.375 200.277 205.074 200.277C203.785 200.277 202.733 199.948 201.92 199.289C201.112 198.631 200.68 197.753 200.625 196.658H202.675C202.72 197.211 202.96 197.654 203.397 197.986C203.835 198.312 204.399 198.476 205.091 198.476C205.777 198.476 206.336 198.299 206.768 197.944C207.205 197.585 207.423 197.123 207.423 196.558C207.423 195.972 207.21 195.509 206.784 195.172C206.358 194.834 205.777 194.666 205.041 194.666H203.539Z" fill="#000"/>
<path fill-rule="evenodd" clip-rule="evenodd" d="M153.443 140.907L159.807 147.271C160.197 147.661 160.197 148.295 159.807 148.685L153.443 155.049C153.052 155.44 152.419 155.44 152.029 155.049C151.638 154.659 151.638 154.025 152.029 153.635L156.685 148.978L79.0996 148.978L79.0996 146.978L156.685 146.978L152.029 142.321C151.638 141.931 151.638 141.297 152.029 140.907C152.419 140.516 153.052 140.516 153.443 140.907Z" fill="#000"/>
<path fill-rule="evenodd" clip-rule="evenodd" d="M153.443 86.9069L159.807 93.2709C160.197 93.6614 160.197 94.2946 159.807 94.6851L153.443 101.049C153.052 101.44 152.419 101.44 152.029 101.049C151.638 100.659 151.638 100.025 152.029 99.6348L156.685 94.978L103.1 94.978L103.1 92.978L156.685 92.978L152.029 88.3211C151.638 87.9306 151.638 87.2974 152.029 86.9069C152.419 86.5164 153.052 86.5164 153.443 86.9069Z" fill="#000"/>
<path fill-rule="evenodd" clip-rule="evenodd" d="M185.595 229.331C189.728 217.673 191.1 204.927 191.1 188.978H193.1C193.1 205.029 191.722 218.033 187.48 230C183.443 241.387 176.836 251.77 166.467 262.926L173.076 262.783C173.628 262.771 174.086 263.209 174.098 263.761C174.11 264.313 173.672 264.77 173.12 264.782L164.122 264.978C163.569 264.99 163.112 264.552 163.1 264L162.905 255.002C162.893 254.45 163.33 253.992 163.883 253.98C164.435 253.968 164.892 254.406 164.904 254.958L165.047 261.517C175.25 250.529 181.676 240.388 185.595 229.331Z" fill="#000"/>
</svg>
