<svg width="345" height="345" viewBox="0 0 345 345" fill="none" xmlns="http://www.w3.org/2000/svg">
<path d="M158.14 105.06C162.98 115.62 176.4 150.6 179.92 162.92L162.76 168.86C159.24 156.32 146.92 122.22 141.42 110.78L158.14 105.06ZM253.4 129.7C251.86 133.44 250.54 138.72 249.66 142.02C242.84 165.56 233.6 190.42 215.34 214.18C192.68 244.1 160.34 266.76 129.1 277.76L114.14 262.36C145.38 253.34 178.16 232 200.38 204.06C218.42 180.96 229.42 151.04 233.38 124.64L253.4 129.7ZM96.7596 118.26C102.7 130.58 116.34 164.24 121.62 178.76L104.02 185.14C99.8396 171.28 84.6596 134.32 79.5996 124.64L96.7596 118.26ZM226.34 83.5001C231.62 90.9801 239.76 104.4 244.16 112.76L231.84 118.26C227.66 109.02 219.96 96.2601 214.46 88.5601L226.34 83.5001ZM254.28 77.1201C259.56 84.6001 267.7 97.8001 272.32 106.16L260 111.66C255.16 102.64 248.12 89.8801 242.18 82.1801L254.28 77.1201Z" fill="#f00"/>
<path d="M231.087 79V76.7671H225.235V74.8579C226.209 73.0649 227.836 70.453 230.116 67.022H233.138V74.9575H234.756V76.7671H233.138V79H231.087ZM227.219 74.8828V75.0073H231.121V68.7651H231.004C229.709 70.6799 228.448 72.7191 227.219 74.8828Z" fill="#000"/>
<path d="M260.066 71.2988C258.832 71.2988 257.82 70.9613 257.028 70.2861C256.237 69.611 255.816 68.7422 255.767 67.6797H257.775C257.842 68.2275 258.088 68.6702 258.514 69.0078C258.94 69.3454 259.463 69.5142 260.083 69.5142C260.786 69.5142 261.353 69.2983 261.785 68.8667C262.222 68.4295 262.44 67.854 262.44 67.1401C262.44 66.4263 262.222 65.848 261.785 65.4053C261.353 64.957 260.791 64.7329 260.1 64.7329C259.613 64.7329 259.178 64.8353 258.796 65.04C258.42 65.2448 258.121 65.5353 257.9 65.9116H255.958L256.58 59.022H263.793V60.8315H258.24L257.95 64.1934H258.091C258.644 63.4463 259.488 63.0728 260.623 63.0728C261.757 63.0728 262.687 63.4491 263.412 64.2017C264.142 64.9543 264.507 65.9172 264.507 67.0903C264.507 68.341 264.098 69.3564 263.279 70.1367C262.465 70.9115 261.395 71.2988 260.066 71.2988Z" fill="#000"/>
<path d="M120.865 119.277V109.457H120.724L117.744 111.549V109.49L120.874 107.299H123.007V119.277H120.865Z" fill="#000"/>
<path d="M174.724 93.8018C174.724 92.6839 175.111 91.7708 175.886 91.0625C176.666 90.3542 177.67 90 178.899 90C180.083 90 181.057 90.3237 181.821 90.9712C182.59 91.6187 182.975 92.4432 182.975 93.4448C182.975 94.0868 182.781 94.7231 182.394 95.354C182.006 95.9793 181.303 96.7956 180.285 97.8027L177.778 100.318V100.459H183.157V102.277H174.84V100.791L178.833 96.707C179.652 95.877 180.197 95.2544 180.468 94.8394C180.739 94.4188 180.875 93.9982 180.875 93.5776C180.875 93.0519 180.681 92.6175 180.293 92.2744C179.912 91.9313 179.425 91.7598 178.833 91.7598C178.207 91.7598 177.701 91.9479 177.313 92.3242C176.926 92.7005 176.732 93.193 176.732 93.8018V93.835H174.724V93.8018Z" fill="#000"/>
<path fill-rule="evenodd" clip-rule="evenodd" d="M136.693 162.282L133.37 170.646C133.166 171.159 132.585 171.41 132.071 171.206L123.707 167.884C123.194 167.68 122.943 167.098 123.147 166.585C123.351 166.072 123.932 165.821 124.446 166.025L130.566 168.456L109.522 119.673L111.359 118.881L132.402 167.664L134.834 161.544C135.038 161.03 135.619 160.779 136.132 160.983C136.646 161.187 136.896 161.769 136.693 162.282Z" fill="#000"/>
<path fill-rule="evenodd" clip-rule="evenodd" d="M194.693 145.282L191.37 153.646C191.166 154.159 190.585 154.41 190.071 154.206L181.707 150.884C181.194 150.68 180.943 150.098 181.147 149.585C181.351 149.072 181.932 148.821 182.446 149.025L188.566 151.456L167.522 102.673L169.359 101.881L190.402 150.664L192.834 144.544C193.038 144.03 193.619 143.779 194.132 143.983C194.646 144.187 194.896 144.769 194.693 145.282Z" fill="#000"/>
<path fill-rule="evenodd" clip-rule="evenodd" d="M218.574 228.1C244.197 196.017 254.792 161.729 260.974 131.556L262.933 131.958C256.717 162.296 246.028 196.948 220.102 229.391L226.677 228.739C227.226 228.685 227.716 229.086 227.771 229.635C227.825 230.185 227.424 230.675 226.874 230.729L217.918 231.618C217.369 231.672 216.879 231.271 216.824 230.722L215.936 221.766C215.881 221.216 216.282 220.726 216.832 220.672C217.382 220.617 217.871 221.019 217.926 221.568L218.574 228.1Z" fill="#000"/>
<path d="M269.041 138.139V136.479H270.501C271.11 136.479 271.605 136.313 271.987 135.981C272.369 135.643 272.56 135.206 272.56 134.669C272.56 134.138 272.372 133.715 271.996 133.399C271.625 133.078 271.127 132.918 270.501 132.918C269.882 132.918 269.378 133.081 268.991 133.408C268.609 133.734 268.399 134.18 268.36 134.744H266.359C266.415 133.643 266.819 132.774 267.571 132.138C268.324 131.496 269.323 131.175 270.568 131.175C271.73 131.175 272.696 131.479 273.465 132.088C274.24 132.691 274.627 133.452 274.627 134.371C274.627 135.073 274.431 135.674 274.038 136.172C273.65 136.67 273.125 136.988 272.46 137.126V137.268C273.279 137.362 273.924 137.669 274.395 138.189C274.87 138.709 275.108 139.368 275.108 140.165C275.108 141.194 274.677 142.049 273.813 142.729C272.956 143.41 271.877 143.75 270.576 143.75C269.287 143.75 268.235 143.421 267.422 142.763C266.614 142.104 266.182 141.227 266.127 140.131H268.177C268.222 140.685 268.462 141.127 268.899 141.459C269.337 141.786 269.901 141.949 270.593 141.949C271.279 141.949 271.838 141.772 272.27 141.418C272.707 141.058 272.925 140.596 272.925 140.032C272.925 139.445 272.712 138.983 272.286 138.646C271.86 138.308 271.279 138.139 270.543 138.139H269.041Z" fill="#000"/>
</svg>
