<svg width="345" height="345" viewBox="0 0 345 345" fill="none" xmlns="http://www.w3.org/2000/svg">
<path d="M168.283 104.525C168.283 103.407 168.671 102.494 169.445 101.786C170.226 101.077 171.23 100.723 172.458 100.723C173.643 100.723 174.617 101.047 175.38 101.694C176.15 102.342 176.534 103.166 176.534 104.168C176.534 104.81 176.34 105.446 175.953 106.077C175.566 106.702 174.863 107.519 173.845 108.526L171.338 111.041V111.182H176.717V113H168.399V111.514L172.392 107.43C173.211 106.6 173.756 105.978 174.027 105.562C174.299 105.142 174.434 104.721 174.434 104.301C174.434 103.775 174.24 103.341 173.853 102.998C173.471 102.654 172.984 102.483 172.392 102.483C171.767 102.483 171.26 102.671 170.873 103.047C170.486 103.424 170.292 103.916 170.292 104.525V104.558H168.283V104.525Z" fill="#000"/>
<path d="M103.426 102V92.1802H103.285L100.305 94.272V92.2134L103.434 90.022H105.567V102H103.426Z" fill="#000"/>
<path d="M158.439 165.688V164.027H159.9C160.509 164.027 161.004 163.861 161.386 163.529C161.768 163.192 161.958 162.755 161.958 162.218C161.958 161.687 161.77 161.263 161.394 160.948C161.023 160.627 160.525 160.466 159.9 160.466C159.28 160.466 158.777 160.63 158.389 160.956C158.007 161.283 157.797 161.728 157.758 162.292H155.758C155.813 161.191 156.217 160.322 156.97 159.686C157.722 159.044 158.721 158.723 159.966 158.723C161.128 158.723 162.094 159.028 162.863 159.636C163.638 160.239 164.025 161 164.025 161.919C164.025 162.622 163.829 163.222 163.436 163.72C163.049 164.218 162.523 164.536 161.859 164.675V164.816C162.678 164.91 163.323 165.217 163.793 165.737C164.269 166.257 164.507 166.916 164.507 167.713C164.507 168.742 164.075 169.597 163.212 170.278C162.354 170.958 161.275 171.299 159.975 171.299C158.685 171.299 157.634 170.97 156.82 170.311C156.012 169.653 155.581 168.775 155.525 167.68H157.576C157.62 168.233 157.861 168.676 158.298 169.008C158.735 169.334 159.299 169.498 159.991 169.498C160.677 169.498 161.236 169.32 161.668 168.966C162.105 168.607 162.324 168.145 162.324 167.58C162.324 166.993 162.111 166.531 161.685 166.194C161.258 165.856 160.677 165.688 159.941 165.688H158.439Z" fill="#000"/>
<path fill-rule="evenodd" clip-rule="evenodd" d="M79.8217 159.187C99.511 143.187 112.708 116.844 117.519 92.3076L119.481 92.6924C114.597 117.602 101.178 144.466 80.9769 160.826L87.553 161.714C88.1003 161.788 88.484 162.292 88.41 162.839C88.3361 163.387 87.8324 163.77 87.2851 163.696L78.3662 162.491C77.8189 162.417 77.4352 161.913 77.5091 161.366L78.7144 152.447C78.7883 151.9 79.292 151.516 79.8393 151.59C80.3866 151.664 80.7703 152.168 80.6964 152.715L79.8217 159.187Z" fill="#000"/>
<path fill-rule="evenodd" clip-rule="evenodd" d="M139.323 227.677C158.714 211.719 168.188 185.443 173.019 160.808L174.981 161.192C170.118 185.997 160.5 212.921 140.468 229.324L147.053 230.214C147.6 230.288 147.984 230.792 147.91 231.339C147.836 231.887 147.332 232.27 146.785 232.196L137.866 230.991C137.319 230.917 136.935 230.413 137.009 229.866L138.214 220.947C138.288 220.4 138.792 220.016 139.339 220.09C139.887 220.164 140.27 220.668 140.196 221.215L139.323 227.677Z" fill="#000"/>
<path fill-rule="evenodd" clip-rule="evenodd" d="M213.343 112.929L219.707 119.293C220.098 119.684 220.098 120.317 219.707 120.707L213.343 127.071C212.953 127.462 212.319 127.462 211.929 127.071C211.538 126.681 211.538 126.048 211.929 125.657L216.586 121H162V119H216.586L211.929 114.343C211.538 113.953 211.538 113.32 211.929 112.929C212.319 112.539 212.953 112.539 213.343 112.929Z" fill="#000"/>
<path d="M230.201 86.4201C235.701 94.3401 243.621 107.54 248.021 116.56L236.141 121.84C231.961 113.04 224.481 99.6201 218.541 91.4801L230.201 86.4201ZM254.181 77.6201C260.121 85.5401 268.481 99.4001 272.661 107.54L261.001 112.82C256.161 103.14 248.901 90.8201 242.741 82.4601L254.181 77.6201ZM150.341 94.3401C148.581 99.4001 146.381 105.34 144.841 109.96C141.321 119.86 136.481 133.28 130.321 145.38C121.521 162.54 105.461 184.98 91.6007 196.42L74.2207 185.86C90.0607 174.64 105.901 151.98 113.381 138.56C119.541 127.56 123.281 116.34 125.921 107.76C127.681 102.26 128.781 96.1001 129.221 90.3801L150.341 94.3401ZM122.841 132.18C137.361 132.18 231.301 132.18 240.321 132.18C245.821 132.18 254.621 131.96 261.001 130.86V149.78C253.961 149.34 245.381 149.34 240.321 149.34C231.301 149.34 136.921 149.34 120.421 149.34L122.841 132.18ZM203.581 141.42C201.601 209.18 176.521 248.12 137.141 273.2L118.441 260.44C124.601 258.02 131.421 254.06 136.261 250.1C158.921 233.16 183.781 202.36 184.881 141.42H203.581Z" fill="#f00"/>
<path d="M233.086 81V78.7671H227.234V76.8579C228.208 75.0649 229.835 72.453 232.115 69.022H235.137V76.9575H236.755V78.7671H235.137V81H233.086ZM229.218 76.8828V77.0073H233.12V70.7651H233.003C231.708 72.6799 230.447 74.7191 229.218 76.8828Z" fill="#000"/>
<path d="M261.065 72.2988C259.831 72.2988 258.819 71.9613 258.027 71.2861C257.236 70.611 256.815 69.7422 256.766 68.6797H258.774C258.841 69.2275 259.087 69.6702 259.513 70.0078C259.939 70.3454 260.462 70.5142 261.082 70.5142C261.785 70.5142 262.352 70.2983 262.784 69.8667C263.221 69.4295 263.439 68.854 263.439 68.1401C263.439 67.4263 263.221 66.848 262.784 66.4053C262.352 65.957 261.79 65.7329 261.099 65.7329C260.612 65.7329 260.177 65.8353 259.795 66.04C259.419 66.2448 259.12 66.5353 258.899 66.9116H256.957L257.579 60.022H264.792V61.8315H259.239L258.949 65.1934H259.09C259.643 64.4463 260.487 64.0728 261.622 64.0728C262.756 64.0728 263.686 64.4491 264.411 65.2017C265.141 65.9543 265.506 66.9172 265.506 68.0903C265.506 69.341 265.097 70.3564 264.278 71.1367C263.464 71.9115 262.394 72.2988 261.065 72.2988Z" fill="#000"/>
</svg>
