<svg width="345" height="345" viewBox="0 0 345 345" fill="none" xmlns="http://www.w3.org/2000/svg">
<path d="M230.3 87.6799C235.8 95.5999 243.72 109.02 248.12 117.82L236.24 123.1C231.84 114.3 224.36 101.1 218.42 92.7399L230.3 87.6799ZM254.28 78.8799C260.22 87.0199 268.58 100.66 272.76 108.8L260.88 114.08C256.04 104.62 249 92.0799 242.84 83.9399L254.28 78.8799ZM146.26 169.52C174.42 185.8 210.72 211.1 232.28 228.92L219.52 244.1C199.06 225.62 161.66 198.56 134.38 181.62L146.26 169.52ZM246.8 129.26C245.04 132.34 243.06 137.62 241.74 141.14C235.14 163.58 221.28 192.62 201.92 216.6C182.12 241.02 153.3 264.56 111.5 279.96L95.8802 266.32C136.8 253.78 166.72 230.46 186.52 206.92C203.68 186.68 217.54 158.74 222.6 138.28H140.98L148.02 122.66H217.98C223.92 122.66 228.76 121.78 232.28 120.46L246.8 129.26ZM172.66 97.5799C168.92 103.3 165.18 110.78 162.98 114.74C149.78 138.94 124.92 172.38 89.9402 196.58L75.2002 185.14C112.82 161.6 135.48 128.6 145.6 108.58C147.8 104.62 151.54 96.6999 152.86 91.1999L172.66 97.5799Z" fill="#f00"/>
<path d="M233.087 85V82.7671H227.235V80.8579C228.209 79.0649 229.836 76.453 232.116 73.022H235.138V80.9575H236.756V82.7671H235.138V85H233.087ZM229.219 80.8828V81.0073H233.121V74.7651H233.004C231.709 76.6799 230.448 78.7191 229.219 80.8828Z" fill="#000"/>
<path d="M259.066 75.2988C257.832 75.2988 256.82 74.9613 256.028 74.2861C255.237 73.611 254.816 72.7422 254.767 71.6797H256.775C256.842 72.2275 257.088 72.6702 257.514 73.0078C257.94 73.3454 258.463 73.5142 259.083 73.5142C259.786 73.5142 260.353 73.2983 260.785 72.8667C261.222 72.4295 261.44 71.854 261.44 71.1401C261.44 70.4263 261.222 69.848 260.785 69.4053C260.353 68.957 259.791 68.7329 259.1 68.7329C258.613 68.7329 258.178 68.8353 257.796 69.04C257.42 69.2448 257.121 69.5353 256.9 69.9116H254.958L255.58 63.022H262.793V64.8315H257.24L256.95 68.1934H257.091C257.644 67.4463 258.488 67.0728 259.623 67.0728C260.757 67.0728 261.687 67.4491 262.412 68.2017C263.142 68.9543 263.507 69.9172 263.507 71.0903C263.507 72.341 263.098 73.3564 262.279 74.1367C261.465 74.9115 260.395 75.2988 259.066 75.2988Z" fill="#000"/>
<path d="M123.186 97.2769V87.457H123.044L120.064 89.5488V87.4902L123.194 85.2988H125.327V97.2769H123.186Z" fill="#000"/>
<path d="M177 100.802C177 99.6839 177.387 98.7708 178.162 98.0625C178.942 97.3542 179.947 97 181.175 97C182.36 97 183.333 97.3237 184.097 97.9712C184.866 98.6187 185.251 99.4432 185.251 100.445C185.251 101.087 185.057 101.723 184.67 102.354C184.283 102.979 183.58 103.796 182.562 104.803L180.055 107.318V107.459H185.434V109.277H177.116V107.791L181.109 103.707C181.928 102.877 182.473 102.254 182.744 101.839C183.015 101.419 183.151 100.998 183.151 100.578C183.151 100.052 182.957 99.6175 182.57 99.2744C182.188 98.9313 181.701 98.7598 181.109 98.7598C180.484 98.7598 179.977 98.9479 179.59 99.3242C179.202 99.7005 179.009 100.193 179.009 100.802V100.835H177V100.802Z" fill="#000"/>
<path d="M163.2 154.964V153.304H164.661C165.269 153.304 165.765 153.138 166.146 152.806C166.528 152.469 166.719 152.031 166.719 151.495C166.719 150.963 166.531 150.54 166.155 150.225C165.784 149.904 165.286 149.743 164.661 149.743C164.041 149.743 163.537 149.906 163.15 150.233C162.768 150.559 162.558 151.005 162.519 151.569H160.519C160.574 150.468 160.978 149.599 161.73 148.963C162.483 148.321 163.482 148 164.727 148C165.889 148 166.855 148.304 167.624 148.913C168.399 149.516 168.786 150.277 168.786 151.196C168.786 151.899 168.59 152.499 168.197 152.997C167.809 153.495 167.284 153.813 166.62 153.952V154.093C167.439 154.187 168.083 154.494 168.554 155.014C169.03 155.534 169.268 156.193 169.268 156.99C169.268 158.019 168.836 158.874 167.973 159.555C167.115 160.235 166.036 160.576 164.735 160.576C163.446 160.576 162.395 160.246 161.581 159.588C160.773 158.929 160.341 158.052 160.286 156.957H162.336C162.381 157.51 162.621 157.953 163.059 158.285C163.496 158.611 164.06 158.774 164.752 158.774C165.438 158.774 165.997 158.597 166.429 158.243C166.866 157.883 167.084 157.421 167.084 156.857C167.084 156.27 166.871 155.808 166.445 155.471C166.019 155.133 165.438 154.964 164.702 154.964H163.2Z" fill="#000"/>
<path fill-rule="evenodd" clip-rule="evenodd" d="M85.0029 158.463C113.027 135.275 125.176 116.182 137.359 90.8435L139.161 91.7101C126.877 117.261 114.561 136.607 86.2499 160.028L92.8149 160.702C93.3643 160.759 93.7639 161.25 93.7074 161.799C93.6509 162.349 93.1598 162.748 92.6104 162.692L83.6576 161.772C83.1082 161.715 82.7086 161.224 82.7651 160.675L83.6855 151.722C83.7419 151.172 84.2331 150.773 84.7825 150.829C85.3319 150.886 85.7315 151.377 85.675 151.926L85.0029 158.463Z" fill="#000"/>
<path fill-rule="evenodd" clip-rule="evenodd" d="M192.259 177.854L194.336 186.611C194.464 187.148 194.131 187.687 193.594 187.815L184.837 189.892C184.3 190.02 183.761 189.688 183.633 189.15C183.506 188.613 183.838 188.074 184.376 187.947L190.783 186.426L156.235 165.128L157.284 163.426L191.833 184.724L190.313 178.316C190.185 177.778 190.517 177.239 191.055 177.112C191.592 176.984 192.131 177.317 192.259 177.854Z" fill="#000"/>
<path fill-rule="evenodd" clip-rule="evenodd" d="M212.343 105.929L218.707 112.293C219.098 112.683 219.098 113.317 218.707 113.707L212.343 120.071C211.953 120.462 211.319 120.462 210.929 120.071C210.538 119.68 210.538 119.047 210.929 118.657L215.586 114H170V112H215.586L210.929 107.343C210.538 106.953 210.538 106.319 210.929 105.929C211.319 105.538 211.953 105.538 212.343 105.929Z" fill="#000"/>
</svg>
