<svg width="345" height="345" viewBox="0 0 345 345" fill="none" xmlns="http://www.w3.org/2000/svg">
<path d="M228.32 86.1399C234.04 94.0599 242.18 107.48 246.36 116.28L234.48 121.56C230.08 112.54 222.6 99.5599 216.66 90.9799L228.32 86.1399ZM253.4 78.4399C259.12 86.3599 267.7 100.22 271.88 108.36L260 113.64C255.16 103.96 247.9 91.6399 241.74 83.2799L253.4 78.4399ZM233.38 121.78C232.06 123.54 229.2 128.38 228.1 131.46C219.3 153.02 202.58 183.82 184.32 204.28C159.68 231.56 128.22 257.96 93.4599 273.8L79.3799 259.06C115.02 245.2 147.36 219.02 170.02 193.72C184.98 176.78 201.04 150.82 206.76 132.56C198.84 132.56 128.44 132.56 120.96 132.56C113.04 132.56 101.16 133.44 98.7399 133.66V113.64C101.6 114.08 114.14 115.18 120.96 115.18C129.54 115.18 197.52 115.18 205.88 115.18C212.92 115.18 218.86 114.3 222.38 113.2L233.38 121.78ZM187.18 192.62C210.94 212.42 240.2 243.22 255.16 261.7L239.98 274.9C224.14 254 198.4 225.84 174.64 205.16L187.18 192.62Z" fill="#f00"/>
<path d="M229.439 74.6875V73.0273H230.9C231.509 73.0273 232.004 72.8613 232.386 72.5293C232.768 72.1917 232.958 71.7546 232.958 71.2178C232.958 70.6865 232.77 70.2632 232.394 69.9478C232.023 69.6268 231.525 69.4663 230.9 69.4663C230.28 69.4663 229.777 69.6296 229.389 69.9561C229.007 70.2826 228.797 70.728 228.758 71.2925H226.758C226.813 70.1912 227.217 69.3224 227.97 68.686C228.722 68.0441 229.721 67.7231 230.966 67.7231C232.128 67.7231 233.094 68.0275 233.863 68.6362C234.638 69.2394 235.025 70.0003 235.025 70.9189C235.025 71.6217 234.829 72.2222 234.436 72.7202C234.049 73.2183 233.523 73.5365 232.859 73.6748V73.8159C233.678 73.91 234.323 74.2171 234.793 74.7373C235.269 75.2575 235.507 75.916 235.507 76.7129C235.507 77.7422 235.075 78.5972 234.212 79.2778C233.354 79.9585 232.275 80.2988 230.975 80.2988C229.685 80.2988 228.634 79.9696 227.82 79.311C227.012 78.6525 226.581 77.7754 226.525 76.6797H228.576C228.62 77.2331 228.861 77.6758 229.298 78.0078C229.735 78.3343 230.299 78.4976 230.991 78.4976C231.677 78.4976 232.236 78.3205 232.668 77.9663C233.105 77.6066 233.324 77.1445 233.324 76.5801C233.324 75.9935 233.111 75.5314 232.685 75.1938C232.258 74.8563 231.677 74.6875 230.941 74.6875H229.439Z" fill="#000"/>
<path d="M258.087 74V71.7671H252.235V69.8579C253.209 68.0649 254.836 65.453 257.116 62.022H260.138V69.9575H261.756V71.7671H260.138V74H258.087ZM254.219 69.8828V70.0073H258.121V63.7651H258.004C256.709 65.6799 255.448 67.7191 254.219 69.8828Z" fill="#000"/>
<path d="M216.503 188.503C216.503 187.385 216.89 186.472 217.665 185.764C218.445 185.055 219.45 184.701 220.678 184.701C221.862 184.701 222.836 185.025 223.6 185.672C224.369 186.32 224.754 187.144 224.754 188.146C224.754 188.788 224.56 189.424 224.173 190.055C223.785 190.681 223.083 191.497 222.064 192.504L219.558 195.019V195.16H224.937V196.978H216.619V195.492L220.612 191.408C221.431 190.578 221.976 189.956 222.247 189.541C222.518 189.12 222.654 188.699 222.654 188.279C222.654 187.753 222.46 187.319 222.073 186.976C221.691 186.632 221.204 186.461 220.612 186.461C219.986 186.461 219.48 186.649 219.093 187.025C218.705 187.402 218.512 187.894 218.512 188.503V188.536H216.503V188.503Z" fill="#000"/>
<path d="M108.121 160.978V151.158H107.98L105 153.25V151.191L108.129 149H110.263V160.978H108.121Z" fill="#000"/>
<path fill-rule="evenodd" clip-rule="evenodd" d="M248.006 225.957L248.22 234.954C248.233 235.506 247.796 235.965 247.244 235.978L238.246 236.192C237.694 236.205 237.236 235.768 237.223 235.216C237.21 234.664 237.647 234.206 238.199 234.193L244.783 234.036L203.53 194.702L204.91 193.254L246.163 232.588L246.006 226.004C245.993 225.452 246.43 224.994 246.982 224.981C247.534 224.968 247.992 225.405 248.006 225.957Z" fill="#000"/>
<path fill-rule="evenodd" clip-rule="evenodd" d="M187.435 143.5H104.5V141.5H190.547L189.912 142.91C185.553 152.597 175.666 168.703 163.794 183.287L170.373 182.689C170.923 182.639 171.409 183.045 171.459 183.595C171.509 184.145 171.104 184.631 170.554 184.681L161.591 185.496C161.041 185.546 160.554 185.141 160.504 184.591L159.689 175.627C159.639 175.077 160.045 174.591 160.595 174.541C161.145 174.491 161.631 174.896 161.681 175.446L162.275 181.985C173.48 168.213 182.875 153.106 187.435 143.5Z" fill="#000"/>
</svg>
