<svg width="345" height="345" viewBox="0 0 345 345" fill="none" xmlns="http://www.w3.org/2000/svg">
<path d="M116.559 262.14C192.459 230.02 212.479 170.4 219.299 137.18C220.619 131.24 221.719 123.54 221.719 119.58L243.059 123.54C241.079 129.26 239.319 136.74 238.439 139.6C228.099 183.82 205.879 240.58 132.839 276L116.559 262.14ZM102.919 111.88C112.599 126.18 132.179 160.06 139.879 174.36L122.279 184.26C112.819 164.68 94.7791 133.44 85.5391 120.68L102.919 111.88ZM224.359 83.5001C229.419 90.9801 237.559 104.62 242.179 112.98L229.859 118.26C225.459 109.24 217.759 96.2601 212.259 88.5601L224.359 83.5001ZM252.079 77.3401C257.579 84.8201 265.499 97.8001 270.339 106.38L258.019 111.66C253.179 102.64 245.919 89.8801 239.979 82.4001L252.079 77.3401Z" fill="#f00"/>
<path d="M226.439 73.6875V72.0273H227.9C228.509 72.0273 229.004 71.8613 229.386 71.5293C229.768 71.1917 229.958 70.7546 229.958 70.2178C229.958 69.6865 229.77 69.2632 229.394 68.9478C229.023 68.6268 228.525 68.4663 227.9 68.4663C227.28 68.4663 226.777 68.6296 226.389 68.9561C226.007 69.2826 225.797 69.728 225.758 70.2925H223.758C223.813 69.1912 224.217 68.3224 224.97 67.686C225.722 67.0441 226.721 66.7231 227.966 66.7231C229.128 66.7231 230.094 67.0275 230.863 67.6362C231.638 68.2394 232.025 69.0003 232.025 69.9189C232.025 70.6217 231.829 71.2222 231.436 71.7202C231.049 72.2183 230.523 72.5365 229.859 72.6748V72.8159C230.678 72.91 231.323 73.2171 231.793 73.7373C232.269 74.2575 232.507 74.916 232.507 75.7129C232.507 76.7422 232.075 77.5972 231.212 78.2778C230.354 78.9585 229.275 79.2988 227.975 79.2988C226.685 79.2988 225.634 78.9696 224.82 78.311C224.012 77.6525 223.581 76.7754 223.525 75.6797H225.576C225.62 76.2331 225.861 76.6758 226.298 77.0078C226.735 77.3343 227.299 77.4976 227.991 77.4976C228.677 77.4976 229.236 77.3205 229.668 76.9663C230.105 76.6066 230.324 76.1445 230.324 75.5801C230.324 74.9935 230.111 74.5314 229.685 74.1938C229.258 73.8563 228.677 73.6875 227.941 73.6875H226.439Z" fill="#000"/>
<path d="M258.086 74V71.7671H252.234V69.8579C253.208 68.0649 254.835 65.453 257.115 62.022H260.137V69.9575H261.755V71.7671H260.137V74H258.086ZM254.218 69.8828V70.0073H258.12V63.7651H258.003C256.708 65.6799 255.447 67.7191 254.218 69.8828Z" fill="#000"/>
<path d="M132.145 111.978V102.158H132.003L129.023 104.25V102.191L132.153 100H134.286V111.978H132.145Z" fill="#000"/>
<path d="M256.91 134.2C256.91 133.082 257.298 132.169 258.072 131.46C258.853 130.752 259.857 130.398 261.085 130.398C262.27 130.398 263.244 130.722 264.007 131.369C264.777 132.017 265.161 132.841 265.161 133.843C265.161 134.485 264.967 135.121 264.58 135.752C264.193 136.377 263.49 137.194 262.472 138.201L259.965 140.716V140.857H265.344V142.675H257.026V141.189L261.019 137.105C261.838 136.275 262.383 135.652 262.654 135.237C262.925 134.817 263.061 134.396 263.061 133.976C263.061 133.45 262.867 133.015 262.48 132.672C262.098 132.329 261.611 132.158 261.019 132.158C260.394 132.158 259.887 132.346 259.5 132.722C259.113 133.098 258.919 133.591 258.919 134.2V134.233H256.91V134.2Z" fill="#000"/>
<path fill-rule="evenodd" clip-rule="evenodd" d="M151.07 152.565L148.684 161.243C148.537 161.776 147.987 162.089 147.455 161.942L138.777 159.556C138.244 159.409 137.931 158.859 138.078 158.326C138.224 157.794 138.774 157.481 139.307 157.627L145.657 159.374L117.85 110.472L119.589 109.484L147.396 158.385L149.142 152.035C149.288 151.502 149.839 151.189 150.371 151.336C150.904 151.482 151.217 152.033 151.07 152.565Z" fill="#000"/>
<path fill-rule="evenodd" clip-rule="evenodd" d="M250.384 130.111C250.629 128.985 250.872 127.865 251.115 126.75L253.069 127.176C252.82 128.318 252.571 129.466 252.32 130.621C245.946 159.957 238.703 193.291 213.485 224.23L220.073 223.662C220.623 223.614 221.107 224.022 221.155 224.572C221.202 225.122 220.795 225.607 220.245 225.654L211.278 226.428C210.728 226.476 210.243 226.068 210.196 225.518L209.422 216.551C209.374 216.001 209.782 215.516 210.332 215.469C210.882 215.421 211.367 215.829 211.414 216.379L211.978 222.913C236.853 192.369 244.003 159.469 250.384 130.111Z" fill="#000"/>
</svg>
