<svg width="345" height="345" viewBox="0 0 345 345" fill="none" xmlns="http://www.w3.org/2000/svg">
<path d="M206.32 106.82C211.82 114.74 221.28 129.48 226.34 140.04L213.8 145.76C208.3 134.1 201.26 122 194 112.1L206.32 106.82ZM232.72 95.8201C238.66 103.52 248.34 118.04 253.4 128.38L241.08 134.54C235.36 122.88 228.1 111.22 220.84 101.54L232.72 95.8201ZM129.1 248.5C129.1 236.4 129.1 139.16 129.1 120.68C129.1 114.3 128.44 104.62 127.34 97.8001H148.9C148.24 104.4 147.36 114.08 147.36 120.68C147.36 155 147.58 238.16 147.58 248.5C147.58 255.54 148.02 267.42 148.9 274.68H127.56C128.66 267.64 129.1 256.86 129.1 248.5ZM143.4 155.44C172.66 163.8 216.88 180.74 241.3 192.84L233.6 211.32C208.52 197.9 167.38 182.28 143.4 174.8V155.44Z" fill="#f00"/>
<path d="M209.439 98.6875V97.0273H210.9C211.509 97.0273 212.004 96.8613 212.386 96.5293C212.768 96.1917 212.958 95.7546 212.958 95.2178C212.958 94.6865 212.77 94.2632 212.394 93.9478C212.023 93.6268 211.525 93.4663 210.9 93.4663C210.28 93.4663 209.777 93.6296 209.389 93.9561C209.007 94.2826 208.797 94.728 208.758 95.2925H206.758C206.813 94.1912 207.217 93.3224 207.97 92.686C208.722 92.0441 209.721 91.7231 210.966 91.7231C212.128 91.7231 213.094 92.0275 213.863 92.6362C214.638 93.2394 215.025 94.0003 215.025 94.9189C215.025 95.6217 214.829 96.2222 214.436 96.7202C214.049 97.2183 213.523 97.5365 212.859 97.6748V97.8159C213.678 97.91 214.323 98.2171 214.793 98.7373C215.269 99.2575 215.507 99.916 215.507 100.713C215.507 101.742 215.075 102.597 214.212 103.278C213.354 103.958 212.275 104.299 210.975 104.299C209.685 104.299 208.634 103.97 207.82 103.311C207.012 102.653 206.581 101.775 206.525 100.68H208.576C208.62 101.233 208.861 101.676 209.298 102.008C209.735 102.334 210.299 102.498 210.991 102.498C211.677 102.498 212.236 102.32 212.668 101.966C213.105 101.607 213.324 101.145 213.324 100.58C213.324 99.9935 213.111 99.5314 212.685 99.1938C212.258 98.8563 211.677 98.6875 210.941 98.6875H209.439Z" fill="#000"/>
<path d="M237.086 95V92.7671H231.234V90.8579C232.208 89.0649 233.835 86.453 236.115 83.022H239.137V90.9575H240.755V92.7671H239.137V95H237.086ZM233.218 90.8828V91.0073H237.12V84.7651H237.003C235.708 86.6799 234.447 88.7191 233.218 90.8828Z" fill="#000"/>
<path d="M104.121 109V99.1802H103.98L101 101.272V99.2134L104.129 97.022H106.263V109H104.121Z" fill="#000"/>
<path d="M164.979 132.525C164.979 131.407 165.366 130.494 166.141 129.786C166.921 129.077 167.925 128.723 169.154 128.723C170.338 128.723 171.312 129.047 172.076 129.694C172.845 130.342 173.229 131.166 173.229 132.168C173.229 132.81 173.036 133.446 172.648 134.077C172.261 134.702 171.558 135.519 170.54 136.526L168.033 139.041V139.182H173.412V141H165.095V139.514L169.087 135.43C169.906 134.6 170.451 133.978 170.723 133.562C170.994 133.142 171.129 132.721 171.129 132.301C171.129 131.775 170.936 131.341 170.548 130.998C170.167 130.654 169.68 130.483 169.087 130.483C168.462 130.483 167.956 130.671 167.568 131.047C167.181 131.424 166.987 131.916 166.987 132.525V132.558H164.979V132.525Z" fill="#000"/>
<path fill-rule="evenodd" clip-rule="evenodd" d="M122.768 173.343L116.404 179.707C116.013 180.098 115.38 180.098 114.989 179.707L108.626 173.343C108.235 172.953 108.235 172.319 108.626 171.929C109.016 171.538 109.649 171.538 110.04 171.929L114.697 176.586L114.697 92L116.697 92L116.697 176.586L121.353 171.929C121.744 171.538 122.377 171.538 122.768 171.929C123.158 172.319 123.158 172.953 122.768 173.343Z" fill="#000"/>
<path fill-rule="evenodd" clip-rule="evenodd" d="M210.519 155.52L214.588 163.548C214.838 164.04 214.641 164.642 214.148 164.892L206.12 168.961C205.628 169.21 205.026 169.013 204.776 168.521C204.526 168.028 204.723 167.426 205.216 167.177L211.09 164.199L158.385 146.95L159.007 145.05L211.712 162.299L208.735 156.424C208.485 155.932 208.682 155.33 209.175 155.08C209.668 154.831 210.269 155.027 210.519 155.52Z" fill="#000"/>
</svg>
