<svg width="345" height="345" viewBox="0 0 345 345" fill="none" xmlns="http://www.w3.org/2000/svg">
<path d="M228.1 82.1799C233.38 89.8799 241.3 102.86 245.7 111.22L233.38 116.72C228.98 107.7 221.5 95.1599 216 87.2399L228.1 82.1799ZM256.48 76.6799C261.76 84.1599 269.9 97.1399 274.52 105.72L262.2 111C257.36 101.98 250.32 89.2199 244.38 81.7399L256.48 76.6799ZM247.9 121.78C246.58 124.86 245.48 128.6 244.6 132.78C239.98 155.88 229.2 191.52 211.82 213.96C191.8 239.92 165.62 260.16 125.36 272.92L110.4 256.42C152.86 245.64 177.72 226.94 195.98 203.4C211.6 183.6 221.94 152.8 224.8 131.68C212.26 131.68 124.92 131.68 112.38 131.68C103.58 131.68 96.0999 132.12 90.3799 132.56V112.98C96.5399 113.64 105.12 114.52 112.38 114.52C124.92 114.52 212.7 114.52 222.82 114.52C226.12 114.52 230.52 114.3 234.48 113.2L247.9 121.78Z" fill="#f00"/>
<path d="M228.283 67.5249C228.283 66.4071 228.671 65.494 229.445 64.7856C230.226 64.0773 231.23 63.7231 232.458 63.7231C233.643 63.7231 234.617 64.0469 235.38 64.6943C236.15 65.3418 236.534 66.1663 236.534 67.168C236.534 67.8099 236.34 68.4463 235.953 69.0771C235.566 69.7025 234.863 70.5187 233.845 71.5259L231.338 74.041V74.1821H236.717V76H228.399V74.5142L232.392 70.4302C233.211 69.6001 233.756 68.9775 234.027 68.5625C234.299 68.1419 234.434 67.7214 234.434 67.3008C234.434 66.7751 234.24 66.3407 233.853 65.9976C233.471 65.6545 232.984 65.4829 232.392 65.4829C231.767 65.4829 231.26 65.6711 230.873 66.0474C230.486 66.4237 230.292 66.9162 230.292 67.5249V67.5581H228.283V67.5249Z" fill="#000"/>
<path d="M261.439 65.6875V64.0273H262.9C263.509 64.0273 264.004 63.8613 264.386 63.5293C264.768 63.1917 264.958 62.7546 264.958 62.2178C264.958 61.6865 264.77 61.2632 264.394 60.9478C264.023 60.6268 263.525 60.4663 262.9 60.4663C262.28 60.4663 261.777 60.6296 261.389 60.9561C261.007 61.2826 260.797 61.728 260.758 62.2925H258.758C258.813 61.1912 259.217 60.3224 259.97 59.686C260.722 59.0441 261.721 58.7231 262.966 58.7231C264.128 58.7231 265.094 59.0275 265.863 59.6362C266.638 60.2394 267.025 61.0003 267.025 61.9189C267.025 62.6217 266.829 63.2222 266.436 63.7202C266.049 64.2183 265.523 64.5365 264.859 64.6748V64.8159C265.678 64.91 266.323 65.2171 266.793 65.7373C267.269 66.2575 267.507 66.916 267.507 67.7129C267.507 68.7422 267.075 69.5972 266.212 70.2778C265.354 70.9585 264.275 71.2988 262.975 71.2988C261.685 71.2988 260.634 70.9696 259.82 70.311C259.012 69.6525 258.581 68.7754 258.525 67.6797H260.576C260.62 68.2331 260.861 68.6758 261.298 69.0078C261.735 69.3343 262.299 69.4976 262.991 69.4976C263.677 69.4976 264.236 69.3205 264.668 68.9663C265.105 68.6066 265.324 68.1445 265.324 67.5801C265.324 66.9935 265.111 66.5314 264.685 66.1938C264.258 65.8563 263.677 65.6875 262.941 65.6875H261.439Z" fill="#000"/>
<path d="M96.4258 97.978V88.1582H96.2847L93.3047 90.25V88.1914L96.4341 86H98.5674V97.978H96.4258Z" fill="#000"/>
<path fill-rule="evenodd" clip-rule="evenodd" d="M140.343 95.9069L146.707 102.271C147.098 102.661 147.098 103.295 146.707 103.685L140.343 110.049C139.953 110.44 139.319 110.44 138.929 110.049C138.538 109.659 138.538 109.025 138.929 108.635L143.586 103.978L90 103.978L90 101.978L143.586 101.978L138.929 97.3211C138.538 96.9306 138.538 96.2974 138.929 95.9069C139.319 95.5164 139.953 95.5164 140.343 95.9069Z" fill="#000"/>
</svg>
