<svg width="345" height="345" viewBox="0 0 345 345" fill="none" xmlns="http://www.w3.org/2000/svg">
<path d="M229.639 90.1001C235.139 97.8001 243.059 111.22 247.459 120.24L235.579 125.52C231.399 116.5 223.919 103.3 217.979 94.94L229.639 90.1001ZM253.619 81.3C259.559 89.2201 267.919 103.08 272.099 111.22L260.439 116.5C255.599 106.82 248.339 94.5 242.179 86.1401L253.619 81.3ZM126.239 240.58C126.239 220.56 126.239 142.68 126.239 119.14C126.239 112.54 125.799 105.28 124.699 98.9H145.599C144.719 105.28 144.059 112.76 144.059 119.14C144.059 142.46 144.059 214.18 144.059 235.96C144.059 251.14 149.779 255.98 175.959 255.98C201.479 255.98 222.599 253.78 244.599 249.6L243.939 268.52C224.139 271.38 202.359 273.14 174.859 273.14C133.719 273.14 126.239 262.36 126.239 240.58ZM254.059 142.46C252.299 144.66 250.099 148.4 248.559 151.26C238.439 169.52 221.059 197.02 203.459 215.28L188.059 206.04C204.559 191.08 220.839 166.88 227.439 153.68C220.619 155.22 101.819 178.76 75.6391 184.7L72.1191 166.22C100.059 162.7 212.699 140.04 229.419 136.3C234.039 135.2 238.219 133.88 241.079 132.34L254.059 142.46Z" fill="#f00"/>
<path d="M228.439 79.6875V78.0273H229.9C230.509 78.0273 231.004 77.8613 231.386 77.5293C231.768 77.1917 231.958 76.7546 231.958 76.2178C231.958 75.6865 231.77 75.2632 231.394 74.9478C231.023 74.6268 230.525 74.4663 229.9 74.4663C229.28 74.4663 228.777 74.6296 228.389 74.9561C228.007 75.2826 227.797 75.728 227.758 76.2925H225.758C225.813 75.1912 226.217 74.3224 226.97 73.686C227.722 73.0441 228.721 72.7231 229.966 72.7231C231.128 72.7231 232.094 73.0275 232.863 73.6362C233.638 74.2394 234.025 75.0003 234.025 75.9189C234.025 76.6217 233.829 77.2222 233.436 77.7202C233.049 78.2183 232.523 78.5365 231.859 78.6748V78.8159C232.678 78.91 233.323 79.2171 233.793 79.7373C234.269 80.2575 234.507 80.916 234.507 81.7129C234.507 82.7422 234.075 83.5972 233.212 84.2778C232.354 84.9585 231.275 85.2988 229.975 85.2988C228.685 85.2988 227.634 84.9696 226.82 84.311C226.012 83.6525 225.581 82.7754 225.525 81.6797H227.576C227.62 82.2331 227.861 82.6758 228.298 83.0078C228.735 83.3343 229.299 83.4976 229.991 83.4976C230.677 83.4976 231.236 83.3205 231.668 82.9663C232.105 82.6066 232.324 82.1445 232.324 81.5801C232.324 80.9935 232.111 80.5314 231.685 80.1938C231.258 79.8563 230.677 79.6875 229.941 79.6875H228.439Z" fill="#000"/>
<path d="M258.086 79V76.7671H252.234V74.8579C253.208 73.0649 254.835 70.453 257.115 67.022H260.137V74.9575H261.755V76.7671H260.137V79H258.086ZM254.218 74.8828V75.0073H258.12V68.7651H258.003C256.708 70.6799 255.447 72.7191 254.218 74.8828Z" fill="#000"/>
<path d="M74.5332 148.277V138.457H74.3921L71.4121 140.549V138.49L74.5415 136.299H76.6748V148.277H74.5332Z" fill="#000"/>
<path d="M165.391 87.8018C165.391 86.6839 165.778 85.7708 166.553 85.0625C167.333 84.3542 168.337 84 169.566 84C170.75 84 171.724 84.3237 172.488 84.9712C173.257 85.6187 173.642 86.4432 173.642 87.4448C173.642 88.0868 173.448 88.7231 173.061 89.354C172.673 89.9793 171.97 90.7956 170.952 91.8027L168.445 94.3179V94.459H173.824V96.2769H165.507V94.791L169.5 90.707C170.319 89.877 170.864 89.2544 171.135 88.8394C171.406 88.4188 171.542 87.9982 171.542 87.5776C171.542 87.0519 171.348 86.6175 170.96 86.2744C170.579 85.9313 170.092 85.7598 169.5 85.7598C168.874 85.7598 168.368 85.9479 167.98 86.3242C167.593 86.7005 167.399 87.193 167.399 87.8018V87.835H165.391V87.8018Z" fill="#000"/>
<path fill-rule="evenodd" clip-rule="evenodd" d="M111.452 143.137L118.701 148.471C119.145 148.799 119.241 149.425 118.913 149.869L113.579 157.118C113.252 157.563 112.626 157.658 112.181 157.331C111.736 157.004 111.641 156.378 111.968 155.933L115.872 150.629L72.2583 157.265L71.9574 155.288L115.571 148.651L110.266 144.748C109.821 144.421 109.726 143.795 110.053 143.35C110.381 142.905 111.007 142.81 111.452 143.137Z" fill="#000"/>
<path fill-rule="evenodd" clip-rule="evenodd" d="M164.18 136.62L157.816 142.984C157.425 143.374 156.792 143.374 156.402 142.984L150.038 136.62C149.647 136.229 149.647 135.596 150.038 135.206C150.428 134.815 151.061 134.815 151.452 135.206L156.109 139.863L156.109 85.2769L158.109 85.2769L158.109 139.863L162.766 135.206C163.156 134.815 163.789 134.815 164.18 135.206C164.57 135.596 164.57 136.229 164.18 136.62Z" fill="#000"/>
</svg>
