<svg width="345" height="345" viewBox="0 0 345 345" fill="none" xmlns="http://www.w3.org/2000/svg">
<path d="M130.425 93V83.1802H130.284L127.304 85.272V83.2134L130.433 81.022H132.566V93H130.425Z" fill="#000"/>
<path d="M152 156.802C152 155.684 152.387 154.771 153.162 154.062C153.942 153.354 154.947 153 156.175 153C157.36 153 158.333 153.324 159.097 153.971C159.866 154.619 160.251 155.443 160.251 156.445C160.251 157.087 160.057 157.723 159.67 158.354C159.283 158.979 158.58 159.796 157.562 160.803L155.055 163.318V163.459H160.434V165.277H152.116V163.791L156.109 159.707C156.928 158.877 157.473 158.254 157.744 157.839C158.015 157.419 158.151 156.998 158.151 156.578C158.151 156.052 157.957 155.618 157.57 155.274C157.188 154.931 156.701 154.76 156.109 154.76C155.484 154.76 154.977 154.948 154.59 155.324C154.202 155.701 154.009 156.193 154.009 156.802V156.835H152V156.802Z" fill="#000"/>
<path fill-rule="evenodd" clip-rule="evenodd" d="M90.7422 152.687C118.766 129.498 130.916 110.406 143.098 85.0669L144.9 85.9335C132.616 111.484 120.3 130.831 91.9892 154.251L98.5542 154.926C99.1036 154.982 99.5032 155.473 99.4467 156.023C99.3902 156.572 98.899 156.972 98.3497 156.915L89.3968 155.995C88.8474 155.938 88.4479 155.447 88.5043 154.898L89.4247 145.945C89.4812 145.396 89.9724 144.996 90.5217 145.053C91.0711 145.109 91.4707 145.6 91.4142 146.15L90.7422 152.687Z" fill="#000"/>
<path d="M232.3 84.0002C237.8 91.9202 245.72 105.34 250.12 114.14L238.24 119.64C233.84 110.62 226.36 97.4202 220.42 89.0602L232.3 84.0002ZM256.28 75.2002C262.22 83.3402 270.58 96.9802 274.76 105.12L262.88 110.4C258.04 100.94 251 88.4002 244.84 80.2602L256.28 75.2002ZM246.82 127.78C245.06 131.08 242.86 136.14 241.76 139.66C235.82 161.66 222.18 191.58 202.82 215.34C182.8 239.76 156.4 260 115.04 275.18L99.1998 260.88C139.68 249 166.96 228.98 186.98 205.66C204.14 185.42 217.56 157.04 222.18 137.02H140.56L147.6 121.18C156.62 121.18 210.96 121.18 217.78 121.18C223.72 121.18 228.56 120.52 232.3 118.98L246.82 127.78ZM173.12 94.5602C169.6 100.28 165.64 107.76 163.44 111.94C150.46 136.14 127.36 167.6 92.1598 191.14L76.7598 179.7C114.82 157.04 136.38 125.14 146.06 105.34C148.26 101.6 151.56 93.4602 152.88 87.9602L173.12 94.5602Z" fill="#f00"/>
<path fill-rule="evenodd" clip-rule="evenodd" d="M208.595 146H156V144H211.394L210.947 145.321C209.097 150.786 205.476 159.736 200.608 168.882C196.149 177.258 190.609 185.868 184.378 192.109L191.037 192.416C191.588 192.441 192.015 192.909 191.989 193.461C191.964 194.013 191.496 194.439 190.944 194.414L181.954 193.999C181.402 193.973 180.976 193.506 181.001 192.954L181.416 183.963C181.441 183.412 181.909 182.985 182.461 183.011C183.013 183.036 183.439 183.504 183.414 184.056L183.114 190.543C189.076 184.523 194.454 176.186 198.842 167.943C203.281 159.604 206.669 151.432 208.595 146Z" fill="#000"/>
<path d="M227.439 73.6875V72.0273H228.9C229.509 72.0273 230.004 71.8613 230.386 71.5293C230.768 71.1917 230.958 70.7546 230.958 70.2178C230.958 69.6865 230.77 69.2632 230.394 68.9478C230.023 68.6268 229.525 68.4663 228.9 68.4663C228.28 68.4663 227.777 68.6296 227.389 68.9561C227.007 69.2826 226.797 69.728 226.758 70.2925H224.758C224.813 69.1912 225.217 68.3224 225.97 67.686C226.722 67.0441 227.721 66.7231 228.966 66.7231C230.128 66.7231 231.094 67.0275 231.863 67.6362C232.638 68.2394 233.025 69.0003 233.025 69.9189C233.025 70.6217 232.829 71.2222 232.436 71.7202C232.049 72.2183 231.523 72.5365 230.859 72.6748V72.8159C231.678 72.91 232.323 73.2171 232.793 73.7373C233.269 74.2575 233.507 74.916 233.507 75.7129C233.507 76.7422 233.075 77.5972 232.212 78.2778C231.354 78.9585 230.275 79.2988 228.975 79.2988C227.685 79.2988 226.634 78.9696 225.82 78.311C225.012 77.6525 224.581 76.7754 224.525 75.6797H226.576C226.62 76.2331 226.861 76.6758 227.298 77.0078C227.735 77.3343 228.299 77.4976 228.991 77.4976C229.677 77.4976 230.236 77.3205 230.668 76.9663C231.105 76.6066 231.324 76.1445 231.324 75.5801C231.324 74.9935 231.111 74.5314 230.685 74.1938C230.258 73.8563 229.677 73.6875 228.941 73.6875H227.439Z" fill="#000"/>
<path d="M264.087 73V70.7671H258.235V68.8579C259.209 67.0649 260.836 64.453 263.116 61.022H266.138V68.9575H267.756V70.7671H266.138V73H264.087ZM260.219 68.8828V69.0073H264.121V62.7651H264.004C262.709 64.6799 261.448 66.7191 260.219 68.8828Z" fill="#000"/>
</svg>
