<svg width="345" height="345" viewBox="0 0 345 345" fill="none" xmlns="http://www.w3.org/2000/svg">
<path d="M97.1211 159.978V150.158H96.98L94 152.25V150.191L97.1294 148H99.2627V159.978H97.1211Z" fill="#000"/>
<path fill-rule="evenodd" clip-rule="evenodd" d="M215.5 143H93V141H217.5V207.586L222.157 202.929C222.547 202.538 223.181 202.538 223.571 202.929C223.962 203.319 223.962 203.953 223.571 204.343L217.207 210.707C216.817 211.098 216.183 211.098 215.793 210.707L209.429 204.343C209.038 203.953 209.038 203.319 209.429 202.929C209.819 202.538 210.453 202.538 210.843 202.929L215.5 207.586V143Z" fill="#000"/>
<path d="M103.283 210.525C103.283 209.407 103.671 208.494 104.445 207.786C105.226 207.077 106.23 206.723 107.458 206.723C108.643 206.723 109.617 207.047 110.38 207.694C111.15 208.342 111.534 209.166 111.534 210.168C111.534 210.81 111.34 211.446 110.953 212.077C110.566 212.702 109.863 213.519 108.845 214.526L106.338 217.041V217.182H111.717V219H103.399V217.514L107.392 213.43C108.211 212.6 108.756 211.978 109.027 211.562C109.299 211.142 109.434 210.721 109.434 210.301C109.434 209.775 109.24 209.341 108.853 208.998C108.471 208.654 107.984 208.483 107.392 208.483C106.767 208.483 106.26 208.671 105.873 209.047C105.486 209.424 105.292 209.916 105.292 210.525V210.558H103.283V210.525Z" fill="#000"/>
<path fill-rule="evenodd" clip-rule="evenodd" d="M186.343 218.929L192.707 225.293C193.098 225.684 193.098 226.317 192.707 226.707L186.343 233.071C185.953 233.462 185.319 233.462 184.929 233.071C184.538 232.681 184.538 232.048 184.929 231.657L189.586 227H97V225H189.586L184.929 220.343C184.538 219.953 184.538 219.32 184.929 218.929C185.319 218.539 185.953 218.539 186.343 218.929Z" fill="#000"/>
<path d="M224.48 76.4998C229.76 83.9799 237.9 97.6199 242.3 105.98L229.98 111.26C225.58 102.24 217.88 89.2599 212.38 81.5598L224.48 76.4998ZM252.42 70.3398C257.7 77.8198 265.84 90.7998 270.46 99.3799L258.14 104.66C253.3 95.6398 246.04 82.8798 240.1 75.3998L252.42 70.3398ZM96.4401 113.9C103.7 114.56 113.38 115.22 120.42 115.22H228.88C234.16 115.22 240.76 115 245.16 114.78C244.94 119.62 244.72 126.66 244.72 131.72V245.46C244.72 253.16 245.16 263.28 245.38 266.58H225.58C225.8 263.28 226.02 255.14 226.02 247.22V132.6H120.64C112.5 132.6 101.72 133.04 96.4401 133.48V113.9ZM93.5801 235.34C99.3001 235.78 108.98 236.44 118 236.44H235.92V254.48H118.66C109.64 254.48 99.5201 254.7 93.5801 255.36V235.34Z" fill="#f00"/>
<path d="M228.439 68.6875V67.0273H229.9C230.509 67.0273 231.004 66.8613 231.386 66.5293C231.768 66.1917 231.958 65.7546 231.958 65.2178C231.958 64.6865 231.77 64.2632 231.394 63.9478C231.023 63.6268 230.525 63.4663 229.9 63.4663C229.28 63.4663 228.777 63.6296 228.389 63.9561C228.007 64.2826 227.797 64.728 227.758 65.2925H225.758C225.813 64.1912 226.217 63.3224 226.97 62.686C227.722 62.0441 228.721 61.7231 229.966 61.7231C231.128 61.7231 232.094 62.0275 232.863 62.6362C233.638 63.2394 234.025 64.0003 234.025 64.9189C234.025 65.6217 233.829 66.2222 233.436 66.7202C233.049 67.2183 232.523 67.5365 231.859 67.6748V67.8159C232.678 67.91 233.323 68.2171 233.793 68.7373C234.269 69.2575 234.507 69.916 234.507 70.7129C234.507 71.7422 234.075 72.5972 233.212 73.2778C232.354 73.9585 231.275 74.2988 229.975 74.2988C228.685 74.2988 227.634 73.9696 226.82 73.311C226.012 72.6525 225.581 71.7754 225.525 70.6797H227.576C227.62 71.2331 227.861 71.6758 228.298 72.0078C228.735 72.3343 229.299 72.4976 229.991 72.4976C230.677 72.4976 231.236 72.3205 231.668 71.9663C232.105 71.6066 232.324 71.1445 232.324 70.5801C232.324 69.9935 232.111 69.5314 231.685 69.1938C231.258 68.8563 230.677 68.6875 229.941 68.6875H228.439Z" fill="#000"/>
<path d="M261.086 69V66.7671H255.234V64.8579C256.208 63.0649 257.835 60.453 260.115 57.022H263.137V64.9575H264.755V66.7671H263.137V69H261.086ZM257.218 64.8828V65.0073H261.12V58.7651H261.003C259.708 60.6799 258.447 62.7191 257.218 64.8828Z" fill="#000"/>
</svg>
