<svg width="345" height="345" viewBox="0 0 345 345" fill="none" xmlns="http://www.w3.org/2000/svg">
<path d="M237.12 97.36C241.3 105.28 247.02 118.92 250.1 127.72L239.1 131.46C236.02 122.22 230.96 109.02 226.56 100.66L237.12 97.36ZM259.12 90.54C263.3 98.68 269.02 112.1 272.32 120.9L261.32 124.64C257.8 114.74 252.96 102.2 248.34 93.84L259.12 90.54ZM216.22 167.98C216.22 226.5 203.68 256.64 153.52 279.08L138.56 265.22C178.6 249.82 198.62 230.9 198.62 169.3V115.84C198.62 107.26 197.96 100 197.52 97.8H217.32C217.1 100 216.22 107.26 216.22 115.84V167.98ZM137.02 99.34C136.8 101.32 135.92 107.48 135.92 115.18V195.92C135.92 203.84 136.58 213.52 136.8 215.72H117.44C117.66 213.52 118.32 204.28 118.32 195.92V115.18C118.32 110.56 118.1 104.18 117.44 99.34H137.02ZM72.5596 142.02C74.5396 142.24 85.3196 143.34 94.7796 143.34H240.42C250.1 143.34 257.58 142.68 260.66 142.24V160.94C258.24 160.5 250.1 160.28 240.42 160.28H94.7796C85.0996 160.28 75.1996 160.72 72.5596 160.94V142.02Z" fill="#f00"/>
<path d="M237.087 93V90.7671H231.235V88.8579C232.209 87.0649 233.836 84.453 236.116 81.022H239.138V88.9575H240.756V90.7671H239.138V93H237.087ZM233.219 88.8828V89.0073H237.121V82.7651H237.004C235.709 84.6799 234.448 86.7191 233.219 88.8828Z" fill="#000"/>
<path d="M262.066 87.2988C260.832 87.2988 259.82 86.9613 259.028 86.2861C258.237 85.611 257.816 84.7422 257.767 83.6797H259.775C259.842 84.2275 260.088 84.6702 260.514 85.0078C260.94 85.3454 261.463 85.5142 262.083 85.5142C262.786 85.5142 263.353 85.2983 263.785 84.8667C264.222 84.4295 264.44 83.854 264.44 83.1401C264.44 82.4263 264.222 81.848 263.785 81.4053C263.353 80.957 262.791 80.7329 262.1 80.7329C261.613 80.7329 261.178 80.8353 260.796 81.04C260.42 81.2448 260.121 81.5353 259.9 81.9116H257.958L258.58 75.022H265.793V76.8315H260.24L259.95 80.1934H260.091C260.644 79.4463 261.488 79.0728 262.623 79.0728C263.757 79.0728 264.687 79.4491 265.412 80.2017C266.142 80.9543 266.507 81.9172 266.507 83.0903C266.507 84.341 266.098 85.3564 265.279 86.1367C264.465 86.9115 263.395 87.2988 262.066 87.2988Z" fill="#000"/>
<path d="M93 96.8018C93 95.6839 93.3874 94.7708 94.1621 94.0625C94.9424 93.3542 95.9468 93 97.1753 93C98.3595 93 99.3335 93.3237 100.097 93.9712C100.866 94.6187 101.251 95.4432 101.251 96.4448C101.251 97.0868 101.057 97.7231 100.67 98.354C100.283 98.9793 99.5798 99.7956 98.5615 100.803L96.0547 103.318V103.459H101.434V105.277H93.1162V103.791L97.1089 99.707C97.9279 98.877 98.473 98.2544 98.7441 97.8394C99.0153 97.4188 99.1509 96.9982 99.1509 96.5776C99.1509 96.0519 98.9572 95.6175 98.5698 95.2744C98.188 94.9313 97.701 94.7598 97.1089 94.7598C96.4836 94.7598 95.9772 94.9479 95.5898 95.3242C95.2025 95.7005 95.0088 96.193 95.0088 96.8018V96.835H93V96.8018Z" fill="#000"/>
<path d="M175.914 98.9644V97.3042H177.375C177.983 97.3042 178.479 97.1382 178.86 96.8062C179.242 96.4686 179.433 96.0314 179.433 95.4946C179.433 94.9634 179.245 94.54 178.869 94.2246C178.498 93.9036 178 93.7432 177.375 93.7432C176.755 93.7432 176.251 93.9064 175.864 94.2329C175.482 94.5594 175.272 95.0049 175.233 95.5693H173.232C173.288 94.4681 173.692 93.5993 174.444 92.9629C175.197 92.321 176.196 92 177.441 92C178.603 92 179.569 92.3044 180.338 92.9131C181.113 93.5163 181.5 94.2772 181.5 95.1958C181.5 95.8986 181.304 96.499 180.911 96.9971C180.523 97.4951 179.998 97.8133 179.333 97.9517V98.0928C180.153 98.1868 180.797 98.494 181.268 99.0142C181.743 99.5343 181.981 100.193 181.981 100.99C181.981 102.019 181.55 102.874 180.687 103.555C179.829 104.235 178.75 104.576 177.449 104.576C176.16 104.576 175.108 104.246 174.295 103.588C173.487 102.929 173.055 102.052 173 100.957H175.05C175.095 101.51 175.335 101.953 175.772 102.285C176.21 102.611 176.774 102.774 177.466 102.774C178.152 102.774 178.711 102.597 179.143 102.243C179.58 101.883 179.798 101.421 179.798 100.857C179.798 100.27 179.585 99.8083 179.159 99.4707C178.733 99.1331 178.152 98.9644 177.416 98.9644H175.914Z" fill="#000"/>
<path d="M72.1211 191.978V182.158H71.98L69 184.25V182.191L72.1294 180H74.2627V191.978H72.1211Z" fill="#000"/>
<path fill-rule="evenodd" clip-rule="evenodd" d="M106.343 165.293L112.707 171.657C113.098 172.047 113.098 172.681 112.707 173.071L106.343 179.435C105.953 179.826 105.319 179.826 104.929 179.435C104.538 179.045 104.538 178.411 104.929 178.021L109.586 173.364L69 173.364L69 171.364L109.586 171.364L104.929 166.707C104.538 166.317 104.538 165.683 104.929 165.293C105.319 164.902 105.953 164.902 106.343 165.293Z" fill="#000"/>
<path fill-rule="evenodd" clip-rule="evenodd" d="M115.435 131.343L109.071 137.707C108.68 138.098 108.047 138.098 107.656 137.707L101.293 131.343C100.902 130.953 100.902 130.319 101.293 129.929C101.683 129.538 102.316 129.538 102.707 129.929L107.364 134.586L107.364 94L109.364 94L109.364 134.586L114.02 129.929C114.411 129.538 115.044 129.538 115.435 129.929C115.825 130.319 115.825 130.953 115.435 131.343Z" fill="#000"/>
<path fill-rule="evenodd" clip-rule="evenodd" d="M194.435 131.62L188.071 137.984C187.68 138.374 187.047 138.374 186.656 137.984L180.293 131.62C179.902 131.229 179.902 130.596 180.293 130.206C180.683 129.815 181.316 129.815 181.707 130.206L186.364 134.863L186.364 94.2769L188.364 94.2769L188.364 134.863L193.02 130.206C193.411 129.815 194.044 129.815 194.435 130.206C194.825 130.596 194.825 131.229 194.435 131.62Z" fill="#000"/>
</svg>
