<svg width="345" height="345" viewBox="0 0 345 345" fill="none" xmlns="http://www.w3.org/2000/svg">
<path d="M219.52 100.88C225.02 109.02 234.92 124.64 239.98 135.2L227.44 140.92C221.94 129.26 214.46 116.06 207.2 106.16L219.52 100.88ZM248.12 90.3201C254.06 98.0201 263.96 113.86 269.24 123.98L256.7 129.7C250.98 118.26 243.28 105.5 236.02 95.8201L248.12 90.3201ZM125.36 97.5801C138.34 104.84 163.64 121.78 173.32 128.82L162.76 143.78C152.42 135.86 128.44 119.8 115.46 112.54L125.36 97.5801ZM92.36 254.88C116.56 250.7 143.84 242.12 166.28 229.36C202.8 208.46 231.62 179.86 249.44 148.84L260.22 166.88C241.08 196.36 210.72 224.96 175.52 245.42C153.3 258.4 122.94 268.74 102.7 272.92L92.36 254.88ZM92.36 147.08C105.34 154.12 131.08 169.96 140.54 176.78L130.42 192.18C119.64 184.48 95.88 169.08 82.46 162.26L92.36 147.08Z" fill="#f00"/>
<path d="M223.087 95V92.7671H217.235V90.8579C218.209 89.0649 219.836 86.453 222.116 83.022H225.138V90.9575H226.756V92.7671H225.138V95H223.087ZM219.219 90.8828V91.0073H223.121V84.7651H223.004C221.709 86.6799 220.448 88.7191 219.219 90.8828Z" fill="#000"/>
<path d="M254.066 84.2988C252.832 84.2988 251.82 83.9613 251.028 83.2861C250.237 82.611 249.816 81.7422 249.767 80.6797H251.775C251.842 81.2275 252.088 81.6702 252.514 82.0078C252.94 82.3454 253.463 82.5142 254.083 82.5142C254.786 82.5142 255.353 82.2983 255.785 81.8667C256.222 81.4295 256.44 80.854 256.44 80.1401C256.44 79.4263 256.222 78.848 255.785 78.4053C255.353 77.957 254.791 77.7329 254.1 77.7329C253.613 77.7329 253.178 77.8353 252.796 78.04C252.42 78.2448 252.121 78.5353 251.9 78.9116H249.958L250.58 72.022H257.793V73.8315H252.24L251.95 77.1934H252.091C252.644 76.4463 253.488 76.0728 254.623 76.0728C255.757 76.0728 256.687 76.4491 257.412 77.2017C258.142 77.9543 258.507 78.9172 258.507 80.0903C258.507 81.341 258.098 82.3564 257.279 83.1367C256.465 83.9115 255.395 84.2988 254.066 84.2988Z" fill="#000"/>
<path d="M150.325 88.978V79.1582H150.184L147.204 81.25V79.1914L150.333 77H152.467V88.978H150.325Z" fill="#000"/>
<path d="M127.339 294.666V293.005H128.8C129.409 293.005 129.904 292.839 130.286 292.507C130.668 292.17 130.859 291.733 130.859 291.196C130.859 290.665 130.671 290.241 130.294 289.926C129.924 289.605 129.426 289.444 128.8 289.444C128.181 289.444 127.677 289.608 127.29 289.934C126.908 290.261 126.697 290.706 126.659 291.271H124.658C124.714 290.169 125.118 289.3 125.87 288.664C126.623 288.022 127.622 287.701 128.867 287.701C130.029 287.701 130.994 288.006 131.764 288.614C132.538 289.217 132.926 289.978 132.926 290.897C132.926 291.6 132.729 292.2 132.336 292.698C131.949 293.196 131.423 293.514 130.759 293.653V293.794C131.578 293.888 132.223 294.195 132.693 294.715C133.169 295.236 133.407 295.894 133.407 296.691C133.407 297.72 132.976 298.575 132.112 299.256C131.255 299.937 130.175 300.277 128.875 300.277C127.586 300.277 126.534 299.948 125.721 299.289C124.913 298.631 124.481 297.753 124.426 296.658H126.476C126.52 297.211 126.761 297.654 127.198 297.986C127.635 298.312 128.2 298.476 128.892 298.476C129.578 298.476 130.137 298.299 130.568 297.944C131.006 297.585 131.224 297.123 131.224 296.558C131.224 295.972 131.011 295.509 130.585 295.172C130.159 294.834 129.578 294.666 128.842 294.666H127.339Z" fill="#000"/>
<path d="M106.184 131.503C106.184 130.385 106.571 129.472 107.346 128.764C108.126 128.055 109.13 127.701 110.359 127.701C111.543 127.701 112.517 128.025 113.281 128.672C114.05 129.32 114.435 130.144 114.435 131.146C114.435 131.788 114.241 132.424 113.854 133.055C113.466 133.681 112.763 134.497 111.745 135.504L109.238 138.019V138.16H114.617V139.978H106.3V138.492L110.292 134.408C111.111 133.578 111.657 132.956 111.928 132.541C112.199 132.12 112.334 131.699 112.334 131.279C112.334 130.753 112.141 130.319 111.753 129.976C111.372 129.632 110.885 129.461 110.292 129.461C109.667 129.461 109.161 129.649 108.773 130.025C108.386 130.402 108.192 130.894 108.192 131.503V131.536H106.184V131.503Z" fill="#000"/>
<path fill-rule="evenodd" clip-rule="evenodd" d="M170.189 102.316L172.267 111.073C172.394 111.61 172.062 112.149 171.525 112.277L162.768 114.354C162.231 114.482 161.692 114.15 161.564 113.612C161.437 113.075 161.769 112.536 162.306 112.408L168.714 110.888L134.166 89.59L135.215 87.8875L169.764 109.186L168.243 102.778C168.116 102.24 168.448 101.701 168.985 101.574C169.523 101.446 170.062 101.779 170.189 102.316Z" fill="#000"/>
<path fill-rule="evenodd" clip-rule="evenodd" d="M133.399 153.555L135.477 162.312C135.604 162.849 135.272 163.388 134.735 163.516L125.978 165.594C125.441 165.721 124.902 165.389 124.774 164.852C124.647 164.314 124.979 163.775 125.516 163.648L131.924 162.127L97.3755 140.829L98.4251 139.127L132.974 160.425L131.453 154.017C131.326 153.48 131.658 152.941 132.195 152.813C132.733 152.686 133.272 153.018 133.399 153.555Z" fill="#000"/>
<path fill-rule="evenodd" clip-rule="evenodd" d="M199.997 244.983C200.546 245.036 200.949 245.525 200.896 246.074L200.029 255.033C199.975 255.582 199.487 255.985 198.937 255.932C198.387 255.878 197.985 255.39 198.038 254.84L198.675 248.261C173.558 268.368 146.976 278.083 117.596 283.959L117.204 281.997C146.356 276.167 172.596 266.562 197.377 246.739L190.846 246.107C190.296 246.053 189.894 245.565 189.947 245.015C190 244.465 190.489 244.063 191.038 244.116L199.997 244.983Z" fill="#000"/>
</svg>
