<svg width="345" height="345" viewBox="0 0 345 345" fill="none" xmlns="http://www.w3.org/2000/svg">
<path d="M89.4248 121V111.18H89.2837L86.3037 113.272V111.213L89.4331 109.022H91.5664V121H89.4248Z" fill="#000"/>
<path d="M83.2832 178.525C83.2832 177.407 83.6706 176.494 84.4453 175.786C85.2256 175.077 86.23 174.723 87.4585 174.723C88.6427 174.723 89.6167 175.047 90.3804 175.694C91.1496 176.342 91.5342 177.166 91.5342 178.168C91.5342 178.81 91.3405 179.446 90.9531 180.077C90.5658 180.702 89.863 181.519 88.8447 182.526L86.3379 185.041V185.182H91.7168V187H83.3994V185.514L87.3921 181.43C88.2111 180.6 88.7562 179.978 89.0273 179.562C89.2985 179.142 89.4341 178.721 89.4341 178.301C89.4341 177.775 89.2404 177.341 88.853 176.998C88.4712 176.654 87.9842 176.483 87.3921 176.483C86.7668 176.483 86.2604 176.671 85.873 177.047C85.4857 177.424 85.292 177.916 85.292 178.525V178.558H83.2832V178.525Z" fill="#000"/>
<path d="M185.439 79.6875V78.0273H186.9C187.509 78.0273 188.004 77.8613 188.386 77.5293C188.768 77.1917 188.958 76.7546 188.958 76.2178C188.958 75.6865 188.77 75.2632 188.394 74.9478C188.023 74.6268 187.525 74.4663 186.9 74.4663C186.28 74.4663 185.777 74.6296 185.389 74.9561C185.007 75.2826 184.797 75.728 184.758 76.2925H182.758C182.813 75.1912 183.217 74.3224 183.97 73.686C184.722 73.0441 185.721 72.7231 186.966 72.7231C188.128 72.7231 189.094 73.0275 189.863 73.6362C190.638 74.2394 191.025 75.0003 191.025 75.9189C191.025 76.6217 190.829 77.2222 190.436 77.7202C190.049 78.2183 189.523 78.5365 188.859 78.6748V78.8159C189.678 78.91 190.323 79.2171 190.793 79.7373C191.269 80.2575 191.507 80.916 191.507 81.7129C191.507 82.7422 191.075 83.5972 190.212 84.2778C189.354 84.9585 188.275 85.2988 186.975 85.2988C185.685 85.2988 184.634 84.9696 183.82 84.311C183.012 83.6525 182.581 82.7754 182.525 81.6797H184.576C184.62 82.2331 184.861 82.6758 185.298 83.0078C185.735 83.3343 186.299 83.4976 186.991 83.4976C187.677 83.4976 188.236 83.3205 188.668 82.9663C189.105 82.6066 189.324 82.1445 189.324 81.5801C189.324 80.9935 189.111 80.5314 188.685 80.1938C188.258 79.8563 187.677 79.6875 186.941 79.6875H185.439Z" fill="#000"/>
<path fill-rule="evenodd" clip-rule="evenodd" d="M132.49 114.952L139.811 120.187C140.26 120.508 140.364 121.133 140.043 121.582L134.808 128.903C134.486 129.352 133.862 129.456 133.413 129.134C132.963 128.813 132.859 128.189 133.181 127.739L137.011 122.382L83.1637 131.328L82.8359 129.355L136.684 120.409L131.327 116.579C130.877 116.257 130.774 115.633 131.095 115.184C131.416 114.734 132.041 114.631 132.49 114.952Z" fill="#000"/>
<path fill-rule="evenodd" clip-rule="evenodd" d="M132.49 180.952L139.811 186.187C140.26 186.508 140.364 187.133 140.043 187.582L134.808 194.903C134.486 195.352 133.862 195.456 133.413 195.134C132.963 194.813 132.859 194.189 133.181 193.739L137.011 188.382L83.1637 197.328L82.8359 195.355L136.684 186.409L131.327 182.579C130.877 182.257 130.774 181.633 131.095 181.184C131.416 180.734 132.041 180.631 132.49 180.952Z" fill="#000"/>
<path fill-rule="evenodd" clip-rule="evenodd" d="M189.299 109.741L184.293 117.221C183.986 117.679 183.365 117.803 182.906 117.495L175.426 112.489C174.967 112.182 174.844 111.561 175.152 111.102C175.459 110.643 176.08 110.52 176.539 110.827L182.012 114.49L175.019 79.1943L176.981 78.8056L183.974 114.102L187.637 108.629C187.944 108.17 188.565 108.047 189.024 108.354C189.483 108.661 189.606 109.282 189.299 109.741Z" fill="#000"/>
<path d="M229.22 83.3601C234.72 91.2801 242.64 104.7 247.04 113.5L235.16 118.78C230.76 109.98 223.5 96.7801 217.56 88.4201L229.22 83.3601ZM253.2 74.5601C259.14 82.7001 267.5 96.3401 271.68 104.48L259.8 109.76C255.18 100.3 247.92 87.7601 241.76 79.6201L253.2 74.5601ZM146.06 110.42C144.96 104.7 143.42 99.8601 141.88 95.2401L161.68 91.9401C161.9 96.1201 163 102.28 163.66 107.12C165.2 117.02 189.4 237.58 192.48 252.1C194.02 258.48 195.78 265.96 197.76 272.12L177.74 275.86C176.64 268.38 175.98 261.78 174.44 255.18C172.02 241.54 148.48 121.86 146.06 110.42ZM84.0204 142.1C89.5204 141.88 95.2404 141.44 102.28 140.56C122.08 138.36 198.2 126.26 219.1 122.3C225.48 120.98 230.98 119.66 234.72 118.56L238.46 137.04C235.16 137.48 228.34 138.36 222.62 139.24C199.74 142.98 124.72 154.86 105.58 158.16C99.4204 159.26 94.3604 160.36 87.7604 161.68L84.0204 142.1ZM83.3604 205.68C88.4204 205.46 97.0004 204.58 102.72 203.7C126.04 200.62 208.1 186.98 234.28 182.14C242.86 180.6 249.02 179.28 253.86 177.74L257.38 196.22C252.76 196.66 245.72 197.98 237.58 199.3C208.32 203.92 129.12 216.68 106.68 220.86C98.1004 222.18 92.1604 223.5 87.3204 224.82L83.3604 205.68Z" fill="#f00"/>
<path d="M229.087 79V76.7671H223.235V74.8579C224.209 73.0649 225.836 70.453 228.116 67.022H231.138V74.9575H232.756V76.7671H231.138V79H229.087ZM225.219 74.8828V75.0073H229.121V68.7651H229.004C227.709 70.6799 226.448 72.7191 225.219 74.8828Z" fill="#000"/>
<path d="M262.066 73.2988C260.832 73.2988 259.82 72.9613 259.028 72.2861C258.237 71.611 257.816 70.7422 257.767 69.6797H259.775C259.842 70.2275 260.088 70.6702 260.514 71.0078C260.94 71.3454 261.463 71.5142 262.083 71.5142C262.786 71.5142 263.353 71.2983 263.785 70.8667C264.222 70.4295 264.44 69.854 264.44 69.1401C264.44 68.4263 264.222 67.848 263.785 67.4053C263.353 66.957 262.791 66.7329 262.1 66.7329C261.613 66.7329 261.178 66.8353 260.796 67.04C260.42 67.2448 260.121 67.5353 259.9 67.9116H257.958L258.58 61.022H265.793V62.8315H260.24L259.95 66.1934H260.091C260.644 65.4463 261.488 65.0728 262.623 65.0728C263.757 65.0728 264.687 65.4491 265.412 66.2017C266.142 66.9543 266.507 67.9172 266.507 69.0903C266.507 70.341 266.098 71.3564 265.279 72.1367C264.465 72.9115 263.395 73.2988 262.066 73.2988Z" fill="#000"/>
</svg>
