<svg width="345" height="345" viewBox="0 0 345 345" fill="none" xmlns="http://www.w3.org/2000/svg">
<path d="M72.1201 208.9C77.6201 204.72 82.2401 200.54 87.9601 194.38C99.8401 182.5 118.1 157.42 131.3 141.8C144.06 126.84 155.5 124.64 170.02 139.6C183.22 153.02 200.16 174.8 214.24 189.76C227.44 204.5 249.44 227.6 269.24 245.2L254.94 261.04C238.44 245.42 218.64 222.54 203.46 205.38C189.16 189.1 172.44 167.98 162.1 156.76C152.86 146.42 148.68 148.18 140.98 157.42C130.64 170.18 112.6 194.38 101.16 208.02C96.7601 213.74 91.7001 220.78 88.4001 225.62L72.1201 208.9ZM214.24 116.5C219.74 124.86 229.86 141.14 235.14 151.7L221.94 157.64C216.66 145.98 208.96 132.12 201.48 122L214.24 116.5ZM242.62 105.5C248.34 113.2 258.9 129.7 264.18 139.82L251.42 145.98C245.48 134.54 237.56 120.9 230.3 111.22L242.62 105.5Z" fill="#f00"/>
<path d="M216.283 104.525C216.283 103.407 216.671 102.494 217.445 101.786C218.226 101.077 219.23 100.723 220.458 100.723C221.643 100.723 222.617 101.047 223.38 101.694C224.15 102.342 224.534 103.166 224.534 104.168C224.534 104.81 224.34 105.446 223.953 106.077C223.566 106.702 222.863 107.519 221.845 108.526L219.338 111.041V111.182H224.717V113H216.399V111.514L220.392 107.43C221.211 106.6 221.756 105.978 222.027 105.562C222.299 105.142 222.434 104.721 222.434 104.301C222.434 103.775 222.24 103.341 221.853 102.998C221.471 102.654 220.984 102.483 220.392 102.483C219.767 102.483 219.26 102.671 218.873 103.047C218.486 103.424 218.292 103.916 218.292 104.525V104.558H216.283V104.525Z" fill="#000"/>
<path d="M246.439 96.6875V95.0273H247.9C248.509 95.0273 249.004 94.8613 249.386 94.5293C249.768 94.1917 249.958 93.7546 249.958 93.2178C249.958 92.6865 249.77 92.2632 249.394 91.9478C249.023 91.6268 248.525 91.4663 247.9 91.4663C247.28 91.4663 246.777 91.6296 246.389 91.9561C246.007 92.2826 245.797 92.728 245.758 93.2925H243.758C243.813 92.1912 244.217 91.3224 244.97 90.686C245.722 90.0441 246.721 89.7231 247.966 89.7231C249.128 89.7231 250.094 90.0275 250.863 90.6362C251.638 91.2394 252.025 92.0003 252.025 92.9189C252.025 93.6217 251.829 94.2222 251.436 94.7202C251.049 95.2183 250.523 95.5365 249.859 95.6748V95.8159C250.678 95.91 251.323 96.2171 251.793 96.7373C252.269 97.2575 252.507 97.916 252.507 98.7129C252.507 99.7422 252.075 100.597 251.212 101.278C250.354 101.958 249.275 102.299 247.975 102.299C246.685 102.299 245.634 101.97 244.82 101.311C244.012 100.653 243.581 99.7754 243.525 98.6797H245.576C245.62 99.2331 245.861 99.6758 246.298 100.008C246.735 100.334 247.299 100.498 247.991 100.498C248.677 100.498 249.236 100.32 249.668 99.9663C250.105 99.6066 250.324 99.1445 250.324 98.5801C250.324 97.9935 250.111 97.5314 249.685 97.1938C249.258 96.8563 248.677 96.6875 247.941 96.6875H246.439Z" fill="#000"/>
<path d="M80.4248 180V170.18H80.2837L77.3037 172.272V170.213L80.4331 168.022H82.5664V180H80.4248Z" fill="#000"/>
<path fill-rule="evenodd" clip-rule="evenodd" d="M106.95 144.314L115.855 143.01C116.402 142.93 116.909 143.309 116.989 143.855L118.293 152.76C118.373 153.307 117.994 153.815 117.448 153.895C116.901 153.975 116.394 153.596 116.314 153.05L115.36 146.533L81.802 191.597L80.1979 190.403L113.756 145.339L107.24 146.293C106.693 146.373 106.185 145.994 106.105 145.448C106.025 144.901 106.404 144.394 106.95 144.314Z" fill="#000"/>
</svg>
