<svg width="345" height="345" viewBox="0 0 345 345" fill="none" xmlns="http://www.w3.org/2000/svg">
<path d="M228.98 126.18C234.04 133.66 241.08 144.88 245.92 154.56L234.48 159.84C229.42 149.06 224.58 140.26 217.98 131.02L228.98 126.18ZM252.08 117.6C257.36 124.86 264.62 136.08 269.68 145.54L258.46 150.82C253.18 140.26 248.12 131.9 241.3 122.66L252.08 117.6ZM92.5799 114.96C109.08 115.84 142.74 114.74 166.5 111.66C186.52 108.8 212.48 103.52 223.26 98.8999L234.7 114.3C229.86 115.4 225.68 116.5 222.38 117.38C209.62 120.68 189.38 124.64 171.56 126.84C146.92 130.14 116.78 131.02 96.9799 131.24L92.5799 114.96ZM104.9 264.78C142.52 247.4 161 219.9 161 174.36C161 174.36 161 154.56 161 124.42L178.82 122.22C178.82 139.38 178.82 174.14 178.82 174.14C178.82 221 163.2 253.12 122.06 276.88L104.9 264.78ZM75.4199 167.32C80.2599 167.76 88.1799 168.2 94.7799 168.2C108.86 168.2 225.9 168.2 239.54 168.2C244.38 168.2 252.3 167.76 256.92 167.32V185.58C252.08 185.14 245.48 184.7 239.98 184.7C226.78 184.7 108.64 184.7 95.2199 184.7C88.1799 184.7 80.6999 185.14 75.4199 185.58V167.32Z" fill="#f00"/>
<path d="M237.087 129V126.767H231.235V124.858C232.209 123.065 233.836 120.453 236.116 117.022H239.138V124.958H240.756V126.767H239.138V129H237.087ZM233.219 124.883V125.007H237.121V118.765H237.004C235.709 120.68 234.448 122.719 233.219 124.883Z" fill="#000"/>
<path d="M258.066 118.299C256.832 118.299 255.82 117.961 255.028 117.286C254.237 116.611 253.816 115.742 253.767 114.68H255.775C255.842 115.228 256.088 115.67 256.514 116.008C256.94 116.345 257.463 116.514 258.083 116.514C258.786 116.514 259.353 116.298 259.785 115.867C260.222 115.43 260.44 114.854 260.44 114.14C260.44 113.426 260.222 112.848 259.785 112.405C259.353 111.957 258.791 111.733 258.1 111.733C257.613 111.733 257.178 111.835 256.796 112.04C256.42 112.245 256.121 112.535 255.9 112.912H253.958L254.58 106.022H261.793V107.832H256.24L255.95 111.193H256.091C256.644 110.446 257.488 110.073 258.623 110.073C259.757 110.073 260.687 110.449 261.412 111.202C262.142 111.954 262.507 112.917 262.507 114.09C262.507 115.341 262.098 116.356 261.279 117.137C260.465 117.911 259.395 118.299 258.066 118.299Z" fill="#000"/>
<path d="M196.426 82.978V73.1582H196.285L193.305 75.25V73.1914L196.434 71H198.567V82.978H196.426Z" fill="#000"/>
<path d="M196.439 201.666V200.005H197.9C198.509 200.005 199.004 199.839 199.386 199.507C199.768 199.17 199.958 198.733 199.958 198.196C199.958 197.665 199.77 197.241 199.394 196.926C199.023 196.605 198.525 196.444 197.9 196.444C197.28 196.444 196.777 196.608 196.389 196.934C196.007 197.261 195.797 197.706 195.758 198.271H193.758C193.813 197.169 194.217 196.3 194.97 195.664C195.722 195.022 196.721 194.701 197.966 194.701C199.128 194.701 200.094 195.006 200.863 195.614C201.638 196.217 202.025 196.978 202.025 197.897C202.025 198.6 201.829 199.2 201.436 199.698C201.049 200.196 200.523 200.514 199.859 200.653V200.794C200.678 200.888 201.323 201.195 201.793 201.715C202.269 202.236 202.507 202.894 202.507 203.691C202.507 204.72 202.075 205.575 201.212 206.256C200.354 206.937 199.275 207.277 197.975 207.277C196.685 207.277 195.634 206.948 194.82 206.289C194.012 205.631 193.581 204.753 193.525 203.658H195.576C195.62 204.211 195.861 204.654 196.298 204.986C196.735 205.312 197.299 205.476 197.991 205.476C198.677 205.476 199.236 205.299 199.668 204.944C200.105 204.585 200.324 204.123 200.324 203.558C200.324 202.972 200.111 202.509 199.685 202.172C199.258 201.834 198.677 201.666 197.941 201.666H196.439Z" fill="#000"/>
<path d="M72.2832 144.503C72.2832 143.385 72.6706 142.472 73.4453 141.764C74.2256 141.055 75.23 140.701 76.4585 140.701C77.6427 140.701 78.6167 141.025 79.3804 141.672C80.1496 142.32 80.5342 143.144 80.5342 144.146C80.5342 144.788 80.3405 145.424 79.9531 146.055C79.5658 146.681 78.863 147.497 77.8447 148.504L75.3379 151.019V151.16H80.7168V152.978H72.3994V151.492L76.3921 147.408C77.2111 146.578 77.7562 145.956 78.0273 145.541C78.2985 145.12 78.4341 144.699 78.4341 144.279C78.4341 143.753 78.2404 143.319 77.853 142.976C77.4712 142.632 76.9842 142.461 76.3921 142.461C75.7668 142.461 75.2604 142.649 74.873 143.025C74.4857 143.402 74.292 143.894 74.292 144.503V144.536H72.2832V144.503Z" fill="#000"/>
<path fill-rule="evenodd" clip-rule="evenodd" d="M141.343 150.907L147.707 157.271C148.098 157.661 148.098 158.295 147.707 158.685L141.343 165.049C140.953 165.44 140.319 165.44 139.929 165.049C139.538 164.659 139.538 164.025 139.929 163.635L144.586 158.978L67 158.978L67 156.978L144.586 156.978L139.929 152.321C139.538 151.931 139.538 151.297 139.929 150.907C140.319 150.516 140.953 150.516 141.343 150.907Z" fill="#000"/>
<path fill-rule="evenodd" clip-rule="evenodd" d="M100.421 103.471C137.83 103.263 180.891 98.2362 208.12 87.053L208.88 88.903C181.29 100.234 137.912 105.265 100.408 105.471L105.071 110.135C105.462 110.525 105.462 111.159 105.071 111.549C104.681 111.94 104.047 111.94 103.657 111.549L97.2929 105.185C96.9024 104.795 96.9024 104.161 97.2929 103.771L103.657 97.4069C104.047 97.0164 104.681 97.0164 105.071 97.4069C105.462 97.7975 105.462 98.4306 105.071 98.8211L100.421 103.471Z" fill="#000"/>
<path fill-rule="evenodd" clip-rule="evenodd" d="M178.518 236.024C183.644 223.981 185.757 210.607 187.507 195.364L189.494 195.592C187.743 210.849 185.607 224.475 180.358 236.807C175.339 248.598 167.493 259.166 154.509 268.882L161.042 269.971C161.587 270.062 161.955 270.577 161.864 271.122C161.773 271.667 161.258 272.035 160.713 271.944L151.836 270.464C151.291 270.374 150.923 269.858 151.014 269.314L152.493 260.436C152.584 259.891 153.099 259.523 153.644 259.614C154.189 259.705 154.557 260.22 154.466 260.765L153.39 267.222C166.055 257.725 173.652 247.454 178.518 236.024Z" fill="#000"/>
</svg>
