<svg width="345" height="345" viewBox="0 0 345 345" fill="none" xmlns="http://www.w3.org/2000/svg">
<path d="M144.28 137.4C156.82 138.72 168.7 139.38 181.68 139.38C208.08 139.38 235.14 137.18 257.36 132.78V149.72C234.04 153.68 207.42 155.44 181.24 155.44C168.7 155.44 157.26 154.78 144.5 153.9L144.28 137.4ZM221.28 98.02C220.62 102.42 220.18 107.04 219.96 111.22C219.52 119.36 219.3 134.98 219.3 147.96C219.3 181.84 222.6 215.94 222.6 238.82C222.6 256.86 214.24 274.46 184.54 274.46C155.28 274.46 139 262.58 139 242.78C139 224.3 155.28 209.78 184.1 209.78C221.28 209.78 247.02 228.48 265.5 245.2L256.04 259.72C232.72 238.16 210.72 223.2 182.78 223.2C166.28 223.2 154.84 230.46 154.84 241.02C154.84 252.46 165.84 258.4 181.46 258.4C200.16 258.4 205.44 248.94 205.44 234.42C205.44 218.58 202.58 177.22 202.58 148.18C202.58 133.22 202.36 119.14 202.58 111.44C202.58 107.7 202.14 101.98 201.48 98.02H221.28ZM112.82 99.56C111.5 103.3 109.52 110.34 108.86 114.3C104.46 134.76 97.8595 178.32 97.8595 202.96C97.8595 213.74 98.5195 222.76 100.28 233.54C103.58 223.64 108.86 210.22 112.82 201.2L121.84 208.24C116.34 223.64 108.2 246.08 106 256.86C105.34 259.94 104.9 264.12 105.12 266.76C105.12 268.96 105.56 272.04 105.78 274.46L90.1595 275.78C85.9795 259.94 82.0195 235.74 82.0195 206.04C82.0195 173.7 89.2795 131.68 91.9195 113.42C92.7995 108.36 93.4595 102.64 93.4595 97.8L112.82 99.56ZM240.42 103.3C240.42 110.56 246.14 116.28 253.4 116.28C260.88 116.28 266.6 110.56 266.6 103.3C266.6 95.6 260.88 89.88 253.4 89.88C246.14 89.88 240.42 95.82 240.42 103.3ZM230.52 103.3C230.52 90.32 240.64 79.98 253.4 79.98C266.16 79.98 276.5 90.32 276.5 103.3C276.5 115.84 266.16 126.18 253.4 126.18C240.64 126.18 230.52 115.84 230.52 103.3Z" fill="#f00"/>
<path d="M275.087 79V76.7671H269.235V74.8579C270.209 73.0649 271.836 70.453 274.116 67.022H277.138V74.9575H278.756V76.7671H277.138V79H275.087ZM271.219 74.8828V75.0073H275.121V68.7651H275.004C273.709 70.6799 272.448 72.7191 271.219 74.8828Z" fill="#000"/>
<path d="M150.283 116.525C150.283 115.407 150.671 114.494 151.445 113.786C152.226 113.077 153.23 112.723 154.458 112.723C155.643 112.723 156.617 113.047 157.38 113.694C158.15 114.342 158.534 115.166 158.534 116.168C158.534 116.81 158.34 117.446 157.953 118.077C157.566 118.702 156.863 119.519 155.845 120.526L153.338 123.041V123.182H158.717V125H150.399V123.514L154.392 119.43C155.211 118.6 155.756 117.978 156.027 117.562C156.299 117.142 156.434 116.721 156.434 116.301C156.434 115.775 156.24 115.341 155.853 114.998C155.471 114.654 154.984 114.483 154.392 114.483C153.767 114.483 153.26 114.671 152.873 115.047C152.486 115.424 152.292 115.916 152.292 116.525V116.558H150.283V116.525Z" fill="#000"/>
<path d="M201.914 83.9644V82.3042H203.375C203.983 82.3042 204.479 82.1382 204.86 81.8062C205.242 81.4686 205.433 81.0314 205.433 80.4946C205.433 79.9634 205.245 79.54 204.869 79.2246C204.498 78.9036 204 78.7432 203.375 78.7432C202.755 78.7432 202.251 78.9064 201.864 79.2329C201.482 79.5594 201.272 80.0049 201.233 80.5693H199.232C199.288 79.4681 199.692 78.5993 200.444 77.9629C201.197 77.321 202.196 77 203.441 77C204.603 77 205.569 77.3044 206.338 77.9131C207.113 78.5163 207.5 79.2772 207.5 80.1958C207.5 80.8986 207.304 81.499 206.911 81.9971C206.523 82.4951 205.998 82.8133 205.333 82.9517V83.0928C206.153 83.1868 206.797 83.494 207.268 84.0142C207.743 84.5343 207.981 85.1929 207.981 85.9897C207.981 87.019 207.55 87.874 206.687 88.5547C205.829 89.2354 204.75 89.5757 203.449 89.5757C202.16 89.5757 201.108 89.2464 200.295 88.5879C199.487 87.9294 199.055 87.0522 199 85.9565H201.05C201.095 86.5099 201.335 86.9526 201.772 87.2847C202.21 87.6112 202.774 87.7744 203.466 87.7744C204.152 87.7744 204.711 87.5973 205.143 87.2432C205.58 86.8835 205.798 86.4214 205.798 85.8569C205.798 85.2703 205.585 84.8083 205.159 84.4707C204.733 84.1331 204.152 83.9644 203.416 83.9644H201.914Z" fill="#000"/>
<path d="M63.1211 110.978V101.158H62.98L60 103.25V101.191L63.1294 99H65.2627V110.978H63.1211Z" fill="#000"/>
<path fill-rule="evenodd" clip-rule="evenodd" d="M80.127 170.804L73.3538 176.731C72.9382 177.094 72.3064 177.052 71.9427 176.636L66.0162 169.863C65.6525 169.448 65.6946 168.816 66.1103 168.452C66.5259 168.088 67.1577 168.131 67.5214 168.546L71.8581 173.503L76.6975 100.911L78.6931 101.044L73.8537 173.636L78.81 169.299C79.2256 168.935 79.8574 168.977 80.2211 169.393C80.5848 169.809 80.5426 170.44 80.127 170.804Z" fill="#000"/>
<path fill-rule="evenodd" clip-rule="evenodd" d="M186.343 122.929L192.707 129.293C193.098 129.683 193.098 130.317 192.707 130.707L186.343 137.071C185.953 137.462 185.319 137.462 184.929 137.071C184.538 136.68 184.538 136.047 184.929 135.657L189.586 131L146 131L146 129L189.586 129L184.929 124.343C184.538 123.953 184.538 123.319 184.929 122.929C185.319 122.538 185.953 122.538 186.343 122.929Z" fill="#000"/>
<path fill-rule="evenodd" clip-rule="evenodd" d="M267.817 223.369L269.351 232.238C269.446 232.782 269.081 233.299 268.537 233.393L259.668 234.928C259.124 235.022 258.607 234.657 258.512 234.113C258.418 233.569 258.783 233.051 259.327 232.957L265.817 231.834L237.424 211.817L238.576 210.183L266.969 230.2L265.846 223.71C265.752 223.166 266.117 222.649 266.661 222.554C267.205 222.46 267.723 222.825 267.817 223.369Z" fill="#000"/>
<path fill-rule="evenodd" clip-rule="evenodd" d="M200.435 115.343L194.071 121.707C193.68 122.098 193.047 122.098 192.656 121.707L186.293 115.343C185.902 114.953 185.902 114.319 186.293 113.929C186.683 113.538 187.316 113.538 187.707 113.929L192.364 118.586L192.364 83L194.364 83L194.364 118.586L199.02 113.929C199.411 113.538 200.044 113.538 200.435 113.929C200.825 114.319 200.825 114.953 200.435 115.343Z" fill="#000"/>
<path fill-rule="evenodd" clip-rule="evenodd" d="M183.82 198.427C184.136 198.879 184.026 199.503 183.573 199.819L176.198 204.977C175.745 205.294 175.122 205.184 174.805 204.731C174.489 204.278 174.599 203.655 175.052 203.338L180.411 199.59C168.708 197.842 159.549 198.893 152.426 201.742C144.831 204.781 139.476 209.895 135.794 216.004C128.4 228.271 127.757 244.552 129.489 255.848L127.512 256.151C125.743 244.615 126.351 227.796 134.081 214.971C137.962 208.534 143.638 203.104 151.684 199.886C159.233 196.865 168.801 195.818 180.822 197.63L177.023 192.198C176.706 191.745 176.817 191.122 177.269 190.805C177.722 190.489 178.345 190.599 178.662 191.051L183.82 198.427Z" fill="#000"/>
</svg>
