<svg width="345" height="345" viewBox="0 0 345 345" fill="none" xmlns="http://www.w3.org/2000/svg">
<path d="M233.38 132.34C233.38 140.48 239.76 147.08 247.9 147.08C256.04 147.08 262.86 140.48 262.86 132.34C262.86 124.42 256.04 117.38 247.9 117.38C239.76 117.38 233.38 124.42 233.38 132.34ZM222.82 132.34C222.82 118.48 234.26 107.26 247.9 107.26C261.76 107.26 272.98 118.48 272.98 132.34C272.98 146.2 261.76 157.42 247.9 157.42C234.26 157.42 222.82 146.2 222.82 132.34ZM167.82 146.42C173.54 142.68 179.92 138.06 183.22 135.2C173.54 127.5 153.08 116.28 136.14 109.46L146.26 96.92C163.2 103.74 187.4 115.84 200.6 125.52L204.78 136.96C199.5 141.36 186.96 151.04 178.82 156.76L167.82 146.42ZM125.36 251.58C136.58 254.66 147.14 256.42 160.78 256.42C170.9 256.42 183.22 252.46 183.22 238.16C183.22 223.2 167.16 203.4 155.06 189.98C150.22 184.92 143.4 178.54 137.46 173.48L150.44 162.04C155.72 167.76 161.44 173.7 166.5 179.2C187.18 200.76 201.7 220.12 201.7 240.14C201.7 267.2 179.7 273.14 163.86 273.14C149.78 273.14 137.68 271.6 127.78 269.62L125.36 251.58ZM252.3 259.72C246.14 238.82 230.74 207.36 215.56 190.2L230.08 182.06C245.04 199.88 261.76 231.34 268.58 250.92L252.3 259.72ZM132.84 216.82C120.08 230.02 98.0797 248.72 76.7397 261.48L66.1797 246.74C84.4397 237.06 109.96 217.48 122.5 203.62L132.84 216.82Z" fill="#f00"/>
<path d="M263.3 105.277C262.066 105.277 261.053 104.939 260.262 104.264C259.47 103.589 259.05 102.72 259 101.658H261.009C261.075 102.206 261.321 102.648 261.748 102.986C262.174 103.323 262.697 103.492 263.316 103.492C264.019 103.492 264.586 103.276 265.018 102.845C265.455 102.408 265.674 101.832 265.674 101.118C265.674 100.404 265.455 99.826 265.018 99.3833C264.586 98.9351 264.025 98.7109 263.333 98.7109C262.846 98.7109 262.412 98.8133 262.03 99.0181C261.653 99.2228 261.355 99.5133 261.133 99.8896H259.191L259.813 93H267.027V94.8096H261.474L261.183 98.1714H261.324C261.878 97.4243 262.722 97.0508 263.856 97.0508C264.99 97.0508 265.92 97.4271 266.645 98.1797C267.375 98.9323 267.741 99.8952 267.741 101.068C267.741 102.319 267.331 103.334 266.512 104.115C265.699 104.889 264.628 105.277 263.3 105.277Z" fill="#000"/>
<path d="M166.426 84V74.1802H166.285L163.305 76.272V74.2134L166.434 72.022H168.567V84H166.426Z" fill="#000"/>
<path d="M178.283 164.525C178.283 163.407 178.671 162.494 179.445 161.786C180.226 161.077 181.23 160.723 182.458 160.723C183.643 160.723 184.617 161.047 185.38 161.694C186.15 162.342 186.534 163.166 186.534 164.168C186.534 164.81 186.34 165.446 185.953 166.077C185.566 166.702 184.863 167.519 183.845 168.526L181.338 171.041V171.182H186.717V173H178.399V171.514L182.392 167.43C183.211 166.6 183.756 165.978 184.027 165.562C184.299 165.142 184.434 164.721 184.434 164.301C184.434 163.775 184.24 163.341 183.853 162.998C183.471 162.654 182.984 162.483 182.392 162.483C181.767 162.483 181.26 162.671 180.873 163.047C180.486 163.424 180.292 163.916 180.292 164.525V164.558H178.283V164.525Z" fill="#000"/>
<path d="M99.4399 192.688V191.027H100.901C101.51 191.027 102.005 190.861 102.387 190.529C102.769 190.192 102.959 189.755 102.959 189.218C102.959 188.687 102.771 188.263 102.395 187.948C102.024 187.627 101.526 187.466 100.901 187.466C100.281 187.466 99.7775 187.63 99.3901 187.956C99.0083 188.283 98.798 188.728 98.7593 189.292H96.7588C96.8141 188.191 97.2181 187.322 97.9707 186.686C98.7233 186.044 99.7222 185.723 100.967 185.723C102.129 185.723 103.095 186.028 103.864 186.636C104.639 187.239 105.026 188 105.026 188.919C105.026 189.622 104.83 190.222 104.437 190.72C104.05 191.218 103.524 191.536 102.86 191.675V191.816C103.679 191.91 104.324 192.217 104.794 192.737C105.27 193.257 105.508 193.916 105.508 194.713C105.508 195.742 105.076 196.597 104.213 197.278C103.355 197.958 102.276 198.299 100.976 198.299C99.6862 198.299 98.6348 197.97 97.8213 197.311C97.0133 196.653 96.5817 195.775 96.5264 194.68H98.5767C98.6209 195.233 98.8617 195.676 99.2988 196.008C99.736 196.334 100.3 196.498 100.992 196.498C101.678 196.498 102.237 196.32 102.669 195.966C103.106 195.607 103.325 195.145 103.325 194.58C103.325 193.993 103.112 193.531 102.686 193.194C102.259 192.856 101.678 192.688 100.942 192.688H99.4399Z" fill="#000"/>
<path d="M255.087 185V182.767H249.235V180.858C250.209 179.065 251.836 176.453 254.116 173.022H257.138V180.958H258.756V182.767H257.138V185H255.087ZM251.219 180.883V181.007H255.121V174.765H255.004C253.709 176.68 252.448 178.719 251.219 180.883Z" fill="#000"/>
<path fill-rule="evenodd" clip-rule="evenodd" d="M195.587 189.353L195.057 198.337C195.024 198.889 194.551 199.309 194 199.277L185.015 198.746C184.464 198.714 184.043 198.24 184.076 197.689C184.108 197.138 184.582 196.717 185.133 196.75L191.707 197.138L162.757 164.555L164.252 163.227L193.202 195.809L193.591 189.235C193.623 188.684 194.096 188.263 194.648 188.296C195.199 188.328 195.62 188.802 195.587 189.353Z" fill="#000"/>
<path fill-rule="evenodd" clip-rule="evenodd" d="M191.919 100.092L194.55 108.699C194.712 109.227 194.414 109.786 193.886 109.948L185.279 112.579C184.751 112.74 184.192 112.443 184.031 111.915C183.869 111.387 184.167 110.828 184.695 110.666L190.993 108.741L155.53 89.8829L156.469 88.1171L191.932 106.975L190.007 100.677C189.845 100.149 190.143 99.5898 190.671 99.4284C191.199 99.2669 191.758 99.5642 191.919 100.092Z" fill="#000"/>
<path fill-rule="evenodd" clip-rule="evenodd" d="M87.9252 230.359L78.941 229.825C78.3897 229.793 77.9693 229.319 78.002 228.768L78.5352 219.784C78.5679 219.232 79.0413 218.812 79.5926 218.845C80.144 218.877 80.5644 219.351 80.5316 219.902L80.1415 226.476L111.927 198.252L113.255 199.748L81.4694 227.972L88.0437 228.362C88.595 228.395 89.0154 228.868 88.9827 229.42C88.9499 229.971 88.4765 230.391 87.9252 230.359Z" fill="#000"/>
<path fill-rule="evenodd" clip-rule="evenodd" d="M267.544 210.648L265.154 219.325C265.007 219.857 264.456 220.17 263.924 220.024L255.247 217.634C254.715 217.487 254.402 216.936 254.549 216.404C254.695 215.871 255.246 215.559 255.778 215.705L262.128 217.454L241.131 180.494L242.87 179.506L263.867 216.466L265.615 210.117C265.762 209.585 266.313 209.272 266.845 209.418C267.378 209.565 267.69 210.116 267.544 210.648Z" fill="#000"/>
</svg>
