<svg width="345" height="345" viewBox="0 0 345 345" fill="none" xmlns="http://www.w3.org/2000/svg">
<path d="M219.08 105.94C223.7 132.56 233.38 169.96 265.72 199.22L254.28 214.62C229.86 188.66 214.9 155.88 201.92 110.78L219.08 105.94ZM81.5801 117.6C84.8801 117.82 89.5001 117.82 93.4601 117.6C113.04 116.72 150 111.66 162.98 106.6L168.04 122.22C165.18 123.1 159.68 124.64 156.38 125.96C142.52 136.3 108.86 174.8 108.86 220.12C108.86 251.14 129.32 261.48 151.98 261.48C204.34 261.48 222.16 205.16 205.44 118.92L221.5 148.62C232.94 211.54 220.4 279.52 151.54 279.52C116.78 279.52 91.7001 260.16 91.7001 223.86C91.7001 182.72 113.26 151.26 132.62 129.26C121.4 131.02 103.36 133.22 95.4401 134.32C91.2601 134.76 87.5201 135.42 82.9001 136.08L81.5801 117.6ZM239.32 109.46C239.32 117.16 245.48 123.54 253.4 123.54C261.32 123.54 267.48 117.16 267.48 109.46C267.48 101.54 261.32 95.16 253.4 95.16C245.7 95.16 239.32 101.54 239.32 109.46ZM229.2 109.46C229.2 96.04 239.98 85.04 253.4 85.04C266.82 85.04 277.82 96.04 277.82 109.46C277.82 122.66 266.82 133.66 253.4 133.66C239.98 133.66 229.2 122.66 229.2 109.46Z" fill="#f00"/>
<path d="M269 75.8018C269 74.6839 269.387 73.7708 270.162 73.0625C270.942 72.3542 271.947 72 273.175 72C274.36 72 275.333 72.3237 276.097 72.9712C276.866 73.6187 277.251 74.4432 277.251 75.4448C277.251 76.0868 277.057 76.7231 276.67 77.354C276.283 77.9793 275.58 78.7956 274.562 79.8027L272.055 82.3179V82.459H277.434V84.2769H269.116V82.791L273.109 78.707C273.928 77.877 274.473 77.2544 274.744 76.8394C275.015 76.4188 275.151 75.9982 275.151 75.5776C275.151 75.0519 274.957 74.6175 274.57 74.2744C274.188 73.9313 273.701 73.7598 273.109 73.7598C272.484 73.7598 271.977 73.9479 271.59 74.3242C271.202 74.7005 271.009 75.193 271.009 75.8018V75.835H269V75.8018Z" fill="#000"/>
<path d="M91.4258 101V91.1802H91.2847L88.3047 93.272V91.2134L91.4341 89.022H93.5674V101H91.4258Z" fill="#000"/>
<path fill-rule="evenodd" clip-rule="evenodd" d="M141.424 94.774L148.603 100.202C149.043 100.536 149.13 101.163 148.797 101.603L143.369 108.782C143.036 109.222 142.409 109.309 141.968 108.976C141.528 108.643 141.44 108.016 141.774 107.576L145.746 102.323L87.5544 110.401L87.2794 108.42L145.471 100.342L140.218 96.3693C139.777 96.0362 139.69 95.409 140.023 94.9685C140.356 94.528 140.984 94.4409 141.424 94.774Z" fill="#000"/>
<path fill-rule="evenodd" clip-rule="evenodd" d="M186.13 108.712C185.447 118.338 187.227 129.987 192.413 141.592L190.587 142.408C185.272 130.513 183.428 118.537 184.135 108.57C184.838 98.6575 188.088 90.5269 193.201 86.5833C195.792 84.5856 198.848 83.6786 202.201 84.1852C205.526 84.6877 209.046 86.5649 212.645 89.9429C219.567 96.4404 226.989 108.685 234.136 128.406L236.994 122.454C237.233 121.956 237.83 121.746 238.328 121.986C238.826 122.225 239.036 122.822 238.797 123.32L234.901 131.433C234.662 131.931 234.065 132.141 233.567 131.902L225.454 128.006C224.956 127.767 224.746 127.169 224.985 126.672C225.224 126.174 225.821 125.964 226.319 126.203L232.241 129.046C225.14 109.465 217.857 97.5782 211.276 91.4012C207.867 88.201 204.703 86.586 201.902 86.1628C199.128 85.7436 196.614 86.4772 194.423 88.167C189.974 91.5984 186.817 99.0302 186.13 108.712Z" fill="#000"/>
</svg>
