<svg width="345" height="345" viewBox="0 0 345 345" fill="none" xmlns="http://www.w3.org/2000/svg">
<path d="M72.1201 208.9C77.6201 204.72 82.2401 200.54 87.9601 194.38C99.8401 182.5 118.1 157.42 131.3 141.8C144.06 126.84 155.5 124.64 170.02 139.6C183.22 153.02 200.16 174.8 214.24 189.76C227.44 204.5 249.44 227.6 269.24 245.2L254.94 261.04C238.44 245.42 218.64 222.54 203.46 205.38C189.16 189.1 172.44 167.98 162.1 156.76C152.86 146.42 148.68 148.18 140.98 157.42C130.64 170.18 112.6 194.38 101.16 208.02C96.7601 213.74 91.7001 220.78 88.4001 225.62L72.1201 208.9ZM216 134.98C216 144 223.26 151.26 232.28 151.26C241.08 151.26 248.34 144 248.34 134.98C248.34 126.18 241.08 118.7 232.28 118.7C223.26 118.7 216 126.18 216 134.98ZM205.44 134.98C205.44 120.24 217.32 108.14 232.28 108.14C247.02 108.14 259.12 120.24 259.12 134.98C259.12 149.94 247.02 161.82 232.28 161.82C217.32 161.82 205.44 149.94 205.44 134.98Z" fill="#f00"/>
<path d="M250 95.8018C250 94.6839 250.387 93.7708 251.162 93.0625C251.942 92.3542 252.947 92 254.175 92C255.36 92 256.333 92.3237 257.097 92.9712C257.866 93.6187 258.251 94.4432 258.251 95.4448C258.251 96.0868 258.057 96.7231 257.67 97.354C257.283 97.9793 256.58 98.7956 255.562 99.8027L253.055 102.318V102.459H258.434V104.277H250.116V102.791L254.109 98.707C254.928 97.877 255.473 97.2544 255.744 96.8394C256.015 96.4188 256.151 95.9982 256.151 95.5776C256.151 95.0519 255.957 94.6175 255.57 94.2744C255.188 93.9313 254.701 93.7598 254.109 93.7598C253.484 93.7598 252.977 93.9479 252.59 94.3242C252.202 94.7005 252.009 95.193 252.009 95.8018V95.835H250V95.8018Z" fill="#000"/>
<path d="M80.4248 180V170.18H80.2837L77.3037 172.272V170.213L80.4331 168.022H82.5664V180H80.4248Z" fill="#000"/>
<path fill-rule="evenodd" clip-rule="evenodd" d="M106.95 144.314L115.855 143.01C116.402 142.93 116.909 143.309 116.989 143.855L118.293 152.76C118.373 153.307 117.994 153.815 117.448 153.895C116.901 153.975 116.394 153.596 116.314 153.05L115.36 146.533L81.802 191.597L80.1979 190.403L113.756 145.339L107.24 146.293C106.693 146.373 106.185 145.994 106.105 145.448C106.025 144.901 106.404 144.394 106.95 144.314Z" fill="#000"/>
</svg>
