<svg width="345" height="345" viewBox="0 0 345 345" fill="none" xmlns="http://www.w3.org/2000/svg">
<path d="M214.9 118.7C214.9 134.54 214.9 155.66 214.9 169.52C214.9 197.24 217.76 227.82 217.76 245.42C217.76 263.24 205.44 273.8 181.68 273.8C157.48 273.8 139.44 263.68 139.44 243C139.44 227.38 152.42 212.64 181.46 212.64C220.4 212.64 247.24 231.78 263.52 246.52L254.28 261.92C233.38 240.36 206.98 225.84 181.02 225.84C165.4 225.84 155.06 232.44 155.06 241.9C155.06 252.9 164.96 258.4 180.14 258.4C197.52 258.4 201.7 249.6 201.7 237.94C201.7 225.4 199.06 192.84 199.06 170.18C199.06 154.56 199.06 130.8 199.06 118.7H214.9ZM146.04 161.6C185.64 164.68 225.9 161.82 256.04 158.3V174.36C227.88 177.66 185.42 179.86 146.04 177.66V161.6ZM149.34 110.56C184.76 113.2 218.42 111.44 243.28 108.14V123.54C218.86 125.96 184.98 127.72 149.34 125.96V110.56ZM111.72 101.54C110.4 105.28 108.42 112.1 107.76 116.06C103.36 136.52 97.1999 179.2 97.1999 203.84C97.1999 214.62 97.8599 224.08 99.1799 234.86C102.7 224.74 107.98 210.88 111.94 202.08L120.96 209.34C115.46 224.3 107.54 247.18 105.34 257.74C104.68 260.82 104.02 265 104.24 267.64C104.24 269.84 104.68 272.92 104.9 275.34L89.2799 276.44C84.6599 260.82 80.9199 236.62 80.9199 206.92C80.9199 174.58 88.1799 133.44 90.8199 115.4C91.4799 110.34 92.1399 104.4 92.1399 99.78L111.72 101.54ZM243.72 99.34C243.72 106.6 249.44 112.32 256.7 112.32C263.96 112.32 270.12 106.6 270.12 99.34C270.12 92.08 263.96 86.14 256.7 86.14C249.44 86.14 243.72 92.08 243.72 99.34ZM233.82 99.34C233.82 86.58 243.94 76.24 256.7 76.24C269.46 76.24 279.8 86.58 279.8 99.34C279.8 112.1 269.46 122.22 256.7 122.22C243.94 122.22 233.82 112.1 233.82 99.34Z" fill="#f00"/>
<path d="M277.3 74.2769C276.066 74.2769 275.053 73.9393 274.262 73.2642C273.47 72.589 273.05 71.7202 273 70.6577H275.009C275.075 71.2056 275.321 71.6483 275.748 71.9858C276.174 72.3234 276.697 72.4922 277.316 72.4922C278.019 72.4922 278.586 72.2764 279.018 71.8447C279.455 71.4076 279.674 70.832 279.674 70.1182C279.674 69.4043 279.455 68.826 279.018 68.3833C278.586 67.9351 278.025 67.7109 277.333 67.7109C276.846 67.7109 276.412 67.8133 276.03 68.0181C275.653 68.2228 275.355 68.5133 275.133 68.8896H273.191L273.813 62H281.027V63.8096H275.474L275.183 67.1714H275.324C275.878 66.4243 276.722 66.0508 277.856 66.0508C278.99 66.0508 279.92 66.4271 280.645 67.1797C281.375 67.9323 281.741 68.8952 281.741 70.0684C281.741 71.319 281.331 72.3345 280.512 73.1147C279.699 73.8895 278.628 74.2769 277.3 74.2769Z" fill="#000"/>
<path d="M140.283 86.5249C140.283 85.4071 140.671 84.494 141.445 83.7856C142.226 83.0773 143.23 82.7231 144.458 82.7231C145.643 82.7231 146.617 83.0469 147.38 83.6943C148.15 84.3418 148.534 85.1663 148.534 86.168C148.534 86.8099 148.34 87.4463 147.953 88.0771C147.566 88.7025 146.863 89.5187 145.845 90.5259L143.338 93.041V93.1821H148.717V95H140.399V93.5142L144.392 89.4302C145.211 88.6001 145.756 87.9775 146.027 87.5625C146.299 87.1419 146.434 86.7214 146.434 86.3008C146.434 85.7751 146.24 85.3407 145.853 84.9976C145.471 84.6545 144.984 84.4829 144.392 84.4829C143.767 84.4829 143.26 84.6711 142.873 85.0474C142.486 85.4237 142.292 85.9162 142.292 86.5249V86.5581H140.283V86.5249Z" fill="#000"/>
<path d="M271.087 138.978V136.745H265.235V134.836C266.209 133.043 267.836 130.431 270.116 127H273.138V134.936H274.756V136.745H273.138V138.978H271.087ZM267.219 134.861V134.985H271.121V128.743H271.004C269.709 130.658 268.448 132.697 267.219 134.861Z" fill="#000"/>
<path d="M151.439 142.688V141.027H152.9C153.509 141.027 154.004 140.861 154.386 140.529C154.768 140.192 154.958 139.755 154.958 139.218C154.958 138.687 154.77 138.263 154.394 137.948C154.023 137.627 153.525 137.466 152.9 137.466C152.28 137.466 151.777 137.63 151.389 137.956C151.007 138.283 150.797 138.728 150.758 139.292H148.758C148.813 138.191 149.217 137.322 149.97 136.686C150.722 136.044 151.721 135.723 152.966 135.723C154.128 135.723 155.094 136.028 155.863 136.636C156.638 137.239 157.025 138 157.025 138.919C157.025 139.622 156.829 140.222 156.436 140.72C156.049 141.218 155.523 141.536 154.859 141.675V141.816C155.678 141.91 156.323 142.217 156.793 142.737C157.269 143.257 157.507 143.916 157.507 144.713C157.507 145.742 157.075 146.597 156.212 147.278C155.354 147.958 154.275 148.299 152.975 148.299C151.685 148.299 150.634 147.97 149.82 147.311C149.012 146.653 148.581 145.775 148.525 144.68H150.576C150.62 145.233 150.861 145.676 151.298 146.008C151.735 146.334 152.299 146.498 152.991 146.498C153.677 146.498 154.236 146.32 154.668 145.966C155.105 145.607 155.324 145.145 155.324 144.58C155.324 143.993 155.111 143.531 154.685 143.194C154.258 142.856 153.677 142.688 152.941 142.688H151.439Z" fill="#000"/>
<path d="M63.1211 111.978V102.158H62.98L60 104.25V102.191L63.1294 100H65.2627V111.978H63.1211Z" fill="#000"/>
<path fill-rule="evenodd" clip-rule="evenodd" d="M80.127 171.804L73.3538 177.731C72.9382 178.094 72.3064 178.052 71.9427 177.636L66.0162 170.863C65.6525 170.448 65.6946 169.816 66.1103 169.452C66.5259 169.088 67.1577 169.131 67.5214 169.546L71.8581 174.503L76.6975 101.911L78.6931 102.044L73.8537 174.636L78.81 170.299C79.2256 169.935 79.8574 169.977 80.2211 170.393C80.5848 170.809 80.5426 171.44 80.127 171.804Z" fill="#000"/>
<path fill-rule="evenodd" clip-rule="evenodd" d="M187.343 146.293L193.707 152.657C194.098 153.047 194.098 153.681 193.707 154.071L187.343 160.435C186.953 160.826 186.319 160.826 185.929 160.435C185.538 160.045 185.538 159.411 185.929 159.021L190.586 154.364L147 154.364L147 152.364L190.586 152.364L185.929 147.707C185.538 147.317 185.538 146.683 185.929 146.293C186.319 145.902 186.953 145.902 187.343 146.293Z" fill="#000"/>
<path fill-rule="evenodd" clip-rule="evenodd" d="M221.343 93.9289L227.707 100.293C228.098 100.683 228.098 101.317 227.707 101.707L221.343 108.071C220.953 108.462 220.319 108.462 219.929 108.071C219.538 107.68 219.538 107.047 219.929 106.657L224.586 102L140 102L140 99.9999L224.586 100L219.929 95.3431C219.538 94.9526 219.538 94.3194 219.929 93.9289C220.319 93.5384 220.953 93.5384 221.343 93.9289Z" fill="#000"/>
<path fill-rule="evenodd" clip-rule="evenodd" d="M268.071 195.343L261.707 201.707C261.317 202.098 260.684 202.098 260.293 201.707L253.929 195.343C253.539 194.953 253.539 194.319 253.929 193.929C254.32 193.538 254.953 193.538 255.343 193.929L260 198.586L260 126L262 126L262 198.586L266.657 193.929C267.048 193.538 267.681 193.538 268.071 193.929C268.462 194.319 268.462 194.953 268.071 195.343Z" fill="#000"/>
<path fill-rule="evenodd" clip-rule="evenodd" d="M267.817 224.369L269.351 233.238C269.446 233.782 269.081 234.299 268.537 234.393L259.668 235.928C259.124 236.022 258.607 235.657 258.512 235.113C258.418 234.569 258.783 234.051 259.327 233.957L265.817 232.834L237.424 212.817L238.576 211.183L266.969 231.2L265.846 224.71C265.752 224.166 266.117 223.649 266.661 223.554C267.205 223.46 267.723 223.825 267.817 224.369Z" fill="#000"/>
<path fill-rule="evenodd" clip-rule="evenodd" d="M183.82 199.427C184.136 199.879 184.026 200.503 183.573 200.819L176.198 205.977C175.745 206.294 175.122 206.184 174.805 205.731C174.489 205.278 174.599 204.655 175.052 204.338L180.411 200.59C168.708 198.842 159.549 199.893 152.426 202.742C144.831 205.781 139.476 210.895 135.794 217.004C128.4 229.271 127.757 245.552 129.489 256.848L127.512 257.151C125.743 245.615 126.351 228.796 134.081 215.971C137.962 209.534 143.638 204.104 151.684 200.886C159.233 197.865 168.801 196.818 180.822 198.63L177.023 193.198C176.706 192.745 176.817 192.122 177.269 191.805C177.722 191.489 178.345 191.599 178.662 192.051L183.82 199.427Z" fill="#000"/>
</svg>
