<svg width="345" height="345" viewBox="0 0 345 345" fill="none" xmlns="http://www.w3.org/2000/svg">
<path d="M239.1 107.04C239.1 115.18 245.48 121.56 253.62 121.56C261.54 121.56 268.14 115.18 268.14 107.04C268.14 99.1199 261.54 92.5199 253.62 92.5199C245.48 92.5199 239.1 99.1199 239.1 107.04ZM228.98 107.04C228.98 93.3999 239.98 82.3999 253.62 82.3999C267.26 82.3999 278.26 93.3999 278.26 107.04C278.26 120.68 267.26 131.68 253.62 131.68C239.98 131.68 228.98 120.68 228.98 107.04ZM248.12 121.78C246.58 124.86 245.7 128.6 244.82 132.78C239.98 155.88 229.42 191.52 211.82 213.96C191.8 239.92 165.62 260.16 125.36 272.92L110.4 256.42C153.08 245.64 177.72 226.94 196.2 203.4C211.82 183.6 221.94 152.8 225.02 131.68C212.26 131.68 125.14 131.68 112.38 131.68C103.58 131.68 96.0996 132.12 90.5996 132.56V112.98C96.5396 113.64 105.34 114.52 112.6 114.52C125.14 114.52 212.92 114.52 222.82 114.52C226.34 114.52 230.52 114.3 234.7 113.2L248.12 121.78Z" fill="white"/>
<path d="M276.439 75.6875V74.0273H277.9C278.509 74.0273 279.004 73.8613 279.386 73.5293C279.768 73.1917 279.958 72.7546 279.958 72.2178C279.958 71.6865 279.77 71.2632 279.394 70.9478C279.023 70.6268 278.525 70.4663 277.9 70.4663C277.28 70.4663 276.777 70.6296 276.389 70.9561C276.007 71.2826 275.797 71.728 275.758 72.2925H273.758C273.813 71.1912 274.217 70.3224 274.97 69.686C275.722 69.0441 276.721 68.7231 277.966 68.7231C279.128 68.7231 280.094 69.0275 280.863 69.6362C281.638 70.2394 282.025 71.0003 282.025 71.9189C282.025 72.6217 281.829 73.2222 281.436 73.7202C281.049 74.2183 280.523 74.5365 279.859 74.6748V74.8159C280.678 74.91 281.323 75.2171 281.793 75.7373C282.269 76.2575 282.507 76.916 282.507 77.7129C282.507 78.7422 282.075 79.5972 281.212 80.2778C280.354 80.9585 279.275 81.2988 277.975 81.2988C276.685 81.2988 275.634 80.9696 274.82 80.311C274.012 79.6525 273.581 78.7754 273.525 77.6797H275.576C275.62 78.2331 275.861 78.6758 276.298 79.0078C276.735 79.3343 277.299 79.4976 277.991 79.4976C278.677 79.4976 279.236 79.3205 279.668 78.9663C280.105 78.6066 280.324 78.1445 280.324 77.5801C280.324 76.9935 280.111 76.5314 279.685 76.1938C279.258 75.8563 278.677 75.6875 277.941 75.6875H276.439Z" fill="#C08D6B"/>
<path d="M96.4258 97.978V88.1582H96.2847L93.3047 90.25V88.1914L96.4341 86H98.5674V97.978H96.4258Z" fill="#C08D6B"/>
<path fill-rule="evenodd" clip-rule="evenodd" d="M140.343 95.9069L146.707 102.271C147.098 102.661 147.098 103.295 146.707 103.685L140.343 110.049C139.953 110.44 139.319 110.44 138.929 110.049C138.538 109.659 138.538 109.025 138.929 108.635L143.586 103.978L90 103.978L90 101.978L143.586 101.978L138.929 97.3211C138.538 96.9306 138.538 96.2974 138.929 95.9069C139.319 95.5164 139.953 95.5164 140.343 95.9069Z" fill="#C08D6B"/>
</svg>
