<svg width="345" height="345" viewBox="0 0 345 345" fill="none" xmlns="http://www.w3.org/2000/svg">
<path d="M251.42 118.92C249.88 122 249 125.52 248.12 129.92C243.28 153.02 232.72 188.44 215.12 211.1C195.1 236.84 168.92 257.3 128.66 269.84L113.7 253.34C156.38 242.78 181.02 224.08 199.5 200.54C215.12 180.52 225.24 149.94 228.32 128.82C215.56 128.82 128.44 128.82 115.68 128.82C106.88 128.82 99.4004 129.26 93.9004 129.48V109.9C99.8404 110.78 108.64 111.44 115.9 111.44C128.44 111.44 216.22 111.44 226.12 111.44C229.42 111.44 233.82 111.22 238 110.34L251.42 118.92Z" fill="white"/>
<path d="M99.4258 96V86.1802H99.2847L96.3047 88.272V86.2134L99.4341 84.022H101.567V96H99.4258Z" fill="#C08D6B"/>
<path fill-rule="evenodd" clip-rule="evenodd" d="M143.343 93.9289L149.707 100.293C150.098 100.683 150.098 101.317 149.707 101.707L143.343 108.071C142.953 108.462 142.319 108.462 141.929 108.071C141.538 107.68 141.538 107.047 141.929 106.657L146.586 102L93 102L93 99.9999L146.586 99.9999L141.929 95.3431C141.538 94.9526 141.538 94.3194 141.929 93.9289C142.319 93.5384 142.953 93.5384 143.343 93.9289Z" fill="#C08D6B"/>
</svg>
