<svg width="345" height="345" viewBox="0 0 345 345" fill="none" xmlns="http://www.w3.org/2000/svg">
<path d="M234.04 111.66C234.04 119.8 240.64 126.18 248.56 126.18C256.48 126.18 263.08 119.8 263.08 111.66C263.08 103.74 256.48 97.14 248.56 97.14C240.64 97.14 234.04 103.74 234.04 111.66ZM223.92 111.66C223.92 98.02 234.92 87.02 248.56 87.02C262.2 87.02 273.2 98.02 273.2 111.66C273.2 125.3 262.2 136.3 248.56 136.3C234.92 136.3 223.92 125.3 223.92 111.66ZM109.74 199C119.42 176.12 128.44 142.68 131.52 117.38L151.1 121.34C149.56 126.18 148.02 132.78 146.92 137.4C144.06 151.04 136.36 183.6 127.12 206.26C118.98 226.28 106.88 248.94 94.5604 266.76L75.8604 258.84C89.7204 240.36 102.26 217.26 109.74 199ZM218.2 190.64C209.4 167.98 195.76 137.4 186.3 120.9L204.12 114.96C212.7 131.02 226.78 161.38 236.24 184.48C245.04 206.26 256.7 239.92 262.64 259.94L243.06 266.1C237.56 243.88 227.22 213.96 218.2 190.64Z" fill="#f00"/>
<path d="M273.439 80.6875V79.0273H274.9C275.509 79.0273 276.004 78.8613 276.386 78.5293C276.768 78.1917 276.958 77.7546 276.958 77.2178C276.958 76.6865 276.77 76.2632 276.394 75.9478C276.023 75.6268 275.525 75.4663 274.9 75.4663C274.28 75.4663 273.777 75.6296 273.389 75.9561C273.007 76.2826 272.797 76.728 272.758 77.2925H270.758C270.813 76.1912 271.217 75.3224 271.97 74.686C272.722 74.0441 273.721 73.7231 274.966 73.7231C276.128 73.7231 277.094 74.0275 277.863 74.6362C278.638 75.2394 279.025 76.0003 279.025 76.9189C279.025 77.6217 278.829 78.2222 278.436 78.7202C278.049 79.2183 277.523 79.5365 276.859 79.6748V79.8159C277.678 79.91 278.323 80.2171 278.793 80.7373C279.269 81.2575 279.507 81.916 279.507 82.7129C279.507 83.7422 279.075 84.5972 278.212 85.2778C277.354 85.9585 276.275 86.2988 274.975 86.2988C273.685 86.2988 272.634 85.9696 271.82 85.311C271.012 84.6525 270.581 83.7754 270.525 82.6797H272.576C272.62 83.2331 272.861 83.6758 273.298 84.0078C273.735 84.3343 274.299 84.4976 274.991 84.4976C275.677 84.4976 276.236 84.3205 276.668 83.9663C277.105 83.6066 277.324 83.1445 277.324 82.5801C277.324 81.9935 277.111 81.5314 276.685 81.1938C276.258 80.8563 275.677 80.6875 274.941 80.6875H273.439Z" fill="#000"/>
<path d="M109.121 122.277V112.457H108.98L106 114.549V112.49L109.129 110.299H111.263V122.277H109.121Z" fill="#000"/>
<path d="M168 129.802C168 128.684 168.387 127.771 169.162 127.062C169.942 126.354 170.947 126 172.175 126C173.36 126 174.333 126.324 175.097 126.971C175.866 127.619 176.251 128.443 176.251 129.445C176.251 130.087 176.057 130.723 175.67 131.354C175.283 131.979 174.58 132.796 173.562 133.803L171.055 136.318V136.459H176.434V138.277H168.116V136.791L172.109 132.707C172.928 131.877 173.473 131.254 173.744 130.839C174.015 130.419 174.151 129.998 174.151 129.578C174.151 129.052 173.957 128.618 173.57 128.274C173.188 127.931 172.701 127.76 172.109 127.76C171.484 127.76 170.977 127.948 170.59 128.324C170.202 128.701 170.009 129.193 170.009 129.802V129.835H168V129.802Z" fill="#000"/>
<path fill-rule="evenodd" clip-rule="evenodd" d="M114.175 172.459L106.386 176.968C105.908 177.245 105.296 177.082 105.019 176.604L100.51 168.815C100.233 168.337 100.396 167.725 100.874 167.448C101.352 167.172 101.964 167.335 102.241 167.813L105.541 173.512L120.918 115.845L122.851 116.36L107.473 174.028L113.172 170.728C113.65 170.451 114.262 170.614 114.539 171.092C114.816 171.57 114.653 172.182 114.175 172.459Z" fill="#000"/>
<path fill-rule="evenodd" clip-rule="evenodd" d="M210.068 177.605L206.714 185.957C206.509 186.47 205.926 186.718 205.414 186.512L197.062 183.159C196.549 182.953 196.301 182.371 196.506 181.858C196.712 181.346 197.295 181.097 197.807 181.303L203.919 183.757L178.522 124.285L180.361 123.499L205.758 182.971L208.212 176.86C208.418 176.347 209 176.099 209.512 176.304C210.025 176.51 210.274 177.093 210.068 177.605Z" fill="#000"/>
</svg>
