<svg width="345" height="345" viewBox="0 0 345 345" fill="none" xmlns="http://www.w3.org/2000/svg">
<path d="M239.1 107.04C239.1 115.18 245.48 121.56 253.62 121.56C261.54 121.56 268.14 115.18 268.14 107.04C268.14 99.12 261.54 92.52 253.62 92.52C245.48 92.52 239.1 99.12 239.1 107.04ZM228.98 107.04C228.98 93.4 239.98 82.4 253.62 82.4C267.26 82.4 278.26 93.4 278.26 107.04C278.26 120.68 267.26 131.68 253.62 131.68C239.98 131.68 228.98 120.68 228.98 107.04ZM248.12 121.78C246.58 124.86 245.7 128.6 244.82 132.78C239.98 155.88 229.42 191.52 211.82 213.96C191.8 239.92 165.62 260.16 125.36 272.92L110.4 256.42C153.08 245.64 177.72 226.94 196.2 203.4C211.82 183.6 221.94 152.8 225.02 131.68C212.26 131.68 125.14 131.68 112.38 131.68C103.58 131.68 96.0996 132.12 90.5996 132.56V112.98C96.5396 113.64 105.34 114.52 112.6 114.52C125.14 114.52 212.92 114.52 222.82 114.52C226.34 114.52 230.52 114.3 234.7 113.2L248.12 121.78Z" fill="#f00"/>
<path d="M266 72.8018C266 71.6839 266.387 70.7708 267.162 70.0625C267.942 69.3542 268.947 69 270.175 69C271.36 69 272.333 69.3237 273.097 69.9712C273.866 70.6187 274.251 71.4432 274.251 72.4448C274.251 73.0868 274.057 73.7231 273.67 74.354C273.283 74.9793 272.58 75.7956 271.562 76.8027L269.055 79.3179V79.459H274.434V81.2769H266.116V79.791L270.109 75.707C270.928 74.877 271.473 74.2544 271.744 73.8394C272.015 73.4188 272.151 72.9982 272.151 72.5776C272.151 72.0519 271.957 71.6175 271.57 71.2744C271.188 70.9313 270.701 70.7598 270.109 70.7598C269.484 70.7598 268.977 70.9479 268.59 71.3242C268.202 71.7005 268.009 72.193 268.009 72.8018V72.835H266V72.8018Z" fill="#000"/>
<path d="M96.4258 97.978V88.1582H96.2847L93.3047 90.25V88.1914L96.4341 86H98.5674V97.978H96.4258Z" fill="#000"/>
<path fill-rule="evenodd" clip-rule="evenodd" d="M140.343 95.9069L146.707 102.271C147.098 102.661 147.098 103.295 146.707 103.685L140.343 110.049C139.953 110.44 139.319 110.44 138.929 110.049C138.538 109.659 138.538 109.025 138.929 108.635L143.586 103.978L90 103.978L90 101.978L143.586 101.978L138.929 97.3211C138.538 96.9306 138.538 96.2974 138.929 95.9069C139.319 95.5164 139.953 95.5164 140.343 95.9069Z" fill="#000"/>
</svg>
