<svg width="345" height="345" viewBox="0 0 345 345" fill="none" xmlns="http://www.w3.org/2000/svg">
<path d="M228.76 111.66C228.76 119.58 235.36 126.18 243.28 126.18C251.2 126.18 258.02 119.58 258.02 111.66C258.02 103.74 251.2 97.14 243.28 97.14C235.36 97.14 228.76 103.74 228.76 111.66ZM218.64 111.66C218.64 98.02 229.64 87.02 243.28 87.02C256.92 87.02 268.14 98.02 268.14 111.66C268.14 125.3 256.92 136.3 243.28 136.3C229.64 136.3 218.64 125.3 218.64 111.66ZM123.38 100C122.72 105.28 122.06 111.66 122.06 117.82C122.06 129.7 122.06 218.14 122.06 233.98C122.06 245.42 126.9 248.28 137.46 250.26C144.5 251.58 155.72 252.02 166.5 252.02C189.82 252.02 223.48 249.82 241.96 244.98V265.22C222.82 268.08 189.82 269.62 165.84 269.62C152.64 269.62 139.66 269.18 130.42 267.64C113.7 264.56 104.24 256.86 104.24 238.82C104.24 217.7 104.24 129.7 104.24 117.82C104.24 112.54 103.8 105.28 102.92 100H123.38ZM113.92 169.52C140.54 163.8 180.36 151.7 205.88 140.92C212.48 137.84 218.86 134.76 225.24 130.8L232.94 148.4C226.56 151.04 218.64 154.56 212.04 157.2C184.76 168.2 141.2 180.96 114.14 187.78L113.92 169.52Z" fill="#f00"/>
<path d="M267.439 79.6875V78.0273H268.9C269.509 78.0273 270.004 77.8613 270.386 77.5293C270.768 77.1917 270.958 76.7546 270.958 76.2178C270.958 75.6865 270.77 75.2632 270.394 74.9478C270.023 74.6268 269.525 74.4663 268.9 74.4663C268.28 74.4663 267.777 74.6296 267.389 74.9561C267.007 75.2826 266.797 75.728 266.758 76.2925H264.758C264.813 75.1912 265.217 74.3224 265.97 73.686C266.722 73.0441 267.721 72.7231 268.966 72.7231C270.128 72.7231 271.094 73.0275 271.863 73.6362C272.638 74.2394 273.025 75.0003 273.025 75.9189C273.025 76.6217 272.829 77.2222 272.436 77.7202C272.049 78.2183 271.523 78.5365 270.859 78.6748V78.8159C271.678 78.91 272.323 79.2171 272.793 79.7373C273.269 80.2575 273.507 80.916 273.507 81.7129C273.507 82.7422 273.075 83.5972 272.212 84.2778C271.354 84.9585 270.275 85.2988 268.975 85.2988C267.685 85.2988 266.634 84.9696 265.82 84.311C265.012 83.6525 264.581 82.7754 264.525 81.6797H266.576C266.62 82.2331 266.861 82.6758 267.298 83.0078C267.735 83.3343 268.299 83.4976 268.991 83.4976C269.677 83.4976 270.236 83.3205 270.668 82.9663C271.105 82.6066 271.324 82.1445 271.324 81.5801C271.324 80.9935 271.111 80.5314 270.685 80.1938C270.258 79.8563 269.677 79.6875 268.941 79.6875H267.439Z" fill="#000"/>
<path d="M140.143 144.277V134.457H140.001L137.021 136.549V134.49L140.151 132.299H142.284V144.277H140.143Z" fill="#000"/>
<path d="M76 102.802C76 101.684 76.3874 100.771 77.1621 100.062C77.9424 99.3542 78.9468 99 80.1753 99C81.3595 99 82.3335 99.3237 83.0972 99.9712C83.8664 100.619 84.251 101.443 84.251 102.445C84.251 103.087 84.0573 103.723 83.6699 104.354C83.2826 104.979 82.5798 105.796 81.5615 106.803L79.0547 109.318V109.459H84.4336V111.277H76.1162V109.791L80.1089 105.707C80.9279 104.877 81.473 104.254 81.7441 103.839C82.0153 103.419 82.1509 102.998 82.1509 102.578C82.1509 102.052 81.9572 101.618 81.5698 101.274C81.188 100.931 80.701 100.76 80.1089 100.76C79.4836 100.76 78.9772 100.948 78.5898 101.324C78.2025 101.701 78.0088 102.193 78.0088 102.802V102.835H76V102.802Z" fill="#000"/>
<path fill-rule="evenodd" clip-rule="evenodd" d="M205.023 122.502L213.147 126.374C213.646 126.612 213.857 127.209 213.62 127.707L209.747 135.831C209.51 136.33 208.913 136.542 208.414 136.304C207.916 136.066 207.704 135.469 207.942 134.971L210.775 129.026L134.051 156.219L133.383 154.334L210.107 127.141L204.162 124.307C203.664 124.07 203.452 123.473 203.69 122.974C203.927 122.476 204.524 122.264 205.023 122.502Z" fill="#000"/>
<path fill-rule="evenodd" clip-rule="evenodd" d="M99.7882 149.62L93.4242 155.984C93.0337 156.374 92.4005 156.374 92.01 155.984L85.646 149.62C85.2555 149.229 85.2555 148.596 85.646 148.206C86.0365 147.815 86.6697 147.815 87.0602 148.206L91.7171 152.863L91.7171 99.2769L93.7171 99.2769L93.7171 152.863L98.3739 148.206C98.7645 147.815 99.3976 147.815 99.7882 148.206C100.179 148.596 100.179 149.229 99.7882 149.62Z" fill="#000"/>
<path fill-rule="evenodd" clip-rule="evenodd" d="M92.7168 217.277H94.7168V241.777C94.7168 252.37 97.4272 261.851 103.525 268.673C109.604 275.475 119.179 279.777 133.217 279.777H180.303L175.646 275.12C175.255 274.729 175.255 274.096 175.646 273.706C176.036 273.315 176.669 273.315 177.06 273.706L183.424 280.07C183.814 280.46 183.814 281.093 183.424 281.484L177.06 287.848C176.669 288.238 176.036 288.238 175.646 287.848C175.255 287.457 175.255 286.824 175.646 286.434L180.303 281.777H133.217C118.754 281.777 108.579 277.329 102.034 270.006C95.5064 262.703 92.7168 252.684 92.7168 241.777V217.277Z" fill="#000"/>
</svg>
