<svg width="345" height="345" viewBox="0 0 345 345" fill="none" xmlns="http://www.w3.org/2000/svg">
<path d="M227.879 102.64C227.879 110.34 234.039 116.5 241.959 116.5C249.659 116.5 256.039 110.34 256.039 102.64C256.039 94.72 249.659 88.34 241.959 88.34C234.039 88.34 227.879 94.72 227.879 102.64ZM217.979 102.64C217.979 89.22 228.539 78.44 241.959 78.44C255.159 78.44 266.159 89.22 266.159 102.64C266.159 115.84 255.159 126.62 241.959 126.62C228.539 126.62 217.979 115.84 217.979 102.64ZM181.019 95.6C180.579 98.68 179.699 106.6 179.699 111.22C179.699 122.88 179.699 141.36 179.699 152.14C179.699 169.96 179.699 241.24 179.699 257.08C179.699 268.52 174.199 274.46 160.779 274.46C151.539 274.46 138.559 274.02 129.539 272.92L127.999 255.54C137.679 257.3 147.579 257.96 153.519 257.96C159.459 257.96 161.879 255.54 161.879 249.6C162.099 237.72 162.099 162.48 162.099 152.14C162.099 144.66 162.099 122.88 162.099 111.22C162.099 106.38 161.219 98.9 160.559 95.6H181.019ZM82.2392 132.56C88.3992 133.44 93.8992 133.88 100.719 133.88C113.699 133.88 224.799 133.88 237.999 133.88C243.059 133.88 250.319 133.44 255.819 132.78V151.04C250.099 150.6 243.499 150.38 238.219 150.38C225.019 150.38 114.359 150.38 100.939 150.38C94.1192 150.38 87.9592 150.6 82.2392 151.26V132.56ZM132.839 184.48C123.379 203.18 102.919 231.34 90.3792 244.76L75.1992 234.42C89.9392 221 108.639 194.82 117.219 177L132.839 184.48ZM224.579 177C236.459 191.08 253.839 218.58 262.639 234.64L246.579 243.66C237.779 226.28 221.279 199 209.619 185.14L224.579 177Z" fill="#f00"/>
<path d="M265.065 77.2988C263.831 77.2988 262.819 76.9613 262.027 76.2861C261.236 75.611 260.815 74.7422 260.766 73.6797H262.774C262.841 74.2275 263.087 74.6702 263.513 75.0078C263.939 75.3454 264.462 75.5142 265.082 75.5142C265.785 75.5142 266.352 75.2983 266.784 74.8667C267.221 74.4295 267.439 73.854 267.439 73.1401C267.439 72.4263 267.221 71.848 266.784 71.4053C266.352 70.957 265.79 70.7329 265.099 70.7329C264.612 70.7329 264.177 70.8353 263.795 71.04C263.419 71.2448 263.12 71.5353 262.899 71.9116H260.957L261.579 65.022H268.792V66.8315H263.239L262.949 70.1934H263.09C263.643 69.4463 264.487 69.0728 265.622 69.0728C266.756 69.0728 267.686 69.4491 268.411 70.2017C269.141 70.9543 269.506 71.9172 269.506 73.0903C269.506 74.341 269.097 75.3564 268.278 76.1367C267.464 76.9115 266.394 77.2988 265.065 77.2988Z" fill="#000"/>
<path d="M92.9839 170.964V169.304H94.4448C95.0535 169.304 95.5488 169.138 95.9307 168.806C96.3125 168.469 96.5034 168.031 96.5034 167.495C96.5034 166.963 96.3153 166.54 95.939 166.225C95.5682 165.904 95.0701 165.743 94.4448 165.743C93.825 165.743 93.3215 165.906 92.9341 166.233C92.5522 166.559 92.342 167.005 92.3032 167.569H90.3027C90.3581 166.468 90.762 165.599 91.5146 164.963C92.2673 164.321 93.2661 164 94.5112 164C95.6733 164 96.639 164.304 97.4082 164.913C98.1829 165.516 98.5703 166.277 98.5703 167.196C98.5703 167.899 98.3739 168.499 97.981 168.997C97.5936 169.495 97.0679 169.813 96.4038 169.952V170.093C97.2228 170.187 97.8675 170.494 98.3379 171.014C98.8138 171.534 99.0518 172.193 99.0518 172.99C99.0518 174.019 98.6201 174.874 97.7568 175.555C96.8991 176.235 95.82 176.576 94.5195 176.576C93.2301 176.576 92.1787 176.246 91.3652 175.588C90.5573 174.929 90.1257 174.052 90.0703 172.957H92.1206C92.1649 173.51 92.4056 173.953 92.8428 174.285C93.2799 174.611 93.8444 174.774 94.5361 174.774C95.2223 174.774 95.7812 174.597 96.2129 174.243C96.6501 173.883 96.8687 173.421 96.8687 172.857C96.8687 172.27 96.6556 171.808 96.2295 171.471C95.8034 171.133 95.2223 170.964 94.4863 170.964H92.9839Z" fill="#000"/>
<path d="M250.633 176.277V174.044H244.781V172.135C245.755 170.342 247.382 167.73 249.662 164.299H252.684V172.234H254.302V174.044H252.684V176.277H250.633ZM246.765 172.16V172.284H250.667V166.042H250.55C249.255 167.957 247.994 169.996 246.765 172.16Z" fill="#000"/>
<path d="M94.9707 118.277V108.457H94.8296L91.8496 110.549V108.49L94.979 106.299H97.1123V118.277H94.9707Z" fill="#000"/>
<path d="M198.828 85.8018C198.828 84.6839 199.215 83.7708 199.99 83.0625C200.771 82.3542 201.775 82 203.003 82C204.188 82 205.162 82.3237 205.925 82.9712C206.694 83.6187 207.079 84.4432 207.079 85.4448C207.079 86.0868 206.885 86.7231 206.498 87.354C206.111 87.9793 205.408 88.7956 204.39 89.8027L201.883 92.3179V92.459H207.262V94.2769H198.944V92.791L202.937 88.707C203.756 87.877 204.301 87.2544 204.572 86.8394C204.843 86.4188 204.979 85.9982 204.979 85.5776C204.979 85.0519 204.785 84.6175 204.398 84.2744C204.016 83.9313 203.529 83.7598 202.937 83.7598C202.312 83.7598 201.805 83.9479 201.418 84.3242C201.031 84.7005 200.837 85.193 200.837 85.8018V85.835H198.828V85.8018Z" fill="#000"/>
<path fill-rule="evenodd" clip-rule="evenodd" d="M138.888 116.206L145.252 122.57C145.643 122.96 145.643 123.593 145.252 123.984L138.888 130.348C138.498 130.738 137.864 130.738 137.474 130.348C137.083 129.957 137.083 129.324 137.474 128.934L142.131 124.277L88.5449 124.277L88.5449 122.277L142.131 122.277L137.474 117.62C137.083 117.229 137.083 116.596 137.474 116.206C137.864 115.815 138.498 115.815 138.888 116.206Z" fill="#000"/>
<path fill-rule="evenodd" clip-rule="evenodd" d="M84.5905 218.513L75.7011 219.919C75.1556 220.006 74.6434 219.633 74.5571 219.088L73.1505 210.198C73.0642 209.653 73.4364 209.141 73.9819 209.054C74.5274 208.968 75.0396 209.34 75.1259 209.886L76.1552 216.391L105.736 175.689L107.354 176.865L77.773 217.567L84.2779 216.537C84.8234 216.451 85.3356 216.823 85.4219 217.369C85.5082 217.914 85.136 218.426 84.5905 218.513Z" fill="#000"/>
<path fill-rule="evenodd" clip-rule="evenodd" d="M267.894 208.666L266.351 217.533C266.257 218.077 265.739 218.442 265.195 218.347L256.328 216.805C255.784 216.71 255.419 216.192 255.514 215.648C255.609 215.104 256.127 214.74 256.671 214.834L263.159 215.963L234.205 174.813L235.84 173.662L264.795 214.812L265.923 208.324C266.018 207.78 266.536 207.415 267.08 207.51C267.624 207.604 267.988 208.122 267.894 208.666Z" fill="#000"/>
<path fill-rule="evenodd" clip-rule="evenodd" d="M199.615 121.62L193.251 127.984C192.861 128.374 192.228 128.374 191.837 127.984L185.473 121.62C185.083 121.229 185.083 120.596 185.473 120.206C185.864 119.815 186.497 119.815 186.887 120.206L191.544 124.863L191.544 82.2769L193.544 82.2769L193.544 124.863L198.201 120.206C198.592 119.815 199.225 119.815 199.615 120.206C200.006 120.596 200.006 121.229 199.615 121.62Z" fill="#000"/>
</svg>
