<svg width="345" height="345" viewBox="0 0 345 345" fill="none" xmlns="http://www.w3.org/2000/svg">
<path d="M231.3 140.84C231.66 144.08 232.74 147.86 233.82 152.54C237.96 167.48 257.58 238.76 261.36 251C262.44 254.42 264.06 260 265.32 263.24L249.84 267.38C249.48 263.24 248.58 258.56 247.32 254.24C243.54 241.28 224.28 168.74 220.14 155.42C218.88 151.1 217.44 147.5 215.82 144.62L231.3 140.84ZM317.7 165.68C310.14 180.8 291.6 206.18 279.18 218.24L266.58 211.76C277.74 202.22 291.42 185.48 297.54 174.86C289.62 176.3 205.38 193.22 192.6 195.92L189 182.24C194.04 181.7 198.54 181.16 203.94 180.08C212.94 178.64 291.42 163.88 301.68 161.54C304.02 161 306.72 160.1 308.52 159.2L317.7 165.68Z" fill="#f00"/>
<path d="M56.0004 112.76C66.6204 118.7 87.3204 132.56 95.2404 138.32L86.7804 150.56C78.1404 143.9 58.5204 130.94 48.0804 125L56.0004 112.76ZM29.0004 241.46C48.8004 238.04 71.1204 230.84 89.4804 220.58C119.36 203.48 143.12 179.9 157.52 154.52L166.34 169.46C150.68 193.58 125.84 216.8 97.0404 233.72C78.8604 244.34 54.0204 252.62 37.4604 256.04L29.0004 241.46ZM29.0004 153.26C39.6204 159.02 60.6804 171.98 68.4204 177.56L60.1404 190.16C51.3204 183.68 31.8804 171.26 20.9004 165.5L29.0004 153.26Z" fill="#f00"/>
<path d="M78.499 105.978V96.1582H78.3579L75.3779 98.25V96.1914L78.5073 94H80.6406V105.978H78.499Z" fill="#000"/>
<path d="M52.1353 275.554V273.894H53.5962C54.2049 273.894 54.7002 273.728 55.082 273.396C55.4639 273.059 55.6548 272.622 55.6548 272.085C55.6548 271.553 55.4666 271.13 55.0903 270.815C54.7196 270.494 54.2215 270.333 53.5962 270.333C52.9764 270.333 52.4728 270.497 52.0854 270.823C51.7036 271.149 51.4933 271.595 51.4546 272.159H49.4541C49.5094 271.058 49.9134 270.189 50.666 269.553C51.4186 268.911 52.4175 268.59 53.6626 268.59C54.8247 268.59 55.7904 268.894 56.5596 269.503C57.3343 270.106 57.7217 270.867 57.7217 271.786C57.7217 272.489 57.5252 273.089 57.1323 273.587C56.745 274.085 56.2192 274.403 55.5552 274.542V274.683C56.3742 274.777 57.0189 275.084 57.4893 275.604C57.9652 276.124 58.2031 276.783 58.2031 277.58C58.2031 278.609 57.7715 279.464 56.9082 280.145C56.0505 280.825 54.9714 281.166 53.6709 281.166C52.3815 281.166 51.3301 280.837 50.5166 280.178C49.7087 279.519 49.277 278.642 49.2217 277.547H51.272C51.3162 278.1 51.557 278.543 51.9941 278.875C52.4313 279.201 52.9958 279.365 53.6875 279.365C54.3737 279.365 54.9326 279.187 55.3643 278.833C55.8014 278.474 56.02 278.011 56.02 277.447C56.02 276.86 55.807 276.398 55.3809 276.061C54.9548 275.723 54.3737 275.554 53.6377 275.554H52.1353Z" fill="#000"/>
<path d="M42.1475 135.802C42.1475 134.684 42.5348 133.771 43.3096 133.062C44.0898 132.354 45.0942 132 46.3228 132C47.507 132 48.481 132.324 49.2446 132.971C50.0138 133.619 50.3984 134.443 50.3984 135.445C50.3984 136.087 50.2048 136.723 49.8174 137.354C49.43 137.979 48.7272 138.796 47.709 139.803L45.2021 142.318V142.459H50.5811V144.277H42.2637V142.791L46.2563 138.707C47.0754 137.877 47.6204 137.254 47.8916 136.839C48.1628 136.419 48.2983 135.998 48.2983 135.578C48.2983 135.052 48.1047 134.618 47.7173 134.274C47.3354 133.931 46.8485 133.76 46.2563 133.76C45.631 133.76 45.1247 133.948 44.7373 134.324C44.3499 134.701 44.1562 135.193 44.1562 135.802V135.835H42.1475V135.802Z" fill="#000"/>
<path fill-rule="evenodd" clip-rule="evenodd" d="M98.363 119.316L100.441 128.073C100.568 128.61 100.236 129.149 99.6986 129.277L90.9417 131.354C90.4044 131.482 89.8654 131.15 89.7379 130.612C89.6104 130.075 89.9427 129.536 90.48 129.408L96.8879 127.888L62.3394 106.59L63.3889 104.888L97.9374 126.186L96.4171 119.778C96.2896 119.24 96.6218 118.701 97.1592 118.574C97.6966 118.446 98.2355 118.779 98.363 119.316Z" fill="#000"/>
<path fill-rule="evenodd" clip-rule="evenodd" d="M69.363 157.854L71.4408 166.611C71.5683 167.148 71.236 167.687 70.6986 167.815L61.9417 169.892C61.4044 170.02 60.8654 169.688 60.7379 169.15C60.6104 168.613 60.9427 168.074 61.48 167.947L67.8879 166.426L33.3394 145.128L34.3889 143.426L68.9374 164.724L67.4171 158.316C67.2896 157.778 67.6218 157.239 68.1592 157.112C68.6966 156.984 69.2355 157.317 69.363 157.854Z" fill="#000"/>
<path fill-rule="evenodd" clip-rule="evenodd" d="M124.792 225.872C125.342 225.925 125.745 226.414 125.691 226.963L124.825 235.921C124.771 236.471 124.283 236.874 123.733 236.82C123.183 236.767 122.781 236.279 122.834 235.729L123.47 229.15C98.3542 249.257 71.7722 258.972 42.3922 264.848L42 262.886C71.1518 257.056 97.3917 247.451 122.173 227.627L115.642 226.995C115.092 226.942 114.689 226.453 114.743 225.904C114.796 225.354 115.285 224.952 115.834 225.005L124.792 225.872Z" fill="#000"/>
<path d="M186.121 166.978V157.158H185.98L183 159.25V157.191L186.129 155H188.263V166.978H186.121Z" fill="#000"/>
<path d="M243 118.802C243 117.684 243.387 116.771 244.162 116.062C244.942 115.354 245.947 115 247.175 115C248.36 115 249.333 115.324 250.097 115.971C250.866 116.619 251.251 117.443 251.251 118.445C251.251 119.087 251.057 119.723 250.67 120.354C250.283 120.979 249.58 121.796 248.562 122.803L246.055 125.318V125.459H251.434V127.277H243.116V125.791L247.109 121.707C247.928 120.877 248.473 120.254 248.744 119.839C249.015 119.419 249.151 118.998 249.151 118.578C249.151 118.052 248.957 117.618 248.57 117.274C248.188 116.931 247.701 116.76 247.109 116.76C246.484 116.76 245.977 116.948 245.59 117.324C245.202 117.701 245.009 118.193 245.009 118.802V118.835H243V118.802Z" fill="#000"/>
<path fill-rule="evenodd" clip-rule="evenodd" d="M211.264 159.217L218.797 164.141C219.26 164.443 219.389 165.063 219.087 165.525L214.163 173.059C213.861 173.521 213.241 173.651 212.779 173.349C212.317 173.047 212.187 172.427 212.489 171.965L216.092 166.452L184.41 172.957L184 171L215.682 164.495L210.17 160.891C209.707 160.589 209.578 159.969 209.88 159.507C210.182 159.045 210.802 158.915 211.264 159.217Z" fill="#000"/>
<path fill-rule="evenodd" clip-rule="evenodd" d="M254.104 158.726L249.604 166.521C249.328 166.999 248.716 167.163 248.238 166.887L240.444 162.387C239.965 162.111 239.801 161.499 240.078 161.021C240.354 160.542 240.965 160.379 241.444 160.655L247.147 163.948L235.148 119.165L237.079 118.647L249.079 163.43L252.372 157.726C252.648 157.248 253.26 157.084 253.738 157.36C254.216 157.637 254.38 158.248 254.104 158.726Z" fill="#000"/>
<path fill-rule="evenodd" clip-rule="evenodd" d="M306.11 152.911C299.087 153.52 290.878 155.344 282.291 157.957L281.709 156.044C290.372 153.407 298.726 151.543 305.937 150.918C313.11 150.296 319.319 150.883 323.561 153.321C325.708 154.555 327.356 156.267 328.341 158.518C329.322 160.759 329.614 163.459 329.186 166.626C328.388 172.534 325.061 180.235 318.654 190.063L325.144 188.801C325.686 188.695 326.211 189.049 326.316 189.592C326.422 190.134 326.068 190.659 325.526 190.764L316.691 192.482C316.149 192.587 315.624 192.233 315.519 191.691L313.801 182.857C313.695 182.314 314.049 181.79 314.591 181.684C315.134 181.579 315.659 181.933 315.764 182.475L317.016 188.913C323.336 179.208 326.466 171.823 327.204 166.359C327.597 163.455 327.307 161.144 326.509 159.32C325.715 157.507 324.386 156.102 322.564 155.055C318.868 152.93 313.172 152.298 306.11 152.911Z" fill="#000"/>
</svg>
