<svg width="345" height="345" viewBox="0 0 345 345" fill="none" xmlns="http://www.w3.org/2000/svg">
<path d="M201.96 152.36C205.38 152.72 215.639 152.9 220.499 152.9C230.579 152.9 275.4 152.9 289.98 152.9C294.12 152.9 298.62 152.72 301.14 152.72C300.96 154.7 300.959 158.48 300.959 161.9C300.959 168.2 300.959 236.24 300.959 251.54C300.959 254.42 301.14 258.56 301.14 261.26H286.92C287.1 259.1 287.1 254.78 287.1 251C287.1 232.1 287.1 171.26 287.1 165.86C281.16 165.86 230.399 165.86 220.499 165.86C215.639 165.86 205.38 166.22 201.96 166.22V152.36ZM205.919 195.02C209.519 195.38 216 195.74 222.12 195.74C231.3 195.74 288.899 195.74 294.119 195.74V208.7C288.899 208.7 231.3 208.7 222.12 208.7C216 208.7 209.519 208.7 205.919 209.06V195.02ZM199.979 239.84C202.859 240.2 208.44 240.56 214.74 240.56C225 240.56 286.379 240.56 294.299 240.56V253.88C285.299 253.88 225 253.88 214.74 253.88C209.16 253.88 202.859 254.24 199.979 254.24V239.84Z" fill="#f00"/>
<path d="M34.0396 133.82C39.7996 134.36 45.7396 134.72 51.6796 134.72C63.0196 134.72 119.72 134.72 128.9 134.72C135.38 134.72 141.68 134.36 146.54 133.82V150.02C141.68 149.84 134.84 149.66 128.9 149.66C119.9 149.66 60.4996 149.66 51.6796 149.66C45.5596 149.66 39.4396 149.84 34.0396 150.02V133.82ZM18.5596 223.1C24.6796 223.46 30.7996 224 37.4596 224C47.7196 224 134.84 224 145.28 224C150.5 224 156.44 223.64 161.66 223.1V240.38C156.26 239.84 149.96 239.48 145.28 239.48C134.84 239.48 47.7196 239.48 37.4596 239.48C30.7996 239.48 24.4996 239.84 18.5596 240.38V223.1Z" fill="#f00"/>
<path d="M23.2832 199.802C23.2832 198.684 23.6706 197.771 24.4453 197.062C25.2256 196.354 26.23 196 27.4585 196C28.6427 196 29.6167 196.324 30.3804 196.971C31.1496 197.619 31.5342 198.443 31.5342 199.445C31.5342 200.087 31.3405 200.723 30.9531 201.354C30.5658 201.979 29.863 202.796 28.8447 203.803L26.3379 206.318V206.459H31.7168V208.277H23.3994V206.791L27.3921 202.707C28.2111 201.877 28.7562 201.254 29.0273 200.839C29.2985 200.419 29.4341 199.998 29.4341 199.578C29.4341 199.052 29.2404 198.618 28.853 198.274C28.4712 197.931 27.9842 197.76 27.3921 197.76C26.7668 197.76 26.2604 197.948 25.873 198.324C25.4857 198.701 25.292 199.193 25.292 199.802V199.835H23.2832V199.802Z" fill="#000"/>
<path fill-rule="evenodd" clip-rule="evenodd" d="M95.3431 206.206L101.707 212.57C102.098 212.96 102.098 213.594 101.707 213.984L95.3431 220.348C94.9526 220.739 94.3195 220.739 93.9289 220.348C93.5384 219.958 93.5384 219.324 93.9289 218.934L98.5858 214.277L21 214.277L21 212.277L98.5858 212.277L93.9289 207.62C93.5384 207.23 93.5384 206.596 93.9289 206.206C94.3195 205.815 94.9526 205.815 95.3431 206.206Z" fill="#000"/>
<path fill-rule="evenodd" clip-rule="evenodd" d="M87.3431 115.929L93.7071 122.293C94.0976 122.683 94.0976 123.316 93.7071 123.707L87.3431 130.071C86.9526 130.461 86.3195 130.461 85.9289 130.071C85.5384 129.68 85.5384 129.047 85.9289 128.657L90.5858 124L37 124L37 122L90.5858 122L85.9289 117.343C85.5384 116.952 85.5384 116.319 85.9289 115.929C86.3195 115.538 86.9526 115.538 87.3431 115.929Z" fill="#000"/>
<path d="M40.1211 118.978V109.158H39.98L37 111.25V109.191L40.1294 107H42.2627V118.978H40.1211Z" fill="#000"/>
<path d="M245.121 137.978V128.158H244.98L242 130.25V128.191L245.129 126H247.263V137.978H245.121Z" fill="#000"/>
<path d="M209.283 171.802C209.283 170.684 209.671 169.771 210.445 169.062C211.226 168.354 212.23 168 213.458 168C214.643 168 215.617 168.324 216.38 168.971C217.15 169.619 217.534 170.443 217.534 171.445C217.534 172.087 217.34 172.723 216.953 173.354C216.566 173.979 215.863 174.796 214.845 175.803L212.338 178.318V178.459H217.717V180.277H209.399V178.791L213.392 174.707C214.211 173.877 214.756 173.254 215.027 172.839C215.299 172.419 215.434 171.998 215.434 171.578C215.434 171.052 215.24 170.618 214.853 170.274C214.471 169.931 213.984 169.76 213.392 169.76C212.767 169.76 212.26 169.948 211.873 170.324C211.486 170.701 211.292 171.193 211.292 171.802V171.835H209.283V171.802Z" fill="#000"/>
<path d="M206.439 220.964V219.304H207.9C208.509 219.304 209.004 219.138 209.386 218.806C209.768 218.469 209.958 218.031 209.958 217.495C209.958 216.963 209.77 216.54 209.394 216.225C209.023 215.904 208.525 215.743 207.9 215.743C207.28 215.743 206.777 215.906 206.389 216.233C206.007 216.559 205.797 217.005 205.758 217.569H203.758C203.813 216.468 204.217 215.599 204.97 214.963C205.722 214.321 206.721 214 207.966 214C209.128 214 210.094 214.304 210.863 214.913C211.638 215.516 212.025 216.277 212.025 217.196C212.025 217.899 211.829 218.499 211.436 218.997C211.049 219.495 210.523 219.813 209.859 219.952V220.093C210.678 220.187 211.323 220.494 211.793 221.014C212.269 221.534 212.507 222.193 212.507 222.99C212.507 224.019 212.075 224.874 211.212 225.555C210.354 226.235 209.275 226.576 207.975 226.576C206.685 226.576 205.634 226.246 204.82 225.588C204.012 224.929 203.581 224.052 203.525 222.957H205.576C205.62 223.51 205.861 223.953 206.298 224.285C206.735 224.611 207.299 224.774 207.991 224.774C208.677 224.774 209.236 224.597 209.668 224.243C210.105 223.883 210.324 223.421 210.324 222.857C210.324 222.27 210.111 221.808 209.685 221.471C209.258 221.133 208.677 220.964 207.941 220.964H206.439Z" fill="#000"/>
<path fill-rule="evenodd" clip-rule="evenodd" d="M310.34 144H240V142H312.34V218.586L316.997 213.929C317.387 213.538 318.02 213.538 318.411 213.929C318.801 214.319 318.801 214.953 318.411 215.343L312.047 221.707C311.656 222.098 311.023 222.098 310.633 221.707L304.269 215.343C303.878 214.953 303.878 214.319 304.269 213.929C304.659 213.538 305.292 213.538 305.683 213.929L310.34 218.586V144Z" fill="#000"/>
<path fill-rule="evenodd" clip-rule="evenodd" d="M257.343 180.206L263.707 186.57C264.098 186.96 264.098 187.594 263.707 187.984L257.343 194.348C256.953 194.739 256.319 194.739 255.929 194.348C255.538 193.958 255.538 193.324 255.929 192.934L260.586 188.277L207 188.277L207 186.277L260.586 186.277L255.929 181.62C255.538 181.23 255.538 180.596 255.929 180.206C256.319 179.815 256.953 179.815 257.343 180.206Z" fill="#000"/>
<path fill-rule="evenodd" clip-rule="evenodd" d="M252.343 224.206L258.707 230.57C259.098 230.96 259.098 231.594 258.707 231.984L252.343 238.348C251.953 238.739 251.319 238.739 250.929 238.348C250.538 237.958 250.538 237.324 250.929 236.934L255.586 232.277L202 232.277L202 230.277L255.586 230.277L250.929 225.62C250.538 225.23 250.538 224.596 250.929 224.206C251.319 223.815 251.953 223.815 252.343 224.206Z" fill="#000"/>
</svg>
