<svg width="345" height="345" viewBox="0 0 345 345" fill="none" xmlns="http://www.w3.org/2000/svg">
<path d="M294.48 165.5C293.94 167.12 293.4 169.46 293.4 171.08C291.78 184.58 285.3 227.78 283.14 240.38H268.02C270 230.66 276.66 186.56 277.2 175.04C266.04 175.04 225 175.04 220.14 175.04C214.92 175.04 210.06 175.22 205.56 175.58V160.46C209.88 161 215.46 161.36 219.96 161.36C226.8 161.36 264.6 161.36 274.68 161.36C277.56 161.36 282.06 161 283.5 160.1L294.48 165.5ZM188.64 234.62C192.96 235.16 198.18 235.52 203.58 235.52C213.3 235.52 292.32 235.52 301.86 235.52C305.82 235.52 312.3 235.16 316.08 234.8V249.38C312.66 249.2 306.18 249.2 302.22 249.2C292.14 249.2 212.58 249.2 203.58 249.2C198.18 249.2 194.04 249.38 188.64 249.56V234.62Z" fill="#f00"/>
<path d="M59.24 112.58C58.7 116.9 58.34 122.12 58.34 127.16C58.34 136.88 58.34 209.24 58.34 222.2C58.34 231.56 62.12 233.9 70.94 235.52C76.52 236.6 85.88 237.14 94.7 237.14C113.78 237.14 141.32 235.16 156.26 231.2V247.76C140.6 250.1 113.6 251.36 93.98 251.36C83.36 251.36 72.56 251 65.18 249.74C51.32 247.22 43.58 240.92 43.58 226.16C43.58 208.88 43.58 136.88 43.58 127.16C43.58 122.3 43.22 116.18 42.5 112.58H59.24ZM51.68 169.46C73.28 164.78 108.02 154.16 128.72 145.16C134.3 142.82 139.52 140.3 144.56 137.06L151.04 151.46C145.82 153.62 139.34 156.5 133.94 158.48C111.62 167.66 74 178.82 51.68 184.4V169.46Z" fill="#f00"/>
<path d="M73.8857 142.275V132.455H73.7446L70.7646 134.547V132.488L73.894 130.297H76.0273V142.275H73.8857Z" fill="#000"/>
<path d="M16 115.802C16 114.684 16.3874 113.771 17.1621 113.062C17.9424 112.354 18.9468 112 20.1753 112C21.3595 112 22.3335 112.324 23.0972 112.971C23.8664 113.619 24.251 114.443 24.251 115.445C24.251 116.087 24.0573 116.723 23.6699 117.354C23.2826 117.979 22.5798 118.796 21.5615 119.803L19.0547 122.318V122.459H24.4336V124.277H16.1162V122.791L20.1089 118.707C20.9279 117.877 21.473 117.254 21.7441 116.839C22.0153 116.419 22.1509 115.998 22.1509 115.578C22.1509 115.052 21.9572 114.618 21.5698 114.274C21.188 113.931 20.701 113.76 20.1089 113.76C19.4836 113.76 18.9772 113.948 18.5898 114.324C18.2025 114.701 18.0088 115.193 18.0088 115.802V115.835H16V115.802Z" fill="#000"/>
<path fill-rule="evenodd" clip-rule="evenodd" d="M138.766 120.5L146.89 124.372C147.389 124.61 147.6 125.207 147.363 125.705L143.49 133.829C143.253 134.328 142.656 134.54 142.157 134.302C141.659 134.064 141.447 133.468 141.685 132.969L144.519 127.024L67.7941 154.217L67.126 152.332L143.85 125.139L137.905 122.305C137.407 122.068 137.195 121.471 137.433 120.972C137.671 120.474 138.267 120.262 138.766 120.5Z" fill="#000"/>
<path fill-rule="evenodd" clip-rule="evenodd" d="M39.7882 162.62L33.4242 168.984C33.0337 169.374 32.4005 169.374 32.01 168.984L25.646 162.62C25.2555 162.229 25.2555 161.596 25.646 161.206C26.0365 160.815 26.6697 160.815 27.0602 161.206L31.7171 165.863L31.7171 112.277L33.7171 112.277L33.7171 165.863L38.3739 161.206C38.7645 160.815 39.3976 160.815 39.7882 161.206C40.1787 161.596 40.1787 162.229 39.7882 162.62Z" fill="#000"/>
<path d="M247.121 144.978V135.158H246.98L244 137.25V135.191L247.129 133H249.263V144.978H247.121Z" fill="#000"/>
<path d="M194.283 208.802C194.283 207.684 194.671 206.771 195.445 206.062C196.226 205.354 197.23 205 198.458 205C199.643 205 200.617 205.324 201.38 205.971C202.15 206.619 202.534 207.443 202.534 208.445C202.534 209.087 202.34 209.723 201.953 210.354C201.566 210.979 200.863 211.796 199.845 212.803L197.338 215.318V215.459H202.717V217.277H194.399V215.791L198.392 211.707C199.211 210.877 199.756 210.254 200.027 209.839C200.299 209.419 200.434 208.998 200.434 208.578C200.434 208.052 200.24 207.618 199.853 207.274C199.471 206.931 198.984 206.76 198.392 206.76C197.767 206.76 197.26 206.948 196.873 207.324C196.486 207.701 196.292 208.193 196.292 208.802V208.835H194.283V208.802Z" fill="#000"/>
<path fill-rule="evenodd" clip-rule="evenodd" d="M239.343 218.206L245.707 224.57C246.098 224.96 246.098 225.594 245.707 225.984L239.343 232.348C238.953 232.739 238.319 232.739 237.929 232.348C237.538 231.958 237.538 231.324 237.929 230.934L242.586 226.277L189 226.277L189 224.277L242.586 224.277L237.929 219.62C237.538 219.23 237.538 218.596 237.929 218.206C238.319 217.815 238.953 217.815 239.343 218.206Z" fill="#000"/>
<path fill-rule="evenodd" clip-rule="evenodd" d="M306.361 151.5H241V149.5H308.639L301.304 205.735L306.524 201.72C306.962 201.383 307.59 201.465 307.926 201.903C308.263 202.341 308.181 202.968 307.743 203.305L300.61 208.793C300.172 209.129 299.544 209.047 299.207 208.61L293.72 201.476C293.383 201.038 293.465 200.41 293.903 200.074C294.341 199.737 294.968 199.819 295.305 200.257L299.321 205.477L306.361 151.5Z" fill="#000"/>
</svg>
