<svg width="345" height="345" viewBox="0 0 345 345" fill="none" xmlns="http://www.w3.org/2000/svg">
<path d="M231.3 140.84C231.66 144.08 232.74 147.86 233.82 152.54C237.96 167.48 257.58 238.76 261.36 251C262.44 254.42 264.06 260 265.32 263.24L249.84 267.38C249.48 263.24 248.58 258.56 247.32 254.24C243.54 241.28 224.28 168.74 220.14 155.42C218.88 151.1 217.44 147.5 215.82 144.62L231.3 140.84ZM317.7 165.68C310.14 180.8 291.6 206.18 279.18 218.24L266.58 211.76C277.74 202.22 291.42 185.48 297.54 174.86C289.62 176.3 205.38 193.22 192.6 195.92L189 182.24C194.04 181.7 198.54 181.16 203.94 180.08C212.94 178.64 291.42 163.88 301.68 161.54C304.02 161 306.72 160.1 308.52 159.2L317.7 165.68Z" fill="#f00"/>
<path d="M53.6601 114.74C77.0601 117.8 125.3 127.88 147.98 135.8L142.22 149.66C120.44 141.56 73.2801 131.3 48.4401 128.06L53.6601 114.74ZM45.3801 162.26C70.0401 166.58 113.78 175.76 136.1 183.86L130.52 197.72C109.64 189.62 65.5401 179.72 39.9801 175.76L45.3801 162.26ZM35.6601 214.64C65.7201 219.5 118.1 231.74 142.76 241.64L136.46 255.5C112.7 245.06 59.0601 233 30.0801 228.5L35.6601 214.64Z" fill="#f00"/>
<path d="M69.8701 99.978V90.1582H69.729L66.749 92.25V90.1914L69.8784 88H72.0117V99.978H69.8701Z" fill="#000"/>
<path d="M50.7275 140.802C50.7275 139.684 51.1149 138.771 51.8896 138.062C52.6699 137.354 53.6743 137 54.9028 137C56.0871 137 57.061 137.324 57.8247 137.971C58.5939 138.619 58.9785 139.443 58.9785 140.445C58.9785 141.087 58.7848 141.723 58.3975 142.354C58.0101 142.979 57.3073 143.796 56.2891 144.803L53.7822 147.318V147.459H59.1611V149.277H50.8438V147.791L54.8364 143.707C55.6554 142.877 56.2005 142.254 56.4717 141.839C56.7428 141.419 56.8784 140.998 56.8784 140.578C56.8784 140.052 56.6847 139.618 56.2974 139.274C55.9155 138.931 55.4285 138.76 54.8364 138.76C54.2111 138.76 53.7048 138.948 53.3174 139.324C52.93 139.701 52.7363 140.193 52.7363 140.802V140.835H50.7275V140.802Z" fill="#000"/>
<path d="M47.1196 195.666V194.005H48.5806C49.1893 194.005 49.6846 193.839 50.0664 193.507C50.4482 193.17 50.6392 192.733 50.6392 192.196C50.6392 191.665 50.451 191.241 50.0747 190.926C49.7039 190.605 49.2059 190.444 48.5806 190.444C47.9608 190.444 47.4572 190.608 47.0698 190.934C46.688 191.261 46.4777 191.706 46.439 192.271H44.4385C44.4938 191.169 44.8978 190.3 45.6504 189.664C46.403 189.022 47.4019 188.701 48.647 188.701C49.8091 188.701 50.7747 189.006 51.5439 189.614C52.3187 190.217 52.7061 190.978 52.7061 191.897C52.7061 192.6 52.5096 193.2 52.1167 193.698C51.7293 194.196 51.2036 194.514 50.5396 194.653V194.794C51.3586 194.888 52.0033 195.195 52.4736 195.715C52.9495 196.236 53.1875 196.894 53.1875 197.691C53.1875 198.72 52.7559 199.575 51.8926 200.256C51.0348 200.937 49.9557 201.277 48.6553 201.277C47.3659 201.277 46.3145 200.948 45.501 200.289C44.693 199.631 44.2614 198.753 44.2061 197.658H46.2563C46.3006 198.211 46.5413 198.654 46.9785 198.986C47.4157 199.312 47.9801 199.476 48.6719 199.476C49.3581 199.476 49.917 199.299 50.3486 198.944C50.7858 198.585 51.0044 198.123 51.0044 197.558C51.0044 196.972 50.7913 196.509 50.3652 196.172C49.9391 195.834 49.3581 195.666 48.6221 195.666H47.1196Z" fill="#000"/>
<path fill-rule="evenodd" clip-rule="evenodd" d="M137.284 113.935L142.277 121.423C142.583 121.883 142.459 122.503 141.999 122.81L134.511 127.802C134.051 128.108 133.43 127.984 133.124 127.525C132.818 127.065 132.942 126.444 133.401 126.138L138.881 122.485L56.2484 105.958L56.6406 103.997L139.273 120.524L135.62 115.044C135.314 114.585 135.438 113.964 135.897 113.657C136.357 113.351 136.978 113.475 137.284 113.935Z" fill="#000"/>
<path fill-rule="evenodd" clip-rule="evenodd" d="M127.284 163.233L132.277 170.722C132.583 171.181 132.459 171.802 131.999 172.109L124.511 177.101C124.051 177.407 123.43 177.283 123.124 176.824C122.818 176.364 122.942 175.743 123.401 175.437L128.881 171.784L46.2484 155.257L46.6406 153.296L129.273 169.823L125.62 164.343C125.314 163.883 125.438 163.262 125.897 162.956C126.357 162.65 126.978 162.774 127.284 163.233Z" fill="#000"/>
<path fill-rule="evenodd" clip-rule="evenodd" d="M117.52 215.935L122.512 223.423C122.818 223.883 122.694 224.503 122.235 224.81L114.746 229.802C114.287 230.108 113.666 229.984 113.359 229.525C113.053 229.065 113.177 228.444 113.637 228.138L119.116 224.485L36.4837 207.958L36.8759 205.997L119.509 222.524L115.855 217.044C115.549 216.585 115.673 215.964 116.133 215.657C116.592 215.351 117.213 215.475 117.52 215.935Z" fill="#000"/>
<path d="M186.121 166.978V157.158H185.98L183 159.25V157.191L186.129 155H188.263V166.978H186.121Z" fill="#000"/>
<path d="M243 118.802C243 117.684 243.387 116.771 244.162 116.062C244.942 115.354 245.947 115 247.175 115C248.36 115 249.333 115.324 250.097 115.971C250.866 116.619 251.251 117.443 251.251 118.445C251.251 119.087 251.057 119.723 250.67 120.354C250.283 120.979 249.58 121.796 248.562 122.803L246.055 125.318V125.459H251.434V127.277H243.116V125.791L247.109 121.707C247.928 120.877 248.473 120.254 248.744 119.839C249.015 119.419 249.151 118.998 249.151 118.578C249.151 118.052 248.957 117.618 248.57 117.274C248.188 116.931 247.701 116.76 247.109 116.76C246.484 116.76 245.977 116.948 245.59 117.324C245.202 117.701 245.009 118.193 245.009 118.802V118.835H243V118.802Z" fill="#000"/>
<path fill-rule="evenodd" clip-rule="evenodd" d="M211.264 159.217L218.797 164.141C219.26 164.443 219.389 165.063 219.087 165.525L214.163 173.059C213.861 173.521 213.241 173.651 212.779 173.349C212.317 173.047 212.187 172.427 212.489 171.965L216.092 166.452L184.41 172.957L184 171L215.682 164.495L210.17 160.891C209.707 160.589 209.578 159.969 209.88 159.507C210.182 159.045 210.802 158.915 211.264 159.217Z" fill="#000"/>
<path fill-rule="evenodd" clip-rule="evenodd" d="M254.104 158.726L249.604 166.521C249.328 166.999 248.716 167.163 248.238 166.887L240.444 162.387C239.965 162.111 239.801 161.499 240.078 161.021C240.354 160.542 240.965 160.379 241.444 160.655L247.147 163.948L235.148 119.165L237.079 118.647L249.079 163.43L252.372 157.726C252.648 157.248 253.26 157.084 253.738 157.36C254.216 157.637 254.38 158.248 254.104 158.726Z" fill="#000"/>
<path fill-rule="evenodd" clip-rule="evenodd" d="M306.11 152.911C299.087 153.52 290.878 155.344 282.291 157.957L281.709 156.044C290.372 153.407 298.726 151.543 305.937 150.918C313.11 150.296 319.319 150.883 323.561 153.321C325.708 154.555 327.356 156.267 328.341 158.518C329.322 160.759 329.614 163.459 329.186 166.626C328.388 172.534 325.061 180.235 318.654 190.063L325.144 188.801C325.686 188.695 326.211 189.049 326.316 189.592C326.422 190.134 326.068 190.659 325.526 190.764L316.691 192.482C316.149 192.587 315.624 192.233 315.519 191.691L313.801 182.857C313.695 182.314 314.049 181.79 314.591 181.684C315.134 181.579 315.659 181.933 315.764 182.475L317.016 188.913C323.336 179.208 326.466 171.823 327.204 166.359C327.597 163.455 327.307 161.144 326.509 159.32C325.715 157.507 324.386 156.102 322.564 155.055C318.868 152.93 313.172 152.298 306.11 152.911Z" fill="#000"/>
</svg>
