<svg width="345" height="345" viewBox="0 0 345 345" fill="none" xmlns="http://www.w3.org/2000/svg">
<path d="M211.746 152.359C215.166 152.719 225.426 152.899 230.286 152.899C240.366 152.899 285.186 152.899 299.766 152.899C303.906 152.899 308.406 152.719 310.926 152.719C310.746 154.699 310.746 158.479 310.746 161.899C310.746 168.199 310.746 236.239 310.746 251.539C310.746 254.419 310.926 258.559 310.926 261.259H296.706C296.886 259.099 296.886 254.779 296.886 250.999C296.886 232.099 296.886 171.259 296.886 165.859C290.946 165.859 240.186 165.859 230.286 165.859C225.426 165.859 215.166 166.219 211.746 166.219V152.359ZM215.706 195.019C219.306 195.379 225.786 195.739 231.906 195.739C241.086 195.739 298.686 195.739 303.906 195.739V208.699C298.686 208.699 241.086 208.699 231.906 208.699C225.786 208.699 219.306 208.699 215.706 209.059V195.019ZM209.766 239.839C212.646 240.199 218.226 240.559 224.526 240.559C234.786 240.559 296.166 240.559 304.086 240.559V253.879C295.086 253.879 234.786 253.879 224.526 253.879C218.946 253.879 212.646 254.239 209.766 254.239V239.839Z" fill="#f00"/>
<path d="M128.835 137.42C132.975 143.54 138.735 152.72 142.695 160.64L133.335 164.96C129.195 156.14 125.235 148.94 119.835 141.38L128.835 137.42ZM147.735 130.4C152.055 136.34 157.995 145.52 162.135 153.26L152.955 157.58C148.635 148.94 144.495 142.1 138.915 134.54L147.735 130.4ZM17.2353 128.24C30.7353 128.96 58.2753 128.06 77.7153 125.54C94.0953 123.2 115.335 118.88 124.155 115.1L133.515 127.7C129.555 128.6 126.135 129.5 123.435 130.22C112.995 132.92 96.4353 136.16 81.8553 137.96C61.6953 140.66 37.0353 141.38 20.8353 141.56L17.2353 128.24ZM27.3153 250.82C58.0953 236.6 73.2153 214.1 73.2153 176.84C73.2153 176.84 73.2153 160.64 73.2153 135.98L87.7953 134.18C87.7953 148.22 87.7953 176.66 87.7953 176.66C87.7953 215 75.0153 241.28 41.3553 260.72L27.3153 250.82ZM3.19531 171.08C7.15531 171.44 13.6353 171.8 19.0353 171.8C30.5553 171.8 126.315 171.8 137.475 171.8C141.435 171.8 147.915 171.44 151.695 171.08V186.02C147.735 185.66 142.335 185.3 137.835 185.3C127.035 185.3 30.3753 185.3 19.3953 185.3C13.6353 185.3 7.51531 185.66 3.19531 186.02V171.08Z" fill="#f00"/>
<path d="M113.207 95.978V86.1582H113.066L110.086 88.25V86.1914L113.215 84H115.349V95.978H113.207Z" fill="#000"/>
<path d="M105.22 197.964V196.304H106.681C107.29 196.304 107.785 196.138 108.167 195.806C108.549 195.469 108.74 195.031 108.74 194.495C108.74 193.963 108.552 193.54 108.175 193.225C107.805 192.904 107.306 192.743 106.681 192.743C106.061 192.743 105.558 192.906 105.17 193.233C104.789 193.559 104.578 194.005 104.54 194.569H102.539C102.594 193.468 102.998 192.599 103.751 191.963C104.504 191.321 105.502 191 106.748 191C107.91 191 108.875 191.304 109.645 191.913C110.419 192.516 110.807 193.277 110.807 194.196C110.807 194.899 110.61 195.499 110.217 195.997C109.83 196.495 109.304 196.813 108.64 196.952V197.093C109.459 197.187 110.104 197.494 110.574 198.014C111.05 198.534 111.288 199.193 111.288 199.99C111.288 201.019 110.856 201.874 109.993 202.555C109.135 203.235 108.056 203.576 106.756 203.576C105.466 203.576 104.415 203.246 103.602 202.588C102.794 201.929 102.362 201.052 102.307 199.957H104.357C104.401 200.51 104.642 200.953 105.079 201.285C105.516 201.611 106.081 201.774 106.772 201.774C107.459 201.774 108.018 201.597 108.449 201.243C108.886 200.883 109.105 200.421 109.105 199.857C109.105 199.27 108.892 198.808 108.466 198.471C108.04 198.133 107.459 197.964 106.723 197.964H105.22Z" fill="#000"/>
<path d="M5.78125 147.802C5.78125 146.684 6.16862 145.771 6.94336 145.062C7.72363 144.354 8.72803 144 9.95654 144C11.1408 144 12.1147 144.324 12.8784 144.971C13.6476 145.619 14.0322 146.443 14.0322 147.445C14.0322 148.087 13.8385 148.723 13.4512 149.354C13.0638 149.979 12.361 150.796 11.3428 151.803L8.83594 154.318V154.459H14.2148V156.277H5.89746V154.791L9.89014 150.707C10.7091 149.877 11.2542 149.254 11.5254 148.839C11.7965 148.419 11.9321 147.998 11.9321 147.578C11.9321 147.052 11.7384 146.618 11.3511 146.274C10.9692 145.931 10.4823 145.76 9.89014 145.76C9.26481 145.76 8.75846 145.948 8.37109 146.324C7.98372 146.701 7.79004 147.193 7.79004 147.802V147.835H5.78125V147.802Z" fill="#000"/>
<path fill-rule="evenodd" clip-rule="evenodd" d="M61.1244 153.206L67.4884 159.57C67.8789 159.96 67.8789 160.594 67.4884 160.984L61.1244 167.348C60.7339 167.739 60.1007 167.739 59.7102 167.348C59.3197 166.958 59.3197 166.324 59.7102 165.934L64.367 161.277L6.78125 161.277L6.78125 159.277L64.367 159.277L59.7102 154.62C59.3197 154.23 59.3197 153.596 59.7102 153.206C60.1007 152.815 60.7339 152.815 61.1244 153.206Z" fill="#000"/>
<path fill-rule="evenodd" clip-rule="evenodd" d="M17.2022 116.471C54.6111 116.263 97.6725 111.236 124.901 100.053L125.661 101.903C98.0717 113.234 54.6931 118.265 17.1888 118.471L21.8523 123.135C22.2428 123.525 22.2428 124.158 21.8523 124.549C21.4618 124.939 20.8286 124.939 20.4381 124.549L14.0741 118.185C13.6836 117.794 13.6836 117.161 14.0741 116.771L20.4381 110.407C20.8286 110.016 21.4618 110.016 21.8523 110.407C22.2428 110.797 22.2428 111.43 21.8523 111.821L17.2022 116.471Z" fill="#000"/>
<path fill-rule="evenodd" clip-rule="evenodd" d="M87.2988 229.323C92.4249 217.28 94.5387 203.906 96.2879 188.663L98.2749 188.891C96.5241 204.148 94.3879 217.774 89.139 230.106C84.1202 241.898 76.2744 252.465 63.2905 262.181L69.8234 263.27C70.3681 263.361 70.7361 263.876 70.6453 264.421C70.5546 264.966 70.0393 265.334 69.4946 265.243L60.617 263.763C60.0722 263.673 59.7042 263.157 59.795 262.613L61.2746 253.735C61.3654 253.19 61.8806 252.822 62.4254 252.913C62.9702 253.004 63.3382 253.519 63.2474 254.064L62.1712 260.521C74.8365 251.024 82.4337 240.753 87.2988 229.323Z" fill="#000"/>
<path d="M115.852 146.978V144.745H110V142.836C110.974 141.043 112.601 138.431 114.881 135H117.902V142.936H119.521V144.745H117.902V146.978H115.852ZM111.984 142.861V142.985H115.885V136.743H115.769C114.474 138.658 113.212 140.697 111.984 142.861Z" fill="#000"/>
<path d="M153.831 130.277C152.597 130.277 151.584 129.939 150.793 129.264C150.002 128.589 149.581 127.72 149.531 126.658H151.54C151.606 127.206 151.853 127.648 152.279 127.986C152.705 128.323 153.228 128.492 153.848 128.492C154.55 128.492 155.118 128.276 155.549 127.845C155.986 127.408 156.205 126.832 156.205 126.118C156.205 125.404 155.986 124.826 155.549 124.383C155.118 123.935 154.556 123.711 153.864 123.711C153.377 123.711 152.943 123.813 152.561 124.018C152.185 124.223 151.886 124.513 151.665 124.89H149.722L150.345 118H157.558V119.81H152.005L151.714 123.171H151.855C152.409 122.424 153.253 122.051 154.387 122.051C155.522 122.051 156.451 122.427 157.176 123.18C157.907 123.932 158.272 124.895 158.272 126.068C158.272 127.319 157.862 128.334 157.043 129.115C156.23 129.889 155.159 130.277 153.831 130.277Z" fill="#000"/>
<path d="M255.142 137.978V128.158H255L252.021 130.25V128.191L255.15 126H257.283V137.978H255.142Z" fill="#000"/>
<path d="M219.304 171.802C219.304 170.684 219.691 169.771 220.466 169.062C221.246 168.354 222.25 168 223.479 168C224.663 168 225.637 168.324 226.401 168.971C227.17 169.619 227.555 170.443 227.555 171.445C227.555 172.087 227.361 172.723 226.974 173.354C226.586 173.979 225.883 174.796 224.865 175.803L222.358 178.318V178.459H227.737V180.277H219.42V178.791L223.413 174.707C224.232 173.877 224.777 173.254 225.048 172.839C225.319 172.419 225.455 171.998 225.455 171.578C225.455 171.052 225.261 170.618 224.874 170.274C224.492 169.931 224.005 169.76 223.413 169.76C222.787 169.76 222.281 169.948 221.894 170.324C221.506 170.701 221.312 171.193 221.312 171.802V171.835H219.304V171.802Z" fill="#000"/>
<path d="M216.459 220.964V219.304H217.92C218.529 219.304 219.024 219.138 219.406 218.806C219.788 218.469 219.979 218.031 219.979 217.495C219.979 216.963 219.791 216.54 219.415 216.225C219.044 215.904 218.546 215.743 217.92 215.743C217.301 215.743 216.797 215.906 216.41 216.233C216.028 216.559 215.818 217.005 215.779 217.569H213.778C213.834 216.468 214.238 215.599 214.99 214.963C215.743 214.321 216.742 214 217.987 214C219.149 214 220.115 214.304 220.884 214.913C221.659 215.516 222.046 216.277 222.046 217.196C222.046 217.899 221.849 218.499 221.457 218.997C221.069 219.495 220.543 219.813 219.879 219.952V220.093C220.698 220.187 221.343 220.494 221.813 221.014C222.289 221.534 222.527 222.193 222.527 222.99C222.527 224.019 222.096 224.874 221.232 225.555C220.375 226.235 219.296 226.576 217.995 226.576C216.706 226.576 215.654 226.246 214.841 225.588C214.033 224.929 213.601 224.052 213.546 222.957H215.596C215.64 223.51 215.881 223.953 216.318 224.285C216.756 224.611 217.32 224.774 218.012 224.774C218.698 224.774 219.257 224.597 219.688 224.243C220.126 223.883 220.344 223.421 220.344 222.857C220.344 222.27 220.131 221.808 219.705 221.471C219.279 221.133 218.698 220.964 217.962 220.964H216.459Z" fill="#000"/>
<path fill-rule="evenodd" clip-rule="evenodd" d="M320.36 144H250.021V142H322.36V218.586L327.017 213.929C327.408 213.538 328.041 213.538 328.431 213.929C328.822 214.319 328.822 214.953 328.431 215.343L322.067 221.707C321.677 222.098 321.044 222.098 320.653 221.707L314.289 215.343C313.899 214.953 313.899 214.319 314.289 213.929C314.68 213.538 315.313 213.538 315.703 213.929L320.36 218.586V144Z" fill="#000"/>
<path fill-rule="evenodd" clip-rule="evenodd" d="M267.364 180.206L273.728 186.57C274.118 186.96 274.118 187.594 273.728 187.984L267.364 194.348C266.973 194.739 266.34 194.739 265.949 194.348C265.559 193.958 265.559 193.324 265.949 192.934L270.606 188.277L217.021 188.277L217.021 186.277L270.606 186.277L265.949 181.62C265.559 181.23 265.559 180.596 265.949 180.206C266.34 179.815 266.973 179.815 267.364 180.206Z" fill="#000"/>
<path fill-rule="evenodd" clip-rule="evenodd" d="M262.364 224.206L268.728 230.57C269.118 230.96 269.118 231.594 268.728 231.984L262.364 238.348C261.973 238.739 261.34 238.739 260.949 238.348C260.559 237.958 260.559 237.324 260.949 236.934L265.606 232.277L212.021 232.277L212.021 230.277L265.606 230.277L260.949 225.62C260.559 225.23 260.559 224.596 260.949 224.206C261.34 223.815 261.973 223.815 262.364 224.206Z" fill="#000"/>
</svg>
