<svg width="345" height="345" viewBox="0 0 345 345" fill="none" xmlns="http://www.w3.org/2000/svg">
<path d="M211.745 152.36C215.165 152.72 225.425 152.9 230.285 152.9C240.365 152.9 285.185 152.9 299.765 152.9C303.905 152.9 308.405 152.72 310.925 152.72C310.745 154.7 310.745 158.48 310.745 161.9C310.745 168.2 310.745 236.24 310.745 251.54C310.745 254.42 310.925 258.56 310.925 261.26H296.705C296.885 259.1 296.885 254.78 296.885 251C296.885 232.1 296.885 171.26 296.885 165.86C290.945 165.86 240.185 165.86 230.285 165.86C225.425 165.86 215.165 166.22 211.745 166.22V152.36ZM215.705 195.02C219.305 195.38 225.785 195.74 231.905 195.74C241.085 195.74 298.685 195.74 303.905 195.74V208.7C298.685 208.7 241.085 208.7 231.905 208.7C225.785 208.7 219.305 208.7 215.705 209.06V195.02ZM209.765 239.84C212.645 240.2 218.225 240.56 224.525 240.56C234.785 240.56 296.165 240.56 304.085 240.56V253.88C295.085 253.88 234.785 253.88 224.525 253.88C218.945 253.88 212.645 254.24 209.765 254.24V239.84Z" fill="#f00"/>
<path d="M121.095 116.72C125.595 123.38 133.695 136.16 137.835 144.8L127.575 149.48C123.075 139.94 116.955 129.14 111.015 121.04L121.095 116.72ZM144.495 108.08C149.355 114.38 157.455 127.34 161.775 135.62L151.515 140.3C146.835 130.94 140.535 120.5 134.595 112.58L144.495 108.08ZM44.0551 114.02C54.6751 119.96 75.3751 133.82 83.2951 139.58L74.6551 151.82C66.1951 145.34 46.5751 132.2 35.9551 126.26L44.0551 114.02ZM17.0551 242.72C36.8551 239.3 59.1751 232.28 77.5351 221.84C107.415 204.74 130.995 181.34 145.575 155.96L154.395 170.72C138.735 194.84 113.895 218.24 85.0951 234.98C66.9151 245.6 42.0751 254.06 25.5151 257.48L17.0551 242.72ZM17.0551 154.52C27.6751 160.28 48.7351 173.24 56.4751 178.82L48.1951 191.42C39.3751 185.12 19.9351 172.52 8.95508 166.94L17.0551 154.52Z" fill="#f00"/>
<path d="M71.5986 106.978V97.1582H71.4575L68.4775 99.25V97.1914L71.6069 95H73.7402V106.978H71.5986Z" fill="#000"/>
<path d="M45.2349 276.554V274.894H46.6958C47.3045 274.894 47.7998 274.728 48.1816 274.396C48.5635 274.058 48.7544 273.621 48.7544 273.084C48.7544 272.553 48.5662 272.13 48.1899 271.814C47.8192 271.493 47.3211 271.333 46.6958 271.333C46.076 271.333 45.5724 271.496 45.1851 271.823C44.8032 272.149 44.5929 272.595 44.5542 273.159H42.5537C42.609 272.058 43.013 271.189 43.7656 270.553C44.5182 269.911 45.5171 269.59 46.7622 269.59C47.9243 269.59 48.89 269.894 49.6592 270.503C50.4339 271.106 50.8213 271.867 50.8213 272.786C50.8213 273.488 50.6248 274.089 50.2319 274.587C49.8446 275.085 49.3188 275.403 48.6548 275.542V275.683C49.4738 275.777 50.1185 276.084 50.5889 276.604C51.0648 277.124 51.3027 277.783 51.3027 278.58C51.3027 279.609 50.8711 280.464 50.0078 281.145C49.1501 281.825 48.071 282.166 46.7705 282.166C45.4811 282.166 44.4297 281.836 43.6162 281.178C42.8083 280.519 42.3766 279.642 42.3213 278.546H44.3716C44.4159 279.1 44.6566 279.542 45.0938 279.875C45.5309 280.201 46.0954 280.364 46.7871 280.364C47.4733 280.364 48.0322 280.187 48.4639 279.833C48.901 279.473 49.1196 279.011 49.1196 278.447C49.1196 277.86 48.9066 277.398 48.4805 277.061C48.0544 276.723 47.4733 276.554 46.7373 276.554H45.2349Z" fill="#000"/>
<path d="M35.2471 136.802C35.2471 135.684 35.6344 134.771 36.4092 134.062C37.1895 133.354 38.1938 133 39.4224 133C40.6066 133 41.5806 133.324 42.3442 133.971C43.1134 134.619 43.498 135.443 43.498 136.445C43.498 137.087 43.3044 137.723 42.917 138.354C42.5296 138.979 41.8268 139.796 40.8086 140.803L38.3018 143.318V143.459H43.6807V145.277H35.3633V143.791L39.356 139.707C40.175 138.877 40.7201 138.254 40.9912 137.839C41.2624 137.419 41.3979 136.998 41.3979 136.578C41.3979 136.052 41.2043 135.618 40.8169 135.274C40.4351 134.931 39.9481 134.76 39.356 134.76C38.7306 134.76 38.2243 134.948 37.8369 135.324C37.4495 135.701 37.2559 136.193 37.2559 136.802V136.835H35.2471V136.802Z" fill="#000"/>
<path fill-rule="evenodd" clip-rule="evenodd" d="M91.4627 120.316L93.5404 129.073C93.6679 129.61 93.3356 130.149 92.7982 130.277L84.0413 132.354C83.504 132.482 82.965 132.15 82.8375 131.612C82.71 131.075 83.0423 130.536 83.5796 130.408L89.9875 128.888L55.439 107.59L56.4885 105.888L91.037 127.186L89.5167 120.778C89.3892 120.24 89.7214 119.701 90.2588 119.574C90.7962 119.446 91.3352 119.779 91.4627 120.316Z" fill="#000"/>
<path fill-rule="evenodd" clip-rule="evenodd" d="M62.4627 158.854L64.5404 167.611C64.6679 168.148 64.3356 168.687 63.7982 168.815L55.0413 170.892C54.504 171.02 53.965 170.688 53.8375 170.15C53.71 169.613 54.0423 169.074 54.5796 168.947L60.9875 167.426L26.439 146.128L27.4885 144.426L62.037 165.724L60.5167 159.316C60.3892 158.778 60.7214 158.239 61.2588 158.112C61.7962 157.984 62.3352 158.317 62.4627 158.854Z" fill="#000"/>
<path fill-rule="evenodd" clip-rule="evenodd" d="M117.892 226.872C118.442 226.925 118.844 227.414 118.791 227.963L117.924 236.921C117.871 237.471 117.382 237.874 116.832 237.82C116.283 237.767 115.88 237.279 115.933 236.729L116.57 230.15C91.4538 250.257 64.8718 259.972 35.4918 265.848L35.0996 263.886C64.2514 258.056 90.4913 248.451 115.272 228.627L108.741 227.995C108.192 227.942 107.789 227.453 107.842 226.904C107.895 226.354 108.384 225.952 108.934 226.005L117.892 226.872Z" fill="#000"/>
<path d="M128.852 111.978V109.745H123V107.836C123.974 106.043 125.601 103.431 127.881 100H130.902V107.936H132.521V109.745H130.902V111.978H128.852ZM124.984 107.861V107.985H128.885V101.743H128.769C127.474 103.658 126.212 105.697 124.984 107.861Z" fill="#000"/>
<path d="M152.831 106.277C151.597 106.277 150.584 105.939 149.793 105.264C149.002 104.589 148.581 103.72 148.531 102.658H150.54C150.606 103.206 150.853 103.648 151.279 103.986C151.705 104.323 152.228 104.492 152.848 104.492C153.55 104.492 154.118 104.276 154.549 103.845C154.986 103.408 155.205 102.832 155.205 102.118C155.205 101.404 154.986 100.826 154.549 100.383C154.118 99.9351 153.556 99.7109 152.864 99.7109C152.377 99.7109 151.943 99.8133 151.561 100.018C151.185 100.223 150.886 100.513 150.665 100.89H148.722L149.345 94H156.558V95.8096H151.005L150.714 99.1714H150.855C151.409 98.4243 152.253 98.0508 153.387 98.0508C154.522 98.0508 155.451 98.4271 156.176 99.1797C156.907 99.9323 157.272 100.895 157.272 102.068C157.272 103.319 156.862 104.334 156.043 105.115C155.23 105.889 154.159 106.277 152.831 106.277Z" fill="#000"/>
<path d="M255.142 137.978V128.158H255L252.021 130.25V128.191L255.15 126H257.283V137.978H255.142Z" fill="#000"/>
<path d="M219.304 171.802C219.304 170.684 219.691 169.771 220.466 169.062C221.246 168.354 222.25 168 223.479 168C224.663 168 225.637 168.324 226.401 168.971C227.17 169.619 227.555 170.443 227.555 171.445C227.555 172.087 227.361 172.723 226.974 173.354C226.586 173.979 225.883 174.796 224.865 175.803L222.358 178.318V178.459H227.737V180.277H219.42V178.791L223.413 174.707C224.232 173.877 224.777 173.254 225.048 172.839C225.319 172.419 225.455 171.998 225.455 171.578C225.455 171.052 225.261 170.618 224.874 170.274C224.492 169.931 224.005 169.76 223.413 169.76C222.787 169.76 222.281 169.948 221.894 170.324C221.506 170.701 221.312 171.193 221.312 171.802V171.835H219.304V171.802Z" fill="#000"/>
<path d="M216.459 220.964V219.304H217.92C218.529 219.304 219.024 219.138 219.406 218.806C219.788 218.469 219.979 218.031 219.979 217.495C219.979 216.963 219.791 216.54 219.415 216.225C219.044 215.904 218.546 215.743 217.92 215.743C217.301 215.743 216.797 215.906 216.41 216.233C216.028 216.559 215.818 217.005 215.779 217.569H213.778C213.834 216.468 214.238 215.599 214.99 214.963C215.743 214.321 216.742 214 217.987 214C219.149 214 220.115 214.304 220.884 214.913C221.659 215.516 222.046 216.277 222.046 217.196C222.046 217.899 221.849 218.499 221.457 218.997C221.069 219.495 220.543 219.813 219.879 219.952V220.093C220.698 220.187 221.343 220.494 221.813 221.014C222.289 221.534 222.527 222.193 222.527 222.99C222.527 224.019 222.096 224.874 221.232 225.555C220.375 226.235 219.296 226.576 217.995 226.576C216.706 226.576 215.654 226.246 214.841 225.588C214.033 224.929 213.601 224.052 213.546 222.957H215.596C215.64 223.51 215.881 223.953 216.318 224.285C216.756 224.611 217.32 224.774 218.012 224.774C218.698 224.774 219.257 224.597 219.688 224.243C220.126 223.883 220.344 223.421 220.344 222.857C220.344 222.27 220.131 221.808 219.705 221.471C219.279 221.133 218.698 220.964 217.962 220.964H216.459Z" fill="#000"/>
<path fill-rule="evenodd" clip-rule="evenodd" d="M320.36 144H250.021V142H322.36V218.586L327.017 213.929C327.408 213.538 328.041 213.538 328.431 213.929C328.822 214.319 328.822 214.953 328.431 215.343L322.067 221.707C321.677 222.098 321.044 222.098 320.653 221.707L314.289 215.343C313.899 214.953 313.899 214.319 314.289 213.929C314.68 213.538 315.313 213.538 315.703 213.929L320.36 218.586V144Z" fill="#000"/>
<path fill-rule="evenodd" clip-rule="evenodd" d="M267.364 180.206L273.728 186.57C274.118 186.96 274.118 187.594 273.728 187.984L267.364 194.348C266.973 194.739 266.34 194.739 265.949 194.348C265.559 193.958 265.559 193.324 265.949 192.934L270.606 188.277L217.021 188.277L217.021 186.277L270.606 186.277L265.949 181.62C265.559 181.23 265.559 180.596 265.949 180.206C266.34 179.815 266.973 179.815 267.364 180.206Z" fill="#000"/>
<path fill-rule="evenodd" clip-rule="evenodd" d="M262.364 224.206L268.728 230.57C269.118 230.96 269.118 231.594 268.728 231.984L262.364 238.348C261.973 238.739 261.34 238.739 260.949 238.348C260.559 237.958 260.559 237.324 260.949 236.934L265.606 232.277L212.021 232.277L212.021 230.277L265.606 230.277L260.949 225.62C260.559 225.23 260.559 224.596 260.949 224.206C261.34 223.815 261.973 223.815 262.364 224.206Z" fill="#000"/>
</svg>
