<svg width="345" height="345" viewBox="0 0 345 345" fill="none" xmlns="http://www.w3.org/2000/svg">
<path d="M294.48 165.5C293.94 167.12 293.4 169.46 293.4 171.08C291.78 184.58 285.3 227.78 283.14 240.38H268.02C270 230.66 276.66 186.56 277.2 175.04C266.04 175.04 225 175.04 220.14 175.04C214.92 175.04 210.06 175.22 205.56 175.58V160.46C209.88 161 215.46 161.36 219.96 161.36C226.8 161.36 264.6 161.36 274.68 161.36C277.56 161.36 282.06 161 283.5 160.1L294.48 165.5ZM188.64 234.62C192.96 235.16 198.18 235.52 203.58 235.52C213.3 235.52 292.32 235.52 301.86 235.52C305.82 235.52 312.3 235.16 316.08 234.8V249.38C312.66 249.2 306.18 249.2 302.22 249.2C292.14 249.2 212.58 249.2 203.58 249.2C198.18 249.2 194.04 249.38 188.64 249.56V234.62Z" fill="#f00"/>
<path d="M53.6601 114.74C77.0601 117.8 125.3 127.88 147.98 135.8L142.22 149.66C120.44 141.56 73.2801 131.3 48.4401 128.06L53.6601 114.74ZM45.3801 162.26C70.0401 166.58 113.78 175.76 136.1 183.86L130.52 197.72C109.64 189.62 65.5401 179.72 39.9801 175.76L45.3801 162.26ZM35.6601 214.64C65.7201 219.5 118.1 231.74 142.76 241.64L136.46 255.5C112.7 245.06 59.0601 233 30.0801 228.5L35.6601 214.64Z" fill="#f00"/>
<path d="M69.8701 99.978V90.1582H69.729L66.749 92.25V90.1914L69.8784 88H72.0117V99.978H69.8701Z" fill="#000"/>
<path d="M50.7275 140.802C50.7275 139.684 51.1149 138.771 51.8896 138.062C52.6699 137.354 53.6743 137 54.9028 137C56.0871 137 57.061 137.324 57.8247 137.971C58.5939 138.619 58.9785 139.443 58.9785 140.445C58.9785 141.087 58.7848 141.723 58.3975 142.354C58.0101 142.979 57.3073 143.796 56.2891 144.803L53.7822 147.318V147.459H59.1611V149.277H50.8438V147.791L54.8364 143.707C55.6554 142.877 56.2005 142.254 56.4717 141.839C56.7428 141.419 56.8784 140.998 56.8784 140.578C56.8784 140.052 56.6847 139.618 56.2974 139.274C55.9155 138.931 55.4285 138.76 54.8364 138.76C54.2111 138.76 53.7048 138.948 53.3174 139.324C52.93 139.701 52.7363 140.193 52.7363 140.802V140.835H50.7275V140.802Z" fill="#000"/>
<path d="M47.1196 195.666V194.005H48.5806C49.1893 194.005 49.6846 193.839 50.0664 193.507C50.4482 193.17 50.6392 192.733 50.6392 192.196C50.6392 191.665 50.451 191.241 50.0747 190.926C49.7039 190.605 49.2059 190.444 48.5806 190.444C47.9608 190.444 47.4572 190.608 47.0698 190.934C46.688 191.261 46.4777 191.706 46.439 192.271H44.4385C44.4938 191.169 44.8978 190.3 45.6504 189.664C46.403 189.022 47.4019 188.701 48.647 188.701C49.8091 188.701 50.7747 189.006 51.5439 189.614C52.3187 190.217 52.7061 190.978 52.7061 191.897C52.7061 192.6 52.5096 193.2 52.1167 193.698C51.7293 194.196 51.2036 194.514 50.5396 194.653V194.794C51.3586 194.888 52.0033 195.195 52.4736 195.715C52.9495 196.236 53.1875 196.894 53.1875 197.691C53.1875 198.72 52.7559 199.575 51.8926 200.256C51.0348 200.937 49.9557 201.277 48.6553 201.277C47.3659 201.277 46.3145 200.948 45.501 200.289C44.693 199.631 44.2614 198.753 44.2061 197.658H46.2563C46.3006 198.211 46.5413 198.654 46.9785 198.986C47.4157 199.312 47.9801 199.476 48.6719 199.476C49.3581 199.476 49.917 199.299 50.3486 198.944C50.7858 198.585 51.0044 198.123 51.0044 197.558C51.0044 196.972 50.7913 196.509 50.3652 196.172C49.9391 195.834 49.3581 195.666 48.6221 195.666H47.1196Z" fill="#000"/>
<path fill-rule="evenodd" clip-rule="evenodd" d="M137.284 113.935L142.277 121.423C142.583 121.883 142.459 122.503 141.999 122.81L134.511 127.802C134.051 128.108 133.43 127.984 133.124 127.525C132.818 127.065 132.942 126.444 133.401 126.138L138.881 122.485L56.2484 105.958L56.6406 103.997L139.273 120.524L135.62 115.044C135.314 114.585 135.438 113.964 135.897 113.657C136.357 113.351 136.978 113.475 137.284 113.935Z" fill="#000"/>
<path fill-rule="evenodd" clip-rule="evenodd" d="M127.284 163.233L132.277 170.722C132.583 171.181 132.459 171.802 131.999 172.109L124.511 177.101C124.051 177.407 123.43 177.283 123.124 176.824C122.818 176.364 122.942 175.743 123.401 175.437L128.881 171.784L46.2484 155.257L46.6406 153.296L129.273 169.823L125.62 164.343C125.314 163.883 125.438 163.262 125.897 162.956C126.357 162.65 126.978 162.774 127.284 163.233Z" fill="#000"/>
<path fill-rule="evenodd" clip-rule="evenodd" d="M117.52 215.935L122.512 223.423C122.818 223.883 122.694 224.503 122.235 224.81L114.746 229.802C114.287 230.108 113.666 229.984 113.359 229.525C113.053 229.065 113.177 228.444 113.637 228.138L119.116 224.485L36.4837 207.958L36.8759 205.997L119.509 222.524L115.855 217.044C115.549 216.585 115.673 215.964 116.133 215.657C116.592 215.351 117.213 215.475 117.52 215.935Z" fill="#000"/>
<path d="M247.121 144.978V135.158H246.98L244 137.25V135.191L247.129 133H249.263V144.978H247.121Z" fill="#000"/>
<path d="M194.283 208.802C194.283 207.684 194.671 206.771 195.445 206.062C196.226 205.354 197.23 205 198.458 205C199.643 205 200.617 205.324 201.38 205.971C202.15 206.619 202.534 207.443 202.534 208.445C202.534 209.087 202.34 209.723 201.953 210.354C201.566 210.979 200.863 211.796 199.845 212.803L197.338 215.318V215.459H202.717V217.277H194.399V215.791L198.392 211.707C199.211 210.877 199.756 210.254 200.027 209.839C200.299 209.419 200.434 208.998 200.434 208.578C200.434 208.052 200.24 207.618 199.853 207.274C199.471 206.931 198.984 206.76 198.392 206.76C197.767 206.76 197.26 206.948 196.873 207.324C196.486 207.701 196.292 208.193 196.292 208.802V208.835H194.283V208.802Z" fill="#000"/>
<path fill-rule="evenodd" clip-rule="evenodd" d="M239.343 218.206L245.707 224.57C246.098 224.96 246.098 225.594 245.707 225.984L239.343 232.348C238.953 232.739 238.319 232.739 237.929 232.348C237.538 231.958 237.538 231.324 237.929 230.934L242.586 226.277L189 226.277L189 224.277L242.586 224.277L237.929 219.62C237.538 219.23 237.538 218.596 237.929 218.206C238.319 217.815 238.953 217.815 239.343 218.206Z" fill="#000"/>
<path fill-rule="evenodd" clip-rule="evenodd" d="M306.361 151.5H241V149.5H308.639L301.304 205.735L306.524 201.72C306.962 201.383 307.59 201.465 307.926 201.903C308.263 202.341 308.181 202.968 307.743 203.305L300.61 208.793C300.172 209.129 299.544 209.047 299.207 208.61L293.72 201.476C293.383 201.038 293.465 200.41 293.903 200.074C294.341 199.737 294.968 199.819 295.305 200.257L299.321 205.477L306.361 151.5Z" fill="#000"/>
</svg>
