<svg width="345" height="345" viewBox="0 0 345 345" fill="none" xmlns="http://www.w3.org/2000/svg">
<path d="M231.3 140.84C231.66 144.08 232.74 147.86 233.82 152.54C237.96 167.48 257.58 238.76 261.36 251C262.44 254.42 264.06 260 265.32 263.24L249.84 267.38C249.48 263.24 248.58 258.56 247.32 254.24C243.54 241.28 224.28 168.74 220.14 155.42C218.88 151.1 217.44 147.5 215.82 144.62L231.3 140.84ZM317.7 165.68C310.14 180.8 291.6 206.18 279.18 218.24L266.58 211.76C277.74 202.22 291.42 185.48 297.54 174.86C289.62 176.3 205.38 193.22 192.6 195.92L189 182.24C194.04 181.7 198.54 181.16 203.94 180.08C212.94 178.64 291.42 163.88 301.68 161.54C304.02 161 306.72 160.1 308.52 159.2L317.7 165.68Z" fill="#f00"/>
<path d="M141.5 114.56C141.14 118.88 140.96 124.1 140.96 130.22C140.96 137.24 140.96 152.54 140.96 159.2C140.96 202.58 135.2 216.8 122.06 232.1C110.54 246.14 92.5396 254.06 79.3996 258.56L67.5196 246.14C84.0796 241.82 99.3796 234.8 110.54 222.02C123.32 207.26 125.66 192.5 125.66 158.66C125.66 151.64 125.66 136.52 125.66 130.22C125.66 124.1 125.12 118.88 124.58 114.56H141.5ZM57.9796 116C57.6196 119.42 57.4396 124.64 57.4396 128.78C57.4396 134.18 57.4396 181.34 57.4396 188.9C57.4396 193.58 57.6196 199.52 57.9796 202.76H41.5996C41.9596 199.88 42.3196 194.12 42.3196 188.9C42.3196 181.16 42.3196 134.18 42.3196 128.78C42.3196 125.72 42.1396 119.42 41.5996 116H57.9796Z" fill="#f00"/>
<path d="M78.1211 126.978V117.158H77.98L75 119.25V117.191L78.1294 115H80.2627V126.978H78.1211Z" fill="#000"/>
<path d="M159 118.802C159 117.684 159.387 116.771 160.162 116.062C160.942 115.354 161.947 115 163.175 115C164.36 115 165.333 115.324 166.097 115.971C166.866 116.619 167.251 117.443 167.251 118.445C167.251 119.087 167.057 119.723 166.67 120.354C166.283 120.979 165.58 121.796 164.562 122.803L162.055 125.318V125.459H167.434V127.277H159.116V125.791L163.109 121.707C163.928 120.877 164.473 120.254 164.744 119.839C165.015 119.419 165.151 118.998 165.151 118.578C165.151 118.052 164.957 117.618 164.57 117.274C164.188 116.931 163.701 116.76 163.109 116.76C162.484 116.76 161.977 116.948 161.59 117.324C161.202 117.701 161.009 118.193 161.009 118.802V118.835H159V118.802Z" fill="#000"/>
<path fill-rule="evenodd" clip-rule="evenodd" d="M74.4346 168.321L68.0707 174.685C67.6802 175.076 67.047 175.076 66.6565 174.685L60.2925 168.321C59.902 167.931 59.902 167.297 60.2925 166.907C60.683 166.516 61.3162 166.516 61.7067 166.907L66.3636 171.564L66.3636 117.978L68.3636 117.978L68.3636 171.564L73.0204 166.907C73.411 166.516 74.0441 166.516 74.4346 166.907C74.8252 167.297 74.8252 167.931 74.4346 168.321Z" fill="#000"/>
<path fill-rule="evenodd" clip-rule="evenodd" d="M158.435 165.343L152.071 171.707C151.68 172.098 151.047 172.098 150.656 171.707L144.293 165.343C143.902 164.953 143.902 164.319 144.293 163.929C144.683 163.538 145.316 163.538 145.707 163.929L150.364 168.586L150.364 115L152.364 115L152.364 168.586L157.02 163.929C157.411 163.538 158.044 163.538 158.435 163.929C158.825 164.319 158.825 164.953 158.435 165.343Z" fill="#000"/>
<path d="M186.121 166.978V157.158H185.98L183 159.25V157.191L186.129 155H188.263V166.978H186.121Z" fill="#000"/>
<path d="M243 118.802C243 117.684 243.387 116.771 244.162 116.062C244.942 115.354 245.947 115 247.175 115C248.36 115 249.333 115.324 250.097 115.971C250.866 116.619 251.251 117.443 251.251 118.445C251.251 119.087 251.057 119.723 250.67 120.354C250.283 120.979 249.58 121.796 248.562 122.803L246.055 125.318V125.459H251.434V127.277H243.116V125.791L247.109 121.707C247.928 120.877 248.473 120.254 248.744 119.839C249.015 119.419 249.151 118.998 249.151 118.578C249.151 118.052 248.957 117.618 248.57 117.274C248.188 116.931 247.701 116.76 247.109 116.76C246.484 116.76 245.977 116.948 245.59 117.324C245.202 117.701 245.009 118.193 245.009 118.802V118.835H243V118.802Z" fill="#000"/>
<path fill-rule="evenodd" clip-rule="evenodd" d="M211.264 159.217L218.797 164.141C219.26 164.443 219.389 165.063 219.087 165.525L214.163 173.059C213.861 173.521 213.241 173.651 212.779 173.349C212.317 173.047 212.187 172.427 212.489 171.965L216.092 166.452L184.41 172.957L184 171L215.682 164.495L210.17 160.891C209.707 160.589 209.578 159.969 209.88 159.507C210.182 159.045 210.802 158.915 211.264 159.217Z" fill="#000"/>
<path fill-rule="evenodd" clip-rule="evenodd" d="M254.104 158.726L249.604 166.521C249.328 166.999 248.716 167.163 248.238 166.887L240.444 162.387C239.965 162.111 239.801 161.499 240.078 161.021C240.354 160.542 240.965 160.379 241.444 160.655L247.147 163.948L235.148 119.165L237.079 118.647L249.079 163.43L252.372 157.726C252.648 157.248 253.26 157.084 253.738 157.36C254.216 157.637 254.38 158.248 254.104 158.726Z" fill="#000"/>
<path fill-rule="evenodd" clip-rule="evenodd" d="M306.11 152.911C299.087 153.52 290.878 155.344 282.291 157.957L281.709 156.044C290.372 153.407 298.726 151.543 305.937 150.918C313.11 150.296 319.319 150.883 323.561 153.321C325.708 154.555 327.356 156.267 328.341 158.518C329.322 160.759 329.614 163.459 329.186 166.626C328.388 172.534 325.061 180.235 318.654 190.063L325.144 188.801C325.686 188.695 326.211 189.049 326.316 189.592C326.422 190.134 326.068 190.659 325.526 190.764L316.691 192.482C316.149 192.587 315.624 192.233 315.519 191.691L313.801 182.857C313.695 182.314 314.049 181.79 314.591 181.684C315.134 181.579 315.659 181.933 315.764 182.475L317.016 188.913C323.336 179.208 326.466 171.823 327.204 166.359C327.597 163.455 327.307 161.144 326.509 159.32C325.715 157.507 324.386 156.102 322.564 155.055C318.868 152.93 313.172 152.298 306.11 152.911Z" fill="#000"/>
</svg>
