<svg width="345" height="345" viewBox="0 0 345 345" fill="none" xmlns="http://www.w3.org/2000/svg">
<path d="M304.266 165.5C303.726 167.12 303.186 169.46 303.186 171.08C301.566 184.58 295.086 227.78 292.926 240.38H277.806C279.786 230.66 286.446 186.56 286.986 175.04C275.826 175.04 234.786 175.04 229.926 175.04C224.706 175.04 219.846 175.22 215.346 175.58V160.46C219.666 161 225.246 161.36 229.746 161.36C236.586 161.36 274.386 161.36 284.466 161.36C287.346 161.36 291.846 161 293.286 160.1L304.266 165.5ZM198.426 234.62C202.746 235.16 207.966 235.52 213.366 235.52C223.086 235.52 302.106 235.52 311.646 235.52C315.606 235.52 322.086 235.16 325.866 234.8V249.38C322.446 249.2 315.966 249.2 312.006 249.2C301.926 249.2 222.366 249.2 213.366 249.2C207.966 249.2 203.826 249.38 198.426 249.56V234.62Z" fill="#f00"/>
<path d="M128.835 137.42C132.975 143.54 138.735 152.72 142.695 160.64L133.335 164.96C129.195 156.14 125.235 148.94 119.835 141.38L128.835 137.42ZM147.735 130.4C152.055 136.34 157.995 145.52 162.135 153.26L152.955 157.58C148.635 148.94 144.495 142.1 138.915 134.54L147.735 130.4ZM17.2353 128.24C30.7353 128.96 58.2753 128.06 77.7153 125.54C94.0953 123.2 115.335 118.88 124.155 115.1L133.515 127.7C129.555 128.6 126.135 129.5 123.435 130.22C112.995 132.92 96.4353 136.16 81.8553 137.96C61.6953 140.66 37.0353 141.38 20.8353 141.56L17.2353 128.24ZM27.3153 250.82C58.0953 236.6 73.2153 214.1 73.2153 176.84C73.2153 176.84 73.2153 160.64 73.2153 135.98L87.7953 134.18C87.7953 148.22 87.7953 176.66 87.7953 176.66C87.7953 215 75.0153 241.28 41.3553 260.72L27.3153 250.82ZM3.19531 171.08C7.15531 171.44 13.6353 171.8 19.0353 171.8C30.5553 171.8 126.315 171.8 137.475 171.8C141.435 171.8 147.915 171.44 151.695 171.08V186.02C147.735 185.66 142.335 185.3 137.835 185.3C127.035 185.3 30.3753 185.3 19.3953 185.3C13.6353 185.3 7.51531 185.66 3.19531 186.02V171.08Z" fill="#f00"/>
<path d="M113.207 95.978V86.1582H113.066L110.086 88.25V86.1914L113.215 84H115.349V95.978H113.207Z" fill="#000"/>
<path d="M105.22 197.964V196.304H106.681C107.29 196.304 107.785 196.138 108.167 195.806C108.549 195.469 108.74 195.031 108.74 194.495C108.74 193.963 108.552 193.54 108.175 193.225C107.805 192.904 107.306 192.743 106.681 192.743C106.061 192.743 105.558 192.906 105.17 193.233C104.789 193.559 104.578 194.005 104.54 194.569H102.539C102.594 193.468 102.998 192.599 103.751 191.963C104.504 191.321 105.502 191 106.748 191C107.91 191 108.875 191.304 109.645 191.913C110.419 192.516 110.807 193.277 110.807 194.196C110.807 194.899 110.61 195.499 110.217 195.997C109.83 196.495 109.304 196.813 108.64 196.952V197.093C109.459 197.187 110.104 197.494 110.574 198.014C111.05 198.534 111.288 199.193 111.288 199.99C111.288 201.019 110.856 201.874 109.993 202.555C109.135 203.235 108.056 203.576 106.756 203.576C105.466 203.576 104.415 203.246 103.602 202.588C102.794 201.929 102.362 201.052 102.307 199.957H104.357C104.401 200.51 104.642 200.953 105.079 201.285C105.516 201.611 106.081 201.774 106.772 201.774C107.459 201.774 108.018 201.597 108.449 201.243C108.886 200.883 109.105 200.421 109.105 199.857C109.105 199.27 108.892 198.808 108.466 198.471C108.04 198.133 107.459 197.964 106.723 197.964H105.22Z" fill="#000"/>
<path d="M5.78125 147.802C5.78125 146.684 6.16862 145.771 6.94336 145.062C7.72363 144.354 8.72803 144 9.95654 144C11.1408 144 12.1147 144.324 12.8784 144.971C13.6476 145.619 14.0322 146.443 14.0322 147.445C14.0322 148.087 13.8385 148.723 13.4512 149.354C13.0638 149.979 12.361 150.796 11.3428 151.803L8.83594 154.318V154.459H14.2148V156.277H5.89746V154.791L9.89014 150.707C10.7091 149.877 11.2542 149.254 11.5254 148.839C11.7965 148.419 11.9321 147.998 11.9321 147.578C11.9321 147.052 11.7384 146.618 11.3511 146.274C10.9692 145.931 10.4823 145.76 9.89014 145.76C9.26481 145.76 8.75846 145.948 8.37109 146.324C7.98372 146.701 7.79004 147.193 7.79004 147.802V147.835H5.78125V147.802Z" fill="#000"/>
<path fill-rule="evenodd" clip-rule="evenodd" d="M61.1244 153.206L67.4884 159.57C67.8789 159.96 67.8789 160.594 67.4884 160.984L61.1244 167.348C60.7339 167.739 60.1007 167.739 59.7102 167.348C59.3197 166.958 59.3197 166.324 59.7102 165.934L64.367 161.277L6.78125 161.277L6.78125 159.277L64.367 159.277L59.7102 154.62C59.3197 154.23 59.3197 153.596 59.7102 153.206C60.1007 152.815 60.7339 152.815 61.1244 153.206Z" fill="#000"/>
<path fill-rule="evenodd" clip-rule="evenodd" d="M17.2022 116.471C54.6111 116.263 97.6725 111.236 124.901 100.053L125.661 101.903C98.0717 113.234 54.6931 118.265 17.1888 118.471L21.8523 123.135C22.2428 123.525 22.2428 124.158 21.8523 124.549C21.4618 124.939 20.8286 124.939 20.4381 124.549L14.0741 118.185C13.6836 117.794 13.6836 117.161 14.0741 116.771L20.4381 110.407C20.8286 110.016 21.4618 110.016 21.8523 110.407C22.2428 110.797 22.2428 111.43 21.8523 111.821L17.2022 116.471Z" fill="#000"/>
<path fill-rule="evenodd" clip-rule="evenodd" d="M87.2988 229.323C92.4249 217.28 94.5387 203.906 96.2879 188.663L98.2749 188.891C96.5241 204.148 94.3879 217.774 89.139 230.106C84.1202 241.898 76.2744 252.465 63.2905 262.181L69.8234 263.27C70.3681 263.361 70.7361 263.876 70.6453 264.421C70.5546 264.966 70.0393 265.334 69.4946 265.243L60.617 263.763C60.0722 263.673 59.7042 263.157 59.795 262.613L61.2746 253.735C61.3654 253.19 61.8806 252.822 62.4254 252.913C62.9702 253.004 63.3382 253.519 63.2474 254.064L62.1712 260.521C74.8365 251.024 82.4337 240.753 87.2988 229.323Z" fill="#000"/>
<path d="M115.852 146.978V144.745H110V142.836C110.974 141.043 112.601 138.431 114.881 135H117.902V142.936H119.521V144.745H117.902V146.978H115.852ZM111.984 142.861V142.985H115.885V136.743H115.769C114.474 138.658 113.212 140.697 111.984 142.861Z" fill="#000"/>
<path d="M153.831 130.277C152.597 130.277 151.584 129.939 150.793 129.264C150.002 128.589 149.581 127.72 149.531 126.658H151.54C151.606 127.206 151.853 127.648 152.279 127.986C152.705 128.323 153.228 128.492 153.848 128.492C154.55 128.492 155.118 128.276 155.549 127.845C155.986 127.408 156.205 126.832 156.205 126.118C156.205 125.404 155.986 124.826 155.549 124.383C155.118 123.935 154.556 123.711 153.864 123.711C153.377 123.711 152.943 123.813 152.561 124.018C152.185 124.223 151.886 124.513 151.665 124.89H149.722L150.345 118H157.558V119.81H152.005L151.714 123.171H151.855C152.409 122.424 153.253 122.051 154.387 122.051C155.522 122.051 156.451 122.427 157.176 123.18C157.907 123.932 158.272 124.895 158.272 126.068C158.272 127.319 157.862 128.334 157.043 129.115C156.23 129.889 155.159 130.277 153.831 130.277Z" fill="#000"/>
<path d="M257.481 144.978V135.158H257.34L254.36 137.25V135.191L257.49 133H259.623V144.978H257.481Z" fill="#000"/>
<path d="M204.644 208.802C204.644 207.684 205.031 206.771 205.806 206.062C206.586 205.354 207.59 205 208.819 205C210.003 205 210.977 205.324 211.741 205.971C212.51 206.619 212.895 207.443 212.895 208.445C212.895 209.087 212.701 209.723 212.313 210.354C211.926 210.979 211.223 211.796 210.205 212.803L207.698 215.318V215.459H213.077V217.277H204.76V215.791L208.752 211.707C209.571 210.877 210.117 210.254 210.388 209.839C210.659 209.419 210.794 208.998 210.794 208.578C210.794 208.052 210.601 207.618 210.213 207.274C209.832 206.931 209.345 206.76 208.752 206.76C208.127 206.76 207.621 206.948 207.233 207.324C206.846 207.701 206.652 208.193 206.652 208.802V208.835H204.644V208.802Z" fill="#000"/>
<path fill-rule="evenodd" clip-rule="evenodd" d="M249.703 218.206L256.067 224.57C256.458 224.96 256.458 225.594 256.067 225.984L249.704 232.348C249.313 232.739 248.68 232.739 248.289 232.348C247.899 231.958 247.899 231.324 248.289 230.934L252.946 226.277L199.36 226.277L199.36 224.277L252.946 224.277L248.289 219.62C247.899 219.23 247.899 218.596 248.289 218.206C248.68 217.815 249.313 217.815 249.703 218.206Z" fill="#000"/>
<path fill-rule="evenodd" clip-rule="evenodd" d="M316.721 151.5H251.36V149.5H318.999L311.664 205.735L316.884 201.72C317.322 201.383 317.95 201.465 318.287 201.903C318.623 202.341 318.541 202.968 318.104 203.305L310.97 208.793C310.532 209.129 309.904 209.047 309.568 208.61L304.08 201.476C303.744 201.038 303.825 200.41 304.263 200.074C304.701 199.737 305.329 199.819 305.666 200.257L309.681 205.477L316.721 151.5Z" fill="#000"/>
</svg>
