<svg width="345" height="345" viewBox="0 0 345 345" fill="none" xmlns="http://www.w3.org/2000/svg">
<path d="M201.96 152.36C205.38 152.72 215.639 152.9 220.499 152.9C230.579 152.9 275.4 152.9 289.98 152.9C294.12 152.9 298.62 152.72 301.14 152.72C300.96 154.7 300.959 158.48 300.959 161.9C300.959 168.2 300.959 236.24 300.959 251.54C300.959 254.42 301.14 258.56 301.14 261.26H286.92C287.1 259.1 287.1 254.78 287.1 251C287.1 232.1 287.1 171.26 287.1 165.86C281.16 165.86 230.399 165.86 220.499 165.86C215.639 165.86 205.38 166.22 201.96 166.22V152.36ZM205.919 195.02C209.519 195.38 216 195.74 222.12 195.74C231.3 195.74 288.899 195.74 294.119 195.74V208.7C288.899 208.7 231.3 208.7 222.12 208.7C216 208.7 209.519 208.7 205.919 209.06V195.02ZM199.979 239.84C202.859 240.2 208.44 240.56 214.74 240.56C225 240.56 286.379 240.56 294.299 240.56V253.88C285.299 253.88 225 253.88 214.74 253.88C209.16 253.88 202.859 254.24 199.979 254.24V239.84Z" fill="#f00"/>
<path d="M141.5 114.56C141.14 118.88 140.96 124.1 140.96 130.22C140.96 137.24 140.96 152.54 140.96 159.2C140.96 202.58 135.2 216.8 122.06 232.1C110.54 246.14 92.5396 254.06 79.3996 258.56L67.5196 246.14C84.0796 241.82 99.3796 234.8 110.54 222.02C123.32 207.26 125.66 192.5 125.66 158.66C125.66 151.64 125.66 136.52 125.66 130.22C125.66 124.1 125.12 118.88 124.58 114.56H141.5ZM57.9796 116C57.6196 119.42 57.4396 124.64 57.4396 128.78C57.4396 134.18 57.4396 181.34 57.4396 188.9C57.4396 193.58 57.6196 199.52 57.9796 202.76H41.5996C41.9596 199.88 42.3196 194.12 42.3196 188.9C42.3196 181.16 42.3196 134.18 42.3196 128.78C42.3196 125.72 42.1396 119.42 41.5996 116H57.9796Z" fill="#f00"/>
<path d="M78.1211 126.978V117.158H77.98L75 119.25V117.191L78.1294 115H80.2627V126.978H78.1211Z" fill="#000"/>
<path d="M159 118.802C159 117.684 159.387 116.771 160.162 116.062C160.942 115.354 161.947 115 163.175 115C164.36 115 165.333 115.324 166.097 115.971C166.866 116.619 167.251 117.443 167.251 118.445C167.251 119.087 167.057 119.723 166.67 120.354C166.283 120.979 165.58 121.796 164.562 122.803L162.055 125.318V125.459H167.434V127.277H159.116V125.791L163.109 121.707C163.928 120.877 164.473 120.254 164.744 119.839C165.015 119.419 165.151 118.998 165.151 118.578C165.151 118.052 164.957 117.618 164.57 117.274C164.188 116.931 163.701 116.76 163.109 116.76C162.484 116.76 161.977 116.948 161.59 117.324C161.202 117.701 161.009 118.193 161.009 118.802V118.835H159V118.802Z" fill="#000"/>
<path fill-rule="evenodd" clip-rule="evenodd" d="M74.4346 168.321L68.0707 174.685C67.6802 175.076 67.047 175.076 66.6565 174.685L60.2925 168.321C59.902 167.931 59.902 167.297 60.2925 166.907C60.683 166.516 61.3162 166.516 61.7067 166.907L66.3636 171.564L66.3636 117.978L68.3636 117.978L68.3636 171.564L73.0204 166.907C73.411 166.516 74.0441 166.516 74.4346 166.907C74.8252 167.297 74.8252 167.931 74.4346 168.321Z" fill="#000"/>
<path fill-rule="evenodd" clip-rule="evenodd" d="M158.435 165.343L152.071 171.707C151.68 172.098 151.047 172.098 150.656 171.707L144.293 165.343C143.902 164.953 143.902 164.319 144.293 163.929C144.683 163.538 145.316 163.538 145.707 163.929L150.364 168.586L150.364 115L152.364 115L152.364 168.586L157.02 163.929C157.411 163.538 158.044 163.538 158.435 163.929C158.825 164.319 158.825 164.953 158.435 165.343Z" fill="#000"/>
<path d="M245.121 137.978V128.158H244.98L242 130.25V128.191L245.129 126H247.263V137.978H245.121Z" fill="#000"/>
<path d="M209.283 171.802C209.283 170.684 209.671 169.771 210.445 169.062C211.226 168.354 212.23 168 213.458 168C214.643 168 215.617 168.324 216.38 168.971C217.15 169.619 217.534 170.443 217.534 171.445C217.534 172.087 217.34 172.723 216.953 173.354C216.566 173.979 215.863 174.796 214.845 175.803L212.338 178.318V178.459H217.717V180.277H209.399V178.791L213.392 174.707C214.211 173.877 214.756 173.254 215.027 172.839C215.299 172.419 215.434 171.998 215.434 171.578C215.434 171.052 215.24 170.618 214.853 170.274C214.471 169.931 213.984 169.76 213.392 169.76C212.767 169.76 212.26 169.948 211.873 170.324C211.486 170.701 211.292 171.193 211.292 171.802V171.835H209.283V171.802Z" fill="#000"/>
<path d="M206.439 220.964V219.304H207.9C208.509 219.304 209.004 219.138 209.386 218.806C209.768 218.469 209.958 218.031 209.958 217.495C209.958 216.963 209.77 216.54 209.394 216.225C209.023 215.904 208.525 215.743 207.9 215.743C207.28 215.743 206.777 215.906 206.389 216.233C206.007 216.559 205.797 217.005 205.758 217.569H203.758C203.813 216.468 204.217 215.599 204.97 214.963C205.722 214.321 206.721 214 207.966 214C209.128 214 210.094 214.304 210.863 214.913C211.638 215.516 212.025 216.277 212.025 217.196C212.025 217.899 211.829 218.499 211.436 218.997C211.049 219.495 210.523 219.813 209.859 219.952V220.093C210.678 220.187 211.323 220.494 211.793 221.014C212.269 221.534 212.507 222.193 212.507 222.99C212.507 224.019 212.075 224.874 211.212 225.555C210.354 226.235 209.275 226.576 207.975 226.576C206.685 226.576 205.634 226.246 204.82 225.588C204.012 224.929 203.581 224.052 203.525 222.957H205.576C205.62 223.51 205.861 223.953 206.298 224.285C206.735 224.611 207.299 224.774 207.991 224.774C208.677 224.774 209.236 224.597 209.668 224.243C210.105 223.883 210.324 223.421 210.324 222.857C210.324 222.27 210.111 221.808 209.685 221.471C209.258 221.133 208.677 220.964 207.941 220.964H206.439Z" fill="#000"/>
<path fill-rule="evenodd" clip-rule="evenodd" d="M310.34 144H240V142H312.34V218.586L316.997 213.929C317.387 213.538 318.02 213.538 318.411 213.929C318.801 214.319 318.801 214.953 318.411 215.343L312.047 221.707C311.656 222.098 311.023 222.098 310.633 221.707L304.269 215.343C303.878 214.953 303.878 214.319 304.269 213.929C304.659 213.538 305.292 213.538 305.683 213.929L310.34 218.586V144Z" fill="#000"/>
<path fill-rule="evenodd" clip-rule="evenodd" d="M257.343 180.206L263.707 186.57C264.098 186.96 264.098 187.594 263.707 187.984L257.343 194.348C256.953 194.739 256.319 194.739 255.929 194.348C255.538 193.958 255.538 193.324 255.929 192.934L260.586 188.277L207 188.277L207 186.277L260.586 186.277L255.929 181.62C255.538 181.23 255.538 180.596 255.929 180.206C256.319 179.815 256.953 179.815 257.343 180.206Z" fill="#000"/>
<path fill-rule="evenodd" clip-rule="evenodd" d="M252.343 224.206L258.707 230.57C259.098 230.96 259.098 231.594 258.707 231.984L252.343 238.348C251.953 238.739 251.319 238.739 250.929 238.348C250.538 237.958 250.538 237.324 250.929 236.934L255.586 232.277L202 232.277L202 230.277L255.586 230.277L250.929 225.62C250.538 225.23 250.538 224.596 250.929 224.206C251.319 223.815 251.953 223.815 252.343 224.206Z" fill="#000"/>
</svg>
