<svg width="346" height="345" viewBox="0 0 346 345" fill="none" xmlns="http://www.w3.org/2000/svg">
<path d="M212.745 152.36C216.165 152.72 226.425 152.9 231.285 152.9C241.365 152.9 286.185 152.9 300.765 152.9C304.905 152.9 309.405 152.72 311.925 152.72C311.745 154.7 311.745 158.48 311.745 161.9C311.745 168.2 311.745 236.24 311.745 251.54C311.745 254.42 311.925 258.56 311.925 261.26H297.705C297.885 259.1 297.885 254.78 297.885 251C297.885 232.1 297.885 171.26 297.885 165.86C291.945 165.86 241.185 165.86 231.285 165.86C226.425 165.86 216.165 166.22 212.745 166.22V152.36ZM216.705 195.02C220.305 195.38 226.785 195.74 232.905 195.74C242.085 195.74 299.685 195.74 304.905 195.74V208.7C299.685 208.7 242.085 208.7 232.905 208.7C226.785 208.7 220.305 208.7 216.705 209.06V195.02ZM210.765 239.84C213.645 240.2 219.225 240.56 225.525 240.56C235.785 240.56 297.165 240.56 305.085 240.56V253.88C296.085 253.88 235.785 253.88 225.525 253.88C219.945 253.88 213.645 254.24 210.765 254.24V239.84Z" fill="#f00"/>
<path d="M128.395 104.84C132.895 111.32 139.375 122.3 142.975 129.5L133.255 133.82C129.655 126.62 123.715 115.82 118.855 108.98L128.395 104.84ZM148.015 97.6401C152.875 104.3 159.715 115.46 163.135 122.12L153.415 126.44C149.635 118.7 143.695 108.44 138.655 101.78L148.015 97.6401ZM60.3547 126.98C59.4547 122.3 58.1947 118.34 56.9347 114.56L73.1347 111.86C73.3147 115.28 74.2147 120.32 74.7547 124.28C76.0147 132.38 95.8147 231.02 98.3347 242.9C99.5947 248.12 101.035 254.24 102.655 259.28L86.2747 262.34C85.3747 256.22 84.8347 250.82 83.5747 245.42C81.5947 234.26 62.3347 136.34 60.3547 126.98ZM9.59469 152.9C14.0947 152.72 18.7747 152.36 24.5347 151.64C40.7347 149.84 103.015 139.94 120.115 136.7C125.335 135.62 129.835 134.54 132.895 133.64L135.955 148.76C133.255 149.12 127.675 149.84 122.995 150.56C104.275 153.62 42.8947 163.34 27.2347 166.04C22.1947 166.94 18.0547 167.84 12.6547 168.92L9.59469 152.9ZM9.05469 204.92C13.1947 204.74 20.2147 204.02 24.8947 203.3C43.9747 200.78 111.115 189.62 132.535 185.66C139.555 184.4 144.595 183.32 148.555 182.06L151.435 197.18C147.655 197.54 141.895 198.62 135.235 199.7C111.295 203.48 46.4947 213.92 28.1347 217.34C21.1147 218.42 16.2547 219.5 12.2947 220.58L9.05469 204.92Z" fill="#f00"/>
<path d="M5.12109 137.978V128.158H4.97998L2 130.25V128.191L5.12939 126H7.2627V137.978H5.12109Z" fill="#000"/>
<path d="M10.4902 178.802C10.4902 177.684 10.8776 176.771 11.6523 176.062C12.4326 175.354 13.437 175 14.6655 175C15.8498 175 16.8237 175.324 17.5874 175.971C18.3566 176.619 18.7412 177.443 18.7412 178.445C18.7412 179.087 18.5475 179.723 18.1602 180.354C17.7728 180.979 17.07 181.796 16.0518 182.803L13.5449 185.318V185.459H18.9238V187.277H10.6064V185.791L14.5991 181.707C15.4181 180.877 15.9632 180.254 16.2344 179.839C16.5055 179.419 16.6411 178.998 16.6411 178.578C16.6411 178.052 16.4474 177.618 16.0601 177.274C15.6782 176.931 15.1912 176.76 14.5991 176.76C13.9738 176.76 13.4674 176.948 13.0801 177.324C12.6927 177.701 12.499 178.193 12.499 178.802V178.835H10.4902V178.802Z" fill="#000"/>
<path d="M90.6626 98.9644V97.3042H92.1235C92.7323 97.3042 93.2275 97.1382 93.6094 96.8062C93.9912 96.4686 94.1821 96.0314 94.1821 95.4946C94.1821 94.9634 93.994 94.54 93.6177 94.2246C93.2469 93.9036 92.7489 93.7432 92.1235 93.7432C91.5037 93.7432 91.0002 93.9064 90.6128 94.2329C90.231 94.5594 90.0207 95.0049 89.9819 95.5693H87.9814C88.0368 94.4681 88.4408 93.5993 89.1934 92.9629C89.946 92.321 90.9448 92 92.1899 92C93.3521 92 94.3177 92.3044 95.0869 92.9131C95.8617 93.5163 96.249 94.2772 96.249 95.1958C96.249 95.8986 96.0526 96.499 95.6597 96.9971C95.2723 97.4951 94.7466 97.8133 94.0825 97.9517V98.0928C94.9015 98.1868 95.5462 98.494 96.0166 99.0142C96.4925 99.5343 96.7305 100.193 96.7305 100.99C96.7305 102.019 96.2988 102.874 95.4355 103.555C94.5778 104.235 93.4987 104.576 92.1982 104.576C90.9089 104.576 89.8574 104.246 89.0439 103.588C88.236 102.929 87.8044 102.052 87.749 100.957H89.7993C89.8436 101.51 90.0843 101.953 90.5215 102.285C90.9587 102.611 91.5231 102.774 92.2148 102.774C92.901 102.774 93.46 102.597 93.8916 102.243C94.3288 101.883 94.5474 101.421 94.5474 100.857C94.5474 100.27 94.3343 99.8083 93.9082 99.4707C93.4821 99.1331 92.901 98.9644 92.165 98.9644H90.6626Z" fill="#000"/>
<path fill-rule="evenodd" clip-rule="evenodd" d="M50.697 130.38L58.0178 135.615C58.4671 135.936 58.5708 136.561 58.2496 137.01L53.0146 144.331C52.6934 144.78 52.0688 144.884 51.6195 144.563C51.1703 144.241 51.0665 143.617 51.3878 143.168L55.2185 137.811L1.37071 146.756L1.04295 144.783L54.8907 135.838L49.5336 132.007C49.0844 131.686 48.9806 131.061 49.3019 130.612C49.6231 130.163 50.2477 130.059 50.697 130.38Z" fill="#000"/>
<path fill-rule="evenodd" clip-rule="evenodd" d="M59.697 181.228L67.0178 186.463C67.4671 186.784 67.5708 187.409 67.2496 187.858L62.0146 195.179C61.6934 195.628 61.0688 195.732 60.6195 195.411C60.1703 195.09 60.0665 194.465 60.3878 194.016L64.2185 188.659L10.3707 197.604L10.0429 195.631L63.8907 186.686L58.5336 182.855C58.0844 182.534 57.9806 181.909 58.3019 181.46C58.6231 181.011 59.2477 180.907 59.697 181.228Z" fill="#000"/>
<path fill-rule="evenodd" clip-rule="evenodd" d="M94.5226 129.018L89.5168 136.497C89.2096 136.956 88.5885 137.079 88.1295 136.772L80.6501 131.766C80.1911 131.459 80.0681 130.838 80.3753 130.379C80.6824 129.92 81.3035 129.797 81.7625 130.104L87.2356 133.767L80.2428 98.4712L82.2046 98.0825L89.1975 133.379L92.8605 127.906C93.1677 127.447 93.7888 127.324 94.2478 127.631C94.7067 127.938 94.8298 128.559 94.5226 129.018Z" fill="#000"/>
<path d="M128.852 100.978V98.7451H123V96.8359C123.974 95.043 125.601 92.431 127.881 89H130.902V96.9355H132.521V98.7451H130.902V100.978H128.852ZM124.984 96.8608V96.9854H128.885V90.7432H128.769C127.474 92.6579 126.212 94.6971 124.984 96.8608Z" fill="#000"/>
<path d="M152.831 95.2769C151.597 95.2769 150.584 94.9393 149.793 94.2642C149.002 93.589 148.581 92.7202 148.531 91.6577H150.54C150.606 92.2056 150.853 92.6483 151.279 92.9858C151.705 93.3234 152.228 93.4922 152.848 93.4922C153.55 93.4922 154.118 93.2764 154.549 92.8447C154.986 92.4076 155.205 91.832 155.205 91.1182C155.205 90.4043 154.986 89.826 154.549 89.3833C154.118 88.9351 153.556 88.7109 152.864 88.7109C152.377 88.7109 151.943 88.8133 151.561 89.0181C151.185 89.2228 150.886 89.5133 150.665 89.8896H148.722L149.345 83H156.558V84.8096H151.005L150.714 88.1714H150.855C151.409 87.4243 152.253 87.0508 153.387 87.0508C154.522 87.0508 155.451 87.4271 156.176 88.1797C156.907 88.9323 157.272 89.8952 157.272 91.0684C157.272 92.319 156.862 93.3345 156.043 94.1147C155.23 94.8895 154.159 95.2769 152.831 95.2769Z" fill="#000"/>
<path d="M256.142 137.978V128.158H256L253.021 130.25V128.191L256.15 126H258.283V137.978H256.142Z" fill="#000"/>
<path d="M220.304 171.802C220.304 170.684 220.691 169.771 221.466 169.062C222.246 168.354 223.25 168 224.479 168C225.663 168 226.637 168.324 227.401 168.971C228.17 169.619 228.555 170.443 228.555 171.445C228.555 172.087 228.361 172.723 227.974 173.354C227.586 173.979 226.883 174.796 225.865 175.803L223.358 178.318V178.459H228.737V180.277H220.42V178.791L224.413 174.707C225.232 173.877 225.777 173.254 226.048 172.839C226.319 172.419 226.455 171.998 226.455 171.578C226.455 171.052 226.261 170.618 225.874 170.274C225.492 169.931 225.005 169.76 224.413 169.76C223.787 169.76 223.281 169.948 222.894 170.324C222.506 170.701 222.312 171.193 222.312 171.802V171.835H220.304V171.802Z" fill="#000"/>
<path d="M217.459 220.964V219.304H218.92C219.529 219.304 220.024 219.138 220.406 218.806C220.788 218.469 220.979 218.031 220.979 217.495C220.979 216.963 220.791 216.54 220.415 216.225C220.044 215.904 219.546 215.743 218.92 215.743C218.301 215.743 217.797 215.906 217.41 216.233C217.028 216.559 216.818 217.005 216.779 217.569H214.778C214.834 216.468 215.238 215.599 215.99 214.963C216.743 214.321 217.742 214 218.987 214C220.149 214 221.115 214.304 221.884 214.913C222.659 215.516 223.046 216.277 223.046 217.196C223.046 217.899 222.849 218.499 222.457 218.997C222.069 219.495 221.543 219.813 220.879 219.952V220.093C221.698 220.187 222.343 220.494 222.813 221.014C223.289 221.534 223.527 222.193 223.527 222.99C223.527 224.019 223.096 224.874 222.232 225.555C221.375 226.235 220.296 226.576 218.995 226.576C217.706 226.576 216.654 226.246 215.841 225.588C215.033 224.929 214.601 224.052 214.546 222.957H216.596C216.64 223.51 216.881 223.953 217.318 224.285C217.756 224.611 218.32 224.774 219.012 224.774C219.698 224.774 220.257 224.597 220.688 224.243C221.126 223.883 221.344 223.421 221.344 222.857C221.344 222.27 221.131 221.808 220.705 221.471C220.279 221.133 219.698 220.964 218.962 220.964H217.459Z" fill="#000"/>
<path fill-rule="evenodd" clip-rule="evenodd" d="M321.36 144H251.021V142H323.36V218.586L328.017 213.929C328.408 213.538 329.041 213.538 329.431 213.929C329.822 214.319 329.822 214.953 329.431 215.343L323.067 221.707C322.677 222.098 322.044 222.098 321.653 221.707L315.289 215.343C314.899 214.953 314.899 214.319 315.289 213.929C315.68 213.538 316.313 213.538 316.703 213.929L321.36 218.586V144Z" fill="#000"/>
<path fill-rule="evenodd" clip-rule="evenodd" d="M268.364 180.206L274.728 186.57C275.118 186.96 275.118 187.594 274.728 187.984L268.364 194.348C267.973 194.739 267.34 194.739 266.949 194.348C266.559 193.958 266.559 193.324 266.949 192.934L271.606 188.277L218.021 188.277L218.021 186.277L271.606 186.277L266.949 181.62C266.559 181.23 266.559 180.596 266.949 180.206C267.34 179.815 267.973 179.815 268.364 180.206Z" fill="#000"/>
<path fill-rule="evenodd" clip-rule="evenodd" d="M263.364 224.206L269.728 230.57C270.118 230.96 270.118 231.594 269.728 231.984L263.364 238.348C262.973 238.739 262.34 238.739 261.949 238.348C261.559 237.958 261.559 237.324 261.949 236.934L266.606 232.277L213.021 232.277L213.021 230.277L266.606 230.277L261.949 225.62C261.559 225.23 261.559 224.596 261.949 224.206C262.34 223.815 262.973 223.815 263.364 224.206Z" fill="#000"/>
</svg>
