<svg width="345" height="345" viewBox="0 0 345 345" fill="none" xmlns="http://www.w3.org/2000/svg">
<path d="M201.96 152.36C205.38 152.72 215.64 152.9 220.5 152.9C230.58 152.9 275.4 152.9 289.98 152.9C294.12 152.9 298.62 152.72 301.14 152.72C300.96 154.7 300.96 158.48 300.96 161.9C300.96 168.2 300.96 236.24 300.96 251.54C300.96 254.42 301.14 258.56 301.14 261.26H286.92C287.1 259.1 287.1 254.78 287.1 251C287.1 232.1 287.1 171.26 287.1 165.86C281.16 165.86 230.4 165.86 220.5 165.86C215.64 165.86 205.38 166.22 201.96 166.22V152.36ZM205.92 195.02C209.52 195.38 216 195.74 222.12 195.74C231.3 195.74 288.9 195.74 294.12 195.74V208.7C288.9 208.7 231.3 208.7 222.12 208.7C216 208.7 209.52 208.7 205.92 209.06V195.02ZM199.98 239.84C202.86 240.2 208.44 240.56 214.74 240.56C225 240.56 286.38 240.56 294.3 240.56V253.88C285.3 253.88 225 253.88 214.74 253.88C209.16 253.88 202.86 254.24 199.98 254.24V239.84Z" fill="#f00"/>
<path d="M53.6601 114.74C77.0601 117.8 125.3 127.88 147.98 135.8L142.22 149.66C120.44 141.56 73.2801 131.3 48.4401 128.06L53.6601 114.74ZM45.3801 162.26C70.0401 166.58 113.78 175.76 136.1 183.86L130.52 197.72C109.64 189.62 65.5401 179.72 39.9801 175.76L45.3801 162.26ZM35.6601 214.64C65.7201 219.5 118.1 231.74 142.76 241.64L136.46 255.5C112.7 245.06 59.0601 233 30.0801 228.5L35.6601 214.64Z" fill="#f00"/>
<path d="M69.8701 99.978V90.1582H69.729L66.749 92.25V90.1914L69.8784 88H72.0117V99.978H69.8701Z" fill="#000"/>
<path d="M50.7275 140.802C50.7275 139.684 51.1149 138.771 51.8896 138.062C52.6699 137.354 53.6743 137 54.9028 137C56.0871 137 57.061 137.324 57.8247 137.971C58.5939 138.619 58.9785 139.443 58.9785 140.445C58.9785 141.087 58.7848 141.723 58.3975 142.354C58.0101 142.979 57.3073 143.796 56.2891 144.803L53.7822 147.318V147.459H59.1611V149.277H50.8438V147.791L54.8364 143.707C55.6554 142.877 56.2005 142.254 56.4717 141.839C56.7428 141.419 56.8784 140.998 56.8784 140.578C56.8784 140.052 56.6847 139.618 56.2974 139.274C55.9155 138.931 55.4285 138.76 54.8364 138.76C54.2111 138.76 53.7048 138.948 53.3174 139.324C52.93 139.701 52.7363 140.193 52.7363 140.802V140.835H50.7275V140.802Z" fill="#000"/>
<path d="M47.1196 195.666V194.005H48.5806C49.1893 194.005 49.6846 193.839 50.0664 193.507C50.4482 193.17 50.6392 192.733 50.6392 192.196C50.6392 191.665 50.451 191.241 50.0747 190.926C49.7039 190.605 49.2059 190.444 48.5806 190.444C47.9608 190.444 47.4572 190.608 47.0698 190.934C46.688 191.261 46.4777 191.706 46.439 192.271H44.4385C44.4938 191.169 44.8978 190.3 45.6504 189.664C46.403 189.022 47.4019 188.701 48.647 188.701C49.8091 188.701 50.7747 189.006 51.5439 189.614C52.3187 190.217 52.7061 190.978 52.7061 191.897C52.7061 192.6 52.5096 193.2 52.1167 193.698C51.7293 194.196 51.2036 194.514 50.5396 194.653V194.794C51.3586 194.888 52.0033 195.195 52.4736 195.715C52.9495 196.236 53.1875 196.894 53.1875 197.691C53.1875 198.72 52.7559 199.575 51.8926 200.256C51.0348 200.937 49.9557 201.277 48.6553 201.277C47.3659 201.277 46.3145 200.948 45.501 200.289C44.693 199.631 44.2614 198.753 44.2061 197.658H46.2563C46.3006 198.211 46.5413 198.654 46.9785 198.986C47.4157 199.312 47.9801 199.476 48.6719 199.476C49.3581 199.476 49.917 199.299 50.3486 198.944C50.7858 198.585 51.0044 198.123 51.0044 197.558C51.0044 196.972 50.7913 196.509 50.3652 196.172C49.9391 195.834 49.3581 195.666 48.6221 195.666H47.1196Z" fill="#000"/>
<path fill-rule="evenodd" clip-rule="evenodd" d="M137.284 113.935L142.277 121.423C142.583 121.883 142.459 122.503 141.999 122.81L134.511 127.802C134.051 128.108 133.43 127.984 133.124 127.525C132.818 127.065 132.942 126.444 133.401 126.138L138.881 122.485L56.2484 105.958L56.6406 103.997L139.273 120.524L135.62 115.044C135.314 114.585 135.438 113.964 135.897 113.657C136.357 113.351 136.978 113.475 137.284 113.935Z" fill="#000"/>
<path fill-rule="evenodd" clip-rule="evenodd" d="M127.284 163.233L132.277 170.722C132.583 171.181 132.459 171.802 131.999 172.109L124.511 177.101C124.051 177.407 123.43 177.283 123.124 176.824C122.818 176.364 122.942 175.743 123.401 175.437L128.881 171.784L46.2484 155.257L46.6406 153.296L129.273 169.823L125.62 164.343C125.314 163.883 125.438 163.262 125.897 162.956C126.357 162.65 126.978 162.774 127.284 163.233Z" fill="#000"/>
<path fill-rule="evenodd" clip-rule="evenodd" d="M117.52 215.935L122.512 223.423C122.818 223.883 122.694 224.503 122.235 224.81L114.746 229.802C114.287 230.108 113.666 229.984 113.359 229.525C113.053 229.065 113.177 228.444 113.637 228.138L119.116 224.485L36.4837 207.958L36.8759 205.997L119.509 222.524L115.855 217.044C115.549 216.585 115.673 215.964 116.133 215.657C116.592 215.351 117.213 215.475 117.52 215.935Z" fill="#000"/>
<path d="M245.121 137.978V128.158H244.98L242 130.25V128.191L245.129 126H247.263V137.978H245.121Z" fill="#000"/>
<path d="M209.283 171.802C209.283 170.684 209.671 169.771 210.445 169.062C211.226 168.354 212.23 168 213.458 168C214.643 168 215.617 168.324 216.38 168.971C217.15 169.619 217.534 170.443 217.534 171.445C217.534 172.087 217.34 172.723 216.953 173.354C216.566 173.979 215.863 174.796 214.845 175.803L212.338 178.318V178.459H217.717V180.277H209.399V178.791L213.392 174.707C214.211 173.877 214.756 173.254 215.027 172.839C215.299 172.419 215.434 171.998 215.434 171.578C215.434 171.052 215.24 170.618 214.853 170.274C214.471 169.931 213.984 169.76 213.392 169.76C212.767 169.76 212.26 169.948 211.873 170.324C211.486 170.701 211.292 171.193 211.292 171.802V171.835H209.283V171.802Z" fill="#000"/>
<path d="M206.439 220.964V219.304H207.9C208.509 219.304 209.004 219.138 209.386 218.806C209.768 218.469 209.958 218.031 209.958 217.495C209.958 216.963 209.77 216.54 209.394 216.225C209.023 215.904 208.525 215.743 207.9 215.743C207.28 215.743 206.777 215.906 206.389 216.233C206.007 216.559 205.797 217.005 205.758 217.569H203.758C203.813 216.468 204.217 215.599 204.97 214.963C205.722 214.321 206.721 214 207.966 214C209.128 214 210.094 214.304 210.863 214.913C211.638 215.516 212.025 216.277 212.025 217.196C212.025 217.899 211.829 218.499 211.436 218.997C211.049 219.495 210.523 219.813 209.859 219.952V220.093C210.678 220.187 211.323 220.494 211.793 221.014C212.269 221.534 212.507 222.193 212.507 222.99C212.507 224.019 212.075 224.874 211.212 225.555C210.354 226.235 209.275 226.576 207.975 226.576C206.685 226.576 205.634 226.246 204.82 225.588C204.012 224.929 203.581 224.052 203.525 222.957H205.576C205.62 223.51 205.861 223.953 206.298 224.285C206.735 224.611 207.299 224.774 207.991 224.774C208.677 224.774 209.236 224.597 209.668 224.243C210.105 223.883 210.324 223.421 210.324 222.857C210.324 222.27 210.111 221.808 209.685 221.471C209.258 221.133 208.677 220.964 207.941 220.964H206.439Z" fill="#000"/>
<path fill-rule="evenodd" clip-rule="evenodd" d="M310.34 144H240V142H312.34V218.586L316.997 213.929C317.387 213.538 318.02 213.538 318.411 213.929C318.801 214.319 318.801 214.953 318.411 215.343L312.047 221.707C311.656 222.098 311.023 222.098 310.633 221.707L304.269 215.343C303.878 214.953 303.878 214.319 304.269 213.929C304.659 213.538 305.292 213.538 305.683 213.929L310.34 218.586V144Z" fill="#000"/>
<path fill-rule="evenodd" clip-rule="evenodd" d="M257.343 180.206L263.707 186.57C264.098 186.96 264.098 187.594 263.707 187.984L257.343 194.348C256.953 194.739 256.319 194.739 255.929 194.348C255.538 193.958 255.538 193.324 255.929 192.934L260.586 188.277L207 188.277L207 186.277L260.586 186.277L255.929 181.62C255.538 181.23 255.538 180.596 255.929 180.206C256.319 179.815 256.953 179.815 257.343 180.206Z" fill="#000"/>
<path fill-rule="evenodd" clip-rule="evenodd" d="M252.343 224.206L258.707 230.57C259.098 230.96 259.098 231.594 258.707 231.984L252.343 238.348C251.953 238.739 251.319 238.739 250.929 238.348C250.538 237.958 250.538 237.324 250.929 236.934L255.586 232.277L202 232.277L202 230.277L255.586 230.277L250.929 225.62C250.538 225.23 250.538 224.596 250.929 224.206C251.319 223.815 251.953 223.815 252.343 224.206Z" fill="#000"/>
</svg>
