<svg width="345" height="345" viewBox="0 0 345 345" fill="none" xmlns="http://www.w3.org/2000/svg">
<path d="M201.96 152.36C205.38 152.72 215.639 152.9 220.499 152.9C230.579 152.9 275.4 152.9 289.98 152.9C294.12 152.9 298.62 152.72 301.14 152.72C300.96 154.7 300.959 158.48 300.959 161.9C300.959 168.2 300.959 236.24 300.959 251.54C300.959 254.42 301.14 258.56 301.14 261.26H286.92C287.1 259.1 287.1 254.78 287.1 251C287.1 232.1 287.1 171.26 287.1 165.86C281.16 165.86 230.399 165.86 220.499 165.86C215.639 165.86 205.38 166.22 201.96 166.22V152.36ZM205.919 195.02C209.519 195.38 216 195.74 222.12 195.74C231.3 195.74 288.899 195.74 294.119 195.74V208.7C288.899 208.7 231.3 208.7 222.12 208.7C216 208.7 209.519 208.7 205.919 209.06V195.02ZM199.979 239.84C202.859 240.2 208.44 240.56 214.74 240.56C225 240.56 286.379 240.56 294.299 240.56V253.88C285.299 253.88 225 253.88 214.74 253.88C209.16 253.88 202.859 254.24 199.979 254.24V239.84Z" fill="#f00"/>
<path d="M31.8798 125.9C45.3798 126.62 72.7398 125.9 92.3598 123.2C108.74 121.04 129.8 116.72 138.62 112.76L148.16 125.36C144.2 126.44 140.78 127.34 138.08 128.06C127.64 130.58 110.9 133.82 96.4998 135.8C76.3398 138.5 51.4998 139.04 35.4798 139.4L31.8798 125.9ZM41.9598 248.66C72.5598 234.26 87.8598 211.76 87.8598 174.68C87.8598 174.68 87.8598 158.48 87.8598 133.82L102.26 131.84C102.26 145.88 102.26 174.32 102.26 174.32C102.26 212.66 89.6599 239.12 55.9998 258.38L41.9598 248.66ZM17.8398 168.74C21.7998 169.1 28.0998 169.64 33.6798 169.64C45.1998 169.64 140.96 169.64 152.12 169.64C155.9 169.64 162.56 169.28 166.34 168.92V183.68C162.38 183.32 156.8 183.14 152.3 183.14C141.5 183.14 45.0198 183.14 33.8598 183.14C28.0998 183.14 22.1598 183.32 17.8398 183.68V168.74Z" fill="#f00"/>
<path d="M129.426 93.978V84.1582H129.285L126.305 86.25V84.1914L129.434 82H131.567V93.978H129.426Z" fill="#000"/>
<path d="M121.439 195.964V194.304H122.9C123.509 194.304 124.004 194.138 124.386 193.806C124.768 193.469 124.958 193.031 124.958 192.495C124.958 191.963 124.77 191.54 124.394 191.225C124.023 190.904 123.525 190.743 122.9 190.743C122.28 190.743 121.777 190.906 121.389 191.233C121.007 191.559 120.797 192.005 120.758 192.569H118.758C118.813 191.468 119.217 190.599 119.97 189.963C120.722 189.321 121.721 189 122.966 189C124.128 189 125.094 189.304 125.863 189.913C126.638 190.516 127.025 191.277 127.025 192.196C127.025 192.899 126.829 193.499 126.436 193.997C126.049 194.495 125.523 194.813 124.859 194.952V195.093C125.678 195.187 126.323 195.494 126.793 196.014C127.269 196.534 127.507 197.193 127.507 197.99C127.507 199.019 127.075 199.874 126.212 200.555C125.354 201.235 124.275 201.576 122.975 201.576C121.685 201.576 120.634 201.246 119.82 200.588C119.012 199.929 118.581 199.052 118.525 197.957H120.576C120.62 198.51 120.861 198.953 121.298 199.285C121.735 199.611 122.299 199.774 122.991 199.774C123.677 199.774 124.236 199.597 124.668 199.243C125.105 198.883 125.324 198.421 125.324 197.857C125.324 197.27 125.111 196.808 124.685 196.471C124.258 196.133 123.677 195.964 122.941 195.964H121.439Z" fill="#000"/>
<path d="M22 145.802C22 144.684 22.3874 143.771 23.1621 143.062C23.9424 142.354 24.9468 142 26.1753 142C27.3595 142 28.3335 142.324 29.0972 142.971C29.8664 143.619 30.251 144.443 30.251 145.445C30.251 146.087 30.0573 146.723 29.6699 147.354C29.2826 147.979 28.5798 148.796 27.5615 149.803L25.0547 152.318V152.459H30.4336V154.277H22.1162V152.791L26.1089 148.707C26.9279 147.877 27.473 147.254 27.7441 146.839C28.0153 146.419 28.1509 145.998 28.1509 145.578C28.1509 145.052 27.9572 144.618 27.5698 144.274C27.188 143.931 26.701 143.76 26.1089 143.76C25.4836 143.76 24.9772 143.948 24.5898 144.324C24.2025 144.701 24.0088 145.193 24.0088 145.802V145.835H22V145.802Z" fill="#000"/>
<path fill-rule="evenodd" clip-rule="evenodd" d="M77.3431 151.206L83.7071 157.57C84.0976 157.96 84.0976 158.593 83.7071 158.984L77.3431 165.348C76.9526 165.738 76.3195 165.738 75.9289 165.348C75.5384 164.957 75.5384 164.324 75.9289 163.934L80.5858 159.277L23 159.277L23 157.277L80.5858 157.277L75.9289 152.62C75.5384 152.229 75.5384 151.596 75.9289 151.206C76.3195 150.815 76.9526 150.815 77.3431 151.206Z" fill="#000"/>
<path fill-rule="evenodd" clip-rule="evenodd" d="M33.421 114.471C70.8299 114.263 113.891 109.236 141.12 98.053L141.88 99.903C114.29 111.234 70.9118 116.265 33.4076 116.471L38.0711 121.135C38.4616 121.525 38.4616 122.159 38.0711 122.549C37.6805 122.94 37.0474 122.94 36.6569 122.549L30.2929 116.185C29.9024 115.795 29.9024 115.161 30.2929 114.771L36.6569 108.407C37.0474 108.016 37.6805 108.016 38.0711 108.407C38.4616 108.797 38.4616 109.431 38.0711 109.821L33.421 114.471Z" fill="#000"/>
<path fill-rule="evenodd" clip-rule="evenodd" d="M103.518 227.323C108.644 215.279 110.757 201.906 112.507 186.663L114.494 186.891C112.743 202.148 110.607 215.774 105.358 228.106C100.339 239.897 92.4931 250.465 79.5093 260.181L86.0421 261.27C86.5869 261.361 86.9549 261.876 86.8641 262.421C86.7733 262.966 86.2581 263.334 85.7133 263.243L76.8358 261.763C76.291 261.672 75.923 261.157 76.0138 260.612L77.4934 251.735C77.5841 251.19 78.0994 250.822 78.6441 250.913C79.1889 251.004 79.5569 251.519 79.4661 252.064L78.39 258.521C91.0552 249.024 98.6524 238.753 103.518 227.323Z" fill="#000"/>
<path d="M245.121 137.978V128.158H244.98L242 130.25V128.191L245.129 126H247.263V137.978H245.121Z" fill="#000"/>
<path d="M209.283 171.802C209.283 170.684 209.671 169.771 210.445 169.062C211.226 168.354 212.23 168 213.458 168C214.643 168 215.617 168.324 216.38 168.971C217.15 169.619 217.534 170.443 217.534 171.445C217.534 172.087 217.34 172.723 216.953 173.354C216.566 173.979 215.863 174.796 214.845 175.803L212.338 178.318V178.459H217.717V180.277H209.399V178.791L213.392 174.707C214.211 173.877 214.756 173.254 215.027 172.839C215.299 172.419 215.434 171.998 215.434 171.578C215.434 171.052 215.24 170.618 214.853 170.274C214.471 169.931 213.984 169.76 213.392 169.76C212.767 169.76 212.26 169.948 211.873 170.324C211.486 170.701 211.292 171.193 211.292 171.802V171.835H209.283V171.802Z" fill="#000"/>
<path d="M206.439 220.964V219.304H207.9C208.509 219.304 209.004 219.138 209.386 218.806C209.768 218.469 209.958 218.031 209.958 217.495C209.958 216.963 209.77 216.54 209.394 216.225C209.023 215.904 208.525 215.743 207.9 215.743C207.28 215.743 206.777 215.906 206.389 216.233C206.007 216.559 205.797 217.005 205.758 217.569H203.758C203.813 216.468 204.217 215.599 204.97 214.963C205.722 214.321 206.721 214 207.966 214C209.128 214 210.094 214.304 210.863 214.913C211.638 215.516 212.025 216.277 212.025 217.196C212.025 217.899 211.829 218.499 211.436 218.997C211.049 219.495 210.523 219.813 209.859 219.952V220.093C210.678 220.187 211.323 220.494 211.793 221.014C212.269 221.534 212.507 222.193 212.507 222.99C212.507 224.019 212.075 224.874 211.212 225.555C210.354 226.235 209.275 226.576 207.975 226.576C206.685 226.576 205.634 226.246 204.82 225.588C204.012 224.929 203.581 224.052 203.525 222.957H205.576C205.62 223.51 205.861 223.953 206.298 224.285C206.735 224.611 207.299 224.774 207.991 224.774C208.677 224.774 209.236 224.597 209.668 224.243C210.105 223.883 210.324 223.421 210.324 222.857C210.324 222.27 210.111 221.808 209.685 221.471C209.258 221.133 208.677 220.964 207.941 220.964H206.439Z" fill="#000"/>
<path fill-rule="evenodd" clip-rule="evenodd" d="M310.34 144H240V142H312.34V218.586L316.997 213.929C317.387 213.538 318.02 213.538 318.411 213.929C318.801 214.319 318.801 214.953 318.411 215.343L312.047 221.707C311.656 222.098 311.023 222.098 310.633 221.707L304.269 215.343C303.878 214.953 303.878 214.319 304.269 213.929C304.659 213.538 305.292 213.538 305.683 213.929L310.34 218.586V144Z" fill="#000"/>
<path fill-rule="evenodd" clip-rule="evenodd" d="M257.343 180.206L263.707 186.57C264.098 186.96 264.098 187.594 263.707 187.984L257.343 194.348C256.953 194.739 256.319 194.739 255.929 194.348C255.538 193.958 255.538 193.324 255.929 192.934L260.586 188.277L207 188.277L207 186.277L260.586 186.277L255.929 181.62C255.538 181.23 255.538 180.596 255.929 180.206C256.319 179.815 256.953 179.815 257.343 180.206Z" fill="#000"/>
<path fill-rule="evenodd" clip-rule="evenodd" d="M252.343 224.206L258.707 230.57C259.098 230.96 259.098 231.594 258.707 231.984L252.343 238.348C251.953 238.739 251.319 238.739 250.929 238.348C250.538 237.958 250.538 237.324 250.929 236.934L255.586 232.277L202 232.277L202 230.277L255.586 230.277L250.929 225.62C250.538 225.23 250.538 224.596 250.929 224.206C251.319 223.815 251.953 223.815 252.343 224.206Z" fill="#000"/>
</svg>
