<svg width="346" height="345" viewBox="0 0 346 345" fill="none" xmlns="http://www.w3.org/2000/svg">
<path d="M212.746 152.36C216.166 152.72 226.426 152.9 231.286 152.9C241.366 152.9 286.186 152.9 300.766 152.9C304.906 152.9 309.406 152.72 311.926 152.72C311.746 154.7 311.746 158.48 311.746 161.9C311.746 168.2 311.746 236.24 311.746 251.54C311.746 254.42 311.926 258.56 311.926 261.26H297.706C297.886 259.1 297.886 254.78 297.886 251C297.886 232.1 297.886 171.26 297.886 165.86C291.946 165.86 241.186 165.86 231.286 165.86C226.426 165.86 216.166 166.22 212.746 166.22V152.36ZM216.706 195.02C220.306 195.38 226.786 195.74 232.906 195.74C242.086 195.74 299.686 195.74 304.906 195.74V208.7C299.686 208.7 242.086 208.7 232.906 208.7C226.786 208.7 220.306 208.7 216.706 209.06V195.02ZM210.766 239.84C213.646 240.2 219.226 240.56 225.526 240.56C235.786 240.56 297.166 240.56 305.086 240.56V253.88C296.086 253.88 235.786 253.88 225.526 253.88C219.946 253.88 213.646 254.24 210.766 254.24V239.84Z" fill="#f00"/>
<path d="M129.655 125.54C129.655 132.02 135.055 137.42 141.535 137.42C148.015 137.42 153.595 132.02 153.595 125.54C153.595 119.06 148.015 113.66 141.535 113.66C135.055 113.66 129.655 119.06 129.655 125.54ZM121.375 125.54C121.375 114.38 130.375 105.38 141.535 105.38C152.695 105.38 161.875 114.38 161.875 125.54C161.875 136.7 152.695 145.7 141.535 145.7C130.375 145.7 121.375 136.7 121.375 125.54ZM43.4353 116C42.8953 120.32 42.3553 125.54 42.3553 130.58C42.3553 140.3 42.3553 212.66 42.3553 225.62C42.3553 234.98 46.3153 237.32 54.9553 238.94C60.7153 240.02 69.8953 240.38 78.7153 240.38C97.7953 240.38 125.335 238.58 140.455 234.62V251.18C124.795 253.52 97.7953 254.78 78.1753 254.78C67.3753 254.78 56.7553 254.42 49.1953 253.16C35.5153 250.64 27.7753 244.34 27.7753 229.58C27.7753 212.3 27.7753 140.3 27.7753 130.58C27.7753 126.26 27.4153 120.32 26.6953 116H43.4353ZM35.6953 172.88C57.4753 168.2 90.0553 158.3 110.935 149.48C116.335 146.96 121.555 144.44 126.775 141.2L133.075 155.6C127.855 157.76 121.375 160.64 115.975 162.8C93.6553 171.8 58.0153 182.24 35.8753 187.82L35.6953 172.88Z" fill="#f00"/>
<path d="M57.8857 145.275V135.455H57.7446L54.7646 137.547V135.488L57.894 133.297H60.0273V145.275H57.8857Z" fill="#000"/>
<path d="M0 118.802C0 117.684 0.38737 116.771 1.16211 116.062C1.94238 115.354 2.94678 115 4.17529 115C5.35954 115 6.3335 115.324 7.09717 115.971C7.86637 116.619 8.25098 117.443 8.25098 118.445C8.25098 119.087 8.05729 119.723 7.66992 120.354C7.28255 120.979 6.57975 121.796 5.56152 122.803L3.05469 125.318V125.459H8.43359V127.277H0.116211V125.791L4.10889 121.707C4.9279 120.877 5.47298 120.254 5.74414 119.839C6.0153 119.419 6.15088 118.998 6.15088 118.578C6.15088 118.052 5.95719 117.618 5.56982 117.274C5.18799 116.931 4.70101 116.76 4.10889 116.76C3.48356 116.76 2.97721 116.948 2.58984 117.324C2.20247 117.701 2.00879 118.193 2.00879 118.802V118.835H0V118.802Z" fill="#000"/>
<path fill-rule="evenodd" clip-rule="evenodd" d="M113.555 129.5L121.679 133.372C122.178 133.61 122.389 134.207 122.151 134.705L118.279 142.83C118.041 143.328 117.445 143.54 116.946 143.302C116.448 143.065 116.236 142.468 116.474 141.969L119.307 136.024L48.7883 161L48.1202 159.115L118.639 134.139L112.694 131.306C112.196 131.068 111.984 130.471 112.222 129.973C112.459 129.474 113.056 129.262 113.555 129.5Z" fill="#000"/>
<path fill-rule="evenodd" clip-rule="evenodd" d="M23.7882 165.62L17.4242 171.984C17.0337 172.375 16.4005 172.375 16.01 171.984L9.64602 165.62C9.2555 165.23 9.2555 164.597 9.64602 164.206C10.0365 163.816 10.6697 163.816 11.0602 164.206L15.7171 168.863L15.7171 115.277L17.7171 115.277L17.7171 168.863L22.3739 164.206C22.7645 163.816 23.3976 163.816 23.7882 164.206C24.1787 164.597 24.1787 165.23 23.7882 165.62Z" fill="#000"/>
<path d="M151.914 96.9644V95.3042H153.375C153.983 95.3042 154.479 95.1382 154.86 94.8062C155.242 94.4686 155.433 94.0314 155.433 93.4946C155.433 92.9634 155.245 92.54 154.869 92.2246C154.498 91.9036 154 91.7432 153.375 91.7432C152.755 91.7432 152.251 91.9064 151.864 92.2329C151.482 92.5594 151.272 93.0049 151.233 93.5693H149.232C149.288 92.4681 149.692 91.5993 150.444 90.9629C151.197 90.321 152.196 90 153.441 90C154.603 90 155.569 90.3044 156.338 90.9131C157.113 91.5163 157.5 92.2772 157.5 93.1958C157.5 93.8986 157.304 94.499 156.911 94.9971C156.523 95.4951 155.998 95.8133 155.333 95.9517V96.0928C156.153 96.1868 156.797 96.494 157.268 97.0142C157.743 97.5343 157.981 98.1929 157.981 98.9897C157.981 100.019 157.55 100.874 156.687 101.555C155.829 102.235 154.75 102.576 153.449 102.576C152.16 102.576 151.108 102.246 150.295 101.588C149.487 100.929 149.055 100.052 149 98.9565H151.05C151.095 99.5099 151.335 99.9526 151.772 100.285C152.21 100.611 152.774 100.774 153.466 100.774C154.152 100.774 154.711 100.597 155.143 100.243C155.58 99.8835 155.798 99.4214 155.798 98.8569C155.798 98.2703 155.585 97.8083 155.159 97.4707C154.733 97.1331 154.152 96.9644 153.416 96.9644H151.914Z" fill="#000"/>
<path d="M256.142 137.978V128.158H256L253.021 130.25V128.191L256.15 126H258.283V137.978H256.142Z" fill="#000"/>
<path d="M220.304 171.802C220.304 170.684 220.691 169.771 221.466 169.062C222.246 168.354 223.25 168 224.479 168C225.663 168 226.637 168.324 227.401 168.971C228.17 169.619 228.555 170.443 228.555 171.445C228.555 172.087 228.361 172.723 227.974 173.354C227.586 173.979 226.883 174.796 225.865 175.803L223.358 178.318V178.459H228.737V180.277H220.42V178.791L224.413 174.707C225.232 173.877 225.777 173.254 226.048 172.839C226.319 172.419 226.455 171.998 226.455 171.578C226.455 171.052 226.261 170.618 225.874 170.274C225.492 169.931 225.005 169.76 224.413 169.76C223.787 169.76 223.281 169.948 222.894 170.324C222.506 170.701 222.312 171.193 222.312 171.802V171.835H220.304V171.802Z" fill="#000"/>
<path d="M217.459 220.964V219.304H218.92C219.529 219.304 220.024 219.138 220.406 218.806C220.788 218.469 220.979 218.031 220.979 217.495C220.979 216.963 220.791 216.54 220.415 216.225C220.044 215.904 219.546 215.743 218.92 215.743C218.301 215.743 217.797 215.906 217.41 216.233C217.028 216.559 216.818 217.005 216.779 217.569H214.778C214.834 216.468 215.238 215.599 215.99 214.963C216.743 214.321 217.742 214 218.987 214C220.149 214 221.115 214.304 221.884 214.913C222.659 215.516 223.046 216.277 223.046 217.196C223.046 217.899 222.849 218.499 222.457 218.997C222.069 219.495 221.543 219.813 220.879 219.952V220.093C221.698 220.187 222.343 220.494 222.813 221.014C223.289 221.534 223.527 222.193 223.527 222.99C223.527 224.019 223.096 224.874 222.232 225.555C221.375 226.235 220.296 226.576 218.995 226.576C217.706 226.576 216.654 226.246 215.841 225.588C215.033 224.929 214.601 224.052 214.546 222.957H216.596C216.64 223.51 216.881 223.953 217.318 224.285C217.756 224.611 218.32 224.774 219.012 224.774C219.698 224.774 220.257 224.597 220.688 224.243C221.126 223.883 221.344 223.421 221.344 222.857C221.344 222.27 221.131 221.808 220.705 221.471C220.279 221.133 219.698 220.964 218.962 220.964H217.459Z" fill="#000"/>
<path fill-rule="evenodd" clip-rule="evenodd" d="M321.36 144H251.021V142H323.36V218.586L328.017 213.929C328.408 213.538 329.041 213.538 329.431 213.929C329.822 214.319 329.822 214.953 329.431 215.343L323.067 221.707C322.677 222.098 322.044 222.098 321.653 221.707L315.289 215.343C314.899 214.953 314.899 214.319 315.289 213.929C315.68 213.538 316.313 213.538 316.703 213.929L321.36 218.586V144Z" fill="#000"/>
<path fill-rule="evenodd" clip-rule="evenodd" d="M268.364 180.206L274.728 186.57C275.118 186.96 275.118 187.594 274.728 187.984L268.364 194.348C267.973 194.739 267.34 194.739 266.949 194.348C266.559 193.958 266.559 193.324 266.949 192.934L271.606 188.277L218.021 188.277L218.021 186.277L271.606 186.277L266.949 181.62C266.559 181.23 266.559 180.596 266.949 180.206C267.34 179.815 267.973 179.815 268.364 180.206Z" fill="#000"/>
<path fill-rule="evenodd" clip-rule="evenodd" d="M263.364 224.206L269.728 230.57C270.118 230.96 270.118 231.594 269.728 231.984L263.364 238.348C262.973 238.739 262.34 238.739 261.949 238.348C261.559 237.958 261.559 237.324 261.949 236.934L266.606 232.277L213.021 232.277L213.021 230.277L266.606 230.277L261.949 225.62C261.559 225.23 261.559 224.596 261.949 224.206C262.34 223.815 262.973 223.815 263.364 224.206Z" fill="#000"/>
</svg>
