<svg width="345" height="345" viewBox="0 0 345 345" fill="none" xmlns="http://www.w3.org/2000/svg">
<path d="M294.48 165.5C293.94 167.12 293.4 169.46 293.4 171.08C291.78 184.58 285.3 227.78 283.14 240.38H268.02C270 230.66 276.66 186.56 277.2 175.04C266.04 175.04 225 175.04 220.14 175.04C214.92 175.04 210.06 175.22 205.56 175.58V160.46C209.88 161 215.46 161.36 219.96 161.36C226.8 161.36 264.6 161.36 274.68 161.36C277.56 161.36 282.06 161 283.5 160.1L294.48 165.5ZM188.64 234.62C192.96 235.16 198.18 235.52 203.58 235.52C213.3 235.52 292.32 235.52 301.86 235.52C305.82 235.52 312.3 235.16 316.08 234.8V249.38C312.66 249.2 306.18 249.2 302.22 249.2C292.14 249.2 212.58 249.2 203.58 249.2C198.18 249.2 194.04 249.38 188.64 249.56V234.62Z" fill="#f00"/>
<path d="M72.3801 123.74C71.4801 119.24 70.4001 115.28 69.1401 111.5L85.1601 108.8C85.5201 112.04 86.2401 117.26 86.9601 121.22C88.0401 129.14 107.84 227.96 110.36 239.84C111.62 244.88 113.06 251 114.86 256.22L98.3001 259.28C97.4001 253.16 96.8601 247.58 95.6001 242.36C93.8001 231.02 74.5401 133.1 72.3801 123.74ZM21.6201 149.84C26.1201 149.48 30.9801 149.12 36.7401 148.58C52.9401 146.78 115.04 136.88 132.14 133.46C137.36 132.56 142.04 131.48 145.1 130.58L147.98 145.7C145.28 145.88 139.88 146.78 135.02 147.5C116.48 150.38 55.1001 160.1 39.2601 162.8C34.4001 163.7 30.0801 164.6 24.8601 165.86L21.6201 149.84ZM21.0801 201.68C25.4001 201.5 32.2401 200.78 36.9201 200.06C56.1801 197.54 123.14 186.56 144.74 182.6C151.58 181.34 156.8 180.08 160.58 179L163.64 194.12C159.86 194.48 154.1 195.56 147.44 196.64C123.5 200.24 58.5201 210.86 40.3401 214.1C33.3201 215.36 28.2801 216.44 24.3201 217.52L21.0801 201.68Z" fill="#f00"/>
<path d="M17.1211 134.978V125.158H16.98L14 127.25V125.191L17.1294 123H19.2627V134.978H17.1211Z" fill="#000"/>
<path d="M22.4902 175.802C22.4902 174.684 22.8776 173.771 23.6523 173.062C24.4326 172.354 25.437 172 26.6655 172C27.8498 172 28.8237 172.324 29.5874 172.971C30.3566 173.619 30.7412 174.443 30.7412 175.445C30.7412 176.087 30.5475 176.723 30.1602 177.354C29.7728 177.979 29.07 178.796 28.0518 179.803L25.5449 182.318V182.459H30.9238V184.277H22.6064V182.791L26.5991 178.707C27.4181 177.877 27.9632 177.254 28.2344 176.839C28.5055 176.419 28.6411 175.998 28.6411 175.578C28.6411 175.052 28.4474 174.618 28.0601 174.274C27.6782 173.931 27.1912 173.76 26.5991 173.76C25.9738 173.76 25.4674 173.948 25.0801 174.324C24.6927 174.701 24.499 175.193 24.499 175.802V175.835H22.4902V175.802Z" fill="#000"/>
<path d="M102.663 95.9644V94.3042H104.124C104.732 94.3042 105.228 94.1382 105.609 93.8062C105.991 93.4686 106.182 93.0314 106.182 92.4946C106.182 91.9634 105.994 91.54 105.618 91.2246C105.247 90.9036 104.749 90.7432 104.124 90.7432C103.504 90.7432 103 90.9064 102.613 91.2329C102.231 91.5594 102.021 92.0049 101.982 92.5693H99.9814C100.037 91.4681 100.441 90.5993 101.193 89.9629C101.946 89.321 102.945 89 104.19 89C105.352 89 106.318 89.3044 107.087 89.9131C107.862 90.5163 108.249 91.2772 108.249 92.1958C108.249 92.8986 108.053 93.499 107.66 93.9971C107.272 94.4951 106.747 94.8133 106.083 94.9517V95.0928C106.902 95.1868 107.546 95.494 108.017 96.0142C108.493 96.5343 108.73 97.1929 108.73 97.9897C108.73 99.019 108.299 99.874 107.436 100.555C106.578 101.235 105.499 101.576 104.198 101.576C102.909 101.576 101.857 101.246 101.044 100.588C100.236 99.9294 99.8044 99.0522 99.749 97.9565H101.799C101.844 98.5099 102.084 98.9526 102.521 99.2847C102.959 99.6112 103.523 99.7744 104.215 99.7744C104.901 99.7744 105.46 99.5973 105.892 99.2432C106.329 98.8835 106.547 98.4214 106.547 97.8569C106.547 97.2703 106.334 96.8083 105.908 96.4707C105.482 96.1331 104.901 95.9644 104.165 95.9644H102.663Z" fill="#000"/>
<path fill-rule="evenodd" clip-rule="evenodd" d="M62.697 127.38L70.0178 132.615C70.4671 132.936 70.5708 133.561 70.2496 134.01L65.0146 141.331C64.6934 141.78 64.0688 141.884 63.6195 141.563C63.1703 141.241 63.0665 140.617 63.3878 140.168L67.2185 134.811L13.3707 143.756L13.0429 141.783L66.8907 132.838L61.5336 129.007C61.0844 128.686 60.9806 128.061 61.3019 127.612C61.6231 127.163 62.2477 127.059 62.697 127.38Z" fill="#000"/>
<path fill-rule="evenodd" clip-rule="evenodd" d="M71.697 178.228L79.0178 183.463C79.4671 183.784 79.5708 184.409 79.2496 184.858L74.0146 192.179C73.6934 192.628 73.0688 192.732 72.6195 192.411C72.1703 192.09 72.0665 191.465 72.3878 191.016L76.2185 185.659L22.3707 194.604L22.0429 192.631L75.8907 183.686L70.5336 179.855C70.0844 179.534 69.9806 178.909 70.3019 178.46C70.6231 178.011 71.2477 177.907 71.697 178.228Z" fill="#000"/>
<path fill-rule="evenodd" clip-rule="evenodd" d="M106.523 126.018L101.517 133.497C101.21 133.956 100.588 134.079 100.13 133.772L92.6501 128.766C92.1911 128.459 92.0681 127.838 92.3753 127.379C92.6824 126.92 93.3035 126.797 93.7625 127.104L99.2356 130.767L92.2428 95.4712L94.2046 95.0825L101.197 130.379L104.861 124.906C105.168 124.447 105.789 124.324 106.248 124.631C106.707 124.938 106.83 125.559 106.523 126.018Z" fill="#000"/>
<path d="M247.121 144.978V135.158H246.98L244 137.25V135.191L247.129 133H249.263V144.978H247.121Z" fill="#000"/>
<path d="M194.283 208.802C194.283 207.684 194.671 206.771 195.445 206.062C196.226 205.354 197.23 205 198.458 205C199.643 205 200.617 205.324 201.38 205.971C202.15 206.619 202.534 207.443 202.534 208.445C202.534 209.087 202.34 209.723 201.953 210.354C201.566 210.979 200.863 211.796 199.845 212.803L197.338 215.318V215.459H202.717V217.277H194.399V215.791L198.392 211.707C199.211 210.877 199.756 210.254 200.027 209.839C200.299 209.419 200.434 208.998 200.434 208.578C200.434 208.052 200.24 207.618 199.853 207.274C199.471 206.931 198.984 206.76 198.392 206.76C197.767 206.76 197.26 206.948 196.873 207.324C196.486 207.701 196.292 208.193 196.292 208.802V208.835H194.283V208.802Z" fill="#000"/>
<path fill-rule="evenodd" clip-rule="evenodd" d="M239.343 218.206L245.707 224.57C246.098 224.96 246.098 225.594 245.707 225.984L239.343 232.348C238.953 232.739 238.319 232.739 237.929 232.348C237.538 231.958 237.538 231.324 237.929 230.934L242.586 226.277L189 226.277L189 224.277L242.586 224.277L237.929 219.62C237.538 219.23 237.538 218.596 237.929 218.206C238.319 217.815 238.953 217.815 239.343 218.206Z" fill="#000"/>
<path fill-rule="evenodd" clip-rule="evenodd" d="M306.361 151.5H241V149.5H308.639L301.304 205.735L306.524 201.72C306.962 201.383 307.59 201.465 307.926 201.903C308.263 202.341 308.181 202.968 307.743 203.305L300.61 208.793C300.172 209.129 299.544 209.047 299.207 208.61L293.72 201.476C293.383 201.038 293.465 200.41 293.903 200.074C294.341 199.737 294.968 199.819 295.305 200.257L299.321 205.477L306.361 151.5Z" fill="#000"/>
</svg>
