<svg width="345" height="345" viewBox="0 0 345 345" fill="none" xmlns="http://www.w3.org/2000/svg">
<path d="M201.96 152.36C205.38 152.72 215.64 152.9 220.5 152.9C230.58 152.9 275.4 152.9 289.98 152.9C294.12 152.9 298.62 152.72 301.14 152.72C300.96 154.7 300.96 158.48 300.96 161.9C300.96 168.2 300.96 236.24 300.96 251.54C300.96 254.42 301.14 258.56 301.14 261.26H286.92C287.1 259.1 287.1 254.78 287.1 251C287.1 232.1 287.1 171.26 287.1 165.86C281.16 165.86 230.4 165.86 220.5 165.86C215.64 165.86 205.38 166.22 201.96 166.22V152.36ZM205.92 195.02C209.52 195.38 216 195.74 222.12 195.74C231.3 195.74 288.9 195.74 294.12 195.74V208.7C288.9 208.7 231.3 208.7 222.12 208.7C216 208.7 209.52 208.7 205.92 209.06V195.02ZM199.98 239.84C202.86 240.2 208.44 240.56 214.74 240.56C225 240.56 286.38 240.56 294.3 240.56V253.88C285.3 253.88 225 253.88 214.74 253.88C209.16 253.88 202.86 254.24 199.98 254.24V239.84Z" fill="#f00"/>
<path d="M72.3801 123.74C71.4801 119.24 70.4001 115.28 69.1401 111.5L85.1601 108.8C85.5201 112.04 86.2401 117.26 86.9601 121.22C88.0401 129.14 107.84 227.96 110.36 239.84C111.62 244.88 113.06 251 114.86 256.22L98.3001 259.28C97.4001 253.16 96.8601 247.58 95.6001 242.36C93.8001 231.02 74.5401 133.1 72.3801 123.74ZM21.6201 149.84C26.1201 149.48 30.9801 149.12 36.7401 148.58C52.9401 146.78 115.04 136.88 132.14 133.46C137.36 132.56 142.04 131.48 145.1 130.58L147.98 145.7C145.28 145.88 139.88 146.78 135.02 147.5C116.48 150.38 55.1001 160.1 39.2601 162.8C34.4001 163.7 30.0801 164.6 24.8601 165.86L21.6201 149.84ZM21.0801 201.68C25.4001 201.5 32.2401 200.78 36.9201 200.06C56.1801 197.54 123.14 186.56 144.74 182.6C151.58 181.34 156.8 180.08 160.58 179L163.64 194.12C159.86 194.48 154.1 195.56 147.44 196.64C123.5 200.24 58.5201 210.86 40.3401 214.1C33.3201 215.36 28.2801 216.44 24.3201 217.52L21.0801 201.68Z" fill="#f00"/>
<path d="M17.1211 134.978V125.158H16.98L14 127.25V125.191L17.1294 123H19.2627V134.978H17.1211Z" fill="#000"/>
<path d="M22.4902 175.802C22.4902 174.684 22.8776 173.771 23.6523 173.062C24.4326 172.354 25.437 172 26.6655 172C27.8498 172 28.8237 172.324 29.5874 172.971C30.3566 173.619 30.7412 174.443 30.7412 175.445C30.7412 176.087 30.5475 176.723 30.1602 177.354C29.7728 177.979 29.07 178.796 28.0518 179.803L25.5449 182.318V182.459H30.9238V184.277H22.6064V182.791L26.5991 178.707C27.4181 177.877 27.9632 177.254 28.2344 176.839C28.5055 176.419 28.6411 175.998 28.6411 175.578C28.6411 175.052 28.4474 174.618 28.0601 174.274C27.6782 173.931 27.1912 173.76 26.5991 173.76C25.9738 173.76 25.4674 173.948 25.0801 174.324C24.6927 174.701 24.499 175.193 24.499 175.802V175.835H22.4902V175.802Z" fill="#000"/>
<path d="M102.663 95.9644V94.3042H104.124C104.732 94.3042 105.228 94.1382 105.609 93.8062C105.991 93.4686 106.182 93.0314 106.182 92.4946C106.182 91.9634 105.994 91.54 105.618 91.2246C105.247 90.9036 104.749 90.7432 104.124 90.7432C103.504 90.7432 103 90.9064 102.613 91.2329C102.231 91.5594 102.021 92.0049 101.982 92.5693H99.9814C100.037 91.4681 100.441 90.5993 101.193 89.9629C101.946 89.321 102.945 89 104.19 89C105.352 89 106.318 89.3044 107.087 89.9131C107.862 90.5163 108.249 91.2772 108.249 92.1958C108.249 92.8986 108.053 93.499 107.66 93.9971C107.272 94.4951 106.747 94.8133 106.083 94.9517V95.0928C106.902 95.1868 107.546 95.494 108.017 96.0142C108.493 96.5343 108.73 97.1929 108.73 97.9897C108.73 99.019 108.299 99.874 107.436 100.555C106.578 101.235 105.499 101.576 104.198 101.576C102.909 101.576 101.857 101.246 101.044 100.588C100.236 99.9294 99.8044 99.0522 99.749 97.9565H101.799C101.844 98.5099 102.084 98.9526 102.521 99.2847C102.959 99.6112 103.523 99.7744 104.215 99.7744C104.901 99.7744 105.46 99.5973 105.892 99.2432C106.329 98.8835 106.547 98.4214 106.547 97.8569C106.547 97.2703 106.334 96.8083 105.908 96.4707C105.482 96.1331 104.901 95.9644 104.165 95.9644H102.663Z" fill="#000"/>
<path fill-rule="evenodd" clip-rule="evenodd" d="M62.697 127.38L70.0178 132.615C70.4671 132.936 70.5708 133.561 70.2496 134.01L65.0146 141.331C64.6934 141.78 64.0688 141.884 63.6195 141.563C63.1703 141.241 63.0665 140.617 63.3878 140.168L67.2185 134.811L13.3707 143.756L13.0429 141.783L66.8907 132.838L61.5336 129.007C61.0844 128.686 60.9806 128.061 61.3019 127.612C61.6231 127.163 62.2477 127.059 62.697 127.38Z" fill="#000"/>
<path fill-rule="evenodd" clip-rule="evenodd" d="M71.697 178.228L79.0178 183.463C79.4671 183.784 79.5708 184.409 79.2496 184.858L74.0146 192.179C73.6934 192.628 73.0688 192.732 72.6195 192.411C72.1703 192.09 72.0665 191.465 72.3878 191.016L76.2185 185.659L22.3707 194.604L22.0429 192.631L75.8907 183.686L70.5336 179.855C70.0844 179.534 69.9806 178.909 70.3019 178.46C70.6231 178.011 71.2477 177.907 71.697 178.228Z" fill="#000"/>
<path fill-rule="evenodd" clip-rule="evenodd" d="M106.523 126.018L101.517 133.497C101.21 133.956 100.588 134.079 100.13 133.772L92.6501 128.766C92.1911 128.459 92.0681 127.838 92.3753 127.379C92.6824 126.92 93.3035 126.797 93.7625 127.104L99.2356 130.767L92.2428 95.4712L94.2046 95.0825L101.197 130.379L104.861 124.906C105.168 124.447 105.789 124.324 106.248 124.631C106.707 124.938 106.83 125.559 106.523 126.018Z" fill="#000"/>
<path d="M245.121 137.978V128.158H244.98L242 130.25V128.191L245.129 126H247.263V137.978H245.121Z" fill="#000"/>
<path d="M209.283 171.802C209.283 170.684 209.671 169.771 210.445 169.062C211.226 168.354 212.23 168 213.458 168C214.643 168 215.617 168.324 216.38 168.971C217.15 169.619 217.534 170.443 217.534 171.445C217.534 172.087 217.34 172.723 216.953 173.354C216.566 173.979 215.863 174.796 214.845 175.803L212.338 178.318V178.459H217.717V180.277H209.399V178.791L213.392 174.707C214.211 173.877 214.756 173.254 215.027 172.839C215.299 172.419 215.434 171.998 215.434 171.578C215.434 171.052 215.24 170.618 214.853 170.274C214.471 169.931 213.984 169.76 213.392 169.76C212.767 169.76 212.26 169.948 211.873 170.324C211.486 170.701 211.292 171.193 211.292 171.802V171.835H209.283V171.802Z" fill="#000"/>
<path d="M206.439 220.964V219.304H207.9C208.509 219.304 209.004 219.138 209.386 218.806C209.768 218.469 209.958 218.031 209.958 217.495C209.958 216.963 209.77 216.54 209.394 216.225C209.023 215.904 208.525 215.743 207.9 215.743C207.28 215.743 206.777 215.906 206.389 216.233C206.007 216.559 205.797 217.005 205.758 217.569H203.758C203.813 216.468 204.217 215.599 204.97 214.963C205.722 214.321 206.721 214 207.966 214C209.128 214 210.094 214.304 210.863 214.913C211.638 215.516 212.025 216.277 212.025 217.196C212.025 217.899 211.829 218.499 211.436 218.997C211.049 219.495 210.523 219.813 209.859 219.952V220.093C210.678 220.187 211.323 220.494 211.793 221.014C212.269 221.534 212.507 222.193 212.507 222.99C212.507 224.019 212.075 224.874 211.212 225.555C210.354 226.235 209.275 226.576 207.975 226.576C206.685 226.576 205.634 226.246 204.82 225.588C204.012 224.929 203.581 224.052 203.525 222.957H205.576C205.62 223.51 205.861 223.953 206.298 224.285C206.735 224.611 207.299 224.774 207.991 224.774C208.677 224.774 209.236 224.597 209.668 224.243C210.105 223.883 210.324 223.421 210.324 222.857C210.324 222.27 210.111 221.808 209.685 221.471C209.258 221.133 208.677 220.964 207.941 220.964H206.439Z" fill="#000"/>
<path fill-rule="evenodd" clip-rule="evenodd" d="M310.34 144H240V142H312.34V218.586L316.997 213.929C317.387 213.538 318.02 213.538 318.411 213.929C318.801 214.319 318.801 214.953 318.411 215.343L312.047 221.707C311.656 222.098 311.023 222.098 310.633 221.707L304.269 215.343C303.878 214.953 303.878 214.319 304.269 213.929C304.659 213.538 305.292 213.538 305.683 213.929L310.34 218.586V144Z" fill="#000"/>
<path fill-rule="evenodd" clip-rule="evenodd" d="M257.343 180.206L263.707 186.57C264.098 186.96 264.098 187.594 263.707 187.984L257.343 194.348C256.953 194.739 256.319 194.739 255.929 194.348C255.538 193.958 255.538 193.324 255.929 192.934L260.586 188.277L207 188.277L207 186.277L260.586 186.277L255.929 181.62C255.538 181.23 255.538 180.596 255.929 180.206C256.319 179.815 256.953 179.815 257.343 180.206Z" fill="#000"/>
<path fill-rule="evenodd" clip-rule="evenodd" d="M252.343 224.206L258.707 230.57C259.098 230.96 259.098 231.594 258.707 231.984L252.343 238.348C251.953 238.739 251.319 238.739 250.929 238.348C250.538 237.958 250.538 237.324 250.929 236.934L255.586 232.277L202 232.277L202 230.277L255.586 230.277L250.929 225.62C250.538 225.23 250.538 224.596 250.929 224.206C251.319 223.815 251.953 223.815 252.343 224.206Z" fill="#000"/>
</svg>
