<svg width="345" height="345" viewBox="0 0 345 345" fill="none" xmlns="http://www.w3.org/2000/svg">
<path d="M230.921 140.84C231.281 144.08 232.361 147.86 233.441 152.54C237.581 167.48 257.201 238.76 260.981 251C262.061 254.42 263.681 260 264.941 263.24L249.461 267.38C249.101 263.24 248.201 258.56 246.941 254.24C243.161 241.28 223.901 168.74 219.761 155.42C218.501 151.1 217.061 147.5 215.441 144.62L230.921 140.84ZM317.321 165.68C309.761 180.8 291.221 206.18 278.801 218.24L266.201 211.76C277.361 202.22 291.041 185.48 297.161 174.86C289.241 176.3 205.001 193.22 192.221 195.92L188.621 182.24C193.661 181.7 198.161 181.16 203.561 180.08C212.561 178.64 291.041 163.88 301.301 161.54C303.641 161 306.341 160.1 308.141 159.2L317.321 165.68Z" fill="#f00"/>
<path d="M33.2587 125.9C46.7588 126.62 74.1188 125.9 93.7388 123.2C110.119 121.04 131.179 116.72 139.999 112.76L149.539 125.36C145.579 126.44 142.159 127.34 139.459 128.06C129.019 130.58 112.279 133.82 97.8788 135.8C77.7188 138.5 52.8787 139.04 36.8587 139.4L33.2587 125.9ZM43.3388 248.66C73.9388 234.26 89.2388 211.76 89.2388 174.68C89.2388 174.68 89.2388 158.48 89.2388 133.82L103.639 131.84C103.639 145.88 103.639 174.32 103.639 174.32C103.639 212.66 91.0388 239.12 57.3788 258.38L43.3388 248.66ZM19.2188 168.74C23.1788 169.1 29.4788 169.64 35.0588 169.64C46.5788 169.64 142.339 169.64 153.499 169.64C157.279 169.64 163.939 169.28 167.719 168.92V183.68C163.759 183.32 158.179 183.14 153.679 183.14C142.879 183.14 46.3988 183.14 35.2387 183.14C29.4788 183.14 23.5387 183.32 19.2188 183.68V168.74Z" fill="#f00"/>
<path d="M129.426 93.978V84.1582H129.285L126.305 86.25V84.1914L129.434 82H131.567V93.978H129.426Z" fill="#000"/>
<path d="M121.439 195.964V194.304H122.9C123.509 194.304 124.004 194.138 124.386 193.806C124.768 193.469 124.958 193.031 124.958 192.495C124.958 191.963 124.77 191.54 124.394 191.225C124.023 190.904 123.525 190.743 122.9 190.743C122.28 190.743 121.777 190.906 121.389 191.233C121.007 191.559 120.797 192.005 120.758 192.569H118.758C118.813 191.468 119.217 190.599 119.97 189.963C120.722 189.321 121.721 189 122.966 189C124.128 189 125.094 189.304 125.863 189.913C126.638 190.516 127.025 191.277 127.025 192.196C127.025 192.899 126.829 193.499 126.436 193.997C126.049 194.495 125.523 194.813 124.859 194.952V195.093C125.678 195.187 126.323 195.494 126.793 196.014C127.269 196.534 127.507 197.193 127.507 197.99C127.507 199.019 127.075 199.874 126.212 200.555C125.354 201.235 124.275 201.576 122.975 201.576C121.685 201.576 120.634 201.246 119.82 200.588C119.012 199.929 118.581 199.052 118.525 197.957H120.576C120.62 198.51 120.861 198.953 121.298 199.285C121.735 199.611 122.299 199.774 122.991 199.774C123.677 199.774 124.236 199.597 124.668 199.243C125.105 198.883 125.324 198.421 125.324 197.857C125.324 197.27 125.111 196.808 124.685 196.471C124.258 196.133 123.677 195.964 122.941 195.964H121.439Z" fill="#000"/>
<path d="M22 145.802C22 144.684 22.3874 143.771 23.1621 143.062C23.9424 142.354 24.9468 142 26.1753 142C27.3595 142 28.3335 142.324 29.0972 142.971C29.8664 143.619 30.251 144.443 30.251 145.445C30.251 146.087 30.0573 146.723 29.6699 147.354C29.2826 147.979 28.5798 148.796 27.5615 149.803L25.0547 152.318V152.459H30.4336V154.277H22.1162V152.791L26.1089 148.707C26.9279 147.877 27.473 147.254 27.7441 146.839C28.0153 146.419 28.1509 145.998 28.1509 145.578C28.1509 145.052 27.9572 144.618 27.5698 144.274C27.188 143.931 26.701 143.76 26.1089 143.76C25.4836 143.76 24.9772 143.948 24.5898 144.324C24.2025 144.701 24.0088 145.193 24.0088 145.802V145.835H22V145.802Z" fill="#000"/>
<path fill-rule="evenodd" clip-rule="evenodd" d="M77.3431 151.206L83.7071 157.57C84.0976 157.96 84.0976 158.593 83.7071 158.984L77.3431 165.348C76.9526 165.738 76.3195 165.738 75.9289 165.348C75.5384 164.957 75.5384 164.324 75.9289 163.934L80.5858 159.277L23 159.277L23 157.277L80.5858 157.277L75.9289 152.62C75.5384 152.229 75.5384 151.596 75.9289 151.206C76.3195 150.815 76.9526 150.815 77.3431 151.206Z" fill="#000"/>
<path fill-rule="evenodd" clip-rule="evenodd" d="M33.421 114.471C70.8299 114.263 113.891 109.236 141.12 98.053L141.88 99.903C114.29 111.234 70.9118 116.265 33.4076 116.471L38.0711 121.135C38.4616 121.525 38.4616 122.159 38.0711 122.549C37.6805 122.94 37.0474 122.94 36.6569 122.549L30.2929 116.185C29.9024 115.795 29.9024 115.161 30.2929 114.771L36.6569 108.407C37.0474 108.016 37.6805 108.016 38.0711 108.407C38.4616 108.797 38.4616 109.431 38.0711 109.821L33.421 114.471Z" fill="#000"/>
<path fill-rule="evenodd" clip-rule="evenodd" d="M103.518 227.323C108.644 215.279 110.757 201.906 112.507 186.663L114.494 186.891C112.743 202.148 110.607 215.774 105.358 228.106C100.339 239.897 92.4931 250.465 79.5093 260.181L86.0421 261.27C86.5869 261.361 86.9549 261.876 86.8641 262.421C86.7733 262.966 86.2581 263.334 85.7133 263.243L76.8358 261.763C76.291 261.672 75.923 261.157 76.0138 260.612L77.4934 251.735C77.5841 251.19 78.0994 250.822 78.6441 250.913C79.1889 251.004 79.5569 251.519 79.4661 252.064L78.39 258.521C91.0552 249.024 98.6524 238.753 103.518 227.323Z" fill="#000"/>
<path d="M186.121 166.978V157.158H185.98L183 159.25V157.191L186.129 155H188.263V166.978H186.121Z" fill="#000"/>
<path d="M243 118.802C243 117.684 243.387 116.771 244.162 116.062C244.942 115.354 245.947 115 247.175 115C248.36 115 249.333 115.324 250.097 115.971C250.866 116.619 251.251 117.443 251.251 118.445C251.251 119.087 251.057 119.723 250.67 120.354C250.283 120.979 249.58 121.796 248.562 122.803L246.055 125.318V125.459H251.434V127.277H243.116V125.791L247.109 121.707C247.928 120.877 248.473 120.254 248.744 119.839C249.015 119.419 249.151 118.998 249.151 118.578C249.151 118.052 248.957 117.618 248.57 117.274C248.188 116.931 247.701 116.76 247.109 116.76C246.484 116.76 245.977 116.948 245.59 117.324C245.202 117.701 245.009 118.193 245.009 118.802V118.835H243V118.802Z" fill="#000"/>
<path fill-rule="evenodd" clip-rule="evenodd" d="M211.264 159.217L218.797 164.141C219.26 164.443 219.389 165.063 219.087 165.525L214.163 173.059C213.861 173.521 213.241 173.651 212.779 173.349C212.317 173.047 212.187 172.427 212.489 171.965L216.092 166.452L184.41 172.957L184 171L215.682 164.495L210.17 160.891C209.707 160.589 209.578 159.969 209.88 159.507C210.182 159.045 210.802 158.915 211.264 159.217Z" fill="#000"/>
<path fill-rule="evenodd" clip-rule="evenodd" d="M254.104 158.726L249.604 166.521C249.328 166.999 248.716 167.163 248.238 166.887L240.444 162.387C239.965 162.111 239.801 161.499 240.078 161.021C240.354 160.542 240.965 160.379 241.444 160.655L247.147 163.948L235.148 119.165L237.079 118.647L249.079 163.43L252.372 157.726C252.648 157.248 253.26 157.084 253.738 157.36C254.216 157.637 254.38 158.248 254.104 158.726Z" fill="#000"/>
<path fill-rule="evenodd" clip-rule="evenodd" d="M306.11 152.911C299.087 153.52 290.878 155.344 282.291 157.957L281.709 156.044C290.372 153.407 298.726 151.543 305.937 150.918C313.11 150.296 319.319 150.883 323.561 153.321C325.708 154.555 327.356 156.267 328.341 158.518C329.322 160.759 329.614 163.459 329.186 166.626C328.388 172.534 325.061 180.235 318.654 190.063L325.144 188.801C325.686 188.695 326.211 189.049 326.316 189.592C326.422 190.134 326.068 190.659 325.526 190.764L316.691 192.482C316.149 192.587 315.624 192.233 315.519 191.691L313.801 182.857C313.695 182.314 314.049 181.79 314.591 181.684C315.134 181.579 315.659 181.933 315.764 182.475L317.016 188.913C323.336 179.208 326.466 171.823 327.204 166.359C327.597 163.455 327.307 161.144 326.509 159.32C325.715 157.507 324.386 156.102 322.564 155.055C318.868 152.93 313.172 152.298 306.11 152.911Z" fill="#000"/>
</svg>
