<svg width="346" height="345" viewBox="0 0 346 345" fill="none" xmlns="http://www.w3.org/2000/svg">
<path d="M305.266 165.501C304.726 167.121 304.186 169.461 304.186 171.081C302.566 184.581 296.086 227.781 293.926 240.381H278.806C280.786 230.661 287.446 186.561 287.986 175.041C276.826 175.041 235.786 175.041 230.926 175.041C225.706 175.041 220.846 175.221 216.346 175.581V160.461C220.666 161.001 226.246 161.361 230.746 161.361C237.586 161.361 275.386 161.361 285.466 161.361C288.346 161.361 292.846 161.001 294.286 160.101L305.266 165.501ZM199.426 234.621C203.746 235.161 208.966 235.521 214.366 235.521C224.086 235.521 303.106 235.521 312.646 235.521C316.606 235.521 323.086 235.161 326.866 234.801V249.381C323.446 249.201 316.966 249.201 313.006 249.201C302.926 249.201 223.366 249.201 214.366 249.201C208.966 249.201 204.826 249.381 199.426 249.561V234.621Z" fill="#f00"/>
<path d="M124.255 110.06C128.755 116.54 135.235 127.34 138.835 134.72L129.115 139.04C125.515 131.84 119.575 121.04 114.715 114.2L124.255 110.06ZM143.875 102.86C148.735 109.52 155.575 120.68 158.995 127.34L149.275 131.66C145.495 123.92 139.555 113.66 134.515 107L143.875 102.86ZM43.4353 116C42.8953 120.32 42.3553 125.54 42.3553 130.58C42.3553 140.3 42.3553 212.66 42.3553 225.62C42.3553 234.98 46.3153 237.32 54.9553 238.94C60.7153 240.02 69.8953 240.38 78.7153 240.38C97.7953 240.38 125.335 238.58 140.455 234.62V251.18C124.795 253.52 97.7953 254.78 78.1753 254.78C67.3753 254.78 56.7553 254.42 49.1953 253.16C35.5153 250.64 27.7753 244.34 27.7753 229.58C27.7753 212.3 27.7753 140.3 27.7753 130.58C27.7753 126.26 27.4153 120.32 26.6953 116H43.4353ZM35.6953 172.88C57.4753 168.2 90.0553 158.3 110.935 149.48C116.335 146.96 121.555 144.44 126.775 141.2L133.075 155.6C127.855 157.76 121.375 160.64 115.975 162.8C93.6553 171.8 58.0153 182.24 35.8753 187.82L35.6953 172.88Z" fill="#f00"/>
<path d="M57.8857 145.275V135.455H57.7446L54.7646 137.547V135.488L57.894 133.297H60.0273V145.275H57.8857Z" fill="#000"/>
<path d="M0 118.802C0 117.684 0.38737 116.771 1.16211 116.062C1.94238 115.354 2.94678 115 4.17529 115C5.35954 115 6.3335 115.324 7.09717 115.971C7.86637 116.619 8.25098 117.443 8.25098 118.445C8.25098 119.087 8.05729 119.723 7.66992 120.354C7.28255 120.979 6.57975 121.796 5.56152 122.803L3.05469 125.318V125.459H8.43359V127.277H0.116211V125.791L4.10889 121.707C4.9279 120.877 5.47298 120.254 5.74414 119.839C6.0153 119.419 6.15088 118.998 6.15088 118.578C6.15088 118.052 5.95719 117.618 5.56982 117.274C5.18799 116.931 4.70101 116.76 4.10889 116.76C3.48356 116.76 2.97721 116.948 2.58984 117.324C2.20247 117.701 2.00879 118.193 2.00879 118.802V118.835H0V118.802Z" fill="#000"/>
<path fill-rule="evenodd" clip-rule="evenodd" d="M113.555 129.5L121.679 133.372C122.178 133.61 122.389 134.207 122.151 134.705L118.279 142.83C118.041 143.328 117.445 143.54 116.946 143.302C116.448 143.065 116.236 142.468 116.474 141.969L119.307 136.024L48.7883 161L48.1202 159.115L118.639 134.139L112.694 131.306C112.196 131.068 111.984 130.471 112.222 129.973C112.459 129.474 113.056 129.262 113.555 129.5Z" fill="#000"/>
<path fill-rule="evenodd" clip-rule="evenodd" d="M23.7882 165.62L17.4242 171.984C17.0337 172.375 16.4005 172.375 16.01 171.984L9.64602 165.62C9.2555 165.23 9.2555 164.597 9.64602 164.206C10.0365 163.816 10.6697 163.816 11.0602 164.206L15.7171 168.863L15.7171 115.277L17.7171 115.277L17.7171 168.863L22.3739 164.206C22.7645 163.816 23.3976 163.816 23.7882 164.206C24.1787 164.597 24.1787 165.23 23.7882 165.62Z" fill="#000"/>
<path d="M123.914 101.964V100.304H125.375C125.983 100.304 126.479 100.138 126.86 99.8062C127.242 99.4686 127.433 99.0314 127.433 98.4946C127.433 97.9634 127.245 97.54 126.869 97.2246C126.498 96.9036 126 96.7432 125.375 96.7432C124.755 96.7432 124.251 96.9064 123.864 97.2329C123.482 97.5594 123.272 98.0049 123.233 98.5693H121.232C121.288 97.4681 121.692 96.5993 122.444 95.9629C123.197 95.321 124.196 95 125.441 95C126.603 95 127.569 95.3044 128.338 95.9131C129.113 96.5163 129.5 97.2772 129.5 98.1958C129.5 98.8986 129.304 99.499 128.911 99.9971C128.523 100.495 127.998 100.813 127.333 100.952V101.093C128.153 101.187 128.797 101.494 129.268 102.014C129.743 102.534 129.981 103.193 129.981 103.99C129.981 105.019 129.55 105.874 128.687 106.555C127.829 107.235 126.75 107.576 125.449 107.576C124.16 107.576 123.108 107.246 122.295 106.588C121.487 105.929 121.055 105.052 121 103.957H123.05C123.095 104.51 123.335 104.953 123.772 105.285C124.21 105.611 124.774 105.774 125.466 105.774C126.152 105.774 126.711 105.597 127.143 105.243C127.58 104.883 127.798 104.421 127.798 103.857C127.798 103.27 127.585 102.808 127.159 102.471C126.733 102.133 126.152 101.964 125.416 101.964H123.914Z" fill="#000"/>
<path d="M147.852 99.978V97.7451H142V95.8359C142.974 94.043 144.601 91.431 146.881 88H149.902V95.9355H151.521V97.7451H149.902V99.978H147.852ZM143.984 95.8608V95.9854H147.885V89.7432H147.769C146.474 91.6579 145.212 93.6971 143.984 95.8608Z" fill="#000"/>
<path d="M258.481 144.978V135.158H258.34L255.36 137.25V135.191L258.49 133H260.623V144.978H258.481Z" fill="#000"/>
<path d="M205.644 208.802C205.644 207.684 206.031 206.771 206.806 206.062C207.586 205.354 208.59 205 209.819 205C211.003 205 211.977 205.324 212.741 205.971C213.51 206.619 213.895 207.443 213.895 208.445C213.895 209.087 213.701 209.723 213.313 210.354C212.926 210.979 212.223 211.796 211.205 212.803L208.698 215.318V215.459H214.077V217.277H205.76V215.791L209.752 211.707C210.571 210.877 211.117 210.254 211.388 209.839C211.659 209.419 211.794 208.998 211.794 208.578C211.794 208.052 211.601 207.618 211.213 207.274C210.832 206.931 210.345 206.76 209.752 206.76C209.127 206.76 208.621 206.948 208.233 207.324C207.846 207.701 207.652 208.193 207.652 208.802V208.835H205.644V208.802Z" fill="#000"/>
<path fill-rule="evenodd" clip-rule="evenodd" d="M250.703 218.206L257.067 224.57C257.458 224.96 257.458 225.594 257.067 225.984L250.704 232.348C250.313 232.739 249.68 232.739 249.289 232.348C248.899 231.958 248.899 231.324 249.289 230.934L253.946 226.277L200.36 226.277L200.36 224.277L253.946 224.277L249.289 219.62C248.899 219.23 248.899 218.596 249.289 218.206C249.68 217.815 250.313 217.815 250.703 218.206Z" fill="#000"/>
<path fill-rule="evenodd" clip-rule="evenodd" d="M317.721 151.5H252.36V149.5H319.999L312.664 205.735L317.884 201.72C318.322 201.383 318.95 201.465 319.287 201.903C319.623 202.341 319.541 202.968 319.104 203.305L311.97 208.793C311.532 209.129 310.904 209.047 310.568 208.61L305.08 201.476C304.744 201.038 304.825 200.41 305.263 200.074C305.701 199.737 306.329 199.819 306.666 200.257L310.681 205.477L317.721 151.5Z" fill="#000"/>
</svg>
