<svg width="345" height="345" viewBox="0 0 345 345" fill="none" xmlns="http://www.w3.org/2000/svg">
<path d="M201.96 152.36C205.38 152.72 215.64 152.9 220.5 152.9C230.58 152.9 275.4 152.9 289.98 152.9C294.12 152.9 298.62 152.72 301.14 152.72C300.96 154.7 300.96 158.48 300.96 161.9C300.96 168.2 300.96 236.24 300.96 251.54C300.96 254.42 301.14 258.56 301.14 261.26H286.92C287.1 259.1 287.1 254.78 287.1 251C287.1 232.1 287.1 171.26 287.1 165.86C281.16 165.86 230.4 165.86 220.5 165.86C215.64 165.86 205.38 166.22 201.96 166.22V152.36ZM205.92 195.02C209.52 195.38 216 195.74 222.12 195.74C231.3 195.74 288.9 195.74 294.12 195.74V208.7C288.9 208.7 231.3 208.7 222.12 208.7C216 208.7 209.52 208.7 205.92 209.06V195.02ZM199.98 239.84C202.86 240.2 208.44 240.56 214.74 240.56C225 240.56 286.38 240.56 294.3 240.56V253.88C285.3 253.88 225 253.88 214.74 253.88C209.16 253.88 202.86 254.24 199.98 254.24V239.84Z" fill="#f00"/>
<path d="M59.24 112.58C58.7 116.9 58.34 122.12 58.34 127.16C58.34 136.88 58.34 209.24 58.34 222.2C58.34 231.56 62.12 233.9 70.94 235.52C76.52 236.6 85.88 237.14 94.7 237.14C113.78 237.14 141.32 235.16 156.26 231.2V247.76C140.6 250.1 113.6 251.36 93.98 251.36C83.36 251.36 72.56 251 65.18 249.74C51.32 247.22 43.58 240.92 43.58 226.16C43.58 208.88 43.58 136.88 43.58 127.16C43.58 122.3 43.22 116.18 42.5 112.58H59.24ZM51.68 169.46C73.28 164.78 108.02 154.16 128.72 145.16C134.3 142.82 139.52 140.3 144.56 137.06L151.04 151.46C145.82 153.62 139.34 156.5 133.94 158.48C111.62 167.66 74 178.82 51.68 184.4V169.46Z" fill="#f00"/>
<path d="M73.8857 142.275V132.455H73.7446L70.7646 134.547V132.488L73.894 130.297H76.0273V142.275H73.8857Z" fill="#000"/>
<path d="M16 115.802C16 114.684 16.3874 113.771 17.1621 113.062C17.9424 112.354 18.9468 112 20.1753 112C21.3595 112 22.3335 112.324 23.0972 112.971C23.8664 113.619 24.251 114.443 24.251 115.445C24.251 116.087 24.0573 116.723 23.6699 117.354C23.2826 117.979 22.5798 118.796 21.5615 119.803L19.0547 122.318V122.459H24.4336V124.277H16.1162V122.791L20.1089 118.707C20.9279 117.877 21.473 117.254 21.7441 116.839C22.0153 116.419 22.1509 115.998 22.1509 115.578C22.1509 115.052 21.9572 114.618 21.5698 114.274C21.188 113.931 20.701 113.76 20.1089 113.76C19.4836 113.76 18.9772 113.948 18.5898 114.324C18.2025 114.701 18.0088 115.193 18.0088 115.802V115.835H16V115.802Z" fill="#000"/>
<path fill-rule="evenodd" clip-rule="evenodd" d="M138.766 120.5L146.89 124.372C147.389 124.61 147.6 125.207 147.363 125.705L143.49 133.829C143.253 134.328 142.656 134.54 142.157 134.302C141.659 134.064 141.447 133.468 141.685 132.969L144.519 127.024L67.7941 154.217L67.126 152.332L143.85 125.139L137.905 122.305C137.407 122.068 137.195 121.471 137.433 120.972C137.671 120.474 138.267 120.262 138.766 120.5Z" fill="#000"/>
<path fill-rule="evenodd" clip-rule="evenodd" d="M39.7882 162.62L33.4242 168.984C33.0337 169.374 32.4005 169.374 32.01 168.984L25.646 162.62C25.2555 162.229 25.2555 161.596 25.646 161.206C26.0365 160.815 26.6697 160.815 27.0602 161.206L31.7171 165.863L31.7171 112.277L33.7171 112.277L33.7171 165.863L38.3739 161.206C38.7645 160.815 39.3976 160.815 39.7882 161.206C40.1787 161.596 40.1787 162.229 39.7882 162.62Z" fill="#000"/>
<path d="M245.121 137.978V128.158H244.98L242 130.25V128.191L245.129 126H247.263V137.978H245.121Z" fill="#000"/>
<path d="M209.283 171.802C209.283 170.684 209.671 169.771 210.445 169.062C211.226 168.354 212.23 168 213.458 168C214.643 168 215.617 168.324 216.38 168.971C217.15 169.619 217.534 170.443 217.534 171.445C217.534 172.087 217.34 172.723 216.953 173.354C216.566 173.979 215.863 174.796 214.845 175.803L212.338 178.318V178.459H217.717V180.277H209.399V178.791L213.392 174.707C214.211 173.877 214.756 173.254 215.027 172.839C215.299 172.419 215.434 171.998 215.434 171.578C215.434 171.052 215.24 170.618 214.853 170.274C214.471 169.931 213.984 169.76 213.392 169.76C212.767 169.76 212.26 169.948 211.873 170.324C211.486 170.701 211.292 171.193 211.292 171.802V171.835H209.283V171.802Z" fill="#000"/>
<path d="M206.439 220.964V219.304H207.9C208.509 219.304 209.004 219.138 209.386 218.806C209.768 218.469 209.958 218.031 209.958 217.495C209.958 216.963 209.77 216.54 209.394 216.225C209.023 215.904 208.525 215.743 207.9 215.743C207.28 215.743 206.777 215.906 206.389 216.233C206.007 216.559 205.797 217.005 205.758 217.569H203.758C203.813 216.468 204.217 215.599 204.97 214.963C205.722 214.321 206.721 214 207.966 214C209.128 214 210.094 214.304 210.863 214.913C211.638 215.516 212.025 216.277 212.025 217.196C212.025 217.899 211.829 218.499 211.436 218.997C211.049 219.495 210.523 219.813 209.859 219.952V220.093C210.678 220.187 211.323 220.494 211.793 221.014C212.269 221.534 212.507 222.193 212.507 222.99C212.507 224.019 212.075 224.874 211.212 225.555C210.354 226.235 209.275 226.576 207.975 226.576C206.685 226.576 205.634 226.246 204.82 225.588C204.012 224.929 203.581 224.052 203.525 222.957H205.576C205.62 223.51 205.861 223.953 206.298 224.285C206.735 224.611 207.299 224.774 207.991 224.774C208.677 224.774 209.236 224.597 209.668 224.243C210.105 223.883 210.324 223.421 210.324 222.857C210.324 222.27 210.111 221.808 209.685 221.471C209.258 221.133 208.677 220.964 207.941 220.964H206.439Z" fill="#000"/>
<path fill-rule="evenodd" clip-rule="evenodd" d="M310.34 144H240V142H312.34V218.586L316.997 213.929C317.387 213.538 318.02 213.538 318.411 213.929C318.801 214.319 318.801 214.953 318.411 215.343L312.047 221.707C311.656 222.098 311.023 222.098 310.633 221.707L304.269 215.343C303.878 214.953 303.878 214.319 304.269 213.929C304.659 213.538 305.292 213.538 305.683 213.929L310.34 218.586V144Z" fill="#000"/>
<path fill-rule="evenodd" clip-rule="evenodd" d="M257.343 180.206L263.707 186.57C264.098 186.96 264.098 187.594 263.707 187.984L257.343 194.348C256.953 194.739 256.319 194.739 255.929 194.348C255.538 193.958 255.538 193.324 255.929 192.934L260.586 188.277L207 188.277L207 186.277L260.586 186.277L255.929 181.62C255.538 181.23 255.538 180.596 255.929 180.206C256.319 179.815 256.953 179.815 257.343 180.206Z" fill="#000"/>
<path fill-rule="evenodd" clip-rule="evenodd" d="M252.343 224.206L258.707 230.57C259.098 230.96 259.098 231.594 258.707 231.984L252.343 238.348C251.953 238.739 251.319 238.739 250.929 238.348C250.538 237.958 250.538 237.324 250.929 236.934L255.586 232.277L202 232.277L202 230.277L255.586 230.277L250.929 225.62C250.538 225.23 250.538 224.596 250.929 224.206C251.319 223.815 251.953 223.815 252.343 224.206Z" fill="#000"/>
</svg>
