<svg width="345" height="345" viewBox="0 0 345 345" fill="none" xmlns="http://www.w3.org/2000/svg">
<path d="M241.085 140.84C241.445 144.08 242.525 147.86 243.605 152.54C247.745 167.48 267.365 238.76 271.145 251C272.225 254.42 273.845 260 275.105 263.24L259.625 267.38C259.265 263.24 258.365 258.56 257.105 254.24C253.325 241.28 234.065 168.74 229.925 155.42C228.665 151.1 227.225 147.5 225.605 144.62L241.085 140.84ZM327.485 165.68C319.925 180.8 301.385 206.18 288.965 218.24L276.365 211.76C287.525 202.22 301.205 185.48 307.325 174.86C299.405 176.3 215.165 193.22 202.385 195.92L198.785 182.24C203.825 181.7 208.325 181.16 213.725 180.08C222.725 178.64 301.205 163.88 311.465 161.54C313.805 161 316.505 160.1 318.305 159.2L327.485 165.68Z" fill="#f00"/>
<path d="M128.835 137.42C132.975 143.54 138.735 152.72 142.695 160.64L133.335 164.96C129.195 156.14 125.235 148.94 119.835 141.38L128.835 137.42ZM147.735 130.4C152.055 136.34 157.995 145.52 162.135 153.26L152.955 157.58C148.635 148.94 144.495 142.1 138.915 134.54L147.735 130.4ZM17.2353 128.24C30.7353 128.96 58.2753 128.06 77.7153 125.54C94.0953 123.2 115.335 118.88 124.155 115.1L133.515 127.7C129.555 128.6 126.135 129.5 123.435 130.22C112.995 132.92 96.4353 136.16 81.8553 137.96C61.6953 140.66 37.0353 141.38 20.8353 141.56L17.2353 128.24ZM27.3153 250.82C58.0953 236.6 73.2153 214.1 73.2153 176.84C73.2153 176.84 73.2153 160.64 73.2153 135.98L87.7953 134.18C87.7953 148.22 87.7953 176.66 87.7953 176.66C87.7953 215 75.0153 241.28 41.3553 260.72L27.3153 250.82ZM3.19531 171.08C7.15531 171.44 13.6353 171.8 19.0353 171.8C30.5553 171.8 126.315 171.8 137.475 171.8C141.435 171.8 147.915 171.44 151.695 171.08V186.02C147.735 185.66 142.335 185.3 137.835 185.3C127.035 185.3 30.3753 185.3 19.3953 185.3C13.6353 185.3 7.51531 185.66 3.19531 186.02V171.08Z" fill="#f00"/>
<path d="M113.207 95.978V86.1582H113.066L110.086 88.25V86.1914L113.215 84H115.349V95.978H113.207Z" fill="#000"/>
<path d="M105.22 197.964V196.304H106.681C107.29 196.304 107.785 196.138 108.167 195.806C108.549 195.469 108.74 195.031 108.74 194.495C108.74 193.963 108.552 193.54 108.175 193.225C107.805 192.904 107.306 192.743 106.681 192.743C106.061 192.743 105.558 192.906 105.17 193.233C104.789 193.559 104.578 194.005 104.54 194.569H102.539C102.594 193.468 102.998 192.599 103.751 191.963C104.504 191.321 105.502 191 106.748 191C107.91 191 108.875 191.304 109.645 191.913C110.419 192.516 110.807 193.277 110.807 194.196C110.807 194.899 110.61 195.499 110.217 195.997C109.83 196.495 109.304 196.813 108.64 196.952V197.093C109.459 197.187 110.104 197.494 110.574 198.014C111.05 198.534 111.288 199.193 111.288 199.99C111.288 201.019 110.856 201.874 109.993 202.555C109.135 203.235 108.056 203.576 106.756 203.576C105.466 203.576 104.415 203.246 103.602 202.588C102.794 201.929 102.362 201.052 102.307 199.957H104.357C104.401 200.51 104.642 200.953 105.079 201.285C105.516 201.611 106.081 201.774 106.772 201.774C107.459 201.774 108.018 201.597 108.449 201.243C108.886 200.883 109.105 200.421 109.105 199.857C109.105 199.27 108.892 198.808 108.466 198.471C108.04 198.133 107.459 197.964 106.723 197.964H105.22Z" fill="#000"/>
<path d="M5.78125 147.802C5.78125 146.684 6.16862 145.771 6.94336 145.062C7.72363 144.354 8.72803 144 9.95654 144C11.1408 144 12.1147 144.324 12.8784 144.971C13.6476 145.619 14.0322 146.443 14.0322 147.445C14.0322 148.087 13.8385 148.723 13.4512 149.354C13.0638 149.979 12.361 150.796 11.3428 151.803L8.83594 154.318V154.459H14.2148V156.277H5.89746V154.791L9.89014 150.707C10.7091 149.877 11.2542 149.254 11.5254 148.839C11.7965 148.419 11.9321 147.998 11.9321 147.578C11.9321 147.052 11.7384 146.618 11.3511 146.274C10.9692 145.931 10.4823 145.76 9.89014 145.76C9.26481 145.76 8.75846 145.948 8.37109 146.324C7.98372 146.701 7.79004 147.193 7.79004 147.802V147.835H5.78125V147.802Z" fill="#000"/>
<path fill-rule="evenodd" clip-rule="evenodd" d="M61.1244 153.206L67.4884 159.57C67.8789 159.96 67.8789 160.594 67.4884 160.984L61.1244 167.348C60.7339 167.739 60.1007 167.739 59.7102 167.348C59.3197 166.958 59.3197 166.324 59.7102 165.934L64.367 161.277L6.78125 161.277L6.78125 159.277L64.367 159.277L59.7102 154.62C59.3197 154.23 59.3197 153.596 59.7102 153.206C60.1007 152.815 60.7339 152.815 61.1244 153.206Z" fill="#000"/>
<path fill-rule="evenodd" clip-rule="evenodd" d="M17.2022 116.471C54.6111 116.263 97.6725 111.236 124.901 100.053L125.661 101.903C98.0717 113.234 54.6931 118.265 17.1888 118.471L21.8523 123.135C22.2428 123.525 22.2428 124.158 21.8523 124.549C21.4618 124.939 20.8286 124.939 20.4381 124.549L14.0741 118.185C13.6836 117.794 13.6836 117.161 14.0741 116.771L20.4381 110.407C20.8286 110.016 21.4618 110.016 21.8523 110.407C22.2428 110.797 22.2428 111.43 21.8523 111.821L17.2022 116.471Z" fill="#000"/>
<path fill-rule="evenodd" clip-rule="evenodd" d="M87.2988 229.323C92.4249 217.28 94.5387 203.906 96.2879 188.663L98.2749 188.891C96.5241 204.148 94.3879 217.774 89.139 230.106C84.1202 241.898 76.2744 252.465 63.2905 262.181L69.8234 263.27C70.3681 263.361 70.7361 263.876 70.6453 264.421C70.5546 264.966 70.0393 265.334 69.4946 265.243L60.617 263.763C60.0722 263.673 59.7042 263.157 59.795 262.613L61.2746 253.735C61.3654 253.19 61.8806 252.822 62.4254 252.913C62.9702 253.004 63.3382 253.519 63.2474 254.064L62.1712 260.521C74.8365 251.024 82.4337 240.753 87.2988 229.323Z" fill="#000"/>
<path d="M115.852 146.978V144.745H110V142.836C110.974 141.043 112.601 138.431 114.881 135H117.902V142.936H119.521V144.745H117.902V146.978H115.852ZM111.984 142.861V142.985H115.885V136.743H115.769C114.474 138.658 113.212 140.697 111.984 142.861Z" fill="#000"/>
<path d="M153.831 130.277C152.597 130.277 151.584 129.939 150.793 129.264C150.002 128.589 149.581 127.72 149.531 126.658H151.54C151.606 127.206 151.853 127.648 152.279 127.986C152.705 128.323 153.228 128.492 153.848 128.492C154.55 128.492 155.118 128.276 155.549 127.845C155.986 127.408 156.205 126.832 156.205 126.118C156.205 125.404 155.986 124.826 155.549 124.383C155.118 123.935 154.556 123.711 153.864 123.711C153.377 123.711 152.943 123.813 152.561 124.018C152.185 124.223 151.886 124.513 151.665 124.89H149.722L150.345 118H157.558V119.81H152.005L151.714 123.171H151.855C152.409 122.424 153.253 122.051 154.387 122.051C155.522 122.051 156.451 122.427 157.176 123.18C157.907 123.932 158.272 124.895 158.272 126.068C158.272 127.319 157.862 128.334 157.043 129.115C156.23 129.889 155.159 130.277 153.831 130.277Z" fill="#000"/>
<path d="M195.399 166.978V157.158H195.258L192.278 159.25V157.191L195.408 155H197.541V166.978H195.399Z" fill="#000"/>
<path d="M252.278 118.802C252.278 117.684 252.666 116.771 253.44 116.062C254.221 115.354 255.225 115 256.454 115C257.638 115 258.612 115.324 259.375 115.971C260.145 116.619 260.529 117.443 260.529 118.445C260.529 119.087 260.336 119.723 259.948 120.354C259.561 120.979 258.858 121.796 257.84 122.803L255.333 125.318V125.459H260.712V127.277H252.395V125.791L256.387 121.707C257.206 120.877 257.751 120.254 258.022 119.839C258.294 119.419 258.429 118.998 258.429 118.578C258.429 118.052 258.236 117.618 257.848 117.274C257.466 116.931 256.979 116.76 256.387 116.76C255.762 116.76 255.256 116.948 254.868 117.324C254.481 117.701 254.287 118.193 254.287 118.802V118.835H252.278V118.802Z" fill="#000"/>
<path fill-rule="evenodd" clip-rule="evenodd" d="M220.542 159.217L228.076 164.141C228.538 164.443 228.668 165.063 228.366 165.525L223.442 173.059C223.139 173.521 222.52 173.651 222.057 173.349C221.595 173.047 221.465 172.427 221.767 171.965L225.371 166.452L193.688 172.957L193.278 171L224.961 164.495L219.448 160.891C218.986 160.589 218.856 159.969 219.158 159.507C219.46 159.045 220.08 158.915 220.542 159.217Z" fill="#000"/>
<path fill-rule="evenodd" clip-rule="evenodd" d="M263.382 158.726L258.882 166.521C258.606 166.999 257.994 167.163 257.516 166.887L249.722 162.387C249.244 162.111 249.08 161.499 249.356 161.021C249.632 160.542 250.244 160.379 250.722 160.655L256.425 163.948L244.426 119.165L246.358 118.647L258.357 163.43L261.65 157.726C261.926 157.248 262.538 157.084 263.016 157.36C263.494 157.637 263.658 158.248 263.382 158.726Z" fill="#000"/>
<path fill-rule="evenodd" clip-rule="evenodd" d="M315.388 152.91C308.365 153.519 300.157 155.343 291.57 157.956L290.987 156.043C299.65 153.407 308.004 151.543 315.216 150.918C322.388 150.296 328.598 150.882 332.839 153.32C334.986 154.554 336.634 156.267 337.619 158.518C338.6 160.759 338.893 163.459 338.465 166.626C337.666 172.533 334.339 180.235 327.932 190.062L334.422 188.8C334.964 188.695 335.489 189.049 335.595 189.591C335.7 190.133 335.346 190.658 334.804 190.764L325.969 192.481C325.427 192.587 324.902 192.233 324.797 191.691L323.079 182.856C322.974 182.314 323.328 181.789 323.87 181.684C324.412 181.578 324.937 181.932 325.042 182.474L326.294 188.912C332.614 179.208 335.744 171.822 336.483 166.358C336.875 163.455 336.585 161.143 335.787 159.32C334.993 157.506 333.664 156.101 331.843 155.054C328.147 152.93 322.45 152.298 315.388 152.91Z" fill="#000"/>
</svg>
