<svg width="346" height="345" viewBox="0 0 346 345" fill="none" xmlns="http://www.w3.org/2000/svg">
<path d="M212.746 152.36C216.166 152.72 226.426 152.9 231.286 152.9C241.366 152.9 286.186 152.9 300.766 152.9C304.906 152.9 309.406 152.72 311.926 152.72C311.746 154.7 311.746 158.48 311.746 161.9C311.746 168.2 311.746 236.24 311.746 251.54C311.746 254.42 311.926 258.56 311.926 261.26H297.706C297.886 259.1 297.886 254.78 297.886 251C297.886 232.1 297.886 171.26 297.886 165.86C291.946 165.86 241.186 165.86 231.286 165.86C226.426 165.86 216.166 166.22 212.746 166.22V152.36ZM216.706 195.02C220.306 195.38 226.786 195.74 232.906 195.74C242.086 195.74 299.686 195.74 304.906 195.74V208.7C299.686 208.7 242.086 208.7 232.906 208.7C226.786 208.7 220.306 208.7 216.706 209.06V195.02ZM210.766 239.84C213.646 240.2 219.226 240.56 225.526 240.56C235.786 240.56 297.166 240.56 305.086 240.56V253.88C296.086 253.88 235.786 253.88 225.526 253.88C219.946 253.88 213.646 254.24 210.766 254.24V239.84Z" fill="#f00"/>
<path d="M124.255 110.06C128.755 116.54 135.235 127.34 138.835 134.72L129.115 139.04C125.515 131.84 119.575 121.04 114.715 114.2L124.255 110.06ZM143.875 102.86C148.735 109.52 155.575 120.68 158.995 127.34L149.275 131.66C145.495 123.92 139.555 113.66 134.515 107L143.875 102.86ZM43.4353 116C42.8953 120.32 42.3553 125.54 42.3553 130.58C42.3553 140.3 42.3553 212.66 42.3553 225.62C42.3553 234.98 46.3153 237.32 54.9553 238.94C60.7153 240.02 69.8953 240.38 78.7153 240.38C97.7953 240.38 125.335 238.58 140.455 234.62V251.18C124.795 253.52 97.7953 254.78 78.1753 254.78C67.3753 254.78 56.7553 254.42 49.1953 253.16C35.5153 250.64 27.7753 244.34 27.7753 229.58C27.7753 212.3 27.7753 140.3 27.7753 130.58C27.7753 126.26 27.4153 120.32 26.6953 116H43.4353ZM35.6953 172.88C57.4753 168.2 90.0553 158.3 110.935 149.48C116.335 146.96 121.555 144.44 126.775 141.2L133.075 155.6C127.855 157.76 121.375 160.64 115.975 162.8C93.6553 171.8 58.0153 182.24 35.8753 187.82L35.6953 172.88Z" fill="#f00"/>
<path d="M57.8857 145.275V135.455H57.7446L54.7646 137.547V135.488L57.894 133.297H60.0273V145.275H57.8857Z" fill="#000"/>
<path d="M0 118.802C0 117.684 0.38737 116.771 1.16211 116.062C1.94238 115.354 2.94678 115 4.17529 115C5.35954 115 6.3335 115.324 7.09717 115.971C7.86637 116.619 8.25098 117.443 8.25098 118.445C8.25098 119.087 8.05729 119.723 7.66992 120.354C7.28255 120.979 6.57975 121.796 5.56152 122.803L3.05469 125.318V125.459H8.43359V127.277H0.116211V125.791L4.10889 121.707C4.9279 120.877 5.47298 120.254 5.74414 119.839C6.0153 119.419 6.15088 118.998 6.15088 118.578C6.15088 118.052 5.95719 117.618 5.56982 117.274C5.18799 116.931 4.70101 116.76 4.10889 116.76C3.48356 116.76 2.97721 116.948 2.58984 117.324C2.20247 117.701 2.00879 118.193 2.00879 118.802V118.835H0V118.802Z" fill="#000"/>
<path fill-rule="evenodd" clip-rule="evenodd" d="M113.555 129.5L121.679 133.372C122.178 133.61 122.389 134.207 122.151 134.705L118.279 142.83C118.041 143.328 117.445 143.54 116.946 143.302C116.448 143.065 116.236 142.468 116.474 141.969L119.307 136.024L48.7883 161L48.1202 159.115L118.639 134.139L112.694 131.306C112.196 131.068 111.984 130.471 112.222 129.973C112.459 129.474 113.056 129.262 113.555 129.5Z" fill="#000"/>
<path fill-rule="evenodd" clip-rule="evenodd" d="M23.7882 165.62L17.4242 171.984C17.0337 172.375 16.4005 172.375 16.01 171.984L9.64602 165.62C9.2555 165.23 9.2555 164.597 9.64602 164.206C10.0365 163.816 10.6697 163.816 11.0602 164.206L15.7171 168.863L15.7171 115.277L17.7171 115.277L17.7171 168.863L22.3739 164.206C22.7645 163.816 23.3976 163.816 23.7882 164.206C24.1787 164.597 24.1787 165.23 23.7882 165.62Z" fill="#000"/>
<path d="M123.914 101.964V100.304H125.375C125.983 100.304 126.479 100.138 126.86 99.8062C127.242 99.4686 127.433 99.0314 127.433 98.4946C127.433 97.9634 127.245 97.54 126.869 97.2246C126.498 96.9036 126 96.7432 125.375 96.7432C124.755 96.7432 124.251 96.9064 123.864 97.2329C123.482 97.5594 123.272 98.0049 123.233 98.5693H121.232C121.288 97.4681 121.692 96.5993 122.444 95.9629C123.197 95.321 124.196 95 125.441 95C126.603 95 127.569 95.3044 128.338 95.9131C129.113 96.5163 129.5 97.2772 129.5 98.1958C129.5 98.8986 129.304 99.499 128.911 99.9971C128.523 100.495 127.998 100.813 127.333 100.952V101.093C128.153 101.187 128.797 101.494 129.268 102.014C129.743 102.534 129.981 103.193 129.981 103.99C129.981 105.019 129.55 105.874 128.687 106.555C127.829 107.235 126.75 107.576 125.449 107.576C124.16 107.576 123.108 107.246 122.295 106.588C121.487 105.929 121.055 105.052 121 103.957H123.05C123.095 104.51 123.335 104.953 123.772 105.285C124.21 105.611 124.774 105.774 125.466 105.774C126.152 105.774 126.711 105.597 127.143 105.243C127.58 104.883 127.798 104.421 127.798 103.857C127.798 103.27 127.585 102.808 127.159 102.471C126.733 102.133 126.152 101.964 125.416 101.964H123.914Z" fill="#000"/>
<path d="M147.852 99.978V97.7451H142V95.8359C142.974 94.043 144.601 91.431 146.881 88H149.902V95.9355H151.521V97.7451H149.902V99.978H147.852ZM143.984 95.8608V95.9854H147.885V89.7432H147.769C146.474 91.6579 145.212 93.6971 143.984 95.8608Z" fill="#000"/>
<path d="M256.142 137.978V128.158H256L253.021 130.25V128.191L256.15 126H258.283V137.978H256.142Z" fill="#000"/>
<path d="M220.304 171.802C220.304 170.684 220.691 169.771 221.466 169.062C222.246 168.354 223.25 168 224.479 168C225.663 168 226.637 168.324 227.401 168.971C228.17 169.619 228.555 170.443 228.555 171.445C228.555 172.087 228.361 172.723 227.974 173.354C227.586 173.979 226.883 174.796 225.865 175.803L223.358 178.318V178.459H228.737V180.277H220.42V178.791L224.413 174.707C225.232 173.877 225.777 173.254 226.048 172.839C226.319 172.419 226.455 171.998 226.455 171.578C226.455 171.052 226.261 170.618 225.874 170.274C225.492 169.931 225.005 169.76 224.413 169.76C223.787 169.76 223.281 169.948 222.894 170.324C222.506 170.701 222.312 171.193 222.312 171.802V171.835H220.304V171.802Z" fill="#000"/>
<path d="M217.459 220.964V219.304H218.92C219.529 219.304 220.024 219.138 220.406 218.806C220.788 218.469 220.979 218.031 220.979 217.495C220.979 216.963 220.791 216.54 220.415 216.225C220.044 215.904 219.546 215.743 218.92 215.743C218.301 215.743 217.797 215.906 217.41 216.233C217.028 216.559 216.818 217.005 216.779 217.569H214.778C214.834 216.468 215.238 215.599 215.99 214.963C216.743 214.321 217.742 214 218.987 214C220.149 214 221.115 214.304 221.884 214.913C222.659 215.516 223.046 216.277 223.046 217.196C223.046 217.899 222.849 218.499 222.457 218.997C222.069 219.495 221.543 219.813 220.879 219.952V220.093C221.698 220.187 222.343 220.494 222.813 221.014C223.289 221.534 223.527 222.193 223.527 222.99C223.527 224.019 223.096 224.874 222.232 225.555C221.375 226.235 220.296 226.576 218.995 226.576C217.706 226.576 216.654 226.246 215.841 225.588C215.033 224.929 214.601 224.052 214.546 222.957H216.596C216.64 223.51 216.881 223.953 217.318 224.285C217.756 224.611 218.32 224.774 219.012 224.774C219.698 224.774 220.257 224.597 220.688 224.243C221.126 223.883 221.344 223.421 221.344 222.857C221.344 222.27 221.131 221.808 220.705 221.471C220.279 221.133 219.698 220.964 218.962 220.964H217.459Z" fill="#000"/>
<path fill-rule="evenodd" clip-rule="evenodd" d="M321.36 144H251.021V142H323.36V218.586L328.017 213.929C328.408 213.538 329.041 213.538 329.431 213.929C329.822 214.319 329.822 214.953 329.431 215.343L323.067 221.707C322.677 222.098 322.044 222.098 321.653 221.707L315.289 215.343C314.899 214.953 314.899 214.319 315.289 213.929C315.68 213.538 316.313 213.538 316.703 213.929L321.36 218.586V144Z" fill="#000"/>
<path fill-rule="evenodd" clip-rule="evenodd" d="M268.364 180.206L274.728 186.57C275.118 186.96 275.118 187.594 274.728 187.984L268.364 194.348C267.973 194.739 267.34 194.739 266.949 194.348C266.559 193.958 266.559 193.324 266.949 192.934L271.606 188.277L218.021 188.277L218.021 186.277L271.606 186.277L266.949 181.62C266.559 181.23 266.559 180.596 266.949 180.206C267.34 179.815 267.973 179.815 268.364 180.206Z" fill="#000"/>
<path fill-rule="evenodd" clip-rule="evenodd" d="M263.364 224.206L269.728 230.57C270.118 230.96 270.118 231.594 269.728 231.984L263.364 238.348C262.973 238.739 262.34 238.739 261.949 238.348C261.559 237.958 261.559 237.324 261.949 236.934L266.606 232.277L213.021 232.277L213.021 230.277L266.606 230.277L261.949 225.62C261.559 225.23 261.559 224.596 261.949 224.206C262.34 223.815 262.973 223.815 263.364 224.206Z" fill="#000"/>
</svg>
