<svg width="345" height="345" viewBox="0 0 345 345" fill="none" xmlns="http://www.w3.org/2000/svg">
<path d="M294.48 165.5C293.94 167.12 293.4 169.46 293.4 171.08C291.78 184.58 285.3 227.78 283.14 240.38H268.02C270 230.66 276.66 186.56 277.2 175.04C266.04 175.04 225 175.04 220.14 175.04C214.92 175.04 210.06 175.22 205.56 175.58V160.46C209.88 161 215.46 161.36 219.96 161.36C226.8 161.36 264.6 161.36 274.68 161.36C277.56 161.36 282.06 161 283.5 160.1L294.48 165.5ZM188.64 234.62C192.96 235.16 198.18 235.52 203.58 235.52C213.3 235.52 292.32 235.52 301.86 235.52C305.82 235.52 312.3 235.16 316.08 234.8V249.38C312.66 249.2 306.18 249.2 302.22 249.2C292.14 249.2 212.58 249.2 203.58 249.2C198.18 249.2 194.04 249.38 188.64 249.56V234.62Z" fill="#f00"/>
<path d="M141.5 114.56C141.14 118.88 140.96 124.1 140.96 130.22C140.96 137.24 140.96 152.54 140.96 159.2C140.96 202.58 135.2 216.8 122.06 232.1C110.54 246.14 92.5396 254.06 79.3996 258.56L67.5196 246.14C84.0796 241.82 99.3796 234.8 110.54 222.02C123.32 207.26 125.66 192.5 125.66 158.66C125.66 151.64 125.66 136.52 125.66 130.22C125.66 124.1 125.12 118.88 124.58 114.56H141.5ZM57.9796 116C57.6196 119.42 57.4396 124.64 57.4396 128.78C57.4396 134.18 57.4396 181.34 57.4396 188.9C57.4396 193.58 57.6196 199.52 57.9796 202.76H41.5996C41.9596 199.88 42.3196 194.12 42.3196 188.9C42.3196 181.16 42.3196 134.18 42.3196 128.78C42.3196 125.72 42.1396 119.42 41.5996 116H57.9796Z" fill="#f00"/>
<path d="M78.1211 126.978V117.158H77.98L75 119.25V117.191L78.1294 115H80.2627V126.978H78.1211Z" fill="#000"/>
<path d="M159 118.802C159 117.684 159.387 116.771 160.162 116.062C160.942 115.354 161.947 115 163.175 115C164.36 115 165.333 115.324 166.097 115.971C166.866 116.619 167.251 117.443 167.251 118.445C167.251 119.087 167.057 119.723 166.67 120.354C166.283 120.979 165.58 121.796 164.562 122.803L162.055 125.318V125.459H167.434V127.277H159.116V125.791L163.109 121.707C163.928 120.877 164.473 120.254 164.744 119.839C165.015 119.419 165.151 118.998 165.151 118.578C165.151 118.052 164.957 117.618 164.57 117.274C164.188 116.931 163.701 116.76 163.109 116.76C162.484 116.76 161.977 116.948 161.59 117.324C161.202 117.701 161.009 118.193 161.009 118.802V118.835H159V118.802Z" fill="#000"/>
<path fill-rule="evenodd" clip-rule="evenodd" d="M74.4346 168.321L68.0707 174.685C67.6802 175.076 67.047 175.076 66.6565 174.685L60.2925 168.321C59.902 167.931 59.902 167.297 60.2925 166.907C60.683 166.516 61.3162 166.516 61.7067 166.907L66.3636 171.564L66.3636 117.978L68.3636 117.978L68.3636 171.564L73.0204 166.907C73.411 166.516 74.0441 166.516 74.4346 166.907C74.8252 167.297 74.8252 167.931 74.4346 168.321Z" fill="#000"/>
<path fill-rule="evenodd" clip-rule="evenodd" d="M158.435 165.343L152.071 171.707C151.68 172.098 151.047 172.098 150.656 171.707L144.293 165.343C143.902 164.953 143.902 164.319 144.293 163.929C144.683 163.538 145.316 163.538 145.707 163.929L150.364 168.586L150.364 115L152.364 115L152.364 168.586L157.02 163.929C157.411 163.538 158.044 163.538 158.435 163.929C158.825 164.319 158.825 164.953 158.435 165.343Z" fill="#000"/>
<path d="M247.121 144.978V135.158H246.98L244 137.25V135.191L247.129 133H249.263V144.978H247.121Z" fill="#000"/>
<path d="M194.283 208.802C194.283 207.684 194.671 206.771 195.445 206.062C196.226 205.354 197.23 205 198.458 205C199.643 205 200.617 205.324 201.38 205.971C202.15 206.619 202.534 207.443 202.534 208.445C202.534 209.087 202.34 209.723 201.953 210.354C201.566 210.979 200.863 211.796 199.845 212.803L197.338 215.318V215.459H202.717V217.277H194.399V215.791L198.392 211.707C199.211 210.877 199.756 210.254 200.027 209.839C200.299 209.419 200.434 208.998 200.434 208.578C200.434 208.052 200.24 207.618 199.853 207.274C199.471 206.931 198.984 206.76 198.392 206.76C197.767 206.76 197.26 206.948 196.873 207.324C196.486 207.701 196.292 208.193 196.292 208.802V208.835H194.283V208.802Z" fill="#000"/>
<path fill-rule="evenodd" clip-rule="evenodd" d="M239.343 218.206L245.707 224.57C246.098 224.96 246.098 225.594 245.707 225.984L239.343 232.348C238.953 232.739 238.319 232.739 237.929 232.348C237.538 231.958 237.538 231.324 237.929 230.934L242.586 226.277L189 226.277L189 224.277L242.586 224.277L237.929 219.62C237.538 219.23 237.538 218.596 237.929 218.206C238.319 217.815 238.953 217.815 239.343 218.206Z" fill="#000"/>
<path fill-rule="evenodd" clip-rule="evenodd" d="M306.361 151.5H241V149.5H308.639L301.304 205.735L306.524 201.72C306.962 201.383 307.59 201.465 307.926 201.903C308.263 202.341 308.181 202.968 307.743 203.305L300.61 208.793C300.172 209.129 299.544 209.047 299.207 208.61L293.72 201.476C293.383 201.038 293.465 200.41 293.903 200.074C294.341 199.737 294.968 199.819 295.305 200.257L299.321 205.477L306.361 151.5Z" fill="#000"/>
</svg>
