<svg width="345" height="345" viewBox="0 0 345 345" fill="none" xmlns="http://www.w3.org/2000/svg">
<path d="M294.48 165.5C293.94 167.12 293.4 169.46 293.4 171.08C291.78 184.58 285.3 227.78 283.14 240.38H268.02C270 230.66 276.66 186.56 277.2 175.04C266.04 175.04 225 175.04 220.14 175.04C214.92 175.04 210.06 175.22 205.56 175.58V160.46C209.88 161 215.46 161.36 219.96 161.36C226.8 161.36 264.6 161.36 274.68 161.36C277.56 161.36 282.06 161 283.5 160.1L294.48 165.5ZM188.64 234.62C192.96 235.16 198.18 235.52 203.58 235.52C213.3 235.52 292.32 235.52 301.86 235.52C305.82 235.52 312.3 235.16 316.08 234.8V249.38C312.66 249.2 306.18 249.2 302.22 249.2C292.14 249.2 212.58 249.2 203.58 249.2C198.18 249.2 194.04 249.38 188.64 249.56V234.62Z" fill="#f00"/>
<path d="M31.8798 125.9C45.3798 126.62 72.7398 125.9 92.3598 123.2C108.74 121.04 129.8 116.72 138.62 112.76L148.16 125.36C144.2 126.44 140.78 127.34 138.08 128.06C127.64 130.58 110.9 133.82 96.4998 135.8C76.3398 138.5 51.4998 139.04 35.4798 139.4L31.8798 125.9ZM41.9598 248.66C72.5598 234.26 87.8598 211.76 87.8598 174.68C87.8598 174.68 87.8598 158.48 87.8598 133.82L102.26 131.84C102.26 145.88 102.26 174.32 102.26 174.32C102.26 212.66 89.6599 239.12 55.9998 258.38L41.9598 248.66ZM17.8398 168.74C21.7998 169.1 28.0998 169.64 33.6798 169.64C45.1998 169.64 140.96 169.64 152.12 169.64C155.9 169.64 162.56 169.28 166.34 168.92V183.68C162.38 183.32 156.8 183.14 152.3 183.14C141.5 183.14 45.0198 183.14 33.8598 183.14C28.0998 183.14 22.1598 183.32 17.8398 183.68V168.74Z" fill="#f00"/>
<path d="M129.426 93.978V84.1582H129.285L126.305 86.25V84.1914L129.434 82H131.567V93.978H129.426Z" fill="#000"/>
<path d="M121.439 195.964V194.304H122.9C123.509 194.304 124.004 194.138 124.386 193.806C124.768 193.469 124.958 193.031 124.958 192.495C124.958 191.963 124.77 191.54 124.394 191.225C124.023 190.904 123.525 190.743 122.9 190.743C122.28 190.743 121.777 190.906 121.389 191.233C121.007 191.559 120.797 192.005 120.758 192.569H118.758C118.813 191.468 119.217 190.599 119.97 189.963C120.722 189.321 121.721 189 122.966 189C124.128 189 125.094 189.304 125.863 189.913C126.638 190.516 127.025 191.277 127.025 192.196C127.025 192.899 126.829 193.499 126.436 193.997C126.049 194.495 125.523 194.813 124.859 194.952V195.093C125.678 195.187 126.323 195.494 126.793 196.014C127.269 196.534 127.507 197.193 127.507 197.99C127.507 199.019 127.075 199.874 126.212 200.555C125.354 201.235 124.275 201.576 122.975 201.576C121.685 201.576 120.634 201.246 119.82 200.588C119.012 199.929 118.581 199.052 118.525 197.957H120.576C120.62 198.51 120.861 198.953 121.298 199.285C121.735 199.611 122.299 199.774 122.991 199.774C123.677 199.774 124.236 199.597 124.668 199.243C125.105 198.883 125.324 198.421 125.324 197.857C125.324 197.27 125.111 196.808 124.685 196.471C124.258 196.133 123.677 195.964 122.941 195.964H121.439Z" fill="#000"/>
<path d="M22 145.802C22 144.684 22.3874 143.771 23.1621 143.062C23.9424 142.354 24.9468 142 26.1753 142C27.3595 142 28.3335 142.324 29.0972 142.971C29.8664 143.619 30.251 144.443 30.251 145.445C30.251 146.087 30.0573 146.723 29.6699 147.354C29.2826 147.979 28.5798 148.796 27.5615 149.803L25.0547 152.318V152.459H30.4336V154.277H22.1162V152.791L26.1089 148.707C26.9279 147.877 27.473 147.254 27.7441 146.839C28.0153 146.419 28.1509 145.998 28.1509 145.578C28.1509 145.052 27.9572 144.618 27.5698 144.274C27.188 143.931 26.701 143.76 26.1089 143.76C25.4836 143.76 24.9772 143.948 24.5898 144.324C24.2025 144.701 24.0088 145.193 24.0088 145.802V145.835H22V145.802Z" fill="#000"/>
<path fill-rule="evenodd" clip-rule="evenodd" d="M77.3431 151.206L83.7071 157.57C84.0976 157.96 84.0976 158.593 83.7071 158.984L77.3431 165.348C76.9526 165.738 76.3195 165.738 75.9289 165.348C75.5384 164.957 75.5384 164.324 75.9289 163.934L80.5858 159.277L23 159.277L23 157.277L80.5858 157.277L75.9289 152.62C75.5384 152.229 75.5384 151.596 75.9289 151.206C76.3195 150.815 76.9526 150.815 77.3431 151.206Z" fill="#000"/>
<path fill-rule="evenodd" clip-rule="evenodd" d="M33.421 114.471C70.8299 114.263 113.891 109.236 141.12 98.053L141.88 99.903C114.29 111.234 70.9118 116.265 33.4076 116.471L38.0711 121.135C38.4616 121.525 38.4616 122.159 38.0711 122.549C37.6805 122.94 37.0474 122.94 36.6569 122.549L30.2929 116.185C29.9024 115.795 29.9024 115.161 30.2929 114.771L36.6569 108.407C37.0474 108.016 37.6805 108.016 38.0711 108.407C38.4616 108.797 38.4616 109.431 38.0711 109.821L33.421 114.471Z" fill="#000"/>
<path fill-rule="evenodd" clip-rule="evenodd" d="M103.518 227.323C108.644 215.279 110.757 201.906 112.507 186.663L114.494 186.891C112.743 202.148 110.607 215.774 105.358 228.106C100.339 239.897 92.4931 250.465 79.5093 260.181L86.0421 261.27C86.5869 261.361 86.9549 261.876 86.8641 262.421C86.7733 262.966 86.2581 263.334 85.7133 263.243L76.8358 261.763C76.291 261.672 75.923 261.157 76.0138 260.612L77.4934 251.735C77.5841 251.19 78.0994 250.822 78.6441 250.913C79.1889 251.004 79.5569 251.519 79.4661 252.064L78.39 258.521C91.0552 249.024 98.6524 238.753 103.518 227.323Z" fill="#000"/>
<path d="M247.121 144.978V135.158H246.98L244 137.25V135.191L247.129 133H249.263V144.978H247.121Z" fill="#000"/>
<path d="M194.283 208.802C194.283 207.684 194.671 206.771 195.445 206.062C196.226 205.354 197.23 205 198.458 205C199.643 205 200.617 205.324 201.38 205.971C202.15 206.619 202.534 207.443 202.534 208.445C202.534 209.087 202.34 209.723 201.953 210.354C201.566 210.979 200.863 211.796 199.845 212.803L197.338 215.318V215.459H202.717V217.277H194.399V215.791L198.392 211.707C199.211 210.877 199.756 210.254 200.027 209.839C200.299 209.419 200.434 208.998 200.434 208.578C200.434 208.052 200.24 207.618 199.853 207.274C199.471 206.931 198.984 206.76 198.392 206.76C197.767 206.76 197.26 206.948 196.873 207.324C196.486 207.701 196.292 208.193 196.292 208.802V208.835H194.283V208.802Z" fill="#000"/>
<path fill-rule="evenodd" clip-rule="evenodd" d="M239.343 218.206L245.707 224.57C246.098 224.96 246.098 225.594 245.707 225.984L239.343 232.348C238.953 232.739 238.319 232.739 237.929 232.348C237.538 231.958 237.538 231.324 237.929 230.934L242.586 226.277L189 226.277L189 224.277L242.586 224.277L237.929 219.62C237.538 219.23 237.538 218.596 237.929 218.206C238.319 217.815 238.953 217.815 239.343 218.206Z" fill="#000"/>
<path fill-rule="evenodd" clip-rule="evenodd" d="M306.361 151.5H241V149.5H308.639L301.304 205.735L306.524 201.72C306.962 201.383 307.59 201.465 307.926 201.903C308.263 202.341 308.181 202.968 307.743 203.305L300.61 208.793C300.172 209.129 299.544 209.047 299.207 208.61L293.72 201.476C293.383 201.038 293.465 200.41 293.903 200.074C294.341 199.737 294.968 199.819 295.305 200.257L299.321 205.477L306.361 151.5Z" fill="#000"/>
</svg>
