<svg width="346" height="345" viewBox="0 0 346 345" fill="none" xmlns="http://www.w3.org/2000/svg">
<path d="M242.085 140.84C242.445 144.08 243.525 147.86 244.605 152.54C248.745 167.48 268.365 238.76 272.145 251C273.225 254.42 274.845 260 276.105 263.24L260.625 267.38C260.265 263.24 259.365 258.56 258.105 254.24C254.325 241.28 235.065 168.74 230.925 155.42C229.665 151.1 228.225 147.5 226.605 144.62L242.085 140.84ZM328.485 165.68C320.925 180.8 302.385 206.18 289.965 218.24L277.365 211.76C288.525 202.22 302.205 185.48 308.325 174.86C300.405 176.3 216.165 193.22 203.385 195.92L199.785 182.24C204.825 181.7 209.325 181.16 214.725 180.08C223.725 178.64 302.205 163.88 312.465 161.54C314.805 161 317.505 160.1 319.305 159.2L328.485 165.68Z" fill="#f00"/>
<path d="M128.395 104.84C132.895 111.32 139.375 122.3 142.975 129.5L133.255 133.82C129.655 126.62 123.715 115.82 118.855 108.98L128.395 104.84ZM148.015 97.6401C152.875 104.3 159.715 115.46 163.135 122.12L153.415 126.44C149.635 118.7 143.695 108.44 138.655 101.78L148.015 97.6401ZM60.3547 126.98C59.4547 122.3 58.1947 118.34 56.9347 114.56L73.1347 111.86C73.3147 115.28 74.2147 120.32 74.7547 124.28C76.0147 132.38 95.8147 231.02 98.3347 242.9C99.5947 248.12 101.035 254.24 102.655 259.28L86.2747 262.34C85.3747 256.22 84.8347 250.82 83.5747 245.42C81.5947 234.26 62.3347 136.34 60.3547 126.98ZM9.59469 152.9C14.0947 152.72 18.7747 152.36 24.5347 151.64C40.7347 149.84 103.015 139.94 120.115 136.7C125.335 135.62 129.835 134.54 132.895 133.64L135.955 148.76C133.255 149.12 127.675 149.84 122.995 150.56C104.275 153.62 42.8947 163.34 27.2347 166.04C22.1947 166.94 18.0547 167.84 12.6547 168.92L9.59469 152.9ZM9.05469 204.92C13.1947 204.74 20.2147 204.02 24.8947 203.3C43.9747 200.78 111.115 189.62 132.535 185.66C139.555 184.4 144.595 183.32 148.555 182.06L151.435 197.18C147.655 197.54 141.895 198.62 135.235 199.7C111.295 203.48 46.4947 213.92 28.1347 217.34C21.1147 218.42 16.2547 219.5 12.2947 220.58L9.05469 204.92Z" fill="#f00"/>
<path d="M5.12109 137.978V128.158H4.97998L2 130.25V128.191L5.12939 126H7.2627V137.978H5.12109Z" fill="#000"/>
<path d="M10.4902 178.802C10.4902 177.684 10.8776 176.771 11.6523 176.062C12.4326 175.354 13.437 175 14.6655 175C15.8498 175 16.8237 175.324 17.5874 175.971C18.3566 176.619 18.7412 177.443 18.7412 178.445C18.7412 179.087 18.5475 179.723 18.1602 180.354C17.7728 180.979 17.07 181.796 16.0518 182.803L13.5449 185.318V185.459H18.9238V187.277H10.6064V185.791L14.5991 181.707C15.4181 180.877 15.9632 180.254 16.2344 179.839C16.5055 179.419 16.6411 178.998 16.6411 178.578C16.6411 178.052 16.4474 177.618 16.0601 177.274C15.6782 176.931 15.1912 176.76 14.5991 176.76C13.9738 176.76 13.4674 176.948 13.0801 177.324C12.6927 177.701 12.499 178.193 12.499 178.802V178.835H10.4902V178.802Z" fill="#000"/>
<path d="M90.6626 98.9644V97.3042H92.1235C92.7323 97.3042 93.2275 97.1382 93.6094 96.8062C93.9912 96.4686 94.1821 96.0314 94.1821 95.4946C94.1821 94.9634 93.994 94.54 93.6177 94.2246C93.2469 93.9036 92.7489 93.7432 92.1235 93.7432C91.5037 93.7432 91.0002 93.9064 90.6128 94.2329C90.231 94.5594 90.0207 95.0049 89.9819 95.5693H87.9814C88.0368 94.4681 88.4408 93.5993 89.1934 92.9629C89.946 92.321 90.9448 92 92.1899 92C93.3521 92 94.3177 92.3044 95.0869 92.9131C95.8617 93.5163 96.249 94.2772 96.249 95.1958C96.249 95.8986 96.0526 96.499 95.6597 96.9971C95.2723 97.4951 94.7466 97.8133 94.0825 97.9517V98.0928C94.9015 98.1868 95.5462 98.494 96.0166 99.0142C96.4925 99.5343 96.7305 100.193 96.7305 100.99C96.7305 102.019 96.2988 102.874 95.4355 103.555C94.5778 104.235 93.4987 104.576 92.1982 104.576C90.9089 104.576 89.8574 104.246 89.0439 103.588C88.236 102.929 87.8044 102.052 87.749 100.957H89.7993C89.8436 101.51 90.0843 101.953 90.5215 102.285C90.9587 102.611 91.5231 102.774 92.2148 102.774C92.901 102.774 93.46 102.597 93.8916 102.243C94.3288 101.883 94.5474 101.421 94.5474 100.857C94.5474 100.27 94.3343 99.8083 93.9082 99.4707C93.4821 99.1331 92.901 98.9644 92.165 98.9644H90.6626Z" fill="#000"/>
<path fill-rule="evenodd" clip-rule="evenodd" d="M50.697 130.38L58.0178 135.615C58.4671 135.936 58.5708 136.561 58.2496 137.01L53.0146 144.331C52.6934 144.78 52.0688 144.884 51.6195 144.563C51.1703 144.241 51.0665 143.617 51.3878 143.168L55.2185 137.811L1.37071 146.756L1.04295 144.783L54.8907 135.838L49.5336 132.007C49.0844 131.686 48.9806 131.061 49.3019 130.612C49.6231 130.163 50.2477 130.059 50.697 130.38Z" fill="#000"/>
<path fill-rule="evenodd" clip-rule="evenodd" d="M59.697 181.228L67.0178 186.463C67.4671 186.784 67.5708 187.409 67.2496 187.858L62.0146 195.179C61.6934 195.628 61.0688 195.732 60.6195 195.411C60.1703 195.09 60.0665 194.465 60.3878 194.016L64.2185 188.659L10.3707 197.604L10.0429 195.631L63.8907 186.686L58.5336 182.855C58.0844 182.534 57.9806 181.909 58.3019 181.46C58.6231 181.011 59.2477 180.907 59.697 181.228Z" fill="#000"/>
<path fill-rule="evenodd" clip-rule="evenodd" d="M94.5226 129.018L89.5168 136.497C89.2096 136.956 88.5885 137.079 88.1295 136.772L80.6501 131.766C80.1911 131.459 80.0681 130.838 80.3753 130.379C80.6824 129.92 81.3035 129.797 81.7625 130.104L87.2356 133.767L80.2428 98.4712L82.2046 98.0825L89.1975 133.379L92.8605 127.906C93.1677 127.447 93.7888 127.324 94.2478 127.631C94.7067 127.938 94.8298 128.559 94.5226 129.018Z" fill="#000"/>
<path d="M128.852 100.978V98.7451H123V96.8359C123.974 95.043 125.601 92.431 127.881 89H130.902V96.9355H132.521V98.7451H130.902V100.978H128.852ZM124.984 96.8608V96.9854H128.885V90.7432H128.769C127.474 92.6579 126.212 94.6971 124.984 96.8608Z" fill="#000"/>
<path d="M152.831 95.2769C151.597 95.2769 150.584 94.9393 149.793 94.2642C149.002 93.589 148.581 92.7202 148.531 91.6577H150.54C150.606 92.2056 150.853 92.6483 151.279 92.9858C151.705 93.3234 152.228 93.4922 152.848 93.4922C153.55 93.4922 154.118 93.2764 154.549 92.8447C154.986 92.4076 155.205 91.832 155.205 91.1182C155.205 90.4043 154.986 89.826 154.549 89.3833C154.118 88.9351 153.556 88.7109 152.864 88.7109C152.377 88.7109 151.943 88.8133 151.561 89.0181C151.185 89.2228 150.886 89.5133 150.665 89.8896H148.722L149.345 83H156.558V84.8096H151.005L150.714 88.1714H150.855C151.409 87.4243 152.253 87.0508 153.387 87.0508C154.522 87.0508 155.451 87.4271 156.176 88.1797C156.907 88.9323 157.272 89.8952 157.272 91.0684C157.272 92.319 156.862 93.3345 156.043 94.1147C155.23 94.8895 154.159 95.2769 152.831 95.2769Z" fill="#000"/>
<path d="M196.399 166.978V157.158H196.258L193.278 159.25V157.191L196.408 155H198.541V166.978H196.399Z" fill="#000"/>
<path d="M253.278 118.802C253.278 117.684 253.666 116.771 254.44 116.062C255.221 115.354 256.225 115 257.454 115C258.638 115 259.612 115.324 260.375 115.971C261.145 116.619 261.529 117.443 261.529 118.445C261.529 119.087 261.336 119.723 260.948 120.354C260.561 120.979 259.858 121.796 258.84 122.803L256.333 125.318V125.459H261.712V127.277H253.395V125.791L257.387 121.707C258.206 120.877 258.751 120.254 259.022 119.839C259.294 119.419 259.429 118.998 259.429 118.578C259.429 118.052 259.236 117.618 258.848 117.274C258.466 116.931 257.979 116.76 257.387 116.76C256.762 116.76 256.256 116.948 255.868 117.324C255.481 117.701 255.287 118.193 255.287 118.802V118.835H253.278V118.802Z" fill="#000"/>
<path fill-rule="evenodd" clip-rule="evenodd" d="M221.542 159.217L229.076 164.141C229.538 164.443 229.668 165.063 229.366 165.525L224.442 173.059C224.139 173.521 223.52 173.651 223.057 173.349C222.595 173.047 222.465 172.427 222.767 171.965L226.371 166.452L194.688 172.957L194.278 171L225.961 164.495L220.448 160.891C219.986 160.589 219.856 159.969 220.158 159.507C220.46 159.045 221.08 158.915 221.542 159.217Z" fill="#000"/>
<path fill-rule="evenodd" clip-rule="evenodd" d="M264.382 158.726L259.882 166.521C259.606 166.999 258.994 167.163 258.516 166.887L250.722 162.387C250.244 162.111 250.08 161.499 250.356 161.021C250.632 160.542 251.244 160.379 251.722 160.655L257.425 163.948L245.426 119.165L247.358 118.647L259.357 163.43L262.65 157.726C262.926 157.248 263.538 157.084 264.016 157.36C264.494 157.637 264.658 158.248 264.382 158.726Z" fill="#000"/>
<path fill-rule="evenodd" clip-rule="evenodd" d="M316.388 152.91C309.365 153.519 301.157 155.343 292.57 157.956L291.987 156.043C300.65 153.407 309.004 151.543 316.216 150.918C323.388 150.296 329.598 150.882 333.839 153.32C335.986 154.554 337.634 156.267 338.619 158.518C339.6 160.759 339.893 163.459 339.465 166.626C338.666 172.533 335.339 180.235 328.932 190.062L335.422 188.8C335.964 188.695 336.489 189.049 336.595 189.591C336.7 190.133 336.346 190.658 335.804 190.764L326.969 192.481C326.427 192.587 325.902 192.233 325.797 191.691L324.079 182.856C323.974 182.314 324.328 181.789 324.87 181.684C325.412 181.578 325.937 181.932 326.042 182.474L327.294 188.912C333.614 179.208 336.744 171.822 337.483 166.358C337.875 163.455 337.585 161.143 336.787 159.32C335.993 157.506 334.664 156.101 332.843 155.054C329.147 152.93 323.45 152.298 316.388 152.91Z" fill="#000"/>
</svg>
