<svg width="345" height="345" viewBox="0 0 345 345" fill="none" xmlns="http://www.w3.org/2000/svg">
<path d="M294.48 165.5C293.94 167.12 293.4 169.46 293.4 171.08C291.78 184.58 285.3 227.78 283.14 240.38H268.02C270 230.66 276.66 186.56 277.2 175.04C266.04 175.04 225 175.04 220.14 175.04C214.92 175.04 210.06 175.22 205.56 175.58V160.46C209.88 161 215.46 161.36 219.96 161.36C226.8 161.36 264.6 161.36 274.68 161.36C277.56 161.36 282.06 161 283.5 160.1L294.48 165.5ZM188.64 234.62C192.96 235.16 198.18 235.52 203.58 235.52C213.3 235.52 292.32 235.52 301.86 235.52C305.82 235.52 312.3 235.16 316.08 234.8V249.38C312.66 249.2 306.18 249.2 302.22 249.2C292.14 249.2 212.58 249.2 203.58 249.2C198.18 249.2 194.04 249.38 188.64 249.56V234.62Z" fill="#f00"/>
<path d="M34.0396 133.82C39.7996 134.36 45.7396 134.72 51.6796 134.72C63.0196 134.72 119.72 134.72 128.9 134.72C135.38 134.72 141.68 134.36 146.54 133.82V150.02C141.68 149.84 134.84 149.66 128.9 149.66C119.9 149.66 60.4996 149.66 51.6796 149.66C45.5596 149.66 39.4396 149.84 34.0396 150.02V133.82ZM18.5596 223.1C24.6796 223.46 30.7996 224 37.4596 224C47.7196 224 134.84 224 145.28 224C150.5 224 156.44 223.64 161.66 223.1V240.38C156.26 239.84 149.96 239.48 145.28 239.48C134.84 239.48 47.7196 239.48 37.4596 239.48C30.7996 239.48 24.4996 239.84 18.5596 240.38V223.1Z" fill="#f00"/>
<path d="M23.2832 199.802C23.2832 198.684 23.6706 197.771 24.4453 197.062C25.2256 196.354 26.23 196 27.4585 196C28.6427 196 29.6167 196.324 30.3804 196.971C31.1496 197.619 31.5342 198.443 31.5342 199.445C31.5342 200.087 31.3405 200.723 30.9531 201.354C30.5658 201.979 29.863 202.796 28.8447 203.803L26.3379 206.318V206.459H31.7168V208.277H23.3994V206.791L27.3921 202.707C28.2111 201.877 28.7562 201.254 29.0273 200.839C29.2985 200.419 29.4341 199.998 29.4341 199.578C29.4341 199.052 29.2404 198.618 28.853 198.274C28.4712 197.931 27.9842 197.76 27.3921 197.76C26.7668 197.76 26.2604 197.948 25.873 198.324C25.4857 198.701 25.292 199.193 25.292 199.802V199.835H23.2832V199.802Z" fill="#000"/>
<path fill-rule="evenodd" clip-rule="evenodd" d="M95.3431 206.206L101.707 212.57C102.098 212.96 102.098 213.594 101.707 213.984L95.3431 220.348C94.9526 220.739 94.3195 220.739 93.9289 220.348C93.5384 219.958 93.5384 219.324 93.9289 218.934L98.5858 214.277L21 214.277L21 212.277L98.5858 212.277L93.9289 207.62C93.5384 207.23 93.5384 206.596 93.9289 206.206C94.3195 205.815 94.9526 205.815 95.3431 206.206Z" fill="#000"/>
<path fill-rule="evenodd" clip-rule="evenodd" d="M87.3431 115.929L93.7071 122.293C94.0976 122.683 94.0976 123.316 93.7071 123.707L87.3431 130.071C86.9526 130.461 86.3195 130.461 85.9289 130.071C85.5384 129.68 85.5384 129.047 85.9289 128.657L90.5858 124L37 124L37 122L90.5858 122L85.9289 117.343C85.5384 116.952 85.5384 116.319 85.9289 115.929C86.3195 115.538 86.9526 115.538 87.3431 115.929Z" fill="#000"/>
<path d="M40.1211 118.978V109.158H39.98L37 111.25V109.191L40.1294 107H42.2627V118.978H40.1211Z" fill="#000"/>
<path d="M247.121 144.978V135.158H246.98L244 137.25V135.191L247.129 133H249.263V144.978H247.121Z" fill="#000"/>
<path d="M194.283 208.802C194.283 207.684 194.671 206.771 195.445 206.062C196.226 205.354 197.23 205 198.458 205C199.643 205 200.617 205.324 201.38 205.971C202.15 206.619 202.534 207.443 202.534 208.445C202.534 209.087 202.34 209.723 201.953 210.354C201.566 210.979 200.863 211.796 199.845 212.803L197.338 215.318V215.459H202.717V217.277H194.399V215.791L198.392 211.707C199.211 210.877 199.756 210.254 200.027 209.839C200.299 209.419 200.434 208.998 200.434 208.578C200.434 208.052 200.24 207.618 199.853 207.274C199.471 206.931 198.984 206.76 198.392 206.76C197.767 206.76 197.26 206.948 196.873 207.324C196.486 207.701 196.292 208.193 196.292 208.802V208.835H194.283V208.802Z" fill="#000"/>
<path fill-rule="evenodd" clip-rule="evenodd" d="M239.343 218.206L245.707 224.57C246.098 224.96 246.098 225.594 245.707 225.984L239.343 232.348C238.953 232.739 238.319 232.739 237.929 232.348C237.538 231.958 237.538 231.324 237.929 230.934L242.586 226.277L189 226.277L189 224.277L242.586 224.277L237.929 219.62C237.538 219.23 237.538 218.596 237.929 218.206C238.319 217.815 238.953 217.815 239.343 218.206Z" fill="#000"/>
<path fill-rule="evenodd" clip-rule="evenodd" d="M306.361 151.5H241V149.5H308.639L301.304 205.735L306.524 201.72C306.962 201.383 307.59 201.465 307.926 201.903C308.263 202.341 308.181 202.968 307.743 203.305L300.61 208.793C300.172 209.129 299.544 209.047 299.207 208.61L293.72 201.476C293.383 201.038 293.465 200.41 293.903 200.074C294.341 199.737 294.968 199.819 295.305 200.257L299.321 205.477L306.361 151.5Z" fill="#000"/>
</svg>
