<svg width="346" height="345" viewBox="0 0 346 345" fill="none" xmlns="http://www.w3.org/2000/svg">
<path d="M305.266 165.5C304.726 167.12 304.186 169.46 304.186 171.08C302.566 184.58 296.086 227.78 293.926 240.38H278.806C280.786 230.66 287.446 186.56 287.986 175.04C276.826 175.04 235.786 175.04 230.926 175.04C225.706 175.04 220.846 175.22 216.346 175.58V160.46C220.666 161 226.246 161.36 230.746 161.36C237.586 161.36 275.386 161.36 285.466 161.36C288.346 161.36 292.846 161 294.286 160.1L305.266 165.5ZM199.426 234.62C203.746 235.16 208.966 235.52 214.366 235.52C224.086 235.52 303.106 235.52 312.646 235.52C316.606 235.52 323.086 235.16 326.866 234.8V249.38C323.446 249.2 316.966 249.2 313.006 249.2C302.926 249.2 223.366 249.2 214.366 249.2C208.966 249.2 204.826 249.38 199.426 249.56V234.62Z" fill="#f00"/>
<path d="M129.655 125.54C129.655 132.02 135.055 137.42 141.535 137.42C148.015 137.42 153.595 132.02 153.595 125.54C153.595 119.06 148.015 113.66 141.535 113.66C135.055 113.66 129.655 119.06 129.655 125.54ZM121.375 125.54C121.375 114.38 130.375 105.38 141.535 105.38C152.695 105.38 161.875 114.38 161.875 125.54C161.875 136.7 152.695 145.7 141.535 145.7C130.375 145.7 121.375 136.7 121.375 125.54ZM43.4353 116C42.8953 120.32 42.3553 125.54 42.3553 130.58C42.3553 140.3 42.3553 212.66 42.3553 225.62C42.3553 234.98 46.3153 237.32 54.9553 238.94C60.7153 240.02 69.8953 240.38 78.7153 240.38C97.7953 240.38 125.335 238.58 140.455 234.62V251.18C124.795 253.52 97.7953 254.78 78.1753 254.78C67.3753 254.78 56.7553 254.42 49.1953 253.16C35.5153 250.64 27.7753 244.34 27.7753 229.58C27.7753 212.3 27.7753 140.3 27.7753 130.58C27.7753 126.26 27.4153 120.32 26.6953 116H43.4353ZM35.6953 172.88C57.4753 168.2 90.0553 158.3 110.935 149.48C116.335 146.96 121.555 144.44 126.775 141.2L133.075 155.6C127.855 157.76 121.375 160.64 115.975 162.8C93.6553 171.8 58.0153 182.24 35.8753 187.82L35.6953 172.88Z" fill="#f00"/>
<path d="M57.8857 145.275V135.455H57.7446L54.7646 137.547V135.488L57.894 133.297H60.0273V145.275H57.8857Z" fill="#000"/>
<path d="M0 118.802C0 117.684 0.38737 116.771 1.16211 116.062C1.94238 115.354 2.94678 115 4.17529 115C5.35954 115 6.3335 115.324 7.09717 115.971C7.86637 116.619 8.25098 117.443 8.25098 118.445C8.25098 119.087 8.05729 119.723 7.66992 120.354C7.28255 120.979 6.57975 121.796 5.56152 122.803L3.05469 125.318V125.459H8.43359V127.277H0.116211V125.791L4.10889 121.707C4.9279 120.877 5.47298 120.254 5.74414 119.839C6.0153 119.419 6.15088 118.998 6.15088 118.578C6.15088 118.052 5.95719 117.618 5.56982 117.274C5.18799 116.931 4.70101 116.76 4.10889 116.76C3.48356 116.76 2.97721 116.948 2.58984 117.324C2.20247 117.701 2.00879 118.193 2.00879 118.802V118.835H0V118.802Z" fill="#000"/>
<path fill-rule="evenodd" clip-rule="evenodd" d="M113.555 129.5L121.679 133.372C122.178 133.61 122.389 134.207 122.151 134.705L118.279 142.83C118.041 143.328 117.445 143.54 116.946 143.302C116.448 143.065 116.236 142.468 116.474 141.969L119.307 136.024L48.7883 161L48.1202 159.115L118.639 134.139L112.694 131.306C112.196 131.068 111.984 130.471 112.222 129.973C112.459 129.474 113.056 129.262 113.555 129.5Z" fill="#000"/>
<path fill-rule="evenodd" clip-rule="evenodd" d="M23.7882 165.62L17.4242 171.984C17.0337 172.375 16.4005 172.375 16.01 171.984L9.64602 165.62C9.2555 165.23 9.2555 164.597 9.64602 164.206C10.0365 163.816 10.6697 163.816 11.0602 164.206L15.7171 168.863L15.7171 115.277L17.7171 115.277L17.7171 168.863L22.3739 164.206C22.7645 163.816 23.3976 163.816 23.7882 164.206C24.1787 164.597 24.1787 165.23 23.7882 165.62Z" fill="#000"/>
<path d="M151.914 96.9644V95.3042H153.375C153.983 95.3042 154.479 95.1382 154.86 94.8062C155.242 94.4686 155.433 94.0314 155.433 93.4946C155.433 92.9634 155.245 92.54 154.869 92.2246C154.498 91.9036 154 91.7432 153.375 91.7432C152.755 91.7432 152.251 91.9064 151.864 92.2329C151.482 92.5594 151.272 93.0049 151.233 93.5693H149.232C149.288 92.4681 149.692 91.5993 150.444 90.9629C151.197 90.321 152.196 90 153.441 90C154.603 90 155.569 90.3044 156.338 90.9131C157.113 91.5163 157.5 92.2772 157.5 93.1958C157.5 93.8986 157.304 94.499 156.911 94.9971C156.523 95.4951 155.998 95.8133 155.333 95.9517V96.0928C156.153 96.1868 156.797 96.494 157.268 97.0142C157.743 97.5343 157.981 98.1929 157.981 98.9897C157.981 100.019 157.55 100.874 156.687 101.555C155.829 102.235 154.75 102.576 153.449 102.576C152.16 102.576 151.108 102.246 150.295 101.588C149.487 100.929 149.055 100.052 149 98.9565H151.05C151.095 99.5099 151.335 99.9526 151.772 100.285C152.21 100.611 152.774 100.774 153.466 100.774C154.152 100.774 154.711 100.597 155.143 100.243C155.58 99.8835 155.798 99.4214 155.798 98.8569C155.798 98.2703 155.585 97.8083 155.159 97.4707C154.733 97.1331 154.152 96.9644 153.416 96.9644H151.914Z" fill="#000"/>
<path d="M258.481 144.978V135.158H258.34L255.36 137.25V135.191L258.49 133H260.623V144.978H258.481Z" fill="#000"/>
<path d="M205.644 208.802C205.644 207.684 206.031 206.771 206.806 206.062C207.586 205.354 208.59 205 209.819 205C211.003 205 211.977 205.324 212.741 205.971C213.51 206.619 213.895 207.443 213.895 208.445C213.895 209.087 213.701 209.723 213.313 210.354C212.926 210.979 212.223 211.796 211.205 212.803L208.698 215.318V215.459H214.077V217.277H205.76V215.791L209.752 211.707C210.571 210.877 211.117 210.254 211.388 209.839C211.659 209.419 211.794 208.998 211.794 208.578C211.794 208.052 211.601 207.618 211.213 207.274C210.832 206.931 210.345 206.76 209.752 206.76C209.127 206.76 208.621 206.948 208.233 207.324C207.846 207.701 207.652 208.193 207.652 208.802V208.835H205.644V208.802Z" fill="#000"/>
<path fill-rule="evenodd" clip-rule="evenodd" d="M250.703 218.206L257.067 224.57C257.458 224.96 257.458 225.594 257.067 225.984L250.704 232.348C250.313 232.739 249.68 232.739 249.289 232.348C248.899 231.958 248.899 231.324 249.289 230.934L253.946 226.277L200.36 226.277L200.36 224.277L253.946 224.277L249.289 219.62C248.899 219.23 248.899 218.596 249.289 218.206C249.68 217.815 250.313 217.815 250.703 218.206Z" fill="#000"/>
<path fill-rule="evenodd" clip-rule="evenodd" d="M317.721 151.5H252.36V149.5H319.999L312.664 205.735L317.884 201.72C318.322 201.383 318.95 201.465 319.287 201.903C319.623 202.341 319.541 202.968 319.104 203.305L311.97 208.793C311.532 209.129 310.904 209.047 310.568 208.61L305.08 201.476C304.744 201.038 304.825 200.41 305.263 200.074C305.701 199.737 306.329 199.819 306.666 200.257L310.681 205.477L317.721 151.5Z" fill="#000"/>
</svg>
