<svg width="345" height="345" viewBox="0 0 345 345" fill="none" xmlns="http://www.w3.org/2000/svg">
<path d="M237.103 140.84C237.463 144.08 238.543 147.86 239.623 152.54C243.763 167.48 263.383 238.76 267.163 251C268.243 254.42 269.863 260 271.123 263.24L255.643 267.38C255.283 263.24 254.383 258.56 253.123 254.24C249.343 241.28 230.083 168.74 225.943 155.42C224.683 151.1 223.243 147.5 221.623 144.62L237.103 140.84ZM323.503 165.68C315.943 180.8 297.403 206.18 284.983 218.24L272.383 211.76C283.543 202.22 297.223 185.48 303.343 174.86C295.423 176.3 211.183 193.22 198.403 195.92L194.803 182.24C199.843 181.7 204.343 181.16 209.743 180.08C218.743 178.64 297.223 163.88 307.483 161.54C309.823 161 312.523 160.1 314.323 159.2L323.503 165.68Z" fill="#f00"/>
<path d="M126.078 116.72C130.578 123.38 138.677 136.16 142.817 144.8L132.558 149.48C128.058 139.94 121.938 129.14 115.998 121.04L126.078 116.72ZM149.477 108.08C154.337 114.38 162.438 127.34 166.758 135.62L156.497 140.3C151.817 130.94 145.518 120.5 139.578 112.58L149.477 108.08ZM49.0375 114.02C59.6575 119.96 80.3575 133.82 88.2775 139.58L79.6375 151.82C71.1775 145.34 51.5575 132.2 40.9375 126.26L49.0375 114.02ZM22.0375 242.72C41.8375 239.3 64.1575 232.28 82.5175 221.84C112.398 204.74 135.978 181.34 150.558 155.96L159.378 170.72C143.717 194.84 118.878 218.24 90.0775 234.98C71.8975 245.6 47.0575 254.06 30.4975 257.48L22.0375 242.72ZM22.0375 154.52C32.6575 160.28 53.7175 173.24 61.4575 178.82L53.1775 191.42C44.3575 185.12 24.9175 172.52 13.9375 166.94L22.0375 154.52Z" fill="#f00"/>
<path d="M71.5986 106.978V97.1582H71.4575L68.4775 99.25V97.1914L71.6069 95H73.7402V106.978H71.5986Z" fill="#000"/>
<path d="M45.2349 276.554V274.894H46.6958C47.3045 274.894 47.7998 274.728 48.1816 274.396C48.5635 274.058 48.7544 273.621 48.7544 273.084C48.7544 272.553 48.5662 272.13 48.1899 271.814C47.8192 271.493 47.3211 271.333 46.6958 271.333C46.076 271.333 45.5724 271.496 45.1851 271.823C44.8032 272.149 44.5929 272.595 44.5542 273.159H42.5537C42.609 272.058 43.013 271.189 43.7656 270.553C44.5182 269.911 45.5171 269.59 46.7622 269.59C47.9243 269.59 48.89 269.894 49.6592 270.503C50.4339 271.106 50.8213 271.867 50.8213 272.786C50.8213 273.488 50.6248 274.089 50.2319 274.587C49.8446 275.085 49.3188 275.403 48.6548 275.542V275.683C49.4738 275.777 50.1185 276.084 50.5889 276.604C51.0648 277.124 51.3027 277.783 51.3027 278.58C51.3027 279.609 50.8711 280.464 50.0078 281.145C49.1501 281.825 48.071 282.166 46.7705 282.166C45.4811 282.166 44.4297 281.836 43.6162 281.178C42.8083 280.519 42.3766 279.642 42.3213 278.546H44.3716C44.4159 279.1 44.6566 279.542 45.0938 279.875C45.5309 280.201 46.0954 280.364 46.7871 280.364C47.4733 280.364 48.0322 280.187 48.4639 279.833C48.901 279.473 49.1196 279.011 49.1196 278.447C49.1196 277.86 48.9066 277.398 48.4805 277.061C48.0544 276.723 47.4733 276.554 46.7373 276.554H45.2349Z" fill="#000"/>
<path d="M35.2471 136.802C35.2471 135.684 35.6344 134.771 36.4092 134.062C37.1895 133.354 38.1938 133 39.4224 133C40.6066 133 41.5806 133.324 42.3442 133.971C43.1134 134.619 43.498 135.443 43.498 136.445C43.498 137.087 43.3044 137.723 42.917 138.354C42.5296 138.979 41.8268 139.796 40.8086 140.803L38.3018 143.318V143.459H43.6807V145.277H35.3633V143.791L39.356 139.707C40.175 138.877 40.7201 138.254 40.9912 137.839C41.2624 137.419 41.3979 136.998 41.3979 136.578C41.3979 136.052 41.2043 135.618 40.8169 135.274C40.4351 134.931 39.9481 134.76 39.356 134.76C38.7306 134.76 38.2243 134.948 37.8369 135.324C37.4495 135.701 37.2559 136.193 37.2559 136.802V136.835H35.2471V136.802Z" fill="#000"/>
<path fill-rule="evenodd" clip-rule="evenodd" d="M91.4627 120.316L93.5404 129.073C93.6679 129.61 93.3356 130.149 92.7982 130.277L84.0413 132.354C83.504 132.482 82.965 132.15 82.8375 131.612C82.71 131.075 83.0423 130.536 83.5796 130.408L89.9875 128.888L55.439 107.59L56.4885 105.888L91.037 127.186L89.5167 120.778C89.3892 120.24 89.7214 119.701 90.2588 119.574C90.7962 119.446 91.3352 119.779 91.4627 120.316Z" fill="#000"/>
<path fill-rule="evenodd" clip-rule="evenodd" d="M62.4627 158.854L64.5404 167.611C64.6679 168.148 64.3356 168.687 63.7982 168.815L55.0413 170.892C54.504 171.02 53.965 170.688 53.8375 170.15C53.71 169.613 54.0423 169.074 54.5796 168.947L60.9875 167.426L26.439 146.128L27.4885 144.426L62.037 165.724L60.5167 159.316C60.3892 158.778 60.7214 158.239 61.2588 158.112C61.7962 157.984 62.3352 158.317 62.4627 158.854Z" fill="#000"/>
<path fill-rule="evenodd" clip-rule="evenodd" d="M117.892 226.872C118.442 226.925 118.844 227.414 118.791 227.963L117.924 236.921C117.871 237.471 117.382 237.874 116.832 237.82C116.283 237.767 115.88 237.279 115.933 236.729L116.57 230.15C91.4538 250.257 64.8718 259.972 35.4918 265.848L35.0996 263.886C64.2514 258.056 90.4913 248.451 115.272 228.627L108.741 227.995C108.192 227.942 107.789 227.453 107.842 226.904C107.895 226.354 108.384 225.952 108.934 226.005L117.892 226.872Z" fill="#000"/>
<path d="M128.852 111.978V109.745H123V107.836C123.974 106.043 125.601 103.431 127.881 100H130.902V107.936H132.521V109.745H130.902V111.978H128.852ZM124.984 107.861V107.985H128.885V101.743H128.769C127.474 103.658 126.212 105.697 124.984 107.861Z" fill="#000"/>
<path d="M152.831 106.277C151.597 106.277 150.584 105.939 149.793 105.264C149.002 104.589 148.581 103.72 148.531 102.658H150.54C150.606 103.206 150.853 103.648 151.279 103.986C151.705 104.323 152.228 104.492 152.848 104.492C153.55 104.492 154.118 104.276 154.549 103.845C154.986 103.408 155.205 102.832 155.205 102.118C155.205 101.404 154.986 100.826 154.549 100.383C154.118 99.9351 153.556 99.7109 152.864 99.7109C152.377 99.7109 151.943 99.8133 151.561 100.018C151.185 100.223 150.886 100.513 150.665 100.89H148.722L149.345 94H156.558V95.8096H151.005L150.714 99.1714H150.855C151.409 98.4243 152.253 98.0508 153.387 98.0508C154.522 98.0508 155.451 98.4271 156.176 99.1797C156.907 99.9323 157.272 100.895 157.272 102.068C157.272 103.319 156.862 104.334 156.043 105.115C155.23 105.889 154.159 106.277 152.831 106.277Z" fill="#000"/>
<path d="M192.399 166.978V157.158H192.258L189.278 159.25V157.191L192.408 155H194.541V166.978H192.399Z" fill="#000"/>
<path d="M249.278 118.802C249.278 117.684 249.666 116.771 250.44 116.062C251.221 115.354 252.225 115 253.454 115C254.638 115 255.612 115.324 256.375 115.971C257.145 116.619 257.529 117.443 257.529 118.445C257.529 119.087 257.336 119.723 256.948 120.354C256.561 120.979 255.858 121.796 254.84 122.803L252.333 125.318V125.459H257.712V127.277H249.395V125.791L253.387 121.707C254.206 120.877 254.751 120.254 255.022 119.839C255.294 119.419 255.429 118.998 255.429 118.578C255.429 118.052 255.236 117.618 254.848 117.274C254.466 116.931 253.979 116.76 253.387 116.76C252.762 116.76 252.256 116.948 251.868 117.324C251.481 117.701 251.287 118.193 251.287 118.802V118.835H249.278V118.802Z" fill="#000"/>
<path fill-rule="evenodd" clip-rule="evenodd" d="M217.542 159.217L225.076 164.141C225.538 164.443 225.668 165.063 225.366 165.525L220.442 173.059C220.139 173.521 219.52 173.651 219.057 173.349C218.595 173.047 218.465 172.427 218.767 171.965L222.371 166.452L190.688 172.957L190.278 171L221.961 164.495L216.448 160.891C215.986 160.589 215.856 159.969 216.158 159.507C216.46 159.045 217.08 158.915 217.542 159.217Z" fill="#000"/>
<path fill-rule="evenodd" clip-rule="evenodd" d="M260.382 158.726L255.882 166.521C255.606 166.999 254.994 167.163 254.516 166.887L246.722 162.387C246.244 162.111 246.08 161.499 246.356 161.021C246.632 160.542 247.244 160.379 247.722 160.655L253.425 163.948L241.426 119.165L243.358 118.647L255.357 163.43L258.65 157.726C258.926 157.248 259.538 157.084 260.016 157.36C260.494 157.637 260.658 158.248 260.382 158.726Z" fill="#000"/>
<path fill-rule="evenodd" clip-rule="evenodd" d="M312.388 152.91C305.365 153.519 297.157 155.343 288.57 157.956L287.987 156.043C296.65 153.407 305.004 151.543 312.216 150.918C319.388 150.296 325.598 150.882 329.839 153.32C331.986 154.554 333.634 156.267 334.619 158.518C335.6 160.759 335.893 163.459 335.465 166.626C334.666 172.533 331.339 180.235 324.932 190.062L331.422 188.8C331.964 188.695 332.489 189.049 332.595 189.591C332.7 190.133 332.346 190.658 331.804 190.764L322.969 192.481C322.427 192.587 321.902 192.233 321.797 191.691L320.079 182.856C319.974 182.314 320.328 181.789 320.87 181.684C321.412 181.578 321.937 181.932 322.042 182.474L323.294 188.912C329.614 179.208 332.744 171.822 333.483 166.358C333.875 163.455 333.585 161.143 332.787 159.32C331.993 157.506 330.664 156.101 328.843 155.054C325.147 152.93 319.45 152.298 312.388 152.91Z" fill="#000"/>
</svg>
