<svg width="345" height="345" viewBox="0 0 345 345" fill="none" xmlns="http://www.w3.org/2000/svg">
<path d="M231.3 140.84C231.66 144.08 232.74 147.86 233.82 152.54C237.96 167.48 257.58 238.76 261.36 251C262.44 254.42 264.06 260 265.32 263.24L249.84 267.38C249.48 263.24 248.58 258.56 247.32 254.24C243.54 241.28 224.28 168.74 220.14 155.42C218.88 151.1 217.44 147.5 215.82 144.62L231.3 140.84ZM317.7 165.68C310.14 180.8 291.6 206.18 279.18 218.24L266.58 211.76C277.74 202.22 291.42 185.48 297.54 174.86C289.62 176.3 205.38 193.22 192.6 195.92L189 182.24C194.04 181.7 198.54 181.16 203.94 180.08C212.94 178.64 291.42 163.88 301.68 161.54C304.02 161 306.72 160.1 308.52 159.2L317.7 165.68Z" fill="#f00"/>
<path d="M72.3801 123.74C71.4801 119.24 70.4001 115.28 69.1401 111.5L85.1601 108.8C85.5201 112.04 86.2401 117.26 86.9601 121.22C88.0401 129.14 107.84 227.96 110.36 239.84C111.62 244.88 113.06 251 114.86 256.22L98.3001 259.28C97.4001 253.16 96.8601 247.58 95.6001 242.36C93.8001 231.02 74.5401 133.1 72.3801 123.74ZM21.6201 149.84C26.1201 149.48 30.9801 149.12 36.7401 148.58C52.9401 146.78 115.04 136.88 132.14 133.46C137.36 132.56 142.04 131.48 145.1 130.58L147.98 145.7C145.28 145.88 139.88 146.78 135.02 147.5C116.48 150.38 55.1001 160.1 39.2601 162.8C34.4001 163.7 30.0801 164.6 24.8601 165.86L21.6201 149.84ZM21.0801 201.68C25.4001 201.5 32.2401 200.78 36.9201 200.06C56.1801 197.54 123.14 186.56 144.74 182.6C151.58 181.34 156.8 180.08 160.58 179L163.64 194.12C159.86 194.48 154.1 195.56 147.44 196.64C123.5 200.24 58.5201 210.86 40.3401 214.1C33.3201 215.36 28.2801 216.44 24.3201 217.52L21.0801 201.68Z" fill="#f00"/>
<path d="M17.1211 134.978V125.158H16.98L14 127.25V125.191L17.1294 123H19.2627V134.978H17.1211Z" fill="#000"/>
<path d="M22.4902 175.802C22.4902 174.684 22.8776 173.771 23.6523 173.062C24.4326 172.354 25.437 172 26.6655 172C27.8498 172 28.8237 172.324 29.5874 172.971C30.3566 173.619 30.7412 174.443 30.7412 175.445C30.7412 176.087 30.5475 176.723 30.1602 177.354C29.7728 177.979 29.07 178.796 28.0518 179.803L25.5449 182.318V182.459H30.9238V184.277H22.6064V182.791L26.5991 178.707C27.4181 177.877 27.9632 177.254 28.2344 176.839C28.5055 176.419 28.6411 175.998 28.6411 175.578C28.6411 175.052 28.4474 174.618 28.0601 174.274C27.6782 173.931 27.1912 173.76 26.5991 173.76C25.9738 173.76 25.4674 173.948 25.0801 174.324C24.6927 174.701 24.499 175.193 24.499 175.802V175.835H22.4902V175.802Z" fill="#000"/>
<path d="M102.663 95.9644V94.3042H104.124C104.732 94.3042 105.228 94.1382 105.609 93.8062C105.991 93.4686 106.182 93.0314 106.182 92.4946C106.182 91.9634 105.994 91.54 105.618 91.2246C105.247 90.9036 104.749 90.7432 104.124 90.7432C103.504 90.7432 103 90.9064 102.613 91.2329C102.231 91.5594 102.021 92.0049 101.982 92.5693H99.9814C100.037 91.4681 100.441 90.5993 101.193 89.9629C101.946 89.321 102.945 89 104.19 89C105.352 89 106.318 89.3044 107.087 89.9131C107.862 90.5163 108.249 91.2772 108.249 92.1958C108.249 92.8986 108.053 93.499 107.66 93.9971C107.272 94.4951 106.747 94.8133 106.083 94.9517V95.0928C106.902 95.1868 107.546 95.494 108.017 96.0142C108.493 96.5343 108.73 97.1929 108.73 97.9897C108.73 99.019 108.299 99.874 107.436 100.555C106.578 101.235 105.499 101.576 104.198 101.576C102.909 101.576 101.857 101.246 101.044 100.588C100.236 99.9294 99.8044 99.0522 99.749 97.9565H101.799C101.844 98.5099 102.084 98.9526 102.521 99.2847C102.959 99.6112 103.523 99.7744 104.215 99.7744C104.901 99.7744 105.46 99.5973 105.892 99.2432C106.329 98.8835 106.547 98.4214 106.547 97.8569C106.547 97.2703 106.334 96.8083 105.908 96.4707C105.482 96.1331 104.901 95.9644 104.165 95.9644H102.663Z" fill="#000"/>
<path fill-rule="evenodd" clip-rule="evenodd" d="M62.697 127.38L70.0178 132.615C70.4671 132.936 70.5708 133.561 70.2496 134.01L65.0146 141.331C64.6934 141.78 64.0688 141.884 63.6195 141.563C63.1703 141.241 63.0665 140.617 63.3878 140.168L67.2185 134.811L13.3707 143.756L13.0429 141.783L66.8907 132.838L61.5336 129.007C61.0844 128.686 60.9806 128.061 61.3019 127.612C61.6231 127.163 62.2477 127.059 62.697 127.38Z" fill="#000"/>
<path fill-rule="evenodd" clip-rule="evenodd" d="M71.697 178.228L79.0178 183.463C79.4671 183.784 79.5708 184.409 79.2496 184.858L74.0146 192.179C73.6934 192.628 73.0688 192.732 72.6195 192.411C72.1703 192.09 72.0665 191.465 72.3878 191.016L76.2185 185.659L22.3707 194.604L22.0429 192.631L75.8907 183.686L70.5336 179.855C70.0844 179.534 69.9806 178.909 70.3019 178.46C70.6231 178.011 71.2477 177.907 71.697 178.228Z" fill="#000"/>
<path fill-rule="evenodd" clip-rule="evenodd" d="M106.523 126.018L101.517 133.497C101.21 133.956 100.588 134.079 100.13 133.772L92.6501 128.766C92.1911 128.459 92.0681 127.838 92.3753 127.379C92.6824 126.92 93.3035 126.797 93.7625 127.104L99.2356 130.767L92.2428 95.4712L94.2046 95.0825L101.197 130.379L104.861 124.906C105.168 124.447 105.789 124.324 106.248 124.631C106.707 124.938 106.83 125.559 106.523 126.018Z" fill="#000"/>
<path d="M186.121 166.978V157.158H185.98L183 159.25V157.191L186.129 155H188.263V166.978H186.121Z" fill="#000"/>
<path d="M243 118.802C243 117.684 243.387 116.771 244.162 116.062C244.942 115.354 245.947 115 247.175 115C248.36 115 249.333 115.324 250.097 115.971C250.866 116.619 251.251 117.443 251.251 118.445C251.251 119.087 251.057 119.723 250.67 120.354C250.283 120.979 249.58 121.796 248.562 122.803L246.055 125.318V125.459H251.434V127.277H243.116V125.791L247.109 121.707C247.928 120.877 248.473 120.254 248.744 119.839C249.015 119.419 249.151 118.998 249.151 118.578C249.151 118.052 248.957 117.618 248.57 117.274C248.188 116.931 247.701 116.76 247.109 116.76C246.484 116.76 245.977 116.948 245.59 117.324C245.202 117.701 245.009 118.193 245.009 118.802V118.835H243V118.802Z" fill="#000"/>
<path fill-rule="evenodd" clip-rule="evenodd" d="M211.264 159.217L218.797 164.141C219.26 164.443 219.389 165.063 219.087 165.525L214.163 173.059C213.861 173.521 213.241 173.651 212.779 173.349C212.317 173.047 212.187 172.427 212.489 171.965L216.092 166.452L184.41 172.957L184 171L215.682 164.495L210.17 160.891C209.707 160.589 209.578 159.969 209.88 159.507C210.182 159.045 210.802 158.915 211.264 159.217Z" fill="#000"/>
<path fill-rule="evenodd" clip-rule="evenodd" d="M254.104 158.726L249.604 166.521C249.328 166.999 248.716 167.163 248.238 166.887L240.444 162.387C239.965 162.111 239.801 161.499 240.078 161.021C240.354 160.542 240.965 160.379 241.444 160.655L247.147 163.948L235.148 119.165L237.079 118.647L249.079 163.43L252.372 157.726C252.648 157.248 253.26 157.084 253.738 157.36C254.216 157.637 254.38 158.248 254.104 158.726Z" fill="#000"/>
<path fill-rule="evenodd" clip-rule="evenodd" d="M306.11 152.91C299.087 153.519 290.878 155.343 282.291 157.956L281.709 156.043C290.372 153.407 298.726 151.543 305.937 150.918C313.11 150.296 319.319 150.882 323.561 153.32C325.708 154.554 327.356 156.267 328.341 158.518C329.322 160.759 329.614 163.459 329.186 166.626C328.388 172.533 325.061 180.235 318.654 190.062L325.144 188.8C325.686 188.695 326.211 189.049 326.316 189.591C326.422 190.133 326.068 190.658 325.526 190.764L316.691 192.481C316.149 192.587 315.624 192.233 315.519 191.691L313.801 182.856C313.695 182.314 314.049 181.789 314.591 181.684C315.134 181.578 315.659 181.932 315.764 182.474L317.016 188.912C323.336 179.208 326.466 171.822 327.204 166.358C327.597 163.455 327.307 161.143 326.509 159.32C325.715 157.506 324.386 156.101 322.564 155.054C318.868 152.93 313.172 152.298 306.11 152.91Z" fill="#000"/>
</svg>
