<svg width="345" height="345" viewBox="0 0 345 345" fill="none" xmlns="http://www.w3.org/2000/svg">
<path d="M231.3 140.84C231.66 144.08 232.74 147.86 233.82 152.54C237.96 167.48 257.58 238.76 261.36 251C262.44 254.42 264.06 260 265.32 263.24L249.84 267.38C249.48 263.24 248.58 258.56 247.32 254.24C243.54 241.28 224.28 168.74 220.14 155.42C218.88 151.1 217.44 147.5 215.82 144.62L231.3 140.84ZM317.7 165.68C310.14 180.8 291.6 206.18 279.18 218.24L266.58 211.76C277.74 202.22 291.42 185.48 297.54 174.86C289.62 176.3 205.38 193.22 192.6 195.92L189 182.24C194.04 181.7 198.54 181.16 203.94 180.08C212.94 178.64 291.42 163.88 301.68 161.54C304.02 161 306.72 160.1 308.52 159.2L317.7 165.68Z" fill="#f00"/>
<path d="M59.24 112.58C58.7 116.9 58.34 122.12 58.34 127.16C58.34 136.88 58.34 209.24 58.34 222.2C58.34 231.56 62.12 233.9 70.94 235.52C76.52 236.6 85.88 237.14 94.7 237.14C113.78 237.14 141.32 235.16 156.26 231.2V247.76C140.6 250.1 113.6 251.36 93.98 251.36C83.36 251.36 72.56 251 65.18 249.74C51.32 247.22 43.58 240.92 43.58 226.16C43.58 208.88 43.58 136.88 43.58 127.16C43.58 122.3 43.22 116.18 42.5 112.58H59.24ZM51.68 169.46C73.28 164.78 108.02 154.16 128.72 145.16C134.3 142.82 139.52 140.3 144.56 137.06L151.04 151.46C145.82 153.62 139.34 156.5 133.94 158.48C111.62 167.66 74 178.82 51.68 184.4V169.46Z" fill="#f00"/>
<path d="M73.8857 142.275V132.455H73.7446L70.7646 134.547V132.488L73.894 130.297H76.0273V142.275H73.8857Z" fill="#000"/>
<path d="M16 115.802C16 114.684 16.3874 113.771 17.1621 113.062C17.9424 112.354 18.9468 112 20.1753 112C21.3595 112 22.3335 112.324 23.0972 112.971C23.8664 113.619 24.251 114.443 24.251 115.445C24.251 116.087 24.0573 116.723 23.6699 117.354C23.2826 117.979 22.5798 118.796 21.5615 119.803L19.0547 122.318V122.459H24.4336V124.277H16.1162V122.791L20.1089 118.707C20.9279 117.877 21.473 117.254 21.7441 116.839C22.0153 116.419 22.1509 115.998 22.1509 115.578C22.1509 115.052 21.9572 114.618 21.5698 114.274C21.188 113.931 20.701 113.76 20.1089 113.76C19.4836 113.76 18.9772 113.948 18.5898 114.324C18.2025 114.701 18.0088 115.193 18.0088 115.802V115.835H16V115.802Z" fill="#000"/>
<path fill-rule="evenodd" clip-rule="evenodd" d="M138.766 120.5L146.89 124.372C147.389 124.61 147.6 125.207 147.363 125.705L143.49 133.829C143.253 134.328 142.656 134.54 142.157 134.302C141.659 134.064 141.447 133.468 141.685 132.969L144.519 127.024L67.7941 154.217L67.126 152.332L143.85 125.139L137.905 122.305C137.407 122.068 137.195 121.471 137.433 120.972C137.671 120.474 138.267 120.262 138.766 120.5Z" fill="#000"/>
<path fill-rule="evenodd" clip-rule="evenodd" d="M39.7882 162.62L33.4242 168.984C33.0337 169.374 32.4005 169.374 32.01 168.984L25.646 162.62C25.2555 162.229 25.2555 161.596 25.646 161.206C26.0365 160.815 26.6697 160.815 27.0602 161.206L31.7171 165.863L31.7171 112.277L33.7171 112.277L33.7171 165.863L38.3739 161.206C38.7645 160.815 39.3976 160.815 39.7882 161.206C40.1787 161.596 40.1787 162.229 39.7882 162.62Z" fill="#000"/>
<path d="M186.121 166.978V157.158H185.98L183 159.25V157.191L186.129 155H188.263V166.978H186.121Z" fill="#000"/>
<path d="M243 118.802C243 117.684 243.387 116.771 244.162 116.062C244.942 115.354 245.947 115 247.175 115C248.36 115 249.333 115.324 250.097 115.971C250.866 116.619 251.251 117.443 251.251 118.445C251.251 119.087 251.057 119.723 250.67 120.354C250.283 120.979 249.58 121.796 248.562 122.803L246.055 125.318V125.459H251.434V127.277H243.116V125.791L247.109 121.707C247.928 120.877 248.473 120.254 248.744 119.839C249.015 119.419 249.151 118.998 249.151 118.578C249.151 118.052 248.957 117.618 248.57 117.274C248.188 116.931 247.701 116.76 247.109 116.76C246.484 116.76 245.977 116.948 245.59 117.324C245.202 117.701 245.009 118.193 245.009 118.802V118.835H243V118.802Z" fill="#000"/>
<path fill-rule="evenodd" clip-rule="evenodd" d="M211.264 159.217L218.797 164.141C219.26 164.443 219.389 165.063 219.087 165.525L214.163 173.059C213.861 173.521 213.241 173.651 212.779 173.349C212.317 173.047 212.187 172.427 212.489 171.965L216.092 166.452L184.41 172.957L184 171L215.682 164.495L210.17 160.891C209.707 160.589 209.578 159.969 209.88 159.507C210.182 159.045 210.802 158.915 211.264 159.217Z" fill="#000"/>
<path fill-rule="evenodd" clip-rule="evenodd" d="M254.104 158.726L249.604 166.521C249.328 166.999 248.716 167.163 248.238 166.887L240.444 162.387C239.965 162.111 239.801 161.499 240.078 161.021C240.354 160.542 240.965 160.379 241.444 160.655L247.147 163.948L235.148 119.165L237.079 118.647L249.079 163.43L252.372 157.726C252.648 157.248 253.26 157.084 253.738 157.36C254.216 157.637 254.38 158.248 254.104 158.726Z" fill="#000"/>
<path fill-rule="evenodd" clip-rule="evenodd" d="M306.11 152.911C299.087 153.52 290.878 155.344 282.291 157.957L281.709 156.044C290.372 153.407 298.726 151.543 305.937 150.918C313.11 150.296 319.319 150.883 323.561 153.321C325.708 154.555 327.356 156.267 328.341 158.518C329.322 160.759 329.614 163.459 329.186 166.626C328.388 172.534 325.061 180.235 318.654 190.063L325.144 188.801C325.686 188.695 326.211 189.049 326.316 189.592C326.422 190.134 326.068 190.659 325.526 190.764L316.691 192.482C316.149 192.587 315.624 192.233 315.519 191.691L313.801 182.857C313.695 182.314 314.049 181.79 314.591 181.684C315.134 181.579 315.659 181.933 315.764 182.475L317.016 188.913C323.336 179.208 326.466 171.823 327.204 166.359C327.597 163.455 327.307 161.144 326.509 159.32C325.715 157.507 324.386 156.102 322.564 155.055C318.868 152.93 313.172 152.298 306.11 152.911Z" fill="#000"/>
</svg>
