<svg width="345" height="345" viewBox="0 0 345 345" fill="none" xmlns="http://www.w3.org/2000/svg">
<path d="M201.96 152.36C205.38 152.72 215.64 152.9 220.5 152.9C230.58 152.9 275.4 152.9 289.98 152.9C294.12 152.9 298.62 152.72 301.14 152.72C300.96 154.7 300.96 158.48 300.96 161.9C300.96 168.2 300.96 236.24 300.96 251.54C300.96 254.42 301.14 258.56 301.14 261.26H286.92C287.1 259.1 287.1 254.78 287.1 251C287.1 232.1 287.1 171.26 287.1 165.86C281.16 165.86 230.4 165.86 220.5 165.86C215.64 165.86 205.38 166.22 201.96 166.22V152.36ZM205.92 195.02C209.52 195.38 216 195.74 222.12 195.74C231.3 195.74 288.9 195.74 294.12 195.74V208.7C288.9 208.7 231.3 208.7 222.12 208.7C216 208.7 209.52 208.7 205.92 209.06V195.02ZM199.98 239.84C202.86 240.2 208.44 240.56 214.74 240.56C225 240.56 286.38 240.56 294.3 240.56V253.88C285.3 253.88 225 253.88 214.74 253.88C209.16 253.88 202.86 254.24 199.98 254.24V239.84Z" fill="#f00"/>
<path d="M56.0004 112.76C66.6204 118.7 87.3204 132.56 95.2404 138.32L86.7804 150.56C78.1404 143.9 58.5204 130.94 48.0804 125L56.0004 112.76ZM29.0004 241.46C48.8004 238.04 71.1204 230.84 89.4804 220.58C119.36 203.48 143.12 179.9 157.52 154.52L166.34 169.46C150.68 193.58 125.84 216.8 97.0404 233.72C78.8604 244.34 54.0204 252.62 37.4604 256.04L29.0004 241.46ZM29.0004 153.26C39.6204 159.02 60.6804 171.98 68.4204 177.56L60.1404 190.16C51.3204 183.68 31.8804 171.26 20.9004 165.5L29.0004 153.26Z" fill="#f00"/>
<path d="M78.499 105.978V96.1582H78.3579L75.3779 98.25V96.1914L78.5073 94H80.6406V105.978H78.499Z" fill="#000"/>
<path d="M52.1353 275.554V273.894H53.5962C54.2049 273.894 54.7002 273.728 55.082 273.396C55.4639 273.059 55.6548 272.622 55.6548 272.085C55.6548 271.553 55.4666 271.13 55.0903 270.815C54.7196 270.494 54.2215 270.333 53.5962 270.333C52.9764 270.333 52.4728 270.497 52.0854 270.823C51.7036 271.149 51.4933 271.595 51.4546 272.159H49.4541C49.5094 271.058 49.9134 270.189 50.666 269.553C51.4186 268.911 52.4175 268.59 53.6626 268.59C54.8247 268.59 55.7904 268.894 56.5596 269.503C57.3343 270.106 57.7217 270.867 57.7217 271.786C57.7217 272.489 57.5252 273.089 57.1323 273.587C56.745 274.085 56.2192 274.403 55.5552 274.542V274.683C56.3742 274.777 57.0189 275.084 57.4893 275.604C57.9652 276.124 58.2031 276.783 58.2031 277.58C58.2031 278.609 57.7715 279.464 56.9082 280.145C56.0505 280.825 54.9714 281.166 53.6709 281.166C52.3815 281.166 51.3301 280.837 50.5166 280.178C49.7087 279.519 49.277 278.642 49.2217 277.547H51.272C51.3162 278.1 51.557 278.543 51.9941 278.875C52.4313 279.201 52.9958 279.365 53.6875 279.365C54.3737 279.365 54.9326 279.187 55.3643 278.833C55.8014 278.474 56.02 278.011 56.02 277.447C56.02 276.86 55.807 276.398 55.3809 276.061C54.9548 275.723 54.3737 275.554 53.6377 275.554H52.1353Z" fill="#000"/>
<path d="M42.1475 135.802C42.1475 134.684 42.5348 133.771 43.3096 133.062C44.0898 132.354 45.0942 132 46.3228 132C47.507 132 48.481 132.324 49.2446 132.971C50.0138 133.619 50.3984 134.443 50.3984 135.445C50.3984 136.087 50.2048 136.723 49.8174 137.354C49.43 137.979 48.7272 138.796 47.709 139.803L45.2021 142.318V142.459H50.5811V144.277H42.2637V142.791L46.2563 138.707C47.0754 137.877 47.6204 137.254 47.8916 136.839C48.1628 136.419 48.2983 135.998 48.2983 135.578C48.2983 135.052 48.1047 134.618 47.7173 134.274C47.3354 133.931 46.8485 133.76 46.2563 133.76C45.631 133.76 45.1247 133.948 44.7373 134.324C44.3499 134.701 44.1562 135.193 44.1562 135.802V135.835H42.1475V135.802Z" fill="#000"/>
<path fill-rule="evenodd" clip-rule="evenodd" d="M98.363 119.316L100.441 128.073C100.568 128.61 100.236 129.149 99.6986 129.277L90.9417 131.354C90.4044 131.482 89.8654 131.15 89.7379 130.612C89.6104 130.075 89.9427 129.536 90.48 129.408L96.8879 127.888L62.3394 106.59L63.3889 104.888L97.9374 126.186L96.4171 119.778C96.2896 119.24 96.6218 118.701 97.1592 118.574C97.6966 118.446 98.2355 118.779 98.363 119.316Z" fill="#000"/>
<path fill-rule="evenodd" clip-rule="evenodd" d="M69.363 157.854L71.4408 166.611C71.5683 167.148 71.236 167.687 70.6986 167.815L61.9417 169.892C61.4044 170.02 60.8654 169.688 60.7379 169.15C60.6104 168.613 60.9427 168.074 61.48 167.947L67.8879 166.426L33.3394 145.128L34.3889 143.426L68.9374 164.724L67.4171 158.316C67.2896 157.778 67.6218 157.239 68.1592 157.112C68.6966 156.984 69.2355 157.317 69.363 157.854Z" fill="#000"/>
<path fill-rule="evenodd" clip-rule="evenodd" d="M124.792 225.872C125.342 225.925 125.745 226.414 125.691 226.963L124.825 235.921C124.771 236.471 124.283 236.874 123.733 236.82C123.183 236.767 122.781 236.279 122.834 235.729L123.47 229.15C98.3542 249.257 71.7722 258.972 42.3922 264.848L42 262.886C71.1518 257.056 97.3917 247.451 122.173 227.627L115.642 226.995C115.092 226.942 114.689 226.453 114.743 225.904C114.796 225.354 115.285 224.952 115.834 225.005L124.792 225.872Z" fill="#000"/>
<path d="M245.121 137.978V128.158H244.98L242 130.25V128.191L245.129 126H247.263V137.978H245.121Z" fill="#000"/>
<path d="M209.283 171.802C209.283 170.684 209.671 169.771 210.445 169.062C211.226 168.354 212.23 168 213.458 168C214.643 168 215.617 168.324 216.38 168.971C217.15 169.619 217.534 170.443 217.534 171.445C217.534 172.087 217.34 172.723 216.953 173.354C216.566 173.979 215.863 174.796 214.845 175.803L212.338 178.318V178.459H217.717V180.277H209.399V178.791L213.392 174.707C214.211 173.877 214.756 173.254 215.027 172.839C215.299 172.419 215.434 171.998 215.434 171.578C215.434 171.052 215.24 170.618 214.853 170.274C214.471 169.931 213.984 169.76 213.392 169.76C212.767 169.76 212.26 169.948 211.873 170.324C211.486 170.701 211.292 171.193 211.292 171.802V171.835H209.283V171.802Z" fill="#000"/>
<path d="M206.439 220.964V219.304H207.9C208.509 219.304 209.004 219.138 209.386 218.806C209.768 218.469 209.958 218.031 209.958 217.495C209.958 216.963 209.77 216.54 209.394 216.225C209.023 215.904 208.525 215.743 207.9 215.743C207.28 215.743 206.777 215.906 206.389 216.233C206.007 216.559 205.797 217.005 205.758 217.569H203.758C203.813 216.468 204.217 215.599 204.97 214.963C205.722 214.321 206.721 214 207.966 214C209.128 214 210.094 214.304 210.863 214.913C211.638 215.516 212.025 216.277 212.025 217.196C212.025 217.899 211.829 218.499 211.436 218.997C211.049 219.495 210.523 219.813 209.859 219.952V220.093C210.678 220.187 211.323 220.494 211.793 221.014C212.269 221.534 212.507 222.193 212.507 222.99C212.507 224.019 212.075 224.874 211.212 225.555C210.354 226.235 209.275 226.576 207.975 226.576C206.685 226.576 205.634 226.246 204.82 225.588C204.012 224.929 203.581 224.052 203.525 222.957H205.576C205.62 223.51 205.861 223.953 206.298 224.285C206.735 224.611 207.299 224.774 207.991 224.774C208.677 224.774 209.236 224.597 209.668 224.243C210.105 223.883 210.324 223.421 210.324 222.857C210.324 222.27 210.111 221.808 209.685 221.471C209.258 221.133 208.677 220.964 207.941 220.964H206.439Z" fill="#000"/>
<path fill-rule="evenodd" clip-rule="evenodd" d="M310.34 144H240V142H312.34V218.586L316.997 213.929C317.387 213.538 318.02 213.538 318.411 213.929C318.801 214.319 318.801 214.953 318.411 215.343L312.047 221.707C311.656 222.098 311.023 222.098 310.633 221.707L304.269 215.343C303.878 214.953 303.878 214.319 304.269 213.929C304.659 213.538 305.292 213.538 305.683 213.929L310.34 218.586V144Z" fill="#000"/>
<path fill-rule="evenodd" clip-rule="evenodd" d="M257.343 180.206L263.707 186.57C264.098 186.96 264.098 187.594 263.707 187.984L257.343 194.348C256.953 194.739 256.319 194.739 255.929 194.348C255.538 193.958 255.538 193.324 255.929 192.934L260.586 188.277L207 188.277L207 186.277L260.586 186.277L255.929 181.62C255.538 181.23 255.538 180.596 255.929 180.206C256.319 179.815 256.953 179.815 257.343 180.206Z" fill="#000"/>
<path fill-rule="evenodd" clip-rule="evenodd" d="M252.343 224.206L258.707 230.57C259.098 230.96 259.098 231.594 258.707 231.984L252.343 238.348C251.953 238.739 251.319 238.739 250.929 238.348C250.538 237.958 250.538 237.324 250.929 236.934L255.586 232.277L202 232.277L202 230.277L255.586 230.277L250.929 225.62C250.538 225.23 250.538 224.596 250.929 224.206C251.319 223.815 251.953 223.815 252.343 224.206Z" fill="#000"/>
</svg>
