<svg width="345" height="345" viewBox="0 0 345 345" fill="none" xmlns="http://www.w3.org/2000/svg">
<path d="M298.437 165.5C297.897 167.12 297.357 169.46 297.357 171.08C295.737 184.58 289.257 227.78 287.097 240.38H271.977C273.957 230.66 280.617 186.56 281.157 175.04C269.997 175.04 228.957 175.04 224.097 175.04C218.877 175.04 214.017 175.22 209.517 175.58V160.46C213.837 161 219.417 161.36 223.917 161.36C230.757 161.36 268.557 161.36 278.637 161.36C281.517 161.36 286.017 161 287.457 160.1L298.437 165.5ZM192.597 234.62C196.917 235.16 202.137 235.52 207.537 235.52C217.257 235.52 296.277 235.52 305.817 235.52C309.777 235.52 316.257 235.16 320.037 234.8V249.38C316.617 249.2 310.137 249.2 306.177 249.2C296.097 249.2 216.537 249.2 207.537 249.2C202.137 249.2 197.997 249.38 192.597 249.56V234.62Z" fill="#f00"/>
<path d="M127.923 116.72C132.423 123.38 140.523 136.16 144.663 144.8L134.403 149.48C129.903 139.94 123.783 129.14 117.843 121.04L127.923 116.72ZM151.323 108.08C156.183 114.38 164.283 127.34 168.603 135.62L158.343 140.3C153.663 130.94 147.363 120.5 141.423 112.58L151.323 108.08ZM50.8832 114.02C61.5032 119.96 82.2032 133.82 90.1232 139.58L81.4832 151.82C73.0232 145.34 53.4032 132.2 42.7832 126.26L50.8832 114.02ZM23.8832 242.72C43.6832 239.3 66.0032 232.28 84.3632 221.84C114.243 204.74 137.823 181.34 152.403 155.96L161.223 170.72C145.563 194.84 120.723 218.24 91.9232 234.98C73.7432 245.6 48.9032 254.06 32.3432 257.48L23.8832 242.72ZM23.8832 154.52C34.5032 160.28 55.5632 173.24 63.3032 178.82L55.0232 191.42C46.2032 185.12 26.7632 172.52 15.7832 166.94L23.8832 154.52Z" fill="#f00"/>
<path d="M71.5986 106.978V97.1582H71.4575L68.4775 99.25V97.1914L71.6069 95H73.7402V106.978H71.5986Z" fill="#000"/>
<path d="M45.2349 276.554V274.894H46.6958C47.3045 274.894 47.7998 274.728 48.1816 274.396C48.5635 274.058 48.7544 273.621 48.7544 273.084C48.7544 272.553 48.5662 272.13 48.1899 271.814C47.8192 271.493 47.3211 271.333 46.6958 271.333C46.076 271.333 45.5724 271.496 45.1851 271.823C44.8032 272.149 44.5929 272.595 44.5542 273.159H42.5537C42.609 272.058 43.013 271.189 43.7656 270.553C44.5182 269.911 45.5171 269.59 46.7622 269.59C47.9243 269.59 48.89 269.894 49.6592 270.503C50.4339 271.106 50.8213 271.867 50.8213 272.786C50.8213 273.488 50.6248 274.089 50.2319 274.587C49.8446 275.085 49.3188 275.403 48.6548 275.542V275.683C49.4738 275.777 50.1185 276.084 50.5889 276.604C51.0648 277.124 51.3027 277.783 51.3027 278.58C51.3027 279.609 50.8711 280.464 50.0078 281.145C49.1501 281.825 48.071 282.166 46.7705 282.166C45.4811 282.166 44.4297 281.836 43.6162 281.178C42.8083 280.519 42.3766 279.642 42.3213 278.546H44.3716C44.4159 279.1 44.6566 279.542 45.0938 279.875C45.5309 280.201 46.0954 280.364 46.7871 280.364C47.4733 280.364 48.0322 280.187 48.4639 279.833C48.901 279.473 49.1196 279.011 49.1196 278.447C49.1196 277.86 48.9066 277.398 48.4805 277.061C48.0544 276.723 47.4733 276.554 46.7373 276.554H45.2349Z" fill="#000"/>
<path d="M35.2471 136.802C35.2471 135.684 35.6344 134.771 36.4092 134.062C37.1895 133.354 38.1938 133 39.4224 133C40.6066 133 41.5806 133.324 42.3442 133.971C43.1134 134.619 43.498 135.443 43.498 136.445C43.498 137.087 43.3044 137.723 42.917 138.354C42.5296 138.979 41.8268 139.796 40.8086 140.803L38.3018 143.318V143.459H43.6807V145.277H35.3633V143.791L39.356 139.707C40.175 138.877 40.7201 138.254 40.9912 137.839C41.2624 137.419 41.3979 136.998 41.3979 136.578C41.3979 136.052 41.2043 135.618 40.8169 135.274C40.4351 134.931 39.9481 134.76 39.356 134.76C38.7306 134.76 38.2243 134.948 37.8369 135.324C37.4495 135.701 37.2559 136.193 37.2559 136.802V136.835H35.2471V136.802Z" fill="#000"/>
<path fill-rule="evenodd" clip-rule="evenodd" d="M91.4627 120.316L93.5404 129.073C93.6679 129.61 93.3356 130.149 92.7982 130.277L84.0413 132.354C83.504 132.482 82.965 132.15 82.8375 131.612C82.71 131.075 83.0423 130.536 83.5796 130.408L89.9875 128.888L55.439 107.59L56.4885 105.888L91.037 127.186L89.5167 120.778C89.3892 120.24 89.7214 119.701 90.2588 119.574C90.7962 119.446 91.3352 119.779 91.4627 120.316Z" fill="#000"/>
<path fill-rule="evenodd" clip-rule="evenodd" d="M62.4627 158.854L64.5404 167.611C64.6679 168.148 64.3356 168.687 63.7982 168.815L55.0413 170.892C54.504 171.02 53.965 170.688 53.8375 170.15C53.71 169.613 54.0423 169.074 54.5796 168.947L60.9875 167.426L26.439 146.128L27.4885 144.426L62.037 165.724L60.5167 159.316C60.3892 158.778 60.7214 158.239 61.2588 158.112C61.7962 157.984 62.3352 158.317 62.4627 158.854Z" fill="#000"/>
<path fill-rule="evenodd" clip-rule="evenodd" d="M117.892 226.872C118.442 226.925 118.844 227.414 118.791 227.963L117.924 236.921C117.871 237.471 117.382 237.874 116.832 237.82C116.283 237.767 115.88 237.279 115.933 236.729L116.57 230.15C91.4538 250.257 64.8718 259.972 35.4918 265.848L35.0996 263.886C64.2514 258.056 90.4913 248.451 115.272 228.627L108.741 227.995C108.192 227.942 107.789 227.453 107.842 226.904C107.895 226.354 108.384 225.952 108.934 226.005L117.892 226.872Z" fill="#000"/>
<path d="M128.852 111.978V109.745H123V107.836C123.974 106.043 125.601 103.431 127.881 100H130.902V107.936H132.521V109.745H130.902V111.978H128.852ZM124.984 107.861V107.985H128.885V101.743H128.769C127.474 103.658 126.212 105.697 124.984 107.861Z" fill="#000"/>
<path d="M152.831 106.277C151.597 106.277 150.584 105.939 149.793 105.264C149.002 104.589 148.581 103.72 148.531 102.658H150.54C150.606 103.206 150.853 103.648 151.279 103.986C151.705 104.323 152.228 104.492 152.848 104.492C153.55 104.492 154.118 104.276 154.549 103.845C154.986 103.408 155.205 102.832 155.205 102.118C155.205 101.404 154.986 100.826 154.549 100.383C154.118 99.9351 153.556 99.7109 152.864 99.7109C152.377 99.7109 151.943 99.8133 151.561 100.018C151.185 100.223 150.886 100.513 150.665 100.89H148.722L149.345 94H156.558V95.8096H151.005L150.714 99.1714H150.855C151.409 98.4243 152.253 98.0508 153.387 98.0508C154.522 98.0508 155.451 98.4271 156.176 99.1797C156.907 99.9323 157.272 100.895 157.272 102.068C157.272 103.319 156.862 104.334 156.043 105.115C155.23 105.889 154.159 106.277 152.831 106.277Z" fill="#000"/>
<path d="M257.481 144.978V135.158H257.34L254.36 137.25V135.191L257.49 133H259.623V144.978H257.481Z" fill="#000"/>
<path d="M204.644 208.802C204.644 207.684 205.031 206.771 205.806 206.062C206.586 205.354 207.59 205 208.819 205C210.003 205 210.977 205.324 211.741 205.971C212.51 206.619 212.895 207.443 212.895 208.445C212.895 209.087 212.701 209.723 212.313 210.354C211.926 210.979 211.223 211.796 210.205 212.803L207.698 215.318V215.459H213.077V217.277H204.76V215.791L208.752 211.707C209.571 210.877 210.117 210.254 210.388 209.839C210.659 209.419 210.794 208.998 210.794 208.578C210.794 208.052 210.601 207.618 210.213 207.274C209.832 206.931 209.345 206.76 208.752 206.76C208.127 206.76 207.621 206.948 207.233 207.324C206.846 207.701 206.652 208.193 206.652 208.802V208.835H204.644V208.802Z" fill="#000"/>
<path fill-rule="evenodd" clip-rule="evenodd" d="M249.703 218.206L256.067 224.57C256.458 224.96 256.458 225.594 256.067 225.984L249.704 232.348C249.313 232.739 248.68 232.739 248.289 232.348C247.899 231.958 247.899 231.324 248.289 230.934L252.946 226.277L199.36 226.277L199.36 224.277L252.946 224.277L248.289 219.62C247.899 219.23 247.899 218.596 248.289 218.206C248.68 217.815 249.313 217.815 249.703 218.206Z" fill="#000"/>
<path fill-rule="evenodd" clip-rule="evenodd" d="M316.721 151.5H251.36V149.5H318.999L311.664 205.735L316.884 201.72C317.322 201.383 317.95 201.465 318.287 201.903C318.623 202.341 318.541 202.968 318.104 203.305L310.97 208.793C310.532 209.129 309.904 209.047 309.568 208.61L304.08 201.476C303.744 201.038 303.825 200.41 304.263 200.074C304.701 199.737 305.329 199.819 305.666 200.257L309.681 205.477L316.721 151.5Z" fill="#000"/>
</svg>
