<svg width="346" height="345" viewBox="0 0 346 345" fill="none" xmlns="http://www.w3.org/2000/svg">
<path d="M242.085 140.84C242.445 144.08 243.525 147.86 244.605 152.54C248.745 167.48 268.365 238.76 272.145 251C273.225 254.42 274.845 260 276.105 263.24L260.625 267.38C260.265 263.24 259.365 258.56 258.105 254.24C254.325 241.28 235.065 168.74 230.925 155.42C229.665 151.1 228.225 147.5 226.605 144.62L242.085 140.84ZM328.485 165.68C320.925 180.8 302.385 206.18 289.965 218.24L277.365 211.76C288.525 202.22 302.205 185.48 308.325 174.86C300.405 176.3 216.165 193.22 203.385 195.92L199.785 182.24C204.825 181.7 209.325 181.16 214.725 180.08C223.725 178.64 302.205 163.88 312.465 161.54C314.805 161 317.505 160.1 319.305 159.2L328.485 165.68Z" fill="#f00"/>
<path d="M124.255 110.06C128.755 116.54 135.235 127.34 138.835 134.72L129.115 139.04C125.515 131.84 119.575 121.04 114.715 114.2L124.255 110.06ZM143.875 102.86C148.735 109.52 155.575 120.68 158.995 127.34L149.275 131.66C145.495 123.92 139.555 113.66 134.515 107L143.875 102.86ZM43.4353 116C42.8953 120.32 42.3553 125.54 42.3553 130.58C42.3553 140.3 42.3553 212.66 42.3553 225.62C42.3553 234.98 46.3153 237.32 54.9553 238.94C60.7153 240.02 69.8953 240.38 78.7153 240.38C97.7953 240.38 125.335 238.58 140.455 234.62V251.18C124.795 253.52 97.7953 254.78 78.1753 254.78C67.3753 254.78 56.7553 254.42 49.1953 253.16C35.5153 250.64 27.7753 244.34 27.7753 229.58C27.7753 212.3 27.7753 140.3 27.7753 130.58C27.7753 126.26 27.4153 120.32 26.6953 116H43.4353ZM35.6953 172.88C57.4753 168.2 90.0553 158.3 110.935 149.48C116.335 146.96 121.555 144.44 126.775 141.2L133.075 155.6C127.855 157.76 121.375 160.64 115.975 162.8C93.6553 171.8 58.0153 182.24 35.8753 187.82L35.6953 172.88Z" fill="#f00"/>
<path d="M57.8857 145.275V135.455H57.7446L54.7646 137.547V135.488L57.894 133.297H60.0273V145.275H57.8857Z" fill="#000"/>
<path d="M0 118.802C0 117.684 0.38737 116.771 1.16211 116.062C1.94238 115.354 2.94678 115 4.17529 115C5.35954 115 6.3335 115.324 7.09717 115.971C7.86637 116.619 8.25098 117.443 8.25098 118.445C8.25098 119.087 8.05729 119.723 7.66992 120.354C7.28255 120.979 6.57975 121.796 5.56152 122.803L3.05469 125.318V125.459H8.43359V127.277H0.116211V125.791L4.10889 121.707C4.9279 120.877 5.47298 120.254 5.74414 119.839C6.0153 119.419 6.15088 118.998 6.15088 118.578C6.15088 118.052 5.95719 117.618 5.56982 117.274C5.18799 116.931 4.70101 116.76 4.10889 116.76C3.48356 116.76 2.97721 116.948 2.58984 117.324C2.20247 117.701 2.00879 118.193 2.00879 118.802V118.835H0V118.802Z" fill="#000"/>
<path fill-rule="evenodd" clip-rule="evenodd" d="M113.555 129.5L121.679 133.372C122.178 133.61 122.389 134.207 122.151 134.705L118.279 142.83C118.041 143.328 117.445 143.54 116.946 143.302C116.448 143.065 116.236 142.468 116.474 141.969L119.307 136.024L48.7883 161L48.1202 159.115L118.639 134.139L112.694 131.306C112.196 131.068 111.984 130.471 112.222 129.973C112.459 129.474 113.056 129.262 113.555 129.5Z" fill="#000"/>
<path fill-rule="evenodd" clip-rule="evenodd" d="M23.7882 165.62L17.4242 171.984C17.0337 172.375 16.4005 172.375 16.01 171.984L9.64602 165.62C9.2555 165.23 9.2555 164.597 9.64602 164.206C10.0365 163.816 10.6697 163.816 11.0602 164.206L15.7171 168.863L15.7171 115.277L17.7171 115.277L17.7171 168.863L22.3739 164.206C22.7645 163.816 23.3976 163.816 23.7882 164.206C24.1787 164.597 24.1787 165.23 23.7882 165.62Z" fill="#000"/>
<path d="M123.914 101.964V100.304H125.375C125.983 100.304 126.479 100.138 126.86 99.8062C127.242 99.4686 127.433 99.0314 127.433 98.4946C127.433 97.9634 127.245 97.54 126.869 97.2246C126.498 96.9036 126 96.7432 125.375 96.7432C124.755 96.7432 124.251 96.9064 123.864 97.2329C123.482 97.5594 123.272 98.0049 123.233 98.5693H121.232C121.288 97.4681 121.692 96.5993 122.444 95.9629C123.197 95.321 124.196 95 125.441 95C126.603 95 127.569 95.3044 128.338 95.9131C129.113 96.5163 129.5 97.2772 129.5 98.1958C129.5 98.8986 129.304 99.499 128.911 99.9971C128.523 100.495 127.998 100.813 127.333 100.952V101.093C128.153 101.187 128.797 101.494 129.268 102.014C129.743 102.534 129.981 103.193 129.981 103.99C129.981 105.019 129.55 105.874 128.687 106.555C127.829 107.235 126.75 107.576 125.449 107.576C124.16 107.576 123.108 107.246 122.295 106.588C121.487 105.929 121.055 105.052 121 103.957H123.05C123.095 104.51 123.335 104.953 123.772 105.285C124.21 105.611 124.774 105.774 125.466 105.774C126.152 105.774 126.711 105.597 127.143 105.243C127.58 104.883 127.798 104.421 127.798 103.857C127.798 103.27 127.585 102.808 127.159 102.471C126.733 102.133 126.152 101.964 125.416 101.964H123.914Z" fill="#000"/>
<path d="M147.852 99.978V97.7451H142V95.8359C142.974 94.043 144.601 91.431 146.881 88H149.902V95.9355H151.521V97.7451H149.902V99.978H147.852ZM143.984 95.8608V95.9854H147.885V89.7432H147.769C146.474 91.6579 145.212 93.6971 143.984 95.8608Z" fill="#000"/>
<path d="M196.399 166.978V157.158H196.258L193.278 159.25V157.191L196.408 155H198.541V166.978H196.399Z" fill="#000"/>
<path d="M253.278 118.802C253.278 117.684 253.666 116.771 254.44 116.062C255.221 115.354 256.225 115 257.454 115C258.638 115 259.612 115.324 260.375 115.971C261.145 116.619 261.529 117.443 261.529 118.445C261.529 119.087 261.336 119.723 260.948 120.354C260.561 120.979 259.858 121.796 258.84 122.803L256.333 125.318V125.459H261.712V127.277H253.395V125.791L257.387 121.707C258.206 120.877 258.751 120.254 259.022 119.839C259.294 119.419 259.429 118.998 259.429 118.578C259.429 118.052 259.236 117.618 258.848 117.274C258.466 116.931 257.979 116.76 257.387 116.76C256.762 116.76 256.256 116.948 255.868 117.324C255.481 117.701 255.287 118.193 255.287 118.802V118.835H253.278V118.802Z" fill="#000"/>
<path fill-rule="evenodd" clip-rule="evenodd" d="M221.542 159.217L229.076 164.141C229.538 164.443 229.668 165.063 229.366 165.525L224.442 173.059C224.139 173.521 223.52 173.651 223.057 173.349C222.595 173.047 222.465 172.427 222.767 171.965L226.371 166.452L194.688 172.957L194.278 171L225.961 164.495L220.448 160.891C219.986 160.589 219.856 159.969 220.158 159.507C220.46 159.045 221.08 158.915 221.542 159.217Z" fill="#000"/>
<path fill-rule="evenodd" clip-rule="evenodd" d="M264.382 158.726L259.882 166.521C259.606 166.999 258.994 167.163 258.516 166.887L250.722 162.387C250.244 162.111 250.08 161.499 250.356 161.021C250.632 160.542 251.244 160.379 251.722 160.655L257.425 163.948L245.426 119.165L247.358 118.647L259.357 163.43L262.65 157.726C262.926 157.248 263.538 157.084 264.016 157.36C264.494 157.637 264.658 158.248 264.382 158.726Z" fill="#000"/>
<path fill-rule="evenodd" clip-rule="evenodd" d="M316.388 152.91C309.365 153.519 301.157 155.343 292.57 157.956L291.987 156.043C300.65 153.407 309.004 151.543 316.216 150.918C323.388 150.296 329.598 150.882 333.839 153.32C335.986 154.554 337.634 156.267 338.619 158.518C339.6 160.759 339.893 163.459 339.465 166.626C338.666 172.533 335.339 180.235 328.932 190.062L335.422 188.8C335.964 188.695 336.489 189.049 336.595 189.591C336.7 190.133 336.346 190.658 335.804 190.764L326.969 192.481C326.427 192.587 325.902 192.233 325.797 191.691L324.079 182.856C323.974 182.314 324.328 181.789 324.87 181.684C325.412 181.578 325.937 181.932 326.042 182.474L327.294 188.912C333.614 179.208 336.744 171.822 337.483 166.358C337.875 163.455 337.585 161.143 336.787 159.32C335.993 157.506 334.664 156.101 332.843 155.054C329.147 152.93 323.45 152.298 316.388 152.91Z" fill="#000"/>
</svg>
