<svg width="345" height="345" viewBox="0 0 345 345" fill="none" xmlns="http://www.w3.org/2000/svg">
<path d="M231.3 140.84C231.66 144.08 232.74 147.86 233.82 152.54C237.96 167.48 257.58 238.76 261.36 251C262.44 254.42 264.06 260 265.32 263.24L249.84 267.38C249.48 263.24 248.58 258.56 247.32 254.24C243.54 241.28 224.28 168.74 220.14 155.42C218.88 151.1 217.44 147.5 215.82 144.62L231.3 140.84ZM317.7 165.68C310.14 180.8 291.6 206.18 279.18 218.24L266.58 211.76C277.74 202.22 291.42 185.48 297.54 174.86C289.62 176.3 205.38 193.22 192.6 195.92L189 182.24C194.04 181.7 198.54 181.16 203.94 180.08C212.94 178.64 291.42 163.88 301.68 161.54C304.02 161 306.72 160.1 308.52 159.2L317.7 165.68Z" fill="#f00"/>
<path d="M34.0396 133.82C39.7996 134.36 45.7396 134.72 51.6796 134.72C63.0196 134.72 119.72 134.72 128.9 134.72C135.38 134.72 141.68 134.36 146.54 133.82V150.02C141.68 149.84 134.84 149.66 128.9 149.66C119.9 149.66 60.4996 149.66 51.6796 149.66C45.5596 149.66 39.4396 149.84 34.0396 150.02V133.82ZM18.5596 223.1C24.6796 223.46 30.7996 224 37.4596 224C47.7196 224 134.84 224 145.28 224C150.5 224 156.44 223.64 161.66 223.1V240.38C156.26 239.84 149.96 239.48 145.28 239.48C134.84 239.48 47.7196 239.48 37.4596 239.48C30.7996 239.48 24.4996 239.84 18.5596 240.38V223.1Z" fill="#f00"/>
<path d="M23.2832 199.802C23.2832 198.684 23.6706 197.771 24.4453 197.062C25.2256 196.354 26.23 196 27.4585 196C28.6427 196 29.6167 196.324 30.3804 196.971C31.1496 197.619 31.5342 198.443 31.5342 199.445C31.5342 200.087 31.3405 200.723 30.9531 201.354C30.5658 201.979 29.863 202.796 28.8447 203.803L26.3379 206.318V206.459H31.7168V208.277H23.3994V206.791L27.3921 202.707C28.2111 201.877 28.7562 201.254 29.0273 200.839C29.2985 200.419 29.4341 199.998 29.4341 199.578C29.4341 199.052 29.2404 198.618 28.853 198.274C28.4712 197.931 27.9842 197.76 27.3921 197.76C26.7668 197.76 26.2604 197.948 25.873 198.324C25.4857 198.701 25.292 199.193 25.292 199.802V199.835H23.2832V199.802Z" fill="#000"/>
<path fill-rule="evenodd" clip-rule="evenodd" d="M95.3431 206.206L101.707 212.57C102.098 212.96 102.098 213.594 101.707 213.984L95.3431 220.348C94.9526 220.739 94.3195 220.739 93.9289 220.348C93.5384 219.958 93.5384 219.324 93.9289 218.934L98.5858 214.277L21 214.277L21 212.277L98.5858 212.277L93.9289 207.62C93.5384 207.23 93.5384 206.596 93.9289 206.206C94.3195 205.815 94.9526 205.815 95.3431 206.206Z" fill="#000"/>
<path fill-rule="evenodd" clip-rule="evenodd" d="M87.3431 115.929L93.7071 122.293C94.0976 122.683 94.0976 123.316 93.7071 123.707L87.3431 130.071C86.9526 130.461 86.3195 130.461 85.9289 130.071C85.5384 129.68 85.5384 129.047 85.9289 128.657L90.5858 124L37 124L37 122L90.5858 122L85.9289 117.343C85.5384 116.952 85.5384 116.319 85.9289 115.929C86.3195 115.538 86.9526 115.538 87.3431 115.929Z" fill="#000"/>
<path d="M40.1211 118.978V109.158H39.98L37 111.25V109.191L40.1294 107H42.2627V118.978H40.1211Z" fill="#000"/>
<path d="M186.121 166.978V157.158H185.98L183 159.25V157.191L186.129 155H188.263V166.978H186.121Z" fill="#000"/>
<path d="M243 118.802C243 117.684 243.387 116.771 244.162 116.062C244.942 115.354 245.947 115 247.175 115C248.36 115 249.333 115.324 250.097 115.971C250.866 116.619 251.251 117.443 251.251 118.445C251.251 119.087 251.057 119.723 250.67 120.354C250.283 120.979 249.58 121.796 248.562 122.803L246.055 125.318V125.459H251.434V127.277H243.116V125.791L247.109 121.707C247.928 120.877 248.473 120.254 248.744 119.839C249.015 119.419 249.151 118.998 249.151 118.578C249.151 118.052 248.957 117.618 248.57 117.274C248.188 116.931 247.701 116.76 247.109 116.76C246.484 116.76 245.977 116.948 245.59 117.324C245.202 117.701 245.009 118.193 245.009 118.802V118.835H243V118.802Z" fill="#000"/>
<path fill-rule="evenodd" clip-rule="evenodd" d="M211.264 159.217L218.797 164.141C219.26 164.443 219.389 165.063 219.087 165.525L214.163 173.059C213.861 173.521 213.241 173.651 212.779 173.349C212.317 173.047 212.187 172.427 212.489 171.965L216.092 166.452L184.41 172.957L184 171L215.682 164.495L210.17 160.891C209.707 160.589 209.578 159.969 209.88 159.507C210.182 159.045 210.802 158.915 211.264 159.217Z" fill="#000"/>
<path fill-rule="evenodd" clip-rule="evenodd" d="M254.104 158.726L249.604 166.521C249.328 166.999 248.716 167.163 248.238 166.887L240.444 162.387C239.965 162.111 239.801 161.499 240.078 161.021C240.354 160.542 240.965 160.379 241.444 160.655L247.147 163.948L235.148 119.165L237.079 118.647L249.079 163.43L252.372 157.726C252.648 157.248 253.26 157.084 253.738 157.36C254.216 157.637 254.38 158.248 254.104 158.726Z" fill="#000"/>
<path fill-rule="evenodd" clip-rule="evenodd" d="M306.11 152.911C299.087 153.52 290.878 155.344 282.291 157.957L281.709 156.044C290.372 153.407 298.726 151.543 305.937 150.918C313.11 150.296 319.319 150.883 323.561 153.321C325.708 154.555 327.356 156.267 328.341 158.518C329.322 160.759 329.614 163.459 329.186 166.626C328.388 172.534 325.061 180.235 318.654 190.063L325.144 188.801C325.686 188.695 326.211 189.049 326.316 189.592C326.422 190.134 326.068 190.659 325.526 190.764L316.691 192.482C316.149 192.587 315.624 192.233 315.519 191.691L313.801 182.857C313.695 182.314 314.049 181.79 314.591 181.684C315.134 181.579 315.659 181.933 315.764 182.475L317.016 188.913C323.336 179.208 326.466 171.823 327.204 166.359C327.597 163.455 327.307 161.144 326.509 159.32C325.715 157.507 324.386 156.102 322.564 155.055C318.868 152.93 313.172 152.298 306.11 152.911Z" fill="#000"/>
</svg>
