<svg width="345" height="345" viewBox="0 0 345 345" fill="none" xmlns="http://www.w3.org/2000/svg">
<path d="M294.481 165.5C293.941 167.12 293.401 169.46 293.401 171.08C291.781 184.58 285.301 227.78 283.141 240.38H268.021C270.001 230.66 276.661 186.56 277.201 175.04C266.041 175.04 225.001 175.04 220.141 175.04C214.921 175.04 210.061 175.22 205.561 175.58V160.46C209.881 161 215.461 161.36 219.961 161.36C226.801 161.36 264.601 161.36 274.681 161.36C277.561 161.36 282.061 161 283.501 160.1L294.481 165.5ZM188.641 234.62C192.961 235.16 198.181 235.52 203.581 235.52C213.301 235.52 292.321 235.52 301.861 235.52C305.821 235.52 312.301 235.16 316.081 234.8V249.38C312.661 249.2 306.181 249.2 302.221 249.2C292.141 249.2 212.581 249.2 203.581 249.2C198.181 249.2 194.041 249.38 188.641 249.56V234.62Z" fill="#f00"/>
<path d="M56.0004 112.76C66.6204 118.7 87.3204 132.56 95.2404 138.32L86.7804 150.56C78.1404 143.9 58.5204 130.94 48.0804 125L56.0004 112.76ZM29.0004 241.46C48.8004 238.04 71.1204 230.84 89.4804 220.58C119.36 203.48 143.12 179.9 157.52 154.52L166.34 169.46C150.68 193.58 125.84 216.8 97.0404 233.72C78.8604 244.34 54.0204 252.62 37.4604 256.04L29.0004 241.46ZM29.0004 153.26C39.6204 159.02 60.6804 171.98 68.4204 177.56L60.1404 190.16C51.3204 183.68 31.8804 171.26 20.9004 165.5L29.0004 153.26Z" fill="#f00"/>
<path d="M78.499 105.978V96.1582H78.3579L75.3779 98.25V96.1914L78.5073 94H80.6406V105.978H78.499Z" fill="#000"/>
<path d="M52.1353 275.554V273.894H53.5962C54.2049 273.894 54.7002 273.728 55.082 273.396C55.4639 273.059 55.6548 272.622 55.6548 272.085C55.6548 271.553 55.4666 271.13 55.0903 270.815C54.7196 270.494 54.2215 270.333 53.5962 270.333C52.9764 270.333 52.4728 270.497 52.0854 270.823C51.7036 271.149 51.4933 271.595 51.4546 272.159H49.4541C49.5094 271.058 49.9134 270.189 50.666 269.553C51.4186 268.911 52.4175 268.59 53.6626 268.59C54.8247 268.59 55.7904 268.894 56.5596 269.503C57.3343 270.106 57.7217 270.867 57.7217 271.786C57.7217 272.489 57.5252 273.089 57.1323 273.587C56.745 274.085 56.2192 274.403 55.5552 274.542V274.683C56.3742 274.777 57.0189 275.084 57.4893 275.604C57.9652 276.124 58.2031 276.783 58.2031 277.58C58.2031 278.609 57.7715 279.464 56.9082 280.145C56.0505 280.825 54.9714 281.166 53.6709 281.166C52.3815 281.166 51.3301 280.837 50.5166 280.178C49.7087 279.519 49.277 278.642 49.2217 277.547H51.272C51.3162 278.1 51.557 278.543 51.9941 278.875C52.4313 279.201 52.9958 279.365 53.6875 279.365C54.3737 279.365 54.9326 279.187 55.3643 278.833C55.8014 278.474 56.02 278.011 56.02 277.447C56.02 276.86 55.807 276.398 55.3809 276.061C54.9548 275.723 54.3737 275.554 53.6377 275.554H52.1353Z" fill="#000"/>
<path d="M42.1475 135.802C42.1475 134.684 42.5348 133.771 43.3096 133.062C44.0898 132.354 45.0942 132 46.3228 132C47.507 132 48.481 132.324 49.2446 132.971C50.0138 133.619 50.3984 134.443 50.3984 135.445C50.3984 136.087 50.2048 136.723 49.8174 137.354C49.43 137.979 48.7272 138.796 47.709 139.803L45.2021 142.318V142.459H50.5811V144.277H42.2637V142.791L46.2563 138.707C47.0754 137.877 47.6204 137.254 47.8916 136.839C48.1628 136.419 48.2983 135.998 48.2983 135.578C48.2983 135.052 48.1047 134.618 47.7173 134.274C47.3354 133.931 46.8485 133.76 46.2563 133.76C45.631 133.76 45.1247 133.948 44.7373 134.324C44.3499 134.701 44.1562 135.193 44.1562 135.802V135.835H42.1475V135.802Z" fill="#000"/>
<path fill-rule="evenodd" clip-rule="evenodd" d="M98.363 119.316L100.441 128.073C100.568 128.61 100.236 129.149 99.6986 129.277L90.9417 131.354C90.4044 131.482 89.8654 131.15 89.7379 130.612C89.6104 130.075 89.9427 129.536 90.48 129.408L96.8879 127.888L62.3394 106.59L63.3889 104.888L97.9374 126.186L96.4171 119.778C96.2896 119.24 96.6218 118.701 97.1592 118.574C97.6966 118.446 98.2355 118.779 98.363 119.316Z" fill="#000"/>
<path fill-rule="evenodd" clip-rule="evenodd" d="M69.363 157.854L71.4408 166.611C71.5683 167.148 71.236 167.687 70.6986 167.815L61.9417 169.892C61.4044 170.02 60.8654 169.688 60.7379 169.15C60.6104 168.613 60.9427 168.074 61.48 167.947L67.8879 166.426L33.3394 145.128L34.3889 143.426L68.9374 164.724L67.4171 158.316C67.2896 157.778 67.6218 157.239 68.1592 157.112C68.6966 156.984 69.2355 157.317 69.363 157.854Z" fill="#000"/>
<path fill-rule="evenodd" clip-rule="evenodd" d="M124.792 225.872C125.342 225.925 125.745 226.414 125.691 226.963L124.825 235.921C124.771 236.471 124.283 236.874 123.733 236.82C123.183 236.767 122.781 236.279 122.834 235.729L123.47 229.15C98.3542 249.257 71.7722 258.972 42.3922 264.848L42 262.886C71.1518 257.056 97.3917 247.451 122.173 227.627L115.642 226.995C115.092 226.942 114.689 226.453 114.743 225.904C114.796 225.354 115.285 224.952 115.834 225.005L124.792 225.872Z" fill="#000"/>
<path d="M247.121 144.978V135.158H246.98L244 137.25V135.191L247.129 133H249.263V144.978H247.121Z" fill="#000"/>
<path d="M194.283 208.802C194.283 207.684 194.671 206.771 195.445 206.062C196.226 205.354 197.23 205 198.458 205C199.643 205 200.617 205.324 201.38 205.971C202.15 206.619 202.534 207.443 202.534 208.445C202.534 209.087 202.34 209.723 201.953 210.354C201.566 210.979 200.863 211.796 199.845 212.803L197.338 215.318V215.459H202.717V217.277H194.399V215.791L198.392 211.707C199.211 210.877 199.756 210.254 200.027 209.839C200.299 209.419 200.434 208.998 200.434 208.578C200.434 208.052 200.24 207.618 199.853 207.274C199.471 206.931 198.984 206.76 198.392 206.76C197.767 206.76 197.26 206.948 196.873 207.324C196.486 207.701 196.292 208.193 196.292 208.802V208.835H194.283V208.802Z" fill="#000"/>
<path fill-rule="evenodd" clip-rule="evenodd" d="M239.343 218.206L245.707 224.57C246.098 224.96 246.098 225.594 245.707 225.984L239.343 232.348C238.953 232.739 238.319 232.739 237.929 232.348C237.538 231.958 237.538 231.324 237.929 230.934L242.586 226.277L189 226.277L189 224.277L242.586 224.277L237.929 219.62C237.538 219.23 237.538 218.596 237.929 218.206C238.319 217.815 238.953 217.815 239.343 218.206Z" fill="#000"/>
<path fill-rule="evenodd" clip-rule="evenodd" d="M306.361 151.5H241V149.5H308.639L301.304 205.735L306.524 201.72C306.962 201.383 307.59 201.465 307.926 201.903C308.263 202.341 308.181 202.968 307.743 203.305L300.61 208.793C300.172 209.129 299.544 209.047 299.207 208.61L293.72 201.476C293.383 201.038 293.465 200.41 293.903 200.074C294.341 199.737 294.968 199.819 295.305 200.257L299.321 205.477L306.361 151.5Z" fill="#000"/>
</svg>
