<svg width="345" height="345" viewBox="0 0 345 345" fill="none" xmlns="http://www.w3.org/2000/svg">
<path d="M152.64 95.16C151.32 100 149.56 108.36 148.68 112.54C145.6 128.38 140.98 153.46 134.82 175.24C126.9 206.48 112.16 252.02 100.5 276L81.1401 269.62C94.5601 246.96 109.96 202.08 118.1 171.06C123.6 150.82 129.32 123.32 130.86 111.66C131.74 105.5 132.18 98.02 131.74 93.4L152.64 95.16ZM104.02 131.9C128.22 131.9 160.56 128.16 187.84 121.12V138.5C160.56 144.66 127.34 148.18 103.58 148.18C93.9001 148.18 86.2001 147.96 78.0601 147.3L77.6201 130.36C87.9601 131.68 95.8801 131.9 104.02 131.9ZM173.54 162.26C184.98 161.16 199.5 160.28 213.8 160.28C226.56 160.28 239.98 160.72 251.86 162.04L251.42 178.76C239.98 177.44 227.22 176.34 214.24 176.34C200.38 176.34 186.96 177 173.54 178.54V162.26ZM177.94 215.72C176.18 222.76 174.86 229.8 174.86 235.52C174.86 245.86 180.8 255.98 212.04 255.98C226.34 255.98 241.52 254.22 255.16 251.58L254.5 269.4C242.62 270.94 227.88 272.48 211.82 272.48C177.28 272.48 158.36 261.7 158.36 239.92C158.36 231.56 159.68 223.42 161.66 213.96L177.94 215.72ZM227.88 101.98C233.6 109.68 241.52 123.32 246.14 132.12L234.26 137.4C229.86 128.6 222.16 115.18 216.22 106.82L227.88 101.98ZM252.3 92.96C258.24 101.1 266.6 114.74 270.78 123.1L258.9 128.38C254.28 118.7 246.8 106.38 240.64 98.02L252.3 92.96Z" fill="#2A2A2A"/>
<path d="M237.087 98V95.7671H231.235V93.8579C232.209 92.0649 233.836 89.453 236.116 86.022H239.138V93.9575H240.756V95.7671H239.138V98H237.087ZM233.219 93.8828V94.0073H237.121V87.7651H237.004C235.709 89.6799 234.448 91.7191 233.219 93.8828Z" fill="#9A7861"/>
<path d="M264.066 92.2988C262.832 92.2988 261.82 91.9613 261.028 91.2861C260.237 90.611 259.816 89.7422 259.767 88.6797H261.775C261.842 89.2275 262.088 89.6702 262.514 90.0078C262.94 90.3454 263.463 90.5142 264.083 90.5142C264.786 90.5142 265.353 90.2983 265.785 89.8667C266.222 89.4295 266.44 88.854 266.44 88.1401C266.44 87.4263 266.222 86.848 265.785 86.4053C265.353 85.957 264.791 85.7329 264.1 85.7329C263.613 85.7329 263.178 85.8353 262.796 86.04C262.42 86.2448 262.121 86.5353 261.9 86.9116H259.958L260.58 80.022H267.793V81.8315H262.24L261.95 85.1934H262.091C262.644 84.4463 263.488 84.0728 264.623 84.0728C265.757 84.0728 266.687 84.4491 267.412 85.2017C268.142 85.9543 268.507 86.9172 268.507 88.0903C268.507 89.341 268.098 90.3564 267.279 91.1367C266.465 91.9115 265.395 92.2988 264.066 92.2988Z" fill="#9A7861"/>
<path d="M76.4258 118V108.18H76.2847L73.3047 110.272V108.214L76.4341 106.022H78.5674V118H76.4258Z" fill="#9A7861"/>
<path d="M171.283 87.5251C171.283 86.4073 171.671 85.4942 172.445 84.7859C173.226 84.0776 174.23 83.7234 175.458 83.7234C176.643 83.7234 177.617 84.0471 178.38 84.6946C179.15 85.342 179.534 86.1666 179.534 87.1682C179.534 87.8101 179.34 88.4465 178.953 89.0774C178.566 89.7027 177.863 90.519 176.845 91.5261L174.338 94.0413V94.1824H179.717V96.0002H171.399V94.5144L175.392 90.4304C176.211 89.6003 176.756 88.9778 177.027 88.5627C177.299 88.1422 177.434 87.7216 177.434 87.301C177.434 86.7753 177.24 86.3409 176.853 85.9978C176.471 85.6547 175.984 85.4832 175.392 85.4832C174.767 85.4832 174.26 85.6713 173.873 86.0476C173.486 86.4239 173.292 86.9164 173.292 87.5251V87.5583H171.283V87.5251Z" fill="#9A7861"/>
<path d="M207.439 138.688V137.028H208.9C209.509 137.028 210.004 136.862 210.386 136.53C210.768 136.192 210.958 135.755 210.958 135.218C210.958 134.687 210.77 134.263 210.394 133.948C210.023 133.627 209.525 133.467 208.9 133.467C208.28 133.467 207.777 133.63 207.389 133.956C207.007 134.283 206.797 134.728 206.758 135.293H204.758C204.813 134.191 205.217 133.323 205.97 132.686C206.722 132.044 207.721 131.723 208.966 131.723C210.128 131.723 211.094 132.028 211.863 132.636C212.638 133.24 213.025 134.001 213.025 134.919C213.025 135.622 212.829 136.222 212.436 136.72C212.049 137.219 211.523 137.537 210.859 137.675V137.816C211.678 137.91 212.323 138.217 212.793 138.738C213.269 139.258 213.507 139.916 213.507 140.713C213.507 141.742 213.075 142.597 212.212 143.278C211.354 143.959 210.275 144.299 208.975 144.299C207.685 144.299 206.634 143.97 205.82 143.311C205.012 142.653 204.581 141.776 204.525 140.68H206.576C206.62 141.233 206.861 141.676 207.298 142.008C207.735 142.335 208.299 142.498 208.991 142.498C209.677 142.498 210.236 142.321 210.668 141.967C211.105 141.607 211.324 141.145 211.324 140.58C211.324 139.994 211.111 139.532 210.685 139.194C210.258 138.857 209.677 138.688 208.941 138.688H207.439Z" fill="#9A7861"/>
<path d="M134.087 247V244.767H128.235V242.858C129.209 241.065 130.836 238.453 133.116 235.022H136.138V242.958H137.756V244.767H136.138V247H134.087ZM130.219 242.883V243.008H134.121V236.765H134.004C132.709 238.68 131.448 240.719 130.219 242.883Z" fill="#9A7861"/>
<path fill-rule="evenodd" clip-rule="evenodd" d="M113.343 115.929L119.707 122.293C120.098 122.684 120.098 123.317 119.707 123.707L113.343 130.071C112.953 130.462 112.319 130.462 111.929 130.071C111.538 129.681 111.538 129.048 111.929 128.657L116.586 124L73 124L73 122L116.586 122L111.929 117.343C111.538 116.953 111.538 116.32 111.929 115.929C112.319 115.539 112.953 115.539 113.343 115.929Z" fill="#9A7861"/>
<path fill-rule="evenodd" clip-rule="evenodd" d="M243.343 143.929L249.707 150.293C250.098 150.684 250.098 151.317 249.707 151.707L243.343 158.071C242.953 158.462 242.319 158.462 241.929 158.071C241.538 157.681 241.538 157.048 241.929 156.657L246.586 152L203 152L203 150L246.586 150L241.929 145.343C241.538 144.953 241.538 144.32 241.929 143.929C242.319 143.539 242.953 143.539 243.343 143.929Z" fill="#9A7861"/>
<path fill-rule="evenodd" clip-rule="evenodd" d="M165.905 117.583L158.581 122.814C158.132 123.135 157.507 123.031 157.186 122.582L151.955 115.258C151.634 114.809 151.738 114.184 152.188 113.863C152.637 113.542 153.261 113.646 153.582 114.095L157.41 119.455L164.014 79.8359L165.986 80.1647L159.383 119.783L164.742 115.955C165.192 115.634 165.816 115.739 166.137 116.188C166.458 116.637 166.354 117.262 165.905 117.583Z" fill="#9A7861"/>
<path fill-rule="evenodd" clip-rule="evenodd" d="M154.875 270.351C143.721 259.778 143 245.234 143 233H145C145 245.266 145.779 258.973 156.25 268.9C166.528 278.642 186.411 284.987 225.003 282.189L219.997 277.931C219.576 277.573 219.525 276.942 219.883 276.521C220.241 276.101 220.872 276.05 221.292 276.407L228.148 282.239C228.569 282.596 228.62 283.227 228.262 283.648L222.431 290.504C222.073 290.924 221.442 290.975 221.021 290.617C220.6 290.26 220.549 289.629 220.907 289.208L225.183 284.181C186.416 286.997 165.787 280.696 154.875 270.351Z" fill="#9A7861"/>
</svg>
