<svg width="345" height="345" viewBox="0 0 345 345" fill="none" xmlns="http://www.w3.org/2000/svg">
<path d="M149.56 134.98C162.1 136.3 173.98 136.96 186.96 136.96C213.36 136.96 240.42 134.98 262.64 130.36V147.3C239.32 151.26 212.48 153.02 186.74 153.02C173.98 153.02 162.54 152.58 149.78 151.7L149.56 134.98ZM226.56 95.5999C225.9 99.9999 225.46 104.62 225.24 108.8C224.8 116.94 224.58 132.56 224.58 145.54C224.58 179.42 227.88 213.74 227.88 236.4C227.88 254.44 219.52 272.04 189.82 272.04C160.34 272.04 144.28 260.16 144.28 240.36C144.28 221.88 160.56 207.36 189.6 207.36C226.56 207.36 252.3 226.06 270.78 242.78L261.32 257.3C238.22 235.74 216 220.78 188.06 220.78C171.56 220.78 160.12 228.04 160.12 238.6C160.12 250.04 170.9 255.98 186.96 255.98C205.44 255.98 210.72 246.74 210.72 232C210.72 216.16 207.86 175.02 207.86 145.98C207.86 130.8 207.64 116.94 207.64 109.24C207.64 105.28 207.42 99.5599 206.76 95.5999H226.56ZM118.1 97.1399C116.78 100.66 115.02 107.92 114.14 111.88C109.74 132.34 103.14 175.9 103.14 200.54C103.14 211.32 103.8 220.56 105.34 231.34C108.86 221.22 114.36 207.8 118.1 198.78L127.12 205.82C121.62 221.22 113.48 243.66 111.28 254.44C110.62 257.52 110.18 261.92 110.4 264.34C110.62 266.54 110.84 269.84 111.06 272.04L95.4401 273.36C91.2601 257.52 87.0801 233.32 87.0801 203.62C87.0801 171.28 94.5601 129.26 97.2001 111.22C98.0801 105.94 98.5201 100.22 98.7401 95.3799L118.1 97.1399Z" fill="#2A2A2A"/>
<path d="M156.283 114.525C156.283 113.407 156.671 112.494 157.445 111.786C158.226 111.077 159.23 110.723 160.458 110.723C161.643 110.723 162.617 111.047 163.38 111.694C164.15 112.342 164.534 113.166 164.534 114.168C164.534 114.81 164.34 115.446 163.953 116.077C163.566 116.702 162.863 117.519 161.845 118.526L159.338 121.041V121.182H164.717V123H156.399V121.514L160.392 117.43C161.211 116.6 161.756 115.978 162.027 115.562C162.299 115.142 162.434 114.721 162.434 114.301C162.434 113.775 162.24 113.341 161.853 112.998C161.471 112.654 160.984 112.483 160.392 112.483C159.767 112.483 159.26 112.671 158.873 113.047C158.486 113.424 158.292 113.916 158.292 114.525V114.558H156.283V114.525Z" fill="#9A7861"/>
<path d="M248.439 95.6875V94.0273H249.9C250.509 94.0273 251.004 93.8613 251.386 93.5293C251.768 93.1917 251.959 92.7546 251.959 92.2178C251.959 91.6865 251.771 91.2632 251.395 90.9478C251.024 90.6268 250.526 90.4663 249.9 90.4663C249.281 90.4663 248.777 90.6296 248.39 90.9561C248.008 91.2826 247.798 91.728 247.759 92.2925H245.758C245.814 91.1912 246.218 90.3224 246.97 89.686C247.723 89.0441 248.722 88.7231 249.967 88.7231C251.129 88.7231 252.095 89.0275 252.864 89.6362C253.639 90.2394 254.026 91.0003 254.026 91.9189C254.026 92.6217 253.829 93.2222 253.437 93.7202C253.049 94.2183 252.523 94.5365 251.859 94.6748V94.8159C252.678 94.91 253.323 95.2171 253.793 95.7373C254.269 96.2575 254.507 96.916 254.507 97.7129C254.507 98.7422 254.076 99.5972 253.212 100.278C252.355 100.958 251.276 101.299 249.975 101.299C248.686 101.299 247.634 100.97 246.821 100.311C246.013 99.6525 245.581 98.7754 245.526 97.6797H247.576C247.62 98.2331 247.861 98.6758 248.298 99.0078C248.736 99.3343 249.3 99.4976 249.992 99.4976C250.678 99.4976 251.237 99.3205 251.668 98.9663C252.106 98.6066 252.324 98.1445 252.324 97.5801C252.324 96.9935 252.111 96.5314 251.685 96.1938C251.259 95.8563 250.678 95.6875 249.942 95.6875H248.439Z" fill="#9A7861"/>
<path d="M69.1211 108.978V99.1582H68.98L66 101.25V99.1914L69.1294 97H71.2627V108.978H69.1211Z" fill="#9A7861"/>
<path fill-rule="evenodd" clip-rule="evenodd" d="M86.1275 168.804L79.3543 174.731C78.9387 175.094 78.3069 175.052 77.9432 174.636L72.0167 167.863C71.653 167.448 71.6951 166.816 72.1108 166.452C72.5264 166.088 73.1582 166.131 73.5218 166.546L77.8586 171.503L82.698 98.9114L84.6936 99.0444L79.8542 171.636L84.8105 167.299C85.2261 166.935 85.8579 166.977 86.2216 167.393C86.5853 167.809 86.5431 168.44 86.1275 168.804Z" fill="#9A7861"/>
<path fill-rule="evenodd" clip-rule="evenodd" d="M192.343 120.929L198.707 127.293C199.098 127.683 199.098 128.317 198.707 128.707L192.343 135.071C191.953 135.462 191.319 135.462 190.929 135.071C190.538 134.68 190.538 134.047 190.929 133.657L195.586 129L152 129L152 127L195.586 127L190.929 122.343C190.538 121.953 190.538 121.319 190.929 120.929C191.319 120.538 191.953 120.538 192.343 120.929Z" fill="#9A7861"/>
<path fill-rule="evenodd" clip-rule="evenodd" d="M273.817 221.369L275.351 230.238C275.446 230.782 275.081 231.299 274.537 231.393L265.668 232.928C265.124 233.022 264.607 232.657 264.512 232.113C264.418 231.569 264.783 231.051 265.327 230.957L271.817 229.834L243.424 209.817L244.576 208.183L272.969 228.2L271.846 221.71C271.752 221.166 272.117 220.649 272.661 220.554C273.205 220.46 273.723 220.825 273.817 221.369Z" fill="#9A7861"/>
<path fill-rule="evenodd" clip-rule="evenodd" d="M245.071 122.343L238.707 128.707C238.316 129.098 237.683 129.098 237.293 128.707L230.929 122.343C230.538 121.953 230.538 121.319 230.929 120.929C231.319 120.538 231.952 120.538 232.343 120.929L237 125.586L237 90L239 90L239 125.586L243.657 120.929C244.047 120.538 244.68 120.538 245.071 120.929C245.461 121.319 245.461 121.953 245.071 122.343Z" fill="#9A7861"/>
<path fill-rule="evenodd" clip-rule="evenodd" d="M189.819 196.427C190.136 196.879 190.026 197.503 189.573 197.819L182.198 202.977C181.745 203.294 181.121 203.184 180.805 202.731C180.488 202.278 180.599 201.655 181.051 201.338L186.411 197.59C174.708 195.842 165.548 196.893 158.426 199.742C150.831 202.781 145.476 207.895 141.794 214.004C134.399 226.271 133.757 242.552 135.488 253.848L133.511 254.151C131.743 242.615 132.35 225.796 140.081 212.971C143.961 206.534 149.638 201.104 157.683 197.886C165.232 194.865 174.8 193.818 186.821 195.63L183.022 190.198C182.706 189.745 182.816 189.122 183.269 188.805C183.721 188.489 184.345 188.599 184.661 189.051L189.819 196.427Z" fill="#9A7861"/>
</svg>
