<svg width="345" height="345" viewBox="0 0 345 345" fill="none" xmlns="http://www.w3.org/2000/svg">
<path d="M136.8 93.6199C135.7 100.88 135.04 108.58 134.6 115.84C133.72 140.7 131.96 192.84 131.96 225.62C131.96 249.82 147.14 258.18 168.04 258.18C208.3 258.18 231.18 235.74 247.02 212.86L259.34 227.82C244.38 248.72 215.78 276.22 167.6 276.22C135.92 276.22 114.14 263.24 114.14 227.16C114.14 194.6 116.34 138.94 116.34 115.84C116.34 107.7 115.68 99.9999 114.36 93.6199H136.8Z" fill="#2A2A2A"/>
<path d="M87.4253 105V95.1802H87.2842L84.3042 97.272V95.2134L87.4336 93.022H89.5669V105H87.4253Z" fill="#9A7861"/>
<path fill-rule="evenodd" clip-rule="evenodd" d="M109.071 170.343L102.707 176.707C102.316 177.098 101.683 177.098 101.293 176.707L94.9287 170.343C94.5382 169.953 94.5382 169.319 94.9287 168.929C95.3193 168.538 95.9524 168.538 96.343 168.929L101 173.586L101 92L103 92L103 173.586L107.657 168.929C108.047 168.538 108.68 168.538 109.071 168.929C109.461 169.319 109.461 169.953 109.071 170.343Z" fill="#9A7861"/>
</svg>
