<svg width="345" height="345" viewBox="0 0 345 345" fill="none" xmlns="http://www.w3.org/2000/svg">
<path d="M178.16 249.38C215.34 243.88 248.78 226.72 248.56 188.88C248.56 171.94 235.14 149.5 205.88 149.5C177.72 149.5 152.42 165.12 131.08 187.34V167.76C157.48 142.9 185.42 133.66 208.52 133.66C239.1 133.66 266.16 155 266.16 189.1C266.38 233.54 234.04 256.64 186.08 265.88L178.16 249.38ZM128.44 143.34C121.4 144.22 97.4199 147.3 81.1399 149.72L79.1599 131.46C83.9999 131.68 88.1799 131.68 93.6799 131.24C105.34 130.58 132.62 127.28 142.96 123.98L149.34 131.46C145.6 137.18 139.66 146.64 135.92 152.8L129.32 182.94C119.2 198.56 98.7399 228.26 84.8799 247.4L73.8799 232.44C87.5199 215.28 117.22 174.8 125.8 160.28L126.68 149.06L128.44 143.34ZM126.24 106.82C126.24 101.76 126.46 96.04 125.36 90.54L146.26 91.2C143.18 105.5 136.36 168.42 136.36 207.14C136.36 227.16 136.36 240.58 137.24 260.16C137.46 263.9 138.12 269.4 138.34 273.58H119.42C119.64 270.5 120.08 264.12 120.08 260.6C120.08 239.26 120.3 228.26 120.52 204.06C120.96 184.7 126.24 114.96 126.24 106.82Z" fill="#2A2A2A"/>
<path d="M165.425 97V87.1802H165.284L162.304 89.272V87.2134L165.434 85.022H167.567V97H165.425Z" fill="#9A7861"/>
<path d="M82.2832 106.525C82.2832 105.407 82.6706 104.494 83.4453 103.786C84.2256 103.077 85.23 102.723 86.4585 102.723C87.6427 102.723 88.6167 103.047 89.3804 103.694C90.1496 104.342 90.5342 105.166 90.5342 106.168C90.5342 106.81 90.3405 107.446 89.9531 108.077C89.5658 108.702 88.863 109.519 87.8447 110.526L85.3379 113.041V113.182H90.7168V115H82.3994V113.514L86.3921 109.43C87.2111 108.6 87.7562 107.978 88.0273 107.562C88.2985 107.142 88.4341 106.721 88.4341 106.301C88.4341 105.775 88.2404 105.341 87.853 104.998C87.4712 104.654 86.9842 104.483 86.3921 104.483C85.7668 104.483 85.2604 104.671 84.873 105.047C84.4857 105.424 84.292 105.916 84.292 106.525V106.558H82.2832V106.525Z" fill="#9A7861"/>
<path fill-rule="evenodd" clip-rule="evenodd" d="M114.343 112.929L120.707 119.293C121.098 119.684 121.098 120.317 120.707 120.707L114.343 127.071C113.953 127.462 113.319 127.462 112.929 127.071C112.538 126.681 112.538 126.048 112.929 125.657L117.586 121L81 121L81 119L117.586 119L112.929 114.343C112.538 113.953 112.538 113.32 112.929 112.929C113.319 112.539 113.953 112.539 114.343 112.929Z" fill="#9A7861"/>
<path fill-rule="evenodd" clip-rule="evenodd" d="M163.071 126.343L156.707 132.707C156.316 133.098 155.683 133.098 155.293 132.707L148.929 126.343C148.538 125.953 148.538 125.319 148.929 124.929C149.319 124.538 149.952 124.538 150.343 124.929L155 129.586L155 86L157 86L157 129.586L161.657 124.929C162.047 124.538 162.68 124.538 163.071 124.929C163.461 125.319 163.461 125.953 163.071 126.343Z" fill="#9A7861"/>
<path fill-rule="evenodd" clip-rule="evenodd" d="M278.506 196.027C278.116 196.418 277.483 196.418 277.092 196.027L270.728 189.663C270.338 189.273 270.338 188.64 270.728 188.249C271.119 187.859 271.752 187.859 272.142 188.249L276.781 192.888C276.516 175.034 273.303 162.483 267.521 153.503C261.497 144.149 252.602 138.545 241 134.908L241.598 133C253.496 136.729 262.851 142.558 269.202 152.421C275.271 161.845 278.521 174.834 278.782 192.923L283.456 188.249C283.847 187.859 284.48 187.859 284.87 188.249C285.261 188.64 285.261 189.273 284.87 189.663L278.506 196.027Z" fill="#9A7861"/>
<path fill-rule="evenodd" clip-rule="evenodd" d="M64.2793 233.589C66.7925 224.631 71.6383 214.847 78.7327 206.359L80.2672 207.642C73.3616 215.904 68.6449 225.432 66.2049 234.13C63.7521 242.873 63.6469 250.6 65.7283 255.349C66.7543 257.69 68.2795 259.245 70.2704 259.932C72.2799 260.625 74.941 260.495 78.3453 259.091C84.8964 256.39 93.8211 249.124 105.191 235.26L98.6634 235.979C98.1144 236.04 97.6204 235.643 97.56 235.095C97.4995 234.546 97.8956 234.052 98.4445 233.991L107.39 233.006C107.939 232.946 108.433 233.342 108.494 233.891L109.479 242.837C109.539 243.386 109.143 243.88 108.594 243.94C108.045 244.001 107.551 243.605 107.491 243.056L106.768 236.491C95.3245 250.452 86.1309 258.044 79.1077 260.94C75.426 262.458 72.2394 262.727 69.6181 261.822C66.9781 260.912 65.0893 258.873 63.8965 256.152C61.5404 250.776 61.7789 242.502 64.2793 233.589Z" fill="#9A7861"/>
</svg>
