<svg width="345" height="345" viewBox="0 0 345 345" fill="none" xmlns="http://www.w3.org/2000/svg">
<path d="M224.58 95.3799C224.14 99.1199 223.7 106.6 223.7 111.44C223.48 125.08 223.48 140.48 223.04 151.7C222.6 168.64 221.94 192.4 219.74 203.84C217.76 213.74 212.7 216.6 202.8 216.6C194.66 216.6 179.48 214.62 173.76 213.52L173.98 198.12C181.68 199.88 190.92 200.98 195.98 200.98C201.48 200.98 203.68 200.1 204.56 195.04C205.88 186.68 206.76 167.54 206.98 151.92C207.2 139.6 207.2 124.2 207.2 112.1C207.2 107.04 206.54 99.3399 205.88 95.3799H224.58ZM137.68 102.42C137.02 107.48 136.8 113.42 136.8 120.24C136.58 144 135.92 204.5 136.36 219.68C137.24 243.44 137.46 251.8 175.52 251.8C199.5 251.8 226.78 249.38 241.08 246.74L240.42 265.22C225.68 266.76 198.84 268.96 176.4 268.96C125.58 268.96 120.74 257.08 119.86 222.1C119.42 203.62 119.64 131.02 119.64 120.9C119.64 114.3 119.42 109.02 118.32 102.42H137.68ZM71.9004 155C78.7204 155 86.8604 154.56 94.7804 153.68C118.54 151.7 202.36 142.9 247.46 140.48C253.18 140.26 259.56 139.82 264.62 139.38V156.76C261.32 156.54 252.96 156.76 247.46 156.76C212.26 157.42 123.82 166.66 95.8804 169.96C89.2804 170.84 79.8204 172.16 73.6604 173.04L71.9004 155Z" fill="#f00"/>
<path d="M69.4258 136V126.18H69.2847L66.3047 128.272V126.213L69.4341 124.022H71.5674V136H69.4258Z" fill="#000"/>
<path d="M246.283 87.5249C246.283 86.4071 246.671 85.494 247.445 84.7856C248.226 84.0773 249.23 83.7231 250.458 83.7231C251.643 83.7231 252.617 84.0469 253.38 84.6943C254.15 85.3418 254.534 86.1663 254.534 87.168C254.534 87.8099 254.34 88.4463 253.953 89.0771C253.566 89.7025 252.863 90.5187 251.845 91.5259L249.338 94.041V94.1821H254.717V96H246.399V94.5142L250.392 90.4302C251.211 89.6001 251.756 88.9775 252.027 88.5625C252.299 88.1419 252.434 87.7214 252.434 87.3008C252.434 86.7751 252.24 86.3407 251.853 85.9976C251.471 85.6545 250.984 85.4829 250.392 85.4829C249.767 85.4829 249.26 85.6711 248.873 86.0474C248.486 86.4237 248.292 86.9162 248.292 87.5249V87.5581H246.283V87.5249Z" fill="#000"/>
<path d="M157.439 101.688V100.027H158.9C159.509 100.027 160.004 99.8613 160.386 99.5293C160.768 99.1917 160.958 98.7546 160.958 98.2178C160.958 97.6865 160.77 97.2632 160.394 96.9478C160.023 96.6268 159.525 96.4663 158.9 96.4663C158.28 96.4663 157.777 96.6296 157.389 96.9561C157.007 97.2826 156.797 97.728 156.758 98.2925H154.758C154.813 97.1912 155.217 96.3224 155.97 95.686C156.722 95.0441 157.721 94.7231 158.966 94.7231C160.128 94.7231 161.094 95.0275 161.863 95.6362C162.638 96.2394 163.025 97.0003 163.025 97.9189C163.025 98.6217 162.829 99.2222 162.436 99.7202C162.049 100.218 161.523 100.536 160.859 100.675V100.816C161.678 100.91 162.323 101.217 162.793 101.737C163.269 102.257 163.507 102.916 163.507 103.713C163.507 104.742 163.075 105.597 162.212 106.278C161.354 106.958 160.275 107.299 158.975 107.299C157.685 107.299 156.634 106.97 155.82 106.311C155.012 105.653 154.581 104.775 154.525 103.68H156.576C156.62 104.233 156.861 104.676 157.298 105.008C157.735 105.334 158.299 105.498 158.991 105.498C159.677 105.498 160.236 105.32 160.668 104.966C161.105 104.607 161.324 104.145 161.324 103.58C161.324 102.993 161.111 102.531 160.685 102.194C160.258 101.856 159.677 101.688 158.941 101.688H157.439Z" fill="#000"/>
<path fill-rule="evenodd" clip-rule="evenodd" d="M106.343 133.929L112.707 140.293C113.098 140.684 113.098 141.317 112.707 141.707L106.343 148.071C105.953 148.462 105.319 148.462 104.929 148.071C104.538 147.681 104.538 147.048 104.929 146.657L109.586 142L66 142L66 140L109.586 140L104.929 135.343C104.538 134.953 104.538 134.32 104.929 133.929C105.319 133.539 105.953 133.539 106.343 133.929Z" fill="#000"/>
<path fill-rule="evenodd" clip-rule="evenodd" d="M244.071 124.343L237.707 130.707C237.317 131.098 236.684 131.098 236.293 130.707L229.929 124.343C229.539 123.953 229.539 123.319 229.929 122.929C230.32 122.538 230.953 122.538 231.343 122.929L236 127.586L236 84L238 84L238 127.586L242.657 122.929C243.048 122.538 243.681 122.538 244.071 122.929C244.462 123.319 244.462 123.953 244.071 124.343Z" fill="#000"/>
<path fill-rule="evenodd" clip-rule="evenodd" d="M155.071 136.343L148.707 142.707C148.317 143.098 147.684 143.098 147.293 142.707L140.929 136.343C140.539 135.953 140.539 135.319 140.929 134.929C141.32 134.538 141.953 134.538 142.343 134.929L147 139.586L147 96L149 96L149 139.586L153.657 134.929C154.048 134.538 154.681 134.538 155.071 134.929C155.462 135.319 155.462 135.953 155.071 136.343Z" fill="#000"/>
</svg>
