<svg width="345" height="345" viewBox="0 0 345 345" fill="none" xmlns="http://www.w3.org/2000/svg">
<path d="M77.8398 150.16C85.9798 148.84 93.8998 146.42 102.26 144C120.74 138.06 164.08 122.22 196.2 122.22C232.5 122.22 261.54 143.34 261.54 180.08C261.54 232.88 209.18 258.18 141.42 262.14L133.5 243.88C190.92 242.34 242.4 224.74 242.4 179.86C242.4 156.76 225.46 138.5 195.76 138.5C159.46 138.5 103.58 162.7 85.9798 169.74L77.8398 150.16Z" fill="#f00"/>
<path d="M82.4258 120V110.18H82.2847L79.3047 112.272V110.213L82.4341 108.022H84.5674V120H82.4258Z" fill="#000"/>
<path fill-rule="evenodd" clip-rule="evenodd" d="M152.704 103.636L160.5 108.134C160.978 108.41 161.142 109.021 160.866 109.5L156.369 117.296C156.093 117.774 155.481 117.938 155.003 117.662C154.524 117.386 154.36 116.774 154.636 116.296L157.927 110.592L78.2591 131.966L77.7409 130.034L157.409 108.66L151.705 105.369C151.226 105.093 151.062 104.481 151.338 104.003C151.614 103.525 152.226 103.36 152.704 103.636Z" fill="#000"/>
</svg>
