<svg width="345" height="345" viewBox="0 0 345 345" fill="none" xmlns="http://www.w3.org/2000/svg">
<path d="M136.801 93.6201C135.701 100.88 135.041 108.58 134.601 115.84C133.721 140.7 131.961 192.84 131.961 225.62C131.961 249.82 147.141 258.18 168.041 258.18C208.301 258.18 231.181 235.74 247.021 212.86L259.341 227.82C244.381 248.72 215.781 276.22 167.601 276.22C135.921 276.22 114.141 263.24 114.141 227.16C114.141 194.6 116.341 138.94 116.341 115.84C116.341 107.7 115.681 100 114.361 93.6201H136.801Z" fill="#f00"/>
<path d="M87.4258 105V95.1802H87.2847L84.3047 97.272V95.2134L87.4341 93.022H89.5674V105H87.4258Z" fill="#000"/>
<path fill-rule="evenodd" clip-rule="evenodd" d="M109.071 170.343L102.707 176.707C102.317 177.098 101.684 177.098 101.293 176.707L94.9292 170.343C94.5387 169.953 94.5387 169.319 94.9292 168.929C95.3197 168.538 95.9529 168.538 96.3434 168.929L101 173.586L101 92L103 92L103 173.586L107.657 168.929C108.048 168.538 108.681 168.538 109.071 168.929C109.462 169.319 109.462 169.953 109.071 170.343Z" fill="#000"/>
</svg>
