<svg width="345" height="345" viewBox="0 0 345 345" fill="none" xmlns="http://www.w3.org/2000/svg">
<path d="M74.0996 204.72C79.5996 200.54 84.2196 196.14 89.9396 190.2C101.82 178.32 120.08 153.24 133.28 137.84C146.04 122.66 157.48 120.46 172 135.42C185.2 148.84 202.14 170.62 216.22 185.8C229.42 200.32 251.42 223.42 271.22 241.02L257.14 257.08C240.42 241.24 220.4 218.8 205.44 201.64C191.14 185.58 174.2 164.24 164.08 153.02C154.62 142.68 150.44 144.44 142.96 153.68C132.62 166.44 114.58 190.64 103.36 204.28C98.9596 210.22 93.8996 216.82 90.3796 221.44L74.0996 204.72Z" fill="#f00"/>
<path d="M81.4248 176V166.18H81.2837L78.3037 168.272V166.213L81.4331 164.022H83.5664V176H81.4248Z" fill="#000"/>
<path fill-rule="evenodd" clip-rule="evenodd" d="M107.95 140.314L116.855 139.01C117.402 138.93 117.909 139.309 117.989 139.855L119.293 148.76C119.373 149.307 118.994 149.814 118.448 149.894C117.901 149.974 117.394 149.596 117.314 149.05L116.36 142.533L82.802 187.597L81.1979 186.403L114.756 141.339L108.24 142.292C107.693 142.372 107.185 141.994 107.105 141.448C107.025 140.901 107.404 140.394 107.95 140.314Z" fill="#000"/>
</svg>
