<svg width="345" height="345" viewBox="0 0 345 345" fill="none" xmlns="http://www.w3.org/2000/svg">
<path d="M111.061 111.66C109.961 116.72 109.301 127.28 109.081 133C108.861 146.64 109.081 166.88 110.621 184.92C114.361 221.66 124.921 246.08 140.761 246.08C151.981 246.08 162.321 223.42 168.041 201.42L181.901 217.04C168.481 254.22 155.281 266.98 140.321 266.98C119.421 266.98 99.6207 246.3 93.4607 189.32C91.4807 170.4 91.0407 143.56 91.0407 130.8C91.0407 125.74 91.0407 116.28 89.7207 111.22L111.061 111.66ZM225.461 117.6C245.261 143.12 261.101 189.98 264.401 227.16L246.581 234.2C242.841 194.6 229.421 149.28 208.521 123.54L225.461 117.6Z" fill="#f00"/>
<path d="M62.4258 126V116.18H62.2847L59.3047 118.272V116.213L62.4341 114.022H64.5674V126H62.4258Z" fill="#000"/>
<path d="M243.283 98.5249C243.283 97.4071 243.671 96.494 244.445 95.7856C245.226 95.0773 246.23 94.7231 247.458 94.7231C248.643 94.7231 249.617 95.0469 250.38 95.6943C251.15 96.3418 251.534 97.1663 251.534 98.168C251.534 98.8099 251.34 99.4463 250.953 100.077C250.566 100.702 249.863 101.519 248.845 102.526L246.338 105.041V105.182H251.717V107H243.399V105.514L247.392 101.43C248.211 100.6 248.756 99.9775 249.027 99.5625C249.299 99.1419 249.434 98.7214 249.434 98.3008C249.434 97.7751 249.24 97.3407 248.853 96.9976C248.471 96.6545 247.984 96.4829 247.392 96.4829C246.767 96.4829 246.26 96.6711 245.873 97.0474C245.486 97.4237 245.292 97.9162 245.292 98.5249V98.5581H243.283V98.5249Z" fill="#000"/>
<path fill-rule="evenodd" clip-rule="evenodd" d="M80.0714 149.343L73.7074 155.707C73.3169 156.098 72.6837 156.098 72.2932 155.707L65.9292 149.343C65.5387 148.953 65.5387 148.319 65.9292 147.929C66.3198 147.538 66.9529 147.538 67.3434 147.929L72.0003 152.586L72.0003 109L74.0003 109L74.0003 152.586L78.6571 147.929C79.0477 147.538 79.6808 147.538 80.0714 147.929C80.4619 148.319 80.4619 148.953 80.0714 149.343Z" fill="#000"/>
<path fill-rule="evenodd" clip-rule="evenodd" d="M255.27 131.288L252.263 139.771C252.079 140.291 251.507 140.564 250.987 140.379L242.504 137.373C241.983 137.188 241.711 136.616 241.895 136.096C242.08 135.575 242.651 135.303 243.172 135.487L249.379 137.688L232.098 101.43L233.904 100.57L251.185 136.827L253.385 130.62C253.569 130.099 254.141 129.827 254.662 130.011C255.182 130.196 255.454 130.767 255.27 131.288Z" fill="#000"/>
</svg>
