<svg width="345" height="345" viewBox="0 0 345 345" fill="none" xmlns="http://www.w3.org/2000/svg">
<path d="M162.1 116.5C186.08 120.68 230.74 119.8 252.52 116.5V134.32C228.98 136.96 186.3 136.96 162.32 134.32L162.1 116.5ZM170.68 206.26C168.7 214.18 167.6 220.34 167.6 226.28C167.6 236.4 174.64 246.3 204.78 246.3C224.36 246.3 241.52 244.54 259.12 240.36L259.56 258.84C245.92 261.7 227.44 263.46 204.56 263.46C167.82 263.46 151.32 251.14 151.32 230.46C151.32 223.2 152.42 215.28 154.84 204.72L170.68 206.26ZM120.3 99.56C118.98 103.3 117.22 110.34 116.34 114.3C112.16 134.76 105.34 173.92 105.34 198.78C105.34 209.34 106 218.58 107.32 229.36C111.06 219.46 116.12 206.26 119.86 197.24L129.1 204.5C123.6 220.12 115.46 243.22 113.48 253.78C112.82 256.86 112.38 261.04 112.38 263.68C112.6 265.88 112.82 268.96 113.04 271.38L97.4203 272.48C93.0203 256.86 89.2803 231.56 89.2803 201.64C89.2803 169.3 96.5403 131.68 99.1803 113.42C99.8403 108.36 100.5 102.86 100.72 98.02L120.3 99.56Z" fill="#f00"/>
<path d="M77.4258 115V105.18H77.2847L74.3047 107.272V105.213L77.4341 103.022H79.5674V115H77.4258Z" fill="#000"/>
<path d="M168.283 92.5249C168.283 91.4071 168.671 90.494 169.445 89.7856C170.226 89.0773 171.23 88.7231 172.458 88.7231C173.643 88.7231 174.617 89.0469 175.38 89.6943C176.15 90.3418 176.534 91.1663 176.534 92.168C176.534 92.8099 176.34 93.4463 175.953 94.0771C175.566 94.7025 174.863 95.5187 173.845 96.5259L171.338 99.041V99.1821H176.717V101H168.399V99.5142L172.392 95.4302C173.211 94.6001 173.756 93.9775 174.027 93.5625C174.299 93.1419 174.434 92.7214 174.434 92.3008C174.434 91.7751 174.24 91.3407 173.853 90.9976C173.471 90.6545 172.984 90.4829 172.392 90.4829C171.767 90.4829 171.26 90.6711 170.873 91.0474C170.486 91.4237 170.292 91.9162 170.292 92.5249V92.5581H168.283V92.5249Z" fill="#000"/>
<path d="M129.44 234.688V233.027H130.901C131.51 233.027 132.005 232.861 132.387 232.529C132.769 232.192 132.959 231.755 132.959 231.218C132.959 230.687 132.771 230.263 132.395 229.948C132.024 229.627 131.526 229.466 130.901 229.466C130.281 229.466 129.778 229.63 129.39 229.956C129.008 230.283 128.798 230.728 128.759 231.292H126.759C126.814 230.191 127.218 229.322 127.971 228.686C128.723 228.044 129.722 227.723 130.967 227.723C132.129 227.723 133.095 228.028 133.864 228.636C134.639 229.239 135.026 230 135.026 230.919C135.026 231.622 134.83 232.222 134.437 232.72C134.05 233.218 133.524 233.536 132.86 233.675V233.816C133.679 233.91 134.324 234.217 134.794 234.737C135.27 235.257 135.508 235.916 135.508 236.713C135.508 237.742 135.076 238.597 134.213 239.278C133.355 239.958 132.276 240.299 130.976 240.299C129.686 240.299 128.635 239.97 127.821 239.311C127.013 238.653 126.582 237.775 126.526 236.68H128.577C128.621 237.233 128.862 237.676 129.299 238.008C129.736 238.334 130.3 238.498 130.992 238.498C131.678 238.498 132.237 238.32 132.669 237.966C133.106 237.607 133.325 237.145 133.325 236.58C133.325 235.993 133.112 235.531 132.686 235.194C132.259 234.856 131.678 234.688 130.942 234.688H129.44Z" fill="#000"/>
<path fill-rule="evenodd" clip-rule="evenodd" d="M89.4519 166.854L82.6566 172.755C82.2396 173.117 81.608 173.072 81.2459 172.655L75.3447 165.86C74.9826 165.443 75.0271 164.812 75.444 164.449C75.861 164.087 76.4926 164.132 76.8548 164.549L81.173 169.521L86.0034 100.93L87.9984 101.07L83.168 169.662L88.1405 165.344C88.5575 164.981 89.1891 165.026 89.5512 165.443C89.9134 165.86 89.8689 166.492 89.4519 166.854Z" fill="#000"/>
<path fill-rule="evenodd" clip-rule="evenodd" d="M219.343 101.929L225.707 108.293C226.098 108.684 226.098 109.317 225.707 109.707L219.343 116.071C218.953 116.462 218.319 116.462 217.929 116.071C217.538 115.681 217.538 115.048 217.929 114.657L222.586 110L165 110L165 108L222.586 108L217.929 103.343C217.538 102.953 217.538 102.32 217.929 101.929C218.319 101.539 218.953 101.539 219.343 101.929Z" fill="#000"/>
<path fill-rule="evenodd" clip-rule="evenodd" d="M151.875 260.351C140.721 249.778 140 235.234 140 223H142C142 235.266 142.779 248.972 153.25 258.899C163.528 268.642 183.411 274.987 222.003 272.189L216.997 267.931C216.576 267.573 216.525 266.942 216.883 266.521C217.241 266.1 217.872 266.049 218.292 266.407L225.148 272.238C225.569 272.596 225.62 273.227 225.262 273.648L219.431 280.503C219.073 280.924 218.442 280.975 218.021 280.617C217.6 280.259 217.549 279.628 217.907 279.208L222.183 274.181C183.416 276.997 162.787 270.696 151.875 260.351Z" fill="#000"/>
</svg>
