<svg width="345" height="345" viewBox="0 0 345 345" fill="none" xmlns="http://www.w3.org/2000/svg">
<path d="M114.361 103.08C119.201 103.52 125.361 103.74 129.761 103.74C141.421 103.74 193.561 102.2 205.221 101.1C211.821 100.44 214.901 100 217.321 99.1201L227.441 112.1C223.481 114.74 219.081 117.6 214.901 120.9C204.121 129.26 174.201 155 157.041 169.08C167.161 165.78 177.721 164.68 187.621 164.68C224.141 164.68 250.321 186.46 250.321 216.16C250.321 251.58 221.061 274.68 174.421 274.68C144.501 274.68 126.241 261.7 126.241 243.22C126.241 228.26 139.881 214.62 160.121 214.62C189.381 214.62 204.121 235.3 205.661 257.52L189.821 260.16C188.501 241.46 177.721 228.04 160.121 228.04C150.001 228.04 142.301 234.2 142.301 241.9C142.301 252.68 154.401 259.06 171.781 259.06C209.181 259.06 232.721 243.66 232.721 216.16C232.721 194.38 212.041 178.32 183.221 178.32C146.701 178.32 126.901 193.72 99.1809 222.1L86.4209 209.34C104.681 194.38 133.061 170.62 145.601 159.84C157.921 149.72 185.641 126.62 196.641 116.72C184.981 117.38 140.981 119.14 129.541 119.8C124.481 120.24 119.641 120.46 114.801 121.12L114.361 103.08Z" fill="#f00"/>
<path d="M122.426 88V78.1802H122.285L119.305 80.272V78.2134L122.434 76.022H124.567V88H122.426Z" fill="#000"/>
<path fill-rule="evenodd" clip-rule="evenodd" d="M159.343 85.9291L165.707 92.2931C166.098 92.6836 166.098 93.3168 165.707 93.7073L159.343 100.071C158.953 100.462 158.319 100.462 157.929 100.071C157.538 99.6807 157.538 99.0476 157.929 98.657L162.586 94.0002L119 94.0002L119 92.0002L162.586 92.0002L157.929 87.3433C157.538 86.9528 157.538 86.3197 157.929 85.9291C158.319 85.5386 158.953 85.5386 159.343 85.9291Z" fill="#000"/>
<path fill-rule="evenodd" clip-rule="evenodd" d="M257.365 188.674C248.739 173.194 232.791 163.819 220.696 159.952L221.305 158.047C233.71 162.014 250.162 171.639 259.112 187.701C267.897 203.466 269.336 225.219 253.071 253.451L259.49 251.847C260.025 251.713 260.568 252.039 260.702 252.575C260.836 253.11 260.51 253.653 259.975 253.787L251.243 255.97C250.708 256.104 250.165 255.778 250.031 255.242L247.848 246.511C247.714 245.975 248.04 245.432 248.575 245.298C249.111 245.164 249.654 245.49 249.788 246.026L251.378 252.385C267.325 224.667 265.732 203.691 257.365 188.674Z" fill="#000"/>
<path fill-rule="evenodd" clip-rule="evenodd" d="M78.4374 200.933C81.8529 193.516 87.5798 186.935 95.1458 184.065L95.8551 185.935C88.9211 188.565 83.523 194.671 80.2541 201.77C76.9828 208.874 75.9205 216.808 77.482 222.941C78.2599 225.996 79.677 228.563 81.7514 230.387C83.8159 232.201 86.5976 233.338 90.2243 233.43C97.2164 233.608 107.319 229.897 121.05 219.677L114.546 218.831C113.999 218.76 113.612 218.258 113.684 217.711C113.755 217.163 114.257 216.777 114.804 216.848L123.729 218.008C124.277 218.079 124.663 218.581 124.592 219.129L123.431 228.054C123.36 228.601 122.859 228.988 122.311 228.916C121.763 228.845 121.377 228.344 121.448 227.796L122.301 221.239C108.419 231.582 97.8483 235.625 90.1734 235.429C86.1298 235.326 82.8842 234.045 80.4311 231.889C77.988 229.741 76.3972 226.786 75.5439 223.434C73.8429 216.754 75.0243 208.345 78.4374 200.933Z" fill="#000"/>
</svg>
