<svg width="345" height="345" viewBox="0 0 345 345" fill="none" xmlns="http://www.w3.org/2000/svg">
<path d="M158.14 93.4004C157.26 97.5804 156.38 102.2 155.5 106.6C154.18 114.52 151.1 132.56 148.24 146.2C140.76 177 124.92 231.78 100.06 272.04L82.2404 264.78C107.32 231.34 124.92 172.6 130.86 145.54C134.82 128.16 137.9 108.36 137.9 91.4204L158.14 93.4004ZM234.04 116.94C247.68 134.76 266.82 175.24 274.08 195.7L257.14 203.84C250.54 181.18 233.38 142.24 217.98 124.2L234.04 116.94ZM78.9404 141.8C85.9804 142.02 91.7004 142.02 98.7404 141.8C115.02 141.36 159.68 136.3 174.64 136.3C194.22 136.3 210.28 143.78 210.28 173.7C210.28 199.88 206.76 234.86 197.74 253.12C190.7 267.86 179.7 271.38 165.62 271.38C157.04 271.38 146.7 269.84 139.66 268.3L136.8 249.82C146.04 252.68 157.48 254.44 163.64 254.44C171.78 254.44 178.38 252.68 183 243C190.04 228.26 193.34 199.44 193.34 175.68C193.34 155.66 184.1 151.92 170.02 151.92C155.28 151.92 114.14 156.76 100.72 158.08C95.6604 158.74 86.4204 159.84 80.9204 160.72L78.9404 141.8Z" fill="#f00"/>
<path d="M77.4258 126V116.18H77.2847L74.3047 118.272V116.213L77.4341 114.022H79.5674V126H77.4258Z" fill="#000"/>
<path d="M176.283 91.5249C176.283 90.4071 176.671 89.494 177.445 88.7856C178.226 88.0773 179.23 87.7231 180.458 87.7231C181.643 87.7231 182.617 88.0469 183.38 88.6943C184.15 89.3418 184.534 90.1663 184.534 91.168C184.534 91.8099 184.34 92.4463 183.953 93.0771C183.566 93.7025 182.863 94.5187 181.845 95.5259L179.338 98.041V98.1821H184.717V100H176.399V98.5142L180.392 94.4302C181.211 93.6001 181.756 92.9775 182.027 92.5625C182.299 92.1419 182.434 91.7214 182.434 91.3008C182.434 90.7751 182.24 90.3407 181.853 89.9976C181.471 89.6545 180.984 89.4829 180.392 89.4829C179.767 89.4829 179.26 89.6711 178.873 90.0474C178.486 90.4237 178.292 90.9162 178.292 91.5249V91.5581H176.283V91.5249Z" fill="#000"/>
<path d="M258.439 109.688V108.027H259.9C260.509 108.027 261.004 107.861 261.386 107.529C261.768 107.192 261.958 106.755 261.958 106.218C261.958 105.687 261.77 105.263 261.394 104.948C261.023 104.627 260.525 104.466 259.9 104.466C259.28 104.466 258.777 104.63 258.389 104.956C258.007 105.283 257.797 105.728 257.758 106.292H255.758C255.813 105.191 256.217 104.322 256.97 103.686C257.722 103.044 258.721 102.723 259.966 102.723C261.128 102.723 262.094 103.028 262.863 103.636C263.638 104.239 264.025 105 264.025 105.919C264.025 106.622 263.829 107.222 263.436 107.72C263.049 108.218 262.523 108.536 261.859 108.675V108.816C262.678 108.91 263.323 109.217 263.793 109.737C264.269 110.257 264.507 110.916 264.507 111.713C264.507 112.742 264.075 113.597 263.212 114.278C262.354 114.958 261.275 115.299 259.975 115.299C258.685 115.299 257.634 114.97 256.82 114.311C256.012 113.653 255.581 112.775 255.525 111.68H257.576C257.62 112.233 257.861 112.676 258.298 113.008C258.735 113.334 259.299 113.498 259.991 113.498C260.677 113.498 261.236 113.32 261.668 112.966C262.105 112.607 262.324 112.145 262.324 111.58C262.324 110.993 262.111 110.531 261.685 110.194C261.258 109.856 260.677 109.688 259.941 109.688H258.439Z" fill="#000"/>
<path fill-rule="evenodd" clip-rule="evenodd" d="M114.343 123.929L120.707 130.293C121.098 130.684 121.098 131.317 120.707 131.707L114.343 138.071C113.953 138.462 113.319 138.462 112.929 138.071C112.538 137.681 112.538 137.048 112.929 136.657L117.586 132L74 132L74 130L117.586 130L112.929 125.343C112.538 124.953 112.538 124.32 112.929 123.929C113.319 123.539 113.953 123.539 114.343 123.929Z" fill="#000"/>
<path fill-rule="evenodd" clip-rule="evenodd" d="M170.905 121.583L163.581 126.814C163.132 127.135 162.507 127.031 162.186 126.582L156.955 119.258C156.634 118.809 156.738 118.184 157.188 117.863C157.637 117.542 158.261 117.646 158.582 118.095L162.41 123.455L169.014 83.8359L170.986 84.1647L164.383 123.783L169.742 119.955C170.192 119.634 170.816 119.739 171.137 120.188C171.458 120.637 171.354 121.262 170.905 121.583Z" fill="#000"/>
<path fill-rule="evenodd" clip-rule="evenodd" d="M269.949 140.909L267.121 149.453C266.947 149.977 266.381 150.262 265.857 150.088L257.313 147.259C256.789 147.086 256.504 146.52 256.678 145.996C256.852 145.471 257.417 145.187 257.942 145.361L264.194 147.431L245.107 109.449L246.894 108.551L265.981 146.533L268.051 140.281C268.224 139.756 268.79 139.472 269.314 139.646C269.839 139.819 270.123 140.385 269.949 140.909Z" fill="#000"/>
</svg>
