<svg width="345" height="345" viewBox="0 0 345 345" fill="none" xmlns="http://www.w3.org/2000/svg">
<path d="M182.34 101.76C180.36 104.4 177.72 108.36 175.3 112.54C165.4 127.72 145.16 164.24 133.94 185.58C144.5 176.12 155.94 171.94 166.5 171.94C181.24 171.94 191.8 181.4 192.46 198.78C192.9 211.76 192.46 228.48 193.34 239.26C194 250.26 201.48 255.1 210.94 255.1C235.58 255.1 250.1 224.74 255.6 201.2L270.34 213.08C258.68 248.5 240.2 273.14 208.3 273.14C184.76 273.14 177.06 258.4 176.4 245.42C175.74 232.44 175.96 215.5 175.3 203.4C174.86 193.94 169.14 188 159.24 188C141.64 188 124.92 206.04 116.56 223.42C109.74 236.4 100.5 262.58 97.42 273.36L78.5 266.76C94.56 222.32 142.74 132.12 154.84 111C157.26 105.72 160.12 100.44 162.76 93.8401L182.34 101.76Z" fill="#f00"/>
<path d="M134.425 104V94.1802H134.284L131.304 96.272V94.2134L134.433 92.022H136.566V104H134.425Z" fill="#000"/>
<path fill-rule="evenodd" clip-rule="evenodd" d="M125.878 158.216L117.304 160.953C116.778 161.121 116.215 160.83 116.048 160.304L113.311 151.73C113.143 151.204 113.434 150.641 113.96 150.473C114.486 150.305 115.049 150.596 115.216 151.122L117.219 157.396L148.112 97.5414L149.889 98.4587L118.996 158.313L125.27 156.311C125.796 156.143 126.359 156.433 126.527 156.96C126.695 157.486 126.404 158.048 125.878 158.216Z" fill="#000"/>
<path fill-rule="evenodd" clip-rule="evenodd" d="M274.539 228.652L283.153 226.043C283.681 225.883 284.24 226.181 284.4 226.71L287.009 235.323C287.169 235.852 286.871 236.41 286.342 236.57C285.813 236.731 285.255 236.432 285.095 235.903L283.186 229.6L263.882 265.683L262.118 264.74L281.422 228.657L275.119 230.566C274.591 230.726 274.032 230.428 273.872 229.899C273.712 229.371 274.011 228.812 274.539 228.652Z" fill="#000"/>
<path fill-rule="evenodd" clip-rule="evenodd" d="M72.8778 265.599C71.4578 255.969 72.0033 243.749 75.0241 230.281L76.9756 230.719C73.9964 244.001 73.4795 255.969 74.8564 265.307C76.2426 274.709 79.5071 281.203 83.8409 283.901C85.971 285.227 88.4091 285.672 91.1485 285.061C93.9146 284.444 97.0321 282.739 100.432 279.679C106.959 273.804 114.345 263.1 122.084 246.3L115.945 248.639C115.429 248.835 114.852 248.576 114.655 248.06C114.458 247.544 114.717 246.966 115.233 246.77L123.644 243.566C124.16 243.369 124.738 243.628 124.934 244.144L128.138 252.555C128.335 253.071 128.076 253.648 127.56 253.845C127.044 254.042 126.466 253.783 126.269 253.266L123.919 247.096C116.125 264.026 108.594 275.023 101.77 281.165C98.2098 284.37 94.7922 286.298 91.5837 287.013C88.3485 287.735 85.3725 287.21 82.7839 285.599C77.6802 282.422 74.2884 275.166 72.8778 265.599Z" fill="#000"/>
</svg>
