<svg width="345" height="345" viewBox="0 0 345 345" fill="none" xmlns="http://www.w3.org/2000/svg">
<path d="M209.18 94.72C207.64 100.22 206.32 107.92 205.22 112.1C197.3 148.4 181.9 194.38 164.3 218.58C147.58 241.9 131.52 258.4 111.5 258.4C94.7802 258.4 80.7002 244.54 80.7002 218.8C80.7002 191.08 97.6402 161.82 120.96 146.2C142.74 131.46 164.3 125.74 186.96 125.74C230.08 125.74 261.32 154.78 261.32 197.68C261.32 241.68 229.86 268.3 182.56 274.9L172.44 259.28C218.42 255.1 243.72 231.12 243.72 197.02C243.72 164.68 220.4 140.92 184.98 140.92C163.64 140.92 144.5 148.18 127.34 160.94C108.64 174.36 96.7602 197.9 96.7602 217.7C96.7602 232.22 103.14 241.02 113.04 241.02C127.34 241.02 142.74 222.32 153.96 204.5C168.48 182.06 183.22 141.8 188.72 109.68C189.6 105.28 190.26 98.02 190.04 92.96L209.18 94.72ZM118.98 104.84C120.08 110.78 121.84 118.04 123.6 124.2C129.32 145.76 141.64 179.64 150.88 195.04C158.36 207.8 168.7 222.32 179.26 232.44L165.4 243.66C156.6 233.98 148.46 223.2 140.1 208.9C129.32 191.74 116.56 158.08 108.2 130.58C106 123.54 103.58 116.28 100.72 110.56L118.98 104.84Z" fill="#f00"/>
<path d="M135.441 102.978V93.1582H135.3L132.32 95.25V93.1914L135.45 91H137.583V102.978H135.441Z" fill="#000"/>
<path d="M222.715 94.8018C222.715 93.6839 223.102 92.7708 223.877 92.0625C224.657 91.3542 225.662 91 226.89 91C228.074 91 229.048 91.3237 229.812 91.9712C230.581 92.6187 230.966 93.4432 230.966 94.4448C230.966 95.0868 230.772 95.7231 230.385 96.354C229.997 96.9793 229.295 97.7956 228.276 98.8027L225.77 101.318V101.459H231.148V103.277H222.831V101.791L226.824 97.707C227.643 96.877 228.188 96.2544 228.459 95.8394C228.73 95.4188 228.866 94.9982 228.866 94.5776C228.866 94.0519 228.672 93.6175 228.285 93.2744C227.903 92.9313 227.416 92.7598 226.824 92.7598C226.198 92.7598 225.692 92.9479 225.305 93.3242C224.917 93.7005 224.724 94.193 224.724 94.8018V94.835H222.715V94.8018Z" fill="#000"/>
<path fill-rule="evenodd" clip-rule="evenodd" d="M141.24 122.465L137.108 130.46C136.855 130.951 136.251 131.143 135.761 130.89L127.765 126.758C127.275 126.504 127.082 125.901 127.336 125.411C127.589 124.92 128.193 124.728 128.683 124.981L134.534 128.005L125.064 98.2818L126.97 97.6747L136.44 127.397L139.463 121.547C139.717 121.056 140.32 120.864 140.811 121.117C141.301 121.371 141.493 121.974 141.24 122.465Z" fill="#000"/>
<path fill-rule="evenodd" clip-rule="evenodd" d="M221.168 118.571L214.042 124.069C213.604 124.406 212.977 124.325 212.639 123.888L207.142 116.762C206.805 116.324 206.886 115.696 207.323 115.359C207.76 115.022 208.388 115.103 208.726 115.54L212.748 120.755L216.439 92.1489L218.423 92.4048L214.732 121.01L219.946 116.988C220.383 116.651 221.011 116.732 221.349 117.169C221.686 117.606 221.605 118.234 221.168 118.571Z" fill="#000"/>
<path fill-rule="evenodd" clip-rule="evenodd" d="M75.9859 194.072C76.4987 193.867 77.0807 194.116 77.2857 194.629L80.6267 202.986C80.8318 203.499 80.5823 204.081 80.0694 204.286C79.5566 204.491 78.9747 204.241 78.7697 203.728L76.3387 197.648C65.4189 224.732 70.1479 244.368 80.7601 255.562C91.7094 267.112 109.098 269.907 122.951 262.615L123.883 264.385C109.236 272.094 90.8744 269.138 79.3087 256.938C67.997 245.006 63.3519 224.448 74.5194 196.812L68.3715 199.27C67.8587 199.475 67.2767 199.225 67.0717 198.713C66.8667 198.2 67.1162 197.618 67.629 197.413L75.9859 194.072Z" fill="#000"/>
</svg>
