<svg width="345" height="345" viewBox="0 0 345 345" fill="none" xmlns="http://www.w3.org/2000/svg">
<path d="M119.42 100.88C124.92 101.32 130.2 101.54 137.02 101.54C146.7 101.54 192.02 99.56 204.56 98.24C209.84 97.8 214.02 96.92 216.66 96.04L227.66 108.58C224.8 110.56 219.08 114.3 216 116.94C199.5 130.36 167.82 156.98 150.22 171.06C183.66 167.32 223.26 164.46 254.72 164.46L254.94 180.74C233.38 179.64 212.26 179.86 199.06 181.84C177.72 184.92 156.6 202.96 156.6 223.64C156.6 245.86 174.42 253.34 194.66 256.2C207.64 257.74 218.2 257.3 226.12 256.64L222.6 274.68C168.7 276.88 139.44 260.16 139.44 226.28C139.44 207.58 153.74 191.52 165.18 184.7C141.64 186.68 112.16 190.2 85.7597 194.6L84.2197 178.1C96.0997 176.78 111.06 175.02 122.28 173.7C146.26 156.98 181.02 126.4 195.1 114.08C185.2 114.74 146.7 116.5 137.24 117.38C131.52 117.82 125.14 118.48 120.3 118.92L119.42 100.88Z" fill="#f00"/>
<path d="M122.425 85V75.1802H122.284L119.304 77.272V75.2134L122.433 73.022H124.566V85H122.425Z" fill="#000"/>
<path fill-rule="evenodd" clip-rule="evenodd" d="M159.342 82.9291L165.706 89.2931C166.097 89.6836 166.097 90.3168 165.706 90.7073L159.342 97.0713C158.952 97.4618 158.318 97.4618 157.928 97.0713C157.537 96.6807 157.537 96.0476 157.928 95.657L162.585 91.0002L118.999 91.0002L118.999 89.0002L162.585 89.0002L157.928 84.3433C157.537 83.9528 157.537 83.3197 157.928 82.9291C158.318 82.5386 158.952 82.5386 159.342 82.9291Z" fill="#000"/>
<path fill-rule="evenodd" clip-rule="evenodd" d="M64.6326 190.502C63.1969 179.278 70.5018 166.095 85.3604 164.01L85.6384 165.99C71.9971 167.905 65.302 179.972 66.6164 190.248C67.2703 195.36 69.9013 199.967 74.6062 202.664C78.9114 205.131 85.0859 206.075 93.3285 204.16L87.6465 201.003C87.1637 200.735 86.9897 200.126 87.2579 199.644C87.5262 199.161 88.135 198.987 88.6177 199.255L96.4852 203.626C96.968 203.894 97.1419 204.503 96.8737 204.986L92.5029 212.853C92.2347 213.336 91.6259 213.51 91.1431 213.242C90.6603 212.973 90.4864 212.365 90.7546 211.882L93.9894 206.059C85.2963 208.118 78.5091 207.206 73.6116 204.399C68.2853 201.346 65.3538 196.14 64.6326 190.502Z" fill="#000"/>
<path fill-rule="evenodd" clip-rule="evenodd" d="M274.935 174.32C275.663 163.86 267.847 153.074 253.139 151.01L252.861 152.99C266.653 154.926 273.586 164.89 272.94 174.181C272.615 178.837 270.394 183.39 266.09 186.794C262.195 189.875 256.548 192.049 248.976 192.438L253.571 187.843C253.961 187.453 253.961 186.82 253.571 186.429C253.18 186.038 252.547 186.038 252.157 186.429L245.793 192.793C245.402 193.183 245.402 193.817 245.793 194.207L252.157 200.571C252.547 200.962 253.18 200.962 253.571 200.571C253.961 200.181 253.961 199.547 253.571 199.157L248.86 194.446C256.867 194.071 263.008 191.782 267.331 188.362C272.075 184.61 274.571 179.539 274.935 174.32Z" fill="#000"/>
</svg>
