<svg width="345" height="345" viewBox="0 0 345 345" fill="none" xmlns="http://www.w3.org/2000/svg">
<path d="M159.24 92.0803C157.92 96.9203 156.38 105.28 155.5 109.46C152.2 125.3 147.58 150.16 141.42 172.16C133.5 203.4 118.76 248.94 107.1 272.92L87.9597 266.54C101.16 243.66 116.56 199 124.92 167.98C130.2 147.74 135.92 120.02 137.46 108.58C138.34 102.42 138.78 94.9403 138.34 90.3203L159.24 92.0803ZM110.62 128.82C134.82 128.82 167.16 124.86 194.44 118.04V135.2C167.16 141.36 133.94 145.1 110.18 145.1C100.5 145.1 92.7997 144.88 84.6597 144.22L84.2197 127.06C94.5597 128.38 102.48 128.82 110.62 128.82ZM180.14 158.96C191.58 157.86 206.32 157.2 220.4 157.2C233.16 157.2 246.58 157.64 258.46 158.96L258.02 175.68C246.58 174.36 233.82 173.04 220.84 173.04C207.2 173.04 193.56 173.92 180.14 175.46V158.96ZM184.54 212.42C182.78 219.68 181.46 226.5 181.46 232.22C181.46 242.56 187.4 252.68 218.64 252.68C233.16 252.68 248.12 251.14 261.76 248.5L261.1 266.1C249.22 267.86 234.48 269.18 218.42 269.18C183.88 269.18 164.96 258.62 164.96 236.84C164.96 228.48 166.28 220.12 168.26 210.88L184.54 212.42Z" fill="#f00"/>
<path d="M83.4258 115V105.18H83.2847L80.3047 107.272V105.213L83.4341 103.022H85.5674V115H83.4258Z" fill="#000"/>
<path d="M178.283 84.5249C178.283 83.4071 178.671 82.494 179.445 81.7856C180.226 81.0773 181.23 80.7231 182.458 80.7231C183.643 80.7231 184.617 81.0469 185.38 81.6943C186.15 82.3418 186.534 83.1663 186.534 84.168C186.534 84.8099 186.34 85.4463 185.953 86.0771C185.566 86.7025 184.863 87.5187 183.845 88.5259L181.338 91.041V91.1821H186.717V93H178.399V91.5142L182.392 87.4302C183.211 86.6001 183.756 85.9775 184.027 85.5625C184.299 85.1419 184.434 84.7214 184.434 84.3008C184.434 83.7751 184.24 83.3407 183.853 82.9976C183.471 82.6545 182.984 82.4829 182.392 82.4829C181.767 82.4829 181.26 82.6711 180.873 83.0474C180.486 83.4237 180.292 83.9162 180.292 84.5249V84.5581H178.283V84.5249Z" fill="#000"/>
<path d="M214.439 135.688V134.027H215.9C216.509 134.027 217.004 133.861 217.386 133.529C217.768 133.192 217.958 132.755 217.958 132.218C217.958 131.687 217.77 131.263 217.394 130.948C217.023 130.627 216.525 130.466 215.9 130.466C215.28 130.466 214.777 130.63 214.389 130.956C214.007 131.283 213.797 131.728 213.758 132.292H211.758C211.813 131.191 212.217 130.322 212.97 129.686C213.722 129.044 214.721 128.723 215.966 128.723C217.128 128.723 218.094 129.028 218.863 129.636C219.638 130.239 220.025 131 220.025 131.919C220.025 132.622 219.829 133.222 219.436 133.72C219.049 134.218 218.523 134.536 217.859 134.675V134.816C218.678 134.91 219.323 135.217 219.793 135.737C220.269 136.257 220.507 136.916 220.507 137.713C220.507 138.742 220.075 139.597 219.212 140.278C218.354 140.958 217.275 141.299 215.975 141.299C214.685 141.299 213.634 140.97 212.82 140.311C212.012 139.653 211.581 138.775 211.525 137.68H213.576C213.62 138.233 213.861 138.676 214.298 139.008C214.735 139.334 215.299 139.498 215.991 139.498C216.677 139.498 217.236 139.32 217.668 138.966C218.105 138.607 218.324 138.145 218.324 137.58C218.324 136.993 218.111 136.531 217.685 136.194C217.258 135.856 216.677 135.688 215.941 135.688H214.439Z" fill="#000"/>
<path d="M141.087 244V241.767H135.235V239.858C136.209 238.065 137.836 235.453 140.116 232.022H143.138V239.958H144.756V241.767H143.138V244H141.087ZM137.219 239.883V240.007H141.121V233.765H141.004C139.709 235.68 138.448 237.719 137.219 239.883Z" fill="#000"/>
<path fill-rule="evenodd" clip-rule="evenodd" d="M120.343 112.929L126.707 119.293C127.098 119.684 127.098 120.317 126.707 120.707L120.343 127.071C119.953 127.462 119.319 127.462 118.929 127.071C118.538 126.681 118.538 126.048 118.929 125.657L123.586 121L80 121L80 119L123.586 119L118.929 114.343C118.538 113.953 118.538 113.32 118.929 112.929C119.319 112.539 119.953 112.539 120.343 112.929Z" fill="#000"/>
<path fill-rule="evenodd" clip-rule="evenodd" d="M250.343 140.929L256.707 147.293C257.098 147.684 257.098 148.317 256.707 148.707L250.343 155.071C249.953 155.462 249.319 155.462 248.929 155.071C248.538 154.681 248.538 154.048 248.929 153.657L253.586 149L210 149L210 147L253.586 147L248.929 142.343C248.538 141.953 248.538 141.32 248.929 140.929C249.319 140.539 249.953 140.539 250.343 140.929Z" fill="#000"/>
<path fill-rule="evenodd" clip-rule="evenodd" d="M172.905 114.583L165.581 119.814C165.132 120.135 164.507 120.031 164.186 119.582L158.955 112.258C158.634 111.809 158.738 111.184 159.188 110.863C159.637 110.542 160.261 110.646 160.582 111.095L164.41 116.455L171.014 76.8359L172.986 77.1647L166.383 116.783L171.742 112.955C172.192 112.634 172.816 112.739 173.137 113.188C173.458 113.637 173.354 114.262 172.905 114.583Z" fill="#000"/>
<path fill-rule="evenodd" clip-rule="evenodd" d="M161.875 267.351C150.721 256.778 150 242.234 150 230H152C152 242.266 152.779 255.972 163.25 265.899C173.528 275.642 193.411 281.987 232.003 279.189L226.997 274.931C226.576 274.573 226.525 273.942 226.883 273.521C227.241 273.1 227.872 273.049 228.292 273.407L235.148 279.238C235.569 279.596 235.62 280.227 235.262 280.648L229.431 287.503C229.073 287.924 228.442 287.975 228.021 287.617C227.6 287.259 227.549 286.628 227.907 286.208L232.183 281.181C193.416 283.997 172.787 277.696 161.875 267.351Z" fill="#000"/>
</svg>
