<svg width="345" height="345" viewBox="0 0 345 345" fill="none" xmlns="http://www.w3.org/2000/svg">
<path d="M83.12 126.4C91.26 127.28 100.72 127.72 110.18 127.72C133.94 127.72 161.66 124.86 186.96 116.5L187.4 132.78C165.84 138.72 137.02 143.56 110.18 143.34C102.04 143.34 92.58 143.12 84.44 142.9L83.12 126.4ZM161.22 90.5401C158.36 101.32 153.74 122 148.46 137.62C137.9 169.3 117.66 209.34 99.4 233.98L82.46 225.18C102.04 202.3 122.5 163.14 131.52 137.18C136.36 123.32 141.2 103.96 141.86 88.5601L161.22 90.5401ZM213.14 158.52C212.48 167.54 212.48 174.14 212.7 182.06C213.14 196.36 215.12 229.8 215.12 244.32C215.12 261.92 203.9 276.22 176.62 276.22C152.42 276.22 132.84 266.54 132.84 244.54C132.84 224.3 151.98 211.54 176.62 211.54C213.58 211.54 241.96 230.02 260 245.64L250.76 260.6C233.82 245.2 208.52 225.62 176.18 225.62C159.9 225.62 148.9 233.1 148.9 243.22C148.9 253.34 157.48 260.38 174.64 260.38C192.9 260.38 199.06 250.7 199.06 238.82C199.06 222.1 196.64 182.72 195.76 158.52H213.14ZM257.14 164.24C245.26 154.12 221.28 140.7 206.76 133.88L215.56 120.68C231.62 127.5 256.48 141.8 267.04 149.72L257.14 164.24Z" fill="#f00"/>
<path d="M83.4258 111V101.18H83.2847L80.3047 103.272V101.213L83.4341 99.022H85.5674V111H83.4258Z" fill="#000"/>
<path d="M180.283 81.5249C180.283 80.4071 180.671 79.494 181.445 78.7856C182.226 78.0773 183.23 77.7231 184.458 77.7231C185.643 77.7231 186.617 78.0469 187.38 78.6943C188.15 79.3418 188.534 80.1663 188.534 81.168C188.534 81.8099 188.34 82.4463 187.953 83.0771C187.566 83.7025 186.863 84.5187 185.845 85.5259L183.338 88.041V88.1821H188.717V90H180.399V88.5142L184.392 84.4302C185.211 83.6001 185.756 82.9775 186.027 82.5625C186.299 82.1419 186.434 81.7214 186.434 81.3008C186.434 80.7751 186.24 80.3407 185.853 79.9976C185.471 79.6545 184.984 79.4829 184.392 79.4829C183.767 79.4829 183.26 79.6711 182.873 80.0474C182.486 80.4237 182.292 80.9162 182.292 81.5249V81.5581H180.283V81.5249Z" fill="#000"/>
<path d="M237.439 101.688V100.027H238.9C239.509 100.027 240.004 99.8613 240.386 99.5293C240.768 99.1917 240.958 98.7546 240.958 98.2178C240.958 97.6865 240.77 97.2632 240.394 96.9478C240.023 96.6268 239.525 96.4663 238.9 96.4663C238.28 96.4663 237.777 96.6296 237.389 96.9561C237.007 97.2826 236.797 97.728 236.758 98.2925H234.758C234.813 97.1912 235.217 96.3224 235.97 95.686C236.722 95.0441 237.721 94.7231 238.966 94.7231C240.128 94.7231 241.094 95.0275 241.863 95.6362C242.638 96.2394 243.025 97.0003 243.025 97.9189C243.025 98.6217 242.829 99.2222 242.436 99.7202C242.049 100.218 241.523 100.536 240.859 100.675V100.816C241.678 100.91 242.323 101.217 242.793 101.737C243.269 102.257 243.507 102.916 243.507 103.713C243.507 104.742 243.075 105.597 242.212 106.278C241.354 106.958 240.275 107.299 238.975 107.299C237.685 107.299 236.634 106.97 235.82 106.311C235.012 105.653 234.581 104.775 234.525 103.68H236.576C236.62 104.233 236.861 104.676 237.298 105.008C237.735 105.334 238.299 105.498 238.991 105.498C239.677 105.498 240.236 105.32 240.668 104.966C241.105 104.607 241.324 104.145 241.324 103.58C241.324 102.993 241.111 102.531 240.685 102.194C240.258 101.856 239.677 101.688 238.941 101.688H237.439Z" fill="#000"/>
<path d="M234.087 171V168.767H228.235V166.858C229.209 165.065 230.836 162.453 233.116 159.022H236.138V166.958H237.756V168.767H236.138V171H234.087ZM230.219 166.883V167.007H234.121V160.765H234.004C232.709 162.68 231.448 164.719 230.219 166.883Z" fill="#000"/>
<path fill-rule="evenodd" clip-rule="evenodd" d="M120.343 108.929L126.707 115.293C127.098 115.684 127.098 116.317 126.707 116.707L120.343 123.071C119.953 123.462 119.319 123.462 118.929 123.071C118.538 122.681 118.538 122.048 118.929 121.657L123.586 117L80 117L80 115L123.586 115L118.929 110.343C118.538 109.953 118.538 109.32 118.929 108.929C119.319 108.539 119.953 108.539 120.343 108.929Z" fill="#000"/>
<path fill-rule="evenodd" clip-rule="evenodd" d="M265.436 126.152L267.742 134.851C267.883 135.385 267.565 135.933 267.031 136.074L258.332 138.38C257.798 138.522 257.25 138.204 257.109 137.67C256.967 137.136 257.285 136.588 257.819 136.447L264.185 134.759L226.498 112.865L227.502 111.136L265.19 133.03L263.503 126.664C263.361 126.13 263.679 125.583 264.213 125.441C264.747 125.3 265.294 125.618 265.436 126.152Z" fill="#000"/>
<path fill-rule="evenodd" clip-rule="evenodd" d="M231.071 198.343L224.707 204.707C224.317 205.098 223.684 205.098 223.293 204.707L216.929 198.343C216.539 197.953 216.539 197.319 216.929 196.929C217.32 196.538 217.953 196.538 218.343 196.929L223 201.586L223 158L225 158L225 201.586L229.657 196.929C230.048 196.538 230.681 196.538 231.071 196.929C231.462 197.319 231.462 197.953 231.071 198.343Z" fill="#000"/>
<path fill-rule="evenodd" clip-rule="evenodd" d="M174.905 111.583L167.581 116.814C167.132 117.135 166.507 117.031 166.186 116.582L160.955 109.258C160.634 108.809 160.738 108.184 161.188 107.863C161.637 107.542 162.261 107.646 162.582 108.095L166.41 113.455L173.014 73.8359L174.986 74.1647L168.383 113.783L173.742 109.955C174.192 109.634 174.816 109.739 175.137 110.188C175.458 110.637 175.354 111.262 174.905 111.583Z" fill="#000"/>
</svg>
