<svg width="345" height="345" viewBox="0 0 345 345" fill="none" xmlns="http://www.w3.org/2000/svg">
<path d="M80.4805 118.92C88.8405 118.7 95.8805 118.26 100.28 117.82C114.58 116.28 155.94 112.32 196.64 108.8C220.62 106.82 241.08 105.5 255.82 105.06L256.04 122.66C243.28 122.44 224.14 122.88 212.92 125.96C181.46 136.08 162.32 169.74 162.32 195.7C162.32 238.6 202.58 252.24 238.22 253.78L232.06 271.82C191.14 270.28 144.94 248.72 144.94 199.44C144.94 165.12 165.84 137.18 186.08 125.3C162.32 127.72 106.44 133.22 82.4605 138.28L80.4805 118.92Z" fill="#f00"/>
<path d="M87.4258 98V88.1802H87.2847L84.3047 90.272V88.2134L87.4341 86.022H89.5674V98H87.4258Z" fill="#000"/>
<path fill-rule="evenodd" clip-rule="evenodd" d="M144.841 94.3627L151.654 100.243C152.072 100.604 152.119 101.235 151.758 101.653L145.878 108.467C145.517 108.885 144.886 108.931 144.467 108.57C144.049 108.21 144.003 107.578 144.364 107.16L148.667 102.174L83.0743 106.997L82.9276 105.003L148.52 100.18L143.534 95.8768C143.116 95.516 143.07 94.8845 143.43 94.4664C143.791 94.0483 144.423 94.0019 144.841 94.3627Z" fill="#000"/>
</svg>
