<svg width="345" height="345" viewBox="0 0 345 345" fill="none" xmlns="http://www.w3.org/2000/svg">
<path d="M143.84 90.7598C142.96 95.3798 142.3 103.52 142.3 111.44C142.08 122.44 142.3 163.8 142.3 178.76L126.24 169.96C126.24 157.86 126.24 123.1 126.02 111.44C126.02 102.86 125.58 95.3798 124.48 90.7598H143.84ZM220.84 112.98C233.82 121.56 254.72 141.14 264.84 153.46L252.52 166C241.74 152.14 221.72 133 209.4 124.42L220.84 112.98ZM82.2402 119.8C95.2202 122 106 122.88 117 122.88C137.9 122.88 162.32 119.58 184.54 113.42V130.36C162.1 135.42 136.14 138.28 118.1 138.28C108.42 138.28 95.8802 137.84 82.9002 136.08L82.2402 119.8ZM136.8 219.02C136.36 223.64 135.92 234.42 135.92 241.02C135.92 253.34 139 257.96 171.12 257.96C183.44 257.96 200.38 256.42 208.3 254.22C219.74 250.7 226.56 244.1 226.56 229.58C226.56 221 226.34 213.52 225.24 204.72L244.16 210.66C244.16 219.46 244.38 225.18 244.16 234.42C243.28 255.1 235.36 264.56 215.56 270.06C205.88 272.48 184.54 274.46 170.02 274.46C125.8 274.46 119.42 263.9 119.42 247.62C119.42 239.7 119.86 231.78 120.3 224.74L136.8 219.02ZM148.02 189.98C148.02 209.78 140.32 237.5 112.6 237.5C100.06 237.5 84.2202 228.48 84.2202 202.74C84.2202 180.3 98.5202 159.62 120.3 159.62C137.9 159.62 148.02 172.38 148.02 189.98ZM114.36 221.22C127.56 221.22 131.96 205.6 131.96 190.86C131.96 180.3 126.9 173.7 119.2 173.7C108.42 173.7 98.9602 185.36 98.9602 201.86C98.9602 214.18 106.22 221.22 114.36 221.22Z" fill="#f00"/>
<path d="M78.4248 105V95.1802H78.2837L75.3037 97.272V95.2134L78.4331 93.022H80.5664V105H78.4248Z" fill="#000"/>
<path d="M162.283 74.5249C162.283 73.4071 162.671 72.494 163.445 71.7856C164.226 71.0773 165.23 70.7231 166.458 70.7231C167.643 70.7231 168.617 71.0469 169.38 71.6943C170.15 72.3418 170.534 73.1663 170.534 74.168C170.534 74.8099 170.34 75.4463 169.953 76.0771C169.566 76.7025 168.863 77.5187 167.845 78.5259L165.338 81.041V81.1821H170.717V83H162.399V81.5142L166.392 77.4302C167.211 76.6001 167.756 75.9775 168.027 75.5625C168.299 75.1419 168.434 74.7214 168.434 74.3008C168.434 73.7751 168.24 73.3407 167.853 72.9976C167.471 72.6545 166.984 72.4829 166.392 72.4829C165.767 72.4829 165.26 72.6711 164.873 73.0474C164.486 73.4237 164.292 73.9162 164.292 74.5249V74.5581H162.283V74.5249Z" fill="#000"/>
<path d="M244.439 104.688V103.027H245.9C246.509 103.027 247.004 102.861 247.386 102.529C247.768 102.192 247.958 101.755 247.958 101.218C247.958 100.687 247.77 100.263 247.394 99.9478C247.023 99.6268 246.525 99.4663 245.9 99.4663C245.28 99.4663 244.777 99.6296 244.389 99.9561C244.007 100.283 243.797 100.728 243.758 101.292H241.758C241.813 100.191 242.217 99.3224 242.97 98.686C243.722 98.0441 244.721 97.7231 245.966 97.7231C247.128 97.7231 248.094 98.0275 248.863 98.6362C249.638 99.2394 250.025 100 250.025 100.919C250.025 101.622 249.829 102.222 249.436 102.72C249.049 103.218 248.523 103.536 247.859 103.675V103.816C248.678 103.91 249.323 104.217 249.793 104.737C250.269 105.257 250.507 105.916 250.507 106.713C250.507 107.742 250.075 108.597 249.212 109.278C248.354 109.958 247.275 110.299 245.975 110.299C244.685 110.299 243.634 109.97 242.82 109.311C242.012 108.653 241.581 107.775 241.525 106.68H243.576C243.62 107.233 243.861 107.676 244.298 108.008C244.735 108.334 245.299 108.498 245.991 108.498C246.677 108.498 247.236 108.32 247.668 107.966C248.105 107.607 248.324 107.145 248.324 106.58C248.324 105.993 248.111 105.531 247.685 105.194C247.258 104.856 246.677 104.688 245.941 104.688H244.439Z" fill="#000"/>
<path fill-rule="evenodd" clip-rule="evenodd" d="M115.343 102.929L121.707 109.293C122.098 109.684 122.098 110.317 121.707 110.707L115.343 117.071C114.953 117.462 114.319 117.462 113.929 117.071C113.538 116.681 113.538 116.048 113.929 115.657L118.586 111L75 111L75 109L118.586 109L113.929 104.343C113.538 103.953 113.538 103.32 113.929 102.929C114.319 102.539 114.953 102.539 115.343 102.929Z" fill="#000"/>
<path fill-rule="evenodd" clip-rule="evenodd" d="M248.929 214.657L255.293 208.293C255.683 207.902 256.316 207.902 256.707 208.293L263.071 214.657C263.461 215.047 263.461 215.681 263.071 216.071C262.68 216.462 262.047 216.462 261.657 216.071L257 211.414L257 255L255 255L255 211.414L250.343 216.071C249.952 216.462 249.319 216.462 248.929 216.071C248.538 215.681 248.538 215.047 248.929 214.657Z" fill="#000"/>
<path fill-rule="evenodd" clip-rule="evenodd" d="M161.071 106.343L154.707 112.707C154.317 113.098 153.684 113.098 153.293 112.707L146.929 106.343C146.539 105.953 146.539 105.319 146.929 104.929C147.32 104.538 147.953 104.538 148.343 104.929L153 109.586L153 77L155 77L155 109.586L159.657 104.929C160.048 104.538 160.681 104.538 161.071 104.929C161.462 105.319 161.462 105.953 161.071 106.343Z" fill="#000"/>
<path fill-rule="evenodd" clip-rule="evenodd" d="M269 132L269 141C269 141.552 268.552 142 268 142L259 142C258.448 142 258 141.552 258 141C258 140.448 258.448 140 259 140L265.586 140L235.293 109.707L236.707 108.293L267 138.586L267 132C267 131.448 267.448 131 268 131C268.552 131 269 131.448 269 132Z" fill="#000"/>
<path fill-rule="evenodd" clip-rule="evenodd" d="M90.0474 161.001C90.5991 161.027 91.025 161.496 90.9987 162.047L90.5706 171.037C90.5443 171.589 90.0758 172.015 89.5242 171.989C88.9725 171.962 88.5466 171.494 88.5729 170.942L88.8812 164.467C76.8286 176.784 72.7716 195.74 75.3004 211.971C77.9605 229.045 87.7524 242.5 102.5 242.5V244.5C86.2473 244.5 76.0391 229.705 73.3243 212.279C70.7123 195.514 74.8925 175.755 87.6286 162.888L80.9625 162.571C80.4108 162.544 79.9849 162.076 80.0112 161.524C80.0374 160.973 80.5059 160.547 81.0576 160.573L90.0474 161.001Z" fill="#000"/>
</svg>
