<svg width="345" height="345" viewBox="0 0 345 345" fill="none" xmlns="http://www.w3.org/2000/svg">
<path d="M216.88 102.86C212.04 106.38 205.22 112.32 201.7 115.4C186.52 128.6 154.84 153.46 138.56 167.1C125.36 178.54 125.14 181.84 139.44 193.72C159.46 210.22 198.4 241.46 221.72 265L206.1 279.3C201.48 274.02 196.2 268.74 190.92 263.24C175.3 247.4 142.08 218.8 121.4 201.86C100.72 184.48 103.14 175.02 122.94 158.3C139.66 144.44 173.1 118.04 187.84 103.08C192.24 98.6798 197.96 92.2998 200.38 88.3398L216.88 102.86Z" fill="#f00"/>
<path d="M184.426 73V63.1802H184.285L181.305 65.272V63.2134L184.434 61.022H186.567V73H184.426Z" fill="#000"/>
<path fill-rule="evenodd" clip-rule="evenodd" d="M159.92 122.56L150.938 121.998C150.386 121.964 149.967 121.489 150.002 120.938L150.563 111.955C150.598 111.404 151.072 110.985 151.624 111.02C152.175 111.054 152.594 111.529 152.559 112.08L152.149 118.653L201.338 75.2504L202.662 76.75L153.472 120.153L160.045 120.564C160.596 120.598 161.015 121.073 160.98 121.624C160.946 122.175 160.471 122.594 159.92 122.56Z" fill="#000"/>
</svg>
