<svg width="345" height="345" viewBox="0 0 345 345" fill="none" xmlns="http://www.w3.org/2000/svg">
<path d="M159.24 92.08C157.92 98.02 157.26 102.64 156.38 107.48C153.52 132.12 143.62 199.88 143.62 223.64C143.62 244.98 155.72 257.96 180.8 257.96C214.24 257.96 235.58 243.44 235.58 220.56C235.58 205.82 227.66 189.54 211.38 175.9L230.74 171.72C245.92 188.44 253.4 203.84 253.4 222.54C253.4 255.32 224.14 275.34 180.58 275.34C150.88 275.34 126.68 262.14 126.68 226.28C126.68 202.74 137.02 136.96 139.44 106.6C140.1 98.9 140.1 94.94 139.66 90.98L159.24 92.08ZM88.84 121.34C107.32 127.28 133.72 130.14 153.3 130.14C170.02 130.14 185.2 129.26 198.18 127.28L197.74 144C183.66 145.32 170.68 145.98 152.86 145.98C133.5 145.98 107.1 142.68 87.74 137.4L88.84 121.34ZM83.34 176.12C104.68 183.6 130.42 185.58 150.66 185.58C165.84 185.58 181.02 185.14 196.42 182.94L196.2 199.66C181.46 201.2 167.82 201.64 153.08 201.64C129.1 201.64 102.48 199 82.46 192.84L83.34 176.12Z" fill="#f00"/>
<path d="M94.2832 100.525C94.2832 99.4071 94.6706 98.494 95.4453 97.7856C96.2256 97.0773 97.23 96.7231 98.4585 96.7231C99.6427 96.7231 100.617 97.0469 101.38 97.6943C102.15 98.3418 102.534 99.1663 102.534 100.168C102.534 100.81 102.34 101.446 101.953 102.077C101.566 102.702 100.863 103.519 99.8447 104.526L97.3379 107.041V107.182H102.717V109H94.3994V107.514L98.3921 103.43C99.2111 102.6 99.7562 101.978 100.027 101.562C100.299 101.142 100.434 100.721 100.434 100.301C100.434 99.7751 100.24 99.3407 99.853 98.9976C99.4712 98.6545 98.9842 98.4829 98.3921 98.4829C97.7668 98.4829 97.2604 98.6711 96.873 99.0474C96.4857 99.4237 96.292 99.9162 96.292 100.525V100.558H94.2832V100.525Z" fill="#000"/>
<path d="M85.439 160.688V159.027H86.8999C87.5086 159.027 88.0039 158.861 88.3857 158.529C88.7676 158.192 88.9585 157.755 88.9585 157.218C88.9585 156.687 88.7703 156.263 88.394 155.948C88.0233 155.627 87.5252 155.466 86.8999 155.466C86.2801 155.466 85.7765 155.63 85.3892 155.956C85.0073 156.283 84.797 156.728 84.7583 157.292H82.7578C82.8132 156.191 83.2171 155.322 83.9697 154.686C84.7223 154.044 85.7212 153.723 86.9663 153.723C88.1284 153.723 89.0941 154.028 89.8633 154.636C90.638 155.239 91.0254 156 91.0254 156.919C91.0254 157.622 90.8289 158.222 90.436 158.72C90.0487 159.218 89.5229 159.536 88.8589 159.675V159.816C89.6779 159.91 90.3226 160.217 90.793 160.737C91.2689 161.257 91.5068 161.916 91.5068 162.713C91.5068 163.742 91.0752 164.597 90.2119 165.278C89.3542 165.958 88.2751 166.299 86.9746 166.299C85.6852 166.299 84.6338 165.97 83.8203 165.311C83.0124 164.653 82.5807 163.775 82.5254 162.68H84.5757C84.62 163.233 84.8607 163.676 85.2979 164.008C85.735 164.334 86.2995 164.498 86.9912 164.498C87.6774 164.498 88.2363 164.32 88.668 163.966C89.1051 163.607 89.3237 163.145 89.3237 162.58C89.3237 161.993 89.1107 161.531 88.6846 161.194C88.2585 160.856 87.6774 160.688 86.9414 160.688H85.439Z" fill="#000"/>
<path fill-rule="evenodd" clip-rule="evenodd" d="M129.343 106.929L135.707 113.293C136.098 113.683 136.098 114.316 135.707 114.707L129.343 121.071C128.953 121.461 128.319 121.461 127.929 121.071C127.538 120.68 127.538 120.047 127.929 119.657L132.586 115L93 115L93 113L132.586 113L127.929 108.343C127.538 107.952 127.538 107.319 127.929 106.929C128.319 106.538 128.953 106.538 129.343 106.929Z" fill="#000"/>
<path fill-rule="evenodd" clip-rule="evenodd" d="M117.343 163.929L123.707 170.293C124.098 170.683 124.098 171.316 123.707 171.707L117.343 178.071C116.953 178.461 116.319 178.461 115.929 178.071C115.538 177.68 115.538 177.047 115.929 176.657L120.586 172L81 172L81 170L120.586 170L115.929 165.343C115.538 164.952 115.538 164.319 115.929 163.929C116.319 163.538 116.953 163.538 117.343 163.929Z" fill="#000"/>
<path fill-rule="evenodd" clip-rule="evenodd" d="M172.905 120.582L165.581 125.814C165.132 126.135 164.507 126.03 164.186 125.581L158.955 118.257C158.634 117.808 158.738 117.183 159.188 116.862C159.637 116.541 160.261 116.646 160.582 117.095L164.41 122.454L171.014 82.8354L172.986 83.1642L166.383 122.783L171.742 118.955C172.192 118.634 172.816 118.738 173.137 119.187C173.458 119.637 173.354 120.261 172.905 120.582Z" fill="#000"/>
<path d="M179.121 93.978V84.1582H178.98L176 86.25V84.1914L179.129 82H181.263V93.978H179.121Z" fill="#000"/>
</svg>
