<svg width="345" height="345" viewBox="0 0 345 345" fill="none" xmlns="http://www.w3.org/2000/svg">
<path d="M181.02 92.2998C180.14 97.1398 179.48 107.7 179.26 114.3C179.26 124.2 179.26 139.38 179.26 154.56C179.26 178.54 182.78 222.54 182.78 241.9C182.78 259.72 171.78 275.12 142.52 275.12C111.94 275.12 89.7197 265.66 89.7197 240.58C89.7197 220.56 106.88 204.5 144.94 204.5C188.5 204.5 227.66 226.5 250.1 246.96L239.54 263.46C217.54 241.46 181.46 219.9 142.96 219.9C120.08 219.9 107.1 227.6 107.1 239.92C107.1 252.02 119.42 258.84 140.76 258.84C156.82 258.84 164.74 251.14 164.74 235.96C164.74 219.68 162.1 177 162.1 154.56C162.1 141.8 161.88 123.76 161.88 114.3C161.66 106.16 161 96.4798 160.12 92.2998H181.02ZM169.58 136.74C184.76 136.74 220.62 135.64 244.38 132.78L245.04 149.28C221.28 151.48 185.42 153.02 169.58 153.02V136.74Z" fill="#f00"/>
<path d="M195.425 118V108.18H195.284L192.304 110.272V108.213L195.433 106.022H197.566V118H195.425Z" fill="#000"/>
<path d="M135.283 92.5249C135.283 91.4071 135.671 90.494 136.445 89.7856C137.226 89.0773 138.23 88.7231 139.458 88.7231C140.643 88.7231 141.617 89.0469 142.38 89.6943C143.15 90.3418 143.534 91.1663 143.534 92.168C143.534 92.8099 143.34 93.4463 142.953 94.0771C142.566 94.7025 141.863 95.5187 140.845 96.5259L138.338 99.041V99.1821H143.717V101H135.399V99.5142L139.392 95.4302C140.211 94.6001 140.756 93.9775 141.027 93.5625C141.299 93.1419 141.434 92.7214 141.434 92.3008C141.434 91.7751 141.24 91.3407 140.853 90.9976C140.471 90.6545 139.984 90.4829 139.392 90.4829C138.767 90.4829 138.26 90.6711 137.873 91.0474C137.486 91.4237 137.292 91.9162 137.292 92.5249V92.5581H135.283V92.5249Z" fill="#000"/>
<path fill-rule="evenodd" clip-rule="evenodd" d="M232.343 115.929L238.707 122.293C239.098 122.684 239.098 123.317 238.707 123.707L232.343 130.071C231.953 130.462 231.319 130.462 230.929 130.071C230.538 129.681 230.538 129.048 230.929 128.657L235.586 124L192 124L192 122L235.586 122L230.929 117.343C230.538 116.953 230.538 116.32 230.929 115.929C231.319 115.539 231.953 115.539 232.343 115.929Z" fill="#000"/>
<path fill-rule="evenodd" clip-rule="evenodd" d="M251.69 224.04L253.967 232.747C254.107 233.282 253.787 233.828 253.253 233.968L244.546 236.245C244.011 236.385 243.465 236.065 243.325 235.531C243.185 234.996 243.505 234.45 244.039 234.31L250.411 232.644L211.494 209.863L212.505 208.137L251.421 230.918L249.755 224.546C249.615 224.012 249.935 223.465 250.469 223.326C251.004 223.186 251.55 223.506 251.69 224.04Z" fill="#000"/>
<path fill-rule="evenodd" clip-rule="evenodd" d="M158.071 130.343L151.707 136.707C151.317 137.098 150.684 137.098 150.293 136.707L143.929 130.343C143.539 129.953 143.539 129.319 143.929 128.929C144.32 128.538 144.953 128.538 145.343 128.929L150 133.586L150 90L152 90L152 133.586L156.657 128.929C157.048 128.538 157.681 128.538 158.071 128.929C158.462 129.319 158.462 129.953 158.071 130.343Z" fill="#000"/>
<path fill-rule="evenodd" clip-rule="evenodd" d="M91.5413 208.001C92.0931 208.024 92.5219 208.489 92.4991 209.041L92.1276 218.034C92.1048 218.585 91.6389 219.014 91.0871 218.991C90.5353 218.969 90.1065 218.503 90.1293 217.951L90.3978 211.453C76.6388 225.381 75.2994 242.796 80.8646 256.563C86.6874 270.967 99.9601 281.19 114.384 279.507L114.616 281.493C99.0398 283.31 85.0625 272.283 79.0104 257.312C73.1536 242.824 74.6166 224.468 89.1187 209.902L82.4664 209.628C81.9146 209.605 81.4857 209.139 81.5085 208.587C81.5313 208.035 81.9971 207.606 82.549 207.629L91.5413 208.001Z" fill="#000"/>
</svg>
