<svg width="345" height="345" viewBox="0 0 345 345" fill="none" xmlns="http://www.w3.org/2000/svg">
<path d="M177.06 109.24C175.74 104.4 173.76 97.8002 171.56 91.8602L190.48 89.6602C192.46 102.42 198.18 121.34 203.24 135.64C210.06 154.56 221.28 175.02 230.74 187.78C233.6 192.18 236.9 195.92 240.2 199.44L231.4 211.98C220.84 209.34 194 206.92 178.16 205.82L179.48 191.3C191.8 192.4 208.08 193.72 216 194.6C206.76 180.52 194.66 158.74 187.4 138.72C182.56 126.18 179.48 116.06 177.06 109.24ZM96.54 126.4C133.28 130.58 168.04 130.8 193.12 128.16C210.5 126.18 232.28 122.22 249.44 116.28L251.42 133.66C235.8 138.06 214.9 141.58 198.84 143.56C170.9 146.86 135.92 147.08 96.98 143.78L96.54 126.4ZM130.64 196.36C124.04 207.14 120.08 216.6 120.08 226.94C120.08 248.06 139.22 257.08 172 257.52C194.22 257.52 213.36 255.32 228.54 252.02L227.88 269.62C214.02 272.04 195.54 274.46 170.9 274.24C129.1 274.02 102.7 259.06 102.7 229.14C102.7 216.82 107.1 205.38 113.48 192.4L130.64 196.36Z" fill="#f00"/>
<path d="M99.4258 110V100.18H99.2847L96.3047 102.272V100.213L99.4341 98.022H101.567V110H99.4258Z" fill="#000"/>
<path d="M205.283 74.5249C205.283 73.4071 205.671 72.494 206.445 71.7856C207.226 71.0773 208.23 70.7231 209.458 70.7231C210.643 70.7231 211.617 71.0469 212.38 71.6943C213.15 72.3418 213.534 73.1663 213.534 74.168C213.534 74.8099 213.34 75.4463 212.953 76.0771C212.566 76.7025 211.863 77.5187 210.845 78.5259L208.338 81.041V81.1821H213.717V83H205.399V81.5142L209.392 77.4302C210.211 76.6001 210.756 75.9775 211.027 75.5625C211.299 75.1419 211.434 74.7214 211.434 74.3008C211.434 73.7751 211.24 73.3407 210.853 72.9976C210.471 72.6545 209.984 72.4829 209.392 72.4829C208.767 72.4829 208.26 72.6711 207.873 73.0474C207.486 73.4237 207.292 73.9162 207.292 74.5249V74.5581H205.283V74.5249Z" fill="#000"/>
<path fill-rule="evenodd" clip-rule="evenodd" d="M136.343 107.929L142.707 114.293C143.098 114.684 143.098 115.317 142.707 115.707L136.343 122.071C135.953 122.462 135.319 122.462 134.929 122.071C134.538 121.681 134.538 121.048 134.929 120.657L139.586 116L96 116L96 114L139.586 114L134.929 109.343C134.538 108.953 134.538 108.32 134.929 107.929C135.319 107.539 135.953 107.539 136.343 107.929Z" fill="#000"/>
<path fill-rule="evenodd" clip-rule="evenodd" d="M214.864 109.518L210.958 117.626C210.718 118.124 210.121 118.333 209.623 118.093L201.515 114.187C201.017 113.947 200.808 113.349 201.048 112.852C201.288 112.354 201.885 112.145 202.383 112.385L208.316 115.243L195.056 77.3301L196.944 76.6698L210.204 114.583L213.062 108.65C213.302 108.152 213.9 107.943 214.397 108.183C214.895 108.423 215.104 109.02 214.864 109.518Z" fill="#000"/>
<path fill-rule="evenodd" clip-rule="evenodd" d="M93.734 230.536L87.2286 229.01C86.6909 228.883 86.1528 229.217 86.0266 229.755C85.9005 230.293 86.2342 230.831 86.7719 230.957L95.534 233.012C96.0717 233.138 96.6099 232.805 96.736 232.267L98.7913 223.505C98.9174 222.967 98.5838 222.429 98.0461 222.303C97.5084 222.177 96.9702 222.51 96.8441 223.048L95.3662 229.349C89.0763 217.565 89.6057 203.718 97.521 194.503C105.896 184.752 122.893 179.801 149.957 188.491L150.568 186.587C123.132 177.777 105.128 182.576 96.0038 193.2C87.3844 203.235 87.0028 218.123 93.734 230.536Z" fill="#000"/>
</svg>
