<svg width="345" height="345" viewBox="0 0 345 345" fill="none" xmlns="http://www.w3.org/2000/svg">
<path d="M191.58 93.4C190.7 98.9 189.82 106.6 189.38 111C186.52 134.1 183.22 161.38 174.64 185.58C160.56 225.4 135.04 262.8 106.44 262.8C90.6003 262.8 78.2803 250.04 78.2803 228.7C78.2803 206.04 86.2003 187.12 96.7603 172.38C113.26 148.84 144.72 122.88 190.48 122.88C226.12 122.88 256.48 146.86 256.48 187.56C256.48 234.2 240.2 268.3 203.68 268.3C182.78 268.3 169.36 257.52 169.36 239.7C169.36 224.52 183.44 210.44 203.68 210.44C237.12 210.44 260.88 233.1 274.3 248.5L263.74 262.14C252.08 248.06 231.18 223.86 204.34 223.86C191.14 223.86 184.32 231.12 184.32 238.38C184.32 247.18 191.36 253.12 203.02 253.12C229.64 253.12 239.76 220.78 239.76 188.22C239.76 159.84 221.72 137.62 189.16 137.62C153.3 137.84 126.46 156.54 109.96 180.96C100.06 195.48 94.1203 210.66 94.1203 226.28C94.1203 237.28 100.28 245.2 107.1 245.2C125.14 245.2 146.7 215.94 159.46 180.52C166.94 158.96 171.12 129.7 172.44 111.22C172.66 103.52 172.88 99.34 172.22 92.96L191.58 93.4ZM107.32 112.76C112.6 138.06 125.36 169.74 132.62 185.14C138.78 198.56 146.26 210.66 154.18 220.56L143.62 233.98C136.36 225.84 127.78 212.42 120.96 198.34C113.92 184.04 104.46 158.52 98.9603 142.24C96.5403 134.32 94.5603 128.16 90.8203 119.36L107.32 112.76Z" fill="#f00"/>
<path d="M122.426 109V99.1802H122.285L119.305 101.272V99.2134L122.434 97.022H124.567V109H122.426Z" fill="#000"/>
<path d="M208.283 90.5249C208.283 89.4071 208.671 88.494 209.445 87.7856C210.226 87.0773 211.23 86.7231 212.458 86.7231C213.643 86.7231 214.617 87.0469 215.38 87.6943C216.15 88.3418 216.534 89.1663 216.534 90.168C216.534 90.8099 216.34 91.4463 215.953 92.0771C215.566 92.7025 214.863 93.5187 213.845 94.5259L211.338 97.041V97.1821H216.717V99H208.399V97.5142L212.392 93.4302C213.211 92.6001 213.756 91.9775 214.027 91.5625C214.299 91.1419 214.434 90.7214 214.434 90.3008C214.434 89.7751 214.24 89.3407 213.853 88.9976C213.471 88.6545 212.984 88.4829 212.392 88.4829C211.767 88.4829 211.26 88.6711 210.873 89.0474C210.486 89.4237 210.292 89.9162 210.292 90.5249V90.5581H208.283V90.5249Z" fill="#000"/>
<path fill-rule="evenodd" clip-rule="evenodd" d="M128.223 128.487L124.092 136.482C123.838 136.973 123.235 137.165 122.744 136.912L114.749 132.78C114.258 132.526 114.066 131.923 114.319 131.432C114.573 130.942 115.176 130.75 115.667 131.003L121.518 134.026L112.047 104.304L113.953 103.697L123.423 133.419L126.447 127.569C126.7 127.078 127.303 126.886 127.794 127.139C128.285 127.393 128.477 127.996 128.223 128.487Z" fill="#000"/>
<path fill-rule="evenodd" clip-rule="evenodd" d="M206.737 114.295L199.611 119.792C199.174 120.129 198.546 120.048 198.209 119.611L192.711 112.485C192.374 112.047 192.455 111.42 192.892 111.082C193.33 110.745 193.958 110.826 194.295 111.263L198.317 116.478L202.009 87.872L203.992 88.128L200.301 116.734L205.516 112.711C205.953 112.374 206.581 112.455 206.918 112.892C207.255 113.329 207.174 113.957 206.737 114.295Z" fill="#000"/>
<path fill-rule="evenodd" clip-rule="evenodd" d="M72.0689 201.071C72.5817 200.866 73.1637 201.116 73.3687 201.629L76.7098 209.985C76.9148 210.498 76.6653 211.08 76.1524 211.285C75.6396 211.49 75.0577 211.241 74.8527 210.728L72.4217 204.647C61.5019 231.732 66.2309 251.367 76.8431 262.562C87.7924 274.112 105.181 276.906 119.034 269.615L119.966 271.385C105.319 279.093 86.9574 276.138 75.3917 263.938C64.08 252.006 59.4349 231.448 70.6024 203.811L64.4545 206.269C63.9417 206.474 63.3598 206.225 63.1547 205.712C62.9497 205.199 63.1992 204.617 63.712 204.412L72.0689 201.071Z" fill="#000"/>
</svg>
