<svg width="345" height="345" viewBox="0 0 345 345" fill="none" xmlns="http://www.w3.org/2000/svg">
<path d="M113.04 104.62C117 105.06 122.28 105.28 128.44 105.28C139.88 105.28 190.26 103.96 204.12 103.08C207.86 102.86 213.14 101.98 216.44 101.1L226.78 114.08C223.92 115.4 219.52 118.7 217.1 120.24C200.82 133.88 174.64 155.66 156.38 170.4C168.26 166 179.04 164.68 187.84 164.68C224.14 164.68 249.22 185.14 249.22 215.06C249.22 257.08 207.86 279.74 134.82 274.02L129.98 255.98C190.92 263.46 230.96 247.4 230.96 214.84C230.96 193.72 212.92 179.2 184.54 179.2C146.7 179.2 126.68 198.56 98.96 224.74L85.54 211.1C117.88 186.02 175.74 137.4 194.66 118.48C181.02 119.14 139.88 120.68 128.88 121.34C124.04 121.78 117.88 122.44 113.48 122.88L113.04 104.62Z" fill="#f00"/>
<path d="M122.426 88V78.1802H122.285L119.305 80.272V78.2134L122.434 76.022H124.567V88H122.426Z" fill="#000"/>
<path fill-rule="evenodd" clip-rule="evenodd" d="M159.343 85.9291L165.707 92.2931C166.098 92.6836 166.098 93.3168 165.707 93.7073L159.343 100.071C158.953 100.462 158.319 100.462 157.929 100.071C157.538 99.6807 157.538 99.0476 157.929 98.657L162.586 94.0002L119 94.0002L119 92.0002L162.586 92.0002L157.929 87.3433C157.538 86.9528 157.538 86.3197 157.929 85.9291C158.319 85.5386 158.953 85.5386 159.343 85.9291Z" fill="#000"/>
<path fill-rule="evenodd" clip-rule="evenodd" d="M257.365 188.674C248.739 173.194 232.791 163.819 220.696 159.952L221.305 158.047C233.71 162.014 250.162 171.639 259.112 187.701C267.897 203.466 269.336 225.219 253.071 253.451L259.49 251.847C260.025 251.713 260.568 252.039 260.702 252.575C260.836 253.11 260.51 253.653 259.975 253.787L251.243 255.97C250.708 256.104 250.165 255.778 250.031 255.242L247.848 246.511C247.714 245.975 248.04 245.432 248.575 245.298C249.111 245.164 249.654 245.49 249.788 246.026L251.378 252.385C267.325 224.667 265.732 203.691 257.365 188.674Z" fill="#000"/>
<path fill-rule="evenodd" clip-rule="evenodd" d="M78.4374 200.933C81.8529 193.516 87.5798 186.935 95.1458 184.065L95.8551 185.935C88.9211 188.565 83.523 194.671 80.2541 201.77C76.9828 208.874 75.9205 216.808 77.482 222.941C78.2599 225.996 79.677 228.563 81.7514 230.387C83.8159 232.201 86.5976 233.338 90.2243 233.43C97.2164 233.608 107.319 229.897 121.05 219.677L114.546 218.831C113.999 218.76 113.612 218.258 113.684 217.711C113.755 217.163 114.257 216.777 114.804 216.848L123.729 218.008C124.277 218.079 124.663 218.581 124.592 219.129L123.431 228.054C123.36 228.601 122.859 228.988 122.311 228.916C121.763 228.845 121.377 228.344 121.448 227.796L122.301 221.239C108.419 231.582 97.8483 235.625 90.1734 235.429C86.1298 235.326 82.8842 234.045 80.4311 231.889C77.988 229.741 76.3972 226.786 75.5439 223.434C73.8429 216.754 75.0243 208.345 78.4374 200.933Z" fill="#000"/>
</svg>
