<svg width="345" height="345" viewBox="0 0 345 345" fill="none" xmlns="http://www.w3.org/2000/svg">
<path d="M136.361 91.4198C131.741 107.7 127.561 137.4 126.241 152.8C135.261 130.14 158.141 102.64 186.081 102.64C215.121 102.64 236.241 132.12 236.241 178.32C236.241 239.26 197.741 266.32 143.401 276.22L132.841 260.38C180.801 253.12 217.981 233.76 217.981 178.54C217.981 143.78 206.321 118.7 183.221 118.7C155.721 118.7 130.201 158.74 127.561 187.56C126.461 195.92 126.461 203.62 128.001 214.62L110.841 215.94C109.741 207.58 108.641 195.26 108.641 180.96C108.641 160.06 112.821 127.72 115.461 109.68C116.341 103.08 116.781 96.9198 117.221 90.7598L136.361 91.4198Z" fill="#f00"/>
<path d="M93.4258 100V90.1802H93.2847L90.3047 92.272V90.2134L93.4341 88.022H95.5674V100H93.4258Z" fill="#000"/>
<path d="M182.283 70.5249C182.283 69.4071 182.671 68.494 183.445 67.7856C184.226 67.0773 185.23 66.7231 186.458 66.7231C187.643 66.7231 188.617 67.0469 189.38 67.6943C190.15 68.3418 190.534 69.1663 190.534 70.168C190.534 70.8099 190.34 71.4463 189.953 72.0771C189.566 72.7025 188.863 73.5187 187.845 74.5259L185.338 77.041V77.1821H190.717V79H182.399V77.5142L186.392 73.4302C187.211 72.6001 187.756 71.9775 188.027 71.5625C188.299 71.1419 188.434 70.7214 188.434 70.3008C188.434 69.7751 188.24 69.3407 187.853 68.9976C187.471 68.6545 186.984 68.4829 186.392 68.4829C185.767 68.4829 185.26 68.6711 184.873 69.0474C184.486 69.4237 184.292 69.9162 184.292 70.5249V70.5581H182.283V70.5249Z" fill="#000"/>
<path fill-rule="evenodd" clip-rule="evenodd" d="M110.071 128.343L103.707 134.707C103.317 135.098 102.684 135.098 102.293 134.707L95.9292 128.343C95.5387 127.953 95.5387 127.319 95.9292 126.929C96.3198 126.538 96.9529 126.538 97.3434 126.929L102 131.586L102 88L104 88L104 131.586L108.657 126.929C109.048 126.538 109.681 126.538 110.071 126.929C110.462 127.319 110.462 127.953 110.071 128.343Z" fill="#000"/>
<path fill-rule="evenodd" clip-rule="evenodd" d="M222.43 105.657C209.444 93.0993 192.873 90.0002 178.5 90L178.5 88C193.127 88.0002 210.306 91.151 223.82 104.219C237.057 117.018 246.597 139.157 246.988 176.598L251.657 171.929C252.047 171.539 252.681 171.539 253.071 171.929C253.462 172.32 253.462 172.953 253.071 173.343L246.707 179.707C246.317 180.098 245.683 180.098 245.293 179.707L238.929 173.343C238.538 172.953 238.538 172.32 238.929 171.929C239.319 171.539 239.953 171.539 240.343 171.929L244.987 176.573C244.593 139.466 235.138 117.945 222.43 105.657Z" fill="#000"/>
</svg>
