<svg width="345" height="345" viewBox="0 0 345 345" fill="none" xmlns="http://www.w3.org/2000/svg">
<path d="M130.64 91.6396C154.4 96.9196 196.42 101.98 217.54 103.08L215.12 119.36C193.12 117.38 154.62 112.54 127.78 107.7L130.64 91.6396ZM221.94 154.56C217.76 157.42 212.26 162.04 209.62 164.24C201.26 171.94 176.62 195.04 168.26 203.62C170.68 203.4 174.64 203.4 177.06 204.06C185.42 204.94 190.48 210.66 193.56 219.68C195.76 226.06 198.84 237.28 201.04 244.32C203.68 252.68 208.74 256.42 220.18 256.42C234.48 256.42 251.2 254.44 261.76 251.8L260.44 270.28C251.2 272.04 230.96 273.58 219.3 273.58C201.48 273.58 190.7 269.4 185.86 254.88C183.66 248.28 180.58 235.3 178.38 229.14C175.96 221.44 171.12 217.26 164.96 217.26C159.02 217.26 153.74 220.34 148.68 225.4C140.54 233.1 116.56 258.4 104.02 274.24L87.2998 262.58C90.1598 260.38 94.1198 256.86 98.2998 252.68C107.32 243.88 167.16 183.82 188.72 162.26C171.34 163.14 134.38 166.44 120.96 167.54C113.7 167.98 107.98 168.86 103.36 169.52L101.82 150.38C106.88 150.82 113.26 150.82 120.3 150.82C133.06 150.38 184.1 147.08 200.82 144.88C204.56 144.44 209.18 143.34 211.38 142.46L221.94 154.56Z" fill="#f00"/>
<path d="M93.2832 118.525C93.2832 117.407 93.6706 116.494 94.4453 115.786C95.2256 115.077 96.23 114.723 97.4585 114.723C98.6427 114.723 99.6167 115.047 100.38 115.694C101.15 116.342 101.534 117.166 101.534 118.168C101.534 118.81 101.34 119.446 100.953 120.077C100.566 120.702 99.863 121.519 98.8447 122.526L96.3379 125.041V125.182H101.717V127H93.3994V125.514L97.3921 121.43C98.2111 120.6 98.7562 119.978 99.0273 119.562C99.2985 119.142 99.4341 118.721 99.4341 118.301C99.4341 117.775 99.2404 117.341 98.853 116.998C98.4712 116.654 97.9842 116.483 97.3921 116.483C96.7668 116.483 96.2604 116.671 95.873 117.047C95.4857 117.424 95.292 117.916 95.292 118.525V118.558H93.2832V118.525Z" fill="#000"/>
<path fill-rule="evenodd" clip-rule="evenodd" d="M136.343 130.929L142.707 137.293C143.098 137.683 143.098 138.316 142.707 138.707L136.343 145.071C135.953 145.461 135.319 145.461 134.929 145.071C134.538 144.68 134.538 144.047 134.929 143.657L139.586 139H86V137H139.586L134.929 132.343C134.538 131.952 134.538 131.319 134.929 130.929C135.319 130.538 135.953 130.538 136.343 130.929Z" fill="#000"/>
<path d="M139.913 72.978V63.1582H139.772L136.792 65.25V63.1914L139.921 61H142.055V72.978H139.913Z" fill="#000"/>
<path fill-rule="evenodd" clip-rule="evenodd" d="M176.427 79.203L181.374 86.7214C181.677 87.1828 181.549 87.8029 181.088 88.1064L173.57 93.0535C173.108 93.3571 172.488 93.2291 172.185 92.7678C171.881 92.3064 172.009 91.6863 172.47 91.3827L177.972 87.7627L135.285 78.9571L135.689 76.9984L178.376 85.8039L174.756 80.3023C174.452 79.8409 174.58 79.2208 175.042 78.9172C175.503 78.6137 176.123 78.7416 176.427 79.203Z" fill="#000"/>
<path fill-rule="evenodd" clip-rule="evenodd" d="M231.635 142.377C227.405 135.092 217.672 130.82 205.792 134.456L205.207 132.544C217.828 128.68 228.595 133.158 233.365 141.373C237.896 149.176 236.828 160.007 227.368 169.614L234.038 169.94C234.589 169.967 235.015 170.436 234.988 170.987C234.961 171.539 234.492 171.964 233.94 171.937L224.951 171.499C224.399 171.472 223.974 171.003 224.001 170.451L224.439 161.462C224.466 160.91 224.935 160.485 225.487 160.512C226.039 160.539 226.464 161.008 226.437 161.559L226.121 168.029C234.917 158.983 235.592 149.193 231.635 142.377Z" fill="#000"/>
<path fill-rule="evenodd" clip-rule="evenodd" d="M76.9 265.899C76.5555 260.427 77.3876 254.673 79.0509 249.684L80.9483 250.316C79.3615 255.076 78.5687 260.573 78.8961 265.773C79.224 270.982 80.6692 275.807 83.4686 279.313C86.2381 282.783 90.3986 285.048 96.3861 285.07C101.989 285.091 109.217 283.145 118.366 278.298L112.065 276.526C111.533 276.376 111.224 275.824 111.373 275.292C111.523 274.761 112.075 274.451 112.606 274.6L121.27 277.037C121.802 277.187 122.112 277.739 121.962 278.271L119.526 286.934C119.376 287.466 118.824 287.776 118.292 287.626C117.76 287.477 117.451 286.925 117.6 286.393L119.394 280.016C110.035 284.987 102.445 287.093 96.3787 287.07C89.8193 287.046 85.0736 284.53 81.9056 280.561C78.7674 276.63 77.2439 271.361 76.9 265.899Z" fill="#000"/>
</svg>
