<svg width="345" height="345" viewBox="0 0 345 345" fill="none" xmlns="http://www.w3.org/2000/svg">
<path d="M187.84 90.54C187.4 94.28 186.96 98.68 186.74 105.28C186.3 114.08 186.3 143.56 186.3 162.04C186.3 191.08 189.6 229.58 189.6 244.32C189.6 259.72 179.48 275.34 150.88 275.34C119.2 275.34 101.82 264.12 101.82 242.78C101.82 222.76 120.96 209.34 152.64 209.34C199.06 209.34 235.36 234.42 252.3 248.28L242.18 263.9C222.38 245.64 189.82 223.64 150.66 223.64C129.54 223.64 118.32 231.78 118.32 241.9C118.32 252.24 126.9 259.72 148.68 259.72C161.44 259.72 172.22 255.98 172.22 240.58C172.22 223.64 170.02 181.4 170.02 162.04C170.02 142.24 170.02 119.14 170.02 103.74C170.02 100 169.8 93.4 169.14 90.54H187.84ZM103.8 114.3C117.88 116.94 145.38 119.14 159.9 119.14C187.84 119.14 217.32 117.16 245.92 112.54V128.6C221.06 131.46 189.6 134.32 160.12 134.32C144.94 134.32 117.88 132.34 104.02 130.58L103.8 114.3ZM102.7 161.16C118.32 163.58 143.4 165.12 157.92 165.12C189.82 165.12 219.08 162.92 247.68 158.74V175.24C217.76 178.98 190.92 180.52 157.92 180.52C142.74 180.52 118.54 179.42 102.92 177.66L102.7 161.16Z" fill="#f00"/>
<path d="M106.426 100V90.1802H106.285L103.305 92.272V90.2134L106.434 88.022H108.567V100H106.426Z" fill="#000"/>
<path d="M102.283 141.525C102.283 140.407 102.671 139.494 103.445 138.786C104.226 138.077 105.23 137.723 106.458 137.723C107.643 137.723 108.617 138.047 109.38 138.694C110.15 139.342 110.534 140.166 110.534 141.168C110.534 141.81 110.34 142.446 109.953 143.077C109.566 143.702 108.863 144.519 107.845 145.526L105.338 148.041V148.182H110.717V150H102.399V148.514L106.392 144.43C107.211 143.6 107.756 142.978 108.027 142.562C108.299 142.142 108.434 141.721 108.434 141.301C108.434 140.775 108.24 140.341 107.853 139.998C107.471 139.654 106.984 139.483 106.392 139.483C105.767 139.483 105.26 139.671 104.873 140.047C104.486 140.424 104.292 140.916 104.292 141.525V141.558H102.283V141.525Z" fill="#000"/>
<path d="M205.44 78.6875V77.0273H206.901C207.51 77.0273 208.005 76.8613 208.387 76.5293C208.769 76.1917 208.959 75.7546 208.959 75.2178C208.959 74.6865 208.771 74.2632 208.395 73.9478C208.024 73.6268 207.526 73.4663 206.901 73.4663C206.281 73.4663 205.778 73.6296 205.39 73.9561C205.008 74.2826 204.798 74.728 204.759 75.2925H202.759C202.814 74.1912 203.218 73.3224 203.971 72.686C204.723 72.0441 205.722 71.7231 206.967 71.7231C208.129 71.7231 209.095 72.0275 209.864 72.6362C210.639 73.2394 211.026 74.0003 211.026 74.9189C211.026 75.6217 210.83 76.2222 210.437 76.7202C210.05 77.2183 209.524 77.5365 208.86 77.6748V77.8159C209.679 77.91 210.324 78.2171 210.794 78.7373C211.27 79.2575 211.508 79.916 211.508 80.7129C211.508 81.7422 211.076 82.5972 210.213 83.2778C209.355 83.9585 208.276 84.2988 206.976 84.2988C205.686 84.2988 204.635 83.9696 203.821 83.311C203.013 82.6525 202.582 81.7754 202.526 80.6797H204.577C204.621 81.2331 204.862 81.6758 205.299 82.0078C205.736 82.3343 206.3 82.4976 206.992 82.4976C207.678 82.4976 208.237 82.3205 208.669 81.9663C209.106 81.6066 209.325 81.1445 209.325 80.5801C209.325 79.9935 209.112 79.5314 208.686 79.1938C208.259 78.8563 207.678 78.6875 206.942 78.6875H205.44Z" fill="#000"/>
<path fill-rule="evenodd" clip-rule="evenodd" d="M143.343 97.9291L149.707 104.293C150.098 104.684 150.098 105.317 149.707 105.707L143.343 112.071C142.953 112.462 142.319 112.462 141.929 112.071C141.538 111.681 141.538 111.048 141.929 110.657L146.586 106L103 106L103 104L146.586 104L141.929 99.3433C141.538 98.9528 141.538 98.3197 141.929 97.9291C142.319 97.5386 142.953 97.5386 143.343 97.9291Z" fill="#000"/>
<path fill-rule="evenodd" clip-rule="evenodd" d="M203.071 107.343L196.707 113.707C196.317 114.098 195.684 114.098 195.293 113.707L188.929 107.343C188.539 106.953 188.539 106.319 188.929 105.929C189.32 105.538 189.953 105.538 190.343 105.929L195 110.586L195 78L197 78L197 110.586L201.657 105.929C202.048 105.538 202.681 105.538 203.071 105.929C203.462 106.319 203.462 106.953 203.071 107.343Z" fill="#000"/>
<path fill-rule="evenodd" clip-rule="evenodd" d="M143.343 147.929L149.707 154.293C150.098 154.684 150.098 155.317 149.707 155.707L143.343 162.071C142.953 162.462 142.319 162.462 141.929 162.071C141.538 161.681 141.538 161.048 141.929 160.657L146.586 156L103 156L103 154L146.586 154L141.929 149.343C141.538 148.953 141.538 148.32 141.929 147.929C142.319 147.539 142.953 147.539 143.343 147.929Z" fill="#000"/>
<path fill-rule="evenodd" clip-rule="evenodd" d="M100.807 214.019C101.349 213.912 101.875 214.265 101.981 214.807L103.718 223.638C103.825 224.18 103.472 224.706 102.93 224.812C102.388 224.919 101.863 224.566 101.756 224.024L100.495 217.611C89.6434 234.851 88.8216 250.545 94.4597 261.996C100.322 273.902 113.304 281.5 130 281.5V283.5C112.696 283.5 98.9278 275.598 92.6654 262.879C86.628 250.618 87.6919 234.14 98.87 216.438L92.3624 217.719C91.8205 217.825 91.2947 217.472 91.1881 216.93C91.0815 216.389 91.4344 215.863 91.9763 215.756L100.807 214.019Z" fill="#000"/>
</svg>
