<svg width="345" height="345" viewBox="0 0 345 345" fill="none" xmlns="http://www.w3.org/2000/svg">
<path d="M163.2 91.2002C161.22 99.7802 158.8 111.88 153.08 126.62C147.58 140.04 139.44 154.78 130.64 166.22C139.22 161.16 151.76 158.08 161.44 158.08C178.38 158.08 191.58 168.2 191.58 186.02C191.58 197.46 192.02 222.76 192.24 236.4H175.3C176.18 224.74 176.4 202.08 176.18 190.64C175.96 177.88 167.16 171.94 155.72 171.94C141.64 171.94 127.78 178.98 117.66 188C111.28 194.16 105.12 202.08 97.8597 211.1L82.6797 199.88C114.36 169.52 129.1 144 136.58 125.3C141.42 113.2 144.5 100 145.16 89.6602L163.2 91.2002ZM87.7397 114.96C99.6197 116.5 114.8 117.16 124.92 117.16C154.62 117.16 192.68 115.4 223.7 109.9V126.18C192.9 130.8 151.98 132.78 124.04 132.78C114.58 132.78 100.06 132.34 87.7397 131.46V114.96ZM255.82 167.98C250.32 169.74 242.4 172.82 236.46 175.02C220.84 181.18 199.94 189.54 178.6 200.54C156.82 211.98 141.42 223.86 141.42 239.04C141.42 256.2 158.36 258.84 181.02 258.84C198.18 258.84 221.94 256.86 241.3 253.34L240.64 271.16C223.92 273.14 199.5 274.9 180.36 274.9C149.12 274.9 123.82 268.08 123.82 241.46C123.82 214.62 151.1 198.12 177.28 184.7C198.18 173.92 216 167.1 230.52 160.28C237.12 157.2 242.62 154.78 248.78 151.7L255.82 167.98Z" fill="#f00"/>
<path d="M91.4258 100V90.1802H91.2847L88.3047 92.272V90.2134L91.4341 88.022H93.5674V100H91.4258Z" fill="#000"/>
<path d="M184.283 74.5249C184.283 73.4071 184.671 72.494 185.445 71.7856C186.226 71.0773 187.23 70.7231 188.458 70.7231C189.643 70.7231 190.617 71.0469 191.38 71.6943C192.15 72.3418 192.534 73.1663 192.534 74.168C192.534 74.8099 192.34 75.4463 191.953 76.0771C191.566 76.7025 190.863 77.5187 189.845 78.5259L187.338 81.041V81.1821H192.717V83H184.399V81.5142L188.392 77.4302C189.211 76.6001 189.756 75.9775 190.027 75.5625C190.299 75.1419 190.434 74.7214 190.434 74.3008C190.434 73.7751 190.24 73.3407 189.853 72.9976C189.471 72.6545 188.984 72.4829 188.392 72.4829C187.767 72.4829 187.26 72.6711 186.873 73.0474C186.486 73.4237 186.292 73.9162 186.292 74.5249V74.5581H184.283V74.5249Z" fill="#000"/>
<path d="M233.44 138.688V137.027H234.901C235.51 137.027 236.005 136.861 236.387 136.529C236.769 136.192 236.959 135.755 236.959 135.218C236.959 134.687 236.771 134.263 236.395 133.948C236.024 133.627 235.526 133.466 234.901 133.466C234.281 133.466 233.778 133.63 233.39 133.956C233.008 134.283 232.798 134.728 232.759 135.292H230.759C230.814 134.191 231.218 133.322 231.971 132.686C232.723 132.044 233.722 131.723 234.967 131.723C236.129 131.723 237.095 132.028 237.864 132.636C238.639 133.239 239.026 134 239.026 134.919C239.026 135.622 238.83 136.222 238.437 136.72C238.05 137.218 237.524 137.536 236.86 137.675V137.816C237.679 137.91 238.324 138.217 238.794 138.737C239.27 139.257 239.508 139.916 239.508 140.713C239.508 141.742 239.076 142.597 238.213 143.278C237.355 143.958 236.276 144.299 234.976 144.299C233.686 144.299 232.635 143.97 231.821 143.311C231.013 142.653 230.582 141.775 230.526 140.68H232.577C232.621 141.233 232.862 141.676 233.299 142.008C233.736 142.334 234.3 142.498 234.992 142.498C235.678 142.498 236.237 142.32 236.669 141.966C237.106 141.607 237.325 141.145 237.325 140.58C237.325 139.993 237.112 139.531 236.686 139.194C236.259 138.856 235.678 138.688 234.942 138.688H233.44Z" fill="#000"/>
<path fill-rule="evenodd" clip-rule="evenodd" d="M128.343 97.9291L134.707 104.293C135.098 104.684 135.098 105.317 134.707 105.707L128.343 112.071C127.953 112.462 127.319 112.462 126.929 112.071C126.538 111.681 126.538 111.048 126.929 110.657L131.586 106L88 106L88 104L131.586 104L126.929 99.3433C126.538 98.9528 126.538 98.3197 126.929 97.9291C127.319 97.5386 127.953 97.5386 128.343 97.9291Z" fill="#000"/>
<path fill-rule="evenodd" clip-rule="evenodd" d="M177.993 104.743L170.565 109.825C170.109 110.137 169.487 110.02 169.175 109.565L164.093 102.137C163.781 101.681 163.898 101.059 164.354 100.747C164.809 100.435 165.432 100.552 165.744 101.007L169.462 106.443L175.018 76.8156L176.983 77.1841L171.428 106.811L176.864 103.092C177.319 102.781 177.942 102.897 178.254 103.353C178.565 103.809 178.449 104.431 177.993 104.743Z" fill="#000"/>
<path fill-rule="evenodd" clip-rule="evenodd" d="M204.83 167.548L196.596 163.915C196.091 163.692 195.862 163.102 196.085 162.596L199.718 154.362C199.941 153.857 200.531 153.628 201.036 153.851C201.542 154.074 201.77 154.664 201.548 155.169L198.889 161.195L245.638 143.067L246.361 144.932L199.612 163.059L205.638 165.718C206.143 165.941 206.372 166.531 206.149 167.036C205.926 167.542 205.336 167.77 204.83 167.548Z" fill="#000"/>
<path fill-rule="evenodd" clip-rule="evenodd" d="M74.5046 203.054C75.1842 195.878 78.7599 187.231 86.2183 177.876L87.7821 179.123C80.4904 188.269 77.1287 196.559 76.4957 203.243C75.8632 209.922 77.9485 214.946 81.4991 217.781C85.0459 220.613 90.2565 221.421 96.2214 219.255C101.74 217.252 107.873 212.702 113.737 204.917L107.313 206.057C106.769 206.153 106.25 205.791 106.154 205.247C106.057 204.703 106.42 204.184 106.964 204.087L115.825 202.515C116.369 202.419 116.888 202.781 116.985 203.325L118.557 212.187C118.653 212.731 118.291 213.25 117.747 213.346C117.203 213.443 116.684 213.08 116.588 212.536L115.428 205.997C109.366 214.081 102.906 218.956 96.9039 221.135C90.4314 223.485 84.4544 222.7 80.2512 219.344C76.0518 215.991 73.8246 210.234 74.5046 203.054Z" fill="#000"/>
</svg>
