<svg width="345" height="345" viewBox="0 0 345 345" fill="none" xmlns="http://www.w3.org/2000/svg">
<path d="M135.48 92.52C154.4 98.68 201.26 107.7 220.84 109.68L216.66 126.4C195.54 123.54 148.02 113.86 131.08 109.46L135.48 92.52ZM130.64 132.78C127.78 147.74 123.82 180.3 121.62 194.6C142.74 176.12 166.94 167.54 193.34 167.54C227 167.54 249.44 187.78 249.44 213.74C249.44 252.9 214.46 279.52 132.84 272.7L127.56 254.88C197.08 263.24 230.96 243.22 230.96 213.08C230.96 195.7 214.46 183.16 192.02 183.16C163.2 183.16 139.44 193.94 124.04 212.64C120.74 216.38 118.76 219.9 117.44 223.42L100.94 219.46C105.34 199.44 110.84 153.24 112.16 130.36L130.64 132.78Z" fill="#f00"/>
<path d="M157.426 79V69.1802H157.285L154.305 71.272V69.2134L157.434 67.022H159.567V79H157.426Z" fill="#000"/>
<path d="M88.2832 131.525C88.2832 130.407 88.6706 129.494 89.4453 128.786C90.2256 128.077 91.23 127.723 92.4585 127.723C93.6427 127.723 94.6167 128.047 95.3804 128.694C96.1496 129.342 96.5342 130.166 96.5342 131.168C96.5342 131.81 96.3405 132.446 95.9531 133.077C95.5658 133.702 94.863 134.519 93.8447 135.526L91.3379 138.041V138.182H96.7168V140H88.3994V138.514L92.3921 134.43C93.2111 133.6 93.7562 132.978 94.0273 132.562C94.2985 132.142 94.4341 131.721 94.4341 131.301C94.4341 130.775 94.2404 130.341 93.853 129.998C93.4712 129.654 92.9842 129.483 92.3921 129.483C91.7668 129.483 91.2604 129.671 90.873 130.047C90.4857 130.424 90.292 130.916 90.292 131.525V131.558H88.2832V131.525Z" fill="#000"/>
<path fill-rule="evenodd" clip-rule="evenodd" d="M209.602 90.0842L214.815 97.4208C215.135 97.871 215.029 98.4953 214.579 98.8152L207.242 104.028C206.792 104.348 206.168 104.242 205.848 103.792C205.528 103.342 205.634 102.718 206.084 102.398L211.453 98.5831L148.833 87.986L149.167 86.014L211.786 96.6112L207.972 91.2426C207.652 90.7924 207.757 90.1681 208.208 89.8482C208.658 89.5283 209.282 89.6339 209.602 90.0842Z" fill="#000"/>
<path fill-rule="evenodd" clip-rule="evenodd" d="M105.905 171.582L98.5811 176.814C98.1317 177.135 97.5072 177.03 97.1862 176.581L91.955 169.257C91.634 168.808 91.7381 168.183 92.1875 167.862C92.6369 167.541 93.2615 167.646 93.5825 168.095L97.4104 173.454L104.014 133.835L105.986 134.164L99.3832 173.783L104.742 169.955C105.192 169.634 105.816 169.738 106.137 170.187C106.458 170.637 106.354 171.261 105.905 171.582Z" fill="#000"/>
<path fill-rule="evenodd" clip-rule="evenodd" d="M91.5931 228.958C89.8976 222.312 89.4984 213.341 90.5038 202.408L92.4954 202.591C91.5007 213.408 91.9141 222.125 93.531 228.464C95.1553 234.83 97.9281 238.573 101.469 239.874C105.013 241.175 109.749 240.186 115.679 236.062C121.209 232.215 127.607 225.75 134.739 216.352L128.249 217.33C127.703 217.412 127.193 217.036 127.111 216.49C127.029 215.944 127.405 215.434 127.951 215.352L136.851 214.011C137.397 213.929 137.906 214.305 137.988 214.851L139.329 223.75C139.412 224.296 139.036 224.806 138.49 224.888C137.943 224.97 137.434 224.594 137.352 224.048L136.367 217.515C129.154 227.026 122.597 233.685 116.821 237.704C110.687 241.97 105.236 243.387 100.78 241.751C96.3211 240.114 93.2813 235.575 91.5931 228.958Z" fill="#000"/>
</svg>
