<svg width="345" height="345" viewBox="0 0 345 345" fill="none" xmlns="http://www.w3.org/2000/svg">
<path d="M113.48 110.78C129.32 112.54 149.56 113.42 171.78 113.42C192.9 113.42 215.12 112.1 230.96 110.34V128.38C216 129.48 192.02 131.02 171.78 131.02C149.78 131.02 130.86 130.14 113.48 128.6V110.78ZM122.28 199.44C119.64 208.02 117.88 216.16 117.88 224.3C117.88 241.24 135.04 252.68 170.24 252.68C200.38 252.68 228.76 249.38 245.48 244.1L245.7 263.02C229.86 267.2 201.92 270.5 170.68 270.5C126.02 270.5 100.06 255.98 100.06 228.26C100.06 216.82 102.48 206.48 104.46 197.68L122.28 199.44Z" fill="#f00"/>
<path d="M123.426 94V84.1802H123.285L120.305 86.272V84.2134L123.434 82.022H125.567V94H123.426Z" fill="#000"/>
<path d="M64.2832 202.525C64.2832 201.407 64.6706 200.494 65.4453 199.786C66.2256 199.077 67.23 198.723 68.4585 198.723C69.6427 198.723 70.6167 199.047 71.3804 199.694C72.1496 200.342 72.5342 201.166 72.5342 202.168C72.5342 202.81 72.3405 203.446 71.9531 204.077C71.5658 204.702 70.863 205.519 69.8447 206.526L67.3379 209.041V209.182H72.7168V211H64.3994V209.514L68.3921 205.43C69.2111 204.6 69.7562 203.978 70.0273 203.562C70.2985 203.142 70.4341 202.721 70.4341 202.301C70.4341 201.775 70.2404 201.341 69.853 200.998C69.4712 200.654 68.9842 200.483 68.3921 200.483C67.7668 200.483 67.2604 200.671 66.873 201.047C66.4857 201.424 66.292 201.916 66.292 202.525V202.558H64.2832V202.525Z" fill="#000"/>
<path fill-rule="evenodd" clip-rule="evenodd" d="M185.343 94.9291L191.707 101.293C192.098 101.684 192.098 102.317 191.707 102.707L185.343 109.071C184.953 109.462 184.319 109.462 183.929 109.071C183.538 108.681 183.538 108.048 183.929 107.657L188.586 103H119V101H188.586L183.929 96.3433C183.538 95.9528 183.538 95.3196 183.929 94.9291C184.319 94.5386 184.953 94.5386 185.343 94.9291Z" fill="#000"/>
<path fill-rule="evenodd" clip-rule="evenodd" d="M86.9976 247.754C79.4844 230.77 81.2339 210.827 86.5835 198.599L88.4158 199.401C83.2654 211.173 81.5648 230.529 88.8266 246.945C92.4476 255.131 98.2932 262.579 107.053 268.013C115.349 273.158 126.309 276.527 140.563 276.956L135.965 272.298C135.577 271.905 135.581 271.272 135.974 270.884C136.367 270.496 137 270.5 137.388 270.893L143.711 277.297C144.099 277.69 144.095 278.324 143.702 278.712L137.298 285.035C136.905 285.423 136.271 285.419 135.883 285.026C135.495 284.633 135.499 283.999 135.892 283.611L140.606 278.958C126.015 278.533 114.666 275.087 105.999 269.712C96.8623 264.045 90.7641 256.269 86.9976 247.754Z" fill="#000"/>
</svg>
