<svg width="345" height="345" viewBox="0 0 345 345" fill="none" xmlns="http://www.w3.org/2000/svg">
<path d="M107.76 100.44C112.16 100.88 118.1 101.1 122.06 101.1C130.42 101.1 154.62 100.22 167.82 99.3402C172.44 98.9002 176.84 98.0202 180.36 96.7002L191.8 105.06C189.82 108.14 187.4 112.1 186.08 116.5C181.24 131.9 171.56 164.68 161 194.38C152.2 219.02 140.76 242.78 130.42 254.22C123.82 261.48 116.56 264.78 105.56 264.78C93.2401 264.78 81.5801 255.32 81.5801 236.18C81.5801 189.98 129.54 142.02 187.18 142.02C230.52 142.02 257.58 171.06 257.58 209.12C257.58 242.56 238.44 274.24 193.34 274.24C170.46 274.24 155.5 263.24 155.5 245.2C155.5 229.14 169.36 217.48 186.74 217.48C212.92 217.48 225.68 236.4 228.76 255.98L214.68 260.38C211.6 241.68 201.7 230.46 187.18 230.46C177.72 230.46 170.24 235.74 170.24 243.88C170.24 253.34 179.48 259.28 191.8 259.28C223.26 259.28 240.64 237.06 240.64 208.9C240.64 179.86 220.84 156.76 186.52 156.76C132.62 156.76 97.2001 204.06 97.2001 232.44C97.2001 241.24 102.26 246.08 107.32 246.08C111.5 246.08 115.68 244.98 120.52 239.92C130.42 228.26 141.42 202.74 148.02 184.7C157.04 159.84 166.06 130.36 169.8 113.86C157.26 114.3 126.02 116.28 108.64 118.04L107.76 100.44Z" fill="#f00"/>
<path d="M116.425 85V75.1802H116.284L113.304 77.272V75.2134L116.433 73.022H118.566V85H116.425Z" fill="#000"/>
<path fill-rule="evenodd" clip-rule="evenodd" d="M153.343 82.9291L159.707 89.2931C160.098 89.6836 160.098 90.3168 159.707 90.7073L153.343 97.0713C152.953 97.4618 152.319 97.4618 151.929 97.0713C151.538 96.6807 151.538 96.0476 151.929 95.657L156.586 91.0002L113 91.0002L113 89.0002L156.586 89.0002L151.929 84.3433C151.538 83.9528 151.538 83.3197 151.929 82.9291C152.319 82.5386 152.953 82.5386 153.343 82.9291Z" fill="#000"/>
<path fill-rule="evenodd" clip-rule="evenodd" d="M78.0904 204.063C78.6078 203.87 79.1838 204.133 79.3769 204.65L82.5243 213.082C82.7174 213.599 82.4545 214.175 81.9371 214.368C81.4197 214.562 80.8437 214.299 80.6505 213.781L78.359 207.642C66.0785 235.982 70.6117 254.749 81.3675 265.001C92.4866 275.599 110.587 277.452 125.037 271.085L125.843 272.915C110.793 279.547 91.7935 277.701 79.9876 266.449C68.3885 255.393 64.0461 235.596 76.5573 206.77L70.358 209.084C69.8406 209.277 69.2646 209.014 69.0715 208.497C68.8783 207.979 69.1412 207.403 69.6586 207.21L78.0904 204.063Z" fill="#000"/>
<path fill-rule="evenodd" clip-rule="evenodd" d="M266.506 203.027C266.116 203.418 265.483 203.418 265.092 203.027L258.728 196.663C258.338 196.273 258.338 195.64 258.728 195.249C259.119 194.859 259.752 194.859 260.142 195.249L264.781 199.888C264.516 182.034 261.303 169.483 255.521 160.503C249.497 151.149 240.602 145.545 229 141.908L229.598 140C241.496 143.729 250.851 149.558 257.202 159.421C263.271 168.845 266.521 181.834 266.782 199.923L271.456 195.249C271.847 194.859 272.48 194.859 272.87 195.249C273.261 195.64 273.261 196.273 272.87 196.663L266.506 203.027Z" fill="#000"/>
</svg>
