<svg width="345" height="345" viewBox="0 0 345 345" fill="none" xmlns="http://www.w3.org/2000/svg">
<path d="M115.24 98.4602C118.98 98.6802 125.36 99.1202 130.42 99.1202C136.14 99.1202 184.76 98.0202 195.32 97.1402C201.48 96.7002 207.64 95.6002 210.06 94.7202L220.18 107.26C209.18 111 182.78 125.08 166.06 134.76C173.76 133.22 181.9 132.34 189.16 132.34C217.54 132.56 240.42 146.64 240.42 169.74C240.42 198.34 209.4 212.42 175.08 212.42C144.72 212.42 127.12 202.52 127.12 186.02C127.12 171.94 143.62 163.14 159.68 163.14C178.16 163.14 190.26 171.5 190.26 183.82C190.26 192.84 183 199.88 172.88 204.94C171.78 205.16 167.6 205.16 166.5 205.38C157.92 210.66 142.96 222.32 134.38 229.36C150.88 227.16 163.2 236.4 169.8 251.8C178.6 235.74 195.1 224.08 212.48 224.08C236.9 224.08 255.16 243 266.38 268.96L249 276C239.98 250.92 226.78 238.6 211.16 238.6C197.96 238.6 185.2 249.6 179.48 264.78C178.6 267.42 177.72 271.38 177.72 274.02L160.12 273.8C159.9 270.72 159.46 267.42 158.58 264.56C153.74 249.16 144.5 241.02 132.18 241.02C116.56 241.02 102.7 258.18 89.9398 275.34L74.7598 266.54C96.0998 243.66 128.22 213.52 147.8 200.1C149.12 199.88 155.5 200.1 157.04 199.88C167.82 195.92 175.08 190.2 175.08 184.04C175.08 177.66 167.82 173.92 158.58 173.92C150.66 173.92 141.2 177.44 141.2 184.7C141.2 192.62 149.56 198.56 175.08 198.56C200.6 198.56 223.48 187.56 223.48 169.96C223.48 153.9 205.22 144 183.88 144C171.56 144 155.72 146.2 144.06 151.26C131.96 156.76 117.44 166.22 99.8398 180.3L89.0598 167.32C111.72 151.7 157.48 125.08 182.56 110.78C174.2 111 130.42 112.32 115.9 113.64L115.24 98.4602Z" fill="#f00"/>
<path fill-rule="evenodd" clip-rule="evenodd" d="M159.343 80.9291L165.707 87.2931C166.098 87.6836 166.098 88.3168 165.707 88.7073L159.343 95.0713C158.953 95.4618 158.319 95.4618 157.929 95.0713C157.538 94.6807 157.538 94.0476 157.929 93.657L162.586 89.0002L119 89.0002L119 87.0002L162.586 87.0002L157.929 82.3433C157.538 81.9528 157.538 81.3197 157.929 80.9291C158.319 80.5386 158.953 80.5386 159.343 80.9291Z" fill="#000"/>
<path fill-rule="evenodd" clip-rule="evenodd" d="M273.192 245.526L270.969 254.247C270.833 254.782 270.288 255.105 269.753 254.969L261.032 252.746C260.497 252.609 260.174 252.065 260.31 251.53C260.446 250.995 260.991 250.671 261.526 250.808L267.908 252.434L250.14 222.51L251.86 221.489L269.627 251.413L271.254 245.032C271.391 244.497 271.935 244.173 272.47 244.31C273.005 244.446 273.329 244.991 273.192 245.526Z" fill="#000"/>
<path fill-rule="evenodd" clip-rule="evenodd" d="M256.506 187.027C256.116 187.418 255.483 187.418 255.092 187.027L248.728 180.663C248.338 180.273 248.338 179.64 248.728 179.249C249.119 178.859 249.752 178.859 250.142 179.249L254.781 183.888C254.516 166.034 251.303 153.483 245.521 144.503C239.497 135.149 230.602 129.545 219 125.908L219.598 124C231.496 127.729 240.851 133.558 247.202 143.421C253.271 152.845 256.521 165.834 256.782 183.923L261.456 179.249C261.847 178.859 262.48 178.859 262.87 179.249C263.261 179.64 263.261 180.273 262.87 180.663L256.506 187.027Z" fill="#000"/>
<path fill-rule="evenodd" clip-rule="evenodd" d="M68.3399 262.076C69.473 254.631 72.5992 246.776 77.7195 240.375L79.2812 241.625C74.4015 247.725 71.4028 255.244 70.3171 262.377C69.2278 269.535 70.0832 276.161 72.7313 280.546C74.0458 282.722 75.7898 284.33 77.9522 285.217C80.1145 286.104 82.7805 286.305 85.998 285.521C92.1361 284.025 100.165 278.969 110.098 268.595L103.546 268.851C102.994 268.873 102.53 268.443 102.508 267.891C102.486 267.339 102.916 266.874 103.468 266.853L112.461 266.501C113.013 266.479 113.478 266.909 113.5 267.461L113.851 276.454C113.873 277.006 113.443 277.471 112.891 277.493C112.339 277.514 111.874 277.084 111.853 276.532L111.594 269.924C101.534 280.444 93.1642 285.833 86.4715 287.464C82.9234 288.328 79.8159 288.143 77.1931 287.067C74.5704 285.991 72.5175 284.06 71.0194 281.58C68.0426 276.651 67.2105 269.497 68.3399 262.076Z" fill="#000"/>
<path d="M122.121 84.978V75.1582H121.98L119 77.25V75.1914L122.129 73H124.263V84.978H122.121Z" fill="#000"/>
</svg>
