<svg width="345" height="345" viewBox="0 0 345 345" fill="none" xmlns="http://www.w3.org/2000/svg">
<path d="M229.421 93.6201C228.761 97.1401 228.541 101.54 228.541 106.6C228.321 114.74 229.201 151.92 229.201 164.24C229.201 214.62 229.201 250.7 182.561 277.98L166.501 265.66C173.321 262.8 182.341 257.3 187.841 251.8C211.381 231.34 212.481 206.26 212.481 164.02C212.481 149.94 211.601 115.84 210.941 106.6C210.501 101.76 209.621 96.9201 208.741 93.6201H229.421ZM148.901 139.16C158.581 140.7 172.441 141.58 184.541 141.58C211.601 141.58 242.841 139.82 264.841 134.76V152.58C243.501 156.1 212.701 158.08 184.761 158.08C173.981 158.08 158.581 157.42 148.901 156.54V139.16ZM118.101 96.9201C116.781 100.88 115.241 107.04 114.361 111.22C107.321 143.12 99.6207 191.3 108.201 227.38C111.061 217.92 115.901 204.5 119.861 193.72L129.321 199.44C124.041 214.62 117.441 237.06 115.021 248.06C114.361 251.14 113.921 255.32 114.141 257.96C114.141 260.16 114.581 263.02 114.801 265.44L99.6207 267.2C95.2207 253.56 88.1807 224.96 88.1807 197.46C88.1807 161.6 93.9007 127.94 96.5407 109.46C97.2007 104.62 97.4207 98.6801 97.6407 94.7201L118.101 96.9201Z" fill="#f00"/>
<path d="M66.4258 109V99.1802H66.2847L63.3047 101.272V99.2134L66.4341 97.022H68.5674V109H66.4258Z" fill="#000"/>
<path d="M152.283 115.525C152.283 114.407 152.671 113.494 153.445 112.786C154.226 112.077 155.23 111.723 156.458 111.723C157.643 111.723 158.617 112.047 159.38 112.694C160.15 113.342 160.534 114.166 160.534 115.168C160.534 115.81 160.34 116.446 159.953 117.077C159.566 117.702 158.863 118.519 157.845 119.526L155.338 122.041V122.182H160.717V124H152.399V122.514L156.392 118.43C157.211 117.6 157.756 116.978 158.027 116.562C158.299 116.142 158.434 115.721 158.434 115.301C158.434 114.775 158.24 114.341 157.853 113.998C157.471 113.654 156.984 113.483 156.392 113.483C155.767 113.483 155.26 113.671 154.873 114.047C154.486 114.424 154.292 114.916 154.292 115.525V115.558H152.283V115.525Z" fill="#000"/>
<path d="M250.44 88.6875V87.0273H251.901C252.51 87.0273 253.005 86.8613 253.387 86.5293C253.769 86.1917 253.959 85.7546 253.959 85.2178C253.959 84.6865 253.771 84.2632 253.395 83.9478C253.024 83.6268 252.526 83.4663 251.901 83.4663C251.281 83.4663 250.778 83.6296 250.39 83.9561C250.008 84.2826 249.798 84.728 249.759 85.2925H247.759C247.814 84.1912 248.218 83.3224 248.971 82.686C249.723 82.0441 250.722 81.7231 251.967 81.7231C253.129 81.7231 254.095 82.0275 254.864 82.6362C255.639 83.2394 256.026 84.0003 256.026 84.9189C256.026 85.6217 255.83 86.2222 255.437 86.7202C255.05 87.2183 254.524 87.5365 253.86 87.6748V87.8159C254.679 87.91 255.324 88.2171 255.794 88.7373C256.27 89.2575 256.508 89.916 256.508 90.7129C256.508 91.7422 256.076 92.5972 255.213 93.2778C254.355 93.9585 253.276 94.2988 251.976 94.2988C250.686 94.2988 249.635 93.9696 248.821 93.311C248.013 92.6525 247.582 91.7754 247.526 90.6797H249.577C249.621 91.2331 249.862 91.6758 250.299 92.0078C250.736 92.3343 251.3 92.4976 251.992 92.4976C252.678 92.4976 253.237 92.3205 253.669 91.9663C254.106 91.6066 254.325 91.1445 254.325 90.5801C254.325 89.9935 254.112 89.5314 253.686 89.1938C253.259 88.8563 252.678 88.6875 251.942 88.6875H250.44Z" fill="#000"/>
<path fill-rule="evenodd" clip-rule="evenodd" d="M83.4317 168.826L76.6585 174.752C76.2429 175.116 75.6111 175.074 75.2474 174.658L69.3209 167.885C68.9572 167.47 68.9993 166.838 69.415 166.474C69.8306 166.11 70.4624 166.153 70.826 166.568L75.1628 171.525L80.0022 98.9334L81.9978 99.0664L77.1584 171.658L82.1147 167.321C82.5303 166.957 83.1621 166.999 83.5258 167.415C83.8895 167.83 83.8473 168.462 83.4317 168.826Z" fill="#000"/>
<path fill-rule="evenodd" clip-rule="evenodd" d="M190.343 121.929L196.707 128.293C197.098 128.684 197.098 129.317 196.707 129.707L190.343 136.071C189.953 136.462 189.319 136.462 188.929 136.071C188.538 135.681 188.538 135.048 188.929 134.657L193.586 130H151V128H193.586L188.929 123.343C188.538 122.953 188.538 122.32 188.929 121.929C189.319 121.539 189.953 121.539 190.343 121.929Z" fill="#000"/>
<path fill-rule="evenodd" clip-rule="evenodd" d="M246.071 123.343L239.707 129.707C239.317 130.098 238.684 130.098 238.293 129.707L231.929 123.343C231.539 122.953 231.539 122.319 231.929 121.929C232.32 121.538 232.953 121.538 233.343 121.929L238 126.586L238 84L240 84L240 126.586L244.657 121.929C245.048 121.538 245.681 121.538 246.071 121.929C246.462 122.319 246.462 122.953 246.071 123.343Z" fill="#000"/>
</svg>
