<svg width="345" height="345" viewBox="0 0 345 345" fill="none" xmlns="http://www.w3.org/2000/svg">
<path d="M183.88 125.52C175.52 116.94 161 103.52 151.76 96.48L164.3 87.46C171.56 93.18 188.28 107.04 196.42 115.62L183.88 125.52ZM113.92 106.38C115.68 110.12 119.42 117.16 121.62 121.34C130.2 136.74 140.76 158.96 149.78 178.98C161.66 206.48 175.74 247.18 183.22 271.6L164.3 276.66C157.48 250.48 146.92 215.28 134.38 186.46C124.04 163.36 114.14 142.02 106.66 129.48C104.02 125.08 99.6205 118.04 96.1005 113.64L113.92 106.38ZM74.9805 170.62C81.3605 169.08 89.0605 166.44 93.0205 164.68C123.6 153.02 177.06 123.1 213.58 123.1C244.16 123.1 262.64 140.26 262.64 164.24C262.64 189.76 246.58 208.9 212.26 208.9C199.94 208.9 187.4 205.82 179.26 202.74L179.7 185.36C188.28 189.32 199.28 192.62 210.94 192.62C235.14 192.62 245.04 179.2 245.04 163.58C245.04 150.6 234.7 138.5 213.14 138.5C176.4 138.5 111.28 176.56 83.5605 188.66L74.9805 170.62Z" fill="#f00"/>
<path d="M65.4258 157V147.18H65.2847L62.3047 149.272V147.213L65.4341 145.022H67.5674V157H65.4258Z" fill="#000"/>
<path d="M178.283 70.5249C178.283 69.4071 178.671 68.494 179.445 67.7856C180.226 67.0773 181.23 66.7231 182.458 66.7231C183.643 66.7231 184.617 67.0469 185.38 67.6943C186.15 68.3418 186.534 69.1663 186.534 70.168C186.534 70.8099 186.34 71.4463 185.953 72.0771C185.566 72.7025 184.863 73.5187 183.845 74.5259L181.338 77.041V77.1821H186.717V79H178.399V77.5142L182.392 73.4302C183.211 72.6001 183.756 71.9775 184.027 71.5625C184.299 71.1419 184.434 70.7214 184.434 70.3008C184.434 69.7751 184.24 69.3407 183.853 68.9976C183.471 68.6545 182.984 68.4829 182.392 68.4829C181.767 68.4829 181.26 68.6711 180.873 69.0474C180.486 69.4237 180.292 69.9162 180.292 70.5249V70.5581H178.283V70.5249Z" fill="#000"/>
<path d="M128.44 90.6875V89.0273H129.901C130.51 89.0273 131.005 88.8613 131.387 88.5293C131.769 88.1917 131.959 87.7546 131.959 87.2178C131.959 86.6865 131.771 86.2632 131.395 85.9478C131.024 85.6268 130.526 85.4663 129.901 85.4663C129.281 85.4663 128.778 85.6296 128.39 85.9561C128.008 86.2826 127.798 86.728 127.759 87.2925H125.759C125.814 86.1912 126.218 85.3224 126.971 84.686C127.723 84.0441 128.722 83.7231 129.967 83.7231C131.129 83.7231 132.095 84.0275 132.864 84.6362C133.639 85.2394 134.026 86.0003 134.026 86.9189C134.026 87.6217 133.83 88.2222 133.437 88.7202C133.05 89.2183 132.524 89.5365 131.86 89.6748V89.8159C132.679 89.91 133.324 90.2171 133.794 90.7373C134.27 91.2575 134.508 91.916 134.508 92.7129C134.508 93.7422 134.076 94.5972 133.213 95.2778C132.355 95.9585 131.276 96.2988 129.976 96.2988C128.686 96.2988 127.635 95.9696 126.821 95.311C126.013 94.6525 125.582 93.7754 125.526 92.6797H127.577C127.621 93.2331 127.862 93.6758 128.299 94.0078C128.736 94.3343 129.3 94.4976 129.992 94.4976C130.678 94.4976 131.237 94.3205 131.669 93.9663C132.106 93.6066 132.325 93.1445 132.325 92.5801C132.325 91.9935 132.112 91.5314 131.686 91.1938C131.259 90.8563 130.678 90.6875 129.942 90.6875H128.44Z" fill="#000"/>
<path fill-rule="evenodd" clip-rule="evenodd" d="M98.7141 142.934L107.153 146.062C107.671 146.254 107.935 146.83 107.743 147.348L104.614 155.786C104.422 156.304 103.847 156.569 103.329 156.377C102.811 156.185 102.547 155.609 102.739 155.091L105.028 148.916L65.4173 167.101L64.5829 165.283L104.194 147.099L98.0189 144.809C97.5011 144.617 97.2369 144.042 97.4289 143.524C97.6209 143.006 98.1963 142.742 98.7141 142.934Z" fill="#000"/>
<path fill-rule="evenodd" clip-rule="evenodd" d="M203.869 98.9414L204.202 107.935C204.222 108.487 203.792 108.951 203.24 108.972L194.246 109.305C193.694 109.325 193.23 108.895 193.21 108.343C193.189 107.791 193.62 107.327 194.172 107.306L200.753 107.062L171.32 79.7327L172.68 78.2671L202.114 105.597L201.87 99.0155C201.85 98.4636 202.28 97.9996 202.832 97.9791C203.384 97.9587 203.848 98.3895 203.869 98.9414Z" fill="#000"/>
<path fill-rule="evenodd" clip-rule="evenodd" d="M145.653 127.714L142.955 136.3C142.789 136.827 142.228 137.12 141.701 136.954L133.115 134.256C132.588 134.09 132.295 133.529 132.461 133.002C132.626 132.475 133.188 132.182 133.714 132.348L139.997 134.322L117.114 90.4626L118.887 89.5375L141.77 133.397L143.745 127.114C143.911 126.587 144.472 126.295 144.999 126.46C145.526 126.626 145.819 127.187 145.653 127.714Z" fill="#000"/>
</svg>
