<svg width="345" height="345" viewBox="0 0 345 345" fill="none" xmlns="http://www.w3.org/2000/svg">
<path d="M101.38 114.3C131.96 118.04 160.78 118.48 183.22 116.28C201.26 114.74 219.3 111 235.14 105.72L237.56 121.78C223.26 125.96 204.56 129.7 186.96 131.24C164.74 133.44 133.94 133.44 102.48 130.36L101.38 114.3ZM96.9805 159.4C134.6 163.36 172 162.7 197.74 159.62C218.64 157.42 236.46 153.02 248.12 149.5L250.98 165.78C238.88 169.08 222.16 172.38 203.68 174.58C176.62 178.1 135.92 178.76 98.0805 175.9L96.9805 159.4ZM172.22 111.44C170.46 105.06 168.48 98.2399 166.06 91.8599L184.76 89.4399C186.96 107.92 193.78 130.14 199.28 145.76C205.22 162.92 214.9 184.04 226.34 200.98C228.76 204.5 231.4 207.58 234.7 210.44L225.46 223.86C213.14 220.78 192.68 218.58 177.5 217.04L178.82 203.62C190.7 204.72 205 206.26 211.82 207.14C199.72 188.22 190.48 167.1 184.1 149.28C178.6 134.1 175.3 122.44 172.22 111.44ZM129.1 206.92C123.82 214.4 119.86 221.88 119.86 231.78C119.86 249.82 135.92 259.06 170.46 259.06C190.92 259.06 206.98 257.52 223.04 254.44L222.16 271.82C206.76 274.46 189.6 275.78 170.68 275.78C127.78 275.78 103.58 263.02 103.14 234.64C103.14 222.1 106.88 212.86 111.94 203.18L129.1 206.92Z" fill="#f00"/>
<path d="M106.426 100V90.1802H106.285L103.305 92.272V90.2134L106.434 88.022H108.567V100H106.426Z" fill="#000"/>
<path d="M86.2832 135.525C86.2832 134.407 86.6706 133.494 87.4453 132.786C88.2256 132.077 89.23 131.723 90.4585 131.723C91.6427 131.723 92.6167 132.047 93.3804 132.694C94.1496 133.342 94.5342 134.166 94.5342 135.168C94.5342 135.81 94.3405 136.446 93.9531 137.077C93.5658 137.702 92.863 138.519 91.8447 139.526L89.3379 142.041V142.182H94.7168V144H86.3994V142.514L90.3921 138.43C91.2111 137.6 91.7562 136.978 92.0273 136.562C92.2985 136.142 92.4341 135.721 92.4341 135.301C92.4341 134.775 92.2404 134.341 91.853 133.998C91.4712 133.654 90.9842 133.483 90.3921 133.483C89.7668 133.483 89.2604 133.671 88.873 134.047C88.4857 134.424 88.292 134.916 88.292 135.525V135.558H86.2832V135.525Z" fill="#000"/>
<path d="M205.439 61.6875V60.0273H206.9C207.509 60.0273 208.004 59.8613 208.386 59.5293C208.768 59.1917 208.958 58.7546 208.958 58.2178C208.958 57.6865 208.77 57.2632 208.394 56.9478C208.023 56.6268 207.525 56.4663 206.9 56.4663C206.28 56.4663 205.777 56.6296 205.389 56.9561C205.007 57.2826 204.797 57.728 204.758 58.2925H202.758C202.813 57.1912 203.217 56.3224 203.97 55.686C204.722 55.0441 205.721 54.7231 206.966 54.7231C208.128 54.7231 209.094 55.0275 209.863 55.6362C210.638 56.2394 211.025 57.0003 211.025 57.9189C211.025 58.6217 210.829 59.2222 210.436 59.7202C210.049 60.2183 209.523 60.5365 208.859 60.6748V60.8159C209.678 60.91 210.323 61.2171 210.793 61.7373C211.269 62.2575 211.507 62.916 211.507 63.7129C211.507 64.7422 211.075 65.5972 210.212 66.2778C209.354 66.9585 208.275 67.2988 206.975 67.2988C205.685 67.2988 204.634 66.9696 203.82 66.311C203.012 65.6525 202.581 64.7754 202.525 63.6797H204.576C204.62 64.2331 204.861 64.6758 205.298 65.0078C205.735 65.3343 206.299 65.4976 206.991 65.4976C207.677 65.4976 208.236 65.3205 208.668 64.9663C209.105 64.6066 209.324 64.1445 209.324 63.5801C209.324 62.9935 209.111 62.5314 208.685 62.1938C208.258 61.8563 207.677 61.6875 206.941 61.6875H205.439Z" fill="#000"/>
<path fill-rule="evenodd" clip-rule="evenodd" d="M143.343 97.9291L149.707 104.293C150.098 104.684 150.098 105.317 149.707 105.707L143.343 112.071C142.953 112.462 142.319 112.462 141.929 112.071C141.538 111.681 141.538 111.048 141.929 110.657L146.586 106L103 106L103 104L146.586 104L141.929 99.3433C141.538 98.9528 141.538 98.3197 141.929 97.9291C142.319 97.5386 142.953 97.5386 143.343 97.9291Z" fill="#000"/>
<path fill-rule="evenodd" clip-rule="evenodd" d="M162.343 142.929L168.707 149.293C169.098 149.684 169.098 150.317 168.707 150.707L162.343 157.071C161.953 157.462 161.319 157.462 160.929 157.071C160.538 156.681 160.538 156.048 160.929 155.657L165.586 151L82 151L82 149L165.586 149L160.929 144.343C160.538 143.953 160.538 143.32 160.929 142.929C161.319 142.539 161.953 142.539 162.343 142.929Z" fill="#000"/>
<path fill-rule="evenodd" clip-rule="evenodd" d="M207.422 98.914L201.997 106.095C201.664 106.536 201.037 106.623 200.597 106.29L193.415 100.865C192.975 100.533 192.887 99.9055 193.22 99.4648C193.553 99.0241 194.18 98.9367 194.621 99.2696L199.876 103.239L194.01 61.1381L195.991 60.8621L201.857 102.963L205.826 97.7084C206.159 97.2678 206.786 97.1804 207.227 97.5133C207.668 97.8462 207.755 98.4733 207.422 98.914Z" fill="#000"/>
<path fill-rule="evenodd" clip-rule="evenodd" d="M92.9713 241.497L86.4659 239.971C85.9282 239.845 85.3901 240.179 85.264 240.716C85.1378 241.254 85.4715 241.792 86.0092 241.918L94.7713 243.973C95.309 244.1 95.8472 243.766 95.9733 243.228L98.0286 234.466C98.1547 233.928 97.8211 233.39 97.2834 233.264C96.7457 233.138 96.2075 233.472 96.0814 234.009L94.6035 240.31C88.3136 228.526 88.843 214.68 96.7583 205.464C105.134 195.713 122.13 190.762 149.194 199.452L149.805 197.548C122.369 188.738 104.366 193.537 95.2411 204.161C86.6217 214.197 86.2401 229.085 92.9713 241.497Z" fill="#000"/>
</svg>
