<svg width="345" height="345" viewBox="0 0 345 345" fill="none" xmlns="http://www.w3.org/2000/svg">
<path d="M178.161 249.38C215.341 243.88 248.781 226.72 248.561 188.88C248.561 171.94 235.141 149.5 205.881 149.5C177.721 149.5 152.421 165.12 131.081 187.34V167.76C157.481 142.9 185.421 133.66 208.521 133.66C239.101 133.66 266.161 155 266.161 189.1C266.381 233.54 234.041 256.64 186.081 265.88L178.161 249.38ZM128.441 143.34C121.401 144.22 97.4209 147.3 81.1409 149.72L79.1609 131.46C84.0009 131.68 88.1809 131.68 93.6809 131.24C105.341 130.58 132.621 127.28 142.961 123.98L149.341 131.46C145.601 137.18 139.661 146.64 135.921 152.8L129.321 182.94C119.201 198.56 98.7409 228.26 84.8809 247.4L73.8809 232.44C87.5209 215.28 117.221 174.8 125.801 160.28L126.681 149.06L128.441 143.34ZM126.241 106.82C126.241 101.76 126.461 96.04 125.361 90.54L146.261 91.2C143.181 105.5 136.361 168.42 136.361 207.14C136.361 227.16 136.361 240.58 137.241 260.16C137.461 263.9 138.121 269.4 138.341 273.58H119.421C119.641 270.5 120.081 264.12 120.081 260.6C120.081 239.26 120.301 228.26 120.521 204.06C120.961 184.7 126.241 114.96 126.241 106.82Z" fill="#f00"/>
<path d="M165.426 97V87.1802H165.285L162.305 89.272V87.2134L165.434 85.022H167.567V97H165.426Z" fill="#000"/>
<path d="M82.2832 106.525C82.2832 105.407 82.6706 104.494 83.4453 103.786C84.2256 103.077 85.23 102.723 86.4585 102.723C87.6427 102.723 88.6167 103.047 89.3804 103.694C90.1496 104.342 90.5342 105.166 90.5342 106.168C90.5342 106.81 90.3405 107.446 89.9531 108.077C89.5658 108.702 88.863 109.519 87.8447 110.526L85.3379 113.041V113.182H90.7168V115H82.3994V113.514L86.3921 109.43C87.2111 108.6 87.7562 107.978 88.0273 107.562C88.2985 107.142 88.4341 106.721 88.4341 106.301C88.4341 105.775 88.2404 105.341 87.853 104.998C87.4712 104.654 86.9842 104.483 86.3921 104.483C85.7668 104.483 85.2604 104.671 84.873 105.047C84.4857 105.424 84.292 105.916 84.292 106.525V106.558H82.2832V106.525Z" fill="#000"/>
<path fill-rule="evenodd" clip-rule="evenodd" d="M114.343 112.929L120.707 119.293C121.098 119.684 121.098 120.317 120.707 120.707L114.343 127.071C113.953 127.462 113.319 127.462 112.929 127.071C112.538 126.681 112.538 126.048 112.929 125.657L117.586 121L81 121L81 119L117.586 119L112.929 114.343C112.538 113.953 112.538 113.32 112.929 112.929C113.319 112.539 113.953 112.539 114.343 112.929Z" fill="#000"/>
<path fill-rule="evenodd" clip-rule="evenodd" d="M163.071 126.343L156.707 132.707C156.317 133.098 155.684 133.098 155.293 132.707L148.929 126.343C148.539 125.953 148.539 125.319 148.929 124.929C149.32 124.538 149.953 124.538 150.343 124.929L155 129.586L155 86L157 86L157 129.586L161.657 124.929C162.048 124.538 162.681 124.538 163.071 124.929C163.462 125.319 163.462 125.953 163.071 126.343Z" fill="#000"/>
<path fill-rule="evenodd" clip-rule="evenodd" d="M278.507 196.027C278.117 196.418 277.484 196.418 277.093 196.027L270.729 189.663C270.339 189.273 270.339 188.64 270.729 188.249C271.12 187.859 271.753 187.859 272.143 188.249L276.782 192.888C276.517 175.034 273.304 162.483 267.522 153.503C261.498 144.149 252.603 138.545 241.001 134.908L241.599 133C253.497 136.729 262.852 142.558 269.203 152.421C275.272 161.845 278.522 174.834 278.783 192.923L283.457 188.249C283.847 187.859 284.481 187.859 284.871 188.249C285.262 188.64 285.262 189.273 284.871 189.663L278.507 196.027Z" fill="#000"/>
<path fill-rule="evenodd" clip-rule="evenodd" d="M64.2798 233.589C66.793 224.631 71.6388 214.847 78.7332 206.359L80.2677 207.642C73.3621 215.904 68.6454 225.432 66.2054 234.13C63.7526 242.873 63.6474 250.6 65.7288 255.349C66.7548 257.69 68.28 259.245 70.2709 259.932C72.2804 260.625 74.9415 260.495 78.3457 259.091C84.8969 256.39 93.8216 249.124 105.191 235.26L98.6639 235.979C98.1149 236.04 97.6209 235.643 97.5605 235.095C97.5 234.546 97.896 234.052 98.445 233.991L107.391 233.006C107.94 232.946 108.434 233.342 108.494 233.891L109.479 242.837C109.54 243.386 109.144 243.88 108.595 243.94C108.046 244.001 107.552 243.605 107.491 243.056L106.769 236.491C95.325 250.452 86.1314 258.044 79.1082 260.94C75.4265 262.458 72.2399 262.727 69.6186 261.822C66.9786 260.912 65.0898 258.873 63.897 256.152C61.5409 250.776 61.7794 242.502 64.2798 233.589Z" fill="#000"/>
</svg>
