<svg width="345" height="345" viewBox="0 0 345 345" fill="none" xmlns="http://www.w3.org/2000/svg">
<path d="M111.06 103.74C116.56 104.18 122.94 104.4 127.56 104.4C139.22 104.4 168.04 103.08 177.28 102.2C181.46 101.98 185.2 101.1 188.28 100L199.28 108.8C197.08 111.22 195.32 113.42 193.56 116.28C186.52 127.72 174.42 155.88 164.3 178.54C155.5 197.9 143.4 227.82 133.94 241.46C126.24 252.68 117.66 256.86 106.22 256.86C89.9398 256.86 77.8398 244.98 77.8398 226.72C77.8398 193.5 109.08 168.2 153.74 168.2C203.24 168.2 246.8 194.6 270.56 211.54L262.42 230.24C236.68 208.02 196.42 183.6 151.1 183.6C114.58 183.6 93.6798 204.06 93.6798 224.3C93.6798 234.2 100.06 239.26 106.88 239.26C111.94 239.26 115.68 237.5 120.3 231.56C129.32 219.68 139.22 194.16 147.58 175.68C156.38 156.54 166.28 133.88 173.76 118.26C164.96 118.48 138.12 119.8 128.22 120.24C123.38 120.46 117 121.12 111.72 121.78L111.06 103.74ZM248.56 151.92C245.48 214.62 232.72 252.68 181.46 278.42L166.94 266.32C218.64 244.54 228.1 202.96 230.52 170.4C230.96 163.8 231.18 156.32 230.52 149.94L248.56 151.92Z" fill="#f00"/>
<path d="M125.426 84V74.1802H125.285L122.305 76.272V74.2134L125.434 72.022H127.567V84H125.426Z" fill="#000"/>
<path d="M264.283 149.525C264.283 148.407 264.671 147.494 265.445 146.786C266.226 146.077 267.23 145.723 268.458 145.723C269.643 145.723 270.617 146.047 271.38 146.694C272.15 147.342 272.534 148.166 272.534 149.168C272.534 149.81 272.34 150.446 271.953 151.077C271.566 151.702 270.863 152.519 269.845 153.526L267.338 156.041V156.182H272.717V158H264.399V156.514L268.392 152.43C269.211 151.6 269.756 150.978 270.027 150.562C270.299 150.142 270.434 149.721 270.434 149.301C270.434 148.775 270.24 148.341 269.853 147.998C269.471 147.654 268.984 147.483 268.392 147.483C267.767 147.483 267.26 147.671 266.873 148.047C266.486 148.424 266.292 148.916 266.292 149.525V149.558H264.283V149.525Z" fill="#000"/>
<path fill-rule="evenodd" clip-rule="evenodd" d="M262.447 187.849L255.656 193.755C255.239 194.117 254.607 194.073 254.245 193.656L248.339 186.865C247.977 186.448 248.021 185.817 248.438 185.454C248.855 185.092 249.486 185.136 249.849 185.553L254.17 190.522L257.002 149.931L258.997 150.07L256.165 190.661L261.135 186.34C261.552 185.978 262.183 186.022 262.546 186.438C262.908 186.855 262.864 187.487 262.447 187.849Z" fill="#000"/>
<path fill-rule="evenodd" clip-rule="evenodd" d="M217.102 88.4321L185.427 156.236L191.618 153.988C192.137 153.799 192.71 154.067 192.899 154.586C193.087 155.105 192.819 155.679 192.3 155.867L183.841 158.94C183.322 159.128 182.748 158.86 182.56 158.341L179.487 149.882C179.299 149.363 179.567 148.789 180.086 148.6C180.605 148.412 181.179 148.68 181.367 149.199L183.615 155.389L213.897 90.5674L119.541 94.4989L119.458 92.5006L217.102 88.4321Z" fill="#000"/>
<path fill-rule="evenodd" clip-rule="evenodd" d="M75.7866 198.019C76.3285 197.912 76.8542 198.265 76.9608 198.807L78.698 207.638C78.8046 208.18 78.4517 208.706 77.9098 208.812C77.3679 208.919 76.8422 208.566 76.7356 208.024L75.4741 201.611C64.6229 218.851 63.8011 234.545 69.4392 245.996C75.3017 257.902 88.2832 265.5 104.98 265.5V267.5C87.6758 267.5 73.9073 259.598 67.6449 246.879C61.6074 234.618 62.6714 218.14 73.8495 200.438L67.3418 201.719C66.7999 201.825 66.2742 201.472 66.1676 200.93C66.061 200.389 66.4139 199.863 66.9558 199.756L75.7866 198.019Z" fill="#000"/>
</svg>
