<svg width="345" height="345" viewBox="0 0 345 345" fill="none" xmlns="http://www.w3.org/2000/svg">
<path d="M220.18 191.96C220.18 173.26 205.22 160.28 182.56 160.28C157.26 160.28 135.48 167.54 122.72 171.28C115.9 173.26 109.3 175.68 104.02 177.88L98.5195 157.64C104.68 157.2 111.94 155.66 118.76 154.34C134.16 150.82 159.02 143.78 184.54 143.78C215.78 143.78 238.88 161.16 238.88 192.62C238.88 240.36 196.2 266.98 139.22 275.78L129.1 259.06C182.56 252.24 220.18 231.34 220.18 191.96ZM127.78 92.7402C152.2 98.2402 199.94 102.86 221.28 103.08L218.64 120.02C194.22 118.26 150 113.86 125.14 109.46L127.78 92.7402Z" fill="#f00"/>
<path d="M139.425 74V64.1802H139.284L136.304 66.272V64.2134L139.433 62.022H141.566V74H139.425Z" fill="#000"/>
<path d="M82.2832 131.525C82.2832 130.407 82.6706 129.494 83.4453 128.786C84.2256 128.077 85.23 127.723 86.4585 127.723C87.6427 127.723 88.6167 128.047 89.3804 128.694C90.1496 129.342 90.5342 130.166 90.5342 131.168C90.5342 131.81 90.3405 132.446 89.9531 133.077C89.5658 133.702 88.863 134.519 87.8447 135.526L85.3379 138.041V138.182H90.7168V140H82.3994V138.514L86.3921 134.43C87.2111 133.6 87.7562 132.978 88.0273 132.562C88.2985 132.142 88.4341 131.721 88.4341 131.301C88.4341 130.775 88.2404 130.341 87.853 129.998C87.4712 129.654 86.9842 129.483 86.3921 129.483C85.7668 129.483 85.2604 129.671 84.873 130.047C84.4857 130.424 84.292 130.916 84.292 131.525V131.558H82.2832V131.525Z" fill="#000"/>
<path fill-rule="evenodd" clip-rule="evenodd" d="M175.939 80.2254L180.886 87.7439C181.19 88.2052 181.062 88.8253 180.601 89.1289L173.082 94.0759C172.621 94.3795 172.001 94.2516 171.697 93.7902C171.394 93.3289 171.522 92.7087 171.983 92.4052L177.485 88.7852L134.798 79.9796L135.202 78.0208L177.889 86.8264L174.269 81.3248C173.965 80.8634 174.093 80.2433 174.554 79.9397C175.016 79.6361 175.636 79.7641 175.939 80.2254Z" fill="#000"/>
<path fill-rule="evenodd" clip-rule="evenodd" d="M116.591 133.741L124.45 138.127C124.933 138.396 125.105 139.005 124.836 139.487L120.45 147.346C120.181 147.829 119.572 148.001 119.09 147.732C118.608 147.463 118.435 146.854 118.704 146.372L121.913 140.621L83.2726 151.581L82.7269 149.657L121.368 138.697L115.617 135.487C115.134 135.218 114.962 134.609 115.231 134.127C115.5 133.645 116.109 133.472 116.591 133.741Z" fill="#000"/>
</svg>
