<svg width="345" height="345" viewBox="0 0 345 345" fill="none" xmlns="http://www.w3.org/2000/svg">
<path d="M240.86 133.88C236.02 136.74 230.52 139.82 223.92 143.12C209.18 150.82 178.6 165.34 157.04 179.42C136.58 192.84 124.26 207.36 124.26 223.86C124.26 242.12 141.86 253.56 176.62 253.56C200.38 253.56 229.86 250.48 247.02 246.08L246.8 265.88C230.3 268.74 204.78 271.16 177.28 271.16C135.92 271.16 106 258.84 106 225.84C106 202.08 122.06 183.38 148.02 166.22C170.46 151.26 201.26 136.52 215.56 128.38C221.94 124.64 226.78 121.78 231.4 118.04L240.86 133.88ZM129.54 93.8398C139.66 122 153.3 149.5 163.42 167.32L148.46 176.34C137.24 158.3 124.04 128.6 112.16 101.32L129.54 93.8398Z" fill="#f00"/>
<path d="M150.426 94V84.1802H150.285L147.305 86.272V84.2134L150.434 82.022H152.567V94H150.426Z" fill="#000"/>
<path d="M236.283 158.525C236.283 157.407 236.671 156.494 237.445 155.786C238.226 155.077 239.23 154.723 240.458 154.723C241.643 154.723 242.617 155.047 243.38 155.694C244.15 156.342 244.534 157.166 244.534 158.168C244.534 158.81 244.34 159.446 243.953 160.077C243.566 160.702 242.863 161.519 241.845 162.526L239.338 165.041V165.182H244.717V167H236.399V165.514L240.392 161.43C241.211 160.6 241.756 159.978 242.027 159.562C242.299 159.142 242.434 158.721 242.434 158.301C242.434 157.775 242.24 157.341 241.853 156.998C241.471 156.654 240.984 156.483 240.392 156.483C239.767 156.483 239.26 156.671 238.873 157.047C238.486 157.424 238.292 157.916 238.292 158.525V158.558H236.283V158.525Z" fill="#000"/>
<path fill-rule="evenodd" clip-rule="evenodd" d="M159.218 121.728L155.695 130.009C155.478 130.518 154.891 130.754 154.383 130.538L146.101 127.015C145.593 126.798 145.357 126.211 145.573 125.703C145.789 125.195 146.376 124.958 146.884 125.174L152.945 127.753L137.073 88.3738L138.928 87.6261L154.8 127.005L157.378 120.945C157.594 120.437 158.181 120.2 158.689 120.416C159.198 120.632 159.434 121.22 159.218 121.728Z" fill="#000"/>
<path fill-rule="evenodd" clip-rule="evenodd" d="M200.516 179.077L191.766 176.972C191.229 176.843 190.898 176.303 191.027 175.766L193.132 167.016C193.261 166.479 193.801 166.148 194.338 166.277C194.875 166.406 195.206 166.946 195.076 167.483L193.536 173.886L240.477 145.147L241.522 146.853L194.581 175.592L200.984 177.132C201.521 177.261 201.852 177.801 201.722 178.338C201.593 178.875 201.053 179.206 200.516 179.077Z" fill="#000"/>
</svg>
