<svg width="345" height="345" viewBox="0 0 345 345" fill="none" xmlns="http://www.w3.org/2000/svg">
<path d="M221.28 115.4C221.28 131.46 221.28 152.58 221.28 166.22C221.28 193.94 224.14 224.74 224.14 242.12C224.14 260.16 211.6 270.5 188.06 270.5C163.64 270.5 145.82 260.38 145.82 239.7C145.82 224.3 158.58 209.56 187.84 209.56C226.78 209.56 253.4 228.7 269.9 243.44L260.66 258.84C239.76 237.28 213.36 222.76 187.4 222.76C171.56 222.76 161.22 229.14 161.22 238.82C161.22 249.6 171.12 255.32 186.52 255.32C203.68 255.32 208.08 246.52 208.08 234.64C208.08 222.32 205.44 189.76 205.44 166.88C205.44 151.26 205.44 127.5 205.44 115.4H221.28ZM152.2 158.3C191.8 161.38 232.28 158.74 262.2 155.22V171.28C234.04 174.36 191.58 176.56 152.42 174.36L152.2 158.3ZM155.72 107.26C191.14 110.12 231.62 107.92 257.36 104.18V119.8C232.06 122.44 191.36 124.64 155.72 122.88V107.26ZM117.88 98.24C116.56 101.98 114.8 109.02 114.14 112.98C109.74 133.44 103.36 175.9 103.36 200.54C103.36 211.32 104.02 220.78 105.56 231.56C108.86 221.66 114.36 207.58 118.32 198.78L127.12 206.04C121.62 221.22 113.92 243.88 111.5 254.66C110.84 257.74 110.4 261.92 110.62 264.34C110.62 266.54 111.06 269.84 111.28 272.04L95.4401 273.36C91.0401 257.52 87.0801 233.32 87.0801 203.62C87.0801 171.28 94.3401 130.36 96.9801 112.1C97.8601 107.04 98.5201 101.1 98.5201 96.48L117.88 98.24Z" fill="#f00"/>
<path d="M154.283 83.5249C154.283 82.4071 154.671 81.494 155.445 80.7856C156.226 80.0773 157.23 79.7231 158.458 79.7231C159.643 79.7231 160.617 80.0469 161.38 80.6943C162.15 81.3418 162.534 82.1663 162.534 83.168C162.534 83.8099 162.34 84.4463 161.953 85.0771C161.566 85.7025 160.863 86.5187 159.845 87.5259L157.338 90.041V90.1821H162.717V92H154.399V90.5142L158.392 86.4302C159.211 85.6001 159.756 84.9775 160.027 84.5625C160.299 84.1419 160.434 83.7214 160.434 83.3008C160.434 82.7751 160.24 82.3407 159.853 81.9976C159.471 81.6545 158.984 81.4829 158.392 81.4829C157.767 81.4829 157.26 81.6711 156.873 82.0474C156.486 82.4237 156.292 82.9162 156.292 83.5249V83.5581H154.283V83.5249Z" fill="#000"/>
<path d="M277.087 120V117.767H271.235V115.858C272.209 114.065 273.836 111.453 276.116 108.022H279.138V115.958H280.756V117.767H279.138V120H277.087ZM273.219 115.883V116.007H277.121V109.765H277.004C275.709 111.68 274.448 113.719 273.219 115.883Z" fill="#000"/>
<path d="M157.439 139.688V138.027H158.9C159.509 138.027 160.004 137.861 160.386 137.529C160.768 137.192 160.958 136.755 160.958 136.218C160.958 135.687 160.77 135.263 160.394 134.948C160.023 134.627 159.525 134.466 158.9 134.466C158.28 134.466 157.777 134.63 157.389 134.956C157.007 135.283 156.797 135.728 156.758 136.292H154.758C154.813 135.191 155.217 134.322 155.97 133.686C156.722 133.044 157.721 132.723 158.966 132.723C160.128 132.723 161.094 133.028 161.863 133.636C162.638 134.239 163.025 135 163.025 135.919C163.025 136.622 162.829 137.222 162.436 137.72C162.049 138.218 161.523 138.536 160.859 138.675V138.816C161.678 138.91 162.323 139.217 162.793 139.737C163.269 140.257 163.507 140.916 163.507 141.713C163.507 142.742 163.075 143.597 162.212 144.278C161.354 144.958 160.275 145.299 158.975 145.299C157.685 145.299 156.634 144.97 155.82 144.311C155.012 143.653 154.581 142.775 154.525 141.68H156.576C156.62 142.233 156.861 142.676 157.298 143.008C157.735 143.334 158.299 143.498 158.991 143.498C159.677 143.498 160.236 143.32 160.668 142.966C161.105 142.607 161.324 142.145 161.324 141.58C161.324 140.993 161.111 140.531 160.685 140.194C160.258 139.856 159.677 139.688 158.941 139.688H157.439Z" fill="#000"/>
<path d="M69.1211 108.978V99.1582H68.98L66 101.25V99.1914L69.1294 97H71.2627V108.978H69.1211Z" fill="#000"/>
<path fill-rule="evenodd" clip-rule="evenodd" d="M86.127 168.804L79.3538 174.731C78.9382 175.094 78.3064 175.052 77.9427 174.636L72.0162 167.863C71.6525 167.448 71.6946 166.816 72.1103 166.452C72.5259 166.088 73.1577 166.131 73.5214 166.546L77.8581 171.503L82.6975 98.9114L84.6931 99.0444L79.8537 171.636L84.81 167.299C85.2256 166.935 85.8574 166.977 86.2211 167.393C86.5848 167.809 86.5426 168.44 86.127 168.804Z" fill="#000"/>
<path fill-rule="evenodd" clip-rule="evenodd" d="M193.343 143.293L199.707 149.657C200.098 150.047 200.098 150.681 199.707 151.071L193.343 157.435C192.953 157.826 192.319 157.826 191.929 157.435C191.538 157.045 191.538 156.411 191.929 156.021L196.586 151.364L153 151.364L153 149.364L196.586 149.364L191.929 144.707C191.538 144.317 191.538 143.683 191.929 143.293C192.319 142.902 192.953 142.902 193.343 143.293Z" fill="#000"/>
<path fill-rule="evenodd" clip-rule="evenodd" d="M235.343 90.9286L241.707 97.2926C242.098 97.6831 242.098 98.3163 241.707 98.7068L235.343 105.071C234.953 105.461 234.319 105.461 233.929 105.071C233.538 104.68 233.538 104.047 233.929 103.657L238.586 98.9997L154 98.9997L154 96.9997L238.586 96.9997L233.929 92.3429C233.538 91.9523 233.538 91.3192 233.929 90.9286C234.319 90.5381 234.953 90.5381 235.343 90.9286Z" fill="#000"/>
<path fill-rule="evenodd" clip-rule="evenodd" d="M274.071 192.343L267.707 198.707C267.317 199.098 266.684 199.098 266.293 198.707L259.929 192.343C259.539 191.953 259.539 191.319 259.929 190.929C260.32 190.538 260.953 190.538 261.343 190.929L266 195.586L266 103L268 103L268 195.586L272.657 190.929C273.048 190.538 273.681 190.538 274.071 190.929C274.462 191.319 274.462 191.953 274.071 192.343Z" fill="#000"/>
<path fill-rule="evenodd" clip-rule="evenodd" d="M273.817 221.369L275.351 230.238C275.446 230.782 275.081 231.299 274.537 231.393L265.668 232.928C265.124 233.022 264.607 232.657 264.512 232.113C264.418 231.569 264.783 231.051 265.327 230.957L271.817 229.834L243.424 209.817L244.576 208.183L272.969 228.2L271.846 221.71C271.752 221.166 272.117 220.649 272.661 220.554C273.205 220.46 273.723 220.825 273.817 221.369Z" fill="#000"/>
<path fill-rule="evenodd" clip-rule="evenodd" d="M189.82 196.427C190.136 196.879 190.026 197.503 189.573 197.819L182.198 202.977C181.745 203.294 181.122 203.184 180.805 202.731C180.489 202.278 180.599 201.655 181.052 201.338L186.411 197.59C174.708 195.842 165.549 196.893 158.426 199.742C150.831 202.781 145.476 207.895 141.794 214.004C134.4 226.271 133.757 242.552 135.489 253.848L133.512 254.151C131.743 242.615 132.351 225.796 140.081 212.971C143.962 206.534 149.638 201.104 157.684 197.886C165.233 194.865 174.801 193.818 186.822 195.63L183.023 190.198C182.706 189.745 182.817 189.122 183.269 188.805C183.722 188.489 184.345 188.599 184.662 189.051L189.82 196.427Z" fill="#000"/>
</svg>
