<svg width="345" height="345" viewBox="0 0 345 345" fill="none" xmlns="http://www.w3.org/2000/svg">
<path d="M115.68 108.58C114.8 111.66 113.7 115.4 112.82 118.92C109.96 133.22 105.56 166.66 106.88 183.82C121.4 145.98 157.7 120.68 195.98 120.68C237.12 120.68 261.32 146.42 261.32 179.2C261.32 215.06 239.1 243 193.78 243C168.48 243 145.16 228.92 133.06 204.28L143.62 191.96C153.74 213.52 169.58 226.28 194 226.28C224.58 226.28 244.6 208.68 244.6 179.64C244.6 155.66 228.98 135.42 195.54 135.42C149.34 135.42 119.42 173.48 111.94 204.94C111.06 208.9 110.18 213.74 110.4 218.58C110.84 223.2 112.16 233.54 113.48 239.26L98.0803 241.68C94.1203 227.6 90.8203 205.38 90.8203 184.48C90.8203 159.84 95.4403 129.48 96.5403 117.16C96.9803 113.42 97.2003 109.9 96.9803 107.26L115.68 108.58ZM191.58 90.54C194.88 106.16 199.28 138.72 199.28 171.06C199.28 216.82 190.04 255.98 154.84 279.08L138.78 269.4C173.1 250.7 182.78 214.18 182.78 171.28C182.78 142.9 179.48 116.28 177.06 104.62C175.96 100 174.64 94.28 173.32 91.2L191.58 90.54Z" fill="#f00"/>
<path d="M77.4258 119V109.18H77.2847L74.3047 111.272V109.213L77.4341 107.022H79.5674V119H77.4258Z" fill="#000"/>
<path d="M205.283 81.5249C205.283 80.4071 205.671 79.494 206.445 78.7856C207.226 78.0773 208.23 77.7231 209.458 77.7231C210.643 77.7231 211.617 78.0469 212.38 78.6943C213.15 79.3418 213.534 80.1663 213.534 81.168C213.534 81.8099 213.34 82.4463 212.953 83.0771C212.566 83.7025 211.863 84.5187 210.845 85.5259L208.338 88.041V88.1821H213.717V90H205.399V88.5142L209.392 84.4302C210.211 83.6001 210.756 82.9775 211.027 82.5625C211.299 82.1419 211.434 81.7214 211.434 81.3008C211.434 80.7751 211.24 80.3407 210.853 79.9976C210.471 79.6545 209.984 79.4829 209.392 79.4829C208.767 79.4829 208.26 79.6711 207.873 80.0474C207.486 80.4237 207.292 80.9162 207.292 81.5249V81.5581H205.283V81.5249Z" fill="#000"/>
<path fill-rule="evenodd" clip-rule="evenodd" d="M93.0714 149.343L86.7074 155.707C86.3169 156.098 85.6837 156.098 85.2932 155.707L78.9292 149.343C78.5387 148.953 78.5387 148.319 78.9292 147.929C79.3198 147.538 79.9529 147.538 80.3434 147.929L85.0003 152.586L85.0003 109L87.0003 109L87.0003 152.586L91.6571 147.929C92.0477 147.538 92.6808 147.538 93.0714 147.929C93.4619 148.319 93.4619 148.953 93.0714 149.343Z" fill="#000"/>
<path fill-rule="evenodd" clip-rule="evenodd" d="M210.2 109.4L204.8 116.6C204.469 117.042 203.842 117.131 203.4 116.8L196.2 111.4C195.758 111.069 195.669 110.442 196 110C196.331 109.558 196.958 109.469 197.4 109.8L202.669 113.751L198.01 81.1413L199.99 80.8585L204.649 113.469L208.6 108.2C208.931 107.758 209.558 107.669 210 108C210.442 108.331 210.531 108.958 210.2 109.4Z" fill="#000"/>
<path fill-rule="evenodd" clip-rule="evenodd" d="M269.842 161.991C265.085 142.839 253.25 127.767 239.606 121.919L240.394 120.081C254.751 126.234 266.915 141.911 271.783 161.509C276.515 180.559 274.383 203.402 260.634 225.06L267.137 223.777C267.678 223.67 268.204 224.023 268.311 224.565C268.418 225.107 268.066 225.632 267.524 225.739L258.694 227.481C258.152 227.588 257.626 227.236 257.519 226.694L255.777 217.864C255.67 217.322 256.023 216.796 256.565 216.689C257.107 216.582 257.633 216.935 257.74 217.477L259.005 223.894C272.395 202.745 274.441 180.505 269.842 161.991Z" fill="#000"/>
</svg>
