<svg width="345" height="345" viewBox="0 0 345 345" fill="none" xmlns="http://www.w3.org/2000/svg">
<path d="M152.2 89.4399C151.54 93.3999 151.1 99.3399 150.88 104.62C150.22 117.6 149.12 151.26 149.12 174.14C149.12 197.02 150.22 231.34 150.22 245.2C150.22 265.44 142.74 272.04 130.64 272.04C113.48 272.04 84.8799 255.32 84.8799 235.52C84.8799 216.16 111.06 195.7 138.34 185.36C157.92 177.66 179.92 173.7 197.3 173.7C229.64 173.7 252.74 191.08 252.74 217.48C252.74 244.1 236.02 261.04 205.66 268.08C195.98 270.28 186.08 270.72 178.38 271.16L172.22 253.56C180.58 253.56 189.82 253.78 198.18 252.02C217.32 248.28 234.92 237.94 234.92 217.48C234.92 198.78 217.98 188.88 197.3 188.88C177.5 188.88 159.46 193.06 140.76 200.54C119.2 208.9 102.26 223.64 102.26 234.86C102.26 244.76 117.66 253.56 126.24 253.56C131.3 253.56 134.16 250.04 134.16 242.78C134.16 230.02 133.06 199.44 133.06 175.02C133.06 149.72 133.94 113.86 133.94 104.84C133.94 100.66 133.5 92.9599 132.84 89.4399H152.2ZM220.62 113.86C236.24 122 260.22 136.96 270.78 145.76L261.98 159.84C251.2 149.72 226.56 134.54 212.48 127.06L220.62 113.86ZM88.6199 128.82C100.72 130.36 108.64 130.58 116.56 130.58C138.34 130.58 173.32 125.96 195.1 119.36L195.54 136.52C172.88 142.02 136.8 146.86 117 146.86C104.68 146.86 96.3199 146.42 89.0599 145.76L88.6199 128.82Z" fill="#f00"/>
<path d="M75.4258 115V105.18H75.2847L72.3047 107.272V105.213L75.4341 103.022H77.5674V115H75.4258Z" fill="#000"/>
<path d="M168.283 64.5249C168.283 63.4071 168.671 62.494 169.445 61.7856C170.226 61.0773 171.23 60.7231 172.458 60.7231C173.643 60.7231 174.617 61.0469 175.38 61.6943C176.15 62.3418 176.534 63.1663 176.534 64.168C176.534 64.8099 176.34 65.4463 175.953 66.0771C175.566 66.7025 174.863 67.5187 173.845 68.5259L171.338 71.041V71.1821H176.717V73H168.399V71.5142L172.392 67.4302C173.211 66.6001 173.756 65.9775 174.027 65.5625C174.299 65.1419 174.434 64.7214 174.434 64.3008C174.434 63.7751 174.24 63.3407 173.853 62.9976C173.471 62.6545 172.984 62.4829 172.392 62.4829C171.767 62.4829 171.26 62.6711 170.873 63.0474C170.486 63.4237 170.292 63.9162 170.292 64.5249V64.5581H168.283V64.5249Z" fill="#000"/>
<path d="M236.439 95.6875V94.0273H237.9C238.509 94.0273 239.004 93.8613 239.386 93.5293C239.768 93.1917 239.958 92.7546 239.958 92.2178C239.958 91.6865 239.77 91.2632 239.394 90.9478C239.023 90.6268 238.525 90.4663 237.9 90.4663C237.28 90.4663 236.777 90.6296 236.389 90.9561C236.007 91.2826 235.797 91.728 235.758 92.2925H233.758C233.813 91.1912 234.217 90.3224 234.97 89.686C235.722 89.0441 236.721 88.7231 237.966 88.7231C239.128 88.7231 240.094 89.0275 240.863 89.6362C241.638 90.2394 242.025 91.0003 242.025 91.9189C242.025 92.6217 241.829 93.2222 241.436 93.7202C241.049 94.2183 240.523 94.5365 239.859 94.6748V94.8159C240.678 94.91 241.323 95.2171 241.793 95.7373C242.269 96.2575 242.507 96.916 242.507 97.7129C242.507 98.7422 242.075 99.5972 241.212 100.278C240.354 100.958 239.275 101.299 237.975 101.299C236.685 101.299 235.634 100.97 234.82 100.311C234.012 99.6525 233.581 98.7754 233.525 97.6797H235.576C235.62 98.2331 235.861 98.6758 236.298 99.0078C236.735 99.3343 237.299 99.4976 237.991 99.4976C238.677 99.4976 239.236 99.3205 239.668 98.9663C240.105 98.6066 240.324 98.1445 240.324 97.5801C240.324 96.9935 240.111 96.5314 239.685 96.1938C239.258 95.8563 238.677 95.6875 237.941 95.6875H236.439Z" fill="#000"/>
<path fill-rule="evenodd" clip-rule="evenodd" d="M112.343 112.929L118.707 119.293C119.098 119.684 119.098 120.317 118.707 120.707L112.343 127.071C111.953 127.462 111.319 127.462 110.929 127.071C110.538 126.681 110.538 126.048 110.929 125.657L115.586 121L72 121L72 119L115.586 119L110.929 114.343C110.538 113.953 110.538 113.32 110.929 112.929C111.319 112.539 111.953 112.539 112.343 112.929Z" fill="#000"/>
<path fill-rule="evenodd" clip-rule="evenodd" d="M166.071 100.343L159.707 106.707C159.317 107.098 158.684 107.098 158.293 106.707L151.929 100.343C151.539 99.9526 151.539 99.3195 151.929 98.9289C152.32 98.5384 152.953 98.5384 153.343 98.9289L158 103.586L158 60L160 60L160 103.586L164.657 98.9289C165.048 98.5384 165.681 98.5384 166.071 98.9289C166.462 99.3195 166.462 99.9526 166.071 100.343Z" fill="#000"/>
<path fill-rule="evenodd" clip-rule="evenodd" d="M262.046 119.1L263.518 127.979C263.608 128.524 263.24 129.039 262.695 129.129L253.816 130.601C253.271 130.691 252.756 130.323 252.666 129.778C252.576 129.233 252.944 128.718 253.489 128.628L259.986 127.551L225.418 102.813L226.582 101.187L261.15 125.924L260.073 119.427C259.983 118.882 260.351 118.367 260.896 118.277C261.441 118.187 261.956 118.555 262.046 119.1Z" fill="#000"/>
<path fill-rule="evenodd" clip-rule="evenodd" d="M82.1419 208.045C82.6689 207.88 83.23 208.174 83.395 208.701L86.0842 217.29C86.2492 217.817 85.9557 218.378 85.4287 218.543C84.9016 218.708 84.3406 218.414 84.1755 217.887L82.2237 211.654C76.5075 223.464 75.2203 233.907 76.8266 242.838C78.5324 252.324 83.5179 260.199 90.1077 266.264C96.7025 272.334 104.887 276.574 112.927 278.769C120.982 280.97 128.796 281.094 134.673 279.055L135.328 280.945C128.955 283.156 120.706 282.968 112.4 280.699C104.079 278.426 95.6033 274.041 88.7532 267.736C81.898 261.426 76.6536 253.176 74.8582 243.192C73.16 233.75 74.5624 222.839 80.4825 210.661L74.1506 212.643C73.6236 212.808 73.0625 212.515 72.8975 211.988C72.7325 211.461 73.026 210.9 73.553 210.735L82.1419 208.045Z" fill="#000"/>
</svg>
