<svg width="345" height="345" viewBox="0 0 345 345" fill="none" xmlns="http://www.w3.org/2000/svg">
<path d="M276.28 248.28C264.4 260.16 250.76 266.76 235.8 266.76C221.06 266.76 211.38 257.08 211.38 239.04C211.38 214.4 219.52 178.32 219.52 156.98C219.52 144.22 213.14 138.72 201.92 138.72C181.24 138.72 149.34 166 128.66 191.08L128.88 169.3C142.52 154.34 179.04 122.66 206.1 122.66C226.78 122.66 236.9 134.32 236.9 152.14C236.9 174.14 228.54 211.98 228.54 234.2C228.54 241.68 232.28 247.62 240.2 247.62C250.54 247.62 262.2 241.24 273.42 229.58L276.28 248.28ZM128.44 143.12C121.18 144.22 97.4199 147.08 81.1399 149.72L79.1599 131.46C83.9999 131.68 88.1799 131.68 93.6799 131.24C105.34 130.58 132.84 127.28 142.96 123.98L149.34 131.46C145.6 137.18 139.66 146.64 135.92 152.8L129.32 182.94C119.2 198.56 98.7399 228.26 84.8799 247.4L73.8799 232.44C87.5199 215.28 117.22 175.02 125.8 160.5L126.68 149.06L128.44 143.12ZM126.24 106.82C126.24 101.76 126.46 96.04 125.36 90.54L146.04 91.2C142.96 105.5 136.36 168.42 136.36 207.14C136.36 227.16 136.36 240.58 137.24 260.16C137.46 263.9 138.12 269.4 138.34 273.58H119.42C119.86 269.4 120.08 264.12 120.08 260.6C120.08 239.26 120.3 228.26 120.52 204.06C120.96 184.7 126.24 114.96 126.24 106.82Z" fill="#f00"/>
<path fill-rule="evenodd" clip-rule="evenodd" d="M112.343 110.929L118.707 117.293C119.098 117.684 119.098 118.317 118.707 118.707L112.343 125.071C111.953 125.462 111.319 125.462 110.929 125.071C110.538 124.681 110.538 124.048 110.929 123.657L115.586 119L72 119L72 117L115.586 117L110.929 112.343C110.538 111.953 110.538 111.32 110.929 110.929C111.319 110.539 111.953 110.539 112.343 110.929Z" fill="#000"/>
<path fill-rule="evenodd" clip-rule="evenodd" d="M165.071 128.343L158.707 134.707C158.317 135.098 157.684 135.098 157.293 134.707L150.929 128.343C150.539 127.953 150.539 127.319 150.929 126.929C151.32 126.538 151.953 126.538 152.343 126.929L157 131.586L157 88L159 88L159 131.586L163.657 126.929C164.048 126.538 164.681 126.538 165.071 126.929C165.462 127.319 165.462 127.953 165.071 128.343Z" fill="#000"/>
<path fill-rule="evenodd" clip-rule="evenodd" d="M64.2798 233.589C66.793 224.631 71.6388 214.847 78.7332 206.359L80.2677 207.642C73.3621 215.904 68.6454 225.432 66.2054 234.13C63.7526 242.873 63.6474 250.6 65.7288 255.349C66.7548 257.69 68.28 259.245 70.2709 259.932C72.2804 260.625 74.9415 260.495 78.3457 259.091C84.8969 256.39 93.8216 249.124 105.191 235.26L98.6639 235.979C98.1149 236.04 97.6209 235.643 97.5605 235.095C97.5 234.546 97.896 234.052 98.445 233.991L107.391 233.006C107.94 232.946 108.434 233.342 108.494 233.891L109.479 242.837C109.54 243.386 109.144 243.88 108.595 243.94C108.046 244.001 107.552 243.605 107.491 243.056L106.769 236.491C95.325 250.452 86.1314 258.044 79.1082 260.94C75.4265 262.458 72.2399 262.727 69.6186 261.822C66.9786 260.912 65.0898 258.873 63.897 256.152C61.5409 250.776 61.7794 242.502 64.2798 233.589Z" fill="#000"/>
<path d="M168.121 98.978V89.1582H167.98L165 91.25V89.1914L168.129 87H170.263V98.978H168.121Z" fill="#000"/>
<path d="M78 103.802C78 102.684 78.3874 101.771 79.1621 101.062C79.9424 100.354 80.9468 100 82.1753 100C83.3595 100 84.3335 100.324 85.0972 100.971C85.8664 101.619 86.251 102.443 86.251 103.445C86.251 104.087 86.0573 104.723 85.6699 105.354C85.2826 105.979 84.5798 106.796 83.5615 107.803L81.0547 110.318V110.459H86.4336V112.277H78.1162V110.791L82.1089 106.707C82.9279 105.877 83.473 105.254 83.7441 104.839C84.0153 104.419 84.1509 103.998 84.1509 103.578C84.1509 103.052 83.9572 102.618 83.5698 102.274C83.188 101.931 82.701 101.76 82.1089 101.76C81.4836 101.76 80.9772 101.948 80.5898 102.324C80.2025 102.701 80.0088 103.193 80.0088 103.802V103.835H78V103.802Z" fill="#000"/>
</svg>
