<svg width="345" height="345" viewBox="0 0 345 345" fill="none" xmlns="http://www.w3.org/2000/svg">
<path d="M155.06 92.7399C153.3 98.6799 152.2 105.5 150.88 111.22C147.8 128.82 139 171.28 131.52 191.74C150.66 178.32 170.46 172.82 193.34 172.82C228.32 172.82 248.78 190.64 248.78 216.38C248.78 262.36 201.92 279.3 135.04 272.26L130.42 254.66C181.46 261.7 230.74 253.12 230.74 216.82C230.74 200.54 217.32 187.78 191.58 187.78C165.4 187.78 140.98 196.8 126.46 214.18C123.82 217.48 121.84 220.56 119.64 224.3L103.36 218.58C120.08 185.8 131.74 131.24 134.38 110.12C135.26 103.08 135.7 97.7999 135.26 91.8599L155.06 92.7399ZM86.6396 120.9C98.2996 122.88 115.02 124.42 128.22 124.42C156.38 124.42 199.72 121.12 234.26 113.42L234.7 130.36C203.46 135.86 158.58 140.26 128.44 140.26C113.48 140.26 99.3996 139.16 86.8596 138.06L86.6396 120.9Z" fill="#f00"/>
<path d="M86.4258 108V98.1802H86.2847L83.3047 100.272V98.2134L86.4341 96.022H88.5674V108H86.4258Z" fill="#000"/>
<path d="M174.283 81.5249C174.283 80.4071 174.671 79.494 175.445 78.7856C176.226 78.0773 177.23 77.7231 178.458 77.7231C179.643 77.7231 180.617 78.0469 181.38 78.6943C182.15 79.3418 182.534 80.1663 182.534 81.168C182.534 81.8099 182.34 82.4463 181.953 83.0771C181.566 83.7025 180.863 84.5187 179.845 85.5259L177.338 88.041V88.1821H182.717V90H174.399V88.5142L178.392 84.4302C179.211 83.6001 179.756 82.9775 180.027 82.5625C180.299 82.1419 180.434 81.7214 180.434 81.3008C180.434 80.7751 180.24 80.3407 179.853 79.9976C179.471 79.6545 178.984 79.4829 178.392 79.4829C177.767 79.4829 177.26 79.6711 176.873 80.0474C176.486 80.4237 176.292 80.9162 176.292 81.5249V81.5581H174.283V81.5249Z" fill="#000"/>
<path fill-rule="evenodd" clip-rule="evenodd" d="M123.343 105.929L129.707 112.293C130.098 112.684 130.098 113.317 129.707 113.707L123.343 120.071C122.953 120.462 122.319 120.462 121.929 120.071C121.538 119.681 121.538 119.048 121.929 118.657L126.586 114L83 114L83 112L126.586 112L121.929 107.343C121.538 106.953 121.538 106.32 121.929 105.929C122.319 105.539 122.953 105.539 123.343 105.929Z" fill="#000"/>
<path fill-rule="evenodd" clip-rule="evenodd" d="M168.905 111.582L161.581 116.814C161.132 117.135 160.507 117.03 160.186 116.581L154.955 109.257C154.634 108.808 154.738 108.183 155.188 107.862C155.637 107.541 156.261 107.646 156.582 108.095L160.41 113.454L167.014 73.8354L168.986 74.1642L162.383 113.783L167.742 109.955C168.192 109.634 168.816 109.738 169.137 110.187C169.458 110.637 169.354 111.261 168.905 111.582Z" fill="#000"/>
<path fill-rule="evenodd" clip-rule="evenodd" d="M255.934 242.901C255.436 243.14 254.839 242.931 254.599 242.434L250.695 234.325C250.455 233.827 250.664 233.229 251.162 232.99C251.66 232.75 252.257 232.959 252.497 233.457L255.337 239.356C263.007 215.76 259.554 198.259 251.066 186.588C242.279 174.505 227.974 168.5 214.5 168.5L214.5 166.5C228.526 166.5 243.471 172.744 252.684 185.412C261.643 197.73 265.068 215.961 257.209 240.067L263.175 237.194C263.673 236.955 264.271 237.164 264.51 237.662C264.75 238.159 264.541 238.757 264.043 238.996L255.934 242.901Z" fill="#000"/>
</svg>
