<svg width="345" height="345" viewBox="0 0 345 345" fill="none" xmlns="http://www.w3.org/2000/svg">
<path d="M172.66 144.66C178.6 140.92 184.76 136.3 188.06 133.66C178.38 125.74 157.92 114.74 140.98 107.92L151.1 95.1599C168.04 102.2 192.24 114.3 205.44 123.98L209.62 135.2C204.34 139.6 192.02 149.5 183.66 155.22L172.66 144.66ZM130.2 249.82C141.42 253.12 151.98 254.88 165.84 254.88C175.96 254.88 188.06 250.7 188.06 236.4C188.06 221.66 172.22 201.86 159.9 188.44C155.06 183.16 148.46 177 142.3 171.72L155.28 160.5C160.56 166 166.28 171.94 171.34 177.44C192.02 199.22 206.54 218.58 206.54 238.38C206.54 265.44 184.54 271.38 168.7 271.38C154.62 271.38 142.52 269.84 132.62 268.08L130.2 249.82ZM257.14 257.96C250.98 237.06 235.58 205.6 220.4 188.44L234.92 180.52C250.1 198.12 266.6 229.8 273.42 249.16L257.14 257.96ZM137.68 215.28C124.92 228.48 102.92 246.96 81.58 259.72L71.02 245.2C89.28 235.3 114.8 215.72 127.34 202.08L137.68 215.28Z" fill="#2A2A2A"/>
<path d="M171.425 82V72.1802H171.284L168.304 74.272V72.2134L171.434 70.022H173.567V82H171.425Z" fill="#9A7861"/>
<path d="M183.283 162.525C183.283 161.407 183.671 160.494 184.445 159.786C185.226 159.077 186.23 158.723 187.458 158.723C188.643 158.723 189.617 159.047 190.38 159.694C191.15 160.342 191.534 161.166 191.534 162.168C191.534 162.81 191.34 163.446 190.953 164.077C190.566 164.702 189.863 165.519 188.845 166.526L186.338 169.041V169.182H191.717V171H183.399V169.514L187.392 165.43C188.211 164.6 188.756 163.978 189.027 163.562C189.299 163.142 189.434 162.721 189.434 162.301C189.434 161.775 189.24 161.341 188.853 160.998C188.471 160.654 187.984 160.483 187.392 160.483C186.767 160.483 186.26 160.671 185.873 161.047C185.486 161.424 185.292 161.916 185.292 162.525V162.558H183.283V162.525Z" fill="#9A7861"/>
<path d="M104.439 190.688V189.027H105.9C106.509 189.027 107.004 188.861 107.386 188.529C107.768 188.192 107.959 187.755 107.959 187.218C107.959 186.687 107.771 186.263 107.395 185.948C107.024 185.627 106.526 185.466 105.9 185.466C105.281 185.466 104.777 185.63 104.39 185.956C104.008 186.283 103.798 186.728 103.759 187.292H101.758C101.814 186.191 102.218 185.322 102.97 184.686C103.723 184.044 104.722 183.723 105.967 183.723C107.129 183.723 108.095 184.028 108.864 184.636C109.639 185.239 110.026 186 110.026 186.919C110.026 187.622 109.829 188.222 109.437 188.72C109.049 189.218 108.523 189.536 107.859 189.675V189.816C108.678 189.91 109.323 190.217 109.793 190.737C110.269 191.257 110.507 191.916 110.507 192.713C110.507 193.742 110.076 194.597 109.212 195.278C108.355 195.958 107.276 196.299 105.975 196.299C104.686 196.299 103.634 195.97 102.821 195.311C102.013 194.653 101.581 193.775 101.526 192.68H103.576C103.62 193.233 103.861 193.676 104.298 194.008C104.736 194.334 105.3 194.498 105.992 194.498C106.678 194.498 107.237 194.32 107.668 193.966C108.106 193.607 108.324 193.145 108.324 192.58C108.324 191.993 108.111 191.531 107.685 191.194C107.259 190.856 106.678 190.688 105.942 190.688H104.439Z" fill="#9A7861"/>
<path d="M260.087 183V180.767H254.235V178.858C255.209 177.065 256.836 174.453 259.116 171.022H262.138V178.958H263.756V180.767H262.138V183H260.087ZM256.219 178.883V179.007H260.121V172.765H260.004C258.709 174.68 257.448 176.719 256.219 178.883Z" fill="#9A7861"/>
<path fill-rule="evenodd" clip-rule="evenodd" d="M200.587 187.353L200.057 196.337C200.024 196.889 199.551 197.309 199 197.277L190.015 196.746C189.464 196.714 189.043 196.24 189.076 195.689C189.108 195.138 189.582 194.717 190.133 194.75L196.707 195.138L167.757 162.555L169.252 161.227L198.202 193.809L198.591 187.235C198.623 186.684 199.096 186.263 199.648 186.296C200.199 186.328 200.62 186.802 200.587 187.353Z" fill="#9A7861"/>
<path fill-rule="evenodd" clip-rule="evenodd" d="M196.92 98.0925L199.551 106.699C199.712 107.227 199.415 107.787 198.887 107.948L190.28 110.579C189.752 110.74 189.193 110.443 189.031 109.915C188.87 109.387 189.167 108.828 189.695 108.666L195.993 106.741L160.531 87.883L161.47 86.1172L196.932 104.975L195.007 98.6771C194.846 98.149 195.143 97.5899 195.671 97.4285C196.199 97.267 196.758 97.5643 196.92 98.0925Z" fill="#9A7861"/>
<path fill-rule="evenodd" clip-rule="evenodd" d="M92.9252 228.359L83.941 227.825C83.3897 227.793 82.9693 227.319 83.002 226.768L83.5352 217.784C83.5679 217.232 84.0413 216.812 84.5926 216.845C85.144 216.877 85.5644 217.351 85.5316 217.902L85.1415 224.476L116.927 196.252L118.255 197.748L86.4694 225.972L93.0437 226.362C93.595 226.395 94.0154 226.868 93.9827 227.42C93.9499 227.971 93.4765 228.391 92.9252 228.359Z" fill="#9A7861"/>
<path fill-rule="evenodd" clip-rule="evenodd" d="M272.543 208.648L270.153 217.325C270.007 217.857 269.456 218.17 268.924 218.024L260.247 215.634C259.714 215.487 259.401 214.936 259.548 214.404C259.695 213.871 260.245 213.559 260.778 213.705L267.127 215.454L246.13 178.494L247.869 177.506L268.866 214.466L270.615 208.117C270.762 207.585 271.312 207.272 271.845 207.418C272.377 207.565 272.69 208.116 272.543 208.648Z" fill="#9A7861"/>
</svg>
