<svg width="345" height="345" viewBox="0 0 345 345" fill="none" xmlns="http://www.w3.org/2000/svg">
<path d="M185.86 114.96C183 137.84 178.6 163.58 171.78 187.12C158.36 232.22 140.76 255.54 120.52 255.54C100.72 255.54 81.1401 233.1 81.1401 196.58C81.1401 148.84 123.6 107.26 177.5 107.26C228.98 107.26 261.76 143.56 261.76 188.22C261.76 234.2 231.4 265 179.04 271.82L168.92 255.54C175.96 254.88 182.56 254 187.84 252.9C216 246.52 243.72 225.4 243.72 187.34C243.72 152.14 219.3 123.1 177.06 123.1C128.66 123.1 98.5201 162.92 98.5201 195.26C98.5201 222.98 111.06 235.3 120.96 235.3C131.3 235.3 143.18 220.34 154.4 183.16C160.78 162.26 165.4 137.4 167.6 114.52L185.86 114.96Z" fill="#2A2A2A"/>
<path d="M203.426 147V137.18H203.285L200.305 139.272V137.214L203.434 135.022H205.567V147H203.426Z" fill="#9A7861"/>
<path fill-rule="evenodd" clip-rule="evenodd" d="M194.935 172.405L187.39 177.312C186.927 177.613 186.308 177.482 186.007 177.019L181.1 169.474C180.799 169.011 180.93 168.392 181.393 168.09C181.856 167.789 182.475 167.921 182.777 168.384L186.367 173.905L195.178 132.32L197.134 132.734L188.324 174.319L193.845 170.729C194.308 170.427 194.927 170.559 195.228 171.022C195.529 171.485 195.398 172.104 194.935 172.405Z" fill="#9A7861"/>
<path fill-rule="evenodd" clip-rule="evenodd" d="M69.8343 193.205C70.2736 192.87 70.9011 192.955 71.2358 193.394L76.6911 200.552C77.0259 200.992 76.9412 201.619 76.5019 201.954C76.0627 202.289 75.4352 202.204 75.1004 201.765L71.1324 196.558C68.8197 217.261 73.1757 234.257 81.5606 246.175C90.2638 258.545 103.339 265.5 118 265.5V267.5C102.661 267.5 88.9867 260.206 79.9249 247.326C71.1941 234.916 66.775 217.374 69.1559 196.237L63.8884 200.251C63.4492 200.586 62.8217 200.501 62.4869 200.062C62.1522 199.622 62.2369 198.995 62.6761 198.66L69.8343 193.205Z" fill="#9A7861"/>
<path fill-rule="evenodd" clip-rule="evenodd" d="M272.639 184.769C272.215 185.122 271.584 185.064 271.231 184.639L265.478 177.719C265.125 177.294 265.183 176.663 265.607 176.31C266.032 175.957 266.663 176.015 267.016 176.44L271.191 181.462C273.379 145.107 249.18 116.108 222.179 106.947L222.821 105.053C250.632 114.489 275.497 144.323 273.179 181.72L278.282 177.478C278.706 177.125 279.337 177.183 279.69 177.607C280.043 178.032 279.985 178.663 279.56 179.016L272.639 184.769Z" fill="#9A7861"/>
</svg>
