<svg width="345" height="345" viewBox="0 0 345 345" fill="none" xmlns="http://www.w3.org/2000/svg">
<path d="M165.62 90.9798C164.74 93.6198 163.86 97.5798 163.2 100.66C159.46 119.14 155.72 153.9 155.72 184.04C155.72 212.64 161.88 239.04 168.7 259.72L152.64 264.56C146.26 244.98 140.32 213.74 140.32 185.8C140.32 155.66 144.72 120.02 146.7 101.1C147.14 97.1398 147.36 93.1798 147.36 90.3198L165.62 90.9798ZM130.2 118.04C168.92 118.04 207.2 114.96 237.56 108.14L237.78 124.42C206.1 129.92 162.76 133.22 129.98 133.22C120.52 133.22 103.36 132.34 94.34 131.9L93.9 115.4C101.6 116.72 120.74 118.04 130.2 118.04ZM221.94 144C220.62 146.86 218.64 152.8 217.32 156.32C204.34 197.02 182.34 227.6 159.24 245.42C145.16 256.2 127.56 264.34 111.94 264.34C97.42 264.34 85.98 255.54 85.98 236.84C85.98 206.7 113.92 175.68 146.48 163.14C161.22 157.42 179.04 154.12 193.34 154.12C234.92 154.12 261.1 178.32 261.1 209.12C261.1 240.58 240.2 268.08 189.16 276.22L179.7 261.48C219.3 257.08 243.94 236.62 243.94 208.24C243.94 186.9 225.9 168.2 193.12 168.2C174.64 168.2 158.36 173.48 147.14 178.54C122.28 189.54 102.48 213.74 102.48 233.98C102.48 243 106.88 247.4 115.02 247.4C126.02 247.4 140.32 241.24 154.4 228.92C173.98 211.76 192.02 188 202.14 152.36C203.02 149.06 204.12 143.12 204.34 139.6L221.94 144Z" fill="#2A2A2A"/>
<path d="M86.4253 104V94.1797H86.2842L83.3042 96.2715V94.2129L86.4336 92.0215H88.5669V104H86.4253Z" fill="#9A7861"/>
<path d="M186.283 74.5244C186.283 73.4066 186.671 72.4935 187.445 71.7852C188.226 71.0768 189.23 70.7227 190.458 70.7227C191.643 70.7227 192.617 71.0464 193.38 71.6938C194.15 72.3413 194.534 73.1659 194.534 74.1675C194.534 74.8094 194.34 75.4458 193.953 76.0767C193.566 76.702 192.863 77.5182 191.845 78.5254L189.338 81.0405V81.1816H194.717V82.9995H186.399V81.5137L190.392 77.4297C191.211 76.5996 191.756 75.9771 192.027 75.562C192.299 75.1414 192.434 74.7209 192.434 74.3003C192.434 73.7746 192.24 73.3402 191.853 72.9971C191.471 72.654 190.984 72.4824 190.392 72.4824C189.767 72.4824 189.26 72.6706 188.873 73.0469C188.486 73.4232 188.292 73.9157 188.292 74.5244V74.5576H186.283V74.5244Z" fill="#9A7861"/>
<path d="M238.439 147.687V146.027H239.9C240.509 146.027 241.004 145.861 241.386 145.529C241.768 145.191 241.959 144.754 241.959 144.217C241.959 143.686 241.771 143.263 241.395 142.947C241.024 142.626 240.526 142.466 239.9 142.466C239.281 142.466 238.777 142.629 238.39 142.956C238.008 143.282 237.798 143.728 237.759 144.292H235.758C235.814 143.191 236.218 142.322 236.97 141.686C237.723 141.044 238.722 140.723 239.967 140.723C241.129 140.723 242.095 141.027 242.864 141.636C243.639 142.239 244.026 143 244.026 143.918C244.026 144.621 243.829 145.222 243.437 145.72C243.049 146.218 242.523 146.536 241.859 146.674V146.815C242.678 146.91 243.323 147.217 243.793 147.737C244.269 148.257 244.507 148.916 244.507 149.712C244.507 150.742 244.076 151.597 243.212 152.277C242.355 152.958 241.276 153.298 239.975 153.298C238.686 153.298 237.634 152.969 236.821 152.311C236.013 151.652 235.581 150.775 235.526 149.679H237.576C237.62 150.233 237.861 150.675 238.298 151.007C238.736 151.334 239.3 151.497 239.992 151.497C240.678 151.497 241.237 151.32 241.668 150.966C242.106 150.606 242.324 150.144 242.324 149.58C242.324 148.993 242.111 148.531 241.685 148.193C241.259 147.856 240.678 147.687 239.942 147.687H238.439Z" fill="#9A7861"/>
<path fill-rule="evenodd" clip-rule="evenodd" d="M123.343 101.929L129.707 108.293C130.098 108.683 130.098 109.316 129.707 109.707L123.343 116.071C122.953 116.461 122.319 116.461 121.929 116.071C121.538 115.68 121.538 115.047 121.929 114.657L126.586 110L83 110L83 108L126.586 108L121.929 103.343C121.538 102.952 121.538 102.319 121.929 101.929C122.319 101.538 122.953 101.538 123.343 101.929Z" fill="#9A7861"/>
<path fill-rule="evenodd" clip-rule="evenodd" d="M180.905 104.582L173.581 109.814C173.132 110.135 172.507 110.03 172.186 109.581L166.955 102.257C166.634 101.808 166.738 101.183 167.188 100.862C167.637 100.541 168.261 100.646 168.582 101.095L172.41 106.454L179.014 66.8354L180.986 67.1642L174.383 106.783L179.742 102.955C180.192 102.634 180.816 102.738 181.137 103.187C181.458 103.637 181.354 104.261 180.905 104.582Z" fill="#9A7861"/>
<path fill-rule="evenodd" clip-rule="evenodd" d="M226.406 183.631L218.472 187.881C217.985 188.142 217.379 187.959 217.118 187.472L212.868 179.539C212.608 179.052 212.791 178.446 213.278 178.185C213.765 177.924 214.371 178.107 214.631 178.594L217.741 184.4L230.043 143.71L231.957 144.289L219.656 184.978L225.461 181.868C225.948 181.608 226.554 181.791 226.815 182.278C227.076 182.764 226.892 183.37 226.406 183.631Z" fill="#9A7861"/>
<path fill-rule="evenodd" clip-rule="evenodd" d="M82.1504 206.063C82.6678 205.87 83.2439 206.133 83.437 206.65L86.5843 215.082C86.7775 215.599 86.5146 216.175 85.9972 216.368C85.4798 216.562 84.9037 216.299 84.7106 215.781L82.419 209.642C70.1385 237.982 74.6718 256.749 85.4275 267.001C96.5467 277.599 114.647 279.452 129.097 273.085L129.903 274.915C114.853 281.547 95.8535 279.701 84.0477 268.449C72.4486 257.393 68.1062 237.596 80.6174 208.77L74.4181 211.084C73.9007 211.277 73.3247 211.014 73.1315 210.497C72.9384 209.979 73.2013 209.403 73.7187 209.21L82.1504 206.063Z" fill="#9A7861"/>
</svg>
