<svg width="345" height="345" viewBox="0 0 345 345" fill="none" xmlns="http://www.w3.org/2000/svg">
<path d="M152.2 89.4399C151.54 93.3999 151.1 99.3399 150.88 104.62C150.22 117.6 149.12 151.26 149.12 174.14C149.12 197.02 150.22 231.34 150.22 245.2C150.22 265.44 142.74 272.04 130.64 272.04C113.48 272.04 84.8799 255.32 84.8799 235.52C84.8799 216.16 111.06 195.7 138.34 185.36C157.92 177.66 179.92 173.7 197.3 173.7C229.64 173.7 252.74 191.08 252.74 217.48C252.74 244.1 236.02 261.04 205.66 268.08C195.98 270.28 186.08 270.72 178.38 271.16L172.22 253.56C180.58 253.56 189.82 253.78 198.18 252.02C217.32 248.28 234.92 237.94 234.92 217.48C234.92 198.78 217.98 188.88 197.3 188.88C177.5 188.88 159.46 193.06 140.76 200.54C119.2 208.9 102.26 223.64 102.26 234.86C102.26 244.76 117.66 253.56 126.24 253.56C131.3 253.56 134.16 250.04 134.16 242.78C134.16 230.02 133.06 199.44 133.06 175.02C133.06 149.72 133.94 113.86 133.94 104.84C133.94 100.66 133.5 92.9599 132.84 89.4399H152.2ZM220.62 113.86C236.24 122 260.22 136.96 270.78 145.76L261.98 159.84C251.2 149.72 226.56 134.54 212.48 127.06L220.62 113.86ZM88.6199 128.82C100.72 130.36 108.64 130.58 116.56 130.58C138.34 130.58 173.32 125.96 195.1 119.36L195.54 136.52C172.88 142.02 136.8 146.86 117 146.86C104.68 146.86 96.3199 146.42 89.0599 145.76L88.6199 128.82Z" fill="#2A2A2A"/>
<path d="M75.4253 115V105.18H75.2842L72.3042 107.272V105.213L75.4336 103.022H77.5669V115H75.4253Z" fill="#9A7861"/>
<path d="M168.283 64.5249C168.283 63.4071 168.671 62.494 169.445 61.7856C170.226 61.0773 171.23 60.7231 172.458 60.7231C173.643 60.7231 174.617 61.0469 175.38 61.6943C176.15 62.3418 176.534 63.1663 176.534 64.168C176.534 64.8099 176.34 65.4463 175.953 66.0771C175.566 66.7025 174.863 67.5187 173.845 68.5259L171.338 71.041V71.1821H176.717V73H168.399V71.5142L172.392 67.4302C173.211 66.6001 173.756 65.9775 174.027 65.5625C174.299 65.1419 174.434 64.7214 174.434 64.3008C174.434 63.7751 174.24 63.3407 173.853 62.9976C173.471 62.6545 172.984 62.4829 172.392 62.4829C171.767 62.4829 171.26 62.6711 170.873 63.0474C170.486 63.4237 170.292 63.9162 170.292 64.5249V64.5581H168.283V64.5249Z" fill="#9A7861"/>
<path d="M236.439 95.6875V94.0273H237.9C238.509 94.0273 239.004 93.8613 239.386 93.5293C239.768 93.1917 239.959 92.7546 239.959 92.2178C239.959 91.6865 239.771 91.2632 239.395 90.9478C239.024 90.6268 238.526 90.4663 237.9 90.4663C237.281 90.4663 236.777 90.6296 236.39 90.9561C236.008 91.2826 235.798 91.728 235.759 92.2925H233.758C233.814 91.1912 234.218 90.3224 234.97 89.686C235.723 89.0441 236.722 88.7231 237.967 88.7231C239.129 88.7231 240.095 89.0275 240.864 89.6362C241.639 90.2394 242.026 91.0003 242.026 91.9189C242.026 92.6217 241.829 93.2222 241.437 93.7202C241.049 94.2183 240.523 94.5365 239.859 94.6748V94.8159C240.678 94.91 241.323 95.2171 241.793 95.7373C242.269 96.2575 242.507 96.916 242.507 97.7129C242.507 98.7422 242.076 99.5972 241.212 100.278C240.355 100.958 239.276 101.299 237.975 101.299C236.686 101.299 235.634 100.97 234.821 100.311C234.013 99.6525 233.581 98.7754 233.526 97.6797H235.576C235.62 98.2331 235.861 98.6758 236.298 99.0078C236.736 99.3343 237.3 99.4976 237.992 99.4976C238.678 99.4976 239.237 99.3205 239.668 98.9663C240.106 98.6066 240.324 98.1445 240.324 97.5801C240.324 96.9935 240.111 96.5314 239.685 96.1938C239.259 95.8563 238.678 95.6875 237.942 95.6875H236.439Z" fill="#9A7861"/>
<path fill-rule="evenodd" clip-rule="evenodd" d="M112.343 112.929L118.707 119.293C119.098 119.684 119.098 120.317 118.707 120.707L112.343 127.071C111.953 127.462 111.319 127.462 110.929 127.071C110.538 126.681 110.538 126.048 110.929 125.657L115.586 121L72 121L72 119L115.586 119L110.929 114.343C110.538 113.953 110.538 113.32 110.929 112.929C111.319 112.539 111.953 112.539 112.343 112.929Z" fill="#9A7861"/>
<path fill-rule="evenodd" clip-rule="evenodd" d="M166.071 100.343L159.707 106.707C159.316 107.098 158.683 107.098 158.293 106.707L151.929 100.343C151.538 99.9526 151.538 99.3195 151.929 98.9289C152.319 98.5384 152.952 98.5384 153.343 98.9289L158 103.586L158 60L160 60L160 103.586L164.657 98.9289C165.047 98.5384 165.68 98.5384 166.071 98.9289C166.461 99.3195 166.461 99.9526 166.071 100.343Z" fill="#9A7861"/>
<path fill-rule="evenodd" clip-rule="evenodd" d="M262.047 119.1L263.518 127.979C263.609 128.524 263.24 129.039 262.695 129.129L253.817 130.601C253.272 130.691 252.757 130.323 252.666 129.778C252.576 129.233 252.945 128.718 253.489 128.628L259.987 127.551L225.418 102.813L226.582 101.187L261.151 125.924L260.074 119.427C259.983 118.882 260.352 118.367 260.897 118.277C261.441 118.187 261.956 118.555 262.047 119.1Z" fill="#9A7861"/>
<path fill-rule="evenodd" clip-rule="evenodd" d="M82.1414 208.045C82.6684 207.88 83.2295 208.174 83.3945 208.701L86.0837 217.29C86.2487 217.817 85.9552 218.378 85.4282 218.543C84.9011 218.708 84.3401 218.414 84.1751 217.887L82.2232 211.654C76.507 223.464 75.2198 233.907 76.8261 242.838C78.5319 252.324 83.5174 260.199 90.1072 266.264C96.702 272.334 104.886 276.574 112.927 278.769C120.981 280.97 128.796 281.094 134.672 279.055L135.328 280.945C128.954 283.156 120.706 282.968 112.4 280.699C104.078 278.426 95.6028 274.041 88.7527 267.736C81.8975 261.426 76.6531 253.176 74.8577 243.192C73.1595 233.75 74.5619 222.839 80.482 210.661L74.1501 212.643C73.6231 212.808 73.062 212.515 72.897 211.988C72.732 211.461 73.0255 210.9 73.5525 210.735L82.1414 208.045Z" fill="#9A7861"/>
</svg>
