<svg width="345" height="345" viewBox="0 0 345 345" fill="none" xmlns="http://www.w3.org/2000/svg">
<path d="M113.04 104.62C117 105.06 122.28 105.28 128.44 105.28C139.88 105.28 190.26 103.96 204.12 103.08C207.86 102.86 213.14 101.98 216.44 101.1L226.78 114.08C223.92 115.4 219.52 118.7 217.1 120.24C200.82 133.88 174.64 155.66 156.38 170.4C168.26 166 179.04 164.68 187.84 164.68C224.14 164.68 249.22 185.14 249.22 215.06C249.22 257.08 207.86 279.74 134.82 274.02L129.98 255.98C190.92 263.46 230.96 247.4 230.96 214.84C230.96 193.72 212.92 179.2 184.54 179.2C146.7 179.2 126.68 198.56 98.96 224.74L85.54 211.1C117.88 186.02 175.74 137.4 194.66 118.48C181.02 119.14 139.88 120.68 128.88 121.34C124.04 121.78 117.88 122.44 113.48 122.88L113.04 104.62Z" fill="#2A2A2A"/>
<path d="M122.425 88V78.1802H122.284L119.304 80.272V78.2134L122.434 76.022H124.567V88H122.425Z" fill="#9A7861"/>
<path fill-rule="evenodd" clip-rule="evenodd" d="M159.343 85.9291L165.707 92.2931C166.098 92.6836 166.098 93.3168 165.707 93.7073L159.343 100.071C158.953 100.462 158.319 100.462 157.929 100.071C157.538 99.6807 157.538 99.0476 157.929 98.657L162.586 94.0002L119 94.0002L119 92.0002L162.586 92.0002L157.929 87.3433C157.538 86.9528 157.538 86.3197 157.929 85.9291C158.319 85.5386 158.953 85.5386 159.343 85.9291Z" fill="#9A7861"/>
<path fill-rule="evenodd" clip-rule="evenodd" d="M257.364 188.674C248.738 173.194 232.79 163.819 220.695 159.952L221.304 158.047C233.709 162.014 250.162 171.639 259.111 187.701C267.896 203.466 269.335 225.219 253.071 253.451L259.489 251.847C260.024 251.713 260.567 252.039 260.701 252.575C260.835 253.11 260.509 253.653 259.974 253.787L251.242 255.97C250.707 256.104 250.164 255.778 250.03 255.242L247.847 246.511C247.713 245.975 248.039 245.432 248.575 245.298C249.11 245.164 249.653 245.49 249.787 246.026L251.377 252.385C267.324 224.667 265.731 203.691 257.364 188.674Z" fill="#9A7861"/>
<path fill-rule="evenodd" clip-rule="evenodd" d="M78.437 200.933C81.8524 193.516 87.5793 186.935 95.1453 184.065L95.8546 185.935C88.9206 188.565 83.5225 194.671 80.2536 201.77C76.9823 208.874 75.92 216.808 77.4815 222.941C78.2594 225.996 79.6765 228.563 81.7509 230.387C83.8154 232.201 86.5971 233.338 90.2238 233.43C97.2159 233.608 107.319 229.897 121.049 219.677L114.546 218.831C113.998 218.76 113.612 218.258 113.683 217.711C113.754 217.163 114.256 216.777 114.804 216.848L123.729 218.008C124.276 218.079 124.663 218.581 124.591 219.129L123.431 228.054C123.36 228.601 122.858 228.988 122.31 228.916C121.763 228.845 121.376 228.344 121.448 227.796L122.3 221.239C108.419 231.582 97.8478 235.625 90.1729 235.429C86.1293 235.326 82.8837 234.045 80.4306 231.889C77.9875 229.741 76.3967 226.786 75.5434 223.434C73.8424 216.754 75.0239 208.345 78.437 200.933Z" fill="#9A7861"/>
</svg>
