<svg width="345" height="345" viewBox="0 0 345 345" fill="none" xmlns="http://www.w3.org/2000/svg">
<path d="M258.66 139.4C257.94 142.1 257.4 149.12 257.4 153.98C257.4 159.92 257.4 174.14 257.4 183.86C257.4 199.16 259.56 228.14 259.56 240.38C259.56 252.08 252.18 262.52 232.56 262.52C211.32 262.52 196.38 254.42 196.38 238.4C196.38 223.46 209.88 213.74 234.72 213.74C264.78 213.74 290.16 229.76 304.56 242.72L296.82 255.32C282.42 240.56 258.84 225.08 233.28 225.08C218.88 225.08 208.98 229.58 208.98 237.86C208.98 244.88 217.08 250.28 230.94 250.28C240.84 250.28 245.88 244.7 245.88 236.06C245.88 224 244.26 198.44 244.26 182.96C244.26 175.4 244.26 160.28 244.26 154.16C244.26 148.94 243.72 141.92 243 139.4H258.66ZM250.92 166.94C260.64 166.94 286.74 165.86 302.22 164.06L302.58 176.66C287.28 178.1 261 179.18 251.1 179.18L250.92 166.94Z" fill="#2A2A2A"/>
<path d="M134.12 117.98C137.9 139.76 145.64 170.54 172.28 194.3L162.74 207.08C142.76 185.84 130.52 158.84 119.9 122.12L134.12 117.98ZM21.4404 127.7C24.1404 127.88 27.9204 127.88 31.1604 127.7C47.1804 126.98 77.4204 122.66 88.0404 118.7L92.1804 131.3C89.8404 132.02 85.3404 133.28 82.6404 134.54C71.3004 143 43.7604 174.5 43.7604 211.4C43.7604 236.96 60.5004 245.42 79.0404 245.42C121.88 245.42 136.46 199.34 122.78 128.78L135.92 153.08C145.28 204.56 135.2 260.18 78.6804 260.18C50.4204 260.18 29.7204 244.34 29.7204 214.46C29.7204 180.98 47.3604 155.06 63.2004 137.24C54.0204 138.68 39.2604 140.48 32.7804 141.2C29.3604 141.74 26.3004 142.1 22.5204 142.82L21.4404 127.7Z" fill="#2A2A2A"/>
<path d="M26.0205 110.978V101.158H25.8794L22.8994 103.25V101.191L26.0288 99H28.1621V110.978H26.0205Z" fill="#9A7861"/>
<path fill-rule="evenodd" clip-rule="evenodd" d="M76.0198 104.752L83.1984 110.18C83.6389 110.514 83.726 111.141 83.3929 111.581L77.9645 118.76C77.6314 119.2 77.0042 119.287 76.5637 118.954C76.1232 118.621 76.0361 117.994 76.3693 117.554L80.3415 112.301L22.1501 120.379L21.8751 118.398L80.0665 110.32L74.8135 106.347C74.373 106.014 74.2859 105.387 74.619 104.947C74.9521 104.506 75.5793 104.419 76.0198 104.752Z" fill="#9A7861"/>
<path fill-rule="evenodd" clip-rule="evenodd" d="M111.14 128.664C110.456 138.291 112.237 149.94 117.422 161.545L115.596 162.361C110.282 150.466 108.437 138.49 109.145 128.523C109.848 118.61 113.098 110.48 118.211 106.536C120.801 104.538 123.858 103.631 127.211 104.138C130.536 104.641 134.056 106.518 137.655 109.896C144.577 116.393 151.999 128.638 159.146 148.359L162.004 142.407C162.243 141.909 162.84 141.699 163.338 141.938C163.836 142.177 164.046 142.775 163.807 143.273L159.911 151.386C159.672 151.884 159.074 152.094 158.577 151.855L150.463 147.959C149.966 147.72 149.756 147.122 149.995 146.624C150.234 146.127 150.831 145.917 151.329 146.156L157.25 148.999C150.15 129.417 142.867 117.531 136.286 111.354C132.877 108.154 129.713 106.539 126.912 106.116C124.138 105.696 121.624 106.43 119.433 108.12C114.983 111.551 111.827 118.983 111.14 128.664Z" fill="#9A7861"/>
<path d="M268.425 147.978V138.158H268.284L265.304 140.25V138.191L268.433 136H270.566V147.978H268.425Z" fill="#9A7861"/>
<path d="M220 142.802C220 141.684 220.387 140.771 221.162 140.062C221.942 139.354 222.947 139 224.175 139C225.36 139 226.333 139.324 227.097 139.971C227.866 140.619 228.251 141.443 228.251 142.445C228.251 143.087 228.057 143.723 227.67 144.354C227.283 144.979 226.58 145.796 225.562 146.803L223.055 149.318V149.459H228.434V151.277H220.116V149.791L224.109 145.707C224.928 144.877 225.473 144.254 225.744 143.839C226.015 143.419 226.151 142.998 226.151 142.578C226.151 142.052 225.957 141.618 225.57 141.274C225.188 140.931 224.701 140.76 224.109 140.76C223.484 140.76 222.977 140.948 222.59 141.324C222.202 141.701 222.009 142.193 222.009 142.802V142.835H220V142.802Z" fill="#9A7861"/>
<path fill-rule="evenodd" clip-rule="evenodd" d="M294.343 145.907L300.707 152.271C301.098 152.662 301.098 153.295 300.707 153.685L294.343 160.049C293.953 160.44 293.319 160.44 292.929 160.049C292.538 159.659 292.538 159.026 292.929 158.635L297.586 153.978L264 153.978L264 151.978L297.586 151.978L292.929 147.321C292.538 146.931 292.538 146.298 292.929 145.907C293.319 145.517 293.953 145.517 294.343 145.907Z" fill="#9A7861"/>
<path fill-rule="evenodd" clip-rule="evenodd" d="M311.411 222.395L313.688 231.102C313.828 231.636 313.508 232.183 312.973 232.323L304.266 234.6C303.732 234.74 303.185 234.42 303.046 233.885C302.906 233.351 303.226 232.805 303.76 232.665L310.132 230.999L271.215 208.218L272.225 206.492L311.142 229.273L309.476 222.901C309.336 222.367 309.656 221.82 310.19 221.681C310.724 221.541 311.271 221.861 311.411 222.395Z" fill="#9A7861"/>
<path fill-rule="evenodd" clip-rule="evenodd" d="M242.788 180.62L236.424 186.984C236.034 187.374 235.401 187.374 235.01 186.984L228.646 180.62C228.255 180.229 228.255 179.596 228.646 179.206C229.037 178.815 229.67 178.815 230.06 179.206L234.717 183.863L234.717 140.277L236.717 140.277L236.717 183.863L241.374 179.206C241.764 178.815 242.398 178.815 242.788 179.206C243.179 179.596 243.179 180.229 242.788 180.62Z" fill="#9A7861"/>
<path fill-rule="evenodd" clip-rule="evenodd" d="M202.719 211.524C203.258 211.644 203.597 212.179 203.476 212.718L201.513 221.501C201.393 222.04 200.858 222.379 200.319 222.259C199.78 222.138 199.441 221.604 199.561 221.065L200.97 214.761C190.078 222.831 187.236 235.133 190.03 245.681C193 256.896 202.292 266 215 266V268C201.209 268 191.251 258.103 188.096 246.193C185.092 234.851 188.213 221.566 200.028 212.972L193.499 211.512C192.96 211.392 192.621 210.857 192.741 210.318C192.862 209.779 193.396 209.44 193.935 209.56L202.719 211.524Z" fill="#9A7861"/>
</svg>
