<svg width="345" height="345" viewBox="0 0 345 345" fill="none" xmlns="http://www.w3.org/2000/svg">
<path d="M111.06 111.66C109.96 116.72 109.3 127.28 109.08 133C108.86 146.64 109.08 166.88 110.62 184.92C114.36 221.66 124.92 246.08 140.76 246.08C151.98 246.08 162.32 223.42 168.04 201.42L181.9 217.04C168.48 254.22 155.28 266.98 140.32 266.98C119.42 266.98 99.6202 246.3 93.4602 189.32C91.4802 170.4 91.0402 143.56 91.0402 130.8C91.0402 125.74 91.0402 116.28 89.7202 111.22L111.06 111.66ZM225.46 117.6C245.26 143.12 261.1 189.98 264.4 227.16L246.58 234.2C242.84 194.6 229.42 149.28 208.52 123.54L225.46 117.6Z" fill="#2A2A2A"/>
<path d="M62.4253 126V116.18H62.2842L59.3042 118.272V116.213L62.4336 114.022H64.5669V126H62.4253Z" fill="#9A7861"/>
<path d="M243.283 98.5249C243.283 97.4071 243.671 96.494 244.445 95.7856C245.226 95.0773 246.23 94.7231 247.458 94.7231C248.643 94.7231 249.617 95.0469 250.38 95.6943C251.15 96.3418 251.534 97.1663 251.534 98.168C251.534 98.8099 251.34 99.4463 250.953 100.077C250.566 100.702 249.863 101.519 248.845 102.526L246.338 105.041V105.182H251.717V107H243.399V105.514L247.392 101.43C248.211 100.6 248.756 99.9775 249.027 99.5625C249.299 99.1419 249.434 98.7214 249.434 98.3008C249.434 97.7751 249.24 97.3407 248.853 96.9976C248.471 96.6545 247.984 96.4829 247.392 96.4829C246.767 96.4829 246.26 96.6711 245.873 97.0474C245.486 97.4237 245.292 97.9162 245.292 98.5249V98.5581H243.283V98.5249Z" fill="#9A7861"/>
<path fill-rule="evenodd" clip-rule="evenodd" d="M80.0709 149.343L73.7069 155.707C73.3164 156.098 72.6832 156.098 72.2927 155.707L65.9287 149.343C65.5382 148.953 65.5382 148.319 65.9287 147.929C66.3193 147.538 66.9524 147.538 67.343 147.929L71.9998 152.586L71.9998 109L73.9998 109L73.9998 152.586L78.6567 147.929C79.0472 147.538 79.6804 147.538 80.0709 147.929C80.4614 148.319 80.4614 148.953 80.0709 149.343Z" fill="#9A7861"/>
<path fill-rule="evenodd" clip-rule="evenodd" d="M255.269 131.288L252.262 139.771C252.078 140.291 251.506 140.564 250.986 140.379L242.503 137.373C241.982 137.188 241.71 136.616 241.894 136.096C242.079 135.575 242.65 135.303 243.171 135.487L249.378 137.688L232.097 101.43L233.903 100.57L251.184 136.827L253.384 130.62C253.568 130.099 254.14 129.827 254.661 130.011C255.181 130.196 255.454 130.767 255.269 131.288Z" fill="#9A7861"/>
</svg>
