<svg width="345" height="345" viewBox="0 0 345 345" fill="none" xmlns="http://www.w3.org/2000/svg">
<path d="M136.36 91.42C131.74 107.7 127.56 137.4 126.24 152.8C135.26 130.14 158.14 102.64 186.08 102.64C215.12 102.64 236.24 132.12 236.24 178.32C236.24 239.26 197.74 266.32 143.4 276.22L132.84 260.38C180.8 253.12 217.98 233.76 217.98 178.54C217.98 143.78 206.32 118.7 183.22 118.7C155.72 118.7 130.2 158.74 127.56 187.56C126.46 195.92 126.46 203.62 128 214.62L110.84 215.94C109.74 207.58 108.64 195.26 108.64 180.96C108.64 160.06 112.82 127.72 115.46 109.68C116.34 103.08 116.78 96.92 117.22 90.76L136.36 91.42Z" fill="#2A2A2A"/>
<path d="M93.4253 100V90.1802H93.2842L90.3042 92.272V90.2134L93.4336 88.022H95.5669V100H93.4253Z" fill="#9A7861"/>
<path d="M182.283 70.5249C182.283 69.4071 182.671 68.494 183.445 67.7856C184.226 67.0773 185.23 66.7231 186.458 66.7231C187.643 66.7231 188.617 67.0469 189.38 67.6943C190.15 68.3418 190.534 69.1663 190.534 70.168C190.534 70.8099 190.34 71.4463 189.953 72.0771C189.566 72.7025 188.863 73.5187 187.845 74.5259L185.338 77.041V77.1821H190.717V79H182.399V77.5142L186.392 73.4302C187.211 72.6001 187.756 71.9775 188.027 71.5625C188.299 71.1419 188.434 70.7214 188.434 70.3008C188.434 69.7751 188.24 69.3407 187.853 68.9976C187.471 68.6545 186.984 68.4829 186.392 68.4829C185.767 68.4829 185.26 68.6711 184.873 69.0474C184.486 69.4237 184.292 69.9162 184.292 70.5249V70.5581H182.283V70.5249Z" fill="#9A7861"/>
<path fill-rule="evenodd" clip-rule="evenodd" d="M110.071 128.343L103.707 134.707C103.316 135.098 102.683 135.098 102.293 134.707L95.9287 128.343C95.5382 127.953 95.5382 127.319 95.9287 126.929C96.3193 126.538 96.9524 126.538 97.343 126.929L102 131.586L102 88L104 88L104 131.586L108.657 126.929C109.047 126.538 109.68 126.538 110.071 126.929C110.461 127.319 110.461 127.953 110.071 128.343Z" fill="#9A7861"/>
<path fill-rule="evenodd" clip-rule="evenodd" d="M222.43 105.657C209.444 93.0993 192.873 90.0002 178.5 90L178.5 88C193.127 88.0002 210.306 91.151 223.82 104.219C237.057 117.018 246.597 139.157 246.988 176.598L251.657 171.929C252.047 171.539 252.681 171.539 253.071 171.929C253.462 172.32 253.462 172.953 253.071 173.343L246.707 179.707C246.317 180.098 245.683 180.098 245.293 179.707L238.929 173.343C238.538 172.953 238.538 172.32 238.929 171.929C239.319 171.539 239.953 171.539 240.343 171.929L244.987 176.573C244.593 139.466 235.138 117.945 222.43 105.657Z" fill="#9A7861"/>
</svg>
