<svg width="345" height="345" viewBox="0 0 345 345" fill="none" xmlns="http://www.w3.org/2000/svg">
<path d="M199.94 90.76C199.5 93.4 198.84 101.98 198.84 104.62C198.18 118.92 198.62 161.38 198.84 178.98L182.12 170.4C182.12 160.72 181.9 116.94 181.24 104.84C180.8 98.9 180.14 92.74 179.7 90.76H199.94ZM82.8999 121.56C112.82 121.12 167.82 119.14 201.7 119.14C228.54 119.14 255.82 119.14 266.16 119.36L265.94 135.64C253.62 134.98 233.82 134.54 201.48 134.54C163.64 134.54 116.56 136.08 83.3399 138.5L82.8999 121.56ZM198.4 185.36C198.4 214.84 184.76 229.58 164.74 229.58C146.26 229.58 128.44 216.6 128.44 192.62C128.44 170.84 146.48 154.56 167.38 154.56C192.9 154.56 205.88 173.48 205.88 198.78C205.88 228.7 191.36 261.7 140.32 276.88L125.58 262.58C165.62 253.12 188.94 233.54 188.94 197.24C188.94 177.44 179.26 169.08 167.38 169.08C155.72 169.08 144.94 178.1 144.94 192.4C144.94 206.26 155.28 214.18 167.38 214.18C181.02 214.18 189.82 202.74 186.3 179.2L198.4 185.36Z" fill="#2A2A2A"/>
<path d="M86.4253 104V94.1802H86.2842L83.3042 96.272V94.2134L86.4336 92.022H88.5669V104H86.4253Z" fill="#9A7861"/>
<path d="M217.283 75.5249C217.283 74.4071 217.671 73.494 218.445 72.7856C219.226 72.0773 220.23 71.7231 221.458 71.7231C222.643 71.7231 223.617 72.0469 224.38 72.6943C225.15 73.3418 225.534 74.1663 225.534 75.168C225.534 75.8099 225.34 76.4463 224.953 77.0771C224.566 77.7025 223.863 78.5187 222.845 79.5259L220.338 82.041V82.1821H225.717V84H217.399V82.5142L221.392 78.4302C222.211 77.6001 222.756 76.9775 223.027 76.5625C223.299 76.1419 223.434 75.7214 223.434 75.3008C223.434 74.7751 223.24 74.3407 222.853 73.9976C222.471 73.6545 221.984 73.4829 221.392 73.4829C220.767 73.4829 220.26 73.6711 219.873 74.0474C219.486 74.4237 219.292 74.9162 219.292 75.5249V75.5581H217.283V75.5249Z" fill="#9A7861"/>
<path fill-rule="evenodd" clip-rule="evenodd" d="M123.343 101.929L129.707 108.293C130.098 108.683 130.098 109.317 129.707 109.707L123.343 116.071C122.953 116.462 122.319 116.462 121.929 116.071C121.538 115.68 121.538 115.047 121.929 114.657L126.586 110L83 110L83 108L126.586 108L121.929 103.343C121.538 102.953 121.538 102.319 121.929 101.929C122.319 101.538 122.953 101.538 123.343 101.929Z" fill="#9A7861"/>
<path fill-rule="evenodd" clip-rule="evenodd" d="M216.071 105.343L209.707 111.707C209.316 112.098 208.683 112.098 208.293 111.707L201.929 105.343C201.538 104.953 201.538 104.319 201.929 103.929C202.319 103.538 202.952 103.538 203.343 103.929L208 108.586L208 78L210 78L210 108.586L214.657 103.929C215.047 103.538 215.68 103.538 216.071 103.929C216.461 104.319 216.461 104.953 216.071 105.343Z" fill="#9A7861"/>
<path fill-rule="evenodd" clip-rule="evenodd" d="M126.879 159.507C127.427 159.441 127.925 159.831 127.992 160.379L129.082 169.313C129.149 169.861 128.758 170.36 128.21 170.427C127.662 170.493 127.163 170.103 127.097 169.555L126.307 163.079C114.36 179.524 112.878 197.175 117.693 210.856C122.71 225.111 134.515 235 148.5 235V237C133.485 237 121.04 226.389 115.806 211.52C110.752 197.157 112.38 178.768 124.78 161.778L118.187 162.582C117.639 162.649 117.14 162.259 117.073 161.711C117.006 161.162 117.397 160.664 117.945 160.597L126.879 159.507Z" fill="#9A7861"/>
</svg>
