<svg width="345" height="345" viewBox="0 0 345 345" fill="none" xmlns="http://www.w3.org/2000/svg">
<path d="M80.48 118.92C88.84 118.7 95.88 118.26 100.28 117.82C114.58 116.28 155.94 112.32 196.64 108.8C220.62 106.82 241.08 105.5 255.82 105.06L256.04 122.66C243.28 122.44 224.14 122.88 212.92 125.96C181.46 136.08 162.32 169.74 162.32 195.7C162.32 238.6 202.58 252.24 238.22 253.78L232.06 271.82C191.14 270.28 144.94 248.72 144.94 199.44C144.94 165.12 165.84 137.18 186.08 125.3C162.32 127.72 106.44 133.22 82.46 138.28L80.48 118.92Z" fill="#2A2A2A"/>
<path d="M87.4253 98V88.1802H87.2842L84.3042 90.272V88.2134L87.4336 86.022H89.5669V98H87.4253Z" fill="#9A7861"/>
<path fill-rule="evenodd" clip-rule="evenodd" d="M144.84 94.3627L151.653 100.243C152.071 100.604 152.118 101.235 151.757 101.653L145.877 108.467C145.516 108.885 144.885 108.931 144.466 108.57C144.048 108.21 144.002 107.578 144.363 107.16L148.666 102.174L83.0733 106.997L82.9266 105.003L148.519 100.18L143.533 95.8768C143.115 95.516 143.069 94.8845 143.429 94.4664C143.79 94.0483 144.422 94.0019 144.84 94.3627Z" fill="#9A7861"/>
</svg>
