<svg width="345" height="345" viewBox="0 0 345 345" fill="none" xmlns="http://www.w3.org/2000/svg">
<path d="M223.48 102.42C228.1 129.04 237.56 166.66 270.12 195.7L258.46 211.32C234.04 185.36 219.08 152.36 206.1 107.48L223.48 102.42ZM85.7598 114.3C89.0598 114.52 93.6798 114.52 97.6398 114.3C117.22 113.42 154.18 108.14 167.16 103.3L172.22 118.7C169.36 119.58 163.86 121.12 160.56 122.66C146.7 133 113.04 171.5 113.04 216.6C113.04 247.84 133.5 258.18 156.16 258.18C208.52 258.18 226.34 201.86 209.62 115.62L225.68 145.32C237.12 208.24 224.8 276.22 155.72 276.22C121.18 276.22 95.8798 256.86 95.8798 220.34C95.8798 179.42 117.44 147.74 136.8 125.96C125.58 127.72 107.54 129.92 99.6198 130.8C95.4398 131.46 91.6998 131.9 87.0798 132.78L85.7598 114.3Z" fill="white"/>
<path d="M95.4248 98V88.1802H95.2837L92.3037 90.272V88.2134L95.4331 86.022H97.5664V98H95.4248Z" fill="#C08D6B"/>
<path fill-rule="evenodd" clip-rule="evenodd" d="M145.424 91.774L152.603 97.2024C153.043 97.5355 153.13 98.1627 152.797 98.6032L147.369 105.782C147.036 106.222 146.409 106.309 145.968 105.976C145.528 105.643 145.44 105.016 145.774 104.576L149.746 99.3225L91.5544 107.401L91.2794 105.42L149.471 97.3415L144.218 93.3693C143.777 93.0362 143.69 92.409 144.023 91.9685C144.356 91.528 144.984 91.4409 145.424 91.774Z" fill="#C08D6B"/>
<path fill-rule="evenodd" clip-rule="evenodd" d="M195.13 105.712C194.447 115.338 196.227 126.987 201.413 138.592L199.587 139.408C194.272 127.513 192.428 115.537 193.135 105.57C193.838 95.6575 197.088 87.5269 202.201 83.5833C204.792 81.5856 207.848 80.6786 211.201 81.1852C214.526 81.6877 218.046 83.5649 221.645 86.9429C228.567 93.4404 235.989 105.685 243.136 125.406L245.994 119.454C246.233 118.956 246.83 118.746 247.328 118.986C247.826 119.225 248.036 119.822 247.797 120.32L243.901 128.433C243.662 128.931 243.065 129.141 242.567 128.902L234.454 125.006C233.956 124.767 233.746 124.169 233.985 123.672C234.224 123.174 234.821 122.964 235.319 123.203L241.241 126.046C234.14 106.465 226.857 94.5782 220.276 88.4012C216.867 85.201 213.703 83.586 210.902 83.1628C208.128 82.7436 205.614 83.4772 203.423 85.167C198.974 88.5984 195.817 96.0302 195.13 105.712Z" fill="#C08D6B"/>
</svg>
