<svg width="345" height="345" viewBox="0 0 345 345" fill="none" xmlns="http://www.w3.org/2000/svg">
<path d="M129.1 236.84C129.1 216.6 129.1 138.72 129.1 115.4C129.1 108.8 128.88 101.54 127.78 95.1602H148.46C147.58 101.54 146.92 109.02 146.92 115.4C146.92 138.5 146.92 210.44 146.92 232.22C146.92 247.4 152.64 252.24 178.82 252.24C204.34 252.24 225.68 250.04 247.46 245.64L246.8 264.56C227.22 267.42 205.22 269.18 177.72 269.18C136.8 269.18 129.1 258.4 129.1 236.84ZM256.92 138.5C255.16 140.92 252.96 144.66 251.42 147.3C241.3 165.56 224.14 193.28 206.32 211.32L191.14 202.3C207.64 187.12 223.7 162.92 230.3 149.94C223.48 151.26 104.9 175.02 78.5005 180.74L74.9805 162.26C103.14 158.96 215.56 136.3 232.28 132.34C236.9 131.24 241.3 129.92 243.94 128.38L256.92 138.5Z" fill="#f00"/>
<path d="M77.4258 145V135.18H77.2847L74.3047 137.272V135.213L77.4341 133.022H79.5674V145H77.4258Z" fill="#000"/>
<path d="M168.283 84.5249C168.283 83.4071 168.671 82.494 169.445 81.7856C170.226 81.0773 171.23 80.7231 172.458 80.7231C173.643 80.7231 174.617 81.0469 175.38 81.6943C176.15 82.3418 176.534 83.1663 176.534 84.168C176.534 84.8099 176.34 85.4463 175.953 86.0771C175.566 86.7025 174.863 87.5187 173.845 88.5259L171.338 91.041V91.1821H176.717V93H168.399V91.5142L172.392 87.4302C173.211 86.6001 173.756 85.9775 174.027 85.5625C174.299 85.1419 174.434 84.7214 174.434 84.3008C174.434 83.7751 174.24 83.3407 173.853 82.9976C173.471 82.6545 172.984 82.4829 172.392 82.4829C171.767 82.4829 171.26 82.6711 170.873 83.0474C170.486 83.4237 170.292 83.9162 170.292 84.5249V84.5581H168.283V84.5249Z" fill="#000"/>
<path fill-rule="evenodd" clip-rule="evenodd" d="M114.344 139.86L121.593 145.194C122.038 145.522 122.133 146.148 121.806 146.593L116.472 153.841C116.144 154.286 115.518 154.382 115.074 154.054C114.629 153.727 114.534 153.101 114.861 152.656L118.764 147.352L75.1509 153.988L74.85 152.011L118.463 145.374L113.159 141.471C112.714 141.144 112.619 140.518 112.946 140.073C113.273 139.628 113.899 139.533 114.344 139.86Z" fill="#000"/>
<path fill-rule="evenodd" clip-rule="evenodd" d="M167.071 133.343L160.707 139.707C160.317 140.098 159.684 140.098 159.293 139.707L152.929 133.343C152.539 132.953 152.539 132.319 152.929 131.929C153.32 131.538 153.953 131.538 154.343 131.929L159 136.586L159 82L161 82L161 136.586L165.657 131.929C166.048 131.538 166.681 131.538 167.071 131.929C167.462 132.319 167.462 132.953 167.071 133.343Z" fill="#000"/>
<path fill-rule="evenodd" clip-rule="evenodd" d="M266.519 127.258C258.278 116.491 239.749 110.741 218.235 115.934L217.766 113.99C239.751 108.684 259.223 114.434 268.107 126.042C272.57 131.873 274.311 139.138 272.338 147.056C270.493 154.459 265.422 162.358 256.452 170.193L263.055 170.826C263.604 170.879 264.007 171.367 263.955 171.917C263.902 172.467 263.413 172.87 262.864 172.817L253.905 171.958C253.355 171.905 252.952 171.417 253.005 170.867L253.864 161.908C253.917 161.358 254.405 160.955 254.955 161.008C255.505 161.061 255.908 161.549 255.855 162.099L255.231 168.604C263.932 160.98 268.685 153.441 270.397 146.572C272.221 139.255 270.618 132.614 266.519 127.258Z" fill="#000"/>
</svg>
