<svg width="345" height="345" viewBox="0 0 345 345" fill="none" xmlns="http://www.w3.org/2000/svg">
<path d="M162.1 99.7798C166.94 110.12 180.36 145.1 184.1 157.42L166.94 163.36C163.2 150.82 150.88 116.94 145.38 105.28L162.1 99.7798ZM260 113.86C258.46 117.38 256.92 122.88 256.04 126.18C249.22 153.68 237.56 184.92 219.3 208.68C196.64 238.6 164.3 261.26 133.06 272.26L118.1 257.08C149.34 247.84 182.12 226.72 204.34 198.56C221.72 176.34 235.36 141.14 239.54 107.92L260 113.86ZM100.72 112.98C106.66 125.3 120.3 158.74 125.58 173.26L107.98 179.64C103.8 166 88.6196 128.82 83.5596 119.14L100.72 112.98Z" fill="#f00"/>
<path d="M124.425 114V104.18H124.284L121.304 106.272V104.213L124.433 102.022H126.566V114H124.425Z" fill="#000"/>
<path d="M178.283 88.5249C178.283 87.4071 178.671 86.494 179.445 85.7856C180.226 85.0773 181.23 84.7231 182.458 84.7231C183.643 84.7231 184.617 85.0469 185.38 85.6943C186.15 86.3418 186.534 87.1663 186.534 88.168C186.534 88.8099 186.34 89.4463 185.953 90.0771C185.566 90.7025 184.863 91.5187 183.845 92.5259L181.338 95.041V95.1821H186.717V97H178.399V95.5142L182.392 91.4302C183.211 90.6001 183.756 89.9775 184.027 89.5625C184.299 89.1419 184.434 88.7214 184.434 88.3008C184.434 87.7751 184.24 87.3407 183.853 86.9976C183.471 86.6545 182.984 86.4829 182.392 86.4829C181.767 86.4829 181.26 86.6711 180.873 87.0474C180.486 87.4237 180.292 87.9162 180.292 88.5249V88.5581H178.283V88.5249Z" fill="#000"/>
<path fill-rule="evenodd" clip-rule="evenodd" d="M140.252 157.005L136.929 165.369C136.725 165.882 136.144 166.133 135.631 165.929L127.267 162.606C126.753 162.403 126.503 161.821 126.707 161.308C126.91 160.795 127.492 160.544 128.005 160.748L134.126 163.179L113.082 114.396L114.918 113.604L135.962 162.387L138.393 156.266C138.597 155.753 139.179 155.502 139.692 155.706C140.205 155.91 140.456 156.492 140.252 157.005Z" fill="#000"/>
<path fill-rule="evenodd" clip-rule="evenodd" d="M198.252 140.005L194.929 148.369C194.725 148.882 194.144 149.133 193.631 148.929L185.267 145.606C184.753 145.403 184.503 144.821 184.707 144.308C184.91 143.795 185.492 143.544 186.005 143.748L192.126 146.179L171.082 97.3959L172.918 96.6037L193.962 145.387L196.393 139.266C196.597 138.753 197.179 138.502 197.692 138.706C198.205 138.91 198.456 139.492 198.252 140.005Z" fill="#000"/>
<path fill-rule="evenodd" clip-rule="evenodd" d="M231.687 214.458C256.452 181.708 266.135 147.151 271.515 116.825L273.484 117.175C268.074 147.667 258.307 182.59 233.249 215.708L239.804 214.882C240.352 214.813 240.852 215.201 240.921 215.749C240.99 216.297 240.602 216.797 240.054 216.866L231.125 217.992C230.577 218.061 230.077 217.673 230.008 217.125L228.882 208.196C228.813 207.648 229.201 207.147 229.749 207.078C230.297 207.009 230.797 207.398 230.866 207.945L231.687 214.458Z" fill="#000"/>
<path d="M280.915 123.964V122.304H282.375C282.984 122.304 283.479 122.138 283.861 121.806C284.243 121.469 284.434 121.031 284.434 120.495C284.434 119.963 284.246 119.54 283.87 119.225C283.499 118.904 283.001 118.743 282.375 118.743C281.756 118.743 281.252 118.906 280.865 119.233C280.483 119.559 280.273 120.005 280.234 120.569H278.233C278.289 119.468 278.693 118.599 279.445 117.963C280.198 117.321 281.197 117 282.442 117C283.604 117 284.57 117.304 285.339 117.913C286.114 118.516 286.501 119.277 286.501 120.196C286.501 120.899 286.305 121.499 285.912 121.997C285.524 122.495 284.999 122.813 284.334 122.952V123.093C285.153 123.187 285.798 123.494 286.269 124.014C286.744 124.534 286.982 125.193 286.982 125.99C286.982 127.019 286.551 127.874 285.688 128.555C284.83 129.235 283.751 129.576 282.45 129.576C281.161 129.576 280.109 129.246 279.296 128.588C278.488 127.929 278.056 127.052 278.001 125.957H280.051C280.096 126.51 280.336 126.953 280.773 127.285C281.211 127.611 281.775 127.774 282.467 127.774C283.153 127.774 283.712 127.597 284.144 127.243C284.581 126.883 284.799 126.421 284.799 125.857C284.799 125.27 284.586 124.808 284.16 124.471C283.734 124.133 283.153 123.964 282.417 123.964H280.915Z" fill="#000"/>
</svg>
