<svg width="345" height="345" viewBox="0 0 345 345" fill="none" xmlns="http://www.w3.org/2000/svg">
<path d="M128 96.04C140.98 103.3 166.28 120.24 175.96 127.28L165.62 142.24C155.06 134.1 131.08 118.26 118.32 111L128 96.04ZM94.9996 253.34C119.2 249.16 146.48 240.36 168.92 227.82C205.44 206.92 234.48 178.1 252.08 147.08L262.86 165.34C243.72 194.82 213.36 223.2 178.16 243.88C155.94 256.86 125.58 266.98 105.34 271.16L94.9996 253.34ZM94.9996 145.54C107.98 152.58 133.72 168.42 143.18 175.24L133.06 190.64C122.28 182.72 98.5196 167.54 85.0996 160.5L94.9996 145.54Z" fill="#f00"/>
<path d="M152.425 87V77.1802H152.284L149.304 79.272V77.2134L152.433 75.022H154.566V87H152.425Z" fill="#000"/>
<path d="M129.439 292.688V291.027H130.9C131.509 291.027 132.004 290.861 132.386 290.529C132.768 290.192 132.958 289.755 132.958 289.218C132.958 288.687 132.77 288.263 132.394 287.948C132.023 287.627 131.525 287.466 130.9 287.466C130.28 287.466 129.777 287.63 129.389 287.956C129.007 288.283 128.797 288.728 128.758 289.292H126.758C126.813 288.191 127.217 287.322 127.97 286.686C128.722 286.044 129.721 285.723 130.966 285.723C132.128 285.723 133.094 286.028 133.863 286.636C134.638 287.239 135.025 288 135.025 288.919C135.025 289.622 134.829 290.222 134.436 290.72C134.049 291.218 133.523 291.536 132.859 291.675V291.816C133.678 291.91 134.323 292.217 134.793 292.737C135.269 293.257 135.507 293.916 135.507 294.713C135.507 295.742 135.075 296.597 134.212 297.278C133.354 297.958 132.275 298.299 130.975 298.299C129.685 298.299 128.634 297.97 127.82 297.311C127.012 296.653 126.581 295.775 126.525 294.68H128.576C128.62 295.233 128.861 295.676 129.298 296.008C129.735 296.334 130.299 296.498 130.991 296.498C131.677 296.498 132.236 296.32 132.668 295.966C133.105 295.607 133.324 295.145 133.324 294.58C133.324 293.993 133.111 293.531 132.685 293.194C132.258 292.856 131.677 292.688 130.941 292.688H129.439Z" fill="#000"/>
<path d="M108.283 129.525C108.283 128.407 108.671 127.494 109.445 126.786C110.226 126.077 111.23 125.723 112.458 125.723C113.643 125.723 114.617 126.047 115.38 126.694C116.15 127.342 116.534 128.166 116.534 129.168C116.534 129.81 116.34 130.446 115.953 131.077C115.566 131.702 114.863 132.519 113.845 133.526L111.338 136.041V136.182H116.717V138H108.399V136.514L112.392 132.43C113.211 131.6 113.756 130.978 114.027 130.562C114.299 130.142 114.434 129.721 114.434 129.301C114.434 128.775 114.24 128.341 113.853 127.998C113.471 127.654 112.984 127.483 112.392 127.483C111.767 127.483 111.26 127.671 110.873 128.047C110.486 128.424 110.292 128.916 110.292 129.525V129.558H108.283V129.525Z" fill="#000"/>
<path fill-rule="evenodd" clip-rule="evenodd" d="M172.289 100.338L174.367 109.095C174.494 109.632 174.162 110.171 173.624 110.299L164.868 112.376C164.33 112.504 163.791 112.172 163.664 111.634C163.536 111.097 163.868 110.558 164.406 110.43L170.814 108.91L136.265 87.612L137.315 85.9095L171.863 107.208L170.343 100.8C170.215 100.262 170.548 99.7233 171.085 99.5958C171.622 99.4683 172.161 99.8006 172.289 100.338Z" fill="#000"/>
<path fill-rule="evenodd" clip-rule="evenodd" d="M135.499 151.577L137.576 160.334C137.704 160.871 137.372 161.41 136.834 161.538L128.077 163.616C127.54 163.743 127.001 163.411 126.874 162.873C126.746 162.336 127.078 161.797 127.616 161.67L134.024 160.149L99.4751 138.851L100.525 137.149L135.073 158.447L133.553 152.039C133.425 151.502 133.758 150.963 134.295 150.835C134.832 150.708 135.371 151.04 135.499 151.577Z" fill="#000"/>
<path fill-rule="evenodd" clip-rule="evenodd" d="M202.096 243.004C202.646 243.058 203.048 243.546 202.995 244.096L202.128 253.054C202.075 253.604 201.586 254.007 201.037 253.953C200.487 253.9 200.084 253.411 200.138 252.862L200.774 246.283C175.658 266.39 149.076 276.104 119.696 281.98L119.304 280.019C148.455 274.189 174.695 264.584 199.476 244.76L192.945 244.128C192.396 244.075 191.993 243.586 192.046 243.037C192.1 242.487 192.588 242.084 193.138 242.138L202.096 243.004Z" fill="#000"/>
</svg>
