<svg width="345" height="345" viewBox="0 0 345 345" fill="none" xmlns="http://www.w3.org/2000/svg">
<path d="M80.9199 185.58C118.98 175.46 152.42 159.84 176.84 144.66C199.94 130.14 221.94 111.22 237.12 92.7402L251.86 106.6C232.94 126.18 209.84 144.66 184.1 160.72C159.9 175.68 124.92 191.74 89.4999 202.74L80.9199 185.58ZM173.32 153.68L192.24 147.96V248.5C192.24 256.64 192.68 267.64 193.78 271.82H172C172.66 267.64 173.32 256.64 173.32 248.5V153.68Z" fill="#f00"/>
<path d="M212.425 82V72.1802H212.284L209.304 74.272V72.2134L212.433 70.022H214.566V82H212.425Z" fill="#000"/>
<path d="M214.283 167.525C214.283 166.407 214.671 165.494 215.445 164.786C216.226 164.077 217.23 163.723 218.458 163.723C219.643 163.723 220.617 164.047 221.38 164.694C222.15 165.342 222.534 166.166 222.534 167.168C222.534 167.81 222.34 168.446 221.953 169.077C221.566 169.702 220.863 170.519 219.845 171.526L217.338 174.041V174.182H222.717V176H214.399V174.514L218.392 170.43C219.211 169.6 219.756 168.978 220.027 168.562C220.299 168.142 220.434 167.721 220.434 167.301C220.434 166.775 220.24 166.341 219.853 165.998C219.471 165.654 218.984 165.483 218.392 165.483C217.767 165.483 217.26 165.671 216.873 166.047C216.486 166.424 216.292 166.916 216.292 167.525V167.558H214.283V167.525Z" fill="#000"/>
<path fill-rule="evenodd" clip-rule="evenodd" d="M150.147 143.955C182.844 125.827 204.68 105.848 221.748 86.3413L223.253 87.6583C206.052 107.316 184.033 127.46 151.086 145.721L157.415 147.589C157.945 147.746 158.247 148.302 158.091 148.831C157.935 149.361 157.378 149.664 156.849 149.507L148.217 146.959C147.687 146.803 147.385 146.246 147.541 145.717L150.09 137.085C150.246 136.555 150.802 136.253 151.332 136.409C151.861 136.565 152.164 137.122 152.008 137.651L150.147 143.955Z" fill="#000"/>
<path fill-rule="evenodd" clip-rule="evenodd" d="M213.071 216.343L206.707 222.707C206.317 223.098 205.684 223.098 205.293 222.707L198.929 216.343C198.539 215.953 198.539 215.319 198.929 214.929C199.32 214.538 199.953 214.538 200.343 214.929L205 219.586L205 165L207 165L207 219.586L211.657 214.929C212.048 214.538 212.681 214.538 213.071 214.929C213.462 215.319 213.462 215.953 213.071 216.343Z" fill="#000"/>
</svg>
