<svg width="345" height="345" viewBox="0 0 345 345" fill="none" xmlns="http://www.w3.org/2000/svg">
<path d="M101.16 121.78C108.2 122.44 115.46 122.88 122.72 122.88C136.58 122.88 205.88 122.88 217.1 122.88C225.02 122.88 232.72 122.44 238.66 121.78V141.58C232.72 141.36 224.36 141.14 217.1 141.14C206.1 141.14 133.5 141.14 122.72 141.14C115.24 141.14 107.76 141.36 101.16 141.58V121.78ZM82.2402 230.9C89.7202 231.34 97.2002 232 105.34 232C117.88 232 224.36 232 237.12 232C243.5 232 250.76 231.56 257.14 230.9V252.02C250.54 251.36 242.84 250.92 237.12 250.92C224.36 250.92 117.88 250.92 105.34 250.92C97.2002 250.92 89.5002 251.36 82.2402 252.02V230.9Z" fill="#f00"/>
<path d="M87.2832 206.525C87.2832 205.407 87.6706 204.494 88.4453 203.786C89.2256 203.077 90.23 202.723 91.4585 202.723C92.6427 202.723 93.6167 203.047 94.3804 203.694C95.1496 204.342 95.5342 205.166 95.5342 206.168C95.5342 206.81 95.3405 207.446 94.9531 208.077C94.5658 208.702 93.863 209.519 92.8447 210.526L90.3379 213.041V213.182H95.7168V215H87.3994V213.514L91.3921 209.43C92.2111 208.6 92.7562 207.978 93.0273 207.562C93.2985 207.142 93.4341 206.721 93.4341 206.301C93.4341 205.775 93.2404 205.341 92.853 204.998C92.4712 204.654 91.9842 204.483 91.3921 204.483C90.7668 204.483 90.2604 204.671 89.873 205.047C89.4857 205.424 89.292 205.916 89.292 206.525V206.558H87.2832V206.525Z" fill="#000"/>
<path fill-rule="evenodd" clip-rule="evenodd" d="M159.343 212.929L165.707 219.293C166.098 219.683 166.098 220.316 165.707 220.707L159.343 227.071C158.953 227.461 158.319 227.461 157.929 227.071C157.538 226.68 157.538 226.047 157.929 225.657L162.586 221L85 221L85 219L162.586 219L157.929 214.343C157.538 213.952 157.538 213.319 157.929 212.929C158.319 212.538 158.953 212.538 159.343 212.929Z" fill="#000"/>
<path fill-rule="evenodd" clip-rule="evenodd" d="M159.343 102.929L165.707 109.293C166.098 109.683 166.098 110.316 165.707 110.707L159.343 117.071C158.953 117.461 158.319 117.461 157.929 117.071C157.538 116.68 157.538 116.047 157.929 115.657L162.586 111L109 111L109 109L162.586 109L157.929 104.343C157.538 103.952 157.538 103.319 157.929 102.929C158.319 102.538 158.953 102.538 159.343 102.929Z" fill="#000"/>
<path d="M112.121 105.978V96.1582H111.98L109 98.25V96.1914L112.129 94H114.263V105.978H112.121Z" fill="#000"/>
</svg>
