<svg width="345" height="345" viewBox="0 0 345 345" fill="none" xmlns="http://www.w3.org/2000/svg">
<path d="M177.061 260.38C177.941 257.08 178.601 252.46 178.601 248.06C178.601 237.94 178.601 130.14 178.601 116.28C178.601 107.92 177.501 101.76 177.501 100H197.741C197.521 101.76 196.641 108.14 196.641 116.5C196.641 130.14 196.641 236.62 196.641 243.22C217.101 233.98 244.161 213.96 260.881 189.1L271.441 204.28C252.301 230.02 221.941 252.46 196.421 265.22C192.681 266.98 190.481 268.96 188.721 270.06L177.061 260.38ZM76.3008 259.5C95.0008 246.3 107.981 226.72 114.581 205.38C121.181 185.14 121.181 141.36 121.181 116.72C121.181 110.34 120.741 105.5 119.641 100.88H139.881C139.661 103.3 138.781 110.12 138.781 116.5C138.781 140.92 138.121 188.22 132.181 210.22C125.581 233.76 111.501 255.1 93.0208 270.5L76.3008 259.5Z" fill="#f00"/>
<path fill-rule="evenodd" clip-rule="evenodd" d="M112.072 151.343L105.708 157.707C105.318 158.098 104.685 158.098 104.294 157.707L97.9302 151.343C97.5397 150.953 97.5397 150.319 97.9302 149.929C98.3207 149.538 98.9539 149.538 99.3444 149.929L104.001 154.586L104.001 101L106.001 101L106.001 154.586L110.658 149.929C111.049 149.538 111.682 149.538 112.072 149.929C112.463 150.319 112.463 150.953 112.072 151.343Z" fill="#000"/>
<path fill-rule="evenodd" clip-rule="evenodd" d="M216.072 151.343L209.708 157.707C209.318 158.098 208.685 158.098 208.294 157.707L201.93 151.343C201.54 150.953 201.54 150.319 201.93 149.929C202.321 149.538 202.954 149.538 203.344 149.929L208.001 154.586L208.001 101L210.001 101L210.001 154.586L214.658 149.929C215.049 149.538 215.682 149.538 216.072 149.929C216.463 150.319 216.463 150.953 216.072 151.343Z" fill="#000"/>
<path d="M94.4258 110V100.18H94.2847L91.3047 102.272V100.213L94.4341 98.022H96.5674V110H94.4258Z" fill="#000"/>
<path d="M215.283 101.525C215.283 100.407 215.671 99.494 216.445 98.7856C217.226 98.0773 218.23 97.7231 219.458 97.7231C220.643 97.7231 221.617 98.0469 222.38 98.6943C223.15 99.3418 223.534 100.166 223.534 101.168C223.534 101.81 223.34 102.446 222.953 103.077C222.566 103.702 221.863 104.519 220.845 105.526L218.338 108.041V108.182H223.717V110H215.399V108.514L219.392 104.43C220.211 103.6 220.756 102.978 221.027 102.562C221.299 102.142 221.434 101.721 221.434 101.301C221.434 100.775 221.24 100.341 220.853 99.9976C220.471 99.6545 219.984 99.4829 219.392 99.4829C218.767 99.4829 218.26 99.6711 217.873 100.047C217.486 100.424 217.292 100.916 217.292 101.525V101.558H215.283V101.525Z" fill="#000"/>
<path fill-rule="evenodd" clip-rule="evenodd" d="M163.527 260.031C160.695 251.401 159.374 241.068 159.5 229.989L161.5 230.011C161.376 240.932 162.681 251.037 165.427 259.407C168.176 267.785 172.344 274.351 177.894 278.311C183.411 282.247 190.403 283.688 199.009 281.622C207.197 279.656 216.844 274.513 227.987 265.306L221.45 264.791C220.899 264.748 220.488 264.267 220.531 263.716C220.574 263.165 221.056 262.754 221.606 262.798L230.579 263.503C231.129 263.547 231.541 264.028 231.497 264.579L230.792 273.551C230.748 274.101 230.267 274.513 229.716 274.469C229.166 274.426 228.754 273.945 228.798 273.394L229.316 266.802C218.013 276.151 208.076 281.502 199.476 283.566C190.379 285.75 182.778 284.253 176.732 279.939C170.719 275.649 166.356 268.653 163.527 260.031Z" fill="#000"/>
</svg>
