<svg width="345" height="345" viewBox="0 0 345 345" fill="none" xmlns="http://www.w3.org/2000/svg">
<path d="M173.54 92.0801C173.1 97.1401 172.66 104.62 172.44 109.9C169.58 199.66 145.38 240.8 102.04 270.94L85.9805 257.96C93.0205 254.22 101.82 248.06 108.42 241.9C135.92 217.04 153.96 179.86 154.4 110.34C154.4 105.28 153.96 97.1401 153.08 92.0801H173.54ZM250.1 137.84C249.44 141.58 249 145.54 248.78 148.4C248.12 169.74 245.26 233.54 235.36 254.66C230.96 264.12 223.92 268.08 211.82 268.08C200.82 268.08 188.06 267.42 176.62 266.54L174.42 248.28C186.3 249.82 197.74 250.92 207.2 250.92C213.36 250.92 217.54 248.94 219.96 243.66C228.32 226.72 231.18 172.6 231.18 149.06H115.24C106.44 149.06 97.6405 149.28 89.7205 149.94V131.46C97.4205 132.12 106.44 132.56 115.02 132.56H223.7C229.64 132.56 233.82 132.12 237.56 131.46L250.1 137.84Z" fill="#f00"/>
<path d="M92.4258 111V101.18H92.2847L89.3047 103.272V101.213L92.4341 99.022H94.5674V111H92.4258Z" fill="#000"/>
<path d="M191.283 85.5249C191.283 84.4071 191.671 83.494 192.445 82.7856C193.226 82.0773 194.23 81.7231 195.458 81.7231C196.643 81.7231 197.617 82.0469 198.38 82.6943C199.15 83.3418 199.534 84.1663 199.534 85.168C199.534 85.8099 199.34 86.4463 198.953 87.0771C198.566 87.7025 197.863 88.5187 196.845 89.5259L194.338 92.041V92.1821H199.717V94H191.399V92.5142L195.392 88.4302C196.211 87.6001 196.756 86.9775 197.027 86.5625C197.299 86.1419 197.434 85.7214 197.434 85.3008C197.434 84.7751 197.24 84.3407 196.853 83.9976C196.471 83.6545 195.984 83.4829 195.392 83.4829C194.767 83.4829 194.26 83.6711 193.873 84.0474C193.486 84.4237 193.292 84.9162 193.292 85.5249V85.5581H191.283V85.5249Z" fill="#000"/>
<path fill-rule="evenodd" clip-rule="evenodd" d="M139.343 112.929L145.707 119.293C146.098 119.684 146.098 120.317 145.707 120.707L139.343 127.071C138.953 127.462 138.319 127.462 137.929 127.071C137.538 126.681 137.538 126.048 137.929 125.657L142.586 121H88V119H142.586L137.929 114.343C137.538 113.953 137.538 113.32 137.929 112.929C138.319 112.539 138.953 112.539 139.343 112.929Z" fill="#000"/>
<path fill-rule="evenodd" clip-rule="evenodd" d="M190.071 118.343L183.707 124.707C183.317 125.098 182.684 125.098 182.293 124.707L175.929 118.343C175.539 117.953 175.539 117.319 175.929 116.929C176.32 116.538 176.953 116.538 177.343 116.929L182 121.586L182 86L184 86L184 121.586L188.657 116.929C189.048 116.538 189.681 116.538 190.071 116.929C190.462 117.319 190.462 117.953 190.071 118.343Z" fill="#000"/>
<path fill-rule="evenodd" clip-rule="evenodd" d="M247.714 123.019C239.963 120.907 229.353 120 215 120V118C229.397 118 240.224 118.905 248.24 121.09C256.279 123.281 261.585 126.787 264.791 132.042C267.972 137.256 268.985 144.037 268.804 152.56C268.635 160.546 267.41 170.202 265.821 181.747L271.074 177.773C271.515 177.439 272.142 177.526 272.475 177.967C272.808 178.407 272.721 179.034 272.281 179.368L265.103 184.797C264.663 185.131 264.036 185.044 263.703 184.603L258.273 177.426C257.939 176.985 258.026 176.358 258.467 176.025C258.907 175.692 259.534 175.779 259.868 176.219L263.84 181.47C265.431 169.913 266.638 160.373 266.805 152.518C266.983 144.119 265.965 137.806 263.084 133.083C260.227 128.401 255.439 125.125 247.714 123.019Z" fill="#000"/>
</svg>
