<svg width="345" height="345" viewBox="0 0 345 345" fill="none" xmlns="http://www.w3.org/2000/svg">
<path d="M111.94 103.96C127.34 114.3 155.72 137.18 167.82 149.28L154.18 163.36C142.96 151.92 115.68 128.16 99.1795 117.38L111.94 103.96ZM93.0195 251.36C131.3 245.64 159.9 232.22 180.8 219.24C214.9 197.9 241.52 165.34 254.28 138.06L264.84 156.98C249.88 184.26 224.36 214.18 191.14 235.08C168.92 248.94 141.2 262.58 104.46 269.4L93.0195 251.36Z" fill="#f00"/>
<path d="M135.635 99V89.1802H135.494L132.514 91.272V89.2134L135.643 87.022H137.776V99H135.635Z" fill="#000"/>
<path d="M126.283 286.525C126.283 285.407 126.671 284.494 127.445 283.786C128.226 283.077 129.23 282.723 130.458 282.723C131.643 282.723 132.617 283.047 133.38 283.694C134.15 284.342 134.534 285.166 134.534 286.168C134.534 286.81 134.34 287.446 133.953 288.077C133.566 288.702 132.863 289.519 131.845 290.526L129.338 293.041V293.182H134.717V295H126.399V293.514L130.392 289.43C131.211 288.6 131.756 287.978 132.027 287.562C132.299 287.142 132.434 286.721 132.434 286.301C132.434 285.775 132.24 285.341 131.853 284.998C131.471 284.654 130.984 284.483 130.392 284.483C129.767 284.483 129.26 284.671 128.873 285.047C128.486 285.424 128.292 285.916 128.292 286.525V286.558H126.283V286.525Z" fill="#000"/>
<path fill-rule="evenodd" clip-rule="evenodd" d="M155.498 112.338L157.576 121.095C157.703 121.632 157.371 122.171 156.833 122.299L148.077 124.376C147.539 124.504 147 124.172 146.873 123.634C146.745 123.097 147.077 122.558 147.615 122.43L154.023 120.91L119.474 99.612L120.524 97.9095L155.072 119.208L153.552 112.8C153.424 112.262 153.757 111.723 154.294 111.596C154.831 111.468 155.37 111.801 155.498 112.338Z" fill="#000"/>
<path fill-rule="evenodd" clip-rule="evenodd" d="M201.095 240.005C201.645 240.058 202.047 240.547 201.994 241.096L201.127 250.055C201.074 250.604 200.585 251.007 200.036 250.954C199.486 250.9 199.083 250.412 199.137 249.862L199.773 243.283C174.657 263.39 148.075 273.105 118.695 278.981L118.303 277.019C147.455 271.189 173.694 261.584 198.475 241.761L191.944 241.128C191.395 241.075 190.992 240.587 191.045 240.037C191.099 239.487 191.587 239.085 192.137 239.138L201.095 240.005Z" fill="#000"/>
</svg>
