<svg width="345" height="345" viewBox="0 0 345 345" fill="none" xmlns="http://www.w3.org/2000/svg">
<path d="M239.98 104.84C237.78 109.02 234.7 116.5 232.94 121.12C224.58 142.9 211.38 171.5 193.34 194.38C172.22 221.22 143.62 250.26 102.04 271.82L87.0801 258.18C128 238.6 156.16 212.42 178.82 183.6C196.86 160.28 207.86 135.86 215.34 114.3C216.88 109.9 218.86 102.64 219.96 98.02L239.98 104.84ZM123.82 130.8C145.6 144.66 176.18 166.66 192.9 180.08C214.9 198.12 236.68 217.26 254.06 236.18L240.2 251.36C221.94 230.24 202.8 212.86 180.8 194.38C164.96 181.18 136.36 159.4 112.16 144.66L123.82 130.8Z" fill="#f00"/>
<path d="M150.426 120V110.18H150.285L147.305 112.272V110.213L150.434 108.022H152.567V120H150.426Z" fill="#000"/>
<path d="M258.283 117.525C258.283 116.407 258.671 115.494 259.445 114.786C260.226 114.077 261.23 113.723 262.458 113.723C263.643 113.723 264.617 114.047 265.38 114.694C266.15 115.342 266.534 116.166 266.534 117.168C266.534 117.81 266.34 118.446 265.953 119.077C265.566 119.702 264.863 120.519 263.845 121.526L261.338 124.041V124.182H266.717V126H258.399V124.514L262.392 120.43C263.211 119.6 263.756 118.978 264.027 118.562C264.299 118.142 264.434 117.721 264.434 117.301C264.434 116.775 264.24 116.341 263.853 115.998C263.471 115.654 262.984 115.483 262.392 115.483C261.767 115.483 261.26 115.671 260.873 116.047C260.486 116.424 260.292 116.916 260.292 117.525V117.558H258.283V117.525Z" fill="#000"/>
<path fill-rule="evenodd" clip-rule="evenodd" d="M179.42 143.963L180.984 152.826C181.08 153.37 180.717 153.889 180.173 153.985L171.31 155.549C170.767 155.645 170.248 155.282 170.152 154.738C170.056 154.194 170.419 153.675 170.963 153.579L177.448 152.435L139.426 125.819L140.573 124.181L178.595 150.796L177.451 144.311C177.355 143.767 177.718 143.248 178.262 143.152C178.806 143.056 179.324 143.419 179.42 143.963Z" fill="#000"/>
<path fill-rule="evenodd" clip-rule="evenodd" d="M234.712 166.53L226.378 169.926C225.866 170.134 225.283 169.889 225.074 169.377L221.678 161.042C221.47 160.531 221.716 159.947 222.227 159.739C222.739 159.53 223.322 159.776 223.531 160.288L226.015 166.387L249.079 111.612L250.922 112.388L227.859 167.163L233.958 164.678C234.469 164.47 235.053 164.715 235.261 165.227C235.47 165.738 235.224 166.322 234.712 166.53Z" fill="#000"/>
</svg>
