<svg width="345" height="345" viewBox="0 0 345 345" fill="none" xmlns="http://www.w3.org/2000/svg">
<path d="M120.08 257.08C156.6 242.34 181.24 218.58 197.74 193.94C214.68 168.86 221.5 142.68 225.24 122.22C226.34 116.5 227 108.36 227 104.4L248.78 107.26C247.02 113.2 245.26 120.68 244.6 124.64C239.32 150.82 230.52 178.54 214.46 203.18C197.08 229.8 172.44 254.44 136.36 271.16L120.08 257.08ZM106.44 107.04C116.34 121.34 135.7 155.22 143.4 169.52L126.02 179.42C116.56 159.62 98.3003 128.38 89.2803 115.84L106.44 107.04Z" fill="#f00"/>
<path d="M136.426 106V96.1802H136.285L133.305 98.272V96.2134L136.434 94.022H138.567V106H136.426Z" fill="#000"/>
<path d="M269.283 119.525C269.283 118.407 269.671 117.494 270.445 116.786C271.226 116.077 272.23 115.723 273.458 115.723C274.643 115.723 275.617 116.047 276.38 116.694C277.15 117.342 277.534 118.166 277.534 119.168C277.534 119.81 277.34 120.446 276.953 121.077C276.566 121.702 275.863 122.519 274.845 123.526L272.338 126.041V126.182H277.717V128H269.399V126.514L273.392 122.43C274.211 121.6 274.756 120.978 275.027 120.562C275.299 120.142 275.434 119.721 275.434 119.301C275.434 118.775 275.24 118.341 274.853 117.998C274.471 117.654 273.984 117.483 273.392 117.483C272.767 117.483 272.26 117.671 271.873 118.047C271.486 118.424 271.292 118.916 271.292 119.525V119.558H269.283V119.525Z" fill="#000"/>
<path fill-rule="evenodd" clip-rule="evenodd" d="M155.351 146.587L152.964 155.265C152.818 155.798 152.267 156.111 151.735 155.964L143.057 153.578C142.524 153.431 142.211 152.881 142.358 152.348C142.504 151.816 143.055 151.503 143.587 151.649L149.937 153.396L122.131 104.494L123.869 103.506L151.676 152.407L153.422 146.057C153.569 145.524 154.119 145.211 154.652 145.358C155.184 145.504 155.497 146.055 155.351 146.587Z" fill="#000"/>
<path fill-rule="evenodd" clip-rule="evenodd" d="M260.917 114.713C261.117 113.578 261.317 112.449 261.516 111.325L263.485 111.675C263.281 112.825 263.077 113.982 262.872 115.146C257.655 144.71 251.728 178.303 227.745 210.209L234.305 209.382C234.853 209.313 235.353 209.701 235.422 210.249C235.491 210.797 235.103 211.297 234.555 211.366L225.626 212.492C225.078 212.561 224.578 212.173 224.509 211.625L223.383 202.696C223.314 202.148 223.702 201.647 224.25 201.578C224.798 201.509 225.298 201.898 225.367 202.445L226.187 208.953C249.842 177.454 255.695 144.299 260.917 114.713Z" fill="#000"/>
</svg>
