<svg width="345" height="345" viewBox="0 0 345 345" fill="none" xmlns="http://www.w3.org/2000/svg">
<path d="M153.3 164.24C181.46 180.74 217.54 206.04 239.32 223.64L226.34 239.04C206.1 220.56 168.48 193.5 141.2 176.56L153.3 164.24ZM253.84 124.2C252.08 127.28 249.88 132.34 248.78 135.86C242.18 158.3 228.32 187.56 208.96 211.32C188.94 235.96 160.34 259.5 118.54 274.9L102.92 261.04C143.84 248.72 173.76 225.4 193.56 201.86C210.5 181.62 224.36 153.68 229.42 133.22H148.02L155.06 117.38H225.02C230.96 117.38 235.8 116.72 239.32 115.4L253.84 124.2ZM179.7 92.2999C175.96 98.0199 172 105.5 169.8 109.68C156.82 133.88 131.96 167.1 96.7602 191.3L82.2402 180.08C119.86 156.54 142.52 123.54 152.64 103.3C154.84 99.5599 158.36 91.6399 159.68 85.9199L179.7 92.2999Z" fill="#f00"/>
<path d="M130.426 92V82.1802H130.285L127.305 84.272V82.2134L130.434 80.022H132.567V92H130.426Z" fill="#000"/>
<path d="M217.283 83.5249C217.283 82.4071 217.671 81.494 218.445 80.7856C219.226 80.0773 220.23 79.7231 221.458 79.7231C222.643 79.7231 223.617 80.0469 224.38 80.6943C225.15 81.3418 225.534 82.1663 225.534 83.168C225.534 83.8099 225.34 84.4463 224.953 85.0771C224.566 85.7025 223.863 86.5187 222.845 87.5259L220.338 90.041V90.1821H225.717V92H217.399V90.5142L221.392 86.4302C222.211 85.6001 222.756 84.9775 223.027 84.5625C223.299 84.1419 223.434 83.7214 223.434 83.3008C223.434 82.7751 223.24 82.3407 222.853 81.9976C222.471 81.6545 221.984 81.4829 221.392 81.4829C220.767 81.4829 220.26 81.6711 219.873 82.0474C219.486 82.4237 219.292 82.9162 219.292 83.5249V83.5581H217.283V83.5249Z" fill="#000"/>
<path d="M170.44 149.688V148.027H171.901C172.51 148.027 173.005 147.861 173.387 147.529C173.769 147.192 173.959 146.755 173.959 146.218C173.959 145.687 173.771 145.263 173.395 144.948C173.024 144.627 172.526 144.466 171.901 144.466C171.281 144.466 170.778 144.63 170.39 144.956C170.008 145.283 169.798 145.728 169.759 146.292H167.759C167.814 145.191 168.218 144.322 168.971 143.686C169.723 143.044 170.722 142.723 171.967 142.723C173.129 142.723 174.095 143.028 174.864 143.636C175.639 144.239 176.026 145 176.026 145.919C176.026 146.622 175.83 147.222 175.437 147.72C175.05 148.218 174.524 148.536 173.86 148.675V148.816C174.679 148.91 175.324 149.217 175.794 149.737C176.27 150.257 176.508 150.916 176.508 151.713C176.508 152.742 176.076 153.597 175.213 154.278C174.355 154.958 173.276 155.299 171.976 155.299C170.686 155.299 169.635 154.97 168.821 154.311C168.013 153.653 167.582 152.775 167.526 151.68H169.577C169.621 152.233 169.862 152.676 170.299 153.008C170.736 153.334 171.3 153.498 171.992 153.498C172.678 153.498 173.237 153.32 173.669 152.966C174.106 152.607 174.325 152.145 174.325 151.58C174.325 150.993 174.112 150.531 173.686 150.194C173.259 149.856 172.678 149.688 171.942 149.688H170.44Z" fill="#000"/>
<path fill-rule="evenodd" clip-rule="evenodd" d="M92.2432 153.187C120.267 129.998 132.417 110.906 144.599 85.5669L146.401 86.4335C134.117 111.984 121.801 131.331 93.4902 154.751L100.055 155.426C100.605 155.482 101.004 155.973 100.948 156.523C100.891 157.072 100.4 157.472 99.8506 157.415L90.8978 156.495C90.3484 156.438 89.9488 155.947 90.0053 155.398L90.9257 146.445C90.9822 145.896 91.4733 145.496 92.0227 145.553C92.5721 145.609 92.9717 146.1 92.9152 146.65L92.2432 153.187Z" fill="#000"/>
<path fill-rule="evenodd" clip-rule="evenodd" d="M265.519 115.258C257.278 104.491 238.749 98.7414 217.235 103.934L216.766 101.99C238.751 96.6836 258.223 102.434 267.107 114.042C271.57 119.873 273.311 127.138 271.338 135.056C269.493 142.459 264.422 150.358 255.452 158.193L262.055 158.826C262.604 158.879 263.007 159.367 262.955 159.917C262.902 160.467 262.413 160.87 261.864 160.817L252.905 159.958C252.355 159.905 251.952 159.417 252.005 158.867L252.864 149.908C252.917 149.358 253.405 148.955 253.955 149.008C254.505 149.061 254.908 149.549 254.855 150.099L254.231 156.604C262.932 148.98 267.685 141.441 269.397 134.572C271.221 127.255 269.618 120.614 265.519 115.258Z" fill="#000"/>
<path fill-rule="evenodd" clip-rule="evenodd" d="M199.499 172.577L201.576 181.334C201.704 181.871 201.372 182.41 200.834 182.538L192.077 184.616C191.54 184.743 191.001 184.411 190.874 183.873C190.746 183.336 191.078 182.797 191.616 182.67L198.024 181.149L163.475 159.851L164.525 158.149L199.073 179.447L197.553 173.039C197.425 172.502 197.758 171.963 198.295 171.835C198.832 171.708 199.371 172.04 199.499 172.577Z" fill="#000"/>
</svg>
