<svg width="345" height="345" viewBox="0 0 345 345" fill="none" xmlns="http://www.w3.org/2000/svg">
<path d="M168.7 116.72C168.7 109.9 167.82 99.3402 166.5 94.7202H188.5C187.84 99.3402 186.96 110.34 186.96 116.72C186.96 129.26 186.96 149.72 186.96 163.14C186.96 211.76 170.9 247.62 126.02 273.36L108.86 260.82C150.66 241.02 168.7 208.46 168.7 163.14C168.7 149.94 168.7 129.26 168.7 116.72ZM83.3398 145.1C87.7398 145.76 95.8798 146.2 103.8 146.2C114.58 146.2 234.92 146.2 245.48 146.2C252.96 146.2 261.32 145.76 264.62 145.32V164.02C261.32 163.8 252.08 163.58 245.26 163.58C234.92 163.58 114.58 163.58 104.24 163.58C95.8798 163.58 87.9598 163.8 83.3398 164.24V145.1Z" fill="#f00"/>
<path d="M89.4258 130V120.18H89.2847L86.3047 122.272V120.213L89.4341 118.022H91.5674V130H89.4258Z" fill="#000"/>
<path d="M205.283 88.5249C205.283 87.4071 205.671 86.494 206.445 85.7856C207.226 85.0773 208.23 84.7231 209.458 84.7231C210.643 84.7231 211.617 85.0469 212.38 85.6943C213.15 86.3418 213.534 87.1663 213.534 88.168C213.534 88.8099 213.34 89.4463 212.953 90.0771C212.566 90.7025 211.863 91.5187 210.845 92.5259L208.338 95.041V95.1821H213.717V97H205.399V95.5142L209.392 91.4302C210.211 90.6001 210.756 89.9775 211.027 89.5625C211.299 89.1419 211.434 88.7214 211.434 88.3008C211.434 87.7751 211.24 87.3407 210.853 86.9976C210.471 86.6545 209.984 86.4829 209.392 86.4829C208.767 86.4829 208.26 86.6711 207.873 87.0474C207.486 87.4237 207.292 87.9162 207.292 88.5249V88.5581H205.283V88.5249Z" fill="#000"/>
<path fill-rule="evenodd" clip-rule="evenodd" d="M133.343 127.929L139.707 134.293C140.098 134.684 140.098 135.317 139.707 135.707L133.343 142.071C132.953 142.462 132.319 142.462 131.929 142.071C131.538 141.681 131.538 141.048 131.929 140.657L136.586 136L83 136L83 134L136.586 134L131.929 129.343C131.538 128.953 131.538 128.32 131.929 127.929C132.319 127.539 132.953 127.539 133.343 127.929Z" fill="#000"/>
<path fill-rule="evenodd" clip-rule="evenodd" d="M206.071 136.343L199.707 142.707C199.317 143.098 198.684 143.098 198.293 142.707L191.929 136.343C191.539 135.953 191.539 135.319 191.929 134.929C192.32 134.538 192.953 134.538 193.343 134.929L198 139.586L198 86L200 86L200 139.586L204.657 134.929C205.048 134.538 205.681 134.538 206.071 134.929C206.462 135.319 206.462 135.953 206.071 136.343Z" fill="#000"/>
</svg>
