<svg width="345" height="345" viewBox="0 0 345 345" fill="none" xmlns="http://www.w3.org/2000/svg">
<path d="M109.08 102.42C115.46 103.08 121.84 103.52 129.1 103.52C141.86 103.52 205.88 103.52 218.2 103.52C224.36 103.52 232.28 103.08 238.66 102.42V120.68C232.06 120.24 224.36 119.8 218.2 119.8C205.88 119.8 141.86 119.8 129.32 119.8C122.06 119.8 114.8 120.24 109.08 120.68V102.42ZM82.9004 157.64C88.8404 158.3 95.2204 158.52 102.04 158.52C114.8 158.52 234.26 158.52 245.92 158.52C250.54 158.52 257.8 158.3 263.3 157.64V175.68C258.24 175.46 251.42 175.24 245.92 175.24C234.26 175.24 114.8 175.24 102.04 175.24C95.4404 175.24 88.8404 175.46 82.9004 175.9V157.64ZM186.52 166.44C186.52 194.16 183 217.04 173.1 235.52C165.18 250.26 148.46 265.88 129.98 275.56L113.7 263.68C130.64 256.42 146.48 243.88 155.06 229.8C166.06 212.42 167.82 190.86 168.04 166.66L186.52 166.44Z" fill="#f00"/>
<path d="M115.426 87V77.1802H115.285L112.305 79.272V77.2134L115.434 75.022H117.567V87H115.426Z" fill="#000"/>
<path d="M87.2832 132.525C87.2832 131.407 87.6706 130.494 88.4453 129.786C89.2256 129.077 90.23 128.723 91.4585 128.723C92.6427 128.723 93.6167 129.047 94.3804 129.694C95.1496 130.342 95.5342 131.166 95.5342 132.168C95.5342 132.81 95.3405 133.446 94.9531 134.077C94.5658 134.702 93.863 135.519 92.8447 136.526L90.3379 139.041V139.182H95.7168V141H87.3994V139.514L91.3921 135.43C92.2111 134.6 92.7562 133.978 93.0273 133.562C93.2985 133.142 93.4341 132.721 93.4341 132.301C93.4341 131.775 93.2404 131.341 92.853 130.998C92.4712 130.654 91.9842 130.483 91.3921 130.483C90.7668 130.483 90.2604 130.671 89.873 131.047C89.4857 131.424 89.292 131.916 89.292 132.525V132.558H87.2832V132.525Z" fill="#000"/>
<path d="M209.44 192.688V191.027H210.901C211.51 191.027 212.005 190.861 212.387 190.529C212.769 190.192 212.959 189.755 212.959 189.218C212.959 188.687 212.771 188.263 212.395 187.948C212.024 187.627 211.526 187.466 210.901 187.466C210.281 187.466 209.778 187.63 209.39 187.956C209.008 188.283 208.798 188.728 208.759 189.292H206.759C206.814 188.191 207.218 187.322 207.971 186.686C208.723 186.044 209.722 185.723 210.967 185.723C212.129 185.723 213.095 186.028 213.864 186.636C214.639 187.239 215.026 188 215.026 188.919C215.026 189.622 214.83 190.222 214.437 190.72C214.05 191.218 213.524 191.536 212.86 191.675V191.816C213.679 191.91 214.324 192.217 214.794 192.737C215.27 193.257 215.508 193.916 215.508 194.713C215.508 195.742 215.076 196.597 214.213 197.278C213.355 197.958 212.276 198.299 210.976 198.299C209.686 198.299 208.635 197.97 207.821 197.311C207.013 196.653 206.582 195.775 206.526 194.68H208.577C208.621 195.233 208.862 195.676 209.299 196.008C209.736 196.334 210.3 196.498 210.992 196.498C211.678 196.498 212.237 196.32 212.669 195.966C213.106 195.607 213.325 195.145 213.325 194.58C213.325 193.993 213.112 193.531 212.686 193.194C212.259 192.856 211.678 192.688 210.942 192.688H209.44Z" fill="#000"/>
<path fill-rule="evenodd" clip-rule="evenodd" d="M159.343 138.929L165.707 145.293C166.098 145.684 166.098 146.317 165.707 146.707L159.343 153.071C158.953 153.462 158.319 153.462 157.929 153.071C157.538 152.681 157.538 152.048 157.929 151.657L162.586 147L85 147L85 145L162.586 145L157.929 140.343C157.538 139.953 157.538 139.32 157.929 138.929C158.319 138.539 158.953 138.539 159.343 138.929Z" fill="#000"/>
<path fill-rule="evenodd" clip-rule="evenodd" d="M159.343 84.9291L165.707 91.2931C166.098 91.6836 166.098 92.3168 165.707 92.7073L159.343 99.0713C158.953 99.4618 158.319 99.4618 157.929 99.0713C157.538 98.6807 157.538 98.0476 157.929 97.657L162.586 93.0002L109 93.0002L109 91.0002L162.586 91.0002L157.929 86.3433C157.538 85.9528 157.538 85.3196 157.929 84.9291C158.319 84.5386 158.953 84.5386 159.343 84.9291Z" fill="#000"/>
<path fill-rule="evenodd" clip-rule="evenodd" d="M191.495 227.353C195.628 215.695 197 202.949 197 187H199C199 203.051 197.622 216.055 193.38 228.022C189.344 239.409 182.737 249.792 172.367 260.948L178.976 260.805C179.529 260.793 179.986 261.231 179.998 261.783C180.01 262.335 179.572 262.792 179.02 262.804L170.022 263C169.47 263.012 169.013 262.574 169.001 262.022L168.805 253.024C168.793 252.472 169.231 252.014 169.783 252.002C170.335 251.99 170.792 252.428 170.804 252.98L170.947 259.539C181.151 248.551 187.576 238.409 191.495 227.353Z" fill="#000"/>
</svg>
