<svg width="345" height="345" viewBox="0 0 345 345" fill="none" xmlns="http://www.w3.org/2000/svg">
<path d="M131.96 95.8198C131.3 101.1 130.86 107.48 130.86 113.64C130.86 125.52 130.86 213.96 130.86 229.8C130.86 241.24 135.48 244.1 146.26 246.08C153.08 247.4 164.52 248.06 175.3 248.06C198.62 248.06 232.28 245.64 250.54 240.8V261.04C231.4 263.9 198.4 265.44 174.42 265.44C161.44 265.44 148.24 265 139.22 263.46C122.28 260.38 112.82 252.68 112.82 234.64C112.82 213.52 112.82 125.52 112.82 113.64C112.82 107.7 112.38 100.22 111.5 95.8198H131.96ZM122.72 165.34C149.12 159.62 191.58 146.64 216.88 135.64C223.7 132.78 230.08 129.7 236.24 125.74L244.16 143.34C237.78 145.98 229.86 149.5 223.26 151.92C195.98 163.14 150 176.78 122.72 183.6V165.34Z" fill="#f00"/>
<path d="M147.426 140V130.18H147.285L144.305 132.272V130.213L147.434 128.022H149.567V140H147.426Z" fill="#000"/>
<path d="M83.2832 98.5249C83.2832 97.4071 83.6706 96.494 84.4453 95.7856C85.2256 95.0773 86.23 94.7231 87.4585 94.7231C88.6427 94.7231 89.6167 95.0469 90.3804 95.6943C91.1496 96.3418 91.5342 97.1663 91.5342 98.168C91.5342 98.8099 91.3405 99.4463 90.9531 100.077C90.5658 100.702 89.863 101.519 88.8447 102.526L86.3379 105.041V105.182H91.7168V107H83.3994V105.514L87.3921 101.43C88.2111 100.6 88.7562 99.9775 89.0273 99.5625C89.2985 99.1419 89.4341 98.7214 89.4341 98.3008C89.4341 97.7751 89.2404 97.3407 88.853 96.9976C88.4712 96.6545 87.9842 96.4829 87.3921 96.4829C86.7668 96.4829 86.2604 96.6711 85.873 97.0474C85.4857 97.4237 85.292 97.9162 85.292 98.5249V98.5581H83.2832V98.5249Z" fill="#000"/>
<path fill-rule="evenodd" clip-rule="evenodd" d="M212.306 118.225L220.43 122.097C220.929 122.335 221.14 122.932 220.903 123.43L217.03 131.555C216.793 132.053 216.196 132.265 215.697 132.027C215.199 131.789 214.987 131.193 215.225 130.694L218.059 124.749L141.334 151.943L140.666 150.057L217.391 122.864L211.446 120.03C210.947 119.793 210.735 119.196 210.973 118.697C211.211 118.199 211.807 117.987 212.306 118.225Z" fill="#000"/>
<path fill-rule="evenodd" clip-rule="evenodd" d="M107.071 145.343L100.707 151.707C100.317 152.098 99.6837 152.098 99.2932 151.707L92.9292 145.343C92.5387 144.953 92.5387 144.319 92.9292 143.929C93.3198 143.538 93.9529 143.538 94.3434 143.929L99.0003 148.586L99.0003 95L101 95L101 148.586L105.657 143.929C106.048 143.538 106.681 143.538 107.071 143.929C107.462 144.319 107.462 144.953 107.071 145.343Z" fill="#000"/>
<path fill-rule="evenodd" clip-rule="evenodd" d="M100 213H102V237.5C102 248.093 104.71 257.574 110.808 264.396C116.888 271.198 126.463 275.5 140.5 275.5H187.586L182.929 270.843C182.538 270.453 182.538 269.819 182.929 269.429C183.319 269.038 183.953 269.038 184.343 269.429L190.707 275.793C191.098 276.183 191.098 276.817 190.707 277.207L184.343 283.571C183.953 283.962 183.319 283.962 182.929 283.571C182.538 283.181 182.538 282.547 182.929 282.157L187.586 277.5H140.5C126.037 277.5 115.862 273.052 109.317 265.729C102.79 258.426 100 248.407 100 237.5V213Z" fill="#000"/>
</svg>
