<svg width="345" height="345" viewBox="0 0 345 345" fill="none" xmlns="http://www.w3.org/2000/svg">
<path d="M176.84 101.1C174.64 106.38 172.22 112.1 169.14 121.56C162.1 144 136.58 222.98 127.12 245.2L107.32 245.86C118.32 220.56 143.84 140.92 150.44 117.6C153.3 107.48 154.18 102.42 154.84 96.48L176.84 101.1ZM218.64 174.8C234.04 197.24 258.24 241.68 267.26 264.34L249 272.48C240.2 248.72 217.76 202.96 201.92 182.06L218.64 174.8ZM98.7396 240.58C130.42 239.04 209.18 230.24 237.56 226.06L242.4 243.22C211.82 247.18 130.86 255.98 99.8396 259.06C94.3396 259.5 87.7396 260.38 81.5796 261.26L78.0596 241.02C84.6596 241.24 92.3596 241.02 98.7396 240.58Z" fill="#f00"/>
<path d="M89.4248 154V144.18H89.2837L86.3037 146.272V144.213L89.4331 142.022H91.5664V154H89.4248Z" fill="#000"/>
<path d="M242.283 168.525C242.283 167.407 242.671 166.494 243.445 165.786C244.226 165.077 245.23 164.723 246.458 164.723C247.643 164.723 248.617 165.047 249.38 165.694C250.15 166.342 250.534 167.166 250.534 168.168C250.534 168.81 250.34 169.446 249.953 170.077C249.566 170.702 248.863 171.519 247.845 172.526L245.338 175.041V175.182H250.717V177H242.399V175.514L246.392 171.43C247.211 170.6 247.756 169.978 248.027 169.562C248.299 169.142 248.434 168.721 248.434 168.301C248.434 167.775 248.24 167.341 247.853 166.998C247.471 166.654 246.984 166.483 246.392 166.483C245.767 166.483 245.26 166.671 244.873 167.047C244.486 167.424 244.292 167.916 244.292 168.525V168.558H242.283V168.525Z" fill="#000"/>
<path fill-rule="evenodd" clip-rule="evenodd" d="M79.4877 190.528C85.2367 179.784 91.3599 168.294 101.603 147.557L103.397 148.443C93.14 169.206 87.0058 180.717 81.2512 191.472C81.0761 191.799 80.9014 192.125 80.7269 192.451C75.1706 202.835 69.8662 212.747 61.3972 229.942C57.3096 238.241 54.7452 246.594 54.5701 254.109C54.3956 261.6 56.59 268.22 61.9907 273.203C67.4172 278.209 76.209 281.683 89.4655 282.573C102.257 283.431 119.116 281.878 140.914 277.056L135.347 273.559C134.88 273.265 134.739 272.647 135.033 272.18C135.327 271.712 135.944 271.571 136.411 271.865L144.032 276.653C144.5 276.947 144.641 277.564 144.347 278.032L139.559 285.653C139.265 286.12 138.648 286.261 138.18 285.967C137.712 285.674 137.571 285.056 137.865 284.589L141.375 279.003C119.456 283.853 102.385 285.444 89.3315 284.568C75.8224 283.661 66.5204 280.103 60.6345 274.672C54.7226 269.218 52.3858 261.994 52.5707 254.063C52.7549 246.156 55.4405 237.509 59.603 229.058C68.0868 211.833 73.4039 201.897 78.9633 191.508C79.1379 191.182 79.3126 190.855 79.4877 190.528Z" fill="#000"/>
<path fill-rule="evenodd" clip-rule="evenodd" d="M259.721 207.745L256.951 216.308C256.781 216.833 256.217 217.121 255.692 216.951L247.129 214.181C246.603 214.011 246.315 213.447 246.485 212.922C246.655 212.396 247.219 212.108 247.744 212.278L254.01 214.305L232.109 171.455L233.89 170.545L255.791 213.395L257.818 207.129C257.988 206.604 258.552 206.315 259.078 206.485C259.603 206.655 259.891 207.219 259.721 207.745Z" fill="#000"/>
</svg>
