<svg width="345" height="345" viewBox="0 0 345 345" fill="none" xmlns="http://www.w3.org/2000/svg">
<path d="M253.62 127.5C251.86 130.58 249.66 135.64 248.56 139.16C242.62 161.38 229.2 191.08 209.62 215.06C189.6 239.48 163.2 259.5 122.06 274.9L106 260.38C146.48 248.5 173.76 228.7 194 205.16C210.94 185.14 224.58 156.54 228.98 136.52H147.58L154.62 120.68C163.42 120.68 217.76 120.68 224.58 120.68C230.52 120.68 235.58 120.02 239.1 118.7L253.62 127.5ZM179.92 94.28C176.4 100 172.44 107.48 170.24 111.44C157.26 135.86 134.38 167.32 98.9596 190.64L83.5596 179.42C121.62 156.76 143.18 124.64 152.86 105.06C155.06 101.1 158.36 93.18 159.68 87.46L179.92 94.28Z" fill="#f00"/>
<path d="M130.425 93V83.1802H130.284L127.304 85.272V83.2134L130.433 81.022H132.566V93H130.425Z" fill="#000"/>
<path d="M197.283 92.5249C197.283 91.4071 197.671 90.494 198.445 89.7856C199.226 89.0773 200.23 88.7231 201.458 88.7231C202.643 88.7231 203.617 89.0469 204.38 89.6943C205.15 90.3418 205.534 91.1663 205.534 92.168C205.534 92.8099 205.34 93.4463 204.953 94.0771C204.566 94.7025 203.863 95.5187 202.845 96.5259L200.338 99.041V99.1821H205.717V101H197.399V99.5142L201.392 95.4302C202.211 94.6001 202.756 93.9775 203.027 93.5625C203.299 93.1419 203.434 92.7214 203.434 92.3008C203.434 91.7751 203.24 91.3407 202.853 90.9976C202.471 90.6545 201.984 90.4829 201.392 90.4829C200.767 90.4829 200.26 90.6711 199.873 91.0474C199.486 91.4237 199.292 91.9162 199.292 92.5249V92.5581H197.283V92.5249Z" fill="#000"/>
<path fill-rule="evenodd" clip-rule="evenodd" d="M259.5 108.5C246 108.5 212.985 108.5 187 108.5V106.5C212.985 106.5 246 106.5 259.5 106.5C266.278 106.5 270.771 109.061 273.163 113.369C275.507 117.592 275.712 123.285 274.456 129.353C272.083 140.826 264.374 154.226 254.425 163.191L261.054 163.826C261.604 163.879 262.007 164.367 261.954 164.917C261.902 165.467 261.413 165.87 260.863 165.817L251.905 164.958C251.355 164.905 250.952 164.417 251.005 163.867L251.864 154.908C251.916 154.358 252.405 153.955 252.955 154.008C253.504 154.061 253.907 154.549 253.855 155.099L253.234 161.571C262.805 152.884 270.226 139.933 272.498 128.948C273.709 123.094 273.425 117.962 271.414 114.34C269.45 110.803 265.722 108.5 259.5 108.5Z" fill="#000"/>
<path fill-rule="evenodd" clip-rule="evenodd" d="M94.7422 154.687C122.766 131.498 134.916 112.406 147.098 87.0669L148.9 87.9335C136.616 113.484 124.3 132.831 95.9892 156.251L102.554 156.926C103.104 156.982 103.503 157.473 103.447 158.023C103.39 158.572 102.899 158.972 102.35 158.915L93.3968 157.995C92.8474 157.938 92.4479 157.447 92.5043 156.898L93.4247 147.945C93.4812 147.396 93.9724 146.996 94.5217 147.053C95.0711 147.109 95.4707 147.6 95.4142 148.15L94.7422 154.687Z" fill="#000"/>
</svg>
