<svg width="345" height="345" viewBox="0 0 345 345" fill="none" xmlns="http://www.w3.org/2000/svg">
<path d="M101.82 109.02C107.54 109.46 114.14 109.68 121.62 109.68C137.24 109.68 210.06 109.68 226.12 109.68C233.38 109.68 239.32 109.46 244.16 109.02V126.4C238.88 126.18 233.82 125.96 226.12 125.96C210.06 125.96 133.06 125.96 121.62 125.96C114.14 125.96 107.54 126.18 101.82 126.4V109.02ZM169.14 179.64C169.14 195.92 169.14 225.4 169.14 233.1C169.14 244.1 176.62 250.92 197.08 250.92C217.76 250.92 235.8 250.04 254.72 247.84L253.62 266.32C236.68 267.42 215.34 268.3 194.44 268.3C161.22 268.3 150.66 256.64 150.66 238.82C150.66 222.76 150.66 196.36 150.66 178.98C150.66 169.96 150.66 129.92 150.66 120.9H169.14C169.14 129.7 169.14 173.48 169.14 179.64ZM87.2998 171.28C93.2398 171.94 102.04 172.38 107.98 172.38C123.82 172.38 229.42 172.38 243.06 172.38C247.68 172.38 256.48 171.94 261.54 171.5V189.54C256.48 189.1 248.34 189.1 243.5 189.1C229.2 189.1 123.82 189.1 107.98 189.1C102.26 189.1 93.2398 189.32 87.2998 189.76V171.28Z" fill="#f00"/>
<path d="M105.426 88V78.1802H105.285L102.305 80.272V78.2134L105.434 76.022H107.567V88H105.426Z" fill="#000"/>
<path d="M190.439 135.688V134.027H191.9C192.509 134.027 193.004 133.861 193.386 133.529C193.768 133.192 193.958 132.755 193.958 132.218C193.958 131.687 193.77 131.263 193.394 130.948C193.023 130.627 192.525 130.466 191.9 130.466C191.28 130.466 190.777 130.63 190.389 130.956C190.007 131.283 189.797 131.728 189.758 132.292H187.758C187.813 131.191 188.217 130.322 188.97 129.686C189.722 129.044 190.721 128.723 191.966 128.723C193.128 128.723 194.094 129.028 194.863 129.636C195.638 130.239 196.025 131 196.025 131.919C196.025 132.622 195.829 133.222 195.436 133.72C195.049 134.218 194.523 134.536 193.859 134.675V134.816C194.678 134.91 195.323 135.217 195.793 135.737C196.269 136.257 196.507 136.916 196.507 137.713C196.507 138.742 196.075 139.597 195.212 140.278C194.354 140.958 193.275 141.299 191.975 141.299C190.685 141.299 189.634 140.97 188.82 140.311C188.012 139.653 187.581 138.775 187.525 137.68H189.576C189.62 138.233 189.861 138.676 190.298 139.008C190.735 139.334 191.299 139.498 191.991 139.498C192.677 139.498 193.236 139.32 193.668 138.966C194.105 138.607 194.324 138.145 194.324 137.58C194.324 136.993 194.111 136.531 193.685 136.194C193.258 135.856 192.677 135.688 191.941 135.688H190.439Z" fill="#000"/>
<path d="M85.2832 143.525C85.2832 142.407 85.6706 141.494 86.4453 140.786C87.2256 140.077 88.23 139.723 89.4585 139.723C90.6427 139.723 91.6167 140.047 92.3804 140.694C93.1496 141.342 93.5342 142.166 93.5342 143.168C93.5342 143.81 93.3405 144.446 92.9531 145.077C92.5658 145.702 91.863 146.519 90.8447 147.526L88.3379 150.041V150.182H93.7168V152H85.3994V150.514L89.3921 146.43C90.2111 145.6 90.7562 144.978 91.0273 144.562C91.2985 144.142 91.4341 143.721 91.4341 143.301C91.4341 142.775 91.2404 142.341 90.853 141.998C90.4712 141.654 89.9842 141.483 89.3921 141.483C88.7668 141.483 88.2604 141.671 87.873 142.047C87.4857 142.424 87.292 142.916 87.292 143.525V143.558H85.2832V143.525Z" fill="#000"/>
<path fill-rule="evenodd" clip-rule="evenodd" d="M152.343 87.9291L158.707 94.2931C159.098 94.6836 159.098 95.3168 158.707 95.7073L152.343 102.071C151.953 102.462 151.319 102.462 150.929 102.071C150.538 101.681 150.538 101.048 150.929 100.657L155.586 96.0002L102 96.0002L102 94.0002L155.586 94.0002L150.929 89.3433C150.538 88.9528 150.538 88.3196 150.929 87.9291C151.319 87.5386 151.953 87.5386 152.343 87.9291Z" fill="#000"/>
<path fill-rule="evenodd" clip-rule="evenodd" d="M187.071 163.343L180.707 169.707C180.317 170.098 179.684 170.098 179.293 169.707L172.929 163.343C172.539 162.953 172.539 162.319 172.929 161.929C173.32 161.538 173.953 161.538 174.343 161.929L179 166.586L179 129L181 129L181 166.586L185.657 161.929C186.048 161.538 186.681 161.538 187.071 161.929C187.462 162.319 187.462 162.953 187.071 163.343Z" fill="#000"/>
<path fill-rule="evenodd" clip-rule="evenodd" d="M133.343 152.929L139.707 159.293C140.098 159.684 140.098 160.317 139.707 160.707L133.343 167.071C132.953 167.462 132.319 167.462 131.929 167.071C131.538 166.681 131.538 166.048 131.929 165.657L136.586 161L83 161L83 159L136.586 159L131.929 154.343C131.538 153.953 131.538 153.32 131.929 152.929C132.319 152.539 132.953 152.539 133.343 152.929Z" fill="#000"/>
</svg>
