<svg width="345" height="345" viewBox="0 0 345 345" fill="none" xmlns="http://www.w3.org/2000/svg">
<path d="M98.7402 110.78C103.8 111.22 119.2 111.88 126.24 111.88C141.42 111.88 206.76 111.88 229.2 111.88C235.36 111.88 240.86 111.66 244.6 111.22C244.38 114.3 244.38 118.92 244.38 124.42C244.38 134.1 244.38 233.98 244.38 257.3C244.38 261.92 244.6 266.76 244.82 270.72H225.9C226.12 267.42 226.12 261.92 226.12 256.2C226.12 227.38 226.12 136.74 226.12 128.38C217.1 128.38 141.42 128.38 126.24 128.38C119.2 128.38 103.8 128.82 98.7402 129.26V110.78ZM104.9 174.58C110.4 175.02 119.86 175.68 128.88 175.68C143.4 175.68 227.66 175.68 235.58 175.68V192.18C227.66 192.18 143.4 192.18 129.1 192.18C119.86 192.18 110.4 192.4 104.9 192.62V174.58ZM95.6602 241.46C100.06 241.9 107.98 242.34 117.66 242.34C133.06 242.34 223.48 242.34 235.8 242.34V259.5C221.94 259.5 133.28 259.5 117.66 259.5C109.08 259.5 100.06 259.94 95.6602 260.16V241.46Z" fill="#f00"/>
<path d="M139.426 93V83.1802H139.285L136.305 85.272V83.2134L139.434 81.022H141.567V93H139.426Z" fill="#000"/>
<path d="M107.283 148.525C107.283 147.407 107.671 146.494 108.445 145.786C109.226 145.077 110.23 144.723 111.458 144.723C112.643 144.723 113.617 145.047 114.38 145.694C115.15 146.342 115.534 147.166 115.534 148.168C115.534 148.81 115.34 149.446 114.953 150.077C114.566 150.702 113.863 151.519 112.845 152.526L110.338 155.041V155.182H115.717V157H107.399V155.514L111.392 151.43C112.211 150.6 112.756 149.978 113.027 149.562C113.299 149.142 113.434 148.721 113.434 148.301C113.434 147.775 113.24 147.341 112.853 146.998C112.471 146.654 111.984 146.483 111.392 146.483C110.767 146.483 110.26 146.671 109.873 147.047C109.486 147.424 109.292 147.916 109.292 148.525V148.558H107.283V148.525Z" fill="#000"/>
<path d="M102.439 221.688V220.027H103.9C104.509 220.027 105.004 219.861 105.386 219.529C105.768 219.192 105.958 218.755 105.958 218.218C105.958 217.687 105.77 217.263 105.394 216.948C105.023 216.627 104.525 216.466 103.9 216.466C103.28 216.466 102.777 216.63 102.389 216.956C102.007 217.283 101.797 217.728 101.758 218.292H99.7578C99.8132 217.191 100.217 216.322 100.97 215.686C101.722 215.044 102.721 214.723 103.966 214.723C105.128 214.723 106.094 215.028 106.863 215.636C107.638 216.239 108.025 217 108.025 217.919C108.025 218.622 107.829 219.222 107.436 219.72C107.049 220.218 106.523 220.536 105.859 220.675V220.816C106.678 220.91 107.323 221.217 107.793 221.737C108.269 222.257 108.507 222.916 108.507 223.713C108.507 224.742 108.075 225.597 107.212 226.278C106.354 226.958 105.275 227.299 103.975 227.299C102.685 227.299 101.634 226.97 100.82 226.311C100.012 225.653 99.5807 224.775 99.5254 223.68H101.576C101.62 224.233 101.861 224.676 102.298 225.008C102.735 225.334 103.299 225.498 103.991 225.498C104.677 225.498 105.236 225.32 105.668 224.966C106.105 224.607 106.324 224.145 106.324 223.58C106.324 222.993 106.111 222.531 105.685 222.194C105.258 221.856 104.677 221.688 103.941 221.688H102.439Z" fill="#000"/>
<path fill-rule="evenodd" clip-rule="evenodd" d="M255.5 102H133V100H257.5V176.586L262.157 171.929C262.547 171.538 263.181 171.538 263.571 171.929C263.962 172.319 263.962 172.953 263.571 173.343L257.207 179.707C256.817 180.098 256.183 180.098 255.793 179.707L249.429 173.343C249.038 172.953 249.038 172.319 249.429 171.929C249.819 171.538 250.453 171.538 250.843 171.929L255.5 176.586V102Z" fill="#000"/>
<path fill-rule="evenodd" clip-rule="evenodd" d="M155.343 156.929L161.707 163.293C162.098 163.684 162.098 164.317 161.707 164.707L155.343 171.071C154.953 171.462 154.319 171.462 153.929 171.071C153.538 170.681 153.538 170.048 153.929 169.657L158.586 165L105 165L105 163L158.586 163L153.929 158.343C153.538 157.953 153.538 157.32 153.929 156.929C154.319 156.539 154.953 156.539 155.343 156.929Z" fill="#000"/>
<path fill-rule="evenodd" clip-rule="evenodd" d="M148.343 224.929L154.707 231.293C155.098 231.684 155.098 232.317 154.707 232.707L148.343 239.071C147.953 239.462 147.319 239.462 146.929 239.071C146.538 238.681 146.538 238.048 146.929 237.657L151.586 233L98 233L98 231L151.586 231L146.929 226.343C146.538 225.953 146.538 225.32 146.929 224.929C147.319 224.539 147.953 224.539 148.343 224.929Z" fill="#000"/>
</svg>
