<svg width="345" height="345" viewBox="0 0 345 345" fill="none" xmlns="http://www.w3.org/2000/svg">
<path d="M220.4 164.02C220.4 222.54 207.64 252.68 157.48 275.34L142.74 261.26C182.78 246.08 202.58 227.16 202.58 165.34V111.88C202.58 103.3 201.92 96.0401 201.48 94.0601H221.5C221.28 96.2601 220.4 103.3 220.4 111.88V164.02ZM140.98 95.3801C140.76 97.3601 140.1 103.74 140.1 111.22V191.96C140.1 200.1 140.76 209.78 140.98 211.76H121.4C121.62 209.78 122.5 200.32 122.5 191.96V111.22C122.5 106.6 122.06 100.44 121.4 95.3801H140.98ZM76.7402 138.06C78.7202 138.28 89.5002 139.6 98.7402 139.6H244.38C254.28 139.6 261.54 138.72 264.62 138.28V156.98C262.2 156.76 254.28 156.32 244.6 156.32H98.7402C89.0602 156.32 79.1602 156.98 76.7402 156.98V138.06Z" fill="#f00"/>
<path d="M160.283 89.5249C160.283 88.4071 160.671 87.494 161.445 86.7856C162.226 86.0773 163.23 85.7231 164.458 85.7231C165.643 85.7231 166.617 86.0469 167.38 86.6943C168.15 87.3418 168.534 88.1663 168.534 89.168C168.534 89.8099 168.34 90.4463 167.953 91.0771C167.566 91.7025 166.863 92.5187 165.845 93.5259L163.338 96.041V96.1821H168.717V98H160.399V96.5142L164.392 92.4302C165.211 91.6001 165.756 90.9775 166.027 90.5625C166.299 90.1419 166.434 89.7214 166.434 89.3008C166.434 88.7751 166.24 88.3407 165.853 87.9976C165.471 87.6545 164.984 87.4829 164.392 87.4829C163.767 87.4829 163.26 87.6711 162.873 88.0474C162.486 88.4237 162.292 88.9162 162.292 89.5249V89.5581H160.283V89.5249Z" fill="#000"/>
<path d="M242.439 92.6875V91.0273H243.9C244.509 91.0273 245.004 90.8613 245.386 90.5293C245.768 90.1917 245.958 89.7546 245.958 89.2178C245.958 88.6865 245.77 88.2632 245.394 87.9478C245.023 87.6268 244.525 87.4663 243.9 87.4663C243.28 87.4663 242.777 87.6296 242.389 87.9561C242.007 88.2826 241.797 88.728 241.758 89.2925H239.758C239.813 88.1912 240.217 87.3224 240.97 86.686C241.722 86.0441 242.721 85.7231 243.966 85.7231C245.128 85.7231 246.094 86.0275 246.863 86.6362C247.638 87.2394 248.025 88.0003 248.025 88.9189C248.025 89.6217 247.829 90.2222 247.436 90.7202C247.049 91.2183 246.523 91.5365 245.859 91.6748V91.8159C246.678 91.91 247.323 92.2171 247.793 92.7373C248.269 93.2575 248.507 93.916 248.507 94.7129C248.507 95.7422 248.075 96.5972 247.212 97.2778C246.354 97.9585 245.275 98.2988 243.975 98.2988C242.685 98.2988 241.634 97.9696 240.82 97.311C240.012 96.6525 239.581 95.7754 239.525 94.6797H241.576C241.62 95.2331 241.861 95.6758 242.298 96.0078C242.735 96.3343 243.299 96.4976 243.991 96.4976C244.677 96.4976 245.236 96.3205 245.668 95.9663C246.105 95.6066 246.324 95.1445 246.324 94.5801C246.324 93.9935 246.111 93.5314 245.685 93.1938C245.258 92.8563 244.677 92.6875 243.941 92.6875H242.439Z" fill="#000"/>
<path d="M77.4258 120V110.18H77.2847L74.3047 112.272V110.213L77.4341 108.022H79.5674V120H77.4258Z" fill="#000"/>
<path fill-rule="evenodd" clip-rule="evenodd" d="M110.343 121.929L116.707 128.293C117.098 128.684 117.098 129.317 116.707 129.707L110.343 136.071C109.953 136.462 109.319 136.462 108.929 136.071C108.538 135.681 108.538 135.048 108.929 134.657L113.586 130L73 130L73 128L113.586 128L108.929 123.343C108.538 122.953 108.538 122.32 108.929 121.929C109.319 121.539 109.953 121.539 110.343 121.929Z" fill="#000"/>
<path fill-rule="evenodd" clip-rule="evenodd" d="M160.071 125.343L153.707 131.707C153.317 132.098 152.684 132.098 152.293 131.707L145.929 125.343C145.539 124.953 145.539 124.319 145.929 123.929C146.32 123.538 146.953 123.538 147.343 123.929L152 128.586L152 88L154 88L154 128.586L158.657 123.929C159.048 123.538 159.681 123.538 160.071 123.929C160.462 124.319 160.462 124.953 160.071 125.343Z" fill="#000"/>
<path fill-rule="evenodd" clip-rule="evenodd" d="M238.071 125.343L231.707 131.707C231.317 132.098 230.684 132.098 230.293 131.707L223.929 125.343C223.539 124.953 223.539 124.319 223.929 123.929C224.32 123.538 224.953 123.538 225.343 123.929L230 128.586L230 88L232 88L232 128.586L236.657 123.929C237.048 123.538 237.681 123.538 238.071 123.929C238.462 124.319 238.462 124.953 238.071 125.343Z" fill="#000"/>
</svg>
