<svg width="345" height="345" viewBox="0 0 345 345" fill="none" xmlns="http://www.w3.org/2000/svg">
<path d="M241.74 119.36C239.98 122.44 237.78 126.62 236.24 131.46C227 162.26 211.82 191.3 195.76 211.54C172 241.02 138.12 263.46 106 275.34L90.5996 259.94C127.34 248.94 159.68 225.84 181.02 200.32C198.4 179.64 211.38 151.7 216.66 128.82C204.56 128.82 140.98 128.82 126.02 128.82C118.1 128.82 108.64 129.04 102.7 129.48V110.56C108.64 111.22 117.66 111.66 126.02 111.66C140.98 111.66 207.2 111.66 216.88 111.66C221.5 111.66 225.68 111 228.98 109.46L241.74 119.36ZM124.92 157.86C165.4 179.2 215.34 215.94 243.28 240.58L230.52 255.76C202.8 229.58 153.3 192.18 113.92 171.28L124.92 157.86Z" fill="#f00"/>
<path d="M175.425 93V83.1802H175.284L172.304 85.272V83.2134L175.433 81.022H177.566V93H175.425Z" fill="#000"/>
<path d="M102.283 189.525C102.283 188.407 102.671 187.494 103.445 186.786C104.226 186.077 105.23 185.723 106.458 185.723C107.643 185.723 108.617 186.047 109.38 186.694C110.15 187.342 110.534 188.166 110.534 189.168C110.534 189.81 110.34 190.446 109.953 191.077C109.566 191.702 108.863 192.519 107.845 193.526L105.338 196.041V196.182H110.717V198H102.399V196.514L106.392 192.43C107.211 191.6 107.756 190.978 108.027 190.562C108.299 190.142 108.434 189.721 108.434 189.301C108.434 188.775 108.24 188.341 107.853 187.998C107.471 187.654 106.984 187.483 106.392 187.483C105.767 187.483 105.26 187.671 104.873 188.047C104.486 188.424 104.292 188.916 104.292 189.525V189.558H102.283V189.525Z" fill="#000"/>
<path fill-rule="evenodd" clip-rule="evenodd" d="M241.5 101C228 101 194.985 101 169 101V99C194.985 99 228 99 241.5 99.0002C248.298 99.0002 252.683 101.646 254.997 106.093C257.255 110.435 257.437 116.307 256.361 122.606C254.338 134.444 247.769 148.387 240.71 158.203L247.295 157.344C247.843 157.273 248.345 157.659 248.416 158.207C248.487 158.754 248.101 159.256 247.554 159.328L238.629 160.492C238.082 160.563 237.58 160.177 237.508 159.629L236.344 150.705C236.273 150.157 236.659 149.655 237.207 149.584C237.754 149.513 238.256 149.899 238.328 150.446L239.172 156.917C246.052 147.311 252.435 133.709 254.389 122.269C255.438 116.131 255.182 110.784 253.222 107.016C251.317 103.354 247.702 101 241.5 101Z" fill="#000"/>
<path fill-rule="evenodd" clip-rule="evenodd" d="M154.606 202.461L156.29 211.302C156.394 211.844 156.038 212.368 155.495 212.471L146.654 214.155C146.112 214.259 145.588 213.903 145.485 213.36C145.381 212.818 145.737 212.294 146.28 212.191L152.749 210.958L108.438 180.827L109.562 179.173L153.874 209.304L152.642 202.835C152.538 202.292 152.894 201.769 153.437 201.666C153.979 201.562 154.503 201.918 154.606 202.461Z" fill="#000"/>
</svg>
