<svg width="345" height="345" viewBox="0 0 345 345" fill="none" xmlns="http://www.w3.org/2000/svg">
<path d="M94.1204 114.3C102.7 114.74 108.42 114.74 113.7 114.74C125.36 114.74 221.06 114.74 231.84 114.74C236.46 114.74 244.38 114.74 251.2 114.52C250.76 119.8 250.76 125.96 250.76 131.46C250.76 141.8 250.76 231.56 250.76 239.92C250.76 246.96 250.98 264.12 251.2 266.54H232.06C232.28 264.12 232.5 251.58 232.5 242.34C232.5 234.2 232.5 132.12 232.5 132.12H112.38C112.38 132.12 112.38 233.32 112.38 242.34C112.38 249.6 112.6 263.68 112.6 266.54H93.9004C93.9004 263.68 94.3404 247.62 94.3404 239.92C94.3404 230.9 94.3404 140.04 94.3404 131.46C94.3404 126.4 94.3404 119.8 94.1204 114.3ZM239.76 236.84V254H103.58V236.84H239.76Z" fill="#f00"/>
<path d="M142.283 88.5249C142.283 87.4071 142.671 86.494 143.445 85.7856C144.226 85.0773 145.23 84.7231 146.458 84.7231C147.643 84.7231 148.617 85.0469 149.38 85.6943C150.15 86.3418 150.534 87.1663 150.534 88.168C150.534 88.8099 150.34 89.4463 149.953 90.0771C149.566 90.7025 148.863 91.5187 147.845 92.5259L145.338 95.041V95.1821H150.717V97H142.399V95.5142L146.392 91.4302C147.211 90.6001 147.756 89.9775 148.027 89.5625C148.299 89.1419 148.434 88.7214 148.434 88.3008C148.434 87.7751 148.24 87.3407 147.853 86.9976C147.471 86.6545 146.984 86.4829 146.392 86.4829C145.767 86.4829 145.26 86.6711 144.873 87.0474C144.486 87.4237 144.292 87.9162 144.292 88.5249V88.5581H142.283V88.5249Z" fill="#000"/>
<path d="M124.441 279.688V278.027H125.902C126.511 278.027 127.006 277.861 127.388 277.529C127.77 277.192 127.96 276.755 127.96 276.218C127.96 275.687 127.772 275.263 127.396 274.948C127.025 274.627 126.527 274.466 125.902 274.466C125.282 274.466 124.778 274.63 124.391 274.956C124.009 275.283 123.799 275.728 123.76 276.292H121.76C121.815 275.191 122.219 274.322 122.972 273.686C123.724 273.044 124.723 272.723 125.968 272.723C127.13 272.723 128.096 273.028 128.865 273.636C129.64 274.239 130.027 275 130.027 275.919C130.027 276.622 129.831 277.222 129.438 277.72C129.051 278.218 128.525 278.536 127.861 278.675V278.816C128.68 278.91 129.325 279.217 129.795 279.737C130.271 280.257 130.509 280.916 130.509 281.713C130.509 282.742 130.077 283.597 129.214 284.278C128.356 284.958 127.277 285.299 125.977 285.299C124.687 285.299 123.636 284.97 122.822 284.311C122.014 283.653 121.583 282.775 121.527 281.68H123.578C123.622 282.233 123.863 282.676 124.3 283.008C124.737 283.334 125.301 283.498 125.993 283.498C126.679 283.498 127.238 283.32 127.67 282.966C128.107 282.607 128.326 282.145 128.326 281.58C128.326 280.993 128.113 280.531 127.687 280.194C127.26 279.856 126.679 279.688 125.943 279.688H124.441Z" fill="#000"/>
<path d="M72.4258 126V116.18H72.2847L69.3047 118.272V116.213L72.4341 114.022H74.5674V126H72.4258Z" fill="#000"/>
<path fill-rule="evenodd" clip-rule="evenodd" d="M262.5 104H140V102H264.5V178.586L269.157 173.929C269.547 173.538 270.181 173.538 270.571 173.929C270.962 174.319 270.962 174.953 270.571 175.343L264.207 181.707C263.817 182.098 263.183 182.098 262.793 181.707L256.429 175.343C256.038 174.953 256.038 174.319 256.429 173.929C256.819 173.538 257.453 173.538 257.843 173.929L262.5 178.586V104Z" fill="#000"/>
<path fill-rule="evenodd" clip-rule="evenodd" d="M171.343 257.929L177.707 264.293C178.098 264.684 178.098 265.317 177.707 265.707L171.343 272.071C170.953 272.462 170.319 272.462 169.929 272.071C169.538 271.681 169.538 271.048 169.929 270.657L174.586 266L121 266L121 264L174.586 264L169.929 259.343C169.538 258.953 169.538 258.32 169.929 257.929C170.319 257.539 170.953 257.539 171.343 257.929Z" fill="#000"/>
<path fill-rule="evenodd" clip-rule="evenodd" d="M90.0723 164.343L83.7084 170.707C83.3179 171.098 82.6847 171.098 82.2942 170.707L75.9302 164.343C75.5397 163.953 75.5397 163.319 75.9302 162.929C76.3207 162.538 76.9539 162.538 77.3444 162.929L82.0013 167.586L82.0013 114L84.0013 114L84.0013 167.586L88.6581 162.929C89.0486 162.538 89.6818 162.538 90.0723 162.929C90.4629 163.319 90.4629 163.953 90.0723 164.343Z" fill="#000"/>
</svg>
