<svg width="345" height="345" viewBox="0 0 345 345" fill="none" xmlns="http://www.w3.org/2000/svg">
<path d="M232.5 98.2402C232.06 103.52 231.84 109.9 231.84 117.38C231.84 125.96 231.84 144.66 231.84 152.8C231.84 205.82 224.8 223.2 208.74 241.9C194.66 259.06 172.66 268.74 156.6 274.24L142.08 259.06C162.32 253.78 181.02 245.2 194.66 229.58C210.28 211.54 213.14 193.5 213.14 152.14C213.14 143.56 213.14 125.08 213.14 117.38C213.14 109.9 212.48 103.52 211.82 98.2402H232.5ZM130.42 100C129.98 104.18 129.76 110.56 129.76 115.62C129.76 122.22 129.76 179.86 129.76 189.1C129.76 194.82 129.98 202.08 130.42 206.04H110.4C110.84 202.52 111.28 195.48 111.28 189.1C111.28 179.64 111.28 122.22 111.28 115.62C111.28 111.88 111.06 104.18 110.4 100H130.42Z" fill="#f00"/>
<path d="M87.4258 110V100.18H87.2847L84.3047 102.272V100.213L87.4341 98.022H89.5674V110H87.4258Z" fill="#000"/>
<path d="M254.283 101.525C254.283 100.407 254.671 99.494 255.445 98.7856C256.226 98.0773 257.23 97.7231 258.458 97.7231C259.643 97.7231 260.617 98.0469 261.38 98.6943C262.15 99.3418 262.534 100.166 262.534 101.168C262.534 101.81 262.34 102.446 261.953 103.077C261.566 103.702 260.863 104.519 259.845 105.526L257.338 108.041V108.182H262.717V110H254.399V108.514L258.392 104.43C259.211 103.6 259.756 102.978 260.027 102.562C260.299 102.142 260.434 101.721 260.434 101.301C260.434 100.775 260.24 100.341 259.853 99.9976C259.471 99.6545 258.984 99.4829 258.392 99.4829C257.767 99.4829 257.26 99.6711 256.873 100.047C256.486 100.424 256.292 100.916 256.292 101.525V101.558H254.283V101.525Z" fill="#000"/>
<path fill-rule="evenodd" clip-rule="evenodd" d="M105.072 151.343L98.7084 157.707C98.3179 158.098 97.6847 158.098 97.2942 157.707L90.9302 151.343C90.5397 150.953 90.5397 150.319 90.9302 149.929C91.3207 149.538 91.9539 149.538 92.3444 149.929L97.0013 154.586L97.0013 101L99.0013 101L99.0013 154.586L103.658 149.929C104.049 149.538 104.682 149.538 105.072 149.929C105.463 150.319 105.463 150.953 105.072 151.343Z" fill="#000"/>
<path fill-rule="evenodd" clip-rule="evenodd" d="M254.072 151.343L247.708 157.707C247.318 158.098 246.685 158.098 246.294 157.707L239.93 151.343C239.54 150.953 239.54 150.319 239.93 149.929C240.321 149.538 240.954 149.538 241.344 149.929L246.001 154.586L246.001 101L248.001 101L248.001 154.586L252.658 149.929C253.049 149.538 253.682 149.538 254.072 149.929C254.463 150.319 254.463 150.953 254.072 151.343Z" fill="#000"/>
</svg>
