<svg width="345" height="345" viewBox="0 0 345 345" fill="none" xmlns="http://www.w3.org/2000/svg">
<path d="M93.9005 118.04C99.6205 118.7 107.76 119.14 112.38 119.14H233.16C239.98 119.14 246.8 118.7 252.08 118.04V137.18C246.58 136.74 239.54 136.3 233.16 136.3H112.38C107.98 136.3 99.4005 136.74 93.9005 137.18V118.04ZM161.88 247.18V129.04H180.58V247.18H161.88ZM80.4805 236.4C86.8605 237.28 93.6805 237.72 99.8405 237.72H245.26C251.86 237.72 257.8 236.84 263.3 236.4V256.2C257.58 255.54 249.44 255.54 245.26 255.54H99.8405C93.9005 255.54 87.0805 255.76 80.4805 256.2V236.4Z" fill="#f00"/>
<path d="M103.426 104V94.1802H103.285L100.305 96.272V94.2134L103.434 92.022H105.567V104H103.426Z" fill="#000"/>
<path d="M135.283 151.525C135.283 150.407 135.671 149.494 136.445 148.786C137.226 148.077 138.23 147.723 139.458 147.723C140.643 147.723 141.617 148.047 142.38 148.694C143.15 149.342 143.534 150.166 143.534 151.168C143.534 151.81 143.34 152.446 142.953 153.077C142.566 153.702 141.863 154.519 140.845 155.526L138.338 158.041V158.182H143.717V160H135.399V158.514L139.392 154.43C140.211 153.6 140.756 152.978 141.027 152.562C141.299 152.142 141.434 151.721 141.434 151.301C141.434 150.775 141.24 150.341 140.853 149.998C140.471 149.654 139.984 149.483 139.392 149.483C138.767 149.483 138.26 149.671 137.873 150.047C137.486 150.424 137.292 150.916 137.292 151.525V151.558H135.283V151.525Z" fill="#000"/>
<path d="M84.4399 282.688V281.027H85.9009C86.5096 281.027 87.0049 280.861 87.3867 280.529C87.7686 280.192 87.9595 279.755 87.9595 279.218C87.9595 278.687 87.7713 278.263 87.395 277.948C87.0243 277.627 86.5262 277.466 85.9009 277.466C85.2811 277.466 84.7775 277.63 84.3901 277.956C84.0083 278.283 83.798 278.728 83.7593 279.292H81.7588C81.8141 278.191 82.2181 277.322 82.9707 276.686C83.7233 276.044 84.7222 275.723 85.9673 275.723C87.1294 275.723 88.0951 276.028 88.8643 276.636C89.639 277.239 90.0264 278 90.0264 278.919C90.0264 279.622 89.8299 280.222 89.437 280.72C89.0496 281.218 88.5239 281.536 87.8599 281.675V281.816C88.6789 281.91 89.3236 282.217 89.7939 282.737C90.2699 283.257 90.5078 283.916 90.5078 284.713C90.5078 285.742 90.0762 286.597 89.2129 287.278C88.3551 287.958 87.276 288.299 85.9756 288.299C84.6862 288.299 83.6348 287.97 82.8213 287.311C82.0133 286.653 81.5817 285.775 81.5264 284.68H83.5767C83.6209 285.233 83.8617 285.676 84.2988 286.008C84.736 286.334 85.3005 286.498 85.9922 286.498C86.6784 286.498 87.2373 286.32 87.6689 285.966C88.1061 285.607 88.3247 285.145 88.3247 284.58C88.3247 283.993 88.1117 283.531 87.6855 283.194C87.2594 282.856 86.6784 282.688 85.9424 282.688H84.4399Z" fill="#000"/>
<path fill-rule="evenodd" clip-rule="evenodd" d="M156.071 218.343L149.707 224.707C149.317 225.098 148.684 225.098 148.293 224.707L141.929 218.343C141.539 217.953 141.539 217.319 141.929 216.929C142.32 216.538 142.953 216.538 143.343 216.929L148 221.586L148 148L150 148L150 221.586L154.657 216.929C155.048 216.538 155.681 216.538 156.071 216.929C156.462 217.319 156.462 217.953 156.071 218.343Z" fill="#000"/>
<path fill-rule="evenodd" clip-rule="evenodd" d="M167.343 101.929L173.707 108.293C174.098 108.684 174.098 109.317 173.707 109.707L167.343 116.071C166.953 116.462 166.319 116.462 165.929 116.071C165.538 115.681 165.538 115.048 165.929 114.657L170.586 110L97 110L97 108L170.586 108L165.929 103.343C165.538 102.953 165.538 102.32 165.929 101.929C166.319 101.539 166.953 101.539 167.343 101.929Z" fill="#000"/>
<path fill-rule="evenodd" clip-rule="evenodd" d="M152.343 260.929L158.707 267.293C159.098 267.684 159.098 268.317 158.707 268.707L152.343 275.071C151.953 275.462 151.319 275.462 150.929 275.071C150.538 274.681 150.538 274.048 150.929 273.657L155.586 269L82 269L82 267L155.586 267L150.929 262.343C150.538 261.953 150.538 261.32 150.929 260.929C151.319 260.539 151.953 260.539 152.343 260.929Z" fill="#000"/>
</svg>
