<svg width="345" height="345" viewBox="0 0 345 345" fill="none" xmlns="http://www.w3.org/2000/svg">
<path d="M183.44 89C182.56 93.62 182.12 102.2 182.12 108.14C182.12 114.08 182.12 125.52 182.12 129.92H164.52C164.52 125.52 164.52 114.52 164.52 108.14C164.52 101.98 164.3 93.84 163.42 89H183.44ZM243.94 132.12C239.98 136.08 235.14 141.14 231.62 145.32C220.18 158.74 201.26 177.66 180.36 191.96C156.38 208.68 127.56 221.44 89.9402 232.88L79.1602 216.6C120.96 206.48 148.46 192.18 168.26 179.2C188.06 166.44 205.44 149.28 213.14 138.94C202.8 138.94 131.52 138.94 121.62 138.94C114.14 138.94 101.38 139.16 94.7802 139.82V121.12C101.82 122 113.92 122.44 121.4 122.44C131.52 122.44 205.22 122.44 218.42 122.44C223.7 122.44 228.76 122 232.28 120.9L243.94 132.12ZM181.68 182.94C181.68 199.88 181.68 233.1 181.68 250.04C181.68 257.74 182.12 267.64 182.78 274.46H162.76C163.42 267.86 164.08 257.74 164.08 250.04C164.08 233.54 164.08 204.5 164.08 190.42L181.68 182.94ZM254.06 235.52C234.92 221.44 221.72 212.64 201.26 201.64L212.7 188.88C233.38 199.88 245.26 206.92 265.72 220.56L254.06 235.52Z" fill="#f00"/>
<path d="M205.426 92V82.1802H205.285L202.305 84.272V82.2134L205.434 80.022H207.567V92H205.426Z" fill="#000"/>
<path d="M139.44 228.688V227.027H140.901C141.51 227.027 142.005 226.861 142.387 226.529C142.769 226.192 142.959 225.755 142.959 225.218C142.959 224.687 142.771 224.263 142.395 223.948C142.024 223.627 141.526 223.466 140.901 223.466C140.281 223.466 139.778 223.63 139.39 223.956C139.008 224.283 138.798 224.728 138.759 225.292H136.759C136.814 224.191 137.218 223.322 137.971 222.686C138.723 222.044 139.722 221.723 140.967 221.723C142.129 221.723 143.095 222.028 143.864 222.636C144.639 223.239 145.026 224 145.026 224.919C145.026 225.622 144.83 226.222 144.437 226.72C144.05 227.218 143.524 227.536 142.86 227.675V227.816C143.679 227.91 144.324 228.217 144.794 228.737C145.27 229.257 145.508 229.916 145.508 230.713C145.508 231.742 145.076 232.597 144.213 233.278C143.355 233.958 142.276 234.299 140.976 234.299C139.686 234.299 138.635 233.97 137.821 233.311C137.013 232.653 136.582 231.775 136.526 230.68H138.577C138.621 231.233 138.862 231.676 139.299 232.008C139.736 232.334 140.3 232.498 140.992 232.498C141.678 232.498 142.237 232.32 142.669 231.966C143.106 231.607 143.325 231.145 143.325 230.58C143.325 229.993 143.112 229.531 142.686 229.194C142.259 228.856 141.678 228.688 140.942 228.688H139.44Z" fill="#000"/>
<path d="M239.087 182V179.767H233.235V177.858C234.209 176.065 235.836 173.453 238.116 170.022H241.138V177.958H242.756V179.767H241.138V182H239.087ZM235.219 177.883V178.007H239.121V171.765H239.004C237.709 173.68 236.448 175.719 235.219 177.883Z" fill="#000"/>
<path d="M100.283 97.5249C100.283 96.4071 100.671 95.494 101.445 94.7856C102.226 94.0773 103.23 93.7231 104.458 93.7231C105.643 93.7231 106.617 94.0469 107.38 94.6943C108.15 95.3418 108.534 96.1663 108.534 97.168C108.534 97.8099 108.34 98.4463 107.953 99.0771C107.566 99.7025 106.863 100.519 105.845 101.526L103.338 104.041V104.182H108.717V106H100.399V104.514L104.392 100.43C105.211 99.6001 105.756 98.9775 106.027 98.5625C106.299 98.1419 106.434 97.7214 106.434 97.3008C106.434 96.7751 106.24 96.3407 105.853 95.9976C105.471 95.6545 104.984 95.4829 104.392 95.4829C103.767 95.4829 103.26 95.6711 102.873 96.0474C102.486 96.4237 102.292 96.9162 102.292 97.5249V97.5581H100.283V97.5249Z" fill="#000"/>
<path fill-rule="evenodd" clip-rule="evenodd" d="M203.071 110.343L196.707 116.707C196.317 117.098 195.684 117.098 195.293 116.707L188.929 110.343C188.539 109.953 188.539 109.319 188.929 108.929C189.32 108.538 189.953 108.538 190.343 108.929L195 113.586L195 80L197 80L197 113.586L201.657 108.929C202.048 108.538 202.681 108.538 203.071 108.929C203.462 109.319 203.462 109.953 203.071 110.343Z" fill="#000"/>
<path fill-rule="evenodd" clip-rule="evenodd" d="M268.664 198.044L270.967 206.744C271.108 207.278 270.79 207.825 270.256 207.967L261.555 210.27C261.022 210.411 260.474 210.093 260.333 209.559C260.192 209.025 260.51 208.478 261.044 208.336L267.41 206.651L226.497 182.864L227.503 181.135L268.415 204.922L266.73 198.556C266.589 198.022 266.907 197.474 267.441 197.333C267.975 197.192 268.522 197.51 268.664 198.044Z" fill="#000"/>
<path fill-rule="evenodd" clip-rule="evenodd" d="M162.071 259.343L155.707 265.707C155.317 266.098 154.684 266.098 154.293 265.707L147.929 259.343C147.539 258.953 147.539 258.319 147.929 257.929C148.32 257.538 148.953 257.538 149.343 257.929L154 262.586L154 217L156 217L156 262.586L160.657 257.929C161.048 257.538 161.681 257.538 162.071 257.929C162.462 258.319 162.462 258.953 162.071 259.343Z" fill="#000"/>
<path fill-rule="evenodd" clip-rule="evenodd" d="M140.343 103.929L146.707 110.293C147.098 110.684 147.098 111.317 146.707 111.707L140.343 118.071C139.953 118.462 139.319 118.462 138.929 118.071C138.538 117.681 138.538 117.048 138.929 116.657L143.586 112L98 112L98 110L143.586 110L138.929 105.343C138.538 104.953 138.538 104.32 138.929 103.929C139.319 103.539 139.953 103.539 140.343 103.929Z" fill="#000"/>
</svg>
