<svg width="345" height="345" viewBox="0 0 345 345" fill="none" xmlns="http://www.w3.org/2000/svg">
<path d="M266.16 125.52C263.96 127.94 261.98 130.36 260.66 132.34C244.16 159.4 213.8 198.12 174.86 226.28L161.22 213.96C196.42 189.54 224.8 153.9 236.46 133C216.66 133 119.64 133 107.1 133C98.3002 133 88.8402 133.66 84.6602 134.1V114.52C90.6002 115.4 99.4002 116.06 107.1 116.06C118.32 116.06 216.22 116.06 238.22 116.06C244.16 116.06 249.22 115.62 252.3 114.52L266.16 125.52ZM162.54 230.02C149.34 216.82 124.04 195.04 112.38 186.68L126.46 175.24C136.58 182.5 162.1 203.4 177.94 218.8C191.8 232.66 208.96 250.7 218.42 262.14L202.36 274.9C194.22 263.68 176.62 244.32 162.54 230.02Z" fill="#f00"/>
<path d="M196.426 100V90.1802H196.285L193.305 92.272V90.2134L196.434 88.022H198.567V100H196.426Z" fill="#000"/>
<path d="M99.2832 206.525C99.2832 205.407 99.6706 204.494 100.445 203.786C101.226 203.077 102.23 202.723 103.458 202.723C104.643 202.723 105.617 203.047 106.38 203.694C107.15 204.342 107.534 205.166 107.534 206.168C107.534 206.81 107.34 207.446 106.953 208.077C106.566 208.702 105.863 209.519 104.845 210.526L102.338 213.041V213.182H107.717V215H99.3994V213.514L103.392 209.43C104.211 208.6 104.756 207.978 105.027 207.562C105.299 207.142 105.434 206.721 105.434 206.301C105.434 205.775 105.24 205.341 104.853 204.998C104.471 204.654 103.984 204.483 103.392 204.483C102.767 204.483 102.26 204.671 101.873 205.047C101.486 205.424 101.292 205.916 101.292 206.525V206.558H99.2832V206.525Z" fill="#000"/>
<path fill-rule="evenodd" clip-rule="evenodd" d="M263.5 106C250 106 216.985 106 191 106V104C216.985 104 250 104 263.5 104C270.278 104 274.771 106.561 277.163 110.869C279.507 115.092 279.712 120.785 278.456 126.853C276.083 138.326 268.374 151.726 258.425 160.691L265.054 161.326C265.604 161.379 266.007 161.867 265.954 162.417C265.902 162.967 265.413 163.37 264.863 163.317L255.905 162.458C255.355 162.405 254.952 161.917 255.005 161.367L255.864 152.408C255.916 151.858 256.405 151.455 256.955 151.508C257.504 151.561 257.907 152.049 257.855 152.599L257.234 159.071C266.805 150.384 274.226 137.433 276.498 126.448C277.709 120.594 277.425 115.462 275.414 111.84C273.45 108.303 269.722 106 263.5 106Z" fill="#000"/>
<path fill-rule="evenodd" clip-rule="evenodd" d="M165.839 242.984L166 251.982C166.01 252.534 165.57 252.99 165.018 253L156.019 253.16C155.467 253.17 155.011 252.731 155.002 252.178C154.992 251.626 155.431 251.171 155.984 251.161L162.568 251.043L107.306 197.72L108.694 196.28L163.957 249.604L163.839 243.019C163.83 242.467 164.269 242.011 164.821 242.002C165.374 241.992 165.829 242.431 165.839 242.984Z" fill="#000"/>
</svg>
