<svg width="345" height="345" viewBox="0 0 345 345" fill="none" xmlns="http://www.w3.org/2000/svg">
<path d="M97.6406 107.04C102.261 107.48 111.061 108.58 120.081 108.58C135.041 108.58 216.881 108.58 227.881 108.58C232.941 108.58 237.561 108.36 241.301 107.26L255.381 116.06C254.501 118.26 253.401 120.68 252.741 124.2C247.681 151.7 239.761 186.68 226.781 206.48C206.101 238.16 178.601 259.72 135.261 274.24L120.961 259.06C159.021 250.04 189.821 229.8 209.841 200.32C221.941 182.28 229.421 150.6 232.721 125.52C219.301 125.52 135.261 125.52 120.301 125.52C113.261 125.52 105.561 125.74 97.6406 126.4V107.04ZM229.861 181.84C214.241 181.84 137.901 181.84 123.381 181.84C115.901 181.84 109.961 182.28 103.361 182.72V164.68C109.301 165.12 115.901 165.56 122.941 165.56C137.901 165.56 216.441 165.56 231.401 165.56L229.861 181.84Z" fill="#f00"/>
<path d="M106.426 91V81.1802H106.285L103.305 83.272V81.2134L106.434 79.022H108.567V91H106.426Z" fill="#000"/>
<path d="M102.283 141.525C102.283 140.407 102.671 139.494 103.445 138.786C104.226 138.077 105.23 137.723 106.458 137.723C107.643 137.723 108.617 138.047 109.38 138.694C110.15 139.342 110.534 140.166 110.534 141.168C110.534 141.81 110.34 142.446 109.953 143.077C109.566 143.702 108.863 144.519 107.845 145.526L105.338 148.041V148.182H110.717V150H102.399V148.514L106.392 144.43C107.211 143.6 107.756 142.978 108.027 142.562C108.299 142.142 108.434 141.721 108.434 141.301C108.434 140.775 108.24 140.341 107.853 139.998C107.471 139.654 106.984 139.483 106.392 139.483C105.767 139.483 105.26 139.671 104.873 140.047C104.486 140.424 104.292 140.916 104.292 141.525V141.558H102.283V141.525Z" fill="#000"/>
<path fill-rule="evenodd" clip-rule="evenodd" d="M153.343 88.9291L159.707 95.2931C160.098 95.6836 160.098 96.3168 159.707 96.7073L153.343 103.071C152.953 103.462 152.319 103.462 151.929 103.071C151.538 102.681 151.538 102.048 151.929 101.657L156.586 97.0002L103 97.0002L103 95.0002L156.586 95.0002L151.929 90.3433C151.538 89.9528 151.538 89.3196 151.929 88.9291C152.319 88.5386 152.953 88.5386 153.343 88.9291Z" fill="#000"/>
<path fill-rule="evenodd" clip-rule="evenodd" d="M153.343 147.929L159.707 154.293C160.098 154.684 160.098 155.317 159.707 155.707L153.343 162.071C152.953 162.462 152.319 162.462 151.929 162.071C151.538 161.681 151.538 161.048 151.929 160.657L156.586 156L103 156L103 154L156.586 154L151.929 149.343C151.538 148.953 151.538 148.32 151.929 147.929C152.319 147.539 152.953 147.539 153.343 147.929Z" fill="#000"/>
<path fill-rule="evenodd" clip-rule="evenodd" d="M249.144 192.848C258.115 173.138 265.605 139.948 268.006 116.896L269.995 117.104C267.578 140.309 260.034 173.805 250.916 193.782L257.183 191.621C257.705 191.441 258.274 191.718 258.454 192.24C258.634 192.762 258.357 193.332 257.835 193.512L249.327 196.445C248.804 196.626 248.235 196.348 248.055 195.826L245.121 187.318C244.941 186.796 245.219 186.226 245.741 186.046C246.263 185.866 246.832 186.144 247.012 186.666L249.144 192.848Z" fill="#000"/>
</svg>
