<svg width="345" height="345" viewBox="0 0 345 345" fill="none" xmlns="http://www.w3.org/2000/svg">
<path d="M112.82 101.32C118.54 101.98 125.36 102.42 132.4 102.42C144.28 102.42 206.1 102.42 219.08 102.42C225.9 102.42 233.6 101.98 238.88 101.32V119.58C233.82 119.14 226.12 118.92 218.64 118.92C206.32 118.92 144.5 118.92 132.4 118.92C125.8 118.92 118.76 119.14 112.82 119.58V101.32ZM255.16 159.18C254.06 161.38 252.52 164.02 252.08 165.78C246.36 187.34 236.46 210.22 219.96 228.26C197.08 253.56 169.36 266.32 141.42 274.24L127.78 258.62C158.8 252.24 186.3 237.94 205.22 218.14C218.42 204.28 227.22 185.58 231.18 169.52C220.4 169.52 127.78 169.52 114.58 169.52C109.3 169.52 100.94 169.74 93.0195 170.4V151.92C100.94 152.58 108.42 153.24 114.58 153.24C125.36 153.24 219.08 153.24 230.3 153.24C235.36 153.24 240.2 152.58 242.62 151.48L255.16 159.18Z" fill="#f00"/>
<path d="M121.426 84V74.1802H121.285L118.305 76.272V74.2134L121.434 72.022H123.567V84H121.426Z" fill="#000"/>
<path d="M95.2832 128.525C95.2832 127.407 95.6706 126.494 96.4453 125.786C97.2256 125.077 98.23 124.723 99.4585 124.723C100.643 124.723 101.617 125.047 102.38 125.694C103.15 126.342 103.534 127.166 103.534 128.168C103.534 128.81 103.34 129.446 102.953 130.077C102.566 130.702 101.863 131.519 100.845 132.526L98.3379 135.041V135.182H103.717V137H95.3994V135.514L99.3921 131.43C100.211 130.6 100.756 129.978 101.027 129.562C101.299 129.142 101.434 128.721 101.434 128.301C101.434 127.775 101.24 127.341 100.853 126.998C100.471 126.654 99.9842 126.483 99.3921 126.483C98.7668 126.483 98.2604 126.671 97.873 127.047C97.4857 127.424 97.292 127.916 97.292 128.525V128.558H95.2832V128.525Z" fill="#000"/>
<path fill-rule="evenodd" clip-rule="evenodd" d="M166.343 81.9291L172.707 88.2931C173.098 88.6836 173.098 89.3168 172.707 89.7073L166.343 96.0713C165.953 96.4618 165.319 96.4618 164.929 96.0713C164.538 95.6807 164.538 95.0476 164.929 94.657L169.586 90.0002L116 90.0002L116 88.0002L169.586 88.0002L164.929 83.3433C164.538 82.9528 164.538 82.3196 164.929 81.9291C165.319 81.5386 165.953 81.5386 166.343 81.9291Z" fill="#000"/>
<path fill-rule="evenodd" clip-rule="evenodd" d="M143.343 134.929L149.707 141.293C150.098 141.684 150.098 142.317 149.707 142.707L143.343 149.071C142.953 149.462 142.319 149.462 141.929 149.071C141.538 148.681 141.538 148.048 141.929 147.657L146.586 143L93 143L93 141L146.586 141L141.929 136.343C141.538 135.953 141.538 135.32 141.929 134.929C142.319 134.539 142.953 134.539 143.343 134.929Z" fill="#000"/>
<path fill-rule="evenodd" clip-rule="evenodd" d="M252.5 143C239 143 230.985 143 205 143V141C230.985 141 239 141 252.5 141C259.186 141 263.582 142.97 265.993 146.647C268.357 150.254 268.624 155.239 267.738 160.844C266.058 171.462 260.083 185.146 254.383 198.187L260.513 195.782C261.027 195.58 261.607 195.833 261.809 196.347C262.011 196.861 261.757 197.442 261.243 197.643L252.865 200.931C252.351 201.133 251.771 200.879 251.569 200.365L248.282 191.987C248.08 191.473 248.333 190.893 248.847 190.691C249.361 190.489 249.942 190.743 250.143 191.257L252.549 197.388C258.281 184.271 264.129 170.854 265.762 160.531C266.626 155.074 266.268 150.715 264.32 147.744C262.418 144.843 258.814 143 252.5 143Z" fill="#000"/>
</svg>
