<svg width="345" height="345" viewBox="0 0 345 345" fill="none" xmlns="http://www.w3.org/2000/svg">
<path d="M99.6205 114.3C107.1 114.96 116.56 115.62 123.82 115.62H232.06C237.56 115.62 243.94 115.4 248.34 115.18C248.12 120.02 247.9 127.06 247.9 132.12V245.86C247.9 253.78 248.56 263.68 248.78 266.98H228.98C228.98 263.68 229.42 255.54 229.42 247.62V133H123.82C115.68 133 104.9 133.44 99.6205 133.88V114.3ZM96.9805 235.74C102.48 236.18 112.16 236.84 121.18 236.84H239.32V254.88H121.84C112.82 254.88 102.92 255.1 96.9805 255.76V235.74Z" fill="#f00"/>
<path d="M149.426 92V82.1802H149.285L146.305 84.272V82.2134L149.434 80.022H151.567V92H149.426Z" fill="#000"/>
<path fill-rule="evenodd" clip-rule="evenodd" d="M262 102.5H139.5V100.5H264V177.086L268.657 172.429C269.047 172.038 269.681 172.038 270.071 172.429C270.462 172.819 270.462 173.453 270.071 173.843L263.707 180.207C263.317 180.598 262.683 180.598 262.293 180.207L255.929 173.843C255.538 173.453 255.538 172.819 255.929 172.429C256.319 172.038 256.953 172.038 257.343 172.429L262 177.086V102.5Z" fill="#000"/>
<path d="M103.283 210.525C103.283 209.407 103.671 208.494 104.445 207.786C105.226 207.077 106.23 206.723 107.458 206.723C108.643 206.723 109.617 207.047 110.38 207.694C111.15 208.342 111.534 209.166 111.534 210.168C111.534 210.81 111.34 211.446 110.953 212.077C110.566 212.702 109.863 213.519 108.845 214.526L106.338 217.041V217.182H111.717V219H103.399V217.514L107.392 213.43C108.211 212.6 108.756 211.978 109.027 211.562C109.299 211.142 109.434 210.721 109.434 210.301C109.434 209.775 109.24 209.341 108.853 208.998C108.471 208.654 107.984 208.483 107.392 208.483C106.767 208.483 106.26 208.671 105.873 209.047C105.486 209.424 105.292 209.916 105.292 210.525V210.558H103.283V210.525Z" fill="#000"/>
<path fill-rule="evenodd" clip-rule="evenodd" d="M186.343 218.929L192.707 225.293C193.098 225.684 193.098 226.317 192.707 226.707L186.343 233.071C185.953 233.462 185.319 233.462 184.929 233.071C184.538 232.681 184.538 232.048 184.929 231.657L189.586 227H97V225H189.586L184.929 220.343C184.538 219.953 184.538 219.32 184.929 218.929C185.319 218.539 185.953 218.539 186.343 218.929Z" fill="#000"/>
</svg>
