<svg width="345" height="345" viewBox="0 0 345 345" fill="none" xmlns="http://www.w3.org/2000/svg">
<path d="M238.22 106.82C235.8 112.76 233.16 120.68 231.18 126.18C222.82 149.94 209.62 182.28 190.92 206.04C171.12 231.34 139.66 255.76 107.98 268.74L92.5801 252.9C125.58 241.46 155.94 219.24 175.96 194.38C196.2 168.86 211.16 132.78 217.32 101.32L238.22 106.82Z" fill="#f00"/>
<path d="M257.426 128V118.18H257.285L254.305 120.272V118.213L257.434 116.022H259.567V128H257.426Z" fill="#000"/>
<path fill-rule="evenodd" clip-rule="evenodd" d="M203.495 209.42C223.27 178.944 238.268 142.93 247.539 110.723L249.461 111.276C240.144 143.642 225.066 179.859 205.152 210.541L211.619 209.222C212.16 209.112 212.688 209.461 212.799 210.002C212.909 210.543 212.56 211.071 212.019 211.182L203.2 212.98C202.659 213.09 202.131 212.741 202.02 212.2L200.223 203.381C200.112 202.84 200.461 202.312 201.003 202.201C201.544 202.091 202.072 202.44 202.182 202.981L203.495 209.42Z" fill="#000"/>
</svg>
