<svg width="345" height="345" viewBox="0 0 345 345" fill="none" xmlns="http://www.w3.org/2000/svg">
<path d="M216.66 96.04C216 103.3 216 108.8 216 111.44C216 117.82 216 244.98 216 251.8C216 254 216 261.7 216.66 272.7H197.52C198.4 261.7 198.4 254.44 198.4 252.24C198.4 245.2 198.4 116.72 198.4 111.44C198.4 108.36 198.18 103.52 197.52 96.04H216.66ZM128 215.06V139.16H145.16V215.06H128ZM81.5801 208.68C88.1801 209.56 95.0001 209.78 100.94 209.78H245.7C252.3 209.78 258.24 209.34 263.74 208.68V227.38C258.02 226.5 249.88 226.5 245.7 226.5H100.94C95.0001 226.5 88.6201 226.72 81.5801 227.38V208.68ZM89.7201 128.82C96.1001 129.7 102.92 129.92 109.08 129.92H240.2C246.8 129.92 252.74 129.48 258.46 128.82V146.86C252.52 146.42 244.38 146.42 240.2 146.42H109.08C102.92 146.42 96.3201 146.42 89.7201 146.86V128.82Z" fill="#f00"/>
<path d="M241.088 90V87.7671H235.236V85.8579C236.21 84.0649 237.837 81.453 240.117 78.022H243.139V85.9575H244.757V87.7671H243.139V90H241.088ZM237.22 85.8828V86.0073H241.122V79.7651H241.005C239.71 81.6799 238.449 83.7191 237.22 85.8828Z" fill="#000"/>
<path d="M101.283 159.525C101.283 158.407 101.671 157.494 102.445 156.786C103.226 156.077 104.23 155.723 105.458 155.723C106.643 155.723 107.617 156.047 108.38 156.694C109.15 157.342 109.534 158.166 109.534 159.168C109.534 159.81 109.34 160.446 108.953 161.077C108.566 161.702 107.863 162.519 106.845 163.526L104.338 166.041V166.182H109.717V168H101.399V166.514L105.392 162.43C106.211 161.6 106.756 160.978 107.027 160.562C107.299 160.142 107.434 159.721 107.434 159.301C107.434 158.775 107.24 158.341 106.853 157.998C106.471 157.654 105.984 157.483 105.392 157.483C104.767 157.483 104.26 157.671 103.873 158.047C103.486 158.424 103.292 158.916 103.292 159.525V159.558H101.283V159.525Z" fill="#000"/>
<path d="M97.439 248.688V247.027H98.8999C99.5086 247.027 100.004 246.861 100.386 246.529C100.768 246.192 100.958 245.755 100.958 245.218C100.958 244.687 100.77 244.263 100.394 243.948C100.023 243.627 99.5252 243.466 98.8999 243.466C98.2801 243.466 97.7765 243.63 97.3892 243.956C97.0073 244.283 96.797 244.728 96.7583 245.292H94.7578C94.8132 244.191 95.2171 243.322 95.9697 242.686C96.7223 242.044 97.7212 241.723 98.9663 241.723C100.128 241.723 101.094 242.028 101.863 242.636C102.638 243.239 103.025 244 103.025 244.919C103.025 245.622 102.829 246.222 102.436 246.72C102.049 247.218 101.523 247.536 100.859 247.675V247.816C101.678 247.91 102.323 248.217 102.793 248.737C103.269 249.257 103.507 249.916 103.507 250.713C103.507 251.742 103.075 252.597 102.212 253.278C101.354 253.958 100.275 254.299 98.9746 254.299C97.6852 254.299 96.6338 253.97 95.8203 253.311C95.0124 252.653 94.5807 251.775 94.5254 250.68H96.5757C96.62 251.233 96.8607 251.676 97.2979 252.008C97.735 252.334 98.2995 252.498 98.9912 252.498C99.6774 252.498 100.236 252.32 100.668 251.966C101.105 251.607 101.324 251.145 101.324 250.58C101.324 249.993 101.111 249.531 100.685 249.194C100.258 248.856 99.6774 248.688 98.9414 248.688H97.439Z" fill="#000"/>
<path d="M95.4258 112V102.18H95.2847L92.3047 104.272V102.213L95.4341 100.022H97.5674V112H95.4258Z" fill="#000"/>
<path fill-rule="evenodd" clip-rule="evenodd" d="M142.343 109.929L148.707 116.293C149.098 116.684 149.098 117.317 148.707 117.707L142.343 124.071C141.953 124.462 141.319 124.462 140.929 124.071C140.538 123.681 140.538 123.048 140.929 122.657L145.586 118L92 118L92 116L145.586 116L140.929 111.343C140.538 110.953 140.538 110.32 140.929 109.929C141.319 109.539 141.953 109.539 142.343 109.929Z" fill="#000"/>
<path fill-rule="evenodd" clip-rule="evenodd" d="M142.343 229.929L148.707 236.293C149.098 236.684 149.098 237.317 148.707 237.707L142.343 244.071C141.953 244.462 141.319 244.462 140.929 244.071C140.538 243.681 140.538 243.048 140.929 242.657L145.586 238L92 238L92 236L145.586 236L140.929 231.343C140.538 230.953 140.538 230.32 140.929 229.929C141.319 229.539 141.953 229.539 142.343 229.929Z" fill="#000"/>
<path fill-rule="evenodd" clip-rule="evenodd" d="M123.07 198.343L116.706 204.707C116.316 205.098 115.683 205.098 115.292 204.707L108.928 198.343C108.538 197.953 108.538 197.319 108.928 196.929C109.319 196.538 109.952 196.538 110.342 196.929L114.999 201.586L114.999 156L116.999 156L116.999 201.586L121.656 196.929C122.047 196.538 122.68 196.538 123.07 196.929C123.461 197.319 123.461 197.953 123.07 198.343Z" fill="#000"/>
<path fill-rule="evenodd" clip-rule="evenodd" d="M235.07 116.343L228.706 122.707C228.316 123.098 227.683 123.098 227.292 122.707L220.928 116.343C220.538 115.953 220.538 115.319 220.928 114.929C221.319 114.538 221.952 114.538 222.342 114.929L226.999 119.586L226.999 84L228.999 84L228.999 119.586L233.656 114.929C234.047 114.538 234.68 114.538 235.07 114.929C235.461 115.319 235.461 115.953 235.07 116.343Z" fill="#000"/>
</svg>
