<svg width="345" height="345" viewBox="0 0 345 345" fill="none" xmlns="http://www.w3.org/2000/svg">
<path d="M260.659 121.12C258.899 123.76 256.919 125.96 255.599 128.6C246.139 146.2 227.219 170.18 208.959 185.36L193.779 174.8C210.499 163.14 225.679 145.76 233.819 131.68C216.879 131.68 130.639 131.68 115.679 131.68C107.759 131.68 92.3591 132.56 92.3591 132.56V113.42C99.1791 114.08 107.319 114.52 114.799 114.52C132.179 114.52 215.559 114.52 236.019 114.52C240.639 114.52 245.699 114.08 248.999 112.98L260.659 121.12ZM177.499 166.66C177.499 176.12 177.499 235.52 177.499 247.18H159.019C159.019 235.52 159.019 176.34 159.019 166.44C159.019 161.38 159.019 155.22 158.139 149.06H178.599C177.719 155.22 177.499 160.94 177.499 166.66ZM80.0391 237.5C86.6391 238.38 93.6791 238.82 100.059 238.82H247.019C253.839 238.82 259.999 238.16 265.719 237.5V257.74C259.779 256.86 251.419 256.86 247.019 256.86H100.059C93.6791 256.86 87.0791 257.08 80.0391 257.74V237.5Z" fill="#f00"/>
<path d="M133.283 153.525C133.283 152.407 133.671 151.494 134.445 150.786C135.226 150.077 136.23 149.723 137.458 149.723C138.643 149.723 139.617 150.047 140.38 150.694C141.15 151.342 141.534 152.166 141.534 153.168C141.534 153.81 141.34 154.446 140.953 155.077C140.566 155.702 139.863 156.519 138.845 157.526L136.338 160.041V160.182H141.717V162H133.399V160.514L137.392 156.43C138.211 155.6 138.756 154.978 139.027 154.562C139.299 154.142 139.434 153.721 139.434 153.301C139.434 152.775 139.24 152.341 138.853 151.998C138.471 151.654 137.984 151.483 137.392 151.483C136.767 151.483 136.26 151.671 135.873 152.047C135.486 152.424 135.292 152.916 135.292 153.525V153.558H133.283V153.525Z" fill="#000"/>
<path d="M87.439 279.688V278.027H88.8999C89.5086 278.027 90.0039 277.861 90.3857 277.529C90.7676 277.192 90.9585 276.755 90.9585 276.218C90.9585 275.687 90.7703 275.263 90.394 274.948C90.0233 274.627 89.5252 274.466 88.8999 274.466C88.2801 274.466 87.7765 274.63 87.3892 274.956C87.0073 275.283 86.797 275.728 86.7583 276.292H84.7578C84.8132 275.191 85.2171 274.322 85.9697 273.686C86.7223 273.044 87.7212 272.723 88.9663 272.723C90.1284 272.723 91.0941 273.028 91.8633 273.636C92.638 274.239 93.0254 275 93.0254 275.919C93.0254 276.622 92.8289 277.222 92.436 277.72C92.0487 278.218 91.5229 278.536 90.8589 278.675V278.816C91.6779 278.91 92.3226 279.217 92.793 279.737C93.2689 280.257 93.5068 280.916 93.5068 281.713C93.5068 282.742 93.0752 283.597 92.2119 284.278C91.3542 284.958 90.2751 285.299 88.9746 285.299C87.6852 285.299 86.6338 284.97 85.8203 284.311C85.0124 283.653 84.5807 282.775 84.5254 281.68H86.5757C86.62 282.233 86.8607 282.676 87.2979 283.008C87.735 283.334 88.2995 283.498 88.9912 283.498C89.6774 283.498 90.2363 283.32 90.668 282.966C91.1051 282.607 91.3237 282.145 91.3237 281.58C91.3237 280.993 91.1107 280.531 90.6846 280.194C90.2585 279.856 89.6774 279.688 88.9414 279.688H87.439Z" fill="#000"/>
<path d="M96.4238 96V86.1802H96.2827L93.3027 88.272V86.2134L96.4321 84.022H98.5654V96H96.4238Z" fill="#000"/>
<path fill-rule="evenodd" clip-rule="evenodd" d="M143.343 93.9291L149.707 100.293C150.098 100.684 150.098 101.317 149.707 101.707L143.343 108.071C142.953 108.462 142.319 108.462 141.929 108.071C141.538 107.681 141.538 107.048 141.929 106.657L146.586 102L93 102L93 100L146.586 100L141.929 95.3433C141.538 94.9528 141.538 94.3196 141.929 93.9291C142.319 93.5386 142.953 93.5386 143.343 93.9291Z" fill="#000"/>
<path fill-rule="evenodd" clip-rule="evenodd" d="M132.343 260.929L138.707 267.293C139.098 267.684 139.098 268.317 138.707 268.707L132.343 275.071C131.953 275.462 131.319 275.462 130.929 275.071C130.538 274.681 130.538 274.048 130.929 273.657L135.586 269L82 269L82 267L135.586 267L130.929 262.343C130.538 261.953 130.538 261.32 130.929 260.929C131.319 260.539 131.953 260.539 132.343 260.929Z" fill="#000"/>
<path fill-rule="evenodd" clip-rule="evenodd" d="M155.07 192.343L148.706 198.707C148.316 199.098 147.683 199.098 147.292 198.707L140.928 192.343C140.538 191.953 140.538 191.319 140.928 190.929C141.319 190.538 141.952 190.538 142.342 190.929L146.999 195.586L146.999 150L148.999 150L148.999 195.586L153.656 190.929C154.047 190.538 154.68 190.538 155.07 190.929C155.461 191.319 155.461 191.953 155.07 192.343Z" fill="#000"/>
</svg>
