<svg width="345" height="345" viewBox="0 0 345 345" fill="none" xmlns="http://www.w3.org/2000/svg">
<path d="M112.38 195.48C121.84 172.6 131.08 139.16 133.94 113.86L153.52 117.82C152.2 122.66 150.66 129.04 149.56 133.88C146.7 147.52 138.78 180.08 129.54 202.74C121.62 222.76 109.52 245.42 97.2 263.02L78.5 255.1C92.36 236.84 104.68 213.74 112.38 195.48ZM220.62 186.9C211.82 164.24 198.4 133.66 188.72 117.38L206.54 111.44C215.34 127.28 229.42 157.64 238.66 180.96C247.68 202.74 259.34 236.4 265.06 256.42L245.7 262.58C239.98 240.14 229.86 210.44 220.62 186.9Z" fill="#f00"/>
<path d="M106.426 118V108.18H106.285L103.305 110.272V108.213L106.434 106.022H108.567V118H106.426Z" fill="#000"/>
<path d="M232.283 104.525C232.283 103.407 232.671 102.494 233.445 101.786C234.226 101.077 235.23 100.723 236.458 100.723C237.643 100.723 238.617 101.047 239.38 101.694C240.15 102.342 240.534 103.166 240.534 104.168C240.534 104.81 240.34 105.446 239.953 106.077C239.566 106.702 238.863 107.519 237.845 108.526L235.338 111.041V111.182H240.717V113H232.399V111.514L236.392 107.43C237.211 106.6 237.756 105.978 238.027 105.562C238.299 105.142 238.434 104.721 238.434 104.301C238.434 103.775 238.24 103.341 237.853 102.998C237.471 102.654 236.984 102.483 236.392 102.483C235.767 102.483 235.26 102.671 234.873 103.047C234.486 103.424 234.292 103.916 234.292 104.525V104.558H232.283V104.525Z" fill="#000"/>
<path fill-rule="evenodd" clip-rule="evenodd" d="M112.29 168.356L104.501 172.865C104.023 173.142 103.411 172.979 103.134 172.501L98.6252 164.712C98.3485 164.234 98.5116 163.622 98.9896 163.346C99.4675 163.069 100.079 163.232 100.356 163.71L103.656 169.41L119.034 111.742L120.966 112.258L105.588 169.925L111.288 166.625C111.766 166.349 112.377 166.512 112.654 166.99C112.931 167.468 112.768 168.079 112.29 168.356Z" fill="#000"/>
<path fill-rule="evenodd" clip-rule="evenodd" d="M251.795 163.778L248.949 172.316C248.774 172.84 248.208 173.123 247.684 172.948L239.146 170.102C238.622 169.928 238.339 169.361 238.514 168.838C238.688 168.314 239.255 168.03 239.778 168.205L246.026 170.288L217.106 112.447L218.895 111.553L247.815 169.393L249.898 163.145C250.072 162.621 250.639 162.338 251.163 162.513C251.687 162.688 251.97 163.254 251.795 163.778Z" fill="#000"/>
</svg>
