<svg width="345" height="345" viewBox="0 0 345 345" fill="none" xmlns="http://www.w3.org/2000/svg">
<path d="M152.64 94.94C150.66 100 148.68 105.94 146.92 110.56C143.62 120.46 138.56 133.88 132.4 145.98C123.82 163.14 107.54 185.36 93.8995 197.02L76.5195 186.46C92.3595 175.24 107.98 152.58 115.68 139.16C121.62 128.16 125.58 116.94 128 108.36C129.76 102.86 130.86 96.7 131.3 90.98L152.64 94.94ZM124.92 132.78C138.78 132.78 231.62 132.78 242.62 132.78C247.9 132.78 256.7 132.56 263.08 131.46V150.38C256.26 149.94 247.68 149.94 242.62 149.94C231.4 149.94 138.78 149.94 122.72 149.94L124.92 132.78ZM205.66 142.02C203.68 209.78 178.6 248.72 139.22 273.58L120.52 261.04C126.9 258.62 133.5 254.66 138.34 250.7C161 233.76 185.86 202.96 187.18 142.02H205.66Z" fill="#f00"/>
<path d="M168.283 104.525C168.283 103.407 168.671 102.494 169.445 101.786C170.226 101.077 171.23 100.723 172.458 100.723C173.643 100.723 174.617 101.047 175.38 101.694C176.15 102.342 176.534 103.166 176.534 104.168C176.534 104.81 176.34 105.446 175.953 106.077C175.566 106.702 174.863 107.519 173.845 108.526L171.338 111.041V111.182H176.717V113H168.399V111.514L172.392 107.43C173.211 106.6 173.756 105.978 174.027 105.562C174.299 105.142 174.434 104.721 174.434 104.301C174.434 103.775 174.24 103.341 173.853 102.998C173.471 102.654 172.984 102.483 172.392 102.483C171.767 102.483 171.26 102.671 170.873 103.047C170.486 103.424 170.292 103.916 170.292 104.525V104.558H168.283V104.525Z" fill="#000"/>
<path d="M103.425 102V92.1802H103.284L100.304 94.272V92.2134L103.433 90.022H105.566V102H103.425Z" fill="#000"/>
<path d="M158.439 165.688V164.027H159.9C160.509 164.027 161.004 163.861 161.386 163.529C161.768 163.192 161.958 162.755 161.958 162.218C161.958 161.687 161.77 161.263 161.394 160.948C161.023 160.627 160.525 160.466 159.9 160.466C159.28 160.466 158.777 160.63 158.389 160.956C158.007 161.283 157.797 161.728 157.758 162.292H155.758C155.813 161.191 156.217 160.322 156.97 159.686C157.722 159.044 158.721 158.723 159.966 158.723C161.128 158.723 162.094 159.028 162.863 159.636C163.638 160.239 164.025 161 164.025 161.919C164.025 162.622 163.829 163.222 163.436 163.72C163.049 164.218 162.523 164.536 161.859 164.675V164.816C162.678 164.91 163.323 165.217 163.793 165.737C164.269 166.257 164.507 166.916 164.507 167.713C164.507 168.742 164.075 169.597 163.212 170.278C162.354 170.958 161.275 171.299 159.975 171.299C158.685 171.299 157.634 170.97 156.82 170.311C156.012 169.653 155.581 168.775 155.525 167.68H157.576C157.62 168.233 157.861 168.676 158.298 169.008C158.735 169.334 159.299 169.498 159.991 169.498C160.677 169.498 161.236 169.32 161.668 168.966C162.105 168.607 162.324 168.145 162.324 167.58C162.324 166.993 162.111 166.531 161.685 166.194C161.258 165.856 160.677 165.688 159.941 165.688H158.439Z" fill="#000"/>
<path fill-rule="evenodd" clip-rule="evenodd" d="M79.8208 159.187C99.51 143.187 112.707 116.844 117.518 92.3076L119.48 92.6924C114.596 117.602 101.177 144.466 80.9759 160.826L87.552 161.714C88.0993 161.788 88.483 162.292 88.4091 162.839C88.3351 163.387 87.8315 163.77 87.2842 163.696L78.3652 162.491C77.8179 162.417 77.4342 161.913 77.5081 161.366L78.7134 152.447C78.7874 151.9 79.291 151.516 79.8383 151.59C80.3856 151.664 80.7694 152.168 80.6954 152.715L79.8208 159.187Z" fill="#000"/>
<path fill-rule="evenodd" clip-rule="evenodd" d="M139.322 227.677C158.713 211.719 168.187 185.443 173.018 160.808L174.98 161.192C170.117 185.997 160.499 212.921 140.467 229.324L147.052 230.214C147.599 230.288 147.983 230.792 147.909 231.339C147.835 231.887 147.331 232.27 146.784 232.196L137.865 230.991C137.318 230.917 136.934 230.413 137.008 229.866L138.213 220.947C138.287 220.4 138.791 220.016 139.338 220.09C139.886 220.164 140.269 220.668 140.195 221.215L139.322 227.677Z" fill="#000"/>
<path fill-rule="evenodd" clip-rule="evenodd" d="M213.343 112.929L219.707 119.293C220.098 119.684 220.098 120.317 219.707 120.707L213.343 127.071C212.953 127.462 212.319 127.462 211.929 127.071C211.538 126.681 211.538 126.048 211.929 125.657L216.586 121H162V119H216.586L211.929 114.343C211.538 113.953 211.538 113.32 211.929 112.929C212.319 112.539 212.953 112.539 213.343 112.929Z" fill="#000"/>
</svg>
