<svg width="345" height="345" viewBox="0 0 345 345" fill="none" xmlns="http://www.w3.org/2000/svg">
<path d="M136.14 90.54C136.8 95.16 138.12 100.66 139.88 107.26C149.78 142.46 175.08 234.42 180.58 252.68C181.68 257.3 184.32 265 186.08 269.84L165.84 274.9C164.74 269.84 163.42 262.8 161.66 256.86C156.82 238.6 127.34 128.6 122.06 111.66C119.64 103.74 117.88 98.9 115.9 95.38L136.14 90.54ZM263.3 126.4C252.96 147.96 225.9 184.26 207.86 202.08L190.04 193.5C207.86 178.98 228.98 151.92 237.12 138.06C225.24 140.04 99.6201 164.9 80.9201 169.52L76.0801 150.6C83.5601 149.94 90.1601 149.28 97.8601 147.96C110.84 145.76 227.22 123.98 241.3 120.68C244.6 120.02 248.34 118.7 250.98 117.6L263.3 126.4Z" fill="#f00"/>
<path d="M77.4248 131V121.18H77.2837L74.3037 123.272V121.213L77.4331 119.022H79.5664V131H77.4248Z" fill="#000"/>
<path d="M155.283 81.5249C155.283 80.4071 155.671 79.494 156.445 78.7856C157.226 78.0773 158.23 77.7231 159.458 77.7231C160.643 77.7231 161.617 78.0469 162.38 78.6943C163.15 79.3418 163.534 80.1663 163.534 81.168C163.534 81.8099 163.34 82.4463 162.953 83.0771C162.566 83.7025 161.863 84.5187 160.845 85.5259L158.338 88.041V88.1821H163.717V90H155.399V88.5142L159.392 84.4302C160.211 83.6001 160.756 82.9775 161.027 82.5625C161.299 82.1419 161.434 81.7214 161.434 81.3008C161.434 80.7751 161.24 80.3407 160.853 79.9976C160.471 79.6545 159.984 79.4829 159.392 79.4829C158.767 79.4829 158.26 79.6711 157.873 80.0474C157.486 80.4237 157.292 80.9162 157.292 81.5249V81.5581H155.283V81.5249Z" fill="#000"/>
<path fill-rule="evenodd" clip-rule="evenodd" d="M114.754 123.239L122.288 128.163C122.75 128.465 122.88 129.085 122.578 129.547L117.654 137.081C117.351 137.543 116.732 137.673 116.269 137.371C115.807 137.068 115.677 136.449 115.98 135.986L119.583 130.474L74.205 139.979L73.7949 138.021L119.173 128.516L113.66 124.913C113.198 124.611 113.068 123.991 113.37 123.529C113.672 123.067 114.292 122.937 114.754 123.239Z" fill="#000"/>
<path fill-rule="evenodd" clip-rule="evenodd" d="M164.991 123.821L160.491 131.615C160.214 132.093 159.603 132.257 159.125 131.981L151.33 127.481C150.852 127.205 150.688 126.593 150.964 126.115C151.24 125.637 151.852 125.473 152.33 125.749L158.034 129.042L146.034 84.259L147.966 83.7414L159.966 128.524L163.259 122.821C163.535 122.342 164.146 122.179 164.625 122.455C165.103 122.731 165.267 123.342 164.991 123.821Z" fill="#000"/>
<path fill-rule="evenodd" clip-rule="evenodd" d="M255.442 107.697C242.174 110.186 209.724 116.273 184.185 121.064L183.816 119.099C209.355 114.307 241.805 108.22 255.073 105.731C261.736 104.481 266.623 106.17 269.768 109.963C272.851 113.681 274.102 119.238 273.987 125.434C273.77 137.148 268.663 151.74 260.538 162.385L267.171 161.787C267.721 161.738 268.207 162.144 268.257 162.694C268.306 163.244 267.901 163.73 267.351 163.779L258.387 164.587C257.837 164.636 257.351 164.231 257.301 163.681L256.494 154.717C256.444 154.167 256.85 153.681 257.4 153.631C257.95 153.582 258.436 153.987 258.486 154.538L259.069 161.013C266.874 150.711 271.78 136.613 271.987 125.397C272.098 119.42 270.873 114.429 268.229 111.24C265.647 108.125 261.557 106.55 255.442 107.697Z" fill="#000"/>
</svg>
