<svg width="345" height="345" viewBox="0 0 345 345" fill="none" xmlns="http://www.w3.org/2000/svg">
<path d="M266.82 116.5C265.06 118.48 262.42 121.78 260.88 124.2C252.08 139.16 231.18 167.54 206.1 184.92L191.36 173.26C211.82 161.6 232.5 137.84 239.54 124.2C224.14 124.2 124.7 124.2 114.14 124.2C106 124.2 97.8603 124.64 89.2803 125.3V105.5C96.9803 106.6 106 107.48 114.14 107.48C124.7 107.48 227.44 107.48 240.64 107.48C244.82 107.48 252.74 106.82 255.82 105.94L266.82 116.5ZM178.82 145.32C178.82 204.94 173.54 245.2 117.44 273.36L101.38 260.16C107.32 258.18 115.02 254.44 121.18 250.26C155.06 229.36 159.9 198.12 159.9 161.38C159.9 156.1 159.9 151.26 159.02 145.32H178.82Z" fill="#f00"/>
<path d="M98.4258 85V75.1802H98.2847L95.3047 77.272V75.2134L98.4341 73.022H100.567V85H98.4258Z" fill="#000"/>
<path d="M127.283 149.525C127.283 148.407 127.671 147.494 128.445 146.786C129.226 146.077 130.23 145.723 131.458 145.723C132.643 145.723 133.617 146.047 134.38 146.694C135.15 147.342 135.534 148.166 135.534 149.168C135.534 149.81 135.34 150.446 134.953 151.077C134.566 151.702 133.863 152.519 132.845 153.526L130.338 156.041V156.182H135.717V158H127.399V156.514L131.392 152.43C132.211 151.6 132.756 150.978 133.027 150.562C133.299 150.142 133.434 149.721 133.434 149.301C133.434 148.775 133.24 148.341 132.853 147.998C132.471 147.654 131.984 147.483 131.392 147.483C130.767 147.483 130.26 147.671 129.873 148.047C129.486 148.424 129.292 148.916 129.292 149.525V149.558H127.283V149.525Z" fill="#000"/>
<path fill-rule="evenodd" clip-rule="evenodd" d="M143.343 85.9291L149.707 92.2931C150.098 92.6836 150.098 93.3168 149.707 93.7073L143.343 100.071C142.953 100.462 142.319 100.462 141.929 100.071C141.538 99.6807 141.538 99.0476 141.929 98.657L146.586 94.0002H92V92.0002H146.586L141.929 87.3433C141.538 86.9528 141.538 86.3196 141.929 85.9291C142.319 85.5386 142.953 85.5386 143.343 85.9291Z" fill="#000"/>
<path fill-rule="evenodd" clip-rule="evenodd" d="M278.019 102.795C269.778 92.028 251.249 86.2786 229.735 91.4716L229.266 89.5274C251.251 84.2207 270.723 89.9714 279.607 101.579C284.07 107.41 285.811 114.675 283.838 122.593C281.993 129.996 276.922 137.895 267.952 145.73L274.555 146.363C275.104 146.416 275.507 146.904 275.455 147.454C275.402 148.004 274.913 148.407 274.364 148.354L265.405 147.495C264.855 147.442 264.452 146.954 264.505 146.404L265.364 137.445C265.417 136.895 265.905 136.492 266.455 136.545C267.005 136.598 267.407 137.086 267.355 137.636L266.731 144.141C275.432 136.517 280.185 128.978 281.897 122.109C283.721 114.793 282.118 108.151 278.019 102.795Z" fill="#000"/>
<path fill-rule="evenodd" clip-rule="evenodd" d="M146.092 155.536C146.047 152.449 146 149.276 146 146H148C148 149.193 148.046 152.313 148.092 155.369C148.258 166.562 148.411 176.884 146.226 186.717C143.539 198.811 137.33 210.168 123.473 221.769L130.055 222.5C130.604 222.561 131 223.055 130.939 223.604C130.878 224.153 130.384 224.549 129.835 224.488L120.89 223.494C120.341 223.433 119.945 222.938 120.006 222.39L121 213.445C121.061 212.896 121.555 212.5 122.104 212.561C122.653 212.622 123.049 213.117 122.988 213.665L122.265 220.172C135.762 208.851 141.695 197.886 144.274 186.283C146.403 176.702 146.256 166.687 146.092 155.536Z" fill="#000"/>
</svg>
