<svg width="345" height="345" viewBox="0 0 345 345" fill="none" xmlns="http://www.w3.org/2000/svg">
<path d="M148.019 109.46C146.919 103.96 145.599 99.1202 144.059 94.5002L163.639 91.2002C164.079 95.1602 164.959 101.54 165.839 106.38C167.159 116.06 191.359 236.84 194.439 251.36C195.979 257.52 197.739 265 199.939 271.38L179.699 275.12C178.599 267.64 177.939 260.82 176.399 254.44C174.199 240.58 150.659 120.9 148.019 109.46ZM85.9793 141.36C91.4793 140.92 97.4193 140.48 104.459 139.82C124.259 137.62 200.159 125.52 221.059 121.34C227.439 120.24 233.159 118.92 236.899 117.82L240.419 136.3C237.119 136.52 230.519 137.62 224.579 138.5C201.919 142.02 126.899 153.9 107.539 157.2C101.599 158.3 96.3193 159.4 89.9393 160.94L85.9793 141.36ZM85.3193 204.72C90.5993 204.5 98.9593 203.62 104.679 202.74C128.219 199.66 210.059 186.24 236.459 181.4C244.819 179.86 251.199 178.32 255.819 177L259.559 195.48C254.939 195.92 247.899 197.24 239.759 198.56C210.499 202.96 131.079 215.94 108.859 219.9C100.279 221.44 94.1193 222.76 89.2793 224.08L85.3193 204.72Z" fill="#f00"/>
<path d="M89.4248 121V111.18H89.2837L86.3037 113.272V111.213L89.4331 109.022H91.5664V121H89.4248Z" fill="#000"/>
<path d="M83.2832 178.525C83.2832 177.407 83.6706 176.494 84.4453 175.786C85.2256 175.077 86.23 174.723 87.4585 174.723C88.6427 174.723 89.6167 175.047 90.3804 175.694C91.1496 176.342 91.5342 177.166 91.5342 178.168C91.5342 178.81 91.3405 179.446 90.9531 180.077C90.5658 180.702 89.863 181.519 88.8447 182.526L86.3379 185.041V185.182H91.7168V187H83.3994V185.514L87.3921 181.43C88.2111 180.6 88.7562 179.978 89.0273 179.562C89.2985 179.142 89.4341 178.721 89.4341 178.301C89.4341 177.775 89.2404 177.341 88.853 176.998C88.4712 176.654 87.9842 176.483 87.3921 176.483C86.7668 176.483 86.2604 176.671 85.873 177.047C85.4857 177.424 85.292 177.916 85.292 178.525V178.558H83.2832V178.525Z" fill="#000"/>
<path d="M185.439 79.6875V78.0273H186.9C187.509 78.0273 188.004 77.8613 188.386 77.5293C188.768 77.1917 188.958 76.7546 188.958 76.2178C188.958 75.6865 188.77 75.2632 188.394 74.9478C188.023 74.6268 187.525 74.4663 186.9 74.4663C186.28 74.4663 185.777 74.6296 185.389 74.9561C185.007 75.2826 184.797 75.728 184.758 76.2925H182.758C182.813 75.1912 183.217 74.3224 183.97 73.686C184.722 73.0441 185.721 72.7231 186.966 72.7231C188.128 72.7231 189.094 73.0275 189.863 73.6362C190.638 74.2394 191.025 75.0003 191.025 75.9189C191.025 76.6217 190.829 77.2222 190.436 77.7202C190.049 78.2183 189.523 78.5365 188.859 78.6748V78.8159C189.678 78.91 190.323 79.2171 190.793 79.7373C191.269 80.2575 191.507 80.916 191.507 81.7129C191.507 82.7422 191.075 83.5972 190.212 84.2778C189.354 84.9585 188.275 85.2988 186.975 85.2988C185.685 85.2988 184.634 84.9696 183.82 84.311C183.012 83.6525 182.581 82.7754 182.525 81.6797H184.576C184.62 82.2331 184.861 82.6758 185.298 83.0078C185.735 83.3343 186.299 83.4976 186.991 83.4976C187.677 83.4976 188.236 83.3205 188.668 82.9663C189.105 82.6066 189.324 82.1445 189.324 81.5801C189.324 80.9935 189.111 80.5314 188.685 80.1938C188.258 79.8563 187.677 79.6875 186.941 79.6875H185.439Z" fill="#000"/>
<path fill-rule="evenodd" clip-rule="evenodd" d="M132.49 114.952L139.811 120.187C140.26 120.508 140.364 121.133 140.043 121.582L134.808 128.903C134.486 129.352 133.862 129.456 133.413 129.134C132.963 128.813 132.859 128.189 133.181 127.739L137.011 122.382L83.1637 131.328L82.8359 129.355L136.684 120.409L131.327 116.579C130.877 116.257 130.774 115.633 131.095 115.184C131.416 114.734 132.041 114.631 132.49 114.952Z" fill="#000"/>
<path fill-rule="evenodd" clip-rule="evenodd" d="M132.49 180.952L139.811 186.187C140.26 186.508 140.364 187.133 140.043 187.582L134.808 194.903C134.486 195.352 133.862 195.456 133.413 195.134C132.963 194.813 132.859 194.189 133.181 193.739L137.011 188.382L83.1637 197.328L82.8359 195.355L136.684 186.409L131.327 182.579C130.877 182.257 130.774 181.633 131.095 181.184C131.416 180.734 132.041 180.631 132.49 180.952Z" fill="#000"/>
<path fill-rule="evenodd" clip-rule="evenodd" d="M189.299 109.741L184.293 117.221C183.986 117.679 183.365 117.803 182.906 117.495L175.426 112.489C174.967 112.182 174.844 111.561 175.152 111.102C175.459 110.643 176.08 110.52 176.539 110.827L182.012 114.49L175.019 79.1943L176.981 78.8056L183.974 114.102L187.637 108.629C187.944 108.17 188.565 108.047 189.024 108.354C189.483 108.661 189.606 109.282 189.299 109.741Z" fill="#000"/>
</svg>
