<svg width="345" height="345" viewBox="0 0 345 345" fill="none" xmlns="http://www.w3.org/2000/svg">
<path d="M254.72 118.26C253.62 120.46 252.08 126.4 251.86 128.6C247.9 154.56 243.28 186.02 227.22 210.88C209.4 238.82 179.48 261.26 144.06 272.7L129.1 257.74C161.44 248.94 192.9 229.8 210.72 201.64C223.26 182.28 229.42 154.12 231.62 128.16C219.3 128.16 126.02 128.16 110.4 128.16C110.4 134.32 110.4 165.12 110.4 172.16C110.4 175.24 110.4 180.74 110.84 186.24H91.04C91.48 180.96 91.7 176.34 91.7 172.16C91.7 165.12 91.7 134.54 91.7 125.08C91.7 120.02 91.48 115.18 91.04 110.56C96.76 111 104.9 111 114.36 111C121.84 111 214.9 111 227.44 111C232.06 111 237.34 110.78 241.3 109.9L254.72 118.26Z" fill="#f00"/>
<path d="M95.2832 80.5249C95.2832 79.4071 95.6706 78.494 96.4453 77.7856C97.2256 77.0773 98.23 76.7231 99.4585 76.7231C100.643 76.7231 101.617 77.0469 102.38 77.6943C103.15 78.3418 103.534 79.1663 103.534 80.168C103.534 80.8099 103.34 81.4463 102.953 82.0771C102.566 82.7025 101.863 83.5187 100.845 84.5259L98.3379 87.041V87.1821H103.717V89H95.3994V87.5142L99.3921 83.4302C100.211 82.6001 100.756 81.9775 101.027 81.5625C101.299 81.1419 101.434 80.7214 101.434 80.3008C101.434 79.7751 101.24 79.3407 100.853 78.9976C100.471 78.6545 99.9842 78.4829 99.3921 78.4829C98.7668 78.4829 98.2604 78.6711 97.873 79.0474C97.4857 79.4237 97.292 79.9162 97.292 80.5249V80.5581H95.2832V80.5249Z" fill="#000"/>
<path d="M68.4258 128V118.18H68.2847L65.3047 120.272V118.213L68.4341 116.022H70.5674V128H68.4258Z" fill="#000"/>
<path fill-rule="evenodd" clip-rule="evenodd" d="M143.343 91.9291L149.707 98.2931C150.098 98.6836 150.098 99.3168 149.707 99.7073L143.343 106.071C142.953 106.462 142.319 106.462 141.929 106.071C141.538 105.681 141.538 105.048 141.929 104.657L146.586 100L93 100L93 98.0002L146.586 98.0002L141.929 93.3433C141.538 92.9528 141.538 92.3196 141.929 91.9291C142.319 91.5386 142.953 91.5386 143.343 91.9291Z" fill="#000"/>
<path fill-rule="evenodd" clip-rule="evenodd" d="M87.0714 161.343L80.7074 167.707C80.3169 168.098 79.6837 168.098 79.2932 167.707L72.9292 161.343C72.5387 160.953 72.5387 160.319 72.9292 159.929C73.3198 159.538 73.9529 159.538 74.3434 159.929L79.0003 164.586L79.0003 111L81.0003 111L81.0003 164.586L85.6571 159.929C86.0477 159.538 86.6808 159.538 87.0714 159.929C87.4619 160.319 87.4619 160.953 87.0714 161.343Z" fill="#000"/>
</svg>
