<svg width="345" height="345" viewBox="0 0 345 345" fill="none" xmlns="http://www.w3.org/2000/svg">
<path d="M125.14 98.46C153.74 102.2 212.7 114.52 240.42 124.2L233.38 141.14C206.76 131.24 149.12 118.7 118.76 114.74L125.14 98.46ZM115.02 156.54C145.16 161.82 198.62 173.04 225.9 182.94L219.08 199.88C193.56 189.98 139.66 177.88 108.42 173.04L115.02 156.54ZM103.14 220.56C139.88 226.5 203.9 241.46 234.04 253.56L226.34 270.5C197.3 257.74 131.74 243 96.3203 237.5L103.14 220.56Z" fill="#f00"/>
<path d="M149.426 83V73.1802H149.285L146.305 75.272V73.2134L149.434 71.022H151.567V83H149.426Z" fill="#000"/>
<path d="M126.283 131.525C126.283 130.407 126.671 129.494 127.445 128.786C128.226 128.077 129.23 127.723 130.458 127.723C131.643 127.723 132.617 128.047 133.38 128.694C134.15 129.342 134.534 130.166 134.534 131.168C134.534 131.81 134.34 132.446 133.953 133.077C133.566 133.702 132.863 134.519 131.845 135.526L129.338 138.041V138.182H134.717V140H126.399V138.514L130.392 134.43C131.211 133.6 131.756 132.978 132.027 132.562C132.299 132.142 132.434 131.721 132.434 131.301C132.434 130.775 132.24 130.341 131.853 129.998C131.471 129.654 130.984 129.483 130.392 129.483C129.767 129.483 129.26 129.671 128.873 130.047C128.486 130.424 128.292 130.916 128.292 131.525V131.558H126.283V131.525Z" fill="#000"/>
<path d="M116.44 198.688V197.027H117.901C118.51 197.027 119.005 196.861 119.387 196.529C119.769 196.192 119.959 195.755 119.959 195.218C119.959 194.687 119.771 194.263 119.395 193.948C119.024 193.627 118.526 193.466 117.901 193.466C117.281 193.466 116.778 193.63 116.39 193.956C116.008 194.283 115.798 194.728 115.759 195.292H113.759C113.814 194.191 114.218 193.322 114.971 192.686C115.723 192.044 116.722 191.723 117.967 191.723C119.129 191.723 120.095 192.028 120.864 192.636C121.639 193.239 122.026 194 122.026 194.919C122.026 195.622 121.83 196.222 121.437 196.72C121.05 197.218 120.524 197.536 119.86 197.675V197.816C120.679 197.91 121.324 198.217 121.794 198.737C122.27 199.257 122.508 199.916 122.508 200.713C122.508 201.742 122.076 202.597 121.213 203.278C120.355 203.958 119.276 204.299 117.976 204.299C116.686 204.299 115.635 203.97 114.821 203.311C114.013 202.653 113.582 201.775 113.526 200.68H115.577C115.621 201.233 115.862 201.676 116.299 202.008C116.736 202.334 117.3 202.498 117.992 202.498C118.678 202.498 119.237 202.32 119.669 201.966C120.106 201.607 120.325 201.145 120.325 200.58C120.325 199.993 120.112 199.531 119.686 199.194C119.259 198.856 118.678 198.688 117.942 198.688H116.44Z" fill="#000"/>
<path fill-rule="evenodd" clip-rule="evenodd" d="M216.84 96.9566L221.832 104.445C222.139 104.905 222.014 105.525 221.555 105.832L214.066 110.824C213.607 111.13 212.986 111.006 212.68 110.547C212.373 110.087 212.497 109.466 212.957 109.16L218.437 105.507L135.804 88.9803L136.196 87.0192L218.829 103.546L215.176 98.066C214.869 97.6065 214.994 96.9856 215.453 96.6793C215.913 96.3729 216.534 96.4971 216.84 96.9566Z" fill="#000"/>
<path fill-rule="evenodd" clip-rule="evenodd" d="M202.84 153.957L207.832 161.445C208.139 161.905 208.014 162.525 207.555 162.832L200.066 167.824C199.607 168.13 198.986 168.006 198.68 167.547C198.373 167.087 198.497 166.466 198.957 166.16L204.437 162.507L121.804 145.98L122.196 144.019L204.829 160.546L201.176 155.066C200.869 154.606 200.994 153.986 201.453 153.679C201.913 153.373 202.534 153.497 202.84 153.957Z" fill="#000"/>
<path fill-rule="evenodd" clip-rule="evenodd" d="M186.84 218.957L191.832 226.445C192.139 226.905 192.014 227.525 191.555 227.832L184.066 232.824C183.607 233.13 182.986 233.006 182.68 232.547C182.373 232.087 182.497 231.466 182.957 231.16L188.437 227.507L105.804 210.98L106.196 209.019L188.829 225.546L185.176 220.066C184.869 219.606 184.994 218.986 185.453 218.679C185.913 218.373 186.534 218.497 186.84 218.957Z" fill="#000"/>
</svg>
