<svg width="345" height="345" viewBox="0 0 345 345" fill="none" xmlns="http://www.w3.org/2000/svg">
<path d="M180.8 89C179.92 95.82 179.7 100.88 179.7 105.5C179.7 110.56 179.7 127.06 179.7 134.76H161C161 126.18 161 110.56 161 105.5C161 100.88 160.78 95.82 159.9 89H180.8ZM255.82 131.68C254.72 134.76 253.4 140.7 252.74 144.88C249.66 162.48 243.28 189.98 230.96 210.88C214.68 239.7 184.32 262.14 144.06 273.14L129.76 256.86C137.02 255.54 145.38 253.34 152.42 250.7C174.64 243.44 198.62 227.16 212.26 206.26C224.14 187.56 230.96 160.94 232.94 142.24H110.18C110.18 151.26 110.18 174.8 110.18 181.62C110.18 185.36 110.4 191.3 110.84 194.6H91.7002C92.3602 190.86 92.5802 184.92 92.5802 180.52C92.5802 173.48 92.5802 149.5 92.5802 141.8C92.5802 137.18 92.5802 129.7 91.7002 125.08C98.0802 125.52 104.68 125.96 112.38 125.96H228.98C237.12 125.96 241.08 125.08 243.94 124.2L255.82 131.68Z" fill="#f00"/>
<path d="M137.426 93V83.1802H137.285L134.305 85.272V83.2134L137.434 81.022H139.567V93H137.426Z" fill="#000"/>
<path d="M135.439 161.688V160.027H136.9C137.509 160.027 138.004 159.861 138.386 159.529C138.768 159.192 138.958 158.755 138.958 158.218C138.958 157.687 138.77 157.263 138.394 156.948C138.023 156.627 137.525 156.466 136.9 156.466C136.28 156.466 135.777 156.63 135.389 156.956C135.007 157.283 134.797 157.728 134.758 158.292H132.758C132.813 157.191 133.217 156.322 133.97 155.686C134.722 155.044 135.721 154.723 136.966 154.723C138.128 154.723 139.094 155.028 139.863 155.636C140.638 156.239 141.025 157 141.025 157.919C141.025 158.622 140.829 159.222 140.436 159.72C140.049 160.218 139.523 160.536 138.859 160.675V160.816C139.678 160.91 140.323 161.217 140.793 161.737C141.269 162.257 141.507 162.916 141.507 163.713C141.507 164.742 141.075 165.597 140.212 166.278C139.354 166.958 138.275 167.299 136.975 167.299C135.685 167.299 134.634 166.97 133.82 166.311C133.012 165.653 132.581 164.775 132.525 163.68H134.576C134.62 164.233 134.861 164.676 135.298 165.008C135.735 165.334 136.299 165.498 136.991 165.498C137.677 165.498 138.236 165.32 138.668 164.966C139.105 164.607 139.324 164.145 139.324 163.58C139.324 162.993 139.111 162.531 138.685 162.194C138.258 161.856 137.677 161.688 136.941 161.688H135.439Z" fill="#000"/>
<path d="M62.2832 129.525C62.2832 128.407 62.6706 127.494 63.4453 126.786C64.2256 126.077 65.23 125.723 66.4585 125.723C67.6427 125.723 68.6167 126.047 69.3804 126.694C70.1496 127.342 70.5342 128.166 70.5342 129.168C70.5342 129.81 70.3405 130.446 69.9531 131.077C69.5658 131.702 68.863 132.519 67.8447 133.526L65.3379 136.041V136.182H70.7168V138H62.3994V136.514L66.3921 132.43C67.2111 131.6 67.7562 130.978 68.0273 130.562C68.2985 130.142 68.4341 129.721 68.4341 129.301C68.4341 128.775 68.2404 128.341 67.853 127.998C67.4712 127.654 66.9842 127.483 66.3921 127.483C65.7668 127.483 65.2604 127.671 64.873 128.047C64.4857 128.424 64.292 128.916 64.292 129.525V129.558H62.2832V129.525Z" fill="#000"/>
<path fill-rule="evenodd" clip-rule="evenodd" d="M84.0714 176.343L77.7074 182.707C77.3169 183.098 76.6837 183.098 76.2932 182.707L69.9292 176.343C69.5387 175.953 69.5387 175.319 69.9292 174.929C70.3198 174.538 70.9529 174.538 71.3434 174.929L76.0003 179.586L76.0003 125L78.0003 125L78.0003 179.586L82.6571 174.929C83.0477 174.538 83.6808 174.538 84.0714 174.929C84.4619 175.319 84.4619 175.953 84.0714 176.343Z" fill="#000"/>
<path fill-rule="evenodd" clip-rule="evenodd" d="M156.071 115.343L149.707 121.707C149.317 122.098 148.684 122.098 148.293 121.707L141.929 115.343C141.539 114.953 141.539 114.319 141.929 113.929C142.32 113.538 142.953 113.538 143.343 113.929L148 118.586L148 79L150 79L150 118.586L154.657 113.929C155.048 113.538 155.681 113.538 156.071 113.929C156.462 114.319 156.462 114.953 156.071 115.343Z" fill="#000"/>
<path fill-rule="evenodd" clip-rule="evenodd" d="M165.568 151C153.63 151 141.181 151 129.5 151V149C141.183 149 153.634 149 165.574 149C188.381 149 209.326 149 219.5 149L220.677 149L220.487 150.162C215.606 179.937 206.404 206.697 181.534 222.61L187.97 224.238C188.506 224.374 188.83 224.917 188.695 225.453C188.559 225.988 188.015 226.312 187.48 226.177L178.755 223.969C178.219 223.834 177.895 223.29 178.031 222.755L180.238 214.03C180.374 213.494 180.917 213.17 181.453 213.305C181.988 213.441 182.312 213.985 182.177 214.52L180.576 220.848C204.294 205.606 213.423 180.107 218.32 151C207.764 151 187.529 151 165.568 151Z" fill="#000"/>
</svg>
