<svg width="345" height="345" viewBox="0 0 345 345" fill="none" xmlns="http://www.w3.org/2000/svg">
<path d="M135.921 245.64C135.921 233.32 135.921 136.08 135.921 117.82C135.921 111.44 135.481 101.76 134.381 94.7202H155.941C155.061 101.54 154.401 111 154.401 117.82C154.401 151.92 154.621 235.3 154.621 245.64C154.621 252.68 155.061 264.56 155.941 271.82H134.601C135.701 264.78 135.921 253.78 135.921 245.64ZM150.441 152.58C179.481 160.94 223.921 177.88 248.341 189.76L240.641 208.46C215.561 195.04 174.421 179.42 150.441 171.94V152.58Z" fill="#f00"/>
<path d="M109.426 106V96.1802H109.285L106.305 98.272V96.2134L109.434 94.022H111.567V106H109.426Z" fill="#000"/>
<path d="M170.283 129.525C170.283 128.407 170.671 127.494 171.445 126.786C172.226 126.077 173.23 125.723 174.458 125.723C175.643 125.723 176.617 126.047 177.38 126.694C178.15 127.342 178.534 128.166 178.534 129.168C178.534 129.81 178.34 130.446 177.953 131.077C177.566 131.702 176.863 132.519 175.845 133.526L173.338 136.041V136.182H178.717V138H170.399V136.514L174.392 132.43C175.211 131.6 175.756 130.978 176.027 130.562C176.299 130.142 176.434 129.721 176.434 129.301C176.434 128.775 176.24 128.341 175.853 127.998C175.471 127.654 174.984 127.483 174.392 127.483C173.767 127.483 173.26 127.671 172.873 128.047C172.486 128.424 172.292 128.916 172.292 129.525V129.558H170.283V129.525Z" fill="#000"/>
<path fill-rule="evenodd" clip-rule="evenodd" d="M128.071 170.343L121.707 176.707C121.317 177.098 120.684 177.098 120.293 176.707L113.929 170.343C113.539 169.953 113.539 169.319 113.929 168.929C114.32 168.538 114.953 168.538 115.343 168.929L120 173.586L120 89L122 89L122 173.586L126.657 168.929C127.048 168.538 127.681 168.538 128.071 168.929C128.462 169.319 128.462 169.953 128.071 170.343Z" fill="#000"/>
<path fill-rule="evenodd" clip-rule="evenodd" d="M215.824 152.52L219.893 160.548C220.142 161.041 219.945 161.642 219.453 161.892L211.425 165.961C210.932 166.211 210.331 166.014 210.081 165.521C209.831 165.028 210.028 164.427 210.521 164.177L216.395 161.2L163.689 143.951L164.312 142.05L217.017 159.299L214.04 153.425C213.79 152.932 213.987 152.33 214.48 152.08C214.972 151.831 215.574 152.028 215.824 152.52Z" fill="#000"/>
</svg>
