<svg width="345" height="345" viewBox="0 0 345 345" fill="none" xmlns="http://www.w3.org/2000/svg">
<path d="M237.78 118.04C236.46 119.8 233.6 124.64 232.5 127.5C223.7 149.28 206.98 180.08 188.72 200.32C164.08 227.82 132.62 254 97.8603 269.84L83.7803 255.1C119.42 241.46 151.76 215.06 174.42 189.98C189.38 173.04 205.44 146.86 211.16 128.6C203.24 128.6 132.84 128.6 125.36 128.6C117.44 128.6 105.56 129.48 103.14 129.7V109.9C106 110.34 118.54 111.22 125.36 111.22C133.94 111.22 201.92 111.22 210.28 111.22C217.32 111.22 223.26 110.56 226.78 109.46L237.78 118.04ZM191.58 188.88C215.34 208.68 244.6 239.48 259.56 257.74L244.38 271.16C228.54 250.26 202.8 222.1 179.04 201.2L191.58 188.88Z" fill="#f00"/>
<path d="M221.283 184.525C221.283 183.407 221.671 182.494 222.445 181.786C223.226 181.077 224.23 180.723 225.458 180.723C226.643 180.723 227.617 181.047 228.38 181.694C229.15 182.342 229.534 183.166 229.534 184.168C229.534 184.81 229.34 185.446 228.953 186.077C228.566 186.702 227.863 187.519 226.845 188.526L224.338 191.041V191.182H229.717V193H221.399V191.514L225.392 187.43C226.211 186.6 226.756 185.978 227.027 185.562C227.299 185.142 227.434 184.721 227.434 184.301C227.434 183.775 227.24 183.341 226.853 182.998C226.471 182.654 225.984 182.483 225.392 182.483C224.767 182.483 224.26 182.671 223.873 183.047C223.486 183.424 223.292 183.916 223.292 184.525V184.558H221.283V184.525Z" fill="#000"/>
<path d="M179.426 91V81.1802H179.285L176.305 83.272V81.2134L179.434 79.022H181.567V91H179.426Z" fill="#000"/>
<path fill-rule="evenodd" clip-rule="evenodd" d="M237.5 98.5002C224 98.5 190.985 98.5 165 98.5V96.5C190.985 96.5 224 96.5 237.5 96.5002C244.278 96.5002 248.771 99.0614 251.163 103.369C253.507 107.592 253.712 113.285 252.456 119.353C250.083 130.826 242.374 144.226 232.425 153.191L239.054 153.826C239.604 153.879 240.007 154.367 239.954 154.917C239.902 155.467 239.413 155.87 238.863 155.817L229.905 154.958C229.355 154.905 228.952 154.417 229.005 153.867L229.864 144.908C229.916 144.358 230.405 143.955 230.955 144.008C231.504 144.061 231.907 144.549 231.855 145.099L231.234 151.571C240.805 142.884 248.226 129.933 250.498 118.948C251.709 113.094 251.425 107.962 249.414 104.34C247.45 100.803 243.722 98.5002 237.5 98.5002Z" fill="#000"/>
<path fill-rule="evenodd" clip-rule="evenodd" d="M252.786 221.979L253 230.976C253.013 231.528 252.576 231.987 252.024 232L243.027 232.214C242.475 232.227 242.016 231.79 242.003 231.238C241.99 230.686 242.427 230.228 242.979 230.214L249.563 230.058L208.31 190.724L209.69 189.276L250.943 228.61L250.786 222.026C250.773 221.474 251.21 221.016 251.762 221.003C252.314 220.99 252.773 221.427 252.786 221.979Z" fill="#000"/>
</svg>
