<svg width="345" height="345" viewBox="0 0 345 345" fill="none" xmlns="http://www.w3.org/2000/svg">
<path d="M185.42 92.52C184.98 95.6 184.1 103.52 184.1 108.36C184.1 120.02 184.1 138.5 184.1 149.06C184.1 167.1 184.1 238.38 184.1 254C184.1 265.66 178.6 271.6 165.4 271.6C155.94 271.6 142.96 270.94 133.94 270.06L132.4 252.46C142.08 254.22 151.98 255.1 157.92 255.1C163.86 255.1 166.28 252.46 166.5 246.74C166.5 234.64 166.5 159.62 166.5 149.06C166.5 141.58 166.5 119.8 166.5 108.14C166.5 103.52 165.62 95.82 164.96 92.52H185.42ZM86.6403 129.7C92.8003 130.36 98.3003 130.8 105.34 130.8C118.32 130.8 229.42 130.8 242.4 130.8C247.46 130.8 254.94 130.58 260.22 129.7V147.96C254.5 147.52 247.9 147.52 242.62 147.52C229.42 147.52 118.76 147.52 105.34 147.52C98.7403 147.52 92.3603 147.74 86.6403 148.18V129.7ZM137.24 181.4C127.78 200.32 107.32 228.26 94.7803 241.9L79.8203 231.56C94.3403 217.92 113.26 191.74 121.84 173.92L137.24 181.4ZM229.2 174.14C240.86 188.22 258.46 215.72 267.26 231.56L250.98 240.58C242.18 223.42 225.68 195.92 214.24 182.06L229.2 174.14Z" fill="#f00"/>
<path d="M96.4399 167.688V166.027H97.9009C98.5096 166.027 99.0049 165.861 99.3867 165.529C99.7686 165.192 99.9595 164.755 99.9595 164.218C99.9595 163.687 99.7713 163.263 99.395 162.948C99.0243 162.627 98.5262 162.466 97.9009 162.466C97.2811 162.466 96.7775 162.63 96.3901 162.956C96.0083 163.283 95.798 163.728 95.7593 164.292H93.7588C93.8141 163.191 94.2181 162.322 94.9707 161.686C95.7233 161.044 96.7222 160.723 97.9673 160.723C99.1294 160.723 100.095 161.028 100.864 161.636C101.639 162.239 102.026 163 102.026 163.919C102.026 164.622 101.83 165.222 101.437 165.72C101.05 166.218 100.524 166.536 99.8599 166.675V166.816C100.679 166.91 101.324 167.217 101.794 167.737C102.27 168.257 102.508 168.916 102.508 169.713C102.508 170.742 102.076 171.597 101.213 172.278C100.355 172.958 99.276 173.299 97.9756 173.299C96.6862 173.299 95.6348 172.97 94.8213 172.311C94.0133 171.653 93.5817 170.775 93.5264 169.68H95.5767C95.6209 170.233 95.8617 170.676 96.2988 171.008C96.736 171.334 97.3005 171.498 97.9922 171.498C98.6784 171.498 99.2373 171.32 99.6689 170.966C100.106 170.607 100.325 170.145 100.325 169.58C100.325 168.993 100.112 168.531 99.6855 168.194C99.2594 167.856 98.6784 167.688 97.9424 167.688H96.4399Z" fill="#000"/>
<path d="M254.087 173V170.767H248.235V168.858C249.209 167.065 250.836 164.453 253.116 161.022H256.138V168.958H257.756V170.767H256.138V173H254.087ZM250.219 168.883V169.007H254.121V162.765H254.004C252.709 164.68 251.448 166.719 250.219 168.883Z" fill="#000"/>
<path d="M98.4258 115V105.18H98.2847L95.3047 107.272V105.213L98.4341 103.022H100.567V115H98.4258Z" fill="#000"/>
<path d="M202.283 82.5249C202.283 81.4071 202.671 80.494 203.445 79.7856C204.226 79.0773 205.23 78.7231 206.458 78.7231C207.643 78.7231 208.617 79.0469 209.38 79.6943C210.15 80.3418 210.534 81.1663 210.534 82.168C210.534 82.8099 210.34 83.4463 209.953 84.0771C209.566 84.7025 208.863 85.5187 207.845 86.5259L205.338 89.041V89.1821H210.717V91H202.399V89.5142L206.392 85.4302C207.211 84.6001 207.756 83.9775 208.027 83.5625C208.299 83.1419 208.434 82.7214 208.434 82.3008C208.434 81.7751 208.24 81.3407 207.853 80.9976C207.471 80.6545 206.984 80.4829 206.392 80.4829C205.767 80.4829 205.26 80.6711 204.873 81.0474C204.486 81.4237 204.292 81.9162 204.292 82.5249V82.5581H202.283V82.5249Z" fill="#000"/>
<path fill-rule="evenodd" clip-rule="evenodd" d="M142.343 112.929L148.707 119.293C149.098 119.684 149.098 120.317 148.707 120.707L142.343 127.071C141.953 127.462 141.319 127.462 140.929 127.071C140.538 126.681 140.538 126.048 140.929 125.657L145.586 121L92 121L92 119L145.586 119L140.929 114.343C140.538 113.953 140.538 113.32 140.929 112.929C141.319 112.539 141.953 112.539 142.343 112.929Z" fill="#000"/>
<path fill-rule="evenodd" clip-rule="evenodd" d="M88.0455 215.236L79.1561 216.642C78.6106 216.728 78.0985 216.356 78.0121 215.811L76.6056 206.921C76.5193 206.376 76.8915 205.864 77.437 205.777C77.9825 205.691 78.4947 206.063 78.581 206.609L79.6103 213.114L109.191 172.412L110.809 173.588L81.2281 214.289L87.733 213.26C88.2785 213.174 88.7907 213.546 88.877 214.092C88.9633 214.637 88.591 215.149 88.0455 215.236Z" fill="#000"/>
<path fill-rule="evenodd" clip-rule="evenodd" d="M269.594 201.324L267.984 210.179C267.885 210.722 267.365 211.083 266.821 210.984L257.966 209.374C257.423 209.275 257.063 208.755 257.161 208.211C257.26 207.668 257.781 207.308 258.324 207.406L264.804 208.584L239.178 171.569L240.822 170.431L266.448 207.446L267.626 200.967C267.725 200.423 268.246 200.063 268.789 200.162C269.332 200.26 269.693 200.781 269.594 201.324Z" fill="#000"/>
<path fill-rule="evenodd" clip-rule="evenodd" d="M203.071 118.343L196.707 124.707C196.317 125.098 195.684 125.098 195.293 124.707L188.929 118.343C188.539 117.953 188.539 117.319 188.929 116.929C189.32 116.538 189.953 116.538 190.343 116.929L195 121.586L195 79L197 79L197 121.586L201.657 116.929C202.048 116.538 202.681 116.538 203.071 116.929C203.462 117.319 203.462 117.953 203.071 118.343Z" fill="#000"/>
</svg>
