<svg width="345" height="345" viewBox="0 0 345 345" fill="none" xmlns="http://www.w3.org/2000/svg">
<path d="M234.259 123.76C233.379 125.96 232.719 129.26 232.499 131.02C230.079 153.24 219.739 219.02 216.659 238.38H196.859C200.599 219.24 211.159 152.36 211.599 136.08C192.459 136.08 135.479 136.08 125.139 136.08C116.779 136.08 110.839 136.3 104.019 136.96V117.38C110.619 118.04 117.659 118.7 124.919 118.7C135.259 118.7 190.479 118.7 205.879 118.7C210.279 118.7 217.099 117.82 219.519 116.72L234.259 123.76ZM79.3789 232.44C85.7589 233.54 92.5789 233.76 98.7389 233.76H247.019C253.839 233.76 259.779 233.1 265.499 232.44V252.68C259.559 251.8 251.639 251.58 247.019 251.58H98.7389C92.5789 251.58 85.9789 252.02 79.3789 252.68V232.44Z" fill="#f00"/>
<path d="M172.424 98V88.1802H172.283L169.303 90.272V88.2134L172.432 86.022H174.565V98H172.424Z" fill="#000"/>
<path d="M85.2812 206.525C85.2812 205.407 85.6686 204.494 86.4434 203.786C87.2236 203.077 88.228 202.723 89.4565 202.723C90.6408 202.723 91.6147 203.047 92.3784 203.694C93.1476 204.342 93.5322 205.166 93.5322 206.168C93.5322 206.81 93.3385 207.446 92.9512 208.077C92.5638 208.702 91.861 209.519 90.8428 210.526L88.3359 213.041V213.182H93.7148V215H85.3975V213.514L89.3901 209.43C90.2091 208.6 90.7542 207.978 91.0254 207.562C91.2965 207.142 91.4321 206.721 91.4321 206.301C91.4321 205.775 91.2384 205.341 90.8511 204.998C90.4692 204.654 89.9823 204.483 89.3901 204.483C88.7648 204.483 88.2585 204.671 87.8711 205.047C87.4837 205.424 87.29 205.916 87.29 206.525V206.558H85.2812V206.525Z" fill="#000"/>
<path fill-rule="evenodd" clip-rule="evenodd" d="M248.339 108H163.998V106H250.657L237.84 192.758L243.128 188.832C243.571 188.502 244.197 188.595 244.527 189.038C244.856 189.482 244.763 190.108 244.32 190.437L237.094 195.803C236.651 196.132 236.024 196.04 235.695 195.596L230.33 188.371C230 187.927 230.093 187.301 230.536 186.971C230.98 186.642 231.606 186.735 231.935 187.178L235.862 192.466L248.339 108Z" fill="#000"/>
<path fill-rule="evenodd" clip-rule="evenodd" d="M130.341 215.929L136.705 222.293C137.096 222.683 137.096 223.316 136.705 223.707L130.341 230.071C129.951 230.461 129.318 230.461 128.927 230.071C128.536 229.68 128.536 229.047 128.927 228.657L133.584 224L79.998 224L79.998 222L133.584 222L128.927 217.343C128.536 216.952 128.536 216.319 128.927 215.929C129.318 215.538 129.951 215.538 130.341 215.929Z" fill="#000"/>
</svg>
