<svg width="345" height="345" viewBox="0 0 345 345" fill="none" xmlns="http://www.w3.org/2000/svg">
<path d="M206.98 92.96C206.1 98.9 205.66 105.28 205.88 111.22C206.1 135.64 207.64 212.42 207.86 253.56C208.08 265.22 201.04 271.38 187.84 271.38C176.62 271.38 163.64 270.72 152.64 270.06L151.1 251.8C161.66 253.56 173.98 254.44 182.34 254.44C188.5 254.44 190.48 251.58 190.48 245.64C190.48 214.18 189.6 135.64 188.5 111.22C188.06 102.86 187.62 97.58 186.74 92.96H206.98ZM88.8399 131.46C95.2199 132.12 102.48 132.56 109.08 132.56C120.74 132.56 229.64 132.56 240.86 132.56C246.58 132.56 255.16 131.9 259.56 131.24V149.94C254.28 149.72 246.8 149.28 241.3 149.28C231.62 149.28 119.42 149.28 109.52 149.28C102.04 149.28 95.8799 149.72 88.8399 150.16V131.46ZM80.9199 234.2C127.34 211.32 168.04 172.82 184.32 145.98H193.12L193.34 160.72C176.62 186.9 135.7 226.06 93.4599 248.5L80.9199 234.2Z" fill="#f00"/>
<path d="M224.283 85.5249C224.283 84.4071 224.671 83.494 225.445 82.7856C226.226 82.0773 227.23 81.7231 228.458 81.7231C229.643 81.7231 230.617 82.0469 231.38 82.6943C232.15 83.3418 232.534 84.1663 232.534 85.168C232.534 85.8099 232.34 86.4463 231.953 87.0771C231.566 87.7025 230.863 88.5187 229.845 89.5259L227.338 92.041V92.1821H232.717V94H224.399V92.5142L228.392 88.4302C229.211 87.6001 229.756 86.9775 230.027 86.5625C230.299 86.1419 230.434 85.7214 230.434 85.3008C230.434 84.7751 230.24 84.3407 229.853 83.9976C229.471 83.6545 228.984 83.4829 228.392 83.4829C227.767 83.4829 227.26 83.6711 226.873 84.0474C226.486 84.4237 226.292 84.9162 226.292 85.5249V85.5581H224.283V85.5249Z" fill="#000"/>
<path d="M137.439 162.688V161.027H138.9C139.509 161.027 140.004 160.861 140.386 160.529C140.768 160.192 140.958 159.755 140.958 159.218C140.958 158.687 140.77 158.263 140.394 157.948C140.023 157.627 139.525 157.466 138.9 157.466C138.28 157.466 137.777 157.63 137.389 157.956C137.007 158.283 136.797 158.728 136.758 159.292H134.758C134.813 158.191 135.217 157.322 135.97 156.686C136.722 156.044 137.721 155.723 138.966 155.723C140.128 155.723 141.094 156.028 141.863 156.636C142.638 157.239 143.025 158 143.025 158.919C143.025 159.622 142.829 160.222 142.436 160.72C142.049 161.218 141.523 161.536 140.859 161.675V161.816C141.678 161.91 142.323 162.217 142.793 162.737C143.269 163.257 143.507 163.916 143.507 164.713C143.507 165.742 143.075 166.597 142.212 167.278C141.354 167.958 140.275 168.299 138.975 168.299C137.685 168.299 136.634 167.97 135.82 167.311C135.012 166.653 134.581 165.775 134.525 164.68H136.576C136.62 165.233 136.861 165.676 137.298 166.008C137.735 166.334 138.299 166.498 138.991 166.498C139.677 166.498 140.236 166.32 140.668 165.966C141.105 165.607 141.324 165.145 141.324 164.58C141.324 163.993 141.111 163.531 140.685 163.194C140.258 162.856 139.677 162.688 138.941 162.688H137.439Z" fill="#000"/>
<path d="M102.425 116V106.18H102.284L99.3037 108.272V106.213L102.433 104.022H104.566V116H102.425Z" fill="#000"/>
<path fill-rule="evenodd" clip-rule="evenodd" d="M166.343 113.929L172.707 120.293C173.098 120.684 173.098 121.317 172.707 121.707L166.343 128.071C165.953 128.462 165.319 128.462 164.929 128.071C164.538 127.681 164.538 127.048 164.929 126.657L169.586 122L96 122L96 120L169.586 120L164.929 115.343C164.538 114.953 164.538 114.32 164.929 113.929C165.319 113.539 165.953 113.539 166.343 113.929Z" fill="#000"/>
<path fill-rule="evenodd" clip-rule="evenodd" d="M225.071 119.343L218.707 125.707C218.317 126.098 217.684 126.098 217.293 125.707L210.929 119.343C210.539 118.953 210.539 118.319 210.929 117.929C211.32 117.538 211.953 117.538 212.343 117.929L217 122.586L217 83L219 83L219 122.586L223.657 117.929C224.048 117.538 224.681 117.538 225.071 117.929C225.462 118.319 225.462 118.953 225.071 119.343Z" fill="#000"/>
<path fill-rule="evenodd" clip-rule="evenodd" d="M88.6468 214.955C121.344 196.827 143.18 176.848 160.248 157.341L161.753 158.658C144.552 178.316 122.533 198.46 89.5861 216.721L95.9151 218.589C96.4448 218.746 96.7474 219.302 96.591 219.831C96.4346 220.361 95.8785 220.664 95.3488 220.507L86.7171 217.959C86.1874 217.803 85.8848 217.246 86.0412 216.717L88.5896 208.085C88.746 207.555 89.3021 207.253 89.8318 207.409C90.3615 207.565 90.6641 208.122 90.5077 208.651L88.6468 214.955Z" fill="#000"/>
</svg>
