<svg width="345" height="345" viewBox="0 0 345 345" fill="none" xmlns="http://www.w3.org/2000/svg">
<path d="M110.84 258.18C112.38 254.66 112.82 251.58 112.82 247.4C112.82 233.54 112.82 142.46 112.82 121.56C112.82 115.62 111.94 105.72 111.06 101.54H132.62C131.96 106.82 131.08 115.18 131.08 121.34C131.08 142.24 131.08 235.08 131.08 246.3C173.32 235.52 224.14 206.7 251.64 171.28L261.54 186.68C232.94 222.1 187.62 249.16 132.62 265.22C130.42 265.88 126.9 266.98 123.38 268.96L110.84 258.18Z" fill="#f00"/>
<path d="M89.4258 204V194.18H89.2847L86.3047 196.272V194.213L89.4341 192.022H91.5674V204H89.4258Z" fill="#000"/>
<path fill-rule="evenodd" clip-rule="evenodd" d="M102 266.5C102 253 102 219.985 102 194L100 194C100 219.985 100 253 100 266.5C100 273.266 102.432 277.802 106.819 280.342C111.111 282.827 117.082 283.283 123.936 282.43C137.095 280.793 154.17 274.24 170.757 266.434L168.562 272.654C168.378 273.175 168.651 273.746 169.172 273.93C169.693 274.114 170.264 273.841 170.448 273.32L173.443 264.833C173.627 264.312 173.354 263.741 172.833 263.557L164.346 260.562C163.825 260.378 163.254 260.651 163.07 261.172C162.886 261.693 163.159 262.264 163.68 262.448L169.88 264.636C153.336 272.42 136.513 278.85 123.689 280.445C116.981 281.28 111.545 280.767 107.822 278.611C104.194 276.511 102 272.734 102 266.5Z" fill="#000"/>
</svg>
