<svg width="345" height="345" viewBox="0 0 345 345" fill="none" xmlns="http://www.w3.org/2000/svg">
<path d="M98.5204 112.1C115.02 112.98 148.46 112.1 172.44 108.8C192.46 106.16 218.2 100.88 228.98 96.04L240.64 111.44C235.8 112.76 231.62 113.86 228.32 114.74C215.56 117.82 195.1 121.78 177.5 124.2C152.86 127.5 122.5 128.16 102.92 128.6L98.5204 112.1ZM110.84 262.14C148.24 244.54 166.94 217.04 166.94 171.72C166.94 171.72 166.94 151.92 166.94 121.78L184.54 119.36C184.54 136.52 184.54 171.28 184.54 171.28C184.54 218.14 169.14 250.48 128 274.02L110.84 262.14ZM81.3604 164.46C86.2004 164.9 93.9004 165.56 100.72 165.56C114.8 165.56 231.84 165.56 245.48 165.56C250.1 165.56 258.24 165.12 262.86 164.68V182.72C258.02 182.28 251.2 182.06 245.7 182.06C232.5 182.06 114.58 182.06 100.94 182.06C93.9004 182.06 86.6404 182.28 81.3604 182.72V164.46Z" fill="#f00"/>
<path d="M202.426 80V70.1802H202.285L199.305 72.272V70.2134L202.434 68.022H204.567V80H202.426Z" fill="#000"/>
<path d="M202.439 198.688V197.027H203.9C204.509 197.027 205.004 196.861 205.386 196.529C205.768 196.192 205.958 195.755 205.958 195.218C205.958 194.687 205.77 194.263 205.394 193.948C205.023 193.627 204.525 193.466 203.9 193.466C203.28 193.466 202.777 193.63 202.389 193.956C202.007 194.283 201.797 194.728 201.758 195.292H199.758C199.813 194.191 200.217 193.322 200.97 192.686C201.722 192.044 202.721 191.723 203.966 191.723C205.128 191.723 206.094 192.028 206.863 192.636C207.638 193.239 208.025 194 208.025 194.919C208.025 195.622 207.829 196.222 207.436 196.72C207.049 197.218 206.523 197.536 205.859 197.675V197.816C206.678 197.91 207.323 198.217 207.793 198.737C208.269 199.257 208.507 199.916 208.507 200.713C208.507 201.742 208.075 202.597 207.212 203.278C206.354 203.958 205.275 204.299 203.975 204.299C202.685 204.299 201.634 203.97 200.82 203.311C200.012 202.653 199.581 201.775 199.525 200.68H201.576C201.62 201.233 201.861 201.676 202.298 202.008C202.735 202.334 203.299 202.498 203.991 202.498C204.677 202.498 205.236 202.32 205.668 201.966C206.105 201.607 206.324 201.145 206.324 200.58C206.324 199.993 206.111 199.531 205.685 199.194C205.258 198.856 204.677 198.688 203.941 198.688H202.439Z" fill="#000"/>
<path d="M78.2832 141.525C78.2832 140.407 78.6706 139.494 79.4453 138.786C80.2256 138.077 81.23 137.723 82.4585 137.723C83.6427 137.723 84.6167 138.047 85.3804 138.694C86.1496 139.342 86.5342 140.166 86.5342 141.168C86.5342 141.81 86.3405 142.446 85.9531 143.077C85.5658 143.702 84.863 144.519 83.8447 145.526L81.3379 148.041V148.182H86.7168V150H78.3994V148.514L82.3921 144.43C83.2111 143.6 83.7562 142.978 84.0273 142.562C84.2985 142.142 84.4341 141.721 84.4341 141.301C84.4341 140.775 84.2404 140.341 83.853 139.998C83.4712 139.654 82.9842 139.483 82.3921 139.483C81.7668 139.483 81.2604 139.671 80.873 140.047C80.4857 140.424 80.292 140.916 80.292 141.525V141.558H78.2832V141.525Z" fill="#000"/>
<path fill-rule="evenodd" clip-rule="evenodd" d="M147.343 147.929L153.707 154.293C154.098 154.684 154.098 155.317 153.707 155.707L147.343 162.071C146.953 162.462 146.319 162.462 145.929 162.071C145.538 161.681 145.538 161.048 145.929 160.657L150.586 156L73 156L73 154L150.586 154L145.929 149.343C145.538 148.953 145.538 148.32 145.929 147.929C146.319 147.539 146.953 147.539 147.343 147.929Z" fill="#000"/>
<path fill-rule="evenodd" clip-rule="evenodd" d="M106.421 100.493C143.83 100.285 186.891 95.2585 214.12 84.0752L214.88 85.9252C187.29 97.2566 143.912 102.287 106.408 102.494L111.071 107.157C111.462 107.548 111.462 108.181 111.071 108.571C110.681 108.962 110.047 108.962 109.657 108.571L103.293 102.207C102.902 101.817 102.902 101.184 103.293 100.793L109.657 94.4291C110.047 94.0386 110.681 94.0386 111.071 94.4291C111.462 94.8197 111.462 95.4528 111.071 95.8434L106.421 100.493Z" fill="#000"/>
<path fill-rule="evenodd" clip-rule="evenodd" d="M184.518 233.046C189.644 221.003 191.757 207.629 193.507 192.386L195.494 192.614C193.743 207.871 191.607 221.498 186.358 233.829C181.339 245.621 173.493 256.188 160.509 265.905L167.042 266.993C167.587 267.084 167.955 267.599 167.864 268.144C167.773 268.689 167.258 269.057 166.713 268.966L157.836 267.487C157.291 267.396 156.923 266.881 157.014 266.336L158.493 257.458C158.584 256.914 159.099 256.546 159.644 256.636C160.189 256.727 160.557 257.242 160.466 257.787L159.39 264.244C172.055 254.748 179.652 244.476 184.518 233.046Z" fill="#000"/>
</svg>
