<svg width="345" height="345" viewBox="0 0 345 345" fill="none" xmlns="http://www.w3.org/2000/svg">
<path d="M255.42 161.54C250.38 155.96 242.64 149.12 235.98 144.44L245.88 136.88C250.74 140.3 260.46 148.4 265.5 153.8L255.42 161.54ZM212.04 150.2C213.48 153.08 215.28 156.32 216.54 158.84C221.58 168.2 230.94 187.1 236.7 200.6C244.62 218.6 253.44 245.6 258.48 261.26L244.26 265.04C239.76 247.94 232.2 224.54 224.46 206C217.8 190.7 209.88 173.96 205.02 166.04C203.4 163.34 200.52 158.84 197.82 155.96L212.04 150.2ZM182.34 193.04C187.74 191.78 192.6 190.16 195.12 189.08C215.28 181.16 255.6 160.1 278.46 160.1C302.4 160.1 313.02 173.96 313.02 189.08C313.02 207.8 302.04 220.4 277.02 220.4C268.92 220.4 259.92 217.88 254.88 215.9L255.42 202.58C261 205.28 269.1 207.62 276.48 207.62C293.76 207.62 299.7 198.8 299.7 189.08C299.7 181.52 294.3 172.52 278.1 172.52C254.34 172.52 205.2 199.88 189.36 207.08L182.34 193.04Z" fill="#f00"/>
<path d="M63.2002 110.78C62.3002 116.72 61.7602 123.02 61.4002 128.96C60.6802 149.3 59.2402 191.96 59.2402 218.78C59.2402 238.58 71.6602 245.42 88.7602 245.42C121.7 245.42 140.42 227.06 153.38 208.34L163.46 220.58C151.22 237.68 127.82 260.18 88.4002 260.18C62.4802 260.18 44.6602 249.56 44.6602 220.04C44.6602 193.4 46.4602 147.86 46.4602 128.96C46.4602 122.3 45.9202 116 44.8402 110.78H63.2002Z" fill="#f00"/>
<path d="M19.1211 122V112.18H18.98L16 114.272V112.213L19.1294 110.022H21.2627V122H19.1211Z" fill="#000"/>
<path fill-rule="evenodd" clip-rule="evenodd" d="M40.7667 187.343L34.4027 193.707C34.0122 194.098 33.379 194.098 32.9885 193.707L26.6245 187.343C26.234 186.953 26.234 186.319 26.6245 185.929C27.0151 185.538 27.6482 185.538 28.0388 185.929L32.6956 190.586L32.6956 109L34.6956 109L34.6956 190.586L39.3525 185.929C39.743 185.538 40.3761 185.538 40.7667 185.929C41.1572 186.319 41.1572 186.953 40.7667 187.343Z" fill="#000"/>
<path d="M179.121 180.978V171.158H178.98L176 173.25V171.191L179.129 169H181.263V180.978H179.121Z" fill="#000"/>
<path d="M251.294 111.802C251.294 110.684 251.681 109.771 252.456 109.062C253.236 108.354 254.241 108 255.469 108C256.653 108 257.627 108.324 258.391 108.971C259.16 109.619 259.545 110.443 259.545 111.445C259.545 112.087 259.351 112.723 258.964 113.354C258.576 113.979 257.874 114.796 256.855 115.803L254.349 118.318V118.459H259.728V120.277H251.41V118.791L255.403 114.707C256.222 113.877 256.767 113.254 257.038 112.839C257.309 112.419 257.445 111.998 257.445 111.578C257.445 111.052 257.251 110.618 256.864 110.274C256.482 109.931 255.995 109.76 255.403 109.76C254.778 109.76 254.271 109.948 253.884 110.324C253.496 110.701 253.303 111.193 253.303 111.802V111.835H251.294V111.802Z" fill="#000"/>
<path d="M223.914 132.964V131.304H225.375C225.983 131.304 226.479 131.138 226.86 130.806C227.242 130.469 227.433 130.031 227.433 129.495C227.433 128.963 227.245 128.54 226.869 128.225C226.498 127.904 226 127.743 225.375 127.743C224.755 127.743 224.251 127.906 223.864 128.233C223.482 128.559 223.272 129.005 223.233 129.569H221.232C221.288 128.468 221.692 127.599 222.444 126.963C223.197 126.321 224.196 126 225.441 126C226.603 126 227.569 126.304 228.338 126.913C229.113 127.516 229.5 128.277 229.5 129.196C229.5 129.899 229.304 130.499 228.911 130.997C228.523 131.495 227.998 131.813 227.333 131.952V132.093C228.153 132.187 228.797 132.494 229.268 133.014C229.743 133.534 229.981 134.193 229.981 134.99C229.981 136.019 229.55 136.874 228.687 137.555C227.829 138.235 226.75 138.576 225.449 138.576C224.16 138.576 223.108 138.246 222.295 137.588C221.487 136.929 221.055 136.052 221 134.957H223.05C223.095 135.51 223.335 135.953 223.772 136.285C224.21 136.611 224.774 136.774 225.466 136.774C226.152 136.774 226.711 136.597 227.143 136.243C227.58 135.883 227.798 135.421 227.798 134.857C227.798 134.27 227.585 133.808 227.159 133.471C226.733 133.133 226.152 132.964 225.416 132.964H223.914Z" fill="#000"/>
<path fill-rule="evenodd" clip-rule="evenodd" d="M276.879 140.218L277.213 149.212C277.233 149.764 276.802 150.228 276.25 150.248L267.257 150.582C266.705 150.602 266.241 150.171 266.22 149.62C266.2 149.068 266.631 148.604 267.183 148.583L273.764 148.339L244.33 121.01L245.691 119.544L275.125 146.874L274.881 140.292C274.86 139.74 275.291 139.276 275.843 139.256C276.395 139.236 276.859 139.666 276.879 140.218Z" fill="#000"/>
<path fill-rule="evenodd" clip-rule="evenodd" d="M196.945 170.862L205.356 174.065C205.872 174.262 206.131 174.84 205.934 175.356L202.73 183.766C202.533 184.282 201.956 184.541 201.44 184.345C200.924 184.148 200.665 183.57 200.861 183.054L203.206 176.9L176.409 188.912L175.591 187.087L202.388 175.075L196.233 172.73C195.717 172.534 195.458 171.956 195.655 171.44C195.851 170.924 196.429 170.665 196.945 170.862Z" fill="#000"/>
<path fill-rule="evenodd" clip-rule="evenodd" d="M236.689 159.73L233.953 168.304C233.785 168.83 233.222 169.121 232.696 168.953L224.122 166.216C223.596 166.048 223.306 165.486 223.474 164.96C223.642 164.433 224.204 164.143 224.73 164.311L231.004 166.313L216.112 137.459L217.889 136.541L232.782 165.396L234.784 159.122C234.952 158.596 235.514 158.305 236.041 158.473C236.567 158.641 236.857 159.204 236.689 159.73Z" fill="#000"/>
</svg>
