<svg width="345" height="345" viewBox="0 0 345 345" fill="none" xmlns="http://www.w3.org/2000/svg">
<path d="M223.92 148.94C223.2 151.1 222.48 153.98 221.94 156.32C219.78 165.86 216.9 187.1 217.44 198.8C227.88 173.42 253.44 157.76 278.1 157.76C308.16 157.76 323.46 175.76 323.46 197.9C323.46 222.2 309.06 242.72 276.84 242.72C259.38 242.72 243.18 233.36 234.72 215.9L242.28 205.64C249.3 220.4 260.46 229.58 276.84 229.58C299.7 229.58 310.5 216.44 310.5 198.26C310.5 182.78 301.14 169.64 277.74 169.64C246.42 169.64 225.54 194.12 221.04 215.72C220.32 218.24 219.78 221.3 219.96 224.72C220.14 227.96 221.22 235.52 222.12 239.3L210.06 240.92C207.18 231.92 204.84 216.98 204.84 202.76C204.84 185.3 207.72 163.34 208.8 155.24C208.98 152.36 209.16 149.84 208.98 147.86L223.92 148.94ZM276.12 140.3C278.28 150.74 281.16 171.98 281.16 193.4C281.16 224.54 273.96 250.82 250.2 266.3L237.96 258.74C261.9 245.42 268.56 221.3 268.56 192.5C268.56 171.44 266.22 157.04 264.6 149.12C263.88 146.06 262.98 143.18 262.08 140.66L276.12 140.3Z" fill="#f00"/>
<path d="M131.879 107C136.199 112.94 142.859 123.92 146.639 131.84L137.279 136.34C133.319 127.52 128.279 118.34 122.879 110.78L131.879 107ZM150.779 99.6201C155.279 105.56 162.119 116.54 166.259 124.28L157.079 128.78C152.759 120.14 147.539 111.32 141.959 103.94L150.779 99.6201ZM20.4591 128.24C45.4791 131.3 69.0591 131.66 87.5991 130.04C102.359 128.6 115.859 125.72 126.119 122.3L128.099 135.26C118.199 138.14 105.059 140.84 90.6591 142.28C72.2991 143.9 47.0991 143.9 21.3591 141.56L20.4591 128.24ZM17.0391 165.32C47.6391 168.38 78.4191 168.02 99.2991 165.5C116.399 163.52 131.159 159.92 140.699 157.04L142.859 170.54C132.959 173.24 119.279 175.76 104.339 177.74C82.0191 180.44 48.7191 180.98 17.7591 178.64L17.0391 165.32ZM78.4191 125.9C76.9791 120.68 75.3591 115.1 73.5591 109.88L88.8591 108.08C90.6591 123.02 96.0591 141.2 100.559 153.98C105.419 168.02 113.519 185.3 122.879 199.16C124.679 202.04 127.019 204.56 129.539 206.9L121.979 217.88C111.899 215.36 95.1591 213.56 82.7391 212.3L83.9991 201.32C93.5391 202.4 105.239 203.66 110.999 204.2C100.919 188.72 93.3591 171.44 88.1391 156.86C83.6391 144.62 80.9391 134.9 78.4191 125.9ZM43.1391 204.02C38.8191 210.14 35.5791 216.44 35.5791 224.36C35.5791 239.12 48.8991 246.68 77.1591 246.68C93.8991 246.68 107.039 245.42 119.999 242.9L119.459 257.12C106.859 259.28 92.6391 260.36 77.3391 260.36C42.0591 260.36 22.2591 249.92 22.0791 226.7C21.8991 216.44 25.1391 208.88 29.0991 200.96L43.1391 204.02Z" fill="#f00"/>
<path d="M21.4258 113.978V104.158H21.2847L18.3047 106.25V104.191L21.4341 102H23.5674V113.978H21.4258Z" fill="#000"/>
<path d="M6 142.802C6 141.684 6.38737 140.771 7.16211 140.062C7.94238 139.354 8.94678 139 10.1753 139C11.3595 139 12.3335 139.324 13.0972 139.971C13.8664 140.619 14.251 141.443 14.251 142.445C14.251 143.087 14.0573 143.723 13.6699 144.354C13.2826 144.979 12.5798 145.796 11.5615 146.803L9.05469 149.318V149.459H14.4336V151.277H6.11621V149.791L10.1089 145.707C10.9279 144.877 11.473 144.254 11.7441 143.839C12.0153 143.419 12.1509 142.998 12.1509 142.578C12.1509 142.052 11.9572 141.618 11.5698 141.274C11.188 140.931 10.701 140.76 10.1089 140.76C9.48356 140.76 8.97721 140.948 8.58984 141.324C8.20247 141.701 8.00879 142.193 8.00879 142.802V142.835H6V142.802Z" fill="#000"/>
<path d="M104.914 88.9644V87.3042H106.375C106.983 87.3042 107.479 87.1382 107.86 86.8062C108.242 86.4686 108.433 86.0314 108.433 85.4946C108.433 84.9634 108.245 84.54 107.869 84.2246C107.498 83.9036 107 83.7432 106.375 83.7432C105.755 83.7432 105.251 83.9064 104.864 84.2329C104.482 84.5594 104.272 85.0049 104.233 85.5693H102.232C102.288 84.4681 102.692 83.5993 103.444 82.9629C104.197 82.321 105.196 82 106.441 82C107.603 82 108.569 82.3044 109.338 82.9131C110.113 83.5163 110.5 84.2772 110.5 85.1958C110.5 85.8986 110.304 86.499 109.911 86.9971C109.523 87.4951 108.998 87.8133 108.333 87.9517V88.0928C109.153 88.1868 109.797 88.494 110.268 89.0142C110.743 89.5343 110.981 90.1929 110.981 90.9897C110.981 92.019 110.55 92.874 109.687 93.5547C108.829 94.2354 107.75 94.5757 106.449 94.5757C105.16 94.5757 104.108 94.2464 103.295 93.5879C102.487 92.9294 102.055 92.0522 102 90.9565H104.05C104.095 91.5099 104.335 91.9526 104.772 92.2847C105.21 92.6112 105.774 92.7744 106.466 92.7744C107.152 92.7744 107.711 92.5973 108.143 92.2432C108.58 91.8835 108.798 91.4214 108.798 90.8569C108.798 90.2703 108.585 89.8083 108.159 89.4707C107.733 89.1331 107.152 88.9644 106.416 88.9644H104.914Z" fill="#000"/>
<path fill-rule="evenodd" clip-rule="evenodd" d="M58.3431 111.907L64.7071 118.271C65.0976 118.662 65.0976 119.295 64.7071 119.685L58.3431 126.049C57.9526 126.44 57.3195 126.44 56.9289 126.049C56.5384 125.659 56.5384 125.026 56.9289 124.635L61.5858 119.978L18 119.978L18 117.978L61.5858 117.978L56.9289 113.321C56.5384 112.931 56.5384 112.298 56.9289 111.907C57.3195 111.517 57.9526 111.517 58.3431 111.907Z" fill="#000"/>
<path fill-rule="evenodd" clip-rule="evenodd" d="M7.73404 239.536L1.22859 238.01C0.690899 237.883 0.152772 238.217 0.0266494 238.755C-0.0994736 239.293 0.234168 239.831 0.771859 239.957L9.53404 242.012C10.0717 242.138 10.6099 241.805 10.736 241.267L12.7913 232.505C12.9174 231.967 12.5838 231.429 12.0461 231.303C11.5084 231.177 10.9702 231.51 10.8441 232.048L9.36616 238.349C3.07626 226.565 3.60574 212.718 11.521 203.503C19.8963 193.752 36.8926 188.801 63.9566 197.491L64.5681 195.587C37.1322 186.777 19.1285 191.576 10.0038 202.2C1.38436 212.235 1.00283 227.123 7.73404 239.536Z" fill="#000"/>
<path fill-rule="evenodd" clip-rule="evenodd" d="M107.861 116.098L102.829 123.559C102.52 124.017 101.899 124.138 101.441 123.829L93.9791 118.797C93.5213 118.488 93.4004 117.867 93.7092 117.409C94.018 116.951 94.6395 116.83 95.0974 117.139L100.558 120.821L94.0183 87.1912L95.9816 86.8094L102.521 120.44L106.203 114.979C106.512 114.522 107.133 114.401 107.591 114.71C108.049 115.018 108.17 115.64 107.861 116.098Z" fill="#000"/>
<path fill-rule="evenodd" clip-rule="evenodd" d="M71.3431 148.929L77.7071 155.293C78.0976 155.683 78.0976 156.316 77.7071 156.707L71.3431 163.071C70.9526 163.461 70.3195 163.461 69.9289 163.071C69.5384 162.68 69.5384 162.047 69.9289 161.657L74.5858 157L6 157L6 155L74.5858 155L69.9289 150.343C69.5384 149.952 69.5384 149.319 69.9289 148.929C70.3195 148.538 70.9526 148.538 71.3431 148.929Z" fill="#000"/>
<path d="M131.852 101.978V99.7451H126V97.8359C126.974 96.043 128.601 93.431 130.881 90H133.902V97.9355H135.521V99.7451H133.902V101.978H131.852ZM127.984 97.8608V97.9854H131.885V91.7432H131.769C130.474 93.6579 129.212 95.6971 127.984 97.8608Z" fill="#000"/>
<path d="M155.831 96.2769C154.597 96.2769 153.584 95.9393 152.793 95.2642C152.002 94.589 151.581 93.7202 151.531 92.6577H153.54C153.606 93.2056 153.853 93.6483 154.279 93.9858C154.705 94.3234 155.228 94.4922 155.848 94.4922C156.55 94.4922 157.118 94.2764 157.549 93.8447C157.986 93.4076 158.205 92.832 158.205 92.1182C158.205 91.4043 157.986 90.826 157.549 90.3833C157.118 89.9351 156.556 89.7109 155.864 89.7109C155.377 89.7109 154.943 89.8133 154.561 90.0181C154.185 90.2228 153.886 90.5133 153.665 90.8896H151.722L152.345 84H159.558V85.8096H154.005L153.714 89.1714H153.855C154.409 88.4243 155.253 88.0508 156.387 88.0508C157.522 88.0508 158.451 88.4271 159.176 89.1797C159.907 89.9323 160.272 90.8952 160.272 92.0684C160.272 93.319 159.862 94.3345 159.043 95.1147C158.23 95.8895 157.159 96.2769 155.831 96.2769Z" fill="#000"/>
<path d="M189.121 153.978V144.158H188.98L186 146.25V144.191L189.129 142H191.263V153.978H189.121Z" fill="#000"/>
<path d="M288.573 120.802C288.573 119.684 288.961 118.771 289.735 118.062C290.516 117.354 291.52 117 292.749 117C293.933 117 294.907 117.324 295.67 117.971C296.44 118.619 296.824 119.443 296.824 120.445C296.824 121.087 296.631 121.723 296.243 122.354C295.856 122.979 295.153 123.796 294.135 124.803L291.628 127.318V127.459H297.007V129.277H288.689V127.791L292.682 123.707C293.501 122.877 294.046 122.254 294.317 121.839C294.589 121.419 294.724 120.998 294.724 120.578C294.724 120.052 294.53 119.618 294.143 119.274C293.761 118.931 293.274 118.76 292.682 118.76C292.057 118.76 291.55 118.948 291.163 119.324C290.776 119.701 290.582 120.193 290.582 120.802V120.835H288.573V120.802Z" fill="#000"/>
<path fill-rule="evenodd" clip-rule="evenodd" d="M204.767 184.321L198.403 190.685C198.012 191.076 197.379 191.076 196.989 190.685L190.625 184.321C190.234 183.931 190.234 183.297 190.625 182.907C191.015 182.516 191.648 182.516 192.039 182.907L196.696 187.564L196.696 143.978L198.696 143.978L198.696 187.564L203.352 182.907C203.743 182.516 204.376 182.516 204.767 182.907C205.157 183.297 205.157 183.931 204.767 184.321Z" fill="#000"/>
<path fill-rule="evenodd" clip-rule="evenodd" d="M293.49 148.677L288.09 155.877C287.759 156.319 287.132 156.408 286.69 156.077L279.49 150.677C279.048 150.345 278.959 149.719 279.29 149.277C279.621 148.835 280.248 148.745 280.69 149.077L285.959 153.028L281.3 120.418L283.28 120.135L287.939 152.745L291.89 147.477C292.221 147.035 292.848 146.945 293.29 147.277C293.732 147.608 293.821 148.235 293.49 148.677Z" fill="#000"/>
<path fill-rule="evenodd" clip-rule="evenodd" d="M316.251 238.457C345.317 201.117 329.56 165.898 307.553 154.894L308.447 153.105C331.688 164.726 347.633 201.477 317.764 239.769L324.356 239.109C324.905 239.054 325.395 239.455 325.45 240.005C325.505 240.554 325.104 241.044 324.555 241.099L315.599 241.995C315.05 242.05 314.56 241.649 314.505 241.099L313.609 232.144C313.554 231.595 313.955 231.104 314.505 231.05C315.054 230.995 315.544 231.396 315.599 231.945L316.251 238.457Z" fill="#000"/>
</svg>
