<svg width="345" height="345" viewBox="0 0 345 345" fill="none" xmlns="http://www.w3.org/2000/svg">
<path d="M258.66 139.4C257.94 142.1 257.4 149.12 257.4 153.98C257.4 159.92 257.4 174.14 257.4 183.86C257.4 199.16 259.56 228.14 259.56 240.38C259.56 252.08 252.18 262.52 232.56 262.52C211.32 262.52 196.38 254.42 196.38 238.4C196.38 223.46 209.88 213.74 234.72 213.74C264.78 213.74 290.16 229.76 304.56 242.72L296.82 255.32C282.42 240.56 258.84 225.08 233.28 225.08C218.88 225.08 208.98 229.58 208.98 237.86C208.98 244.88 217.08 250.28 230.94 250.28C240.84 250.28 245.88 244.7 245.88 236.06C245.88 224 244.26 198.44 244.26 182.96C244.26 175.4 244.26 160.28 244.26 154.16C244.26 148.94 243.72 141.92 243 139.4H258.66ZM250.92 166.94C260.64 166.94 286.74 165.86 302.22 164.06L302.58 176.66C287.28 178.1 261 179.18 251.1 179.18L250.92 166.94Z" fill="#f00"/>
<path d="M83.9003 129.5C103.52 132.92 140.06 132.2 157.88 129.5V144.08C138.62 146.24 103.7 146.24 84.0803 144.08L83.9003 129.5ZM90.9203 202.94C89.3003 209.42 88.4003 214.46 88.4003 219.32C88.4003 227.6 94.1603 235.7 118.82 235.7C134.84 235.7 148.88 234.26 163.28 230.84L163.64 245.96C152.48 248.3 137.36 249.74 118.64 249.74C88.5803 249.74 75.0803 239.66 75.0803 222.74C75.0803 216.8 75.9803 210.32 77.9603 201.68L90.9203 202.94ZM49.7003 115.64C48.6203 118.7 47.1803 124.46 46.4603 127.7C43.0403 144.44 37.4603 176.48 37.4603 196.82C37.4603 205.46 38.0003 213.02 39.0803 221.84C42.1403 213.74 46.2803 202.94 49.3403 195.56L56.9003 201.5C52.4003 214.28 45.7403 233.18 44.1203 241.82C43.5803 244.34 43.2203 247.76 43.2203 249.92C43.4003 251.72 43.5803 254.24 43.7603 256.22L30.9803 257.12C27.3803 244.34 24.3203 223.64 24.3203 199.16C24.3203 172.7 30.2603 141.92 32.4203 126.98C32.9603 122.84 33.5003 118.34 33.6803 114.38L49.7003 115.64Z" fill="#f00"/>
<path d="M32.1211 108.978V99.1582H31.98L29 101.25V99.1914L32.1294 97H34.2627V108.978H32.1211Z" fill="#000"/>
<path d="M88.2832 103.802C88.2832 102.684 88.6706 101.771 89.4453 101.062C90.2256 100.354 91.23 100 92.4585 100C93.6427 100 94.6167 100.324 95.3804 100.971C96.1496 101.619 96.5342 102.443 96.5342 103.445C96.5342 104.087 96.3405 104.723 95.9531 105.354C95.5658 105.979 94.863 106.796 93.8447 107.803L91.3379 110.318V110.459H96.7168V112.277H88.3994V110.791L92.3921 106.707C93.2111 105.877 93.7562 105.254 94.0273 104.839C94.2985 104.419 94.4341 103.998 94.4341 103.578C94.4341 103.052 94.2404 102.618 93.853 102.274C93.4712 101.931 92.9842 101.76 92.3921 101.76C91.7668 101.76 91.2604 101.948 90.873 102.324C90.4857 102.701 90.292 103.193 90.292 103.802V103.835H88.2832V103.802Z" fill="#000"/>
<path d="M54.9136 233.964V232.304H56.3745C56.9832 232.304 57.4785 232.138 57.8604 231.806C58.2422 231.469 58.4331 231.031 58.4331 230.495C58.4331 229.963 58.245 229.54 57.8687 229.225C57.4979 228.904 56.9998 228.743 56.3745 228.743C55.7547 228.743 55.2511 228.906 54.8638 229.233C54.4819 229.559 54.2716 230.005 54.2329 230.569H52.2324C52.2878 229.468 52.6917 228.599 53.4443 227.963C54.1969 227.321 55.1958 227 56.4409 227C57.603 227 58.5687 227.304 59.3379 227.913C60.1126 228.516 60.5 229.277 60.5 230.196C60.5 230.899 60.3035 231.499 59.9106 231.997C59.5233 232.495 58.9976 232.813 58.3335 232.952V233.093C59.1525 233.187 59.7972 233.494 60.2676 234.014C60.7435 234.534 60.9814 235.193 60.9814 235.99C60.9814 237.019 60.5498 237.874 59.6865 238.555C58.8288 239.235 57.7497 239.576 56.4492 239.576C55.1598 239.576 54.1084 239.246 53.2949 238.588C52.487 237.929 52.0553 237.052 52 235.957H54.0503C54.0946 236.51 54.3353 236.953 54.7725 237.285C55.2096 237.611 55.7741 237.774 56.4658 237.774C57.152 237.774 57.7109 237.597 58.1426 237.243C58.5798 236.883 58.7983 236.421 58.7983 235.857C58.7983 235.27 58.5853 234.808 58.1592 234.471C57.7331 234.133 57.152 233.964 56.416 233.964H54.9136Z" fill="#000"/>
<path fill-rule="evenodd" clip-rule="evenodd" d="M23.8669 165.371L17.0716 171.272C16.6546 171.635 16.023 171.59 15.6609 171.173L9.75974 164.378C9.39761 163.961 9.44209 163.329 9.85908 162.967C10.2761 162.605 10.9077 162.649 11.2698 163.066L15.588 168.039L20.4184 99.4471L22.4135 99.5876L17.5831 168.179L22.5556 163.861C22.9726 163.499 23.6042 163.543 23.9663 163.96C24.3284 164.377 24.2839 165.009 23.8669 165.371Z" fill="#000"/>
<path fill-rule="evenodd" clip-rule="evenodd" d="M139.343 113.206L145.707 119.57C146.098 119.96 146.098 120.594 145.707 120.984L139.343 127.348C138.953 127.739 138.319 127.739 137.929 127.348C137.538 126.958 137.538 126.324 137.929 125.934L142.586 121.277L85 121.277L85 119.277L142.586 119.277L137.929 114.62C137.538 114.23 137.538 113.597 137.929 113.206C138.319 112.815 138.953 112.815 139.343 113.206Z" fill="#000"/>
<path fill-rule="evenodd" clip-rule="evenodd" d="M75.8745 248.351C64.7212 237.778 64 223.234 64 211H66C66 223.266 66.7788 236.972 77.2505 246.899C87.5276 256.642 107.411 262.987 146.003 260.189L140.997 255.931C140.576 255.573 140.525 254.942 140.883 254.521C141.241 254.1 141.872 254.049 142.292 254.407L149.148 260.238C149.569 260.596 149.62 261.227 149.262 261.648L143.431 268.503C143.073 268.924 142.442 268.975 142.021 268.617C141.6 268.259 141.549 267.628 141.907 267.208L146.183 262.181C107.416 264.997 86.7871 258.696 75.8745 248.351Z" fill="#000"/>
<path d="M268.425 147.978V138.158H268.284L265.304 140.25V138.191L268.433 136H270.566V147.978H268.425Z" fill="#000"/>
<path d="M220 142.802C220 141.684 220.387 140.771 221.162 140.062C221.942 139.354 222.947 139 224.175 139C225.36 139 226.333 139.324 227.097 139.971C227.866 140.619 228.251 141.443 228.251 142.445C228.251 143.087 228.057 143.723 227.67 144.354C227.283 144.979 226.58 145.796 225.562 146.803L223.055 149.318V149.459H228.434V151.277H220.116V149.791L224.109 145.707C224.928 144.877 225.473 144.254 225.744 143.839C226.015 143.419 226.151 142.998 226.151 142.578C226.151 142.052 225.957 141.618 225.57 141.274C225.188 140.931 224.701 140.76 224.109 140.76C223.484 140.76 222.977 140.948 222.59 141.324C222.202 141.701 222.009 142.193 222.009 142.802V142.835H220V142.802Z" fill="#000"/>
<path fill-rule="evenodd" clip-rule="evenodd" d="M294.343 145.907L300.707 152.271C301.098 152.662 301.098 153.295 300.707 153.685L294.343 160.049C293.953 160.44 293.319 160.44 292.929 160.049C292.538 159.659 292.538 159.026 292.929 158.635L297.586 153.978L264 153.978L264 151.978L297.586 151.978L292.929 147.321C292.538 146.931 292.538 146.298 292.929 145.907C293.319 145.517 293.953 145.517 294.343 145.907Z" fill="#000"/>
<path fill-rule="evenodd" clip-rule="evenodd" d="M311.411 222.395L313.688 231.102C313.828 231.636 313.508 232.183 312.973 232.323L304.266 234.6C303.732 234.74 303.185 234.42 303.046 233.885C302.906 233.351 303.226 232.805 303.76 232.665L310.132 230.999L271.215 208.218L272.225 206.492L311.142 229.273L309.476 222.901C309.336 222.367 309.656 221.82 310.19 221.681C310.724 221.541 311.271 221.861 311.411 222.395Z" fill="#000"/>
<path fill-rule="evenodd" clip-rule="evenodd" d="M242.788 180.62L236.424 186.984C236.034 187.374 235.401 187.374 235.01 186.984L228.646 180.62C228.255 180.229 228.255 179.596 228.646 179.206C229.037 178.815 229.67 178.815 230.06 179.206L234.717 183.863L234.717 140.277L236.717 140.277L236.717 183.863L241.374 179.206C241.764 178.815 242.398 178.815 242.788 179.206C243.179 179.596 243.179 180.229 242.788 180.62Z" fill="#000"/>
<path fill-rule="evenodd" clip-rule="evenodd" d="M202.719 211.524C203.258 211.644 203.597 212.179 203.476 212.718L201.513 221.501C201.393 222.04 200.858 222.379 200.319 222.259C199.78 222.138 199.441 221.604 199.561 221.065L200.97 214.761C190.078 222.831 187.236 235.133 190.03 245.681C193 256.896 202.292 266 215 266V268C201.209 268 191.251 258.103 188.096 246.193C185.092 234.851 188.213 221.566 200.028 212.972L193.499 211.512C192.96 211.392 192.621 210.857 192.741 210.318C192.862 209.779 193.396 209.44 193.935 209.56L202.719 211.524Z" fill="#000"/>
</svg>
