<svg width="345" height="345" viewBox="0 0 345 345" fill="none" xmlns="http://www.w3.org/2000/svg">
<path d="M216.36 148.94C215.64 151.1 214.92 153.98 214.38 156.32C212.22 165.86 209.34 187.1 209.88 198.8C220.32 173.42 245.88 157.76 270.54 157.76C300.6 157.76 315.9 175.76 315.9 197.9C315.9 222.2 301.5 242.72 269.28 242.72C251.82 242.72 235.62 233.36 227.16 215.9L234.72 205.64C241.74 220.4 252.9 229.58 269.28 229.58C292.14 229.58 302.94 216.44 302.94 198.26C302.94 182.78 293.58 169.64 270.18 169.64C238.86 169.64 217.98 194.12 213.48 215.72C212.76 218.24 212.22 221.3 212.4 224.72C212.58 227.96 213.66 235.52 214.56 239.3L202.5 240.92C199.62 231.92 197.28 216.98 197.28 202.76C197.28 185.3 200.16 163.34 201.24 155.24C201.42 152.36 201.6 149.84 201.42 147.86L216.36 148.94ZM268.56 140.3C270.72 150.74 273.6 171.98 273.6 193.4C273.6 224.54 266.4 250.82 242.64 266.3L230.4 258.74C254.34 245.42 261 221.3 261 192.5C261 171.44 258.66 157.04 257.04 149.12C256.32 146.06 255.42 143.18 254.52 140.66L268.56 140.3Z" fill="#f00"/>
<path d="M134.12 117.98C137.9 139.76 145.64 170.54 172.28 194.3L162.74 207.08C142.76 185.84 130.52 158.84 119.9 122.12L134.12 117.98ZM21.4404 127.7C24.1404 127.88 27.9204 127.88 31.1604 127.7C47.1804 126.98 77.4204 122.66 88.0404 118.7L92.1804 131.3C89.8404 132.02 85.3404 133.28 82.6404 134.54C71.3004 143 43.7604 174.5 43.7604 211.4C43.7604 236.96 60.5004 245.42 79.0404 245.42C121.88 245.42 136.46 199.34 122.78 128.78L135.92 153.08C145.28 204.56 135.2 260.18 78.6804 260.18C50.4204 260.18 29.7204 244.34 29.7204 214.46C29.7204 180.98 47.3604 155.06 63.2004 137.24C54.0204 138.68 39.2604 140.48 32.7804 141.2C29.3604 141.74 26.3004 142.1 22.5204 142.82L21.4404 127.7Z" fill="#f00"/>
<path d="M26.0205 110.978V101.158H25.8794L22.8994 103.25V101.191L26.0288 99H28.1621V110.978H26.0205Z" fill="#000"/>
<path fill-rule="evenodd" clip-rule="evenodd" d="M76.0198 104.752L83.1984 110.18C83.6389 110.514 83.726 111.141 83.3929 111.581L77.9645 118.76C77.6314 119.2 77.0042 119.287 76.5637 118.954C76.1232 118.621 76.0361 117.994 76.3693 117.554L80.3415 112.301L22.1501 120.379L21.8751 118.398L80.0665 110.32L74.8135 106.347C74.373 106.014 74.2859 105.387 74.619 104.947C74.9521 104.506 75.5793 104.419 76.0198 104.752Z" fill="#000"/>
<path fill-rule="evenodd" clip-rule="evenodd" d="M111.14 128.664C110.456 138.291 112.237 149.94 117.422 161.545L115.596 162.361C110.282 150.466 108.437 138.49 109.145 128.523C109.848 118.61 113.098 110.48 118.211 106.536C120.801 104.538 123.858 103.631 127.211 104.138C130.536 104.641 134.056 106.518 137.655 109.896C144.577 116.393 151.999 128.638 159.146 148.359L162.004 142.407C162.243 141.909 162.84 141.699 163.338 141.938C163.836 142.177 164.046 142.775 163.807 143.273L159.911 151.386C159.672 151.884 159.074 152.094 158.577 151.855L150.463 147.959C149.966 147.72 149.756 147.122 149.995 146.624C150.234 146.127 150.831 145.917 151.329 146.156L157.25 148.999C150.15 129.417 142.867 117.531 136.286 111.354C132.877 108.154 129.713 106.539 126.912 106.116C124.138 105.696 121.624 106.43 119.433 108.12C114.983 111.551 111.827 118.983 111.14 128.664Z" fill="#000"/>
<path d="M181.121 153.978V144.158H180.98L178 146.25V144.191L181.129 142H183.263V153.978H181.121Z" fill="#000"/>
<path d="M280.573 120.802C280.573 119.684 280.961 118.771 281.735 118.062C282.516 117.354 283.52 117 284.749 117C285.933 117 286.907 117.324 287.67 117.971C288.44 118.619 288.824 119.443 288.824 120.445C288.824 121.087 288.631 121.723 288.243 122.354C287.856 122.979 287.153 123.796 286.135 124.803L283.628 127.318V127.459H289.007V129.277H280.689V127.791L284.682 123.707C285.501 122.877 286.046 122.254 286.317 121.839C286.589 121.419 286.724 120.998 286.724 120.578C286.724 120.052 286.53 119.618 286.143 119.274C285.761 118.931 285.274 118.76 284.682 118.76C284.057 118.76 283.55 118.948 283.163 119.324C282.776 119.701 282.582 120.193 282.582 120.802V120.835H280.573V120.802Z" fill="#000"/>
<path fill-rule="evenodd" clip-rule="evenodd" d="M196.767 184.321L190.403 190.685C190.012 191.076 189.379 191.076 188.989 190.685L182.625 184.321C182.234 183.931 182.234 183.297 182.625 182.907C183.015 182.516 183.648 182.516 184.039 182.907L188.696 187.564L188.696 143.978L190.696 143.978L190.696 187.564L195.352 182.907C195.743 182.516 196.376 182.516 196.767 182.907C197.157 183.297 197.157 183.931 196.767 184.321Z" fill="#000"/>
<path fill-rule="evenodd" clip-rule="evenodd" d="M285.49 148.677L280.09 155.877C279.759 156.319 279.132 156.408 278.69 156.077L271.49 150.677C271.048 150.345 270.959 149.719 271.29 149.277C271.621 148.835 272.248 148.745 272.69 149.077L277.959 153.028L273.3 120.418L275.28 120.135L279.939 152.745L283.89 147.477C284.221 147.035 284.848 146.945 285.29 147.277C285.732 147.608 285.821 148.235 285.49 148.677Z" fill="#000"/>
<path d="M306.505 241.1C306.56 241.649 307.05 242.05 307.6 241.995L316.555 241.1C317.104 241.045 317.505 240.555 317.45 240.005C317.395 239.455 316.905 239.054 316.356 239.109L308.396 239.905L307.6 231.945C307.545 231.396 307.055 230.995 306.505 231.05C305.955 231.105 305.554 231.595 305.609 232.144L306.505 241.1ZM299.553 154.894C321.935 166.086 337.852 202.324 306.726 240.367L308.274 241.633C340.148 202.676 324.065 164.914 300.447 153.106L299.553 154.894Z" fill="#000"/>
</svg>
