<svg width="345" height="345" viewBox="0 0 345 345" fill="none" xmlns="http://www.w3.org/2000/svg">
<path d="M255.42 161.54C250.38 155.96 242.64 149.12 235.98 144.44L245.88 136.88C250.74 140.3 260.46 148.4 265.5 153.8L255.42 161.54ZM212.04 150.2C213.48 153.08 215.28 156.32 216.54 158.84C221.58 168.2 230.94 187.1 236.7 200.6C244.62 218.6 253.44 245.6 258.48 261.26L244.26 265.04C239.76 247.94 232.2 224.54 224.46 206C217.8 190.7 209.88 173.96 205.02 166.04C203.4 163.34 200.52 158.84 197.82 155.96L212.04 150.2ZM182.34 193.04C187.74 191.78 192.6 190.16 195.12 189.08C215.28 181.16 255.6 160.1 278.46 160.1C302.4 160.1 313.02 173.96 313.02 189.08C313.02 207.8 302.04 220.4 277.02 220.4C268.92 220.4 259.92 217.88 254.88 215.9L255.42 202.58C261 205.28 269.1 207.62 276.48 207.62C293.76 207.62 299.7 198.8 299.7 189.08C299.7 181.52 294.3 172.52 278.1 172.52C254.34 172.52 205.2 199.88 189.36 207.08L182.34 193.04Z" fill="#f00"/>
<path d="M42.14 119.06C46.64 119.42 51.86 119.6 55.64 119.6C65.18 119.6 88.76 118.52 96.32 117.8C99.74 117.62 102.8 116.9 105.32 116L114.32 123.2C112.52 125.18 111.08 126.98 109.64 129.32C103.88 138.68 93.98 161.72 85.7 180.26C78.5 196.1 68.6 220.58 60.86 231.74C54.56 240.92 47.54 244.34 38.18 244.34C24.86 244.34 14.96 234.62 14.96 219.68C14.96 192.5 40.52 171.8 77.06 171.8C117.56 171.8 153.2 193.4 172.64 207.26L165.98 222.56C144.92 204.38 111.98 184.4 74.9 184.4C45.02 184.4 27.92 201.14 27.92 217.7C27.92 225.8 33.14 229.94 38.72 229.94C42.86 229.94 45.92 228.5 49.7 223.64C57.08 213.92 65.18 193.04 72.02 177.92C79.22 162.26 87.32 143.72 93.44 130.94C86.24 131.12 64.28 132.2 56.18 132.56C52.22 132.74 47 133.28 42.68 133.82L42.14 119.06ZM154.64 158.48C152.12 209.78 141.68 240.92 99.74 261.98L87.86 252.08C130.16 234.26 137.9 200.24 139.88 173.6C140.24 168.2 140.42 162.08 139.88 156.86L154.64 158.48Z" fill="#f00"/>
<path d="M48.1211 107.978V98.1582H47.98L45 100.25V98.1914L48.1294 96H50.2627V107.978H48.1211Z" fill="#000"/>
<path fill-rule="evenodd" clip-rule="evenodd" d="M169.863 187.126L163.072 193.031C162.655 193.394 162.023 193.349 161.661 192.933L155.755 186.141C155.393 185.725 155.437 185.093 155.854 184.73C156.271 184.368 156.902 184.412 157.265 184.829L161.586 189.799L164.418 149.207L166.413 149.346L163.581 189.938L168.551 185.616C168.968 185.254 169.599 185.298 169.962 185.715C170.324 186.132 170.28 186.763 169.863 187.126Z" fill="#000"/>
<path fill-rule="evenodd" clip-rule="evenodd" d="M128.644 108L102.969 168.804L109.16 166.555C109.679 166.367 110.252 166.635 110.441 167.154C110.629 167.673 110.361 168.247 109.842 168.435L101.383 171.508C100.864 171.696 100.29 171.428 100.102 170.909L97.0294 162.45C96.8409 161.931 97.1088 161.357 97.628 161.168C98.1471 160.98 98.7207 161.248 98.9093 161.767L101.157 167.957L125.439 110.135L41.0833 113.067L41 111.069L128.644 108Z" fill="#000"/>
<path fill-rule="evenodd" clip-rule="evenodd" d="M15.7866 186.019C16.3285 185.912 16.8542 186.265 16.9608 186.807L18.698 195.638C18.8046 196.18 18.4517 196.706 17.9098 196.812C17.3679 196.919 16.8422 196.566 16.7356 196.024L15.4741 189.611C4.62285 206.851 3.80106 222.545 9.43916 233.996C15.3017 245.902 28.2832 253.5 44.9795 253.5V255.5C27.6758 255.5 13.9073 247.598 7.64487 234.879C1.60744 222.618 2.67136 206.14 13.8495 188.438L7.34184 189.719C6.79994 189.825 6.27423 189.472 6.16763 188.93C6.06102 188.389 6.4139 187.863 6.9558 187.756L15.7866 186.019Z" fill="#000"/>
<path d="M179.121 180.978V171.158H178.98L176 173.25V171.191L179.129 169H181.263V180.978H179.121Z" fill="#000"/>
<path d="M251.294 111.802C251.294 110.684 251.681 109.771 252.456 109.062C253.236 108.354 254.241 108 255.469 108C256.653 108 257.627 108.324 258.391 108.971C259.16 109.619 259.545 110.443 259.545 111.445C259.545 112.087 259.351 112.723 258.964 113.354C258.576 113.979 257.874 114.796 256.855 115.803L254.349 118.318V118.459H259.728V120.277H251.41V118.791L255.403 114.707C256.222 113.877 256.767 113.254 257.038 112.839C257.309 112.419 257.445 111.998 257.445 111.578C257.445 111.052 257.251 110.618 256.864 110.274C256.482 109.931 255.995 109.76 255.403 109.76C254.778 109.76 254.271 109.948 253.884 110.324C253.496 110.701 253.303 111.193 253.303 111.802V111.835H251.294V111.802Z" fill="#000"/>
<path d="M223.914 132.964V131.304H225.375C225.983 131.304 226.479 131.138 226.86 130.806C227.242 130.469 227.433 130.031 227.433 129.495C227.433 128.963 227.245 128.54 226.869 128.225C226.498 127.904 226 127.743 225.375 127.743C224.755 127.743 224.251 127.906 223.864 128.233C223.482 128.559 223.272 129.005 223.233 129.569H221.232C221.288 128.468 221.692 127.599 222.444 126.963C223.197 126.321 224.196 126 225.441 126C226.603 126 227.569 126.304 228.338 126.913C229.113 127.516 229.5 128.277 229.5 129.196C229.5 129.899 229.304 130.499 228.911 130.997C228.523 131.495 227.998 131.813 227.333 131.952V132.093C228.153 132.187 228.797 132.494 229.268 133.014C229.743 133.534 229.981 134.193 229.981 134.99C229.981 136.019 229.55 136.874 228.687 137.555C227.829 138.235 226.75 138.576 225.449 138.576C224.16 138.576 223.108 138.246 222.295 137.588C221.487 136.929 221.055 136.052 221 134.957H223.05C223.095 135.51 223.335 135.953 223.772 136.285C224.21 136.611 224.774 136.774 225.466 136.774C226.152 136.774 226.711 136.597 227.143 136.243C227.58 135.883 227.798 135.421 227.798 134.857C227.798 134.27 227.585 133.808 227.159 133.471C226.733 133.133 226.152 132.964 225.416 132.964H223.914Z" fill="#000"/>
<path fill-rule="evenodd" clip-rule="evenodd" d="M276.879 140.218L277.213 149.212C277.233 149.764 276.802 150.228 276.25 150.248L267.257 150.582C266.705 150.602 266.241 150.171 266.22 149.62C266.2 149.068 266.631 148.604 267.183 148.583L273.764 148.339L244.33 121.01L245.691 119.544L275.125 146.874L274.881 140.292C274.86 139.74 275.291 139.276 275.843 139.256C276.395 139.236 276.859 139.666 276.879 140.218Z" fill="#000"/>
<path fill-rule="evenodd" clip-rule="evenodd" d="M196.945 170.862L205.356 174.065C205.872 174.262 206.131 174.84 205.934 175.356L202.73 183.766C202.533 184.282 201.956 184.541 201.44 184.345C200.924 184.148 200.665 183.57 200.861 183.054L203.206 176.9L176.409 188.912L175.591 187.087L202.388 175.075L196.233 172.73C195.717 172.534 195.458 171.956 195.655 171.44C195.851 170.924 196.429 170.665 196.945 170.862Z" fill="#000"/>
<path fill-rule="evenodd" clip-rule="evenodd" d="M236.689 159.73L233.953 168.304C233.785 168.83 233.222 169.121 232.696 168.953L224.122 166.216C223.596 166.048 223.306 165.486 223.474 164.96C223.642 164.433 224.204 164.143 224.73 164.311L231.004 166.313L216.112 137.459L217.889 136.541L232.782 165.396L234.784 159.122C234.952 158.596 235.514 158.305 236.041 158.473C236.567 158.641 236.857 159.204 236.689 159.73Z" fill="#000"/>
<path d="M149 143.802C149 142.684 149.387 141.771 150.162 141.062C150.942 140.354 151.947 140 153.175 140C154.36 140 155.333 140.324 156.097 140.971C156.866 141.619 157.251 142.443 157.251 143.445C157.251 144.087 157.057 144.723 156.67 145.354C156.283 145.979 155.58 146.796 154.562 147.803L152.055 150.318V150.459H157.434V152.277H149.116V150.791L153.109 146.707C153.928 145.877 154.473 145.254 154.744 144.839C155.015 144.419 155.151 143.998 155.151 143.578C155.151 143.052 154.957 142.618 154.57 142.274C154.188 141.931 153.701 141.76 153.109 141.76C152.484 141.76 151.977 141.948 151.59 142.324C151.202 142.701 151.009 143.193 151.009 143.802V143.835H149V143.802Z" fill="#000"/>
</svg>
