<svg width="345" height="345" viewBox="0 0 345 345" fill="none" xmlns="http://www.w3.org/2000/svg">
<path d="M268.446 139.4C267.726 142.1 267.186 149.12 267.186 153.98C267.186 159.92 267.186 174.14 267.186 183.86C267.186 199.16 269.346 228.14 269.346 240.38C269.346 252.08 261.966 262.52 242.346 262.52C221.106 262.52 206.166 254.42 206.166 238.4C206.166 223.46 219.666 213.74 244.506 213.74C274.566 213.74 299.946 229.76 314.346 242.72L306.606 255.32C292.206 240.56 268.626 225.08 243.066 225.08C228.666 225.08 218.766 229.58 218.766 237.86C218.766 244.88 226.866 250.28 240.726 250.28C250.626 250.28 255.666 244.7 255.666 236.06C255.666 224 254.046 198.44 254.046 182.96C254.046 175.4 254.046 160.28 254.046 154.16C254.046 148.94 253.506 141.92 252.786 139.4H268.446ZM260.706 166.94C270.426 166.94 296.526 165.86 312.006 164.06L312.366 176.66C297.066 178.1 270.786 179.18 260.886 179.18L260.706 166.94Z" fill="#f00"/>
<path d="M62.4156 112.22C61.1556 117.08 60.0755 122.66 59.1755 127.34C56.6555 141.74 49.4555 176.48 43.1555 193.04C58.8155 182.06 75.0155 177.74 93.9155 177.74C122.536 177.74 139.276 192.32 139.276 213.38C139.276 250.82 100.756 264.86 46.0355 258.92L42.4355 244.7C84.0155 250.46 124.516 243.26 124.516 213.74C124.516 200.24 113.356 189.98 92.4756 189.98C70.8755 189.98 51.0755 197.18 39.1955 211.58C36.8555 214.28 35.2355 216.62 33.6155 219.86L20.1155 215C33.9755 188.18 43.3355 143.72 45.6755 126.26C46.3955 120.5 46.5755 116.36 46.3955 111.5L62.4156 112.22ZM6.43555 135.26C15.9755 136.7 29.8355 138.14 40.6356 138.14C63.6756 138.14 97.5156 135.62 125.776 129.32L125.956 143.18C100.396 147.5 65.4755 150.92 40.8155 150.92C28.5755 150.92 17.0555 150.2 6.61555 149.3L6.43555 135.26ZM130.096 105.92C134.596 112.4 141.076 123.56 144.856 130.76L135.136 135.08C131.536 127.88 125.416 116.9 120.376 110.06L130.096 105.92ZM149.896 98.7197C154.756 105.38 161.596 116.72 165.016 123.38L155.296 127.7C151.336 119.96 145.576 109.7 140.356 102.86L149.896 98.7197Z" fill="#f00"/>
<path d="M278.398 147.978V138.158H278.257L275.277 140.25V138.191L278.407 136H280.54V147.978H278.398Z" fill="#000"/>
<path d="M229.974 142.802C229.974 141.684 230.361 140.771 231.136 140.062C231.916 139.354 232.92 139 234.149 139C235.333 139 236.307 139.324 237.071 139.971C237.84 140.619 238.225 141.443 238.225 142.445C238.225 143.087 238.031 143.723 237.644 144.354C237.256 144.979 236.553 145.796 235.535 146.803L233.028 149.318V149.459H238.407V151.277H230.09V149.791L234.083 145.707C234.902 144.877 235.447 144.254 235.718 143.839C235.989 143.419 236.125 142.998 236.125 142.578C236.125 142.052 235.931 141.618 235.543 141.274C235.162 140.931 234.675 140.76 234.083 140.76C233.457 140.76 232.951 140.948 232.563 141.324C232.176 141.701 231.982 142.193 231.982 142.802V142.835H229.974V142.802Z" fill="#000"/>
<path fill-rule="evenodd" clip-rule="evenodd" d="M304.317 145.907L310.681 152.271C311.071 152.662 311.071 153.295 310.681 153.685L304.317 160.049C303.926 160.44 303.293 160.44 302.903 160.049C302.512 159.659 302.512 159.026 302.903 158.635L307.559 153.978L273.974 153.978L273.974 151.978L307.559 151.978L302.903 147.321C302.512 146.931 302.512 146.298 302.903 145.907C303.293 145.517 303.926 145.517 304.317 145.907Z" fill="#000"/>
<path fill-rule="evenodd" clip-rule="evenodd" d="M321.384 222.395L323.661 231.102C323.801 231.636 323.481 232.183 322.947 232.323L314.24 234.6C313.706 234.74 313.159 234.42 313.019 233.885C312.88 233.351 313.199 232.805 313.734 232.665L320.105 230.999L281.189 208.218L282.199 206.492L321.116 229.273L319.449 222.901C319.309 222.367 319.629 221.82 320.164 221.681C320.698 221.541 321.244 221.861 321.384 222.395Z" fill="#000"/>
<path fill-rule="evenodd" clip-rule="evenodd" d="M252.762 180.62L246.398 186.984C246.007 187.375 245.374 187.375 244.984 186.984L238.62 180.62C238.229 180.23 238.229 179.597 238.62 179.206C239.01 178.816 239.643 178.816 240.034 179.206L244.691 183.863L244.691 140.277L246.691 140.277L246.691 183.863L251.348 179.206C251.738 178.816 252.371 178.816 252.762 179.206C253.152 179.597 253.152 180.23 252.762 180.62Z" fill="#000"/>
<path fill-rule="evenodd" clip-rule="evenodd" d="M212.692 211.524C213.231 211.644 213.57 212.179 213.45 212.718L211.487 221.501C211.366 222.04 210.832 222.379 210.293 222.259C209.754 222.138 209.414 221.604 209.535 221.065L210.944 214.761C200.051 222.831 197.209 235.133 200.003 245.681C202.974 256.896 212.265 266 224.974 266V268C211.183 268 201.224 258.103 198.07 246.193C195.066 234.851 198.187 221.566 210.001 212.972L203.473 211.512C202.934 211.392 202.594 210.857 202.715 210.318C202.835 209.779 203.37 209.44 203.909 209.56L212.692 211.524Z" fill="#000"/>
<path d="M127.914 96.9644V95.3042H129.375C129.983 95.3042 130.479 95.1382 130.86 94.8062C131.242 94.4686 131.433 94.0314 131.433 93.4946C131.433 92.9634 131.245 92.54 130.869 92.2246C130.498 91.9036 130 91.7432 129.375 91.7432C128.755 91.7432 128.251 91.9064 127.864 92.2329C127.482 92.5594 127.272 93.0049 127.233 93.5693H125.232C125.288 92.4681 125.692 91.5993 126.444 90.9629C127.197 90.321 128.196 90 129.441 90C130.603 90 131.569 90.3044 132.338 90.9131C133.113 91.5163 133.5 92.2772 133.5 93.1958C133.5 93.8986 133.304 94.499 132.911 94.9971C132.523 95.4951 131.998 95.8133 131.333 95.9517V96.0928C132.153 96.1868 132.797 96.494 133.268 97.0142C133.743 97.5343 133.981 98.1929 133.981 98.9897C133.981 100.019 133.55 100.874 132.687 101.555C131.829 102.235 130.75 102.576 129.449 102.576C128.16 102.576 127.108 102.246 126.295 101.588C125.487 100.929 125.055 100.052 125 98.9565H127.05C127.095 99.5099 127.335 99.9526 127.772 100.285C128.21 100.611 128.774 100.774 129.466 100.774C130.152 100.774 130.711 100.597 131.143 100.243C131.58 99.8835 131.798 99.4214 131.798 98.8569C131.798 98.2703 131.585 97.8083 131.159 97.4707C130.733 97.1331 130.152 96.9644 129.416 96.9644H127.914Z" fill="#000"/>
<path d="M11.1211 120.977V111.157H10.98L8 113.249V111.19L11.1294 108.999H13.2627V120.977H11.1211Z" fill="#000"/>
<path d="M83.7119 96.7344C83.7119 95.6165 84.0993 94.7035 84.874 93.9951C85.6543 93.2868 86.6587 92.9326 87.8872 92.9326C89.0715 92.9326 90.0454 93.2563 90.8091 93.9038C91.5783 94.5513 91.9629 95.3758 91.9629 96.3774C91.9629 97.0194 91.7692 97.6558 91.3818 98.2866C90.9945 98.9119 90.2917 99.7282 89.2734 100.735L86.7666 103.25V103.392H92.1455V105.209H83.8281V103.724L87.8208 99.6396C88.6398 98.8096 89.1849 98.187 89.4561 97.772C89.7272 97.3514 89.8628 96.9308 89.8628 96.5103C89.8628 95.9845 89.6691 95.5501 89.2817 95.207C88.8999 94.8639 88.4129 94.6924 87.8208 94.6924C87.1955 94.6924 86.6891 94.8805 86.3018 95.2568C85.9144 95.6331 85.7207 96.1257 85.7207 96.7344V96.7676H83.7119V96.7344Z" fill="#000"/>
<path fill-rule="evenodd" clip-rule="evenodd" d="M78.3335 126.793L71.0099 132.024C70.5604 132.345 69.9359 132.241 69.6149 131.792L64.3837 124.468C64.0627 124.018 64.1668 123.394 64.6162 123.073C65.0656 122.752 65.6902 122.856 66.0112 123.305L69.8391 128.665L76.4422 89.0459L78.415 89.3747L71.8119 128.993L77.171 125.165C77.6204 124.844 78.2449 124.948 78.566 125.398C78.887 125.847 78.7829 126.472 78.3335 126.793Z" fill="#000"/>
<path fill-rule="evenodd" clip-rule="evenodd" d="M145.434 243.4C144.936 243.639 144.339 243.43 144.099 242.933L140.195 234.824C139.955 234.326 140.164 233.728 140.662 233.489C141.16 233.249 141.757 233.458 141.997 233.956L144.837 239.855C152.507 216.259 149.054 198.758 140.566 187.087C131.779 175.004 117.474 168.999 104 168.999L104 166.999C118.026 166.999 132.971 173.243 142.184 185.911C151.143 198.229 154.568 216.46 146.709 240.566L152.675 237.693C153.173 237.454 153.771 237.663 154.01 238.161C154.25 238.658 154.041 239.256 153.543 239.495L145.434 243.4Z" fill="#000"/>
<path fill-rule="evenodd" clip-rule="evenodd" d="M32.3431 120.928L38.7071 127.292C39.0976 127.682 39.0976 128.315 38.7071 128.706L32.3431 135.07C31.9526 135.46 31.3195 135.46 30.9289 135.07C30.5384 134.679 30.5384 134.046 30.9289 133.656L35.5858 128.999H5V126.999H35.5858L30.9289 122.342C30.5384 121.951 30.5384 121.318 30.9289 120.928C31.3195 120.537 31.9526 120.537 32.3431 120.928Z" fill="#000"/>
<path d="M153.852 95.978V93.7451H148V91.8359C148.974 90.043 150.601 87.431 152.881 84H155.902V91.9355H157.521V93.7451H155.902V95.978H153.852ZM149.984 91.8608V91.9854H153.885V85.7432H153.769C152.474 87.6579 151.212 89.6971 149.984 91.8608Z" fill="#000"/>
</svg>
