<svg width="345" height="345" viewBox="0 0 345 345" fill="none" xmlns="http://www.w3.org/2000/svg">
<path d="M268.445 139.4C267.725 142.1 267.185 149.12 267.185 153.98C267.185 159.92 267.185 174.14 267.185 183.86C267.185 199.16 269.345 228.14 269.345 240.38C269.345 252.08 261.965 262.52 242.345 262.52C221.105 262.52 206.165 254.42 206.165 238.4C206.165 223.46 219.665 213.74 244.505 213.74C274.565 213.74 299.945 229.76 314.345 242.72L306.605 255.32C292.205 240.56 268.625 225.08 243.065 225.08C228.665 225.08 218.765 229.58 218.765 237.86C218.765 244.88 226.865 250.28 240.725 250.28C250.625 250.28 255.665 244.7 255.665 236.06C255.665 224 254.045 198.44 254.045 182.96C254.045 175.4 254.045 160.28 254.045 154.16C254.045 148.94 253.505 141.92 252.785 139.4H268.445ZM260.705 166.94C270.425 166.94 296.525 165.86 312.005 164.06L312.365 176.66C297.065 178.1 270.785 179.18 260.885 179.18L260.705 166.94Z" fill="#f00"/>
<path d="M100.935 126.8C105.435 133.46 113.895 146.96 118.035 155.6L107.415 160.28C102.915 150.74 96.6152 139.58 90.6752 131.3L100.935 126.8ZM124.155 117.62C128.835 123.92 137.475 137.42 141.795 145.88L131.535 150.92C126.675 141.38 120.015 130.4 114.075 122.3L124.155 117.62ZM51.0752 112.04C50.1752 118.16 49.6352 124.28 49.2752 130.22C48.5552 150.56 47.1152 193.22 47.1152 220.04C47.1152 239.84 59.5352 246.68 76.6352 246.68C109.575 246.68 128.295 228.32 141.255 209.6L151.335 221.84C139.095 238.76 115.875 261.44 76.2752 261.44C50.3552 261.44 32.5352 250.82 32.5352 221.3C32.5352 194.66 34.3352 149.12 34.3352 130.22C34.3352 123.56 33.9752 117.26 32.7152 112.04H51.0752Z" fill="#f00"/>
<path d="M278.398 147.978V138.158H278.257L275.277 140.25V138.191L278.407 136H280.54V147.978H278.398Z" fill="#000"/>
<path d="M229.974 142.802C229.974 141.684 230.361 140.771 231.136 140.062C231.916 139.354 232.92 139 234.149 139C235.333 139 236.307 139.324 237.071 139.971C237.84 140.619 238.225 141.443 238.225 142.445C238.225 143.087 238.031 143.723 237.644 144.354C237.256 144.979 236.553 145.796 235.535 146.803L233.028 149.318V149.459H238.407V151.277H230.09V149.791L234.083 145.707C234.902 144.877 235.447 144.254 235.718 143.839C235.989 143.419 236.125 142.998 236.125 142.578C236.125 142.052 235.931 141.618 235.543 141.274C235.162 140.931 234.675 140.76 234.083 140.76C233.457 140.76 232.951 140.948 232.563 141.324C232.176 141.701 231.982 142.193 231.982 142.802V142.835H229.974V142.802Z" fill="#000"/>
<path fill-rule="evenodd" clip-rule="evenodd" d="M304.317 145.907L310.681 152.271C311.071 152.662 311.071 153.295 310.681 153.685L304.317 160.049C303.926 160.44 303.293 160.44 302.903 160.049C302.512 159.659 302.512 159.026 302.903 158.635L307.559 153.978L273.974 153.978L273.974 151.978L307.559 151.978L302.903 147.321C302.512 146.931 302.512 146.298 302.903 145.907C303.293 145.517 303.926 145.517 304.317 145.907Z" fill="#000"/>
<path fill-rule="evenodd" clip-rule="evenodd" d="M321.384 222.395L323.661 231.102C323.801 231.636 323.481 232.183 322.947 232.323L314.24 234.6C313.706 234.74 313.159 234.42 313.019 233.885C312.88 233.351 313.199 232.805 313.734 232.665L320.105 230.999L281.189 208.218L282.199 206.492L321.116 229.273L319.449 222.901C319.309 222.367 319.629 221.82 320.164 221.681C320.698 221.541 321.244 221.861 321.384 222.395Z" fill="#000"/>
<path fill-rule="evenodd" clip-rule="evenodd" d="M252.762 180.62L246.398 186.984C246.007 187.374 245.374 187.374 244.984 186.984L238.62 180.62C238.229 180.229 238.229 179.596 238.62 179.206C239.01 178.815 239.643 178.815 240.034 179.206L244.691 183.863L244.691 140.277L246.691 140.277L246.691 183.863L251.348 179.206C251.738 178.815 252.371 178.815 252.762 179.206C253.152 179.596 253.152 180.229 252.762 180.62Z" fill="#000"/>
<path fill-rule="evenodd" clip-rule="evenodd" d="M212.692 211.524C213.231 211.644 213.57 212.179 213.45 212.718L211.487 221.501C211.366 222.04 210.832 222.379 210.293 222.259C209.754 222.138 209.414 221.604 209.535 221.065L210.944 214.761C200.051 222.831 197.209 235.133 200.003 245.681C202.974 256.896 212.265 266 224.974 266V268C211.183 268 201.224 258.103 198.07 246.193C195.066 234.851 198.187 221.566 210.001 212.972L203.473 211.512C202.934 211.392 202.594 210.857 202.715 210.318C202.835 209.779 203.37 209.44 203.909 209.56L212.692 211.524Z" fill="#000"/>
<path d="M95 114.802C95 113.684 95.3874 112.771 96.1621 112.062C96.9424 111.354 97.9468 111 99.1753 111C100.36 111 101.333 111.324 102.097 111.971C102.866 112.619 103.251 113.443 103.251 114.445C103.251 115.087 103.057 115.723 102.67 116.354C102.283 116.979 101.58 117.796 100.562 118.803L98.0547 121.318V121.459H103.434V123.277H95.1162V121.791L99.1089 117.707C99.9279 116.877 100.473 116.254 100.744 115.839C101.015 115.419 101.151 114.998 101.151 114.578C101.151 114.052 100.957 113.618 100.57 113.274C100.188 112.931 99.701 112.76 99.1089 112.76C98.4836 112.76 97.9772 112.948 97.5898 113.324C97.2025 113.701 97.0088 114.193 97.0088 114.802V114.835H95V114.802Z" fill="#000"/>
<path d="M124.914 107.964V106.304H126.375C126.983 106.304 127.479 106.138 127.86 105.806C128.242 105.469 128.433 105.031 128.433 104.495C128.433 103.963 128.245 103.54 127.869 103.225C127.498 102.904 127 102.743 126.375 102.743C125.755 102.743 125.251 102.906 124.864 103.233C124.482 103.559 124.272 104.005 124.233 104.569H122.232C122.288 103.468 122.692 102.599 123.444 101.963C124.197 101.321 125.196 101 126.441 101C127.603 101 128.569 101.304 129.338 101.913C130.113 102.516 130.5 103.277 130.5 104.196C130.5 104.899 130.304 105.499 129.911 105.997C129.523 106.495 128.998 106.813 128.333 106.952V107.093C129.153 107.187 129.797 107.494 130.268 108.014C130.743 108.534 130.981 109.193 130.981 109.99C130.981 111.019 130.55 111.874 129.687 112.555C128.829 113.235 127.75 113.576 126.449 113.576C125.16 113.576 124.108 113.246 123.295 112.588C122.487 111.929 122.055 111.052 122 109.957H124.05C124.095 110.51 124.335 110.953 124.772 111.285C125.21 111.611 125.774 111.774 126.466 111.774C127.152 111.774 127.711 111.597 128.143 111.243C128.58 110.883 128.798 110.421 128.798 109.857C128.798 109.27 128.585 108.808 128.159 108.471C127.733 108.133 127.152 107.964 126.416 107.964H124.914Z" fill="#000"/>
<path d="M7.12109 123V113.18H6.97998L4 115.272V113.213L7.12939 111.022H9.2627V123H7.12109Z" fill="#000"/>
<path fill-rule="evenodd" clip-rule="evenodd" d="M28.7667 188.343L22.4027 194.707C22.0122 195.098 21.379 195.098 20.9885 194.707L14.6245 188.343C14.234 187.953 14.234 187.319 14.6245 186.929C15.0151 186.538 15.6482 186.538 16.0388 186.929L20.6956 191.586L20.6956 110L22.6956 110L22.6956 191.586L27.3525 186.929C27.743 186.538 28.3761 186.538 28.7667 186.929C29.1572 187.319 29.1572 187.953 28.7667 188.343Z" fill="#000"/>
</svg>
