<svg width="345" height="345" viewBox="0 0 345 345" fill="none" xmlns="http://www.w3.org/2000/svg">
<path d="M216.36 148.94C215.64 151.1 214.92 153.98 214.38 156.32C212.22 165.86 209.34 187.1 209.88 198.8C220.32 173.42 245.88 157.76 270.54 157.76C300.6 157.76 315.9 175.76 315.9 197.9C315.9 222.2 301.5 242.72 269.28 242.72C251.82 242.72 235.62 233.36 227.16 215.9L234.72 205.64C241.74 220.4 252.9 229.58 269.28 229.58C292.14 229.58 302.94 216.44 302.94 198.26C302.94 182.78 293.58 169.64 270.18 169.64C238.86 169.64 217.98 194.12 213.48 215.72C212.76 218.24 212.22 221.3 212.4 224.72C212.58 227.96 213.66 235.52 214.56 239.3L202.5 240.92C199.62 231.92 197.28 216.98 197.28 202.76C197.28 185.3 200.16 163.34 201.24 155.24C201.42 152.36 201.6 149.84 201.42 147.86L216.36 148.94ZM268.56 140.3C270.72 150.74 273.6 171.98 273.6 193.4C273.6 224.54 266.4 250.82 242.64 266.3L230.4 258.74C254.34 245.42 261 221.3 261 192.5C261 171.44 258.66 157.04 257.04 149.12C256.32 146.06 255.42 143.18 254.52 140.66L268.56 140.3Z" fill="#f00"/>
<path d="M42.14 119.06C46.64 119.42 51.86 119.6 55.64 119.6C65.18 119.6 88.76 118.52 96.32 117.8C99.74 117.62 102.8 116.9 105.32 116L114.32 123.2C112.52 125.18 111.08 126.98 109.64 129.32C103.88 138.68 93.98 161.72 85.7 180.26C78.5 196.1 68.6 220.58 60.86 231.74C54.56 240.92 47.54 244.34 38.18 244.34C24.86 244.34 14.96 234.62 14.96 219.68C14.96 192.5 40.52 171.8 77.06 171.8C117.56 171.8 153.2 193.4 172.64 207.26L165.98 222.56C144.92 204.38 111.98 184.4 74.9 184.4C45.02 184.4 27.92 201.14 27.92 217.7C27.92 225.8 33.14 229.94 38.72 229.94C42.86 229.94 45.92 228.5 49.7 223.64C57.08 213.92 65.18 193.04 72.02 177.92C79.22 162.26 87.32 143.72 93.44 130.94C86.24 131.12 64.28 132.2 56.18 132.56C52.22 132.74 47 133.28 42.68 133.82L42.14 119.06ZM154.64 158.48C152.12 209.78 141.68 240.92 99.74 261.98L87.86 252.08C130.16 234.26 137.9 200.24 139.88 173.6C140.24 168.2 140.42 162.08 139.88 156.86L154.64 158.48Z" fill="#f00"/>
<path d="M48.1211 107.978V98.1582H47.98L45 100.25V98.1914L48.1294 96H50.2627V107.978H48.1211Z" fill="#000"/>
<path d="M149 143.802C149 142.684 149.387 141.771 150.162 141.062C150.942 140.354 151.947 140 153.175 140C154.36 140 155.333 140.324 156.097 140.971C156.866 141.619 157.251 142.443 157.251 143.445C157.251 144.087 157.057 144.723 156.67 145.354C156.283 145.979 155.58 146.796 154.562 147.803L152.055 150.318V150.459H157.434V152.277H149.116V150.791L153.109 146.707C153.928 145.877 154.473 145.254 154.744 144.839C155.015 144.419 155.151 143.998 155.151 143.578C155.151 143.052 154.957 142.618 154.57 142.274C154.188 141.931 153.701 141.76 153.109 141.76C152.484 141.76 151.977 141.948 151.59 142.324C151.202 142.701 151.009 143.193 151.009 143.802V143.835H149V143.802Z" fill="#000"/>
<path fill-rule="evenodd" clip-rule="evenodd" d="M169.863 187.126L163.072 193.031C162.655 193.394 162.023 193.349 161.661 192.933L155.755 186.141C155.393 185.725 155.437 185.093 155.854 184.73C156.271 184.368 156.902 184.412 157.265 184.829L161.586 189.799L164.418 149.207L166.413 149.346L163.581 189.938L168.551 185.616C168.968 185.254 169.599 185.298 169.962 185.715C170.324 186.132 170.28 186.763 169.863 187.126Z" fill="#000"/>
<path fill-rule="evenodd" clip-rule="evenodd" d="M128.644 108L102.969 168.804L109.16 166.555C109.679 166.367 110.252 166.635 110.441 167.154C110.629 167.673 110.361 168.247 109.842 168.435L101.383 171.508C100.864 171.696 100.29 171.428 100.102 170.909L97.0294 162.45C96.8409 161.931 97.1088 161.357 97.628 161.168C98.1471 160.98 98.7207 161.248 98.9093 161.767L101.157 167.957L125.439 110.135L41.0833 113.067L41 111.069L128.644 108Z" fill="#000"/>
<path fill-rule="evenodd" clip-rule="evenodd" d="M15.7866 186.019C16.3285 185.912 16.8542 186.265 16.9608 186.807L18.698 195.638C18.8046 196.18 18.4517 196.706 17.9098 196.812C17.3679 196.919 16.8422 196.566 16.7356 196.024L15.4741 189.611C4.62285 206.851 3.80106 222.545 9.43916 233.996C15.3017 245.902 28.2832 253.5 44.9795 253.5V255.5C27.6758 255.5 13.9073 247.598 7.64487 234.879C1.60744 222.618 2.67136 206.14 13.8495 188.438L7.34184 189.719C6.79994 189.825 6.27423 189.472 6.16763 188.93C6.06102 188.389 6.4139 187.863 6.9558 187.756L15.7866 186.019Z" fill="#000"/>
<path d="M181.121 153.978V144.158H180.98L178 146.25V144.191L181.129 142H183.263V153.978H181.121Z" fill="#000"/>
<path d="M280.573 120.802C280.573 119.684 280.961 118.771 281.735 118.062C282.516 117.354 283.52 117 284.749 117C285.933 117 286.907 117.324 287.67 117.971C288.44 118.619 288.824 119.443 288.824 120.445C288.824 121.087 288.631 121.723 288.243 122.354C287.856 122.979 287.153 123.796 286.135 124.803L283.628 127.318V127.459H289.007V129.277H280.689V127.791L284.682 123.707C285.501 122.877 286.046 122.254 286.317 121.839C286.589 121.419 286.724 120.998 286.724 120.578C286.724 120.052 286.53 119.618 286.143 119.274C285.761 118.931 285.274 118.76 284.682 118.76C284.057 118.76 283.55 118.948 283.163 119.324C282.776 119.701 282.582 120.193 282.582 120.802V120.835H280.573V120.802Z" fill="#000"/>
<path fill-rule="evenodd" clip-rule="evenodd" d="M196.767 184.321L190.403 190.685C190.012 191.076 189.379 191.076 188.989 190.685L182.625 184.321C182.234 183.931 182.234 183.297 182.625 182.907C183.015 182.516 183.648 182.516 184.039 182.907L188.696 187.564L188.696 143.978L190.696 143.978L190.696 187.564L195.352 182.907C195.743 182.516 196.376 182.516 196.767 182.907C197.157 183.297 197.157 183.931 196.767 184.321Z" fill="#000"/>
<path fill-rule="evenodd" clip-rule="evenodd" d="M285.49 148.677L280.09 155.877C279.759 156.319 279.132 156.408 278.69 156.077L271.49 150.677C271.048 150.345 270.959 149.719 271.29 149.277C271.621 148.835 272.248 148.745 272.69 149.077L277.959 153.028L273.3 120.418L275.28 120.135L279.939 152.745L283.89 147.477C284.221 147.035 284.848 146.945 285.29 147.277C285.732 147.608 285.821 148.235 285.49 148.677Z" fill="#000"/>
<path d="M306.505 241.1C306.56 241.649 307.05 242.05 307.6 241.995L316.555 241.1C317.104 241.045 317.505 240.555 317.45 240.005C317.395 239.455 316.905 239.054 316.356 239.109L308.396 239.905L307.6 231.945C307.545 231.396 307.055 230.995 306.505 231.05C305.955 231.105 305.554 231.595 305.609 232.144L306.505 241.1ZM299.553 154.894C321.935 166.086 337.852 202.324 306.726 240.367L308.274 241.633C340.148 202.676 324.065 164.914 300.447 153.106L299.553 154.894Z" fill="#000"/>
</svg>
