<svg width="345" height="345" viewBox="0 0 345 345" fill="none" xmlns="http://www.w3.org/2000/svg">
<path d="M226.145 148.94C225.425 151.1 224.705 153.98 224.165 156.32C222.005 165.86 219.125 187.1 219.665 198.8C230.105 173.42 255.665 157.76 280.325 157.76C310.385 157.76 325.685 175.76 325.685 197.9C325.685 222.2 311.285 242.72 279.065 242.72C261.605 242.72 245.405 233.36 236.945 215.9L244.505 205.64C251.525 220.4 262.685 229.58 279.065 229.58C301.925 229.58 312.725 216.44 312.725 198.26C312.725 182.78 303.365 169.64 279.965 169.64C248.645 169.64 227.765 194.12 223.265 215.72C222.545 218.24 222.005 221.3 222.185 224.72C222.365 227.96 223.445 235.52 224.345 239.3L212.285 240.92C209.405 231.92 207.065 216.98 207.065 202.76C207.065 185.3 209.945 163.34 211.025 155.24C211.205 152.36 211.385 149.84 211.205 147.86L226.145 148.94ZM278.345 140.3C280.505 150.74 283.385 171.98 283.385 193.4C283.385 224.54 276.185 250.82 252.425 266.3L240.185 258.74C264.125 245.42 270.785 221.3 270.785 192.5C270.785 171.44 268.445 157.04 266.825 149.12C266.105 146.06 265.205 143.18 264.305 140.66L278.345 140.3Z" fill="#f00"/>
<path d="M62.4156 112.22C61.1556 117.08 60.0755 122.66 59.1755 127.34C56.6555 141.74 49.4555 176.48 43.1555 193.04C58.8155 182.06 75.0155 177.74 93.9155 177.74C122.536 177.74 139.276 192.32 139.276 213.38C139.276 250.82 100.756 264.86 46.0355 258.92L42.4355 244.7C84.0155 250.46 124.516 243.26 124.516 213.74C124.516 200.24 113.356 189.98 92.4756 189.98C70.8755 189.98 51.0755 197.18 39.1955 211.58C36.8555 214.28 35.2355 216.62 33.6155 219.86L20.1155 215C33.9755 188.18 43.3355 143.72 45.6755 126.26C46.3955 120.5 46.5755 116.36 46.3955 111.5L62.4156 112.22ZM6.43555 135.26C15.9755 136.7 29.8355 138.14 40.6356 138.14C63.6756 138.14 97.5156 135.62 125.776 129.32L125.956 143.18C100.396 147.5 65.4755 150.92 40.8155 150.92C28.5755 150.92 17.0555 150.2 6.61555 149.3L6.43555 135.26ZM130.096 105.92C134.596 112.4 141.076 123.56 144.856 130.76L135.136 135.08C131.536 127.88 125.416 116.9 120.376 110.06L130.096 105.92ZM149.896 98.7197C154.756 105.38 161.596 116.72 165.016 123.38L155.296 127.7C151.336 119.96 145.576 109.7 140.356 102.86L149.896 98.7197Z" fill="#f00"/>
<path d="M189.121 153.978V144.158H188.98L186 146.25V144.191L189.129 142H191.263V153.978H189.121Z" fill="#000"/>
<path d="M288.573 120.802C288.573 119.684 288.961 118.771 289.735 118.062C290.516 117.354 291.52 117 292.749 117C293.933 117 294.907 117.324 295.67 117.971C296.44 118.619 296.824 119.443 296.824 120.445C296.824 121.087 296.631 121.723 296.243 122.354C295.856 122.979 295.153 123.796 294.135 124.803L291.628 127.318V127.459H297.007V129.277H288.689V127.791L292.682 123.707C293.501 122.877 294.046 122.254 294.317 121.839C294.589 121.419 294.724 120.998 294.724 120.578C294.724 120.052 294.53 119.618 294.143 119.274C293.761 118.931 293.274 118.76 292.682 118.76C292.057 118.76 291.55 118.948 291.163 119.324C290.776 119.701 290.582 120.193 290.582 120.802V120.835H288.573V120.802Z" fill="#000"/>
<path fill-rule="evenodd" clip-rule="evenodd" d="M204.767 184.322L198.403 190.686C198.012 191.076 197.379 191.076 196.989 190.686L190.625 184.322C190.234 183.931 190.234 183.298 190.625 182.907C191.015 182.517 191.648 182.517 192.039 182.907L196.696 187.564L196.696 143.979L198.696 143.979L198.696 187.564L203.352 182.907C203.743 182.517 204.376 182.517 204.767 182.907C205.157 183.298 205.157 183.931 204.767 184.322Z" fill="#000"/>
<path fill-rule="evenodd" clip-rule="evenodd" d="M293.49 148.677L288.09 155.877C287.759 156.319 287.132 156.408 286.69 156.077L279.49 150.677C279.048 150.345 278.959 149.719 279.29 149.277C279.621 148.835 280.248 148.745 280.69 149.077L285.959 153.028L281.3 120.418L283.28 120.135L287.939 152.745L291.89 147.477C292.221 147.035 292.848 146.945 293.29 147.277C293.732 147.608 293.821 148.235 293.49 148.677Z" fill="#000"/>
<path fill-rule="evenodd" clip-rule="evenodd" d="M316.251 238.457C345.317 201.117 329.56 165.898 307.553 154.894L308.447 153.105C331.688 164.726 347.633 201.477 317.764 239.769L324.356 239.109C324.905 239.054 325.395 239.455 325.45 240.005C325.505 240.554 325.104 241.044 324.555 241.099L315.599 241.995C315.05 242.05 314.56 241.649 314.505 241.099L313.609 232.144C313.554 231.595 313.955 231.104 314.505 231.05C315.054 230.995 315.544 231.396 315.599 231.945L316.251 238.457Z" fill="#000"/>
<path d="M127.914 96.9644V95.3042H129.375C129.983 95.3042 130.479 95.1382 130.86 94.8062C131.242 94.4686 131.433 94.0314 131.433 93.4946C131.433 92.9634 131.245 92.54 130.869 92.2246C130.498 91.9036 130 91.7432 129.375 91.7432C128.755 91.7432 128.251 91.9064 127.864 92.2329C127.482 92.5594 127.272 93.0049 127.233 93.5693H125.232C125.288 92.4681 125.692 91.5993 126.444 90.9629C127.197 90.321 128.196 90 129.441 90C130.603 90 131.569 90.3044 132.338 90.9131C133.113 91.5163 133.5 92.2772 133.5 93.1958C133.5 93.8986 133.304 94.499 132.911 94.9971C132.523 95.4951 131.998 95.8133 131.333 95.9517V96.0928C132.153 96.1868 132.797 96.494 133.268 97.0142C133.743 97.5343 133.981 98.1929 133.981 98.9897C133.981 100.019 133.55 100.874 132.687 101.555C131.829 102.235 130.75 102.576 129.449 102.576C128.16 102.576 127.108 102.246 126.295 101.588C125.487 100.929 125.055 100.052 125 98.9565H127.05C127.095 99.5099 127.335 99.9526 127.772 100.285C128.21 100.611 128.774 100.774 129.466 100.774C130.152 100.774 130.711 100.597 131.143 100.243C131.58 99.8835 131.798 99.4214 131.798 98.8569C131.798 98.2703 131.585 97.8083 131.159 97.4707C130.733 97.1331 130.152 96.9644 129.416 96.9644H127.914Z" fill="#000"/>
<path d="M11.1211 120.977V111.157H10.98L8 113.249V111.19L11.1294 108.999H13.2627V120.977H11.1211Z" fill="#000"/>
<path d="M83.7119 96.7344C83.7119 95.6165 84.0993 94.7035 84.874 93.9951C85.6543 93.2868 86.6587 92.9326 87.8872 92.9326C89.0715 92.9326 90.0454 93.2563 90.8091 93.9038C91.5783 94.5513 91.9629 95.3758 91.9629 96.3774C91.9629 97.0194 91.7692 97.6558 91.3818 98.2866C90.9945 98.9119 90.2917 99.7282 89.2734 100.735L86.7666 103.25V103.392H92.1455V105.209H83.8281V103.724L87.8208 99.6396C88.6398 98.8096 89.1849 98.187 89.4561 97.772C89.7272 97.3514 89.8628 96.9308 89.8628 96.5103C89.8628 95.9845 89.6691 95.5501 89.2817 95.207C88.8999 94.8639 88.4129 94.6924 87.8208 94.6924C87.1955 94.6924 86.6891 94.8805 86.3018 95.2568C85.9144 95.6331 85.7207 96.1257 85.7207 96.7344V96.7676H83.7119V96.7344Z" fill="#000"/>
<path fill-rule="evenodd" clip-rule="evenodd" d="M78.3335 126.793L71.0099 132.024C70.5604 132.345 69.9359 132.241 69.6149 131.792L64.3837 124.468C64.0627 124.018 64.1668 123.394 64.6162 123.073C65.0656 122.752 65.6902 122.856 66.0112 123.305L69.8391 128.665L76.4422 89.0459L78.415 89.3747L71.8119 128.993L77.171 125.165C77.6204 124.844 78.2449 124.948 78.566 125.398C78.887 125.847 78.7829 126.472 78.3335 126.793Z" fill="#000"/>
<path fill-rule="evenodd" clip-rule="evenodd" d="M145.434 243.4C144.936 243.639 144.339 243.43 144.099 242.933L140.195 234.824C139.955 234.326 140.164 233.728 140.662 233.489C141.16 233.249 141.757 233.458 141.997 233.956L144.837 239.855C152.507 216.259 149.054 198.758 140.566 187.087C131.779 175.004 117.474 168.999 104 168.999L104 166.999C118.026 166.999 132.971 173.243 142.184 185.911C151.143 198.229 154.568 216.46 146.709 240.566L152.675 237.693C153.173 237.454 153.771 237.663 154.01 238.161C154.25 238.658 154.041 239.256 153.543 239.495L145.434 243.4Z" fill="#000"/>
<path fill-rule="evenodd" clip-rule="evenodd" d="M32.3431 120.928L38.7071 127.292C39.0976 127.682 39.0976 128.315 38.7071 128.706L32.3431 135.07C31.9526 135.46 31.3195 135.46 30.9289 135.07C30.5384 134.679 30.5384 134.046 30.9289 133.656L35.5858 128.999H5V126.999H35.5858L30.9289 122.342C30.5384 121.951 30.5384 121.318 30.9289 120.928C31.3195 120.537 31.9526 120.537 32.3431 120.928Z" fill="#000"/>
<path d="M153.852 95.978V93.7451H148V91.8359C148.974 90.043 150.601 87.431 152.881 84H155.902V91.9355H157.521V93.7451H155.902V95.978H153.852ZM149.984 91.8608V91.9854H153.885V85.7432H153.769C152.474 87.6579 151.212 89.6971 149.984 91.8608Z" fill="#000"/>
</svg>
