<svg width="345" height="345" viewBox="0 0 345 345" fill="none" xmlns="http://www.w3.org/2000/svg">
<path d="M258.66 139.4C257.94 142.1 257.4 149.12 257.4 153.98C257.4 159.92 257.4 174.14 257.4 183.86C257.4 199.16 259.56 228.14 259.56 240.38C259.56 252.08 252.18 262.52 232.56 262.52C211.32 262.52 196.38 254.42 196.38 238.4C196.38 223.46 209.88 213.74 234.72 213.74C264.78 213.74 290.16 229.76 304.56 242.72L296.82 255.32C282.42 240.56 258.84 225.08 233.28 225.08C218.88 225.08 208.98 229.58 208.98 237.86C208.98 244.88 217.08 250.28 230.94 250.28C240.84 250.28 245.88 244.7 245.88 236.06C245.88 224 244.26 198.44 244.26 182.96C244.26 175.4 244.26 160.28 244.26 154.16C244.26 148.94 243.72 141.92 243 139.4H258.66ZM250.92 166.94C260.64 166.94 286.74 165.86 302.22 164.06L302.58 176.66C287.28 178.1 261 179.18 251.1 179.18L250.92 166.94Z" fill="#f00"/>
<path d="M62.8402 108.98C59.0602 122.3 55.6402 146.6 54.5602 159.2C61.9402 140.66 80.6602 118.16 103.52 118.16C127.28 118.16 144.56 142.28 144.56 180.08C144.56 229.94 113.06 252.08 68.6002 260.18L59.9602 247.22C99.2002 241.28 129.62 225.44 129.62 180.26C129.62 151.82 120.08 131.3 101.18 131.3C78.6802 131.3 57.8002 164.06 55.6402 187.64C54.7402 194.48 54.7402 200.78 56.0002 209.78L41.9602 210.86C41.0602 204.02 40.1602 193.94 40.1602 182.24C40.1602 165.14 43.5802 138.68 45.7402 123.92C46.4602 118.52 46.8202 113.48 47.1802 108.44L62.8402 108.98Z" fill="#f00"/>
<path d="M43.1211 104.978V95.1582H42.98L40 97.25V95.1914L43.1294 93H45.2627V104.978H43.1211Z" fill="#000"/>
<path d="M92.7832 86.8018C92.7832 85.6839 93.1706 84.7708 93.9453 84.0625C94.7256 83.3542 95.73 83 96.9585 83C98.1427 83 99.1167 83.3237 99.8804 83.9712C100.65 84.6187 101.034 85.4432 101.034 86.4448C101.034 87.0868 100.84 87.7231 100.453 88.354C100.066 88.9793 99.363 89.7956 98.3447 90.8027L95.8379 93.3179V93.459H101.217V95.2769H92.8994V93.791L96.8921 89.707C97.7111 88.877 98.2562 88.2544 98.5273 87.8394C98.7985 87.4188 98.9341 86.9982 98.9341 86.5776C98.9341 86.0519 98.7404 85.6175 98.353 85.2744C97.9712 84.9313 97.4842 84.7598 96.8921 84.7598C96.2668 84.7598 95.7604 84.9479 95.373 85.3242C94.9857 85.7005 94.792 86.193 94.792 86.8018V86.835H92.7832V86.8018Z" fill="#000"/>
<path fill-rule="evenodd" clip-rule="evenodd" d="M39.7667 133.343L33.4027 139.707C33.0122 140.098 32.379 140.098 31.9885 139.707L25.6245 133.343C25.234 132.953 25.234 132.319 25.6245 131.929C26.0151 131.538 26.6482 131.538 27.0388 131.929L31.6956 136.586L31.6956 93L33.6956 93L33.6956 136.586L38.3525 131.929C38.743 131.538 39.3762 131.538 39.7667 131.929C40.1572 132.319 40.1572 132.953 39.7667 133.343Z" fill="#000"/>
<path fill-rule="evenodd" clip-rule="evenodd" d="M132.93 121.933C119.944 109.376 103.373 106.277 89 106.277L89 104.277C103.627 104.277 120.806 107.428 134.32 120.496C147.557 133.295 157.097 155.434 157.488 192.875L162.157 188.206C162.547 187.815 163.181 187.815 163.571 188.206C163.962 188.596 163.962 189.23 163.571 189.62L157.207 195.984C156.817 196.375 156.183 196.375 155.793 195.984L149.429 189.62C149.038 189.23 149.038 188.596 149.429 188.206C149.819 187.815 150.453 187.815 150.843 188.206L155.487 192.85C155.093 155.743 145.638 134.222 132.93 121.933Z" fill="#000"/>
<path d="M268.425 147.978V138.158H268.284L265.304 140.25V138.191L268.433 136H270.566V147.978H268.425Z" fill="#000"/>
<path d="M220 142.802C220 141.684 220.387 140.771 221.162 140.062C221.942 139.354 222.947 139 224.175 139C225.36 139 226.333 139.324 227.097 139.971C227.866 140.619 228.251 141.443 228.251 142.445C228.251 143.087 228.057 143.723 227.67 144.354C227.283 144.979 226.58 145.796 225.562 146.803L223.055 149.318V149.459H228.434V151.277H220.116V149.791L224.109 145.707C224.928 144.877 225.473 144.254 225.744 143.839C226.015 143.419 226.151 142.998 226.151 142.578C226.151 142.052 225.957 141.618 225.57 141.274C225.188 140.931 224.701 140.76 224.109 140.76C223.484 140.76 222.977 140.948 222.59 141.324C222.202 141.701 222.009 142.193 222.009 142.802V142.835H220V142.802Z" fill="#000"/>
<path fill-rule="evenodd" clip-rule="evenodd" d="M294.343 145.907L300.707 152.271C301.098 152.662 301.098 153.295 300.707 153.685L294.343 160.049C293.953 160.44 293.319 160.44 292.929 160.049C292.538 159.659 292.538 159.026 292.929 158.635L297.586 153.978L264 153.978L264 151.978L297.586 151.978L292.929 147.321C292.538 146.931 292.538 146.298 292.929 145.907C293.319 145.517 293.953 145.517 294.343 145.907Z" fill="#000"/>
<path fill-rule="evenodd" clip-rule="evenodd" d="M311.411 222.395L313.688 231.102C313.828 231.636 313.508 232.183 312.973 232.323L304.266 234.6C303.732 234.74 303.185 234.42 303.046 233.885C302.906 233.351 303.226 232.805 303.76 232.665L310.132 230.999L271.215 208.218L272.225 206.492L311.142 229.273L309.476 222.901C309.336 222.367 309.656 221.82 310.19 221.681C310.724 221.541 311.271 221.861 311.411 222.395Z" fill="#000"/>
<path fill-rule="evenodd" clip-rule="evenodd" d="M242.788 180.62L236.424 186.984C236.034 187.374 235.401 187.374 235.01 186.984L228.646 180.62C228.255 180.229 228.255 179.596 228.646 179.206C229.037 178.815 229.67 178.815 230.06 179.206L234.717 183.863L234.717 140.277L236.717 140.277L236.717 183.863L241.374 179.206C241.764 178.815 242.398 178.815 242.788 179.206C243.179 179.596 243.179 180.229 242.788 180.62Z" fill="#000"/>
<path fill-rule="evenodd" clip-rule="evenodd" d="M202.719 211.524C203.258 211.644 203.597 212.179 203.476 212.718L201.513 221.501C201.393 222.04 200.858 222.379 200.319 222.259C199.78 222.138 199.441 221.604 199.561 221.065L200.97 214.761C190.078 222.831 187.236 235.133 190.03 245.681C193 256.896 202.292 266 215 266V268C201.209 268 191.251 258.103 188.096 246.193C185.092 234.851 188.213 221.566 200.028 212.972L193.499 211.512C192.96 211.392 192.621 210.857 192.741 210.318C192.862 209.779 193.396 209.44 193.935 209.56L202.719 211.524Z" fill="#000"/>
</svg>
