<svg width="345" height="345" viewBox="0 0 345 345" fill="none" xmlns="http://www.w3.org/2000/svg">
<path d="M264.462 139.4C263.742 142.1 263.202 149.12 263.202 153.98C263.202 159.92 263.202 174.14 263.202 183.86C263.202 199.16 265.362 228.14 265.362 240.38C265.362 252.08 257.982 262.52 238.362 262.52C217.122 262.52 202.182 254.42 202.182 238.4C202.182 223.46 215.682 213.74 240.522 213.74C270.582 213.74 295.962 229.76 310.362 242.72L302.622 255.32C288.222 240.56 264.642 225.08 239.082 225.08C224.682 225.08 214.782 229.58 214.782 237.86C214.782 244.88 222.882 250.28 236.742 250.28C246.642 250.28 251.682 244.7 251.682 236.06C251.682 224 250.062 198.44 250.062 182.96C250.062 175.4 250.062 160.28 250.062 154.16C250.062 148.94 249.522 141.92 248.802 139.4H264.462ZM256.722 166.94C266.442 166.94 292.542 165.86 308.022 164.06L308.382 176.66C293.082 178.1 266.802 179.18 256.902 179.18L256.722 166.94Z" fill="#f00"/>
<path d="M133.637 107C137.957 112.94 144.617 123.92 148.397 131.84L139.037 136.34C135.077 127.52 130.037 118.34 124.637 110.78L133.637 107ZM152.537 99.6201C157.037 105.56 163.877 116.54 168.017 124.28L158.837 128.78C154.517 120.14 149.297 111.32 143.717 103.94L152.537 99.6201ZM22.2169 128.24C47.2369 131.3 70.8169 131.66 89.3569 130.04C104.117 128.6 117.617 125.72 127.877 122.3L129.857 135.26C119.957 138.14 106.817 140.84 92.4169 142.28C74.0569 143.9 48.8569 143.9 23.1169 141.56L22.2169 128.24ZM18.7969 165.32C49.3969 168.38 80.1769 168.02 101.057 165.5C118.157 163.52 132.917 159.92 142.457 157.04L144.617 170.54C134.717 173.24 121.037 175.76 106.097 177.74C83.7769 180.44 50.4769 180.98 19.5169 178.64L18.7969 165.32ZM80.1769 125.9C78.7369 120.68 77.1169 115.1 75.3169 109.88L90.6169 108.08C92.4169 123.02 97.8169 141.2 102.317 153.98C107.177 168.02 115.277 185.3 124.637 199.16C126.437 202.04 128.777 204.56 131.297 206.9L123.737 217.88C113.657 215.36 96.9169 213.56 84.4969 212.3L85.7569 201.32C95.2969 202.4 106.997 203.66 112.757 204.2C102.677 188.72 95.1169 171.44 89.8969 156.86C85.3969 144.62 82.6969 134.9 80.1769 125.9ZM44.8969 204.02C40.5769 210.14 37.3369 216.44 37.3369 224.36C37.3369 239.12 50.6569 246.68 78.9169 246.68C95.6569 246.68 108.797 245.42 121.757 242.9L121.217 257.12C108.617 259.28 94.3969 260.36 79.0969 260.36C43.8169 260.36 24.0169 249.92 23.8369 226.7C23.6569 216.44 26.8969 208.88 30.8569 200.96L44.8969 204.02Z" fill="#f00"/>
<path d="M21.4258 113.978V104.158H21.2847L18.3047 106.25V104.191L21.4341 102H23.5674V113.978H21.4258Z" fill="#000"/>
<path d="M6 142.802C6 141.684 6.38737 140.771 7.16211 140.062C7.94238 139.354 8.94678 139 10.1753 139C11.3595 139 12.3335 139.324 13.0972 139.971C13.8664 140.619 14.251 141.443 14.251 142.445C14.251 143.087 14.0573 143.723 13.6699 144.354C13.2826 144.979 12.5798 145.796 11.5615 146.803L9.05469 149.318V149.459H14.4336V151.277H6.11621V149.791L10.1089 145.707C10.9279 144.877 11.473 144.254 11.7441 143.839C12.0153 143.419 12.1509 142.998 12.1509 142.578C12.1509 142.052 11.9572 141.618 11.5698 141.274C11.188 140.931 10.701 140.76 10.1089 140.76C9.48356 140.76 8.97721 140.948 8.58984 141.324C8.20247 141.701 8.00879 142.193 8.00879 142.802V142.835H6V142.802Z" fill="#000"/>
<path d="M104.914 88.9644V87.3042H106.375C106.983 87.3042 107.479 87.1382 107.86 86.8062C108.242 86.4686 108.433 86.0314 108.433 85.4946C108.433 84.9634 108.245 84.54 107.869 84.2246C107.498 83.9036 107 83.7432 106.375 83.7432C105.755 83.7432 105.251 83.9064 104.864 84.2329C104.482 84.5594 104.272 85.0049 104.233 85.5693H102.232C102.288 84.4681 102.692 83.5993 103.444 82.9629C104.197 82.321 105.196 82 106.441 82C107.603 82 108.569 82.3044 109.338 82.9131C110.113 83.5163 110.5 84.2772 110.5 85.1958C110.5 85.8986 110.304 86.499 109.911 86.9971C109.523 87.4951 108.998 87.8133 108.333 87.9517V88.0928C109.153 88.1868 109.797 88.494 110.268 89.0142C110.743 89.5343 110.981 90.1929 110.981 90.9897C110.981 92.019 110.55 92.874 109.687 93.5547C108.829 94.2354 107.75 94.5757 106.449 94.5757C105.16 94.5757 104.108 94.2464 103.295 93.5879C102.487 92.9294 102.055 92.0522 102 90.9565H104.05C104.095 91.5099 104.335 91.9526 104.772 92.2847C105.21 92.6112 105.774 92.7744 106.466 92.7744C107.152 92.7744 107.711 92.5973 108.143 92.2432C108.58 91.8835 108.798 91.4214 108.798 90.8569C108.798 90.2703 108.585 89.8083 108.159 89.4707C107.733 89.1331 107.152 88.9644 106.416 88.9644H104.914Z" fill="#000"/>
<path fill-rule="evenodd" clip-rule="evenodd" d="M58.3431 111.907L64.7071 118.271C65.0976 118.662 65.0976 119.295 64.7071 119.685L58.3431 126.049C57.9526 126.44 57.3195 126.44 56.9289 126.049C56.5384 125.659 56.5384 125.026 56.9289 124.635L61.5858 119.978L18 119.978L18 117.978L61.5858 117.978L56.9289 113.321C56.5384 112.931 56.5384 112.298 56.9289 111.907C57.3195 111.517 57.9526 111.517 58.3431 111.907Z" fill="#000"/>
<path fill-rule="evenodd" clip-rule="evenodd" d="M7.73404 239.536L1.22859 238.01C0.690899 237.883 0.152772 238.217 0.0266494 238.755C-0.0994736 239.293 0.234168 239.831 0.771859 239.957L9.53404 242.012C10.0717 242.138 10.6099 241.805 10.736 241.267L12.7913 232.505C12.9174 231.967 12.5838 231.429 12.0461 231.303C11.5084 231.177 10.9702 231.51 10.8441 232.048L9.36616 238.349C3.07626 226.565 3.60574 212.718 11.521 203.503C19.8963 193.752 36.8926 188.801 63.9566 197.491L64.5681 195.587C37.1322 186.777 19.1285 191.576 10.0038 202.2C1.38436 212.235 1.00283 227.123 7.73404 239.536Z" fill="#000"/>
<path fill-rule="evenodd" clip-rule="evenodd" d="M107.861 116.098L102.829 123.559C102.52 124.017 101.899 124.138 101.441 123.829L93.9791 118.797C93.5213 118.488 93.4004 117.867 93.7092 117.409C94.018 116.951 94.6395 116.83 95.0974 117.139L100.558 120.821L94.0183 87.1912L95.9816 86.8094L102.521 120.44L106.203 114.979C106.512 114.522 107.133 114.401 107.591 114.71C108.049 115.018 108.17 115.64 107.861 116.098Z" fill="#000"/>
<path fill-rule="evenodd" clip-rule="evenodd" d="M71.3431 148.929L77.7071 155.293C78.0976 155.683 78.0976 156.316 77.7071 156.707L71.3431 163.071C70.9526 163.461 70.3195 163.461 69.9289 163.071C69.5384 162.68 69.5384 162.047 69.9289 161.657L74.5858 157L6 157L6 155L74.5858 155L69.9289 150.343C69.5384 149.952 69.5384 149.319 69.9289 148.929C70.3195 148.538 70.9526 148.538 71.3431 148.929Z" fill="#000"/>
<path d="M131.852 101.978V99.7451H126V97.8359C126.974 96.043 128.601 93.431 130.881 90H133.902V97.9355H135.521V99.7451H133.902V101.978H131.852ZM127.984 97.8608V97.9854H131.885V91.7432H131.769C130.474 93.6579 129.212 95.6971 127.984 97.8608Z" fill="#000"/>
<path d="M155.831 96.2769C154.597 96.2769 153.584 95.9393 152.793 95.2642C152.002 94.589 151.581 93.7202 151.531 92.6577H153.54C153.606 93.2056 153.853 93.6483 154.279 93.9858C154.705 94.3234 155.228 94.4922 155.848 94.4922C156.55 94.4922 157.118 94.2764 157.549 93.8447C157.986 93.4076 158.205 92.832 158.205 92.1182C158.205 91.4043 157.986 90.826 157.549 90.3833C157.118 89.9351 156.556 89.7109 155.864 89.7109C155.377 89.7109 154.943 89.8133 154.561 90.0181C154.185 90.2228 153.886 90.5133 153.665 90.8896H151.722L152.345 84H159.558V85.8096H154.005L153.714 89.1714H153.855C154.409 88.4243 155.253 88.0508 156.387 88.0508C157.522 88.0508 158.451 88.4271 159.176 89.1797C159.907 89.9323 160.272 90.8952 160.272 92.0684C160.272 93.319 159.862 94.3345 159.043 95.1147C158.23 95.8895 157.159 96.2769 155.831 96.2769Z" fill="#000"/>
<path d="M274.398 147.978V138.158H274.257L271.277 140.25V138.191L274.407 136H276.54V147.978H274.398Z" fill="#000"/>
<path d="M225.974 142.802C225.974 141.684 226.361 140.771 227.136 140.062C227.916 139.354 228.92 139 230.149 139C231.333 139 232.307 139.324 233.071 139.971C233.84 140.619 234.225 141.443 234.225 142.445C234.225 143.087 234.031 143.723 233.644 144.354C233.256 144.979 232.553 145.796 231.535 146.803L229.028 149.318V149.459H234.407V151.277H226.09V149.791L230.083 145.707C230.902 144.877 231.447 144.254 231.718 143.839C231.989 143.419 232.125 142.998 232.125 142.578C232.125 142.052 231.931 141.618 231.543 141.274C231.162 140.931 230.675 140.76 230.083 140.76C229.457 140.76 228.951 140.948 228.563 141.324C228.176 141.701 227.982 142.193 227.982 142.802V142.835H225.974V142.802Z" fill="#000"/>
<path fill-rule="evenodd" clip-rule="evenodd" d="M300.317 145.907L306.681 152.271C307.071 152.662 307.071 153.295 306.681 153.685L300.317 160.049C299.926 160.44 299.293 160.44 298.903 160.049C298.512 159.659 298.512 159.026 298.903 158.635L303.559 153.978L269.974 153.978L269.974 151.978L303.559 151.978L298.903 147.321C298.512 146.931 298.512 146.298 298.903 145.907C299.293 145.517 299.926 145.517 300.317 145.907Z" fill="#000"/>
<path fill-rule="evenodd" clip-rule="evenodd" d="M317.384 222.395L319.661 231.102C319.801 231.636 319.481 232.183 318.947 232.323L310.24 234.6C309.706 234.74 309.159 234.42 309.019 233.885C308.88 233.351 309.199 232.805 309.734 232.665L316.105 230.999L277.189 208.218L278.199 206.492L317.116 229.273L315.449 222.901C315.309 222.367 315.629 221.82 316.164 221.681C316.698 221.541 317.244 221.861 317.384 222.395Z" fill="#000"/>
<path fill-rule="evenodd" clip-rule="evenodd" d="M248.762 180.62L242.398 186.984C242.007 187.374 241.374 187.374 240.984 186.984L234.62 180.62C234.229 180.229 234.229 179.596 234.62 179.206C235.01 178.815 235.643 178.815 236.034 179.206L240.691 183.863L240.691 140.277L242.691 140.277L242.691 183.863L247.348 179.206C247.738 178.815 248.371 178.815 248.762 179.206C249.152 179.596 249.152 180.229 248.762 180.62Z" fill="#000"/>
<path fill-rule="evenodd" clip-rule="evenodd" d="M208.692 211.524C209.231 211.644 209.57 212.179 209.45 212.718L207.487 221.501C207.366 222.04 206.832 222.379 206.293 222.259C205.754 222.138 205.414 221.604 205.535 221.065L206.944 214.761C196.051 222.831 193.209 235.133 196.003 245.681C198.974 256.896 208.265 266 220.974 266V268C207.183 268 197.224 258.103 194.07 246.193C191.066 234.851 194.187 221.566 206.001 212.972L199.473 211.512C198.934 211.392 198.594 210.857 198.715 210.318C198.835 209.779 199.37 209.44 199.909 209.56L208.692 211.524Z" fill="#000"/>
</svg>
