<svg width="345" height="345" viewBox="0 0 345 345" fill="none" xmlns="http://www.w3.org/2000/svg">
<path d="M258.66 139.4C257.94 142.1 257.4 149.12 257.4 153.98C257.4 159.92 257.4 174.14 257.4 183.86C257.4 199.16 259.56 228.14 259.56 240.38C259.56 252.08 252.18 262.52 232.56 262.52C211.32 262.52 196.38 254.42 196.38 238.4C196.38 223.46 209.88 213.74 234.72 213.74C264.78 213.74 290.16 229.76 304.56 242.72L296.82 255.32C282.42 240.56 258.84 225.08 233.28 225.08C218.88 225.08 208.98 229.58 208.98 237.86C208.98 244.88 217.08 250.28 230.94 250.28C240.84 250.28 245.88 244.7 245.88 236.06C245.88 224 244.26 198.44 244.26 182.96C244.26 175.4 244.26 160.28 244.26 154.16C244.26 148.94 243.72 141.92 243 139.4H258.66ZM250.92 166.94C260.64 166.94 286.74 165.86 302.22 164.06L302.58 176.66C287.28 178.1 261 179.18 251.1 179.18L250.92 166.94Z" fill="#f00"/>
<path d="M42.14 119.06C46.64 119.42 51.86 119.6 55.64 119.6C65.18 119.6 88.76 118.52 96.32 117.8C99.74 117.62 102.8 116.9 105.32 116L114.32 123.2C112.52 125.18 111.08 126.98 109.64 129.32C103.88 138.68 93.98 161.72 85.7 180.26C78.5 196.1 68.6 220.58 60.86 231.74C54.56 240.92 47.54 244.34 38.18 244.34C24.86 244.34 14.96 234.62 14.96 219.68C14.96 192.5 40.52 171.8 77.06 171.8C117.56 171.8 153.2 193.4 172.64 207.26L165.98 222.56C144.92 204.38 111.98 184.4 74.9 184.4C45.02 184.4 27.92 201.14 27.92 217.7C27.92 225.8 33.14 229.94 38.72 229.94C42.86 229.94 45.92 228.5 49.7 223.64C57.08 213.92 65.18 193.04 72.02 177.92C79.22 162.26 87.32 143.72 93.44 130.94C86.24 131.12 64.28 132.2 56.18 132.56C52.22 132.74 47 133.28 42.68 133.82L42.14 119.06ZM154.64 158.48C152.12 209.78 141.68 240.92 99.74 261.98L87.86 252.08C130.16 234.26 137.9 200.24 139.88 173.6C140.24 168.2 140.42 162.08 139.88 156.86L154.64 158.48Z" fill="#f00"/>
<path d="M48.1211 107.978V98.1582H47.98L45 100.25V98.1914L48.1294 96H50.2627V107.978H48.1211Z" fill="#000"/>
<path fill-rule="evenodd" clip-rule="evenodd" d="M169.863 187.126L163.072 193.031C162.655 193.394 162.023 193.349 161.661 192.933L155.755 186.141C155.393 185.725 155.437 185.093 155.854 184.73C156.271 184.368 156.902 184.412 157.265 184.829L161.586 189.799L164.418 149.207L166.413 149.346L163.581 189.938L168.551 185.616C168.968 185.254 169.599 185.298 169.962 185.715C170.324 186.132 170.28 186.763 169.863 187.126Z" fill="#000"/>
<path fill-rule="evenodd" clip-rule="evenodd" d="M128.644 108L102.969 168.804L109.16 166.555C109.679 166.367 110.252 166.635 110.441 167.154C110.629 167.673 110.361 168.247 109.842 168.435L101.383 171.508C100.864 171.696 100.29 171.428 100.102 170.909L97.0294 162.45C96.8409 161.931 97.1088 161.357 97.628 161.168C98.1471 160.98 98.7207 161.248 98.9093 161.767L101.157 167.957L125.439 110.135L41.0833 113.067L41 111.069L128.644 108Z" fill="#000"/>
<path fill-rule="evenodd" clip-rule="evenodd" d="M15.7866 186.019C16.3285 185.912 16.8542 186.265 16.9608 186.807L18.698 195.638C18.8046 196.18 18.4517 196.706 17.9098 196.812C17.3679 196.919 16.8422 196.566 16.7356 196.024L15.4741 189.611C4.62285 206.851 3.80106 222.545 9.43916 233.996C15.3017 245.902 28.2832 253.5 44.9795 253.5V255.5C27.6758 255.5 13.9073 247.598 7.64487 234.879C1.60744 222.618 2.67136 206.14 13.8495 188.438L7.34184 189.719C6.79994 189.825 6.27423 189.472 6.16763 188.93C6.06102 188.389 6.4139 187.863 6.9558 187.756L15.7866 186.019Z" fill="#000"/>
<path d="M268.425 147.978V138.158H268.284L265.304 140.25V138.191L268.433 136H270.566V147.978H268.425Z" fill="#000"/>
<path d="M220 142.802C220 141.684 220.387 140.771 221.162 140.062C221.942 139.354 222.947 139 224.175 139C225.36 139 226.333 139.324 227.097 139.971C227.866 140.619 228.251 141.443 228.251 142.445C228.251 143.087 228.057 143.723 227.67 144.354C227.283 144.979 226.58 145.796 225.562 146.803L223.055 149.318V149.459H228.434V151.277H220.116V149.791L224.109 145.707C224.928 144.877 225.473 144.254 225.744 143.839C226.015 143.419 226.151 142.998 226.151 142.578C226.151 142.052 225.957 141.618 225.57 141.274C225.188 140.931 224.701 140.76 224.109 140.76C223.484 140.76 222.977 140.948 222.59 141.324C222.202 141.701 222.009 142.193 222.009 142.802V142.835H220V142.802Z" fill="#000"/>
<path fill-rule="evenodd" clip-rule="evenodd" d="M294.343 145.907L300.707 152.271C301.098 152.662 301.098 153.295 300.707 153.685L294.343 160.049C293.953 160.44 293.319 160.44 292.929 160.049C292.538 159.659 292.538 159.026 292.929 158.635L297.586 153.978L264 153.978L264 151.978L297.586 151.978L292.929 147.321C292.538 146.931 292.538 146.298 292.929 145.907C293.319 145.517 293.953 145.517 294.343 145.907Z" fill="#000"/>
<path fill-rule="evenodd" clip-rule="evenodd" d="M311.411 222.395L313.688 231.102C313.828 231.636 313.508 232.183 312.973 232.323L304.266 234.6C303.732 234.74 303.185 234.42 303.046 233.885C302.906 233.351 303.226 232.805 303.76 232.665L310.132 230.999L271.215 208.218L272.225 206.492L311.142 229.273L309.476 222.901C309.336 222.367 309.656 221.82 310.19 221.681C310.724 221.541 311.271 221.861 311.411 222.395Z" fill="#000"/>
<path fill-rule="evenodd" clip-rule="evenodd" d="M242.788 180.62L236.424 186.984C236.034 187.374 235.401 187.374 235.01 186.984L228.646 180.62C228.255 180.229 228.255 179.596 228.646 179.206C229.037 178.815 229.67 178.815 230.06 179.206L234.717 183.863L234.717 140.277L236.717 140.277L236.717 183.863L241.374 179.206C241.764 178.815 242.398 178.815 242.788 179.206C243.179 179.596 243.179 180.229 242.788 180.62Z" fill="#000"/>
<path fill-rule="evenodd" clip-rule="evenodd" d="M202.719 211.524C203.258 211.644 203.597 212.179 203.476 212.718L201.513 221.501C201.393 222.04 200.858 222.379 200.319 222.259C199.78 222.138 199.441 221.604 199.561 221.065L200.97 214.761C190.078 222.831 187.236 235.133 190.03 245.681C193 256.896 202.292 266 215 266V268C201.209 268 191.251 258.103 188.096 246.193C185.092 234.851 188.213 221.566 200.028 212.972L193.499 211.512C192.96 211.392 192.621 210.857 192.741 210.318C192.862 209.779 193.396 209.44 193.935 209.56L202.719 211.524Z" fill="#000"/>
<path d="M149 143.802C149 142.684 149.387 141.771 150.162 141.062C150.942 140.354 151.947 140 153.175 140C154.36 140 155.333 140.324 156.097 140.971C156.866 141.619 157.251 142.443 157.251 143.445C157.251 144.087 157.057 144.723 156.67 145.354C156.283 145.979 155.58 146.796 154.562 147.803L152.055 150.318V150.459H157.434V152.277H149.116V150.791L153.109 146.707C153.928 145.877 154.473 145.254 154.744 144.839C155.015 144.419 155.151 143.998 155.151 143.578C155.151 143.052 154.957 142.618 154.57 142.274C154.188 141.931 153.701 141.76 153.109 141.76C152.484 141.76 151.977 141.948 151.59 142.324C151.202 142.701 151.009 143.193 151.009 143.802V143.835H149V143.802Z" fill="#000"/>
</svg>
