<svg width="345" height="345" viewBox="0 0 345 345" fill="none" xmlns="http://www.w3.org/2000/svg">
<path d="M258.66 139.4C257.94 142.1 257.4 149.12 257.4 153.98C257.4 159.92 257.4 174.14 257.4 183.86C257.4 199.16 259.56 228.14 259.56 240.38C259.56 252.08 252.18 262.52 232.56 262.52C211.32 262.52 196.38 254.42 196.38 238.4C196.38 223.46 209.88 213.74 234.72 213.74C264.78 213.74 290.16 229.76 304.56 242.72L296.82 255.32C282.42 240.56 258.84 225.08 233.28 225.08C218.88 225.08 208.98 229.58 208.98 237.86C208.98 244.88 217.08 250.28 230.94 250.28C240.84 250.28 245.88 244.7 245.88 236.06C245.88 224 244.26 198.44 244.26 182.96C244.26 175.4 244.26 160.28 244.26 154.16C244.26 148.94 243.72 141.92 243 139.4H258.66ZM250.92 166.94C260.64 166.94 286.74 165.86 302.22 164.06L302.58 176.66C287.28 178.1 261 179.18 251.1 179.18L250.92 166.94Z" fill="#f00"/>
<path d="M78.1402 110.06C76.7002 114.92 75.8002 120.5 74.7202 125.18C72.2002 139.58 65.0002 174.32 58.8802 191.06C74.5402 180.08 90.7402 175.58 109.46 175.58C138.08 175.58 154.82 190.16 154.82 211.22C154.82 248.84 116.48 262.7 61.7602 256.94L57.9802 242.54C99.7402 248.3 140.06 241.28 140.06 211.58C140.06 198.26 129.08 187.82 108.02 187.82C86.6002 187.82 66.6202 195.2 54.7402 209.42C52.5802 212.12 50.9602 214.64 49.1602 217.7L35.8402 213.02C49.5202 186.2 59.0602 141.56 61.2202 124.28C61.9402 118.52 62.3002 114.2 61.9402 109.34L78.1402 110.06ZM22.1602 133.1C31.7002 134.72 45.3802 135.98 56.1802 135.98C79.2202 135.98 114.68 133.28 142.94 126.98L143.3 140.84C117.74 145.34 81.0202 148.94 56.3602 148.94C44.1202 148.94 32.6002 148.04 22.3402 147.14L22.1602 133.1Z" fill="#f00"/>
<path d="M27.1211 118.978V109.158H26.98L24 111.25V109.191L27.1294 107H29.2627V118.978H27.1211Z" fill="#000"/>
<path d="M99.7119 94.7358C99.7119 93.618 100.099 92.7049 100.874 91.9966C101.654 91.2882 102.659 90.9341 103.887 90.9341C105.071 90.9341 106.045 91.2578 106.809 91.9053C107.578 92.5527 107.963 93.3773 107.963 94.3789C107.963 95.0208 107.769 95.6572 107.382 96.2881C106.994 96.9134 106.292 97.7297 105.273 98.7368L102.767 101.252V101.393H108.146V103.211H99.8281V101.725L103.821 97.6411C104.64 96.811 105.185 96.1885 105.456 95.7734C105.727 95.3529 105.863 94.9323 105.863 94.5117C105.863 93.986 105.669 93.5516 105.282 93.2085C104.9 92.8654 104.413 92.6938 103.821 92.6938C103.195 92.6938 102.689 92.882 102.302 93.2583C101.914 93.6346 101.721 94.1271 101.721 94.7358V94.769H99.7119V94.7358Z" fill="#000"/>
<path fill-rule="evenodd" clip-rule="evenodd" d="M94.3335 124.793L87.0099 130.024C86.5604 130.346 85.9359 130.241 85.6149 129.792L80.3837 122.468C80.0627 122.019 80.1668 121.394 80.6162 121.073C81.0656 120.752 81.6902 120.857 82.0112 121.306L85.8391 126.665L92.4422 87.0464L94.415 87.3752L87.8119 126.994L93.171 123.166C93.6204 122.845 94.2449 122.949 94.566 123.398C94.887 123.848 94.7829 124.472 94.3335 124.793Z" fill="#000"/>
<path fill-rule="evenodd" clip-rule="evenodd" d="M161.434 241.401C160.936 241.641 160.339 241.431 160.099 240.934L156.195 232.825C155.955 232.327 156.164 231.73 156.662 231.49C157.16 231.25 157.757 231.46 157.997 231.957L160.837 237.856C168.507 214.261 165.054 196.759 156.566 185.088C147.779 173.006 133.474 167 120 167L120 165C134.026 165 148.971 171.244 158.184 183.912C167.143 196.23 170.568 214.461 162.709 238.567L168.675 235.695C169.173 235.455 169.771 235.664 170.01 236.162C170.25 236.659 170.041 237.257 169.543 237.497L161.434 241.401Z" fill="#000"/>
<path fill-rule="evenodd" clip-rule="evenodd" d="M48.3431 118.929L54.7071 125.293C55.0976 125.683 55.0976 126.317 54.7071 126.707L48.3431 133.071C47.9526 133.462 47.3195 133.462 46.9289 133.071C46.5384 132.68 46.5384 132.047 46.9289 131.657L51.5858 127H21V125H51.5858L46.9289 120.343C46.5384 119.953 46.5384 119.319 46.9289 118.929C47.3195 118.538 47.9526 118.538 48.3431 118.929Z" fill="#000"/>
<path d="M268.425 147.978V138.158H268.284L265.304 140.25V138.191L268.433 136H270.566V147.978H268.425Z" fill="#000"/>
<path d="M220 142.802C220 141.684 220.387 140.771 221.162 140.062C221.942 139.354 222.947 139 224.175 139C225.36 139 226.333 139.324 227.097 139.971C227.866 140.619 228.251 141.443 228.251 142.445C228.251 143.087 228.057 143.723 227.67 144.354C227.283 144.979 226.58 145.796 225.562 146.803L223.055 149.318V149.459H228.434V151.277H220.116V149.791L224.109 145.707C224.928 144.877 225.473 144.254 225.744 143.839C226.015 143.419 226.151 142.998 226.151 142.578C226.151 142.052 225.957 141.618 225.57 141.274C225.188 140.931 224.701 140.76 224.109 140.76C223.484 140.76 222.977 140.948 222.59 141.324C222.202 141.701 222.009 142.193 222.009 142.802V142.835H220V142.802Z" fill="#000"/>
<path fill-rule="evenodd" clip-rule="evenodd" d="M294.343 145.907L300.707 152.271C301.098 152.661 301.098 153.295 300.707 153.685L294.343 160.049C293.953 160.44 293.319 160.44 292.929 160.049C292.538 159.659 292.538 159.025 292.929 158.635L297.586 153.978L264 153.978L264 151.978L297.586 151.978L292.929 147.321C292.538 146.931 292.538 146.297 292.929 145.907C293.319 145.516 293.953 145.516 294.343 145.907Z" fill="#000"/>
<path fill-rule="evenodd" clip-rule="evenodd" d="M311.411 222.395L313.688 231.102C313.828 231.636 313.508 232.183 312.973 232.323L304.266 234.6C303.732 234.74 303.185 234.42 303.046 233.885C302.906 233.351 303.226 232.805 303.76 232.665L310.132 230.999L271.215 208.218L272.225 206.492L311.142 229.273L309.476 222.901C309.336 222.367 309.656 221.82 310.19 221.681C310.724 221.541 311.271 221.861 311.411 222.395Z" fill="#000"/>
<path fill-rule="evenodd" clip-rule="evenodd" d="M242.788 180.62L236.424 186.984C236.034 187.374 235.401 187.374 235.01 186.984L228.646 180.62C228.255 180.229 228.255 179.596 228.646 179.206C229.037 178.815 229.67 178.815 230.06 179.206L234.717 183.863L234.717 140.277L236.717 140.277L236.717 183.863L241.374 179.206C241.764 178.815 242.398 178.815 242.788 179.206C243.179 179.596 243.179 180.229 242.788 180.62Z" fill="#000"/>
<path fill-rule="evenodd" clip-rule="evenodd" d="M202.719 211.524C203.258 211.644 203.597 212.179 203.476 212.718L201.513 221.501C201.393 222.04 200.858 222.38 200.319 222.259C199.78 222.139 199.441 221.604 199.561 221.065L200.97 214.761C190.078 222.832 187.236 235.133 190.03 245.681C193 256.896 202.292 266 215 266V268C201.209 268 191.251 258.104 188.096 246.193C185.092 234.851 188.213 221.566 200.028 212.972L193.499 211.513C192.96 211.392 192.621 210.857 192.741 210.318C192.862 209.779 193.396 209.44 193.935 209.561L202.719 211.524Z" fill="#000"/>
</svg>
