<svg width="345" height="345" viewBox="0 0 345 345" fill="none" xmlns="http://www.w3.org/2000/svg">
<path d="M268.444 139.4C267.724 142.1 267.184 149.12 267.184 153.98C267.184 159.92 267.184 174.14 267.184 183.86C267.184 199.16 269.344 228.14 269.344 240.38C269.344 252.08 261.964 262.52 242.344 262.52C221.104 262.52 206.164 254.42 206.164 238.4C206.164 223.46 219.664 213.74 244.504 213.74C274.564 213.74 299.944 229.76 314.344 242.72L306.604 255.32C292.204 240.56 268.624 225.08 243.064 225.08C228.664 225.08 218.764 229.58 218.764 237.86C218.764 244.88 226.864 250.28 240.724 250.28C250.624 250.28 255.664 244.7 255.664 236.06C255.664 224 254.044 198.44 254.044 182.96C254.044 175.4 254.044 160.28 254.044 154.16C254.044 148.94 253.504 141.92 252.784 139.4H268.444ZM260.704 166.94C270.424 166.94 296.524 165.86 312.004 164.06L312.364 176.66C297.064 178.1 270.784 179.18 260.884 179.18L260.704 166.94Z" fill="#f00"/>
<path d="M120.734 120.86C124.514 142.64 132.434 173.24 158.894 197.18L149.534 209.78C129.554 188.54 117.314 161.72 106.694 124.82L120.734 120.86ZM8.23438 130.4C10.9344 130.58 14.7144 130.58 17.9544 130.4C33.9744 129.68 64.2144 125.54 74.8344 121.4L78.9744 134.18C76.6344 134.9 72.1344 136.16 69.4344 137.24C58.0944 145.7 30.5544 177.2 30.5544 214.28C30.5544 239.66 47.2944 248.12 65.8344 248.12C108.674 248.12 123.254 202.04 109.574 131.48L122.714 155.78C132.074 207.26 121.814 262.88 65.4744 262.88C37.0344 262.88 16.5144 247.04 16.5144 217.34C16.5144 183.68 34.1544 157.94 49.9944 139.94C40.8144 141.38 26.0544 143.18 19.5744 144.08C16.1544 144.44 13.0944 144.98 9.31437 145.52L8.23438 130.4ZM137.294 123.74C137.294 130.04 142.334 135.26 148.814 135.26C155.294 135.26 160.334 130.04 160.334 123.74C160.334 117.26 155.294 112.04 148.814 112.04C142.514 112.04 137.294 117.26 137.294 123.74ZM129.014 123.74C129.014 112.76 137.834 103.76 148.814 103.76C159.794 103.76 168.794 112.76 168.794 123.74C168.794 134.54 159.794 143.54 148.814 143.54C137.834 143.54 129.014 134.54 129.014 123.74Z" fill="#f00"/>
<path d="M278.398 147.978V138.158H278.257L275.277 140.25V138.191L278.407 136H280.54V147.978H278.398Z" fill="#000"/>
<path d="M229.974 142.802C229.974 141.684 230.361 140.771 231.136 140.062C231.916 139.354 232.92 139 234.149 139C235.333 139 236.307 139.324 237.071 139.971C237.84 140.619 238.225 141.443 238.225 142.445C238.225 143.087 238.031 143.723 237.644 144.354C237.256 144.979 236.553 145.796 235.535 146.803L233.028 149.318V149.459H238.407V151.277H230.09V149.791L234.083 145.707C234.902 144.877 235.447 144.254 235.718 143.839C235.989 143.419 236.125 142.998 236.125 142.578C236.125 142.052 235.931 141.618 235.543 141.274C235.162 140.931 234.675 140.76 234.083 140.76C233.457 140.76 232.951 140.948 232.563 141.324C232.176 141.701 231.982 142.193 231.982 142.802V142.835H229.974V142.802Z" fill="#000"/>
<path fill-rule="evenodd" clip-rule="evenodd" d="M304.317 145.907L310.681 152.271C311.071 152.662 311.071 153.295 310.681 153.685L304.317 160.049C303.926 160.44 303.293 160.44 302.903 160.049C302.512 159.659 302.512 159.026 302.903 158.635L307.559 153.978L273.974 153.978L273.974 151.978L307.559 151.978L302.903 147.321C302.512 146.931 302.512 146.298 302.903 145.907C303.293 145.517 303.926 145.517 304.317 145.907Z" fill="#000"/>
<path fill-rule="evenodd" clip-rule="evenodd" d="M321.384 222.395L323.661 231.102C323.801 231.636 323.481 232.183 322.947 232.323L314.24 234.6C313.706 234.74 313.159 234.42 313.019 233.885C312.88 233.351 313.199 232.805 313.734 232.665L320.105 230.999L281.189 208.218L282.199 206.492L321.116 229.273L319.449 222.901C319.309 222.367 319.629 221.82 320.164 221.681C320.698 221.541 321.244 221.861 321.384 222.395Z" fill="#000"/>
<path fill-rule="evenodd" clip-rule="evenodd" d="M252.762 180.62L246.398 186.984C246.007 187.375 245.374 187.375 244.984 186.984L238.62 180.62C238.229 180.23 238.229 179.597 238.62 179.206C239.01 178.816 239.643 178.816 240.034 179.206L244.691 183.863L244.691 140.277L246.691 140.277L246.691 183.863L251.348 179.206C251.738 178.816 252.371 178.816 252.762 179.206C253.152 179.597 253.152 180.23 252.762 180.62Z" fill="#000"/>
<path fill-rule="evenodd" clip-rule="evenodd" d="M212.692 211.524C213.231 211.644 213.57 212.179 213.45 212.718L211.487 221.501C211.366 222.04 210.832 222.379 210.293 222.259C209.754 222.138 209.414 221.604 209.535 221.065L210.944 214.761C200.051 222.831 197.209 235.133 200.003 245.681C202.974 256.896 212.265 266 224.974 266V268C211.183 268 201.224 258.103 198.07 246.193C195.066 234.851 198.187 221.566 210.001 212.972L203.473 211.512C202.934 211.392 202.594 210.857 202.715 210.318C202.835 209.779 203.37 209.44 203.909 209.56L212.692 211.524Z" fill="#000"/>
<path d="M158 90.8018C158 89.6839 158.387 88.7708 159.162 88.0625C159.942 87.3542 160.947 87 162.175 87C163.36 87 164.333 87.3237 165.097 87.9712C165.866 88.6187 166.251 89.4432 166.251 90.4448C166.251 91.0868 166.057 91.7231 165.67 92.354C165.283 92.9793 164.58 93.7956 163.562 94.8027L161.055 97.3179V97.459H166.434V99.2769H158.116V97.791L162.109 93.707C162.928 92.877 163.473 92.2544 163.744 91.8394C164.015 91.4188 164.151 90.9982 164.151 90.5776C164.151 90.0519 163.957 89.6175 163.57 89.2744C163.188 88.9313 162.701 88.7598 162.109 88.7598C161.484 88.7598 160.977 88.9479 160.59 89.3242C160.202 89.7005 160.009 90.193 160.009 90.8018V90.835H158V90.8018Z" fill="#000"/>
<path d="M13.0205 113.978V104.158H12.8794L9.89941 106.25V104.191L13.0288 102H15.1621V113.978H13.0205Z" fill="#000"/>
<path fill-rule="evenodd" clip-rule="evenodd" d="M63.0198 107.752L70.1984 113.18C70.6389 113.514 70.726 114.141 70.3929 114.581L64.9645 121.76C64.6314 122.2 64.0042 122.287 63.5637 121.954C63.1232 121.621 63.0361 120.994 63.3693 120.554L67.3415 115.301L9.15013 123.379L8.87511 121.398L67.0665 113.32L61.8135 109.347C61.373 109.014 61.2859 108.387 61.619 107.947C61.9521 107.506 62.5793 107.419 63.0198 107.752Z" fill="#000"/>
<path fill-rule="evenodd" clip-rule="evenodd" d="M103.343 122.935C103.097 131.196 104.361 142.323 107.473 155.265L105.528 155.733C102.389 142.675 101.091 131.365 101.344 122.876C101.471 118.635 101.986 115.056 102.877 112.301C103.758 109.577 105.063 107.49 106.899 106.495C108.816 105.457 111.014 105.758 113.274 107.148C115.511 108.524 117.94 111.032 120.535 114.704C125.519 121.754 131.299 133.357 137.612 150.399L140.405 144.422C140.638 143.922 141.234 143.706 141.734 143.94C142.234 144.174 142.45 144.769 142.217 145.269L138.406 153.423C138.172 153.923 137.577 154.139 137.077 153.905L128.923 150.095C128.423 149.861 128.207 149.266 128.441 148.765C128.674 148.265 129.27 148.049 129.77 148.283L135.726 151.066C129.442 134.107 123.738 122.699 118.902 115.858C116.373 112.28 114.13 110.022 112.226 108.851C110.345 107.694 108.934 107.667 107.851 108.254C106.687 108.884 105.602 110.375 104.78 112.917C103.968 115.427 103.467 118.802 103.343 122.935Z" fill="#000"/>
</svg>
