<svg width="345" height="345" viewBox="0 0 345 345" fill="none" xmlns="http://www.w3.org/2000/svg">
<path d="M216.36 148.94C215.64 151.1 214.92 153.98 214.38 156.32C212.22 165.86 209.34 187.1 209.88 198.8C220.32 173.42 245.88 157.76 270.54 157.76C300.6 157.76 315.9 175.76 315.9 197.9C315.9 222.2 301.5 242.72 269.28 242.72C251.82 242.72 235.62 233.36 227.16 215.9L234.72 205.64C241.74 220.4 252.9 229.58 269.28 229.58C292.14 229.58 302.94 216.44 302.94 198.26C302.94 182.78 293.58 169.64 270.18 169.64C238.86 169.64 217.98 194.12 213.48 215.72C212.76 218.24 212.22 221.3 212.4 224.72C212.58 227.96 213.66 235.52 214.56 239.3L202.5 240.92C199.62 231.92 197.28 216.98 197.28 202.76C197.28 185.3 200.16 163.34 201.24 155.24C201.42 152.36 201.6 149.84 201.42 147.86L216.36 148.94ZM268.56 140.3C270.72 150.74 273.6 171.98 273.6 193.4C273.6 224.54 266.4 250.82 242.64 266.3L230.4 258.74C254.34 245.42 261 221.3 261 192.5C261 171.44 258.66 157.04 257.04 149.12C256.32 146.06 255.42 143.18 254.52 140.66L268.56 140.3Z" fill="#f00"/>
<path d="M34.2201 127.7C59.2401 130.76 82.8201 131.12 101.18 129.32C115.94 128.06 130.7 125 143.66 120.68L145.64 133.82C133.94 137.24 118.64 140.3 104.24 141.56C86.0601 143.36 60.8601 143.36 35.1201 140.84L34.2201 127.7ZM30.6201 164.6C61.4001 167.84 92.0001 167.3 113.06 164.78C130.16 162.98 144.74 159.38 154.28 156.5L156.62 169.82C146.72 172.52 133.04 175.22 117.92 177.02C95.7801 179.9 62.4801 180.44 31.5201 178.1L30.6201 164.6ZM92.1801 125.36C90.7401 120.14 89.1201 114.56 87.1401 109.34L102.44 107.36C104.24 122.48 109.82 140.66 114.32 153.44C119.18 167.48 127.1 184.76 136.46 198.62C138.44 201.5 140.6 204.02 143.3 206.36L135.74 217.34C125.66 214.82 108.92 213.02 96.5001 211.76L97.5801 200.78C107.3 201.68 119 202.94 124.58 203.66C114.68 188.18 107.12 170.9 101.9 156.32C97.4001 143.9 94.7001 134.36 92.1801 125.36ZM56.9001 203.48C52.5801 209.6 49.3401 215.72 49.3401 223.82C49.3401 238.58 62.4801 246.14 90.7401 246.14C107.48 246.14 120.62 244.88 133.76 242.36L133.04 256.58C120.44 258.74 106.4 259.82 90.9201 259.82C55.8201 259.82 36.0201 249.38 35.6601 226.16C35.6601 215.9 38.7201 208.34 42.8601 200.42L56.9001 203.48Z" fill="#f00"/>
<path d="M36.4258 112.978V103.158H36.2847L33.3047 105.25V103.191L36.4341 101H38.5674V112.978H36.4258Z" fill="#000"/>
<path d="M21 141.802C21 140.684 21.3874 139.771 22.1621 139.062C22.9424 138.354 23.9468 138 25.1753 138C26.3595 138 27.3335 138.324 28.0972 138.971C28.8664 139.619 29.251 140.443 29.251 141.445C29.251 142.087 29.0573 142.723 28.6699 143.354C28.2826 143.979 27.5798 144.796 26.5615 145.803L24.0547 148.318V148.459H29.4336V150.277H21.1162V148.791L25.1089 144.707C25.9279 143.877 26.473 143.254 26.7441 142.839C27.0153 142.419 27.1509 141.998 27.1509 141.578C27.1509 141.052 26.9572 140.618 26.5698 140.274C26.188 139.931 25.701 139.76 25.1089 139.76C24.4836 139.76 23.9772 139.948 23.5898 140.324C23.2025 140.701 23.0088 141.193 23.0088 141.802V141.835H21V141.802Z" fill="#000"/>
<path d="M119.914 87.9644V86.3042H121.375C121.983 86.3042 122.479 86.1382 122.86 85.8062C123.242 85.4686 123.433 85.0314 123.433 84.4946C123.433 83.9634 123.245 83.54 122.869 83.2246C122.498 82.9036 122 82.7432 121.375 82.7432C120.755 82.7432 120.251 82.9064 119.864 83.2329C119.482 83.5594 119.272 84.0049 119.233 84.5693H117.232C117.288 83.4681 117.692 82.5993 118.444 81.9629C119.197 81.321 120.196 81 121.441 81C122.603 81 123.569 81.3044 124.338 81.9131C125.113 82.5163 125.5 83.2772 125.5 84.1958C125.5 84.8986 125.304 85.499 124.911 85.9971C124.523 86.4951 123.998 86.8133 123.333 86.9517V87.0928C124.153 87.1868 124.797 87.494 125.268 88.0142C125.743 88.5343 125.981 89.1929 125.981 89.9897C125.981 91.019 125.55 91.874 124.687 92.5547C123.829 93.2354 122.75 93.5757 121.449 93.5757C120.16 93.5757 119.108 93.2464 118.295 92.5879C117.487 91.9294 117.055 91.0522 117 89.9565H119.05C119.095 90.5099 119.335 90.9526 119.772 91.2847C120.21 91.6112 120.774 91.7744 121.466 91.7744C122.152 91.7744 122.711 91.5973 123.143 91.2432C123.58 90.8835 123.798 90.4214 123.798 89.8569C123.798 89.2703 123.585 88.8083 123.159 88.4707C122.733 88.1331 122.152 87.9644 121.416 87.9644H119.914Z" fill="#000"/>
<path fill-rule="evenodd" clip-rule="evenodd" d="M73.3431 110.907L79.7071 117.271C80.0976 117.661 80.0976 118.295 79.7071 118.685L73.3431 125.049C72.9526 125.44 72.3195 125.44 71.9289 125.049C71.5384 124.659 71.5384 124.025 71.9289 123.635L76.5858 118.978L33 118.978L33 116.978L76.5858 116.978L71.9289 112.321C71.5384 111.931 71.5384 111.297 71.9289 110.907C72.3195 110.516 72.9526 110.516 73.3431 110.907Z" fill="#000"/>
<path fill-rule="evenodd" clip-rule="evenodd" d="M22.734 238.536L16.2286 237.01C15.6909 236.883 15.1528 237.217 15.0266 237.755C14.9005 238.293 15.2342 238.831 15.7719 238.957L24.534 241.012C25.0717 241.138 25.6099 240.805 25.736 240.267L27.7913 231.505C27.9174 230.967 27.5838 230.429 27.0461 230.303C26.5084 230.177 25.9702 230.51 25.8441 231.048L24.3662 237.349C18.0763 225.565 18.6057 211.718 26.521 202.503C34.8963 192.752 51.8926 187.801 78.9566 196.491L79.5681 194.587C52.1322 185.777 34.1285 190.576 25.0038 201.2C16.3844 211.235 16.0028 226.123 22.734 238.536Z" fill="#000"/>
<path fill-rule="evenodd" clip-rule="evenodd" d="M122.861 115.098L117.829 122.559C117.52 123.017 116.899 123.138 116.441 122.829L108.979 117.797C108.521 117.488 108.4 116.867 108.709 116.409C109.018 115.951 109.64 115.83 110.097 116.139L115.558 119.821L109.018 86.1909L110.982 85.8092L117.521 119.439L121.203 113.979C121.512 113.521 122.133 113.401 122.591 113.709C123.049 114.018 123.17 114.64 122.861 115.098Z" fill="#000"/>
<path fill-rule="evenodd" clip-rule="evenodd" d="M86.3431 147.929L92.7071 154.293C93.0976 154.683 93.0976 155.317 92.7071 155.707L86.3431 162.071C85.9526 162.462 85.3195 162.462 84.9289 162.071C84.5384 161.68 84.5384 161.047 84.9289 160.657L89.5858 156L21 156L21 154L89.5858 154L84.9289 149.343C84.5384 148.953 84.5384 148.319 84.9289 147.929C85.3195 147.538 85.9526 147.538 86.3431 147.929Z" fill="#000"/>
<path d="M181.121 153.978V144.158H180.98L178 146.25V144.191L181.129 142H183.263V153.978H181.121Z" fill="#000"/>
<path d="M280.573 120.802C280.573 119.684 280.961 118.771 281.735 118.062C282.516 117.354 283.52 117 284.749 117C285.933 117 286.907 117.324 287.67 117.971C288.44 118.619 288.824 119.443 288.824 120.445C288.824 121.087 288.631 121.723 288.243 122.354C287.856 122.979 287.153 123.796 286.135 124.803L283.628 127.318V127.459H289.007V129.277H280.689V127.791L284.682 123.707C285.501 122.877 286.046 122.254 286.317 121.839C286.589 121.419 286.724 120.998 286.724 120.578C286.724 120.052 286.53 119.618 286.143 119.274C285.761 118.931 285.274 118.76 284.682 118.76C284.057 118.76 283.55 118.948 283.163 119.324C282.776 119.701 282.582 120.193 282.582 120.802V120.835H280.573V120.802Z" fill="#000"/>
<path fill-rule="evenodd" clip-rule="evenodd" d="M196.767 184.321L190.403 190.685C190.012 191.076 189.379 191.076 188.989 190.685L182.625 184.321C182.234 183.931 182.234 183.297 182.625 182.907C183.015 182.516 183.648 182.516 184.039 182.907L188.696 187.564L188.696 143.978L190.696 143.978L190.696 187.564L195.352 182.907C195.743 182.516 196.376 182.516 196.767 182.907C197.157 183.297 197.157 183.931 196.767 184.321Z" fill="#000"/>
<path fill-rule="evenodd" clip-rule="evenodd" d="M285.49 148.677L280.09 155.877C279.759 156.319 279.132 156.408 278.69 156.077L271.49 150.677C271.048 150.345 270.959 149.719 271.29 149.277C271.621 148.835 272.248 148.745 272.69 149.077L277.959 153.028L273.3 120.418L275.28 120.135L279.939 152.745L283.89 147.477C284.221 147.035 284.848 146.945 285.29 147.277C285.732 147.608 285.821 148.235 285.49 148.677Z" fill="#000"/>
<path d="M306.505 241.1C306.56 241.649 307.05 242.05 307.6 241.995L316.555 241.1C317.104 241.045 317.505 240.555 317.45 240.005C317.395 239.455 316.905 239.054 316.356 239.109L308.396 239.905L307.6 231.945C307.545 231.396 307.055 230.995 306.505 231.05C305.955 231.105 305.554 231.595 305.609 232.144L306.505 241.1ZM299.553 154.894C321.935 166.086 337.852 202.324 306.726 240.367L308.274 241.633C340.148 202.676 324.065 164.914 300.447 153.106L299.553 154.894Z" fill="#000"/>
</svg>
