<svg width="345" height="345" viewBox="0 0 345 345" fill="none" xmlns="http://www.w3.org/2000/svg">
<path d="M258.66 139.4C257.94 142.1 257.4 149.12 257.4 153.98C257.4 159.92 257.4 174.14 257.4 183.86C257.4 199.16 259.56 228.14 259.56 240.38C259.56 252.08 252.18 262.52 232.56 262.52C211.32 262.52 196.38 254.42 196.38 238.4C196.38 223.46 209.88 213.74 234.72 213.74C264.78 213.74 290.16 229.76 304.56 242.72L296.82 255.32C282.42 240.56 258.84 225.08 233.28 225.08C218.88 225.08 208.98 229.58 208.98 237.86C208.98 244.88 217.08 250.28 230.94 250.28C240.84 250.28 245.88 244.7 245.88 236.06C245.88 224 244.26 198.44 244.26 182.96C244.26 175.4 244.26 160.28 244.26 154.16C244.26 148.94 243.72 141.92 243 139.4H258.66ZM250.92 166.94C260.64 166.94 286.74 165.86 302.22 164.06L302.58 176.66C287.28 178.1 261 179.18 251.1 179.18L250.92 166.94Z" fill="#f00"/>
<path d="M34.2201 127.7C59.2401 130.76 82.8201 131.12 101.18 129.32C115.94 128.06 130.7 125 143.66 120.68L145.64 133.82C133.94 137.24 118.64 140.3 104.24 141.56C86.0601 143.36 60.8601 143.36 35.1201 140.84L34.2201 127.7ZM30.6201 164.6C61.4001 167.84 92.0001 167.3 113.06 164.78C130.16 162.98 144.74 159.38 154.28 156.5L156.62 169.82C146.72 172.52 133.04 175.22 117.92 177.02C95.7801 179.9 62.4801 180.44 31.5201 178.1L30.6201 164.6ZM92.1801 125.36C90.7401 120.14 89.1201 114.56 87.1401 109.34L102.44 107.36C104.24 122.48 109.82 140.66 114.32 153.44C119.18 167.48 127.1 184.76 136.46 198.62C138.44 201.5 140.6 204.02 143.3 206.36L135.74 217.34C125.66 214.82 108.92 213.02 96.5001 211.76L97.5801 200.78C107.3 201.68 119 202.94 124.58 203.66C114.68 188.18 107.12 170.9 101.9 156.32C97.4001 143.9 94.7001 134.36 92.1801 125.36ZM56.9001 203.48C52.5801 209.6 49.3401 215.72 49.3401 223.82C49.3401 238.58 62.4801 246.14 90.7401 246.14C107.48 246.14 120.62 244.88 133.76 242.36L133.04 256.58C120.44 258.74 106.4 259.82 90.9201 259.82C55.8201 259.82 36.0201 249.38 35.6601 226.16C35.6601 215.9 38.7201 208.34 42.8601 200.42L56.9001 203.48Z" fill="#f00"/>
<path d="M36.4258 112.978V103.158H36.2847L33.3047 105.25V103.191L36.4341 101H38.5674V112.978H36.4258Z" fill="#000"/>
<path d="M21 141.802C21 140.684 21.3874 139.771 22.1621 139.062C22.9424 138.354 23.9468 138 25.1753 138C26.3595 138 27.3335 138.324 28.0972 138.971C28.8664 139.619 29.251 140.443 29.251 141.445C29.251 142.087 29.0573 142.723 28.6699 143.354C28.2826 143.979 27.5798 144.796 26.5615 145.803L24.0547 148.318V148.459H29.4336V150.277H21.1162V148.791L25.1089 144.707C25.9279 143.877 26.473 143.254 26.7441 142.839C27.0153 142.419 27.1509 141.998 27.1509 141.578C27.1509 141.052 26.9572 140.618 26.5698 140.274C26.188 139.931 25.701 139.76 25.1089 139.76C24.4836 139.76 23.9772 139.948 23.5898 140.324C23.2025 140.701 23.0088 141.193 23.0088 141.802V141.835H21V141.802Z" fill="#000"/>
<path d="M119.914 87.9644V86.3042H121.375C121.983 86.3042 122.479 86.1382 122.86 85.8062C123.242 85.4686 123.433 85.0314 123.433 84.4946C123.433 83.9634 123.245 83.54 122.869 83.2246C122.498 82.9036 122 82.7432 121.375 82.7432C120.755 82.7432 120.251 82.9064 119.864 83.2329C119.482 83.5594 119.272 84.0049 119.233 84.5693H117.232C117.288 83.4681 117.692 82.5993 118.444 81.9629C119.197 81.321 120.196 81 121.441 81C122.603 81 123.569 81.3044 124.338 81.9131C125.113 82.5163 125.5 83.2772 125.5 84.1958C125.5 84.8986 125.304 85.499 124.911 85.9971C124.523 86.4951 123.998 86.8133 123.333 86.9517V87.0928C124.153 87.1868 124.797 87.494 125.268 88.0142C125.743 88.5343 125.981 89.1929 125.981 89.9897C125.981 91.019 125.55 91.874 124.687 92.5547C123.829 93.2354 122.75 93.5757 121.449 93.5757C120.16 93.5757 119.108 93.2464 118.295 92.5879C117.487 91.9294 117.055 91.0522 117 89.9565H119.05C119.095 90.5099 119.335 90.9526 119.772 91.2847C120.21 91.6112 120.774 91.7744 121.466 91.7744C122.152 91.7744 122.711 91.5973 123.143 91.2432C123.58 90.8835 123.798 90.4214 123.798 89.8569C123.798 89.2703 123.585 88.8083 123.159 88.4707C122.733 88.1331 122.152 87.9644 121.416 87.9644H119.914Z" fill="#000"/>
<path fill-rule="evenodd" clip-rule="evenodd" d="M73.3431 110.907L79.7071 117.271C80.0976 117.661 80.0976 118.295 79.7071 118.685L73.3431 125.049C72.9526 125.44 72.3195 125.44 71.9289 125.049C71.5384 124.659 71.5384 124.025 71.9289 123.635L76.5858 118.978L33 118.978L33 116.978L76.5858 116.978L71.9289 112.321C71.5384 111.931 71.5384 111.297 71.9289 110.907C72.3195 110.516 72.9526 110.516 73.3431 110.907Z" fill="#000"/>
<path fill-rule="evenodd" clip-rule="evenodd" d="M22.734 238.536L16.2286 237.01C15.6909 236.883 15.1528 237.217 15.0266 237.755C14.9005 238.293 15.2342 238.831 15.7719 238.957L24.534 241.012C25.0717 241.138 25.6099 240.805 25.736 240.267L27.7913 231.505C27.9174 230.967 27.5838 230.429 27.0461 230.303C26.5084 230.177 25.9702 230.51 25.8441 231.048L24.3662 237.349C18.0763 225.565 18.6057 211.718 26.521 202.503C34.8963 192.752 51.8926 187.801 78.9566 196.491L79.5681 194.587C52.1322 185.777 34.1285 190.576 25.0038 201.2C16.3844 211.235 16.0028 226.123 22.734 238.536Z" fill="#000"/>
<path fill-rule="evenodd" clip-rule="evenodd" d="M122.861 115.098L117.829 122.559C117.52 123.017 116.899 123.138 116.441 122.829L108.979 117.797C108.521 117.488 108.4 116.867 108.709 116.409C109.018 115.951 109.64 115.83 110.097 116.139L115.558 119.821L109.018 86.1909L110.982 85.8092L117.521 119.439L121.203 113.979C121.512 113.521 122.133 113.401 122.591 113.709C123.049 114.018 123.17 114.64 122.861 115.098Z" fill="#000"/>
<path fill-rule="evenodd" clip-rule="evenodd" d="M86.3431 147.929L92.7071 154.293C93.0976 154.683 93.0976 155.317 92.7071 155.707L86.3431 162.071C85.9526 162.462 85.3195 162.462 84.9289 162.071C84.5384 161.68 84.5384 161.047 84.9289 160.657L89.5858 156L21 156L21 154L89.5858 154L84.9289 149.343C84.5384 148.953 84.5384 148.319 84.9289 147.929C85.3195 147.538 85.9526 147.538 86.3431 147.929Z" fill="#000"/>
<path d="M268.425 147.978V138.158H268.284L265.304 140.25V138.191L268.433 136H270.566V147.978H268.425Z" fill="#000"/>
<path d="M220 142.802C220 141.684 220.387 140.771 221.162 140.062C221.942 139.354 222.947 139 224.175 139C225.36 139 226.333 139.324 227.097 139.971C227.866 140.619 228.251 141.443 228.251 142.445C228.251 143.087 228.057 143.723 227.67 144.354C227.283 144.979 226.58 145.796 225.562 146.803L223.055 149.318V149.459H228.434V151.277H220.116V149.791L224.109 145.707C224.928 144.877 225.473 144.254 225.744 143.839C226.015 143.419 226.151 142.998 226.151 142.578C226.151 142.052 225.957 141.618 225.57 141.274C225.188 140.931 224.701 140.76 224.109 140.76C223.484 140.76 222.977 140.948 222.59 141.324C222.202 141.701 222.009 142.193 222.009 142.802V142.835H220V142.802Z" fill="#000"/>
<path fill-rule="evenodd" clip-rule="evenodd" d="M294.343 145.907L300.707 152.271C301.098 152.661 301.098 153.295 300.707 153.685L294.343 160.049C293.953 160.44 293.319 160.44 292.929 160.049C292.538 159.659 292.538 159.025 292.929 158.635L297.586 153.978L264 153.978L264 151.978L297.586 151.978L292.929 147.321C292.538 146.931 292.538 146.297 292.929 145.907C293.319 145.516 293.953 145.516 294.343 145.907Z" fill="#000"/>
<path fill-rule="evenodd" clip-rule="evenodd" d="M311.411 222.395L313.688 231.102C313.828 231.636 313.508 232.183 312.973 232.323L304.266 234.6C303.732 234.74 303.185 234.42 303.046 233.885C302.906 233.351 303.226 232.805 303.76 232.665L310.132 230.999L271.215 208.218L272.225 206.492L311.142 229.273L309.476 222.901C309.336 222.367 309.656 221.82 310.19 221.681C310.724 221.541 311.271 221.861 311.411 222.395Z" fill="#000"/>
<path fill-rule="evenodd" clip-rule="evenodd" d="M242.788 180.62L236.424 186.984C236.034 187.374 235.401 187.374 235.01 186.984L228.646 180.62C228.255 180.229 228.255 179.596 228.646 179.206C229.037 178.815 229.67 178.815 230.06 179.206L234.717 183.863L234.717 140.277L236.717 140.277L236.717 183.863L241.374 179.206C241.764 178.815 242.398 178.815 242.788 179.206C243.179 179.596 243.179 180.229 242.788 180.62Z" fill="#000"/>
<path fill-rule="evenodd" clip-rule="evenodd" d="M202.719 211.524C203.258 211.644 203.597 212.179 203.476 212.718L201.513 221.501C201.393 222.04 200.858 222.38 200.319 222.259C199.78 222.139 199.441 221.604 199.561 221.065L200.97 214.761C190.078 222.832 187.236 235.133 190.03 245.681C193 256.896 202.292 266 215 266V268C201.209 268 191.251 258.104 188.096 246.193C185.092 234.851 188.213 221.566 200.028 212.972L193.499 211.513C192.96 211.392 192.621 210.857 192.741 210.318C192.862 209.779 193.396 209.44 193.935 209.561L202.719 211.524Z" fill="#000"/>
</svg>
