<svg width="345" height="345" viewBox="0 0 345 345" fill="none" xmlns="http://www.w3.org/2000/svg">
<path d="M255.42 161.54C250.38 155.96 242.64 149.12 235.98 144.44L245.88 136.88C250.74 140.3 260.46 148.4 265.5 153.8L255.42 161.54ZM212.04 150.2C213.48 153.08 215.28 156.32 216.54 158.84C221.58 168.2 230.94 187.1 236.7 200.6C244.62 218.6 253.44 245.6 258.48 261.26L244.26 265.04C239.76 247.94 232.2 224.54 224.46 206C217.8 190.7 209.88 173.96 205.02 166.04C203.4 163.34 200.52 158.84 197.82 155.96L212.04 150.2ZM182.34 193.04C187.74 191.78 192.6 190.16 195.12 189.08C215.28 181.16 255.6 160.1 278.46 160.1C302.4 160.1 313.02 173.96 313.02 189.08C313.02 207.8 302.04 220.4 277.02 220.4C268.92 220.4 259.92 217.88 254.88 215.9L255.42 202.58C261 205.28 269.1 207.62 276.48 207.62C293.76 207.62 299.7 198.8 299.7 189.08C299.7 181.52 294.3 172.52 278.1 172.52C254.34 172.52 205.2 199.88 189.36 207.08L182.34 193.04Z" fill="#f00"/>
<path d="M78.1402 110.06C76.7002 114.92 75.8002 120.5 74.7202 125.18C72.2002 139.58 65.0002 174.32 58.8802 191.06C74.5402 180.08 90.7402 175.58 109.46 175.58C138.08 175.58 154.82 190.16 154.82 211.22C154.82 248.84 116.48 262.7 61.7602 256.94L57.9802 242.54C99.7402 248.3 140.06 241.28 140.06 211.58C140.06 198.26 129.08 187.82 108.02 187.82C86.6002 187.82 66.6202 195.2 54.7402 209.42C52.5802 212.12 50.9602 214.64 49.1602 217.7L35.8402 213.02C49.5202 186.2 59.0602 141.56 61.2202 124.28C61.9402 118.52 62.3002 114.2 61.9402 109.34L78.1402 110.06ZM22.1602 133.1C31.7002 134.72 45.3802 135.98 56.1802 135.98C79.2202 135.98 114.68 133.28 142.94 126.98L143.3 140.84C117.74 145.34 81.0202 148.94 56.3602 148.94C44.1202 148.94 32.6002 148.04 22.3402 147.14L22.1602 133.1Z" fill="#f00"/>
<path d="M27.1211 118.978V109.158H26.98L24 111.25V109.191L27.1294 107H29.2627V118.978H27.1211Z" fill="#000"/>
<path d="M99.7119 94.7358C99.7119 93.618 100.099 92.7049 100.874 91.9966C101.654 91.2882 102.659 90.9341 103.887 90.9341C105.071 90.9341 106.045 91.2578 106.809 91.9053C107.578 92.5527 107.963 93.3773 107.963 94.3789C107.963 95.0208 107.769 95.6572 107.382 96.2881C106.994 96.9134 106.292 97.7297 105.273 98.7368L102.767 101.252V101.393H108.146V103.211H99.8281V101.725L103.821 97.6411C104.64 96.811 105.185 96.1885 105.456 95.7734C105.727 95.3529 105.863 94.9323 105.863 94.5117C105.863 93.986 105.669 93.5516 105.282 93.2085C104.9 92.8654 104.413 92.6938 103.821 92.6938C103.195 92.6938 102.689 92.882 102.302 93.2583C101.914 93.6346 101.721 94.1271 101.721 94.7358V94.769H99.7119V94.7358Z" fill="#000"/>
<path fill-rule="evenodd" clip-rule="evenodd" d="M94.3335 124.793L87.0099 130.024C86.5604 130.346 85.9359 130.241 85.6149 129.792L80.3837 122.468C80.0627 122.019 80.1668 121.394 80.6162 121.073C81.0656 120.752 81.6902 120.857 82.0112 121.306L85.8391 126.665L92.4422 87.0464L94.415 87.3752L87.8119 126.994L93.171 123.166C93.6204 122.845 94.2449 122.949 94.566 123.398C94.887 123.848 94.7829 124.472 94.3335 124.793Z" fill="#000"/>
<path fill-rule="evenodd" clip-rule="evenodd" d="M161.434 241.401C160.936 241.641 160.339 241.431 160.099 240.934L156.195 232.825C155.955 232.327 156.164 231.73 156.662 231.49C157.16 231.25 157.757 231.46 157.997 231.957L160.837 237.856C168.507 214.261 165.054 196.759 156.566 185.088C147.779 173.006 133.474 167 120 167L120 165C134.026 165 148.971 171.244 158.184 183.912C167.143 196.23 170.568 214.461 162.709 238.567L168.675 235.695C169.173 235.455 169.771 235.664 170.01 236.162C170.25 236.659 170.041 237.257 169.543 237.497L161.434 241.401Z" fill="#000"/>
<path fill-rule="evenodd" clip-rule="evenodd" d="M48.3431 118.929L54.7071 125.293C55.0976 125.683 55.0976 126.317 54.7071 126.707L48.3431 133.071C47.9526 133.462 47.3195 133.462 46.9289 133.071C46.5384 132.68 46.5384 132.047 46.9289 131.657L51.5858 127H21V125H51.5858L46.9289 120.343C46.5384 119.953 46.5384 119.319 46.9289 118.929C47.3195 118.538 47.9526 118.538 48.3431 118.929Z" fill="#000"/>
<path d="M179.121 180.978V171.158H178.98L176 173.25V171.191L179.129 169H181.263V180.978H179.121Z" fill="#000"/>
<path d="M251.294 111.802C251.294 110.684 251.681 109.771 252.456 109.062C253.236 108.354 254.241 108 255.469 108C256.653 108 257.627 108.324 258.391 108.971C259.16 109.619 259.545 110.443 259.545 111.445C259.545 112.087 259.351 112.723 258.964 113.354C258.576 113.979 257.874 114.796 256.855 115.803L254.349 118.318V118.459H259.728V120.277H251.41V118.791L255.403 114.707C256.222 113.877 256.767 113.254 257.038 112.839C257.309 112.419 257.445 111.998 257.445 111.578C257.445 111.052 257.251 110.618 256.864 110.274C256.482 109.931 255.995 109.76 255.403 109.76C254.778 109.76 254.271 109.948 253.884 110.324C253.496 110.701 253.303 111.193 253.303 111.802V111.835H251.294V111.802Z" fill="#000"/>
<path d="M223.914 132.964V131.304H225.375C225.983 131.304 226.479 131.138 226.86 130.806C227.242 130.469 227.433 130.031 227.433 129.495C227.433 128.963 227.245 128.54 226.869 128.225C226.498 127.904 226 127.743 225.375 127.743C224.755 127.743 224.251 127.906 223.864 128.233C223.482 128.559 223.272 129.005 223.233 129.569H221.232C221.288 128.468 221.692 127.599 222.444 126.963C223.197 126.321 224.196 126 225.441 126C226.603 126 227.569 126.304 228.338 126.913C229.113 127.516 229.5 128.277 229.5 129.196C229.5 129.899 229.304 130.499 228.911 130.997C228.523 131.495 227.998 131.813 227.333 131.952V132.093C228.153 132.187 228.797 132.494 229.268 133.014C229.743 133.534 229.981 134.193 229.981 134.99C229.981 136.019 229.55 136.874 228.687 137.555C227.829 138.235 226.75 138.576 225.449 138.576C224.16 138.576 223.108 138.246 222.295 137.588C221.487 136.929 221.055 136.052 221 134.957H223.05C223.095 135.51 223.335 135.953 223.772 136.285C224.21 136.611 224.774 136.774 225.466 136.774C226.152 136.774 226.711 136.597 227.143 136.243C227.58 135.883 227.798 135.421 227.798 134.857C227.798 134.27 227.585 133.808 227.159 133.471C226.733 133.133 226.152 132.964 225.416 132.964H223.914Z" fill="#000"/>
<path fill-rule="evenodd" clip-rule="evenodd" d="M276.879 140.218L277.213 149.212C277.233 149.764 276.802 150.228 276.25 150.248L267.257 150.582C266.705 150.602 266.241 150.171 266.22 149.62C266.2 149.068 266.631 148.604 267.183 148.583L273.764 148.339L244.33 121.01L245.691 119.544L275.125 146.874L274.881 140.292C274.86 139.74 275.291 139.276 275.843 139.256C276.395 139.236 276.859 139.666 276.879 140.218Z" fill="#000"/>
<path fill-rule="evenodd" clip-rule="evenodd" d="M196.945 170.862L205.356 174.065C205.872 174.262 206.131 174.84 205.934 175.356L202.73 183.766C202.533 184.282 201.956 184.541 201.44 184.345C200.924 184.148 200.665 183.57 200.861 183.054L203.206 176.9L176.409 188.912L175.591 187.087L202.388 175.075L196.233 172.73C195.717 172.534 195.458 171.956 195.655 171.44C195.851 170.924 196.429 170.665 196.945 170.862Z" fill="#000"/>
<path fill-rule="evenodd" clip-rule="evenodd" d="M236.689 159.73L233.953 168.304C233.785 168.83 233.222 169.121 232.696 168.953L224.122 166.216C223.596 166.048 223.306 165.486 223.474 164.96C223.642 164.433 224.204 164.143 224.73 164.311L231.004 166.313L216.112 137.459L217.889 136.541L232.782 165.396L234.784 159.122C234.952 158.596 235.514 158.305 236.041 158.473C236.567 158.641 236.857 159.204 236.689 159.73Z" fill="#000"/>
</svg>
