<svg width="345" height="345" viewBox="0 0 345 345" fill="none" xmlns="http://www.w3.org/2000/svg">
<path d="M226.144 148.94C225.424 151.1 224.704 153.98 224.164 156.32C222.004 165.86 219.124 187.1 219.664 198.8C230.104 173.42 255.664 157.76 280.324 157.76C310.384 157.76 325.684 175.76 325.684 197.9C325.684 222.2 311.284 242.72 279.064 242.72C261.604 242.72 245.404 233.36 236.944 215.9L244.504 205.64C251.524 220.4 262.684 229.58 279.064 229.58C301.924 229.58 312.724 216.44 312.724 198.26C312.724 182.78 303.364 169.64 279.964 169.64C248.644 169.64 227.764 194.12 223.264 215.72C222.544 218.24 222.004 221.3 222.184 224.72C222.364 227.96 223.444 235.52 224.344 239.3L212.284 240.92C209.404 231.92 207.064 216.98 207.064 202.76C207.064 185.3 209.944 163.34 211.024 155.24C211.204 152.36 211.384 149.84 211.204 147.86L226.144 148.94ZM278.344 140.3C280.504 150.74 283.384 171.98 283.384 193.4C283.384 224.54 276.184 250.82 252.424 266.3L240.184 258.74C264.124 245.42 270.784 221.3 270.784 192.5C270.784 171.44 268.444 157.04 266.824 149.12C266.104 146.06 265.204 143.18 264.304 140.66L278.344 140.3Z" fill="#f00"/>
<path d="M120.734 120.86C124.514 142.64 132.434 173.24 158.894 197.18L149.534 209.78C129.554 188.54 117.314 161.72 106.694 124.82L120.734 120.86ZM8.23438 130.4C10.9344 130.58 14.7144 130.58 17.9544 130.4C33.9744 129.68 64.2144 125.54 74.8344 121.4L78.9744 134.18C76.6344 134.9 72.1344 136.16 69.4344 137.24C58.0944 145.7 30.5544 177.2 30.5544 214.28C30.5544 239.66 47.2944 248.12 65.8344 248.12C108.674 248.12 123.254 202.04 109.574 131.48L122.714 155.78C132.074 207.26 121.814 262.88 65.4744 262.88C37.0344 262.88 16.5144 247.04 16.5144 217.34C16.5144 183.68 34.1544 157.94 49.9944 139.94C40.8144 141.38 26.0544 143.18 19.5744 144.08C16.1544 144.44 13.0944 144.98 9.31437 145.52L8.23438 130.4ZM136.574 110.6C140.174 117.44 145.754 128.6 148.814 135.98L139.454 139.4C136.214 131.3 131.534 120.68 127.574 113.84L136.574 110.6ZM154.934 103.58C158.714 110.24 164.294 121.22 167.714 128.78L158.174 132.38C154.934 124.28 150.254 113.84 146.114 107L154.934 103.58Z" fill="#f00"/>
<path d="M189.121 153.978V144.158H188.98L186 146.25V144.191L189.129 142H191.263V153.978H189.121Z" fill="#000"/>
<path d="M288.573 120.802C288.573 119.684 288.961 118.771 289.735 118.062C290.516 117.354 291.52 117 292.749 117C293.933 117 294.907 117.324 295.67 117.971C296.44 118.619 296.824 119.443 296.824 120.445C296.824 121.087 296.631 121.723 296.243 122.354C295.856 122.979 295.153 123.796 294.135 124.803L291.628 127.318V127.459H297.007V129.277H288.689V127.791L292.682 123.707C293.501 122.877 294.046 122.254 294.317 121.839C294.589 121.419 294.724 120.998 294.724 120.578C294.724 120.052 294.53 119.618 294.143 119.274C293.761 118.931 293.274 118.76 292.682 118.76C292.057 118.76 291.55 118.948 291.163 119.324C290.776 119.701 290.582 120.193 290.582 120.802V120.835H288.573V120.802Z" fill="#000"/>
<path fill-rule="evenodd" clip-rule="evenodd" d="M204.767 184.322L198.403 190.686C198.012 191.076 197.379 191.076 196.989 190.686L190.625 184.322C190.234 183.931 190.234 183.298 190.625 182.907C191.015 182.517 191.648 182.517 192.039 182.907L196.696 187.564L196.696 143.979L198.696 143.979L198.696 187.564L203.352 182.907C203.743 182.517 204.376 182.517 204.767 182.907C205.157 183.298 205.157 183.931 204.767 184.322Z" fill="#000"/>
<path fill-rule="evenodd" clip-rule="evenodd" d="M293.49 148.677L288.09 155.877C287.759 156.319 287.132 156.408 286.69 156.077L279.49 150.677C279.048 150.345 278.959 149.719 279.29 149.277C279.621 148.835 280.248 148.745 280.69 149.077L285.959 153.028L281.3 120.418L283.28 120.135L287.939 152.745L291.89 147.477C292.221 147.035 292.848 146.945 293.29 147.277C293.732 147.608 293.821 148.235 293.49 148.677Z" fill="#000"/>
<path fill-rule="evenodd" clip-rule="evenodd" d="M316.251 238.457C345.317 201.117 329.56 165.898 307.553 154.894L308.447 153.105C331.688 164.726 347.633 201.477 317.764 239.769L324.356 239.109C324.905 239.054 325.395 239.455 325.45 240.005C325.505 240.554 325.104 241.044 324.555 241.099L315.599 241.995C315.05 242.05 314.56 241.649 314.505 241.099L313.609 232.144C313.554 231.595 313.955 231.104 314.505 231.05C315.054 230.995 315.544 231.396 315.599 231.945L316.251 238.457Z" fill="#000"/>
<path d="M132 98.8018C132 97.6839 132.387 96.7708 133.162 96.0625C133.942 95.3542 134.947 95 136.175 95C137.36 95 138.333 95.3237 139.097 95.9712C139.866 96.6187 140.251 97.4432 140.251 98.4448C140.251 99.0868 140.057 99.7231 139.67 100.354C139.283 100.979 138.58 101.796 137.562 102.803L135.055 105.318V105.459H140.434V107.277H132.116V105.791L136.109 101.707C136.928 100.877 137.473 100.254 137.744 99.8394C138.015 99.4188 138.151 98.9982 138.151 98.5776C138.151 98.0519 137.957 97.6175 137.57 97.2744C137.188 96.9313 136.701 96.7598 136.109 96.7598C135.484 96.7598 134.977 96.9479 134.59 97.3242C134.202 97.7005 134.009 98.193 134.009 98.8018V98.835H132V98.8018Z" fill="#000"/>
<path d="M155.914 95.9644V94.3042H157.375C157.983 94.3042 158.479 94.1382 158.86 93.8062C159.242 93.4686 159.433 93.0314 159.433 92.4946C159.433 91.9634 159.245 91.54 158.869 91.2246C158.498 90.9036 158 90.7432 157.375 90.7432C156.755 90.7432 156.251 90.9064 155.864 91.2329C155.482 91.5594 155.272 92.0049 155.233 92.5693H153.232C153.288 91.4681 153.692 90.5993 154.444 89.9629C155.197 89.321 156.196 89 157.441 89C158.603 89 159.569 89.3044 160.338 89.9131C161.113 90.5163 161.5 91.2772 161.5 92.1958C161.5 92.8986 161.304 93.499 160.911 93.9971C160.523 94.4951 159.998 94.8133 159.333 94.9517V95.0928C160.153 95.1868 160.797 95.494 161.268 96.0142C161.743 96.5343 161.981 97.1929 161.981 97.9897C161.981 99.019 161.55 99.874 160.687 100.555C159.829 101.235 158.75 101.576 157.449 101.576C156.16 101.576 155.108 101.246 154.295 100.588C153.487 99.9294 153.055 99.0522 153 97.9565H155.05C155.095 98.5099 155.335 98.9526 155.772 99.2847C156.21 99.6112 156.774 99.7744 157.466 99.7744C158.152 99.7744 158.711 99.5973 159.143 99.2432C159.58 98.8835 159.798 98.4214 159.798 97.8569C159.798 97.2703 159.585 96.8083 159.159 96.4707C158.733 96.1331 158.152 95.9644 157.416 95.9644H155.914Z" fill="#000"/>
<path d="M13.0205 113.978V104.158H12.8794L9.89941 106.25V104.191L13.0288 102H15.1621V113.978H13.0205Z" fill="#000"/>
<path fill-rule="evenodd" clip-rule="evenodd" d="M63.0198 107.752L70.1984 113.18C70.6389 113.514 70.726 114.141 70.3929 114.581L64.9645 121.76C64.6314 122.2 64.0042 122.287 63.5637 121.954C63.1232 121.621 63.0361 120.994 63.3693 120.554L67.3415 115.301L9.15013 123.379L8.87511 121.398L67.0665 113.32L61.8135 109.347C61.373 109.014 61.2859 108.387 61.619 107.947C61.9521 107.506 62.5793 107.419 63.0198 107.752Z" fill="#000"/>
<path fill-rule="evenodd" clip-rule="evenodd" d="M94.1397 133.664C93.4565 143.291 95.237 154.94 100.422 166.545L98.5964 167.361C93.2818 155.466 91.4373 143.49 92.1447 133.523C92.8482 123.61 96.0979 115.48 101.211 111.536C103.801 109.538 106.858 108.631 110.211 109.138C113.536 109.641 117.056 111.518 120.655 114.896C127.577 121.393 134.999 133.638 142.146 153.359L145.004 147.407C145.243 146.909 145.84 146.699 146.338 146.938C146.836 147.177 147.046 147.775 146.807 148.273L142.911 156.386C142.672 156.884 142.074 157.094 141.577 156.855L133.463 152.959C132.966 152.72 132.756 152.122 132.995 151.624C133.234 151.127 133.831 150.917 134.329 151.156L140.25 153.999C133.15 134.417 125.867 122.531 119.286 116.354C115.877 113.154 112.713 111.539 109.912 111.116C107.138 110.696 104.624 111.43 102.433 113.12C97.9834 116.551 94.8268 123.983 94.1397 133.664Z" fill="#000"/>
</svg>
