<svg width="345" height="345" viewBox="0 0 345 345" fill="none" xmlns="http://www.w3.org/2000/svg">
<path d="M265.206 161.54C260.166 155.96 252.426 149.12 245.766 144.44L255.666 136.88C260.526 140.3 270.246 148.4 275.286 153.8L265.206 161.54ZM221.826 150.2C223.266 153.08 225.066 156.32 226.326 158.84C231.366 168.2 240.726 187.1 246.486 200.6C254.406 218.6 263.226 245.6 268.266 261.26L254.046 265.04C249.546 247.94 241.986 224.54 234.246 206C227.586 190.7 219.666 173.96 214.806 166.04C213.186 163.34 210.306 158.84 207.606 155.96L221.826 150.2ZM192.126 193.04C197.526 191.78 202.386 190.16 204.906 189.08C225.066 181.16 265.386 160.1 288.246 160.1C312.186 160.1 322.806 173.96 322.806 189.08C322.806 207.8 311.826 220.4 286.806 220.4C278.706 220.4 269.706 217.88 264.666 215.9L265.206 202.58C270.786 205.28 278.886 207.62 286.266 207.62C303.546 207.62 309.486 198.8 309.486 189.08C309.486 181.52 304.086 172.52 287.886 172.52C264.126 172.52 214.986 199.88 199.146 207.08L192.126 193.04Z" fill="#f00"/>
<path d="M62.4156 112.22C61.1556 117.08 60.0755 122.66 59.1755 127.34C56.6555 141.74 49.4555 176.48 43.1555 193.04C58.8155 182.06 75.0155 177.74 93.9155 177.74C122.536 177.74 139.276 192.32 139.276 213.38C139.276 250.82 100.756 264.86 46.0355 258.92L42.4355 244.7C84.0155 250.46 124.516 243.26 124.516 213.74C124.516 200.24 113.356 189.98 92.4756 189.98C70.8755 189.98 51.0755 197.18 39.1955 211.58C36.8555 214.28 35.2355 216.62 33.6155 219.86L20.1155 215C33.9755 188.18 43.3355 143.72 45.6755 126.26C46.3955 120.5 46.5755 116.36 46.3955 111.5L62.4156 112.22ZM6.43555 135.26C15.9755 136.7 29.8355 138.14 40.6356 138.14C63.6756 138.14 97.5156 135.62 125.776 129.32L125.956 143.18C100.396 147.5 65.4755 150.92 40.8155 150.92C28.5755 150.92 17.0555 150.2 6.61555 149.3L6.43555 135.26ZM130.096 105.92C134.596 112.4 141.076 123.56 144.856 130.76L135.136 135.08C131.536 127.88 125.416 116.9 120.376 110.06L130.096 105.92ZM149.896 98.7197C154.756 105.38 161.596 116.72 165.016 123.38L155.296 127.7C151.336 119.96 145.576 109.7 140.356 102.86L149.896 98.7197Z" fill="#f00"/>
<path d="M188.134 180.978V171.158H187.993L185.013 173.25V171.191L188.142 169H190.275V180.978H188.134Z" fill="#000"/>
<path d="M260.307 111.802C260.307 110.684 260.694 109.771 261.469 109.062C262.249 108.354 263.253 108 264.482 108C265.666 108 266.64 108.324 267.404 108.971C268.173 109.619 268.558 110.443 268.558 111.445C268.558 112.087 268.364 112.723 267.977 113.354C267.589 113.979 266.886 114.796 265.868 115.803L263.361 118.318V118.459H268.74V120.277H260.423V118.791L264.416 114.707C265.235 113.877 265.78 113.254 266.051 112.839C266.322 112.419 266.458 111.998 266.458 111.578C266.458 111.052 266.264 110.618 265.876 110.274C265.495 109.931 265.008 109.76 264.416 109.76C263.79 109.76 263.284 109.948 262.896 110.324C262.509 110.701 262.315 111.193 262.315 111.802V111.835H260.307V111.802Z" fill="#000"/>
<path d="M232.926 132.964V131.304H234.387C234.996 131.304 235.491 131.138 235.873 130.806C236.255 130.469 236.446 130.031 236.446 129.495C236.446 128.963 236.258 128.54 235.881 128.225C235.511 127.904 235.013 127.743 234.387 127.743C233.767 127.743 233.264 127.906 232.876 128.233C232.495 128.559 232.284 129.005 232.246 129.569H230.245C230.3 128.468 230.704 127.599 231.457 126.963C232.21 126.321 233.208 126 234.454 126C235.616 126 236.581 126.304 237.351 126.913C238.125 127.516 238.513 128.277 238.513 129.196C238.513 129.899 238.316 130.499 237.923 130.997C237.536 131.495 237.01 131.813 236.346 131.952V132.093C237.165 132.187 237.81 132.494 238.28 133.014C238.756 133.534 238.994 134.193 238.994 134.99C238.994 136.019 238.562 136.874 237.699 137.555C236.841 138.235 235.762 138.576 234.462 138.576C233.173 138.576 232.121 138.246 231.308 137.588C230.5 136.929 230.068 136.052 230.013 134.957H232.063C232.107 135.51 232.348 135.953 232.785 136.285C233.222 136.611 233.787 136.774 234.479 136.774C235.165 136.774 235.724 136.597 236.155 136.243C236.592 135.883 236.811 135.421 236.811 134.857C236.811 134.27 236.598 133.808 236.172 133.471C235.746 133.133 235.165 132.964 234.429 132.964H232.926Z" fill="#000"/>
<path d="M127.914 96.9644V95.3042H129.375C129.983 95.3042 130.479 95.1382 130.86 94.8062C131.242 94.4686 131.433 94.0314 131.433 93.4946C131.433 92.9634 131.245 92.54 130.869 92.2246C130.498 91.9036 130 91.7432 129.375 91.7432C128.755 91.7432 128.251 91.9064 127.864 92.2329C127.482 92.5594 127.272 93.0049 127.233 93.5693H125.232C125.288 92.4681 125.692 91.5993 126.444 90.9629C127.197 90.321 128.196 90 129.441 90C130.603 90 131.569 90.3044 132.338 90.9131C133.113 91.5163 133.5 92.2772 133.5 93.1958C133.5 93.8986 133.304 94.499 132.911 94.9971C132.523 95.4951 131.998 95.8133 131.333 95.9517V96.0928C132.153 96.1868 132.797 96.494 133.268 97.0142C133.743 97.5343 133.981 98.1929 133.981 98.9897C133.981 100.019 133.55 100.874 132.687 101.555C131.829 102.235 130.75 102.576 129.449 102.576C128.16 102.576 127.108 102.246 126.295 101.588C125.487 100.929 125.055 100.052 125 98.9565H127.05C127.095 99.5099 127.335 99.9526 127.772 100.285C128.21 100.611 128.774 100.774 129.466 100.774C130.152 100.774 130.711 100.597 131.143 100.243C131.58 99.8835 131.798 99.4214 131.798 98.8569C131.798 98.2703 131.585 97.8083 131.159 97.4707C130.733 97.1331 130.152 96.9644 129.416 96.9644H127.914Z" fill="#000"/>
<path fill-rule="evenodd" clip-rule="evenodd" d="M285.892 140.219L286.225 149.213C286.246 149.764 285.815 150.228 285.263 150.249L276.269 150.582C275.717 150.603 275.253 150.172 275.233 149.62C275.212 149.068 275.643 148.604 276.195 148.584L282.776 148.34L253.343 121.01L254.704 119.544L284.137 146.874L283.893 140.293C283.873 139.741 284.304 139.277 284.856 139.256C285.408 139.236 285.872 139.667 285.892 140.219Z" fill="#000"/>
<path fill-rule="evenodd" clip-rule="evenodd" d="M205.958 170.862L214.368 174.065C214.884 174.262 215.143 174.84 214.947 175.356L211.743 183.766C211.546 184.282 210.968 184.541 210.452 184.345C209.936 184.148 209.677 183.57 209.874 183.054L212.218 176.9L185.421 188.912L184.603 187.087L211.4 175.075L205.246 172.73C204.73 172.534 204.471 171.956 204.667 171.44C204.864 170.924 205.442 170.665 205.958 170.862Z" fill="#000"/>
<path fill-rule="evenodd" clip-rule="evenodd" d="M245.702 159.731L242.966 168.305C242.798 168.831 242.235 169.121 241.709 168.953L233.135 166.217C232.609 166.049 232.318 165.486 232.486 164.96C232.654 164.434 233.217 164.144 233.743 164.311L240.017 166.314L225.124 137.459L226.901 136.542L241.794 165.397L243.797 159.123C243.964 158.596 244.527 158.306 245.053 158.474C245.579 158.642 245.87 159.204 245.702 159.731Z" fill="#000"/>
<path d="M11.1211 120.977V111.157H10.98L8 113.249V111.19L11.1294 108.999H13.2627V120.977H11.1211Z" fill="#000"/>
<path d="M83.7119 96.7344C83.7119 95.6165 84.0993 94.7035 84.874 93.9951C85.6543 93.2868 86.6587 92.9326 87.8872 92.9326C89.0715 92.9326 90.0454 93.2563 90.8091 93.9038C91.5783 94.5513 91.9629 95.3758 91.9629 96.3774C91.9629 97.0194 91.7692 97.6558 91.3818 98.2866C90.9945 98.9119 90.2917 99.7282 89.2734 100.735L86.7666 103.25V103.392H92.1455V105.209H83.8281V103.724L87.8208 99.6396C88.6398 98.8096 89.1849 98.187 89.4561 97.772C89.7272 97.3514 89.8628 96.9308 89.8628 96.5103C89.8628 95.9845 89.6691 95.5501 89.2817 95.207C88.8999 94.8639 88.4129 94.6924 87.8208 94.6924C87.1955 94.6924 86.6891 94.8805 86.3018 95.2568C85.9144 95.6331 85.7207 96.1257 85.7207 96.7344V96.7676H83.7119V96.7344Z" fill="#000"/>
<path fill-rule="evenodd" clip-rule="evenodd" d="M78.3335 126.793L71.0099 132.024C70.5604 132.345 69.9359 132.241 69.6149 131.792L64.3837 124.468C64.0627 124.018 64.1668 123.394 64.6162 123.073C65.0656 122.752 65.6902 122.856 66.0112 123.305L69.8391 128.665L76.4422 89.0459L78.415 89.3747L71.8119 128.993L77.171 125.165C77.6204 124.844 78.2449 124.948 78.566 125.398C78.887 125.847 78.7829 126.472 78.3335 126.793Z" fill="#000"/>
<path fill-rule="evenodd" clip-rule="evenodd" d="M145.434 243.4C144.936 243.639 144.339 243.43 144.099 242.933L140.195 234.824C139.955 234.326 140.164 233.728 140.662 233.489C141.16 233.249 141.757 233.458 141.997 233.956L144.837 239.855C152.507 216.259 149.054 198.758 140.566 187.087C131.779 175.004 117.474 168.999 104 168.999L104 166.999C118.026 166.999 132.971 173.243 142.184 185.911C151.143 198.229 154.568 216.46 146.709 240.566L152.675 237.693C153.173 237.454 153.771 237.663 154.01 238.161C154.25 238.658 154.041 239.256 153.543 239.495L145.434 243.4Z" fill="#000"/>
<path fill-rule="evenodd" clip-rule="evenodd" d="M32.3431 120.928L38.7071 127.292C39.0976 127.682 39.0976 128.315 38.7071 128.706L32.3431 135.07C31.9526 135.46 31.3195 135.46 30.9289 135.07C30.5384 134.679 30.5384 134.046 30.9289 133.656L35.5858 128.999H5V126.999H35.5858L30.9289 122.342C30.5384 121.951 30.5384 121.318 30.9289 120.928C31.3195 120.537 31.9526 120.537 32.3431 120.928Z" fill="#000"/>
<path d="M153.852 95.978V93.7451H148V91.8359C148.974 90.043 150.601 87.431 152.881 84H155.902V91.9355H157.521V93.7451H155.902V95.978H153.852ZM149.984 91.8608V91.9854H153.885V85.7432H153.769C152.474 87.6579 151.212 89.6971 149.984 91.8608Z" fill="#000"/>
</svg>
