<svg width="345" height="345" viewBox="0 0 345 345" fill="none" xmlns="http://www.w3.org/2000/svg">
<path d="M268.444 139.4C267.724 142.1 267.184 149.12 267.184 153.98C267.184 159.92 267.184 174.14 267.184 183.86C267.184 199.16 269.344 228.14 269.344 240.38C269.344 252.08 261.964 262.52 242.344 262.52C221.104 262.52 206.164 254.42 206.164 238.4C206.164 223.46 219.664 213.74 244.504 213.74C274.564 213.74 299.944 229.76 314.344 242.72L306.604 255.32C292.204 240.56 268.624 225.08 243.064 225.08C228.664 225.08 218.764 229.58 218.764 237.86C218.764 244.88 226.864 250.28 240.724 250.28C250.624 250.28 255.664 244.7 255.664 236.06C255.664 224 254.044 198.44 254.044 182.96C254.044 175.4 254.044 160.28 254.044 154.16C254.044 148.94 253.504 141.92 252.784 139.4H268.444ZM260.704 166.94C270.424 166.94 296.524 165.86 312.004 164.06L312.364 176.66C297.064 178.1 270.784 179.18 260.884 179.18L260.704 166.94Z" fill="#f00"/>
<path d="M120.734 120.86C124.514 142.64 132.434 173.24 158.894 197.18L149.534 209.78C129.554 188.54 117.314 161.72 106.694 124.82L120.734 120.86ZM8.23438 130.4C10.9344 130.58 14.7144 130.58 17.9544 130.4C33.9744 129.68 64.2144 125.54 74.8344 121.4L78.9744 134.18C76.6344 134.9 72.1344 136.16 69.4344 137.24C58.0944 145.7 30.5544 177.2 30.5544 214.28C30.5544 239.66 47.2944 248.12 65.8344 248.12C108.674 248.12 123.254 202.04 109.574 131.48L122.714 155.78C132.074 207.26 121.814 262.88 65.4744 262.88C37.0344 262.88 16.5144 247.04 16.5144 217.34C16.5144 183.68 34.1544 157.94 49.9944 139.94C40.8144 141.38 26.0544 143.18 19.5744 144.08C16.1544 144.44 13.0944 144.98 9.31437 145.52L8.23438 130.4ZM136.574 110.6C140.174 117.44 145.754 128.6 148.814 135.98L139.454 139.4C136.214 131.3 131.534 120.68 127.574 113.84L136.574 110.6ZM154.934 103.58C158.714 110.24 164.294 121.22 167.714 128.78L158.174 132.38C154.934 124.28 150.254 113.84 146.114 107L154.934 103.58Z" fill="#f00"/>
<path d="M278.398 147.978V138.158H278.257L275.277 140.25V138.191L278.407 136H280.54V147.978H278.398Z" fill="#000"/>
<path d="M229.974 142.802C229.974 141.684 230.361 140.771 231.136 140.062C231.916 139.354 232.92 139 234.149 139C235.333 139 236.307 139.324 237.071 139.971C237.84 140.619 238.225 141.443 238.225 142.445C238.225 143.087 238.031 143.723 237.644 144.354C237.256 144.979 236.553 145.796 235.535 146.803L233.028 149.318V149.459H238.407V151.277H230.09V149.791L234.083 145.707C234.902 144.877 235.447 144.254 235.718 143.839C235.989 143.419 236.125 142.998 236.125 142.578C236.125 142.052 235.931 141.618 235.543 141.274C235.162 140.931 234.675 140.76 234.083 140.76C233.457 140.76 232.951 140.948 232.563 141.324C232.176 141.701 231.982 142.193 231.982 142.802V142.835H229.974V142.802Z" fill="#000"/>
<path fill-rule="evenodd" clip-rule="evenodd" d="M304.317 145.907L310.681 152.271C311.071 152.662 311.071 153.295 310.681 153.685L304.317 160.049C303.926 160.44 303.293 160.44 302.903 160.049C302.512 159.659 302.512 159.026 302.903 158.635L307.559 153.978L273.974 153.978L273.974 151.978L307.559 151.978L302.903 147.321C302.512 146.931 302.512 146.298 302.903 145.907C303.293 145.517 303.926 145.517 304.317 145.907Z" fill="#000"/>
<path fill-rule="evenodd" clip-rule="evenodd" d="M321.384 222.395L323.661 231.102C323.801 231.636 323.481 232.183 322.947 232.323L314.24 234.6C313.706 234.74 313.159 234.42 313.019 233.885C312.88 233.351 313.199 232.805 313.734 232.665L320.105 230.999L281.189 208.218L282.199 206.492L321.116 229.273L319.449 222.901C319.309 222.367 319.629 221.82 320.164 221.681C320.698 221.541 321.244 221.861 321.384 222.395Z" fill="#000"/>
<path fill-rule="evenodd" clip-rule="evenodd" d="M252.762 180.62L246.398 186.984C246.007 187.375 245.374 187.375 244.984 186.984L238.62 180.62C238.229 180.23 238.229 179.597 238.62 179.206C239.01 178.816 239.643 178.816 240.034 179.206L244.691 183.863L244.691 140.277L246.691 140.277L246.691 183.863L251.348 179.206C251.738 178.816 252.371 178.816 252.762 179.206C253.152 179.597 253.152 180.23 252.762 180.62Z" fill="#000"/>
<path fill-rule="evenodd" clip-rule="evenodd" d="M212.692 211.524C213.231 211.644 213.57 212.179 213.45 212.718L211.487 221.501C211.366 222.04 210.832 222.379 210.293 222.259C209.754 222.138 209.414 221.604 209.535 221.065L210.944 214.761C200.051 222.831 197.209 235.133 200.003 245.681C202.974 256.896 212.265 266 224.974 266V268C211.183 268 201.224 258.103 198.07 246.193C195.066 234.851 198.187 221.566 210.001 212.972L203.473 211.512C202.934 211.392 202.594 210.857 202.715 210.318C202.835 209.779 203.37 209.44 203.909 209.56L212.692 211.524Z" fill="#000"/>
<path d="M132 98.8018C132 97.6839 132.387 96.7708 133.162 96.0625C133.942 95.3542 134.947 95 136.175 95C137.36 95 138.333 95.3237 139.097 95.9712C139.866 96.6187 140.251 97.4432 140.251 98.4448C140.251 99.0868 140.057 99.7231 139.67 100.354C139.283 100.979 138.58 101.796 137.562 102.803L135.055 105.318V105.459H140.434V107.277H132.116V105.791L136.109 101.707C136.928 100.877 137.473 100.254 137.744 99.8394C138.015 99.4188 138.151 98.9982 138.151 98.5776C138.151 98.0519 137.957 97.6175 137.57 97.2744C137.188 96.9313 136.701 96.7598 136.109 96.7598C135.484 96.7598 134.977 96.9479 134.59 97.3242C134.202 97.7005 134.009 98.193 134.009 98.8018V98.835H132V98.8018Z" fill="#000"/>
<path d="M155.914 95.9644V94.3042H157.375C157.983 94.3042 158.479 94.1382 158.86 93.8062C159.242 93.4686 159.433 93.0314 159.433 92.4946C159.433 91.9634 159.245 91.54 158.869 91.2246C158.498 90.9036 158 90.7432 157.375 90.7432C156.755 90.7432 156.251 90.9064 155.864 91.2329C155.482 91.5594 155.272 92.0049 155.233 92.5693H153.232C153.288 91.4681 153.692 90.5993 154.444 89.9629C155.197 89.321 156.196 89 157.441 89C158.603 89 159.569 89.3044 160.338 89.9131C161.113 90.5163 161.5 91.2772 161.5 92.1958C161.5 92.8986 161.304 93.499 160.911 93.9971C160.523 94.4951 159.998 94.8133 159.333 94.9517V95.0928C160.153 95.1868 160.797 95.494 161.268 96.0142C161.743 96.5343 161.981 97.1929 161.981 97.9897C161.981 99.019 161.55 99.874 160.687 100.555C159.829 101.235 158.75 101.576 157.449 101.576C156.16 101.576 155.108 101.246 154.295 100.588C153.487 99.9294 153.055 99.0522 153 97.9565H155.05C155.095 98.5099 155.335 98.9526 155.772 99.2847C156.21 99.6112 156.774 99.7744 157.466 99.7744C158.152 99.7744 158.711 99.5973 159.143 99.2432C159.58 98.8835 159.798 98.4214 159.798 97.8569C159.798 97.2703 159.585 96.8083 159.159 96.4707C158.733 96.1331 158.152 95.9644 157.416 95.9644H155.914Z" fill="#000"/>
<path d="M13.0205 113.978V104.158H12.8794L9.89941 106.25V104.191L13.0288 102H15.1621V113.978H13.0205Z" fill="#000"/>
<path fill-rule="evenodd" clip-rule="evenodd" d="M63.0198 107.752L70.1984 113.18C70.6389 113.514 70.726 114.141 70.3929 114.581L64.9645 121.76C64.6314 122.2 64.0042 122.287 63.5637 121.954C63.1232 121.621 63.0361 120.994 63.3693 120.554L67.3415 115.301L9.15013 123.379L8.87511 121.398L67.0665 113.32L61.8135 109.347C61.373 109.014 61.2859 108.387 61.619 107.947C61.9521 107.506 62.5793 107.419 63.0198 107.752Z" fill="#000"/>
<path fill-rule="evenodd" clip-rule="evenodd" d="M94.1397 133.664C93.4565 143.291 95.237 154.94 100.422 166.545L98.5964 167.361C93.2818 155.466 91.4373 143.49 92.1447 133.523C92.8482 123.61 96.0979 115.48 101.211 111.536C103.801 109.538 106.858 108.631 110.211 109.138C113.536 109.641 117.056 111.518 120.655 114.896C127.577 121.393 134.999 133.638 142.146 153.359L145.004 147.407C145.243 146.909 145.84 146.699 146.338 146.938C146.836 147.177 147.046 147.775 146.807 148.273L142.911 156.386C142.672 156.884 142.074 157.094 141.577 156.855L133.463 152.959C132.966 152.72 132.756 152.122 132.995 151.624C133.234 151.127 133.831 150.917 134.329 151.156L140.25 153.999C133.15 134.417 125.867 122.531 119.286 116.354C115.877 113.154 112.713 111.539 109.912 111.116C107.138 110.696 104.624 111.43 102.433 113.12C97.9834 116.551 94.8268 123.983 94.1397 133.664Z" fill="#000"/>
</svg>
