<svg width="345" height="345" viewBox="0 0 345 345" fill="none" xmlns="http://www.w3.org/2000/svg">
<path d="M216.36 148.94C215.64 151.1 214.92 153.98 214.38 156.32C212.22 165.86 209.34 187.1 209.88 198.8C220.32 173.42 245.88 157.76 270.54 157.76C300.6 157.76 315.9 175.76 315.9 197.9C315.9 222.2 301.5 242.72 269.28 242.72C251.82 242.72 235.62 233.36 227.16 215.9L234.72 205.64C241.74 220.4 252.9 229.58 269.28 229.58C292.14 229.58 302.94 216.44 302.94 198.26C302.94 182.78 293.58 169.64 270.18 169.64C238.86 169.64 217.98 194.12 213.48 215.72C212.76 218.24 212.22 221.3 212.4 224.72C212.58 227.96 213.66 235.52 214.56 239.3L202.5 240.92C199.62 231.92 197.28 216.98 197.28 202.76C197.28 185.3 200.16 163.34 201.24 155.24C201.42 152.36 201.6 149.84 201.42 147.86L216.36 148.94ZM268.56 140.3C270.72 150.74 273.6 171.98 273.6 193.4C273.6 224.54 266.4 250.82 242.64 266.3L230.4 258.74C254.34 245.42 261 221.3 261 192.5C261 171.44 258.66 157.04 257.04 149.12C256.32 146.06 255.42 143.18 254.52 140.66L268.56 140.3Z" fill="#f00"/>
<path d="M62.8402 108.98C59.0602 122.3 55.6402 146.6 54.5602 159.2C61.9402 140.66 80.6602 118.16 103.52 118.16C127.28 118.16 144.56 142.28 144.56 180.08C144.56 229.94 113.06 252.08 68.6002 260.18L59.9602 247.22C99.2002 241.28 129.62 225.44 129.62 180.26C129.62 151.82 120.08 131.3 101.18 131.3C78.6802 131.3 57.8002 164.06 55.6402 187.64C54.7402 194.48 54.7402 200.78 56.0002 209.78L41.9602 210.86C41.0602 204.02 40.1602 193.94 40.1602 182.24C40.1602 165.14 43.5802 138.68 45.7402 123.92C46.4602 118.52 46.8202 113.48 47.1802 108.44L62.8402 108.98Z" fill="#f00"/>
<path d="M43.1211 104.978V95.1582H42.98L40 97.25V95.1914L43.1294 93H45.2627V104.978H43.1211Z" fill="#000"/>
<path d="M92.7832 86.8018C92.7832 85.6839 93.1706 84.7708 93.9453 84.0625C94.7256 83.3542 95.73 83 96.9585 83C98.1427 83 99.1167 83.3237 99.8804 83.9712C100.65 84.6187 101.034 85.4432 101.034 86.4448C101.034 87.0868 100.84 87.7231 100.453 88.354C100.066 88.9793 99.363 89.7956 98.3447 90.8027L95.8379 93.3179V93.459H101.217V95.2769H92.8994V93.791L96.8921 89.707C97.7111 88.877 98.2562 88.2544 98.5273 87.8394C98.7985 87.4188 98.9341 86.9982 98.9341 86.5776C98.9341 86.0519 98.7404 85.6175 98.353 85.2744C97.9712 84.9313 97.4842 84.7598 96.8921 84.7598C96.2668 84.7598 95.7604 84.9479 95.373 85.3242C94.9857 85.7005 94.792 86.193 94.792 86.8018V86.835H92.7832V86.8018Z" fill="#000"/>
<path fill-rule="evenodd" clip-rule="evenodd" d="M39.7667 133.343L33.4027 139.707C33.0122 140.098 32.379 140.098 31.9885 139.707L25.6245 133.343C25.234 132.953 25.234 132.319 25.6245 131.929C26.0151 131.538 26.6482 131.538 27.0388 131.929L31.6956 136.586L31.6956 93L33.6956 93L33.6956 136.586L38.3525 131.929C38.743 131.538 39.3762 131.538 39.7667 131.929C40.1572 132.319 40.1572 132.953 39.7667 133.343Z" fill="#000"/>
<path fill-rule="evenodd" clip-rule="evenodd" d="M132.93 121.933C119.944 109.376 103.373 106.277 89 106.277L89 104.277C103.627 104.277 120.806 107.428 134.32 120.496C147.557 133.295 157.097 155.434 157.488 192.875L162.157 188.206C162.547 187.815 163.181 187.815 163.571 188.206C163.962 188.596 163.962 189.23 163.571 189.62L157.207 195.984C156.817 196.375 156.183 196.375 155.793 195.984L149.429 189.62C149.038 189.23 149.038 188.596 149.429 188.206C149.819 187.815 150.453 187.815 150.843 188.206L155.487 192.85C155.093 155.743 145.638 134.222 132.93 121.933Z" fill="#000"/>
<path d="M181.121 153.978V144.158H180.98L178 146.25V144.191L181.129 142H183.263V153.978H181.121Z" fill="#000"/>
<path d="M280.573 120.802C280.573 119.684 280.961 118.771 281.735 118.062C282.516 117.354 283.52 117 284.749 117C285.933 117 286.907 117.324 287.67 117.971C288.44 118.619 288.824 119.443 288.824 120.445C288.824 121.087 288.631 121.723 288.243 122.354C287.856 122.979 287.153 123.796 286.135 124.803L283.628 127.318V127.459H289.007V129.277H280.689V127.791L284.682 123.707C285.501 122.877 286.046 122.254 286.317 121.839C286.589 121.419 286.724 120.998 286.724 120.578C286.724 120.052 286.53 119.618 286.143 119.274C285.761 118.931 285.274 118.76 284.682 118.76C284.057 118.76 283.55 118.948 283.163 119.324C282.776 119.701 282.582 120.193 282.582 120.802V120.835H280.573V120.802Z" fill="#000"/>
<path fill-rule="evenodd" clip-rule="evenodd" d="M196.767 184.321L190.403 190.685C190.012 191.076 189.379 191.076 188.989 190.685L182.625 184.321C182.234 183.931 182.234 183.297 182.625 182.907C183.015 182.516 183.648 182.516 184.039 182.907L188.696 187.564L188.696 143.978L190.696 143.978L190.696 187.564L195.352 182.907C195.743 182.516 196.376 182.516 196.767 182.907C197.157 183.297 197.157 183.931 196.767 184.321Z" fill="#000"/>
<path fill-rule="evenodd" clip-rule="evenodd" d="M285.49 148.677L280.09 155.877C279.759 156.319 279.132 156.408 278.69 156.077L271.49 150.677C271.048 150.345 270.959 149.719 271.29 149.277C271.621 148.835 272.248 148.745 272.69 149.077L277.959 153.028L273.3 120.418L275.28 120.135L279.939 152.745L283.89 147.477C284.221 147.035 284.848 146.945 285.29 147.277C285.732 147.608 285.821 148.235 285.49 148.677Z" fill="#000"/>
<path d="M306.505 241.1C306.56 241.649 307.05 242.05 307.6 241.995L316.555 241.1C317.104 241.045 317.505 240.555 317.45 240.005C317.395 239.455 316.905 239.054 316.356 239.109L308.396 239.905L307.6 231.945C307.545 231.396 307.055 230.995 306.505 231.05C305.955 231.105 305.554 231.595 305.609 232.144L306.505 241.1ZM299.553 154.894C321.935 166.086 337.852 202.324 306.726 240.367L308.274 241.633C340.148 202.676 324.065 164.914 300.447 153.106L299.553 154.894Z" fill="#000"/>
</svg>
