<svg width="345" height="345" viewBox="0 0 345 345" fill="none" xmlns="http://www.w3.org/2000/svg">
<path d="M216.36 148.94C215.64 151.1 214.92 153.98 214.38 156.32C212.22 165.86 209.34 187.1 209.88 198.8C220.32 173.42 245.88 157.76 270.54 157.76C300.6 157.76 315.9 175.76 315.9 197.9C315.9 222.2 301.5 242.72 269.28 242.72C251.82 242.72 235.62 233.36 227.16 215.9L234.72 205.64C241.74 220.4 252.9 229.58 269.28 229.58C292.14 229.58 302.94 216.44 302.94 198.26C302.94 182.78 293.58 169.64 270.18 169.64C238.86 169.64 217.98 194.12 213.48 215.72C212.76 218.24 212.22 221.3 212.4 224.72C212.58 227.96 213.66 235.52 214.56 239.3L202.5 240.92C199.62 231.92 197.28 216.98 197.28 202.76C197.28 185.3 200.16 163.34 201.24 155.24C201.42 152.36 201.6 149.84 201.42 147.86L216.36 148.94ZM268.56 140.3C270.72 150.74 273.6 171.98 273.6 193.4C273.6 224.54 266.4 250.82 242.64 266.3L230.4 258.74C254.34 245.42 261 221.3 261 192.5C261 171.44 258.66 157.04 257.04 149.12C256.32 146.06 255.42 143.18 254.52 140.66L268.56 140.3Z" fill="#f00"/>
<path d="M78.1402 110.06C76.7002 114.92 75.8002 120.5 74.7202 125.18C72.2002 139.58 65.0002 174.32 58.8802 191.06C74.5402 180.08 90.7402 175.58 109.46 175.58C138.08 175.58 154.82 190.16 154.82 211.22C154.82 248.84 116.48 262.7 61.7602 256.94L57.9802 242.54C99.7402 248.3 140.06 241.28 140.06 211.58C140.06 198.26 129.08 187.82 108.02 187.82C86.6002 187.82 66.6202 195.2 54.7402 209.42C52.5802 212.12 50.9602 214.64 49.1602 217.7L35.8402 213.02C49.5202 186.2 59.0602 141.56 61.2202 124.28C61.9402 118.52 62.3002 114.2 61.9402 109.34L78.1402 110.06ZM22.1602 133.1C31.7002 134.72 45.3802 135.98 56.1802 135.98C79.2202 135.98 114.68 133.28 142.94 126.98L143.3 140.84C117.74 145.34 81.0202 148.94 56.3602 148.94C44.1202 148.94 32.6002 148.04 22.3402 147.14L22.1602 133.1Z" fill="#f00"/>
<path d="M27.1211 118.978V109.158H26.98L24 111.25V109.191L27.1294 107H29.2627V118.978H27.1211Z" fill="#000"/>
<path d="M99.7119 94.7358C99.7119 93.618 100.099 92.7049 100.874 91.9966C101.654 91.2882 102.659 90.9341 103.887 90.9341C105.071 90.9341 106.045 91.2578 106.809 91.9053C107.578 92.5527 107.963 93.3773 107.963 94.3789C107.963 95.0208 107.769 95.6572 107.382 96.2881C106.994 96.9134 106.292 97.7297 105.273 98.7368L102.767 101.252V101.393H108.146V103.211H99.8281V101.725L103.821 97.6411C104.64 96.811 105.185 96.1885 105.456 95.7734C105.727 95.3529 105.863 94.9323 105.863 94.5117C105.863 93.986 105.669 93.5516 105.282 93.2085C104.9 92.8654 104.413 92.6938 103.821 92.6938C103.195 92.6938 102.689 92.882 102.302 93.2583C101.914 93.6346 101.721 94.1271 101.721 94.7358V94.769H99.7119V94.7358Z" fill="#000"/>
<path fill-rule="evenodd" clip-rule="evenodd" d="M94.3335 124.793L87.0099 130.024C86.5604 130.346 85.9359 130.241 85.6149 129.792L80.3837 122.468C80.0627 122.019 80.1668 121.394 80.6162 121.073C81.0656 120.752 81.6902 120.857 82.0112 121.306L85.8391 126.665L92.4422 87.0464L94.415 87.3752L87.8119 126.994L93.171 123.166C93.6204 122.845 94.2449 122.949 94.566 123.398C94.887 123.848 94.7829 124.472 94.3335 124.793Z" fill="#000"/>
<path fill-rule="evenodd" clip-rule="evenodd" d="M161.434 241.401C160.936 241.641 160.339 241.431 160.099 240.934L156.195 232.825C155.955 232.327 156.164 231.73 156.662 231.49C157.16 231.25 157.757 231.46 157.997 231.957L160.837 237.856C168.507 214.261 165.054 196.759 156.566 185.088C147.779 173.006 133.474 167 120 167L120 165C134.026 165 148.971 171.244 158.184 183.912C167.143 196.23 170.568 214.461 162.709 238.567L168.675 235.695C169.173 235.455 169.771 235.664 170.01 236.162C170.25 236.659 170.041 237.257 169.543 237.497L161.434 241.401Z" fill="#000"/>
<path fill-rule="evenodd" clip-rule="evenodd" d="M48.3431 118.929L54.7071 125.293C55.0976 125.683 55.0976 126.317 54.7071 126.707L48.3431 133.071C47.9526 133.462 47.3195 133.462 46.9289 133.071C46.5384 132.68 46.5384 132.047 46.9289 131.657L51.5858 127H21V125H51.5858L46.9289 120.343C46.5384 119.953 46.5384 119.319 46.9289 118.929C47.3195 118.538 47.9526 118.538 48.3431 118.929Z" fill="#000"/>
<path d="M181.121 153.978V144.158H180.98L178 146.25V144.191L181.129 142H183.263V153.978H181.121Z" fill="#000"/>
<path d="M280.573 120.802C280.573 119.684 280.961 118.771 281.735 118.062C282.516 117.354 283.52 117 284.749 117C285.933 117 286.907 117.324 287.67 117.971C288.44 118.619 288.824 119.443 288.824 120.445C288.824 121.087 288.631 121.723 288.243 122.354C287.856 122.979 287.153 123.796 286.135 124.803L283.628 127.318V127.459H289.007V129.277H280.689V127.791L284.682 123.707C285.501 122.877 286.046 122.254 286.317 121.839C286.589 121.419 286.724 120.998 286.724 120.578C286.724 120.052 286.53 119.618 286.143 119.274C285.761 118.931 285.274 118.76 284.682 118.76C284.057 118.76 283.55 118.948 283.163 119.324C282.776 119.701 282.582 120.193 282.582 120.802V120.835H280.573V120.802Z" fill="#000"/>
<path fill-rule="evenodd" clip-rule="evenodd" d="M196.767 184.321L190.403 190.685C190.012 191.076 189.379 191.076 188.989 190.685L182.625 184.321C182.234 183.931 182.234 183.297 182.625 182.907C183.015 182.516 183.648 182.516 184.039 182.907L188.696 187.564L188.696 143.978L190.696 143.978L190.696 187.564L195.352 182.907C195.743 182.516 196.376 182.516 196.767 182.907C197.157 183.297 197.157 183.931 196.767 184.321Z" fill="#000"/>
<path fill-rule="evenodd" clip-rule="evenodd" d="M285.49 148.677L280.09 155.877C279.759 156.319 279.132 156.408 278.69 156.077L271.49 150.677C271.048 150.345 270.959 149.719 271.29 149.277C271.621 148.835 272.248 148.745 272.69 149.077L277.959 153.028L273.3 120.418L275.28 120.135L279.939 152.745L283.89 147.477C284.221 147.035 284.848 146.945 285.29 147.277C285.732 147.608 285.821 148.235 285.49 148.677Z" fill="#000"/>
<path d="M306.505 241.1C306.56 241.649 307.05 242.05 307.6 241.995L316.555 241.1C317.104 241.045 317.505 240.555 317.45 240.005C317.395 239.455 316.905 239.054 316.356 239.109L308.396 239.905L307.6 231.945C307.545 231.396 307.055 230.995 306.505 231.05C305.955 231.105 305.554 231.595 305.609 232.144L306.505 241.1ZM299.553 154.894C321.935 166.086 337.852 202.324 306.726 240.367L308.274 241.633C340.148 202.676 324.065 164.914 300.447 153.106L299.553 154.894Z" fill="#000"/>
</svg>
