<svg width="345" height="345" viewBox="0 0 345 345" fill="none" xmlns="http://www.w3.org/2000/svg">
<path d="M265.204 161.54C260.164 155.96 252.424 149.12 245.764 144.44L255.664 136.88C260.524 140.3 270.244 148.4 275.284 153.8L265.204 161.54ZM221.824 150.2C223.264 153.08 225.064 156.32 226.324 158.84C231.364 168.2 240.724 187.1 246.484 200.6C254.404 218.6 263.224 245.6 268.264 261.26L254.044 265.04C249.544 247.94 241.984 224.54 234.244 206C227.584 190.7 219.664 173.96 214.804 166.04C213.184 163.34 210.304 158.84 207.604 155.96L221.824 150.2ZM192.124 193.04C197.524 191.78 202.384 190.16 204.904 189.08C225.064 181.16 265.384 160.1 288.244 160.1C312.184 160.1 322.804 173.96 322.804 189.08C322.804 207.8 311.824 220.4 286.804 220.4C278.704 220.4 269.704 217.88 264.664 215.9L265.204 202.58C270.784 205.28 278.884 207.62 286.264 207.62C303.544 207.62 309.484 198.8 309.484 189.08C309.484 181.52 304.084 172.52 287.884 172.52C264.124 172.52 214.984 199.88 199.144 207.08L192.124 193.04Z" fill="#f00"/>
<path d="M120.734 120.86C124.514 142.64 132.434 173.24 158.894 197.18L149.534 209.78C129.554 188.54 117.314 161.72 106.694 124.82L120.734 120.86ZM8.23438 130.4C10.9344 130.58 14.7144 130.58 17.9544 130.4C33.9744 129.68 64.2144 125.54 74.8344 121.4L78.9744 134.18C76.6344 134.9 72.1344 136.16 69.4344 137.24C58.0944 145.7 30.5544 177.2 30.5544 214.28C30.5544 239.66 47.2944 248.12 65.8344 248.12C108.674 248.12 123.254 202.04 109.574 131.48L122.714 155.78C132.074 207.26 121.814 262.88 65.4744 262.88C37.0344 262.88 16.5144 247.04 16.5144 217.34C16.5144 183.68 34.1544 157.94 49.9944 139.94C40.8144 141.38 26.0544 143.18 19.5744 144.08C16.1544 144.44 13.0944 144.98 9.31437 145.52L8.23438 130.4ZM137.294 123.74C137.294 130.04 142.334 135.26 148.814 135.26C155.294 135.26 160.334 130.04 160.334 123.74C160.334 117.26 155.294 112.04 148.814 112.04C142.514 112.04 137.294 117.26 137.294 123.74ZM129.014 123.74C129.014 112.76 137.834 103.76 148.814 103.76C159.794 103.76 168.794 112.76 168.794 123.74C168.794 134.54 159.794 143.54 148.814 143.54C137.834 143.54 129.014 134.54 129.014 123.74Z" fill="#f00"/>
<path d="M188.134 180.978V171.158H187.993L185.013 173.25V171.191L188.142 169H190.275V180.978H188.134Z" fill="#000"/>
<path d="M260.307 111.802C260.307 110.684 260.694 109.771 261.469 109.062C262.249 108.354 263.253 108 264.482 108C265.666 108 266.64 108.324 267.404 108.971C268.173 109.619 268.558 110.443 268.558 111.445C268.558 112.087 268.364 112.723 267.977 113.354C267.589 113.979 266.886 114.796 265.868 115.803L263.361 118.318V118.459H268.74V120.277H260.423V118.791L264.416 114.707C265.235 113.877 265.78 113.254 266.051 112.839C266.322 112.419 266.458 111.998 266.458 111.578C266.458 111.052 266.264 110.618 265.876 110.274C265.495 109.931 265.008 109.76 264.416 109.76C263.79 109.76 263.284 109.948 262.896 110.324C262.509 110.701 262.315 111.193 262.315 111.802V111.835H260.307V111.802Z" fill="#000"/>
<path d="M232.926 132.964V131.304H234.387C234.996 131.304 235.491 131.138 235.873 130.806C236.255 130.469 236.446 130.031 236.446 129.495C236.446 128.963 236.258 128.54 235.881 128.225C235.511 127.904 235.013 127.743 234.387 127.743C233.767 127.743 233.264 127.906 232.876 128.233C232.495 128.559 232.284 129.005 232.246 129.569H230.245C230.3 128.468 230.704 127.599 231.457 126.963C232.21 126.321 233.208 126 234.454 126C235.616 126 236.581 126.304 237.351 126.913C238.125 127.516 238.513 128.277 238.513 129.196C238.513 129.899 238.316 130.499 237.923 130.997C237.536 131.495 237.01 131.813 236.346 131.952V132.093C237.165 132.187 237.81 132.494 238.28 133.014C238.756 133.534 238.994 134.193 238.994 134.99C238.994 136.019 238.562 136.874 237.699 137.555C236.841 138.235 235.762 138.576 234.462 138.576C233.173 138.576 232.121 138.246 231.308 137.588C230.5 136.929 230.068 136.052 230.013 134.957H232.063C232.107 135.51 232.348 135.953 232.785 136.285C233.222 136.611 233.787 136.774 234.479 136.774C235.165 136.774 235.724 136.597 236.155 136.243C236.592 135.883 236.811 135.421 236.811 134.857C236.811 134.27 236.598 133.808 236.172 133.471C235.746 133.133 235.165 132.964 234.429 132.964H232.926Z" fill="#000"/>
<path fill-rule="evenodd" clip-rule="evenodd" d="M285.892 140.219L286.225 149.213C286.246 149.764 285.815 150.228 285.263 150.249L276.269 150.582C275.717 150.603 275.253 150.172 275.233 149.62C275.212 149.068 275.643 148.604 276.195 148.584L282.776 148.34L253.343 121.01L254.704 119.544L284.137 146.874L283.893 140.293C283.873 139.741 284.304 139.277 284.856 139.256C285.408 139.236 285.872 139.667 285.892 140.219Z" fill="#000"/>
<path fill-rule="evenodd" clip-rule="evenodd" d="M205.958 170.862L214.368 174.065C214.884 174.262 215.143 174.84 214.947 175.356L211.743 183.766C211.546 184.282 210.968 184.541 210.452 184.345C209.936 184.148 209.677 183.57 209.874 183.054L212.218 176.9L185.421 188.912L184.603 187.087L211.4 175.075L205.246 172.73C204.73 172.534 204.471 171.956 204.667 171.44C204.864 170.924 205.442 170.665 205.958 170.862Z" fill="#000"/>
<path fill-rule="evenodd" clip-rule="evenodd" d="M245.702 159.731L242.966 168.305C242.798 168.831 242.235 169.121 241.709 168.953L233.135 166.217C232.609 166.049 232.318 165.486 232.486 164.96C232.654 164.434 233.217 164.144 233.743 164.311L240.017 166.314L225.124 137.459L226.901 136.542L241.794 165.397L243.797 159.123C243.964 158.596 244.527 158.306 245.053 158.474C245.579 158.642 245.87 159.204 245.702 159.731Z" fill="#000"/>
<path d="M158 90.8018C158 89.6839 158.387 88.7708 159.162 88.0625C159.942 87.3542 160.947 87 162.175 87C163.36 87 164.333 87.3237 165.097 87.9712C165.866 88.6187 166.251 89.4432 166.251 90.4448C166.251 91.0868 166.057 91.7231 165.67 92.354C165.283 92.9793 164.58 93.7956 163.562 94.8027L161.055 97.3179V97.459H166.434V99.2769H158.116V97.791L162.109 93.707C162.928 92.877 163.473 92.2544 163.744 91.8394C164.015 91.4188 164.151 90.9982 164.151 90.5776C164.151 90.0519 163.957 89.6175 163.57 89.2744C163.188 88.9313 162.701 88.7598 162.109 88.7598C161.484 88.7598 160.977 88.9479 160.59 89.3242C160.202 89.7005 160.009 90.193 160.009 90.8018V90.835H158V90.8018Z" fill="#000"/>
<path d="M13.0205 113.978V104.158H12.8794L9.89941 106.25V104.191L13.0288 102H15.1621V113.978H13.0205Z" fill="#000"/>
<path fill-rule="evenodd" clip-rule="evenodd" d="M63.0198 107.752L70.1984 113.18C70.6389 113.514 70.726 114.141 70.3929 114.581L64.9645 121.76C64.6314 122.2 64.0042 122.287 63.5637 121.954C63.1232 121.621 63.0361 120.994 63.3693 120.554L67.3415 115.301L9.15013 123.379L8.87511 121.398L67.0665 113.32L61.8135 109.347C61.373 109.014 61.2859 108.387 61.619 107.947C61.9521 107.506 62.5793 107.419 63.0198 107.752Z" fill="#000"/>
<path fill-rule="evenodd" clip-rule="evenodd" d="M103.343 122.935C103.097 131.196 104.361 142.323 107.473 155.265L105.528 155.733C102.389 142.675 101.091 131.365 101.344 122.876C101.471 118.635 101.986 115.056 102.877 112.301C103.758 109.577 105.063 107.49 106.899 106.495C108.816 105.457 111.014 105.758 113.274 107.148C115.511 108.524 117.94 111.032 120.535 114.704C125.519 121.754 131.299 133.357 137.612 150.399L140.405 144.422C140.638 143.922 141.234 143.706 141.734 143.94C142.234 144.174 142.45 144.769 142.217 145.269L138.406 153.423C138.172 153.923 137.577 154.139 137.077 153.905L128.923 150.095C128.423 149.861 128.207 149.266 128.441 148.765C128.674 148.265 129.27 148.049 129.77 148.283L135.726 151.066C129.442 134.107 123.738 122.699 118.902 115.858C116.373 112.28 114.13 110.022 112.226 108.851C110.345 107.694 108.934 107.667 107.851 108.254C106.687 108.884 105.602 110.375 104.78 112.917C103.968 115.427 103.467 118.802 103.343 122.935Z" fill="#000"/>
</svg>
