<svg width="345" height="345" viewBox="0 0 345 345" fill="none" xmlns="http://www.w3.org/2000/svg">
<path d="M263.946 161.54C258.906 155.96 251.166 149.12 244.506 144.44L254.406 136.88C259.266 140.3 268.986 148.4 274.026 153.8L263.946 161.54ZM220.566 150.2C222.006 153.08 223.806 156.32 225.066 158.84C230.106 168.2 239.466 187.1 245.226 200.6C253.146 218.6 261.966 245.6 267.006 261.26L252.786 265.04C248.286 247.94 240.726 224.54 232.986 206C226.326 190.7 218.406 173.96 213.546 166.04C211.926 163.34 209.046 158.84 206.346 155.96L220.566 150.2ZM190.866 193.04C196.266 191.78 201.126 190.16 203.646 189.08C223.806 181.16 264.126 160.1 286.986 160.1C310.926 160.1 321.546 173.96 321.546 189.08C321.546 207.8 310.566 220.4 285.546 220.4C277.446 220.4 268.446 217.88 263.406 215.9L263.946 202.58C269.526 205.28 277.626 207.62 285.006 207.62C302.286 207.62 308.226 198.8 308.226 189.08C308.226 181.52 302.826 172.52 286.626 172.52C262.866 172.52 213.726 199.88 197.886 207.08L190.866 193.04Z" fill="#f00"/>
<path d="M130.912 107C135.232 112.94 141.892 123.92 145.672 131.84L136.312 136.34C132.352 127.52 127.312 118.34 121.912 110.78L130.912 107ZM149.812 99.6201C154.312 105.56 161.152 116.54 165.292 124.28L156.112 128.78C151.792 120.14 146.572 111.32 140.992 103.94L149.812 99.6201ZM19.4923 128.24C44.5123 131.3 68.0923 131.66 86.6323 130.04C101.392 128.6 114.892 125.72 125.152 122.3L127.132 135.26C117.232 138.14 104.092 140.84 89.6923 142.28C71.3323 143.9 46.1323 143.9 20.3923 141.56L19.4923 128.24ZM16.0723 165.32C46.6723 168.38 77.4523 168.02 98.3323 165.5C115.432 163.52 130.192 159.92 139.732 157.04L141.892 170.54C131.992 173.24 118.312 175.76 103.372 177.74C81.0523 180.44 47.7523 180.98 16.7923 178.64L16.0723 165.32ZM77.4523 125.9C76.0123 120.68 74.3923 115.1 72.5923 109.88L87.8923 108.08C89.6923 123.02 95.0923 141.2 99.5923 153.98C104.452 168.02 112.552 185.3 121.912 199.16C123.712 202.04 126.052 204.56 128.572 206.9L121.012 217.88C110.932 215.36 94.1923 213.56 81.7723 212.3L83.0323 201.32C92.5723 202.4 104.272 203.66 110.032 204.2C99.9523 188.72 92.3923 171.44 87.1723 156.86C82.6723 144.62 79.9723 134.9 77.4523 125.9ZM42.1723 204.02C37.8523 210.14 34.6123 216.44 34.6123 224.36C34.6123 239.12 47.9323 246.68 76.1923 246.68C92.9323 246.68 106.072 245.42 119.032 242.9L118.492 257.12C105.892 259.28 91.6723 260.36 76.3723 260.36C41.0923 260.36 21.2923 249.92 21.1123 226.7C20.9323 216.44 24.1723 208.88 28.1323 200.96L42.1723 204.02Z" fill="#f00"/>
<path d="M188.134 180.978V171.158H187.993L185.013 173.25V171.191L188.142 169H190.275V180.978H188.134Z" fill="#000"/>
<path d="M260.307 111.802C260.307 110.684 260.694 109.771 261.469 109.062C262.249 108.354 263.253 108 264.482 108C265.666 108 266.64 108.324 267.404 108.971C268.173 109.619 268.558 110.443 268.558 111.445C268.558 112.087 268.364 112.723 267.977 113.354C267.589 113.979 266.886 114.796 265.868 115.803L263.361 118.318V118.459H268.74V120.277H260.423V118.791L264.416 114.707C265.235 113.877 265.78 113.254 266.051 112.839C266.322 112.419 266.458 111.998 266.458 111.578C266.458 111.052 266.264 110.618 265.876 110.274C265.495 109.931 265.008 109.76 264.416 109.76C263.79 109.76 263.284 109.948 262.896 110.324C262.509 110.701 262.315 111.193 262.315 111.802V111.835H260.307V111.802Z" fill="#000"/>
<path d="M232.926 132.964V131.304H234.387C234.996 131.304 235.491 131.138 235.873 130.806C236.255 130.469 236.446 130.031 236.446 129.495C236.446 128.963 236.258 128.54 235.881 128.225C235.511 127.904 235.013 127.743 234.387 127.743C233.767 127.743 233.264 127.906 232.876 128.233C232.495 128.559 232.284 129.005 232.246 129.569H230.245C230.3 128.468 230.704 127.599 231.457 126.963C232.21 126.321 233.208 126 234.454 126C235.616 126 236.581 126.304 237.351 126.913C238.125 127.516 238.513 128.277 238.513 129.196C238.513 129.899 238.316 130.499 237.923 130.997C237.536 131.495 237.01 131.813 236.346 131.952V132.093C237.165 132.187 237.81 132.494 238.28 133.014C238.756 133.534 238.994 134.193 238.994 134.99C238.994 136.019 238.562 136.874 237.699 137.555C236.841 138.235 235.762 138.576 234.462 138.576C233.173 138.576 232.121 138.246 231.308 137.588C230.5 136.929 230.068 136.052 230.013 134.957H232.063C232.107 135.51 232.348 135.953 232.785 136.285C233.222 136.611 233.787 136.774 234.479 136.774C235.165 136.774 235.724 136.597 236.155 136.243C236.592 135.883 236.811 135.421 236.811 134.857C236.811 134.27 236.598 133.808 236.172 133.471C235.746 133.133 235.165 132.964 234.429 132.964H232.926Z" fill="#000"/>
<path fill-rule="evenodd" clip-rule="evenodd" d="M285.892 140.218L286.225 149.212C286.246 149.764 285.815 150.228 285.263 150.248L276.269 150.582C275.717 150.602 275.253 150.171 275.233 149.62C275.212 149.068 275.643 148.604 276.195 148.583L282.776 148.339L253.343 121.01L254.704 119.544L284.137 146.874L283.893 140.292C283.873 139.74 284.304 139.276 284.856 139.256C285.408 139.236 285.872 139.666 285.892 140.218Z" fill="#000"/>
<path fill-rule="evenodd" clip-rule="evenodd" d="M205.958 170.862L214.368 174.065C214.884 174.262 215.143 174.84 214.947 175.356L211.743 183.766C211.546 184.282 210.968 184.541 210.452 184.345C209.936 184.148 209.677 183.57 209.874 183.054L212.218 176.9L185.421 188.912L184.603 187.087L211.4 175.075L205.246 172.73C204.73 172.534 204.471 171.956 204.667 171.44C204.864 170.924 205.442 170.665 205.958 170.862Z" fill="#000"/>
<path fill-rule="evenodd" clip-rule="evenodd" d="M245.702 159.73L242.966 168.304C242.798 168.83 242.235 169.121 241.709 168.953L233.135 166.216C232.609 166.048 232.318 165.486 232.486 164.96C232.654 164.433 233.217 164.143 233.743 164.311L240.017 166.313L225.124 137.459L226.901 136.541L241.794 165.396L243.797 159.122C243.964 158.596 244.527 158.305 245.053 158.473C245.579 158.641 245.87 159.204 245.702 159.73Z" fill="#000"/>
<path d="M21.4258 113.978V104.158H21.2847L18.3047 106.25V104.191L21.4341 102H23.5674V113.978H21.4258Z" fill="#000"/>
<path d="M6 142.802C6 141.684 6.38737 140.771 7.16211 140.062C7.94238 139.354 8.94678 139 10.1753 139C11.3595 139 12.3335 139.324 13.0972 139.971C13.8664 140.619 14.251 141.443 14.251 142.445C14.251 143.087 14.0573 143.723 13.6699 144.354C13.2826 144.979 12.5798 145.796 11.5615 146.803L9.05469 149.318V149.459H14.4336V151.277H6.11621V149.791L10.1089 145.707C10.9279 144.877 11.473 144.254 11.7441 143.839C12.0153 143.419 12.1509 142.998 12.1509 142.578C12.1509 142.052 11.9572 141.618 11.5698 141.274C11.188 140.931 10.701 140.76 10.1089 140.76C9.48356 140.76 8.97721 140.948 8.58984 141.324C8.20247 141.701 8.00879 142.193 8.00879 142.802V142.835H6V142.802Z" fill="#000"/>
<path d="M104.914 88.9644V87.3042H106.375C106.983 87.3042 107.479 87.1382 107.86 86.8062C108.242 86.4686 108.433 86.0314 108.433 85.4946C108.433 84.9634 108.245 84.54 107.869 84.2246C107.498 83.9036 107 83.7432 106.375 83.7432C105.755 83.7432 105.251 83.9064 104.864 84.2329C104.482 84.5594 104.272 85.0049 104.233 85.5693H102.232C102.288 84.4681 102.692 83.5993 103.444 82.9629C104.197 82.321 105.196 82 106.441 82C107.603 82 108.569 82.3044 109.338 82.9131C110.113 83.5163 110.5 84.2772 110.5 85.1958C110.5 85.8986 110.304 86.499 109.911 86.9971C109.523 87.4951 108.998 87.8133 108.333 87.9517V88.0928C109.153 88.1868 109.797 88.494 110.268 89.0142C110.743 89.5343 110.981 90.1929 110.981 90.9897C110.981 92.019 110.55 92.874 109.687 93.5547C108.829 94.2354 107.75 94.5757 106.449 94.5757C105.16 94.5757 104.108 94.2464 103.295 93.5879C102.487 92.9294 102.055 92.0522 102 90.9565H104.05C104.095 91.5099 104.335 91.9526 104.772 92.2847C105.21 92.6112 105.774 92.7744 106.466 92.7744C107.152 92.7744 107.711 92.5973 108.143 92.2432C108.58 91.8835 108.798 91.4214 108.798 90.8569C108.798 90.2703 108.585 89.8083 108.159 89.4707C107.733 89.1331 107.152 88.9644 106.416 88.9644H104.914Z" fill="#000"/>
<path fill-rule="evenodd" clip-rule="evenodd" d="M58.3431 111.907L64.7071 118.271C65.0976 118.662 65.0976 119.295 64.7071 119.685L58.3431 126.049C57.9526 126.44 57.3195 126.44 56.9289 126.049C56.5384 125.659 56.5384 125.026 56.9289 124.635L61.5858 119.978L18 119.978L18 117.978L61.5858 117.978L56.9289 113.321C56.5384 112.931 56.5384 112.298 56.9289 111.907C57.3195 111.517 57.9526 111.517 58.3431 111.907Z" fill="#000"/>
<path fill-rule="evenodd" clip-rule="evenodd" d="M7.73404 239.536L1.22859 238.01C0.690899 237.883 0.152772 238.217 0.0266494 238.755C-0.0994736 239.293 0.234168 239.831 0.771859 239.957L9.53404 242.012C10.0717 242.138 10.6099 241.805 10.736 241.267L12.7913 232.505C12.9174 231.967 12.5838 231.429 12.0461 231.303C11.5084 231.177 10.9702 231.51 10.8441 232.048L9.36616 238.349C3.07626 226.565 3.60574 212.718 11.521 203.503C19.8963 193.752 36.8926 188.801 63.9566 197.491L64.5681 195.587C37.1322 186.777 19.1285 191.576 10.0038 202.2C1.38436 212.235 1.00283 227.123 7.73404 239.536Z" fill="#000"/>
<path fill-rule="evenodd" clip-rule="evenodd" d="M107.861 116.098L102.829 123.559C102.52 124.017 101.899 124.138 101.441 123.829L93.9791 118.797C93.5213 118.488 93.4004 117.867 93.7092 117.409C94.018 116.951 94.6395 116.83 95.0974 117.139L100.558 120.821L94.0183 87.1912L95.9816 86.8094L102.521 120.44L106.203 114.979C106.512 114.522 107.133 114.401 107.591 114.71C108.049 115.018 108.17 115.64 107.861 116.098Z" fill="#000"/>
<path fill-rule="evenodd" clip-rule="evenodd" d="M71.3431 148.929L77.7071 155.293C78.0976 155.683 78.0976 156.316 77.7071 156.707L71.3431 163.071C70.9526 163.461 70.3195 163.461 69.9289 163.071C69.5384 162.68 69.5384 162.047 69.9289 161.657L74.5858 157L6 157L6 155L74.5858 155L69.9289 150.343C69.5384 149.952 69.5384 149.319 69.9289 148.929C70.3195 148.538 70.9526 148.538 71.3431 148.929Z" fill="#000"/>
<path d="M131.852 101.978V99.7451H126V97.8359C126.974 96.043 128.601 93.431 130.881 90H133.902V97.9355H135.521V99.7451H133.902V101.978H131.852ZM127.984 97.8608V97.9854H131.885V91.7432H131.769C130.474 93.6579 129.212 95.6971 127.984 97.8608Z" fill="#000"/>
<path d="M155.831 96.2769C154.597 96.2769 153.584 95.9393 152.793 95.2642C152.002 94.589 151.581 93.7202 151.531 92.6577H153.54C153.606 93.2056 153.853 93.6483 154.279 93.9858C154.705 94.3234 155.228 94.4922 155.848 94.4922C156.55 94.4922 157.118 94.2764 157.549 93.8447C157.986 93.4076 158.205 92.832 158.205 92.1182C158.205 91.4043 157.986 90.826 157.549 90.3833C157.118 89.9351 156.556 89.7109 155.864 89.7109C155.377 89.7109 154.943 89.8133 154.561 90.0181C154.185 90.2228 153.886 90.5133 153.665 90.8896H151.722L152.345 84H159.558V85.8096H154.005L153.714 89.1714H153.855C154.409 88.4243 155.253 88.0508 156.387 88.0508C157.522 88.0508 158.451 88.4271 159.176 89.1797C159.907 89.9323 160.272 90.8952 160.272 92.0684C160.272 93.319 159.862 94.3345 159.043 95.1147C158.23 95.8895 157.159 96.2769 155.831 96.2769Z" fill="#000"/>
</svg>
