<svg width="345" height="345" viewBox="0 0 345 345" fill="none" xmlns="http://www.w3.org/2000/svg">
<path d="M216.36 148.94C215.64 151.1 214.92 153.98 214.38 156.32C212.22 165.86 209.34 187.1 209.88 198.8C220.32 173.42 245.88 157.76 270.54 157.76C300.6 157.76 315.9 175.76 315.9 197.9C315.9 222.2 301.5 242.72 269.28 242.72C251.82 242.72 235.62 233.36 227.16 215.9L234.72 205.64C241.74 220.4 252.9 229.58 269.28 229.58C292.14 229.58 302.94 216.44 302.94 198.26C302.94 182.78 293.58 169.64 270.18 169.64C238.86 169.64 217.98 194.12 213.48 215.72C212.76 218.24 212.22 221.3 212.4 224.72C212.58 227.96 213.66 235.52 214.56 239.3L202.5 240.92C199.62 231.92 197.28 216.98 197.28 202.76C197.28 185.3 200.16 163.34 201.24 155.24C201.42 152.36 201.6 149.84 201.42 147.86L216.36 148.94ZM268.56 140.3C270.72 150.74 273.6 171.98 273.6 193.4C273.6 224.54 266.4 250.82 242.64 266.3L230.4 258.74C254.34 245.42 261 221.3 261 192.5C261 171.44 258.66 157.04 257.04 149.12C256.32 146.06 255.42 143.18 254.52 140.66L268.56 140.3Z" fill="#f00"/>
<path d="M83.9003 129.5C103.52 132.92 140.06 132.2 157.88 129.5V144.08C138.62 146.24 103.7 146.24 84.0803 144.08L83.9003 129.5ZM90.9203 202.94C89.3003 209.42 88.4003 214.46 88.4003 219.32C88.4003 227.6 94.1603 235.7 118.82 235.7C134.84 235.7 148.88 234.26 163.28 230.84L163.64 245.96C152.48 248.3 137.36 249.74 118.64 249.74C88.5803 249.74 75.0803 239.66 75.0803 222.74C75.0803 216.8 75.9803 210.32 77.9603 201.68L90.9203 202.94ZM49.7003 115.64C48.6203 118.7 47.1803 124.46 46.4603 127.7C43.0403 144.44 37.4603 176.48 37.4603 196.82C37.4603 205.46 38.0003 213.02 39.0803 221.84C42.1403 213.74 46.2803 202.94 49.3403 195.56L56.9003 201.5C52.4003 214.28 45.7403 233.18 44.1203 241.82C43.5803 244.34 43.2203 247.76 43.2203 249.92C43.4003 251.72 43.5803 254.24 43.7603 256.22L30.9803 257.12C27.3803 244.34 24.3203 223.64 24.3203 199.16C24.3203 172.7 30.2603 141.92 32.4203 126.98C32.9603 122.84 33.5003 118.34 33.6803 114.38L49.7003 115.64Z" fill="#f00"/>
<path d="M32.1211 108.978V99.1582H31.98L29 101.25V99.1914L32.1294 97H34.2627V108.978H32.1211Z" fill="#000"/>
<path d="M88.2832 103.802C88.2832 102.684 88.6706 101.771 89.4453 101.062C90.2256 100.354 91.23 100 92.4585 100C93.6427 100 94.6167 100.324 95.3804 100.971C96.1496 101.619 96.5342 102.443 96.5342 103.445C96.5342 104.087 96.3405 104.723 95.9531 105.354C95.5658 105.979 94.863 106.796 93.8447 107.803L91.3379 110.318V110.459H96.7168V112.277H88.3994V110.791L92.3921 106.707C93.2111 105.877 93.7562 105.254 94.0273 104.839C94.2985 104.419 94.4341 103.998 94.4341 103.578C94.4341 103.052 94.2404 102.618 93.853 102.274C93.4712 101.931 92.9842 101.76 92.3921 101.76C91.7668 101.76 91.2604 101.948 90.873 102.324C90.4857 102.701 90.292 103.193 90.292 103.802V103.835H88.2832V103.802Z" fill="#000"/>
<path d="M54.9136 233.964V232.304H56.3745C56.9832 232.304 57.4785 232.138 57.8604 231.806C58.2422 231.469 58.4331 231.031 58.4331 230.495C58.4331 229.963 58.245 229.54 57.8687 229.225C57.4979 228.904 56.9998 228.743 56.3745 228.743C55.7547 228.743 55.2511 228.906 54.8638 229.233C54.4819 229.559 54.2716 230.005 54.2329 230.569H52.2324C52.2878 229.468 52.6917 228.599 53.4443 227.963C54.1969 227.321 55.1958 227 56.4409 227C57.603 227 58.5687 227.304 59.3379 227.913C60.1126 228.516 60.5 229.277 60.5 230.196C60.5 230.899 60.3035 231.499 59.9106 231.997C59.5233 232.495 58.9976 232.813 58.3335 232.952V233.093C59.1525 233.187 59.7972 233.494 60.2676 234.014C60.7435 234.534 60.9814 235.193 60.9814 235.99C60.9814 237.019 60.5498 237.874 59.6865 238.555C58.8288 239.235 57.7497 239.576 56.4492 239.576C55.1598 239.576 54.1084 239.246 53.2949 238.588C52.487 237.929 52.0553 237.052 52 235.957H54.0503C54.0946 236.51 54.3353 236.953 54.7725 237.285C55.2096 237.611 55.7741 237.774 56.4658 237.774C57.152 237.774 57.7109 237.597 58.1426 237.243C58.5798 236.883 58.7983 236.421 58.7983 235.857C58.7983 235.27 58.5853 234.808 58.1592 234.471C57.7331 234.133 57.152 233.964 56.416 233.964H54.9136Z" fill="#000"/>
<path fill-rule="evenodd" clip-rule="evenodd" d="M23.8669 165.371L17.0716 171.272C16.6546 171.635 16.023 171.59 15.6609 171.173L9.75974 164.378C9.39761 163.961 9.44209 163.329 9.85908 162.967C10.2761 162.605 10.9077 162.649 11.2698 163.066L15.588 168.039L20.4184 99.4471L22.4135 99.5876L17.5831 168.179L22.5556 163.861C22.9726 163.499 23.6042 163.543 23.9663 163.96C24.3284 164.377 24.2839 165.009 23.8669 165.371Z" fill="#000"/>
<path fill-rule="evenodd" clip-rule="evenodd" d="M139.343 113.206L145.707 119.57C146.098 119.96 146.098 120.594 145.707 120.984L139.343 127.348C138.953 127.739 138.319 127.739 137.929 127.348C137.538 126.958 137.538 126.324 137.929 125.934L142.586 121.277L85 121.277L85 119.277L142.586 119.277L137.929 114.62C137.538 114.23 137.538 113.597 137.929 113.206C138.319 112.815 138.953 112.815 139.343 113.206Z" fill="#000"/>
<path fill-rule="evenodd" clip-rule="evenodd" d="M75.8745 248.351C64.7212 237.778 64 223.234 64 211H66C66 223.266 66.7788 236.972 77.2505 246.899C87.5276 256.642 107.411 262.987 146.003 260.189L140.997 255.931C140.576 255.573 140.525 254.942 140.883 254.521C141.241 254.1 141.872 254.049 142.292 254.407L149.148 260.238C149.569 260.596 149.62 261.227 149.262 261.648L143.431 268.503C143.073 268.924 142.442 268.975 142.021 268.617C141.6 268.259 141.549 267.628 141.907 267.208L146.183 262.181C107.416 264.997 86.7871 258.696 75.8745 248.351Z" fill="#000"/>
<path d="M181.121 153.978V144.158H180.98L178 146.25V144.191L181.129 142H183.263V153.978H181.121Z" fill="#000"/>
<path d="M280.573 120.802C280.573 119.684 280.961 118.771 281.735 118.062C282.516 117.354 283.52 117 284.749 117C285.933 117 286.907 117.324 287.67 117.971C288.44 118.619 288.824 119.443 288.824 120.445C288.824 121.087 288.631 121.723 288.243 122.354C287.856 122.979 287.153 123.796 286.135 124.803L283.628 127.318V127.459H289.007V129.277H280.689V127.791L284.682 123.707C285.501 122.877 286.046 122.254 286.317 121.839C286.589 121.419 286.724 120.998 286.724 120.578C286.724 120.052 286.53 119.618 286.143 119.274C285.761 118.931 285.274 118.76 284.682 118.76C284.057 118.76 283.55 118.948 283.163 119.324C282.776 119.701 282.582 120.193 282.582 120.802V120.835H280.573V120.802Z" fill="#000"/>
<path fill-rule="evenodd" clip-rule="evenodd" d="M196.767 184.321L190.403 190.685C190.012 191.076 189.379 191.076 188.989 190.685L182.625 184.321C182.234 183.931 182.234 183.297 182.625 182.907C183.015 182.516 183.648 182.516 184.039 182.907L188.696 187.564L188.696 143.978L190.696 143.978L190.696 187.564L195.352 182.907C195.743 182.516 196.376 182.516 196.767 182.907C197.157 183.297 197.157 183.931 196.767 184.321Z" fill="#000"/>
<path fill-rule="evenodd" clip-rule="evenodd" d="M285.49 148.677L280.09 155.877C279.759 156.319 279.132 156.408 278.69 156.077L271.49 150.677C271.048 150.345 270.959 149.719 271.29 149.277C271.621 148.835 272.248 148.745 272.69 149.077L277.959 153.028L273.3 120.418L275.28 120.135L279.939 152.745L283.89 147.477C284.221 147.035 284.848 146.945 285.29 147.277C285.732 147.608 285.821 148.235 285.49 148.677Z" fill="#000"/>
<path d="M306.505 241.1C306.56 241.649 307.05 242.05 307.6 241.995L316.555 241.1C317.104 241.045 317.505 240.555 317.45 240.005C317.395 239.455 316.905 239.054 316.356 239.109L308.396 239.905L307.6 231.945C307.545 231.396 307.055 230.995 306.505 231.05C305.955 231.105 305.554 231.595 305.609 232.144L306.505 241.1ZM299.553 154.894C321.935 166.086 337.852 202.324 306.726 240.367L308.274 241.633C340.148 202.676 324.065 164.914 300.447 153.106L299.553 154.894Z" fill="#000"/>
</svg>
