<svg width="345" height="345" viewBox="0 0 345 345" fill="none" xmlns="http://www.w3.org/2000/svg">
<path d="M226.144 148.94C225.424 151.1 224.704 153.98 224.164 156.32C222.004 165.86 219.124 187.1 219.664 198.8C230.104 173.42 255.664 157.76 280.324 157.76C310.384 157.76 325.684 175.76 325.684 197.9C325.684 222.2 311.284 242.72 279.064 242.72C261.604 242.72 245.404 233.36 236.944 215.9L244.504 205.64C251.524 220.4 262.684 229.58 279.064 229.58C301.924 229.58 312.724 216.44 312.724 198.26C312.724 182.78 303.364 169.64 279.964 169.64C248.644 169.64 227.764 194.12 223.264 215.72C222.544 218.24 222.004 221.3 222.184 224.72C222.364 227.96 223.444 235.52 224.344 239.3L212.284 240.92C209.404 231.92 207.064 216.98 207.064 202.76C207.064 185.3 209.944 163.34 211.024 155.24C211.204 152.36 211.384 149.84 211.204 147.86L226.144 148.94ZM278.344 140.3C280.504 150.74 283.384 171.98 283.384 193.4C283.384 224.54 276.184 250.82 252.424 266.3L240.184 258.74C264.124 245.42 270.784 221.3 270.784 192.5C270.784 171.44 268.444 157.04 266.824 149.12C266.104 146.06 265.204 143.18 264.304 140.66L278.344 140.3Z" fill="#f00"/>
<path d="M120.734 120.86C124.514 142.64 132.434 173.24 158.894 197.18L149.534 209.78C129.554 188.54 117.314 161.72 106.694 124.82L120.734 120.86ZM8.23438 130.4C10.9344 130.58 14.7144 130.58 17.9544 130.4C33.9744 129.68 64.2144 125.54 74.8344 121.4L78.9744 134.18C76.6344 134.9 72.1344 136.16 69.4344 137.24C58.0944 145.7 30.5544 177.2 30.5544 214.28C30.5544 239.66 47.2944 248.12 65.8344 248.12C108.674 248.12 123.254 202.04 109.574 131.48L122.714 155.78C132.074 207.26 121.814 262.88 65.4744 262.88C37.0344 262.88 16.5144 247.04 16.5144 217.34C16.5144 183.68 34.1544 157.94 49.9944 139.94C40.8144 141.38 26.0544 143.18 19.5744 144.08C16.1544 144.44 13.0944 144.98 9.31437 145.52L8.23438 130.4ZM137.294 123.74C137.294 130.04 142.334 135.26 148.814 135.26C155.294 135.26 160.334 130.04 160.334 123.74C160.334 117.26 155.294 112.04 148.814 112.04C142.514 112.04 137.294 117.26 137.294 123.74ZM129.014 123.74C129.014 112.76 137.834 103.76 148.814 103.76C159.794 103.76 168.794 112.76 168.794 123.74C168.794 134.54 159.794 143.54 148.814 143.54C137.834 143.54 129.014 134.54 129.014 123.74Z" fill="#f00"/>
<path d="M189.121 153.978V144.158H188.98L186 146.25V144.191L189.129 142H191.263V153.978H189.121Z" fill="#000"/>
<path d="M288.573 120.802C288.573 119.684 288.961 118.771 289.735 118.062C290.516 117.354 291.52 117 292.749 117C293.933 117 294.907 117.324 295.67 117.971C296.44 118.619 296.824 119.443 296.824 120.445C296.824 121.087 296.631 121.723 296.243 122.354C295.856 122.979 295.153 123.796 294.135 124.803L291.628 127.318V127.459H297.007V129.277H288.689V127.791L292.682 123.707C293.501 122.877 294.046 122.254 294.317 121.839C294.589 121.419 294.724 120.998 294.724 120.578C294.724 120.052 294.53 119.618 294.143 119.274C293.761 118.931 293.274 118.76 292.682 118.76C292.057 118.76 291.55 118.948 291.163 119.324C290.776 119.701 290.582 120.193 290.582 120.802V120.835H288.573V120.802Z" fill="#000"/>
<path fill-rule="evenodd" clip-rule="evenodd" d="M204.767 184.322L198.403 190.686C198.012 191.076 197.379 191.076 196.989 190.686L190.625 184.322C190.234 183.931 190.234 183.298 190.625 182.907C191.015 182.517 191.648 182.517 192.039 182.907L196.696 187.564L196.696 143.979L198.696 143.979L198.696 187.564L203.352 182.907C203.743 182.517 204.376 182.517 204.767 182.907C205.157 183.298 205.157 183.931 204.767 184.322Z" fill="#000"/>
<path fill-rule="evenodd" clip-rule="evenodd" d="M293.49 148.677L288.09 155.877C287.759 156.319 287.132 156.408 286.69 156.077L279.49 150.677C279.048 150.345 278.959 149.719 279.29 149.277C279.621 148.835 280.248 148.745 280.69 149.077L285.959 153.028L281.3 120.418L283.28 120.135L287.939 152.745L291.89 147.477C292.221 147.035 292.848 146.945 293.29 147.277C293.732 147.608 293.821 148.235 293.49 148.677Z" fill="#000"/>
<path fill-rule="evenodd" clip-rule="evenodd" d="M316.251 238.457C345.317 201.117 329.56 165.898 307.553 154.894L308.447 153.105C331.688 164.726 347.633 201.477 317.764 239.769L324.356 239.109C324.905 239.054 325.395 239.455 325.45 240.005C325.505 240.554 325.104 241.044 324.555 241.099L315.599 241.995C315.05 242.05 314.56 241.649 314.505 241.099L313.609 232.144C313.554 231.595 313.955 231.104 314.505 231.05C315.054 230.995 315.544 231.396 315.599 231.945L316.251 238.457Z" fill="#000"/>
<path d="M158 90.8018C158 89.6839 158.387 88.7708 159.162 88.0625C159.942 87.3542 160.947 87 162.175 87C163.36 87 164.333 87.3237 165.097 87.9712C165.866 88.6187 166.251 89.4432 166.251 90.4448C166.251 91.0868 166.057 91.7231 165.67 92.354C165.283 92.9793 164.58 93.7956 163.562 94.8027L161.055 97.3179V97.459H166.434V99.2769H158.116V97.791L162.109 93.707C162.928 92.877 163.473 92.2544 163.744 91.8394C164.015 91.4188 164.151 90.9982 164.151 90.5776C164.151 90.0519 163.957 89.6175 163.57 89.2744C163.188 88.9313 162.701 88.7598 162.109 88.7598C161.484 88.7598 160.977 88.9479 160.59 89.3242C160.202 89.7005 160.009 90.193 160.009 90.8018V90.835H158V90.8018Z" fill="#000"/>
<path d="M13.0205 113.978V104.158H12.8794L9.89941 106.25V104.191L13.0288 102H15.1621V113.978H13.0205Z" fill="#000"/>
<path fill-rule="evenodd" clip-rule="evenodd" d="M63.0198 107.752L70.1984 113.18C70.6389 113.514 70.726 114.141 70.3929 114.581L64.9645 121.76C64.6314 122.2 64.0042 122.287 63.5637 121.954C63.1232 121.621 63.0361 120.994 63.3693 120.554L67.3415 115.301L9.15013 123.379L8.87511 121.398L67.0665 113.32L61.8135 109.347C61.373 109.014 61.2859 108.387 61.619 107.947C61.9521 107.506 62.5793 107.419 63.0198 107.752Z" fill="#000"/>
<path fill-rule="evenodd" clip-rule="evenodd" d="M103.343 122.935C103.097 131.196 104.361 142.323 107.473 155.265L105.528 155.733C102.389 142.675 101.091 131.365 101.344 122.876C101.471 118.635 101.986 115.056 102.877 112.301C103.758 109.577 105.063 107.49 106.899 106.495C108.816 105.457 111.014 105.758 113.274 107.148C115.511 108.524 117.94 111.032 120.535 114.704C125.519 121.754 131.299 133.357 137.612 150.399L140.405 144.422C140.638 143.922 141.234 143.706 141.734 143.94C142.234 144.174 142.45 144.769 142.217 145.269L138.406 153.423C138.172 153.923 137.577 154.139 137.077 153.905L128.923 150.095C128.423 149.861 128.207 149.266 128.441 148.765C128.674 148.265 129.27 148.049 129.77 148.283L135.726 151.066C129.442 134.107 123.738 122.699 118.902 115.858C116.373 112.28 114.13 110.022 112.226 108.851C110.345 107.694 108.934 107.667 107.851 108.254C106.687 108.884 105.602 110.375 104.78 112.917C103.968 115.427 103.467 118.802 103.343 122.935Z" fill="#000"/>
</svg>
