<svg width="345" height="345" viewBox="0 0 345 345" fill="none" xmlns="http://www.w3.org/2000/svg">
<path d="M265.205 161.54C260.165 155.96 252.425 149.12 245.765 144.44L255.665 136.88C260.525 140.3 270.245 148.4 275.285 153.8L265.205 161.54ZM221.825 150.2C223.265 153.08 225.065 156.32 226.325 158.84C231.365 168.2 240.725 187.1 246.485 200.6C254.405 218.6 263.225 245.6 268.265 261.26L254.045 265.04C249.545 247.94 241.985 224.54 234.245 206C227.585 190.7 219.665 173.96 214.805 166.04C213.185 163.34 210.305 158.84 207.605 155.96L221.825 150.2ZM192.125 193.04C197.525 191.78 202.385 190.16 204.905 189.08C225.065 181.16 265.385 160.1 288.245 160.1C312.185 160.1 322.805 173.96 322.805 189.08C322.805 207.8 311.825 220.4 286.805 220.4C278.705 220.4 269.705 217.88 264.665 215.9L265.205 202.58C270.785 205.28 278.885 207.62 286.265 207.62C303.545 207.62 309.485 198.8 309.485 189.08C309.485 181.52 304.085 172.52 287.885 172.52C264.125 172.52 214.985 199.88 199.145 207.08L192.125 193.04Z" fill="#f00"/>
<path d="M100.935 126.8C105.435 133.46 113.895 146.96 118.035 155.6L107.415 160.28C102.915 150.74 96.6152 139.58 90.6752 131.3L100.935 126.8ZM124.155 117.62C128.835 123.92 137.475 137.42 141.795 145.88L131.535 150.92C126.675 141.38 120.015 130.4 114.075 122.3L124.155 117.62ZM51.0752 112.04C50.1752 118.16 49.6352 124.28 49.2752 130.22C48.5552 150.56 47.1152 193.22 47.1152 220.04C47.1152 239.84 59.5352 246.68 76.6352 246.68C109.575 246.68 128.295 228.32 141.255 209.6L151.335 221.84C139.095 238.76 115.875 261.44 76.2752 261.44C50.3552 261.44 32.5352 250.82 32.5352 221.3C32.5352 194.66 34.3352 149.12 34.3352 130.22C34.3352 123.56 33.9752 117.26 32.7152 112.04H51.0752Z" fill="#f00"/>
<path d="M188.134 180.978V171.158H187.993L185.013 173.25V171.191L188.142 169H190.275V180.978H188.134Z" fill="#000"/>
<path d="M260.307 111.802C260.307 110.684 260.694 109.771 261.469 109.062C262.249 108.354 263.253 108 264.482 108C265.666 108 266.64 108.324 267.404 108.971C268.173 109.619 268.558 110.443 268.558 111.445C268.558 112.087 268.364 112.723 267.977 113.354C267.589 113.979 266.886 114.796 265.868 115.803L263.361 118.318V118.459H268.74V120.277H260.423V118.791L264.416 114.707C265.235 113.877 265.78 113.254 266.051 112.839C266.322 112.419 266.458 111.998 266.458 111.578C266.458 111.052 266.264 110.618 265.876 110.274C265.495 109.931 265.008 109.76 264.416 109.76C263.79 109.76 263.284 109.948 262.896 110.324C262.509 110.701 262.315 111.193 262.315 111.802V111.835H260.307V111.802Z" fill="#000"/>
<path d="M95 114.802C95 113.684 95.3874 112.771 96.1621 112.062C96.9424 111.354 97.9468 111 99.1753 111C100.36 111 101.333 111.324 102.097 111.971C102.866 112.619 103.251 113.443 103.251 114.445C103.251 115.087 103.057 115.723 102.67 116.354C102.283 116.979 101.58 117.796 100.562 118.803L98.0547 121.318V121.459H103.434V123.277H95.1162V121.791L99.1089 117.707C99.9279 116.877 100.473 116.254 100.744 115.839C101.015 115.419 101.151 114.998 101.151 114.578C101.151 114.052 100.957 113.618 100.57 113.274C100.188 112.931 99.701 112.76 99.1089 112.76C98.4836 112.76 97.9772 112.948 97.5898 113.324C97.2025 113.701 97.0088 114.193 97.0088 114.802V114.835H95V114.802Z" fill="#000"/>
<path d="M232.926 132.964V131.304H234.387C234.996 131.304 235.491 131.138 235.873 130.806C236.255 130.469 236.446 130.031 236.446 129.495C236.446 128.963 236.258 128.54 235.881 128.225C235.511 127.904 235.013 127.743 234.387 127.743C233.767 127.743 233.264 127.906 232.876 128.233C232.495 128.559 232.284 129.005 232.246 129.569H230.245C230.3 128.468 230.704 127.599 231.457 126.963C232.21 126.321 233.208 126 234.454 126C235.616 126 236.581 126.304 237.351 126.913C238.125 127.516 238.513 128.277 238.513 129.196C238.513 129.899 238.316 130.499 237.923 130.997C237.536 131.495 237.01 131.813 236.346 131.952V132.093C237.165 132.187 237.81 132.494 238.28 133.014C238.756 133.534 238.994 134.193 238.994 134.99C238.994 136.019 238.562 136.874 237.699 137.555C236.841 138.235 235.762 138.576 234.462 138.576C233.173 138.576 232.121 138.246 231.308 137.588C230.5 136.929 230.068 136.052 230.013 134.957H232.063C232.107 135.51 232.348 135.953 232.785 136.285C233.222 136.611 233.787 136.774 234.479 136.774C235.165 136.774 235.724 136.597 236.155 136.243C236.592 135.883 236.811 135.421 236.811 134.857C236.811 134.27 236.598 133.808 236.172 133.471C235.746 133.133 235.165 132.964 234.429 132.964H232.926Z" fill="#000"/>
<path d="M124.914 107.964V106.304H126.375C126.983 106.304 127.479 106.138 127.86 105.806C128.242 105.469 128.433 105.031 128.433 104.495C128.433 103.963 128.245 103.54 127.869 103.225C127.498 102.904 127 102.743 126.375 102.743C125.755 102.743 125.251 102.906 124.864 103.233C124.482 103.559 124.272 104.005 124.233 104.569H122.232C122.288 103.468 122.692 102.599 123.444 101.963C124.197 101.321 125.196 101 126.441 101C127.603 101 128.569 101.304 129.338 101.913C130.113 102.516 130.5 103.277 130.5 104.196C130.5 104.899 130.304 105.499 129.911 105.997C129.523 106.495 128.998 106.813 128.333 106.952V107.093C129.153 107.187 129.797 107.494 130.268 108.014C130.743 108.534 130.981 109.193 130.981 109.99C130.981 111.019 130.55 111.874 129.687 112.555C128.829 113.235 127.75 113.576 126.449 113.576C125.16 113.576 124.108 113.246 123.295 112.588C122.487 111.929 122.055 111.052 122 109.957H124.05C124.095 110.51 124.335 110.953 124.772 111.285C125.21 111.611 125.774 111.774 126.466 111.774C127.152 111.774 127.711 111.597 128.143 111.243C128.58 110.883 128.798 110.421 128.798 109.857C128.798 109.27 128.585 108.808 128.159 108.471C127.733 108.133 127.152 107.964 126.416 107.964H124.914Z" fill="#000"/>
<path fill-rule="evenodd" clip-rule="evenodd" d="M285.892 140.218L286.225 149.212C286.246 149.764 285.815 150.228 285.263 150.248L276.269 150.582C275.717 150.602 275.253 150.171 275.233 149.62C275.212 149.068 275.643 148.604 276.195 148.583L282.776 148.339L253.343 121.01L254.704 119.544L284.137 146.874L283.893 140.292C283.873 139.74 284.304 139.276 284.856 139.256C285.408 139.236 285.872 139.666 285.892 140.218Z" fill="#000"/>
<path fill-rule="evenodd" clip-rule="evenodd" d="M205.958 170.862L214.368 174.065C214.884 174.262 215.143 174.84 214.947 175.356L211.743 183.766C211.546 184.282 210.968 184.541 210.452 184.345C209.936 184.148 209.677 183.57 209.874 183.054L212.218 176.9L185.421 188.912L184.603 187.087L211.4 175.075L205.246 172.73C204.73 172.534 204.471 171.956 204.667 171.44C204.864 170.924 205.442 170.665 205.958 170.862Z" fill="#000"/>
<path fill-rule="evenodd" clip-rule="evenodd" d="M245.702 159.73L242.966 168.304C242.798 168.83 242.235 169.121 241.709 168.953L233.135 166.216C232.609 166.048 232.318 165.486 232.486 164.96C232.654 164.433 233.217 164.143 233.743 164.311L240.017 166.313L225.124 137.459L226.901 136.541L241.794 165.396L243.797 159.122C243.964 158.596 244.527 158.305 245.053 158.473C245.579 158.641 245.87 159.204 245.702 159.73Z" fill="#000"/>
<path d="M7.12109 123V113.18H6.97998L4 115.272V113.213L7.12939 111.022H9.2627V123H7.12109Z" fill="#000"/>
<path fill-rule="evenodd" clip-rule="evenodd" d="M28.7667 188.343L22.4027 194.707C22.0122 195.098 21.379 195.098 20.9885 194.707L14.6245 188.343C14.234 187.953 14.234 187.319 14.6245 186.929C15.0151 186.538 15.6482 186.538 16.0388 186.929L20.6956 191.586L20.6956 110L22.6956 110L22.6956 191.586L27.3525 186.929C27.743 186.538 28.3761 186.538 28.7667 186.929C29.1572 187.319 29.1572 187.953 28.7667 188.343Z" fill="#000"/>
</svg>
