<svg width="345" height="345" viewBox="0 0 345 345" fill="none" xmlns="http://www.w3.org/2000/svg">
<path d="M255.42 161.54C250.38 155.96 242.64 149.12 235.98 144.44L245.88 136.88C250.74 140.3 260.46 148.4 265.5 153.8L255.42 161.54ZM212.04 150.2C213.48 153.08 215.28 156.32 216.54 158.84C221.58 168.2 230.94 187.1 236.7 200.6C244.62 218.6 253.44 245.6 258.48 261.26L244.26 265.04C239.76 247.94 232.2 224.54 224.46 206C217.8 190.7 209.88 173.96 205.02 166.04C203.4 163.34 200.52 158.84 197.82 155.96L212.04 150.2ZM182.34 193.04C187.74 191.78 192.6 190.16 195.12 189.08C215.28 181.16 255.6 160.1 278.46 160.1C302.4 160.1 313.02 173.96 313.02 189.08C313.02 207.8 302.04 220.4 277.02 220.4C268.92 220.4 259.92 217.88 254.88 215.9L255.42 202.58C261 205.28 269.1 207.62 276.48 207.62C293.76 207.62 299.7 198.8 299.7 189.08C299.7 181.52 294.3 172.52 278.1 172.52C254.34 172.52 205.2 199.88 189.36 207.08L182.34 193.04Z" fill="#f00"/>
<path d="M34.2201 127.7C59.2401 130.76 82.8201 131.12 101.18 129.32C115.94 128.06 130.7 125 143.66 120.68L145.64 133.82C133.94 137.24 118.64 140.3 104.24 141.56C86.0601 143.36 60.8601 143.36 35.1201 140.84L34.2201 127.7ZM30.6201 164.6C61.4001 167.84 92.0001 167.3 113.06 164.78C130.16 162.98 144.74 159.38 154.28 156.5L156.62 169.82C146.72 172.52 133.04 175.22 117.92 177.02C95.7801 179.9 62.4801 180.44 31.5201 178.1L30.6201 164.6ZM92.1801 125.36C90.7401 120.14 89.1201 114.56 87.1401 109.34L102.44 107.36C104.24 122.48 109.82 140.66 114.32 153.44C119.18 167.48 127.1 184.76 136.46 198.62C138.44 201.5 140.6 204.02 143.3 206.36L135.74 217.34C125.66 214.82 108.92 213.02 96.5001 211.76L97.5801 200.78C107.3 201.68 119 202.94 124.58 203.66C114.68 188.18 107.12 170.9 101.9 156.32C97.4001 143.9 94.7001 134.36 92.1801 125.36ZM56.9001 203.48C52.5801 209.6 49.3401 215.72 49.3401 223.82C49.3401 238.58 62.4801 246.14 90.7401 246.14C107.48 246.14 120.62 244.88 133.76 242.36L133.04 256.58C120.44 258.74 106.4 259.82 90.9201 259.82C55.8201 259.82 36.0201 249.38 35.6601 226.16C35.6601 215.9 38.7201 208.34 42.8601 200.42L56.9001 203.48Z" fill="#f00"/>
<path d="M36.4258 112.978V103.158H36.2847L33.3047 105.25V103.191L36.4341 101H38.5674V112.978H36.4258Z" fill="#000"/>
<path d="M21 141.802C21 140.684 21.3874 139.771 22.1621 139.062C22.9424 138.354 23.9468 138 25.1753 138C26.3595 138 27.3335 138.324 28.0972 138.971C28.8664 139.619 29.251 140.443 29.251 141.445C29.251 142.087 29.0573 142.723 28.6699 143.354C28.2826 143.979 27.5798 144.796 26.5615 145.803L24.0547 148.318V148.459H29.4336V150.277H21.1162V148.791L25.1089 144.707C25.9279 143.877 26.473 143.254 26.7441 142.839C27.0153 142.419 27.1509 141.998 27.1509 141.578C27.1509 141.052 26.9572 140.618 26.5698 140.274C26.188 139.931 25.701 139.76 25.1089 139.76C24.4836 139.76 23.9772 139.948 23.5898 140.324C23.2025 140.701 23.0088 141.193 23.0088 141.802V141.835H21V141.802Z" fill="#000"/>
<path d="M119.914 87.9644V86.3042H121.375C121.983 86.3042 122.479 86.1382 122.86 85.8062C123.242 85.4686 123.433 85.0314 123.433 84.4946C123.433 83.9634 123.245 83.54 122.869 83.2246C122.498 82.9036 122 82.7432 121.375 82.7432C120.755 82.7432 120.251 82.9064 119.864 83.2329C119.482 83.5594 119.272 84.0049 119.233 84.5693H117.232C117.288 83.4681 117.692 82.5993 118.444 81.9629C119.197 81.321 120.196 81 121.441 81C122.603 81 123.569 81.3044 124.338 81.9131C125.113 82.5163 125.5 83.2772 125.5 84.1958C125.5 84.8986 125.304 85.499 124.911 85.9971C124.523 86.4951 123.998 86.8133 123.333 86.9517V87.0928C124.153 87.1868 124.797 87.494 125.268 88.0142C125.743 88.5343 125.981 89.1929 125.981 89.9897C125.981 91.019 125.55 91.874 124.687 92.5547C123.829 93.2354 122.75 93.5757 121.449 93.5757C120.16 93.5757 119.108 93.2464 118.295 92.5879C117.487 91.9294 117.055 91.0522 117 89.9565H119.05C119.095 90.5099 119.335 90.9526 119.772 91.2847C120.21 91.6112 120.774 91.7744 121.466 91.7744C122.152 91.7744 122.711 91.5973 123.143 91.2432C123.58 90.8835 123.798 90.4214 123.798 89.8569C123.798 89.2703 123.585 88.8083 123.159 88.4707C122.733 88.1331 122.152 87.9644 121.416 87.9644H119.914Z" fill="#000"/>
<path fill-rule="evenodd" clip-rule="evenodd" d="M73.3431 110.907L79.7071 117.271C80.0976 117.661 80.0976 118.295 79.7071 118.685L73.3431 125.049C72.9526 125.44 72.3195 125.44 71.9289 125.049C71.5384 124.659 71.5384 124.025 71.9289 123.635L76.5858 118.978L33 118.978L33 116.978L76.5858 116.978L71.9289 112.321C71.5384 111.931 71.5384 111.297 71.9289 110.907C72.3195 110.516 72.9526 110.516 73.3431 110.907Z" fill="#000"/>
<path fill-rule="evenodd" clip-rule="evenodd" d="M22.734 238.536L16.2286 237.01C15.6909 236.883 15.1528 237.217 15.0266 237.755C14.9005 238.293 15.2342 238.831 15.7719 238.957L24.534 241.012C25.0717 241.138 25.6099 240.805 25.736 240.267L27.7913 231.505C27.9174 230.967 27.5838 230.429 27.0461 230.303C26.5084 230.177 25.9702 230.51 25.8441 231.048L24.3662 237.349C18.0763 225.565 18.6057 211.718 26.521 202.503C34.8963 192.752 51.8926 187.801 78.9566 196.491L79.5681 194.587C52.1322 185.777 34.1285 190.576 25.0038 201.2C16.3844 211.235 16.0028 226.123 22.734 238.536Z" fill="#000"/>
<path fill-rule="evenodd" clip-rule="evenodd" d="M122.861 115.098L117.829 122.559C117.52 123.017 116.899 123.138 116.441 122.829L108.979 117.797C108.521 117.488 108.4 116.867 108.709 116.409C109.018 115.951 109.64 115.83 110.097 116.139L115.558 119.821L109.018 86.1909L110.982 85.8092L117.521 119.439L121.203 113.979C121.512 113.521 122.133 113.401 122.591 113.709C123.049 114.018 123.17 114.64 122.861 115.098Z" fill="#000"/>
<path fill-rule="evenodd" clip-rule="evenodd" d="M86.3431 147.929L92.7071 154.293C93.0976 154.683 93.0976 155.317 92.7071 155.707L86.3431 162.071C85.9526 162.462 85.3195 162.462 84.9289 162.071C84.5384 161.68 84.5384 161.047 84.9289 160.657L89.5858 156L21 156L21 154L89.5858 154L84.9289 149.343C84.5384 148.953 84.5384 148.319 84.9289 147.929C85.3195 147.538 85.9526 147.538 86.3431 147.929Z" fill="#000"/>
<path d="M179.121 180.978V171.158H178.98L176 173.25V171.191L179.129 169H181.263V180.978H179.121Z" fill="#000"/>
<path d="M251.294 111.802C251.294 110.684 251.681 109.771 252.456 109.062C253.236 108.354 254.241 108 255.469 108C256.653 108 257.627 108.324 258.391 108.971C259.16 109.619 259.545 110.443 259.545 111.445C259.545 112.087 259.351 112.723 258.964 113.354C258.576 113.979 257.874 114.796 256.855 115.803L254.349 118.318V118.459H259.728V120.277H251.41V118.791L255.403 114.707C256.222 113.877 256.767 113.254 257.038 112.839C257.309 112.419 257.445 111.998 257.445 111.578C257.445 111.052 257.251 110.618 256.864 110.274C256.482 109.931 255.995 109.76 255.403 109.76C254.778 109.76 254.271 109.948 253.884 110.324C253.496 110.701 253.303 111.193 253.303 111.802V111.835H251.294V111.802Z" fill="#000"/>
<path d="M223.914 132.964V131.304H225.375C225.983 131.304 226.479 131.138 226.86 130.806C227.242 130.469 227.433 130.031 227.433 129.495C227.433 128.963 227.245 128.54 226.869 128.225C226.498 127.904 226 127.743 225.375 127.743C224.755 127.743 224.251 127.906 223.864 128.233C223.482 128.559 223.272 129.005 223.233 129.569H221.232C221.288 128.468 221.692 127.599 222.444 126.963C223.197 126.321 224.196 126 225.441 126C226.603 126 227.569 126.304 228.338 126.913C229.113 127.516 229.5 128.277 229.5 129.196C229.5 129.899 229.304 130.499 228.911 130.997C228.523 131.495 227.998 131.813 227.333 131.952V132.093C228.153 132.187 228.797 132.494 229.268 133.014C229.743 133.534 229.981 134.193 229.981 134.99C229.981 136.019 229.55 136.874 228.687 137.555C227.829 138.235 226.75 138.576 225.449 138.576C224.16 138.576 223.108 138.246 222.295 137.588C221.487 136.929 221.055 136.052 221 134.957H223.05C223.095 135.51 223.335 135.953 223.772 136.285C224.21 136.611 224.774 136.774 225.466 136.774C226.152 136.774 226.711 136.597 227.143 136.243C227.58 135.883 227.798 135.421 227.798 134.857C227.798 134.27 227.585 133.808 227.159 133.471C226.733 133.133 226.152 132.964 225.416 132.964H223.914Z" fill="#000"/>
<path fill-rule="evenodd" clip-rule="evenodd" d="M276.879 140.218L277.213 149.212C277.233 149.764 276.802 150.228 276.25 150.248L267.257 150.582C266.705 150.602 266.241 150.171 266.22 149.62C266.2 149.068 266.631 148.604 267.183 148.583L273.764 148.339L244.33 121.01L245.691 119.544L275.125 146.874L274.881 140.292C274.86 139.74 275.291 139.276 275.843 139.256C276.395 139.236 276.859 139.666 276.879 140.218Z" fill="#000"/>
<path fill-rule="evenodd" clip-rule="evenodd" d="M196.945 170.862L205.356 174.065C205.872 174.262 206.131 174.84 205.934 175.356L202.73 183.766C202.533 184.282 201.956 184.541 201.44 184.345C200.924 184.148 200.665 183.57 200.861 183.054L203.206 176.9L176.409 188.912L175.591 187.087L202.388 175.075L196.233 172.73C195.717 172.534 195.458 171.956 195.655 171.44C195.851 170.924 196.429 170.665 196.945 170.862Z" fill="#000"/>
<path fill-rule="evenodd" clip-rule="evenodd" d="M236.689 159.73L233.953 168.304C233.785 168.83 233.222 169.121 232.696 168.953L224.122 166.216C223.596 166.048 223.306 165.486 223.474 164.96C223.642 164.433 224.204 164.143 224.73 164.311L231.004 166.313L216.112 137.459L217.889 136.541L232.782 165.396L234.784 159.122C234.952 158.596 235.514 158.305 236.041 158.473C236.567 158.641 236.857 159.204 236.689 159.73Z" fill="#000"/>
</svg>
