<svg width="345" height="345" viewBox="0 0 345 345" fill="none" xmlns="http://www.w3.org/2000/svg">
<path d="M255.421 161.54C250.381 155.96 242.641 149.12 235.981 144.44L245.881 136.88C250.741 140.3 260.461 148.4 265.501 153.8L255.421 161.54ZM212.041 150.2C213.481 153.08 215.281 156.32 216.541 158.84C221.581 168.2 230.941 187.1 236.701 200.6C244.621 218.6 253.441 245.6 258.481 261.26L244.261 265.04C239.761 247.94 232.201 224.54 224.461 206C217.801 190.7 209.881 173.96 205.021 166.04C203.401 163.34 200.521 158.84 197.821 155.96L212.041 150.2ZM182.341 193.04C187.741 191.78 192.601 190.16 195.121 189.08C215.281 181.16 255.601 160.1 278.461 160.1C302.401 160.1 313.021 173.96 313.021 189.08C313.021 207.8 302.041 220.4 277.021 220.4C268.921 220.4 259.921 217.88 254.881 215.9L255.421 202.58C261.001 205.28 269.101 207.62 276.481 207.62C293.761 207.62 299.701 198.8 299.701 189.08C299.701 181.52 294.301 172.52 278.101 172.52C254.341 172.52 205.201 199.88 189.361 207.08L182.341 193.04Z" fill="#f00"/>
<path d="M134.12 117.98C137.9 139.76 145.64 170.54 172.28 194.3L162.74 207.08C142.76 185.84 130.52 158.84 119.9 122.12L134.12 117.98ZM21.4404 127.7C24.1404 127.88 27.9204 127.88 31.1604 127.7C47.1804 126.98 77.4204 122.66 88.0404 118.7L92.1804 131.3C89.8404 132.02 85.3404 133.28 82.6404 134.54C71.3004 143 43.7604 174.5 43.7604 211.4C43.7604 236.96 60.5004 245.42 79.0404 245.42C121.88 245.42 136.46 199.34 122.78 128.78L135.92 153.08C145.28 204.56 135.2 260.18 78.6804 260.18C50.4204 260.18 29.7204 244.34 29.7204 214.46C29.7204 180.98 47.3604 155.06 63.2004 137.24C54.0204 138.68 39.2604 140.48 32.7804 141.2C29.3604 141.74 26.3004 142.1 22.5204 142.82L21.4404 127.7Z" fill="#f00"/>
<path d="M26.0205 110.978V101.158H25.8794L22.8994 103.25V101.191L26.0288 99H28.1621V110.978H26.0205Z" fill="#000"/>
<path fill-rule="evenodd" clip-rule="evenodd" d="M76.0198 104.752L83.1984 110.18C83.6389 110.514 83.726 111.141 83.3929 111.581L77.9645 118.76C77.6314 119.2 77.0042 119.287 76.5637 118.954C76.1232 118.621 76.0361 117.994 76.3693 117.554L80.3415 112.301L22.1501 120.379L21.8751 118.398L80.0665 110.32L74.8135 106.347C74.373 106.014 74.2859 105.387 74.619 104.947C74.9521 104.506 75.5793 104.419 76.0198 104.752Z" fill="#000"/>
<path fill-rule="evenodd" clip-rule="evenodd" d="M111.14 128.664C110.456 138.291 112.237 149.94 117.422 161.545L115.596 162.361C110.282 150.466 108.437 138.49 109.145 128.523C109.848 118.61 113.098 110.48 118.211 106.536C120.801 104.538 123.858 103.631 127.211 104.138C130.536 104.641 134.056 106.518 137.655 109.896C144.577 116.393 151.999 128.638 159.146 148.359L162.004 142.407C162.243 141.909 162.84 141.699 163.338 141.938C163.836 142.177 164.046 142.775 163.807 143.273L159.911 151.386C159.672 151.884 159.074 152.094 158.577 151.855L150.463 147.959C149.966 147.72 149.756 147.122 149.995 146.624C150.234 146.127 150.831 145.917 151.329 146.156L157.25 148.999C150.15 129.417 142.867 117.531 136.286 111.354C132.877 108.154 129.713 106.539 126.912 106.116C124.138 105.696 121.624 106.43 119.433 108.12C114.983 111.551 111.827 118.983 111.14 128.664Z" fill="#000"/>
<path d="M179.121 180.978V171.158H178.98L176 173.25V171.191L179.129 169H181.263V180.978H179.121Z" fill="#000"/>
<path d="M251.294 111.802C251.294 110.684 251.681 109.771 252.456 109.062C253.236 108.354 254.241 108 255.469 108C256.653 108 257.627 108.324 258.391 108.971C259.16 109.619 259.545 110.443 259.545 111.445C259.545 112.087 259.351 112.723 258.964 113.354C258.576 113.979 257.874 114.796 256.855 115.803L254.349 118.318V118.459H259.728V120.277H251.41V118.791L255.403 114.707C256.222 113.877 256.767 113.254 257.038 112.839C257.309 112.419 257.445 111.998 257.445 111.578C257.445 111.052 257.251 110.618 256.864 110.274C256.482 109.931 255.995 109.76 255.403 109.76C254.778 109.76 254.271 109.948 253.884 110.324C253.496 110.701 253.303 111.193 253.303 111.802V111.835H251.294V111.802Z" fill="#000"/>
<path d="M223.914 132.964V131.304H225.375C225.983 131.304 226.479 131.138 226.86 130.806C227.242 130.469 227.433 130.031 227.433 129.495C227.433 128.963 227.245 128.54 226.869 128.225C226.498 127.904 226 127.743 225.375 127.743C224.755 127.743 224.251 127.906 223.864 128.233C223.482 128.559 223.272 129.005 223.233 129.569H221.232C221.288 128.468 221.692 127.599 222.444 126.963C223.197 126.321 224.196 126 225.441 126C226.603 126 227.569 126.304 228.338 126.913C229.113 127.516 229.5 128.277 229.5 129.196C229.5 129.899 229.304 130.499 228.911 130.997C228.523 131.495 227.998 131.813 227.333 131.952V132.093C228.153 132.187 228.797 132.494 229.268 133.014C229.743 133.534 229.981 134.193 229.981 134.99C229.981 136.019 229.55 136.874 228.687 137.555C227.829 138.235 226.75 138.576 225.449 138.576C224.16 138.576 223.108 138.246 222.295 137.588C221.487 136.929 221.055 136.052 221 134.957H223.05C223.095 135.51 223.335 135.953 223.772 136.285C224.21 136.611 224.774 136.774 225.466 136.774C226.152 136.774 226.711 136.597 227.143 136.243C227.58 135.883 227.798 135.421 227.798 134.857C227.798 134.27 227.585 133.808 227.159 133.471C226.733 133.133 226.152 132.964 225.416 132.964H223.914Z" fill="#000"/>
<path fill-rule="evenodd" clip-rule="evenodd" d="M276.879 140.218L277.213 149.212C277.233 149.764 276.802 150.228 276.25 150.248L267.257 150.582C266.705 150.602 266.241 150.171 266.22 149.62C266.2 149.068 266.631 148.604 267.183 148.583L273.764 148.339L244.33 121.01L245.691 119.544L275.125 146.874L274.881 140.292C274.86 139.74 275.291 139.276 275.843 139.256C276.395 139.236 276.859 139.666 276.879 140.218Z" fill="#000"/>
<path fill-rule="evenodd" clip-rule="evenodd" d="M196.945 170.862L205.356 174.065C205.872 174.262 206.131 174.84 205.934 175.356L202.73 183.766C202.533 184.282 201.956 184.541 201.44 184.345C200.924 184.148 200.665 183.57 200.861 183.054L203.206 176.9L176.409 188.912L175.591 187.087L202.388 175.075L196.233 172.73C195.717 172.534 195.458 171.956 195.655 171.44C195.851 170.924 196.429 170.665 196.945 170.862Z" fill="#000"/>
<path fill-rule="evenodd" clip-rule="evenodd" d="M236.689 159.73L233.953 168.304C233.785 168.83 233.222 169.121 232.696 168.953L224.122 166.216C223.596 166.048 223.306 165.486 223.474 164.96C223.642 164.433 224.204 164.143 224.73 164.311L231.004 166.313L216.112 137.459L217.889 136.541L232.782 165.396L234.784 159.122C234.952 158.596 235.514 158.305 236.041 158.473C236.567 158.641 236.857 159.204 236.689 159.73Z" fill="#000"/>
</svg>
