<svg width="345" height="345" viewBox="0 0 345 345" fill="none" xmlns="http://www.w3.org/2000/svg">
<path d="M258.66 139.4C257.94 142.1 257.4 149.12 257.4 153.98C257.4 159.92 257.4 174.14 257.4 183.86C257.4 199.16 259.56 228.14 259.56 240.38C259.56 252.08 252.18 262.52 232.56 262.52C211.32 262.52 196.38 254.42 196.38 238.4C196.38 223.46 209.88 213.74 234.72 213.74C264.78 213.74 290.16 229.76 304.56 242.72L296.82 255.32C282.42 240.56 258.84 225.08 233.28 225.08C218.88 225.08 208.98 229.58 208.98 237.86C208.98 244.88 217.08 250.28 230.94 250.28C240.84 250.28 245.88 244.7 245.88 236.06C245.88 224 244.26 198.44 244.26 182.96C244.26 175.4 244.26 160.28 244.26 154.16C244.26 148.94 243.72 141.92 243 139.4H258.66ZM250.92 166.94C260.64 166.94 286.74 165.86 302.22 164.06L302.58 176.66C287.28 178.1 261 179.18 251.1 179.18L250.92 166.94Z" fill="#f00"/>
<path d="M63.2002 110.78C62.3002 116.72 61.7602 123.02 61.4002 128.96C60.6802 149.3 59.2402 191.96 59.2402 218.78C59.2402 238.58 71.6602 245.42 88.7602 245.42C121.7 245.42 140.42 227.06 153.38 208.34L163.46 220.58C151.22 237.68 127.82 260.18 88.4002 260.18C62.4802 260.18 44.6602 249.56 44.6602 220.04C44.6602 193.4 46.4602 147.86 46.4602 128.96C46.4602 122.3 45.9202 116 44.8402 110.78H63.2002Z" fill="#f00"/>
<path d="M19.1211 122V112.18H18.98L16 114.272V112.213L19.1294 110.022H21.2627V122H19.1211Z" fill="#000"/>
<path fill-rule="evenodd" clip-rule="evenodd" d="M40.7667 187.343L34.4027 193.707C34.0122 194.098 33.379 194.098 32.9885 193.707L26.6245 187.343C26.234 186.953 26.234 186.319 26.6245 185.929C27.0151 185.538 27.6482 185.538 28.0388 185.929L32.6956 190.586L32.6956 109L34.6956 109L34.6956 190.586L39.3525 185.929C39.743 185.538 40.3761 185.538 40.7667 185.929C41.1572 186.319 41.1572 186.953 40.7667 187.343Z" fill="#000"/>
<path d="M268.425 147.978V138.158H268.284L265.304 140.25V138.191L268.433 136H270.566V147.978H268.425Z" fill="#000"/>
<path d="M220 142.802C220 141.684 220.387 140.771 221.162 140.062C221.942 139.354 222.947 139 224.175 139C225.36 139 226.333 139.324 227.097 139.971C227.866 140.619 228.251 141.443 228.251 142.445C228.251 143.087 228.057 143.723 227.67 144.354C227.283 144.979 226.58 145.796 225.562 146.803L223.055 149.318V149.459H228.434V151.277H220.116V149.791L224.109 145.707C224.928 144.877 225.473 144.254 225.744 143.839C226.015 143.419 226.151 142.998 226.151 142.578C226.151 142.052 225.957 141.618 225.57 141.274C225.188 140.931 224.701 140.76 224.109 140.76C223.484 140.76 222.977 140.948 222.59 141.324C222.202 141.701 222.009 142.193 222.009 142.802V142.835H220V142.802Z" fill="#000"/>
<path fill-rule="evenodd" clip-rule="evenodd" d="M294.343 145.907L300.707 152.271C301.098 152.661 301.098 153.295 300.707 153.685L294.343 160.049C293.953 160.44 293.319 160.44 292.929 160.049C292.538 159.659 292.538 159.025 292.929 158.635L297.586 153.978L264 153.978L264 151.978L297.586 151.978L292.929 147.321C292.538 146.931 292.538 146.297 292.929 145.907C293.319 145.516 293.953 145.516 294.343 145.907Z" fill="#000"/>
<path fill-rule="evenodd" clip-rule="evenodd" d="M311.411 222.395L313.688 231.102C313.828 231.636 313.508 232.183 312.973 232.323L304.266 234.6C303.732 234.74 303.185 234.42 303.046 233.885C302.906 233.351 303.226 232.805 303.76 232.665L310.132 230.999L271.215 208.218L272.225 206.492L311.142 229.273L309.476 222.901C309.336 222.367 309.656 221.82 310.19 221.681C310.724 221.541 311.271 221.861 311.411 222.395Z" fill="#000"/>
<path fill-rule="evenodd" clip-rule="evenodd" d="M242.788 180.62L236.424 186.984C236.034 187.374 235.401 187.374 235.01 186.984L228.646 180.62C228.255 180.229 228.255 179.596 228.646 179.206C229.037 178.815 229.67 178.815 230.06 179.206L234.717 183.863L234.717 140.277L236.717 140.277L236.717 183.863L241.374 179.206C241.764 178.815 242.398 178.815 242.788 179.206C243.179 179.596 243.179 180.229 242.788 180.62Z" fill="#000"/>
<path fill-rule="evenodd" clip-rule="evenodd" d="M202.719 211.524C203.258 211.644 203.597 212.179 203.476 212.718L201.513 221.501C201.393 222.04 200.858 222.38 200.319 222.259C199.78 222.139 199.441 221.604 199.561 221.065L200.97 214.761C190.078 222.832 187.236 235.133 190.03 245.681C193 256.896 202.292 266 215 266V268C201.209 268 191.251 258.104 188.096 246.193C185.092 234.851 188.213 221.566 200.028 212.972L193.499 211.513C192.96 211.392 192.621 210.857 192.741 210.318C192.862 209.779 193.396 209.44 193.935 209.561L202.719 211.524Z" fill="#000"/>
</svg>
