<svg width="345" height="345" viewBox="0 0 345 345" fill="none" xmlns="http://www.w3.org/2000/svg">
<path d="M226.145 148.94C225.425 151.1 224.705 153.98 224.165 156.32C222.005 165.86 219.125 187.1 219.665 198.8C230.105 173.42 255.665 157.76 280.325 157.76C310.385 157.76 325.685 175.76 325.685 197.9C325.685 222.2 311.285 242.72 279.065 242.72C261.605 242.72 245.405 233.36 236.945 215.9L244.505 205.64C251.525 220.4 262.685 229.58 279.065 229.58C301.925 229.58 312.725 216.44 312.725 198.26C312.725 182.78 303.365 169.64 279.965 169.64C248.645 169.64 227.765 194.12 223.265 215.72C222.545 218.24 222.005 221.3 222.185 224.72C222.365 227.96 223.445 235.52 224.345 239.3L212.285 240.92C209.405 231.92 207.065 216.98 207.065 202.76C207.065 185.3 209.945 163.34 211.025 155.24C211.205 152.36 211.385 149.84 211.205 147.86L226.145 148.94ZM278.345 140.3C280.505 150.74 283.385 171.98 283.385 193.4C283.385 224.54 276.185 250.82 252.425 266.3L240.185 258.74C264.125 245.42 270.785 221.3 270.785 192.5C270.785 171.44 268.445 157.04 266.825 149.12C266.105 146.06 265.205 143.18 264.305 140.66L278.345 140.3Z" fill="#f00"/>
<path d="M100.935 126.8C105.435 133.46 113.895 146.96 118.035 155.6L107.415 160.28C102.915 150.74 96.6152 139.58 90.6752 131.3L100.935 126.8ZM124.155 117.62C128.835 123.92 137.475 137.42 141.795 145.88L131.535 150.92C126.675 141.38 120.015 130.4 114.075 122.3L124.155 117.62ZM51.0752 112.04C50.1752 118.16 49.6352 124.28 49.2752 130.22C48.5552 150.56 47.1152 193.22 47.1152 220.04C47.1152 239.84 59.5352 246.68 76.6352 246.68C109.575 246.68 128.295 228.32 141.255 209.6L151.335 221.84C139.095 238.76 115.875 261.44 76.2752 261.44C50.3552 261.44 32.5352 250.82 32.5352 221.3C32.5352 194.66 34.3352 149.12 34.3352 130.22C34.3352 123.56 33.9752 117.26 32.7152 112.04H51.0752Z" fill="#f00"/>
<path d="M189.121 153.978V144.158H188.98L186 146.25V144.191L189.129 142H191.263V153.978H189.121Z" fill="#000"/>
<path d="M288.573 120.802C288.573 119.684 288.961 118.771 289.735 118.062C290.516 117.354 291.52 117 292.749 117C293.933 117 294.907 117.324 295.67 117.971C296.44 118.619 296.824 119.443 296.824 120.445C296.824 121.087 296.631 121.723 296.243 122.354C295.856 122.979 295.153 123.796 294.135 124.803L291.628 127.318V127.459H297.007V129.277H288.689V127.791L292.682 123.707C293.501 122.877 294.046 122.254 294.317 121.839C294.589 121.419 294.724 120.998 294.724 120.578C294.724 120.052 294.53 119.618 294.143 119.274C293.761 118.931 293.274 118.76 292.682 118.76C292.057 118.76 291.55 118.948 291.163 119.324C290.776 119.701 290.582 120.193 290.582 120.802V120.835H288.573V120.802Z" fill="#000"/>
<path fill-rule="evenodd" clip-rule="evenodd" d="M204.767 184.321L198.403 190.685C198.012 191.076 197.379 191.076 196.989 190.685L190.625 184.321C190.234 183.931 190.234 183.297 190.625 182.907C191.015 182.516 191.648 182.516 192.039 182.907L196.696 187.564L196.696 143.978L198.696 143.978L198.696 187.564L203.352 182.907C203.743 182.516 204.376 182.516 204.767 182.907C205.157 183.297 205.157 183.931 204.767 184.321Z" fill="#000"/>
<path fill-rule="evenodd" clip-rule="evenodd" d="M293.49 148.677L288.09 155.877C287.759 156.319 287.132 156.408 286.69 156.077L279.49 150.677C279.048 150.345 278.959 149.719 279.29 149.277C279.621 148.835 280.248 148.745 280.69 149.077L285.959 153.028L281.3 120.418L283.28 120.135L287.939 152.745L291.89 147.477C292.221 147.035 292.848 146.945 293.29 147.277C293.732 147.608 293.821 148.235 293.49 148.677Z" fill="#000"/>
<path fill-rule="evenodd" clip-rule="evenodd" d="M316.251 238.457C345.317 201.117 329.56 165.898 307.553 154.894L308.447 153.105C331.688 164.726 347.633 201.477 317.764 239.769L324.356 239.109C324.905 239.054 325.395 239.455 325.45 240.005C325.505 240.554 325.104 241.044 324.555 241.099L315.599 241.995C315.05 242.05 314.56 241.649 314.505 241.099L313.609 232.144C313.554 231.595 313.955 231.104 314.505 231.05C315.054 230.995 315.544 231.396 315.599 231.945L316.251 238.457Z" fill="#000"/>
<path d="M95 114.802C95 113.684 95.3874 112.771 96.1621 112.062C96.9424 111.354 97.9468 111 99.1753 111C100.36 111 101.333 111.324 102.097 111.971C102.866 112.619 103.251 113.443 103.251 114.445C103.251 115.087 103.057 115.723 102.67 116.354C102.283 116.979 101.58 117.796 100.562 118.803L98.0547 121.318V121.459H103.434V123.277H95.1162V121.791L99.1089 117.707C99.9279 116.877 100.473 116.254 100.744 115.839C101.015 115.419 101.151 114.998 101.151 114.578C101.151 114.052 100.957 113.618 100.57 113.274C100.188 112.931 99.701 112.76 99.1089 112.76C98.4836 112.76 97.9772 112.948 97.5898 113.324C97.2025 113.701 97.0088 114.193 97.0088 114.802V114.835H95V114.802Z" fill="#000"/>
<path d="M124.914 107.964V106.304H126.375C126.983 106.304 127.479 106.138 127.86 105.806C128.242 105.469 128.433 105.031 128.433 104.495C128.433 103.963 128.245 103.54 127.869 103.225C127.498 102.904 127 102.743 126.375 102.743C125.755 102.743 125.251 102.906 124.864 103.233C124.482 103.559 124.272 104.005 124.233 104.569H122.232C122.288 103.468 122.692 102.599 123.444 101.963C124.197 101.321 125.196 101 126.441 101C127.603 101 128.569 101.304 129.338 101.913C130.113 102.516 130.5 103.277 130.5 104.196C130.5 104.899 130.304 105.499 129.911 105.997C129.523 106.495 128.998 106.813 128.333 106.952V107.093C129.153 107.187 129.797 107.494 130.268 108.014C130.743 108.534 130.981 109.193 130.981 109.99C130.981 111.019 130.55 111.874 129.687 112.555C128.829 113.235 127.75 113.576 126.449 113.576C125.16 113.576 124.108 113.246 123.295 112.588C122.487 111.929 122.055 111.052 122 109.957H124.05C124.095 110.51 124.335 110.953 124.772 111.285C125.21 111.611 125.774 111.774 126.466 111.774C127.152 111.774 127.711 111.597 128.143 111.243C128.58 110.883 128.798 110.421 128.798 109.857C128.798 109.27 128.585 108.808 128.159 108.471C127.733 108.133 127.152 107.964 126.416 107.964H124.914Z" fill="#000"/>
<path d="M7.12109 123V113.18H6.97998L4 115.272V113.213L7.12939 111.022H9.2627V123H7.12109Z" fill="#000"/>
<path fill-rule="evenodd" clip-rule="evenodd" d="M28.7667 188.343L22.4027 194.707C22.0122 195.098 21.379 195.098 20.9885 194.707L14.6245 188.343C14.234 187.953 14.234 187.319 14.6245 186.929C15.0151 186.538 15.6482 186.538 16.0388 186.929L20.6956 191.586L20.6956 110L22.6956 110L22.6956 191.586L27.3525 186.929C27.743 186.538 28.3761 186.538 28.7667 186.929C29.1572 187.319 29.1572 187.953 28.7667 188.343Z" fill="#000"/>
</svg>
