<svg width="345" height="345" viewBox="0 0 345 345" fill="none" xmlns="http://www.w3.org/2000/svg">
<path d="M265.204 161.54C260.164 155.96 252.424 149.12 245.764 144.44L255.664 136.88C260.524 140.3 270.244 148.4 275.284 153.8L265.204 161.54ZM221.824 150.2C223.264 153.08 225.064 156.32 226.324 158.84C231.364 168.2 240.724 187.1 246.484 200.6C254.404 218.6 263.224 245.6 268.264 261.26L254.044 265.04C249.544 247.94 241.984 224.54 234.244 206C227.584 190.7 219.664 173.96 214.804 166.04C213.184 163.34 210.304 158.84 207.604 155.96L221.824 150.2ZM192.124 193.04C197.524 191.78 202.384 190.16 204.904 189.08C225.064 181.16 265.384 160.1 288.244 160.1C312.184 160.1 322.804 173.96 322.804 189.08C322.804 207.8 311.824 220.4 286.804 220.4C278.704 220.4 269.704 217.88 264.664 215.9L265.204 202.58C270.784 205.28 278.884 207.62 286.264 207.62C303.544 207.62 309.484 198.8 309.484 189.08C309.484 181.52 304.084 172.52 287.884 172.52C264.124 172.52 214.984 199.88 199.144 207.08L192.124 193.04Z" fill="#f00"/>
<path d="M120.734 120.86C124.514 142.64 132.434 173.24 158.894 197.18L149.534 209.78C129.554 188.54 117.314 161.72 106.694 124.82L120.734 120.86ZM8.23438 130.4C10.9344 130.58 14.7144 130.58 17.9544 130.4C33.9744 129.68 64.2144 125.54 74.8344 121.4L78.9744 134.18C76.6344 134.9 72.1344 136.16 69.4344 137.24C58.0944 145.7 30.5544 177.2 30.5544 214.28C30.5544 239.66 47.2944 248.12 65.8344 248.12C108.674 248.12 123.254 202.04 109.574 131.48L122.714 155.78C132.074 207.26 121.814 262.88 65.4744 262.88C37.0344 262.88 16.5144 247.04 16.5144 217.34C16.5144 183.68 34.1544 157.94 49.9944 139.94C40.8144 141.38 26.0544 143.18 19.5744 144.08C16.1544 144.44 13.0944 144.98 9.31437 145.52L8.23438 130.4ZM136.574 110.6C140.174 117.44 145.754 128.6 148.814 135.98L139.454 139.4C136.214 131.3 131.534 120.68 127.574 113.84L136.574 110.6ZM154.934 103.58C158.714 110.24 164.294 121.22 167.714 128.78L158.174 132.38C154.934 124.28 150.254 113.84 146.114 107L154.934 103.58Z" fill="#f00"/>
<path d="M188.134 180.978V171.158H187.993L185.013 173.25V171.191L188.142 169H190.275V180.978H188.134Z" fill="#000"/>
<path d="M260.307 111.802C260.307 110.684 260.694 109.771 261.469 109.062C262.249 108.354 263.253 108 264.482 108C265.666 108 266.64 108.324 267.404 108.971C268.173 109.619 268.558 110.443 268.558 111.445C268.558 112.087 268.364 112.723 267.977 113.354C267.589 113.979 266.886 114.796 265.868 115.803L263.361 118.318V118.459H268.74V120.277H260.423V118.791L264.416 114.707C265.235 113.877 265.78 113.254 266.051 112.839C266.322 112.419 266.458 111.998 266.458 111.578C266.458 111.052 266.264 110.618 265.876 110.274C265.495 109.931 265.008 109.76 264.416 109.76C263.79 109.76 263.284 109.948 262.896 110.324C262.509 110.701 262.315 111.193 262.315 111.802V111.835H260.307V111.802Z" fill="#000"/>
<path d="M132 98.8018C132 97.6839 132.387 96.7708 133.162 96.0625C133.942 95.3542 134.947 95 136.175 95C137.36 95 138.333 95.3237 139.097 95.9712C139.866 96.6187 140.251 97.4432 140.251 98.4448C140.251 99.0868 140.057 99.7231 139.67 100.354C139.283 100.979 138.58 101.796 137.562 102.803L135.055 105.318V105.459H140.434V107.277H132.116V105.791L136.109 101.707C136.928 100.877 137.473 100.254 137.744 99.8394C138.015 99.4188 138.151 98.9982 138.151 98.5776C138.151 98.0519 137.957 97.6175 137.57 97.2744C137.188 96.9313 136.701 96.7598 136.109 96.7598C135.484 96.7598 134.977 96.9479 134.59 97.3242C134.202 97.7005 134.009 98.193 134.009 98.8018V98.835H132V98.8018Z" fill="#000"/>
<path d="M232.926 132.964V131.304H234.387C234.996 131.304 235.491 131.138 235.873 130.806C236.255 130.469 236.446 130.031 236.446 129.495C236.446 128.963 236.258 128.54 235.881 128.225C235.511 127.904 235.013 127.743 234.387 127.743C233.767 127.743 233.264 127.906 232.876 128.233C232.495 128.559 232.284 129.005 232.246 129.569H230.245C230.3 128.468 230.704 127.599 231.457 126.963C232.21 126.321 233.208 126 234.454 126C235.616 126 236.581 126.304 237.351 126.913C238.125 127.516 238.513 128.277 238.513 129.196C238.513 129.899 238.316 130.499 237.923 130.997C237.536 131.495 237.01 131.813 236.346 131.952V132.093C237.165 132.187 237.81 132.494 238.28 133.014C238.756 133.534 238.994 134.193 238.994 134.99C238.994 136.019 238.562 136.874 237.699 137.555C236.841 138.235 235.762 138.576 234.462 138.576C233.173 138.576 232.121 138.246 231.308 137.588C230.5 136.929 230.068 136.052 230.013 134.957H232.063C232.107 135.51 232.348 135.953 232.785 136.285C233.222 136.611 233.787 136.774 234.479 136.774C235.165 136.774 235.724 136.597 236.155 136.243C236.592 135.883 236.811 135.421 236.811 134.857C236.811 134.27 236.598 133.808 236.172 133.471C235.746 133.133 235.165 132.964 234.429 132.964H232.926Z" fill="#000"/>
<path d="M155.914 95.9644V94.3042H157.375C157.983 94.3042 158.479 94.1382 158.86 93.8062C159.242 93.4686 159.433 93.0314 159.433 92.4946C159.433 91.9634 159.245 91.54 158.869 91.2246C158.498 90.9036 158 90.7432 157.375 90.7432C156.755 90.7432 156.251 90.9064 155.864 91.2329C155.482 91.5594 155.272 92.0049 155.233 92.5693H153.232C153.288 91.4681 153.692 90.5993 154.444 89.9629C155.197 89.321 156.196 89 157.441 89C158.603 89 159.569 89.3044 160.338 89.9131C161.113 90.5163 161.5 91.2772 161.5 92.1958C161.5 92.8986 161.304 93.499 160.911 93.9971C160.523 94.4951 159.998 94.8133 159.333 94.9517V95.0928C160.153 95.1868 160.797 95.494 161.268 96.0142C161.743 96.5343 161.981 97.1929 161.981 97.9897C161.981 99.019 161.55 99.874 160.687 100.555C159.829 101.235 158.75 101.576 157.449 101.576C156.16 101.576 155.108 101.246 154.295 100.588C153.487 99.9294 153.055 99.0522 153 97.9565H155.05C155.095 98.5099 155.335 98.9526 155.772 99.2847C156.21 99.6112 156.774 99.7744 157.466 99.7744C158.152 99.7744 158.711 99.5973 159.143 99.2432C159.58 98.8835 159.798 98.4214 159.798 97.8569C159.798 97.2703 159.585 96.8083 159.159 96.4707C158.733 96.1331 158.152 95.9644 157.416 95.9644H155.914Z" fill="#000"/>
<path fill-rule="evenodd" clip-rule="evenodd" d="M285.892 140.219L286.225 149.213C286.246 149.764 285.815 150.228 285.263 150.249L276.269 150.582C275.717 150.603 275.253 150.172 275.233 149.62C275.212 149.068 275.643 148.604 276.195 148.584L282.776 148.34L253.343 121.01L254.704 119.544L284.137 146.874L283.893 140.293C283.873 139.741 284.304 139.277 284.856 139.256C285.408 139.236 285.872 139.667 285.892 140.219Z" fill="#000"/>
<path fill-rule="evenodd" clip-rule="evenodd" d="M205.958 170.862L214.368 174.065C214.884 174.262 215.143 174.84 214.947 175.356L211.743 183.766C211.546 184.282 210.968 184.541 210.452 184.345C209.936 184.148 209.677 183.57 209.874 183.054L212.218 176.9L185.421 188.912L184.603 187.087L211.4 175.075L205.246 172.73C204.73 172.534 204.471 171.956 204.667 171.44C204.864 170.924 205.442 170.665 205.958 170.862Z" fill="#000"/>
<path fill-rule="evenodd" clip-rule="evenodd" d="M245.702 159.731L242.966 168.305C242.798 168.831 242.235 169.121 241.709 168.953L233.135 166.217C232.609 166.049 232.318 165.486 232.486 164.96C232.654 164.434 233.217 164.144 233.743 164.311L240.017 166.314L225.124 137.459L226.901 136.542L241.794 165.397L243.797 159.123C243.964 158.596 244.527 158.306 245.053 158.474C245.579 158.642 245.87 159.204 245.702 159.731Z" fill="#000"/>
<path d="M13.0205 113.978V104.158H12.8794L9.89941 106.25V104.191L13.0288 102H15.1621V113.978H13.0205Z" fill="#000"/>
<path fill-rule="evenodd" clip-rule="evenodd" d="M63.0198 107.752L70.1984 113.18C70.6389 113.514 70.726 114.141 70.3929 114.581L64.9645 121.76C64.6314 122.2 64.0042 122.287 63.5637 121.954C63.1232 121.621 63.0361 120.994 63.3693 120.554L67.3415 115.301L9.15013 123.379L8.87511 121.398L67.0665 113.32L61.8135 109.347C61.373 109.014 61.2859 108.387 61.619 107.947C61.9521 107.506 62.5793 107.419 63.0198 107.752Z" fill="#000"/>
<path fill-rule="evenodd" clip-rule="evenodd" d="M94.1397 133.664C93.4565 143.291 95.237 154.94 100.422 166.545L98.5964 167.361C93.2818 155.466 91.4373 143.49 92.1447 133.523C92.8482 123.61 96.0979 115.48 101.211 111.536C103.801 109.538 106.858 108.631 110.211 109.138C113.536 109.641 117.056 111.518 120.655 114.896C127.577 121.393 134.999 133.638 142.146 153.359L145.004 147.407C145.243 146.909 145.84 146.699 146.338 146.938C146.836 147.177 147.046 147.775 146.807 148.273L142.911 156.386C142.672 156.884 142.074 157.094 141.577 156.855L133.463 152.959C132.966 152.72 132.756 152.122 132.995 151.624C133.234 151.127 133.831 150.917 134.329 151.156L140.25 153.999C133.15 134.417 125.867 122.531 119.286 116.354C115.877 113.154 112.713 111.539 109.912 111.116C107.138 110.696 104.624 111.43 102.433 113.12C97.9834 116.551 94.8268 123.983 94.1397 133.664Z" fill="#000"/>
</svg>
