<svg width="345" height="345" viewBox="0 0 345 345" fill="none" xmlns="http://www.w3.org/2000/svg">
<path d="M255.42 161.54C250.38 155.96 242.64 149.12 235.98 144.44L245.88 136.88C250.74 140.3 260.46 148.4 265.5 153.8L255.42 161.54ZM212.04 150.2C213.48 153.08 215.28 156.32 216.54 158.84C221.58 168.2 230.94 187.1 236.7 200.6C244.62 218.6 253.44 245.6 258.48 261.26L244.26 265.04C239.76 247.94 232.2 224.54 224.46 206C217.8 190.7 209.88 173.96 205.02 166.04C203.4 163.34 200.52 158.84 197.82 155.96L212.04 150.2ZM182.34 193.04C187.74 191.78 192.6 190.16 195.12 189.08C215.28 181.16 255.6 160.1 278.46 160.1C302.4 160.1 313.02 173.96 313.02 189.08C313.02 207.8 302.04 220.4 277.02 220.4C268.92 220.4 259.92 217.88 254.88 215.9L255.42 202.58C261 205.28 269.1 207.62 276.48 207.62C293.76 207.62 299.7 198.8 299.7 189.08C299.7 181.52 294.3 172.52 278.1 172.52C254.34 172.52 205.2 199.88 189.36 207.08L182.34 193.04Z" fill="#f00"/>
<path d="M83.9003 129.5C103.52 132.92 140.06 132.2 157.88 129.5V144.08C138.62 146.24 103.7 146.24 84.0803 144.08L83.9003 129.5ZM90.9203 202.94C89.3003 209.42 88.4003 214.46 88.4003 219.32C88.4003 227.6 94.1603 235.7 118.82 235.7C134.84 235.7 148.88 234.26 163.28 230.84L163.64 245.96C152.48 248.3 137.36 249.74 118.64 249.74C88.5803 249.74 75.0803 239.66 75.0803 222.74C75.0803 216.8 75.9803 210.32 77.9603 201.68L90.9203 202.94ZM49.7003 115.64C48.6203 118.7 47.1803 124.46 46.4603 127.7C43.0403 144.44 37.4603 176.48 37.4603 196.82C37.4603 205.46 38.0003 213.02 39.0803 221.84C42.1403 213.74 46.2803 202.94 49.3403 195.56L56.9003 201.5C52.4003 214.28 45.7403 233.18 44.1203 241.82C43.5803 244.34 43.2203 247.76 43.2203 249.92C43.4003 251.72 43.5803 254.24 43.7603 256.22L30.9803 257.12C27.3803 244.34 24.3203 223.64 24.3203 199.16C24.3203 172.7 30.2603 141.92 32.4203 126.98C32.9603 122.84 33.5003 118.34 33.6803 114.38L49.7003 115.64Z" fill="#f00"/>
<path d="M32.1211 108.978V99.1582H31.98L29 101.25V99.1914L32.1294 97H34.2627V108.978H32.1211Z" fill="#000"/>
<path d="M88.2832 103.802C88.2832 102.684 88.6706 101.771 89.4453 101.062C90.2256 100.354 91.23 100 92.4585 100C93.6427 100 94.6167 100.324 95.3804 100.971C96.1496 101.619 96.5342 102.443 96.5342 103.445C96.5342 104.087 96.3405 104.723 95.9531 105.354C95.5658 105.979 94.863 106.796 93.8447 107.803L91.3379 110.318V110.459H96.7168V112.277H88.3994V110.791L92.3921 106.707C93.2111 105.877 93.7562 105.254 94.0273 104.839C94.2985 104.419 94.4341 103.998 94.4341 103.578C94.4341 103.052 94.2404 102.618 93.853 102.274C93.4712 101.931 92.9842 101.76 92.3921 101.76C91.7668 101.76 91.2604 101.948 90.873 102.324C90.4857 102.701 90.292 103.193 90.292 103.802V103.835H88.2832V103.802Z" fill="#000"/>
<path d="M54.9136 233.964V232.304H56.3745C56.9832 232.304 57.4785 232.138 57.8604 231.806C58.2422 231.469 58.4331 231.031 58.4331 230.495C58.4331 229.963 58.245 229.54 57.8687 229.225C57.4979 228.904 56.9998 228.743 56.3745 228.743C55.7547 228.743 55.2511 228.906 54.8638 229.233C54.4819 229.559 54.2716 230.005 54.2329 230.569H52.2324C52.2878 229.468 52.6917 228.599 53.4443 227.963C54.1969 227.321 55.1958 227 56.4409 227C57.603 227 58.5687 227.304 59.3379 227.913C60.1126 228.516 60.5 229.277 60.5 230.196C60.5 230.899 60.3035 231.499 59.9106 231.997C59.5233 232.495 58.9976 232.813 58.3335 232.952V233.093C59.1525 233.187 59.7972 233.494 60.2676 234.014C60.7435 234.534 60.9814 235.193 60.9814 235.99C60.9814 237.019 60.5498 237.874 59.6865 238.555C58.8288 239.235 57.7497 239.576 56.4492 239.576C55.1598 239.576 54.1084 239.246 53.2949 238.588C52.487 237.929 52.0553 237.052 52 235.957H54.0503C54.0946 236.51 54.3353 236.953 54.7725 237.285C55.2096 237.611 55.7741 237.774 56.4658 237.774C57.152 237.774 57.7109 237.597 58.1426 237.243C58.5798 236.883 58.7983 236.421 58.7983 235.857C58.7983 235.27 58.5853 234.808 58.1592 234.471C57.7331 234.133 57.152 233.964 56.416 233.964H54.9136Z" fill="#000"/>
<path fill-rule="evenodd" clip-rule="evenodd" d="M23.8669 165.371L17.0716 171.272C16.6546 171.635 16.023 171.59 15.6609 171.173L9.75974 164.378C9.39761 163.961 9.44209 163.329 9.85908 162.967C10.2761 162.605 10.9077 162.649 11.2698 163.066L15.588 168.039L20.4184 99.4471L22.4135 99.5876L17.5831 168.179L22.5556 163.861C22.9726 163.499 23.6042 163.543 23.9663 163.96C24.3284 164.377 24.2839 165.009 23.8669 165.371Z" fill="#000"/>
<path fill-rule="evenodd" clip-rule="evenodd" d="M139.343 113.206L145.707 119.57C146.098 119.96 146.098 120.594 145.707 120.984L139.343 127.348C138.953 127.739 138.319 127.739 137.929 127.348C137.538 126.958 137.538 126.324 137.929 125.934L142.586 121.277L85 121.277L85 119.277L142.586 119.277L137.929 114.62C137.538 114.23 137.538 113.597 137.929 113.206C138.319 112.815 138.953 112.815 139.343 113.206Z" fill="#000"/>
<path fill-rule="evenodd" clip-rule="evenodd" d="M75.8745 248.351C64.7212 237.778 64 223.234 64 211H66C66 223.266 66.7788 236.972 77.2505 246.899C87.5276 256.642 107.411 262.987 146.003 260.189L140.997 255.931C140.576 255.573 140.525 254.942 140.883 254.521C141.241 254.1 141.872 254.049 142.292 254.407L149.148 260.238C149.569 260.596 149.62 261.227 149.262 261.648L143.431 268.503C143.073 268.924 142.442 268.975 142.021 268.617C141.6 268.259 141.549 267.628 141.907 267.208L146.183 262.181C107.416 264.997 86.7871 258.696 75.8745 248.351Z" fill="#000"/>
<path d="M179.121 180.978V171.158H178.98L176 173.25V171.191L179.129 169H181.263V180.978H179.121Z" fill="#000"/>
<path d="M251.294 111.802C251.294 110.684 251.681 109.771 252.456 109.062C253.236 108.354 254.241 108 255.469 108C256.653 108 257.627 108.324 258.391 108.971C259.16 109.619 259.545 110.443 259.545 111.445C259.545 112.087 259.351 112.723 258.964 113.354C258.576 113.979 257.874 114.796 256.855 115.803L254.349 118.318V118.459H259.728V120.277H251.41V118.791L255.403 114.707C256.222 113.877 256.767 113.254 257.038 112.839C257.309 112.419 257.445 111.998 257.445 111.578C257.445 111.052 257.251 110.618 256.864 110.274C256.482 109.931 255.995 109.76 255.403 109.76C254.778 109.76 254.271 109.948 253.884 110.324C253.496 110.701 253.303 111.193 253.303 111.802V111.835H251.294V111.802Z" fill="#000"/>
<path d="M223.914 132.964V131.304H225.375C225.983 131.304 226.479 131.138 226.86 130.806C227.242 130.469 227.433 130.031 227.433 129.495C227.433 128.963 227.245 128.54 226.869 128.225C226.498 127.904 226 127.743 225.375 127.743C224.755 127.743 224.251 127.906 223.864 128.233C223.482 128.559 223.272 129.005 223.233 129.569H221.232C221.288 128.468 221.692 127.599 222.444 126.963C223.197 126.321 224.196 126 225.441 126C226.603 126 227.569 126.304 228.338 126.913C229.113 127.516 229.5 128.277 229.5 129.196C229.5 129.899 229.304 130.499 228.911 130.997C228.523 131.495 227.998 131.813 227.333 131.952V132.093C228.153 132.187 228.797 132.494 229.268 133.014C229.743 133.534 229.981 134.193 229.981 134.99C229.981 136.019 229.55 136.874 228.687 137.555C227.829 138.235 226.75 138.576 225.449 138.576C224.16 138.576 223.108 138.246 222.295 137.588C221.487 136.929 221.055 136.052 221 134.957H223.05C223.095 135.51 223.335 135.953 223.772 136.285C224.21 136.611 224.774 136.774 225.466 136.774C226.152 136.774 226.711 136.597 227.143 136.243C227.58 135.883 227.798 135.421 227.798 134.857C227.798 134.27 227.585 133.808 227.159 133.471C226.733 133.133 226.152 132.964 225.416 132.964H223.914Z" fill="#000"/>
<path fill-rule="evenodd" clip-rule="evenodd" d="M276.879 140.218L277.213 149.212C277.233 149.764 276.802 150.228 276.25 150.248L267.257 150.582C266.705 150.602 266.241 150.171 266.22 149.62C266.2 149.068 266.631 148.604 267.183 148.583L273.764 148.339L244.33 121.01L245.691 119.544L275.125 146.874L274.881 140.292C274.86 139.74 275.291 139.276 275.843 139.256C276.395 139.236 276.859 139.666 276.879 140.218Z" fill="#000"/>
<path fill-rule="evenodd" clip-rule="evenodd" d="M196.945 170.862L205.356 174.065C205.872 174.262 206.131 174.84 205.934 175.356L202.73 183.766C202.533 184.282 201.956 184.541 201.44 184.345C200.924 184.148 200.665 183.57 200.861 183.054L203.206 176.9L176.409 188.912L175.591 187.087L202.388 175.075L196.233 172.73C195.717 172.534 195.458 171.956 195.655 171.44C195.851 170.924 196.429 170.665 196.945 170.862Z" fill="#000"/>
<path fill-rule="evenodd" clip-rule="evenodd" d="M236.689 159.73L233.953 168.304C233.785 168.83 233.222 169.121 232.696 168.953L224.122 166.216C223.596 166.048 223.306 165.486 223.474 164.96C223.642 164.433 224.204 164.143 224.73 164.311L231.004 166.313L216.112 137.459L217.889 136.541L232.782 165.396L234.784 159.122C234.952 158.596 235.514 158.305 236.041 158.473C236.567 158.641 236.857 159.204 236.689 159.73Z" fill="#000"/>
</svg>
