<svg width="345" height="345" viewBox="0 0 345 345" fill="none" xmlns="http://www.w3.org/2000/svg">
<path d="M216.36 148.94C215.64 151.1 214.92 153.98 214.38 156.32C212.22 165.86 209.34 187.1 209.88 198.8C220.32 173.42 245.88 157.76 270.54 157.76C300.6 157.76 315.9 175.76 315.9 197.9C315.9 222.2 301.5 242.72 269.28 242.72C251.82 242.72 235.62 233.36 227.16 215.9L234.72 205.64C241.74 220.4 252.9 229.58 269.28 229.58C292.14 229.58 302.94 216.44 302.94 198.26C302.94 182.78 293.58 169.64 270.18 169.64C238.86 169.64 217.98 194.12 213.48 215.72C212.76 218.24 212.22 221.3 212.4 224.72C212.58 227.96 213.66 235.52 214.56 239.3L202.5 240.92C199.62 231.92 197.28 216.98 197.28 202.76C197.28 185.3 200.16 163.34 201.24 155.24C201.42 152.36 201.6 149.84 201.42 147.86L216.36 148.94ZM268.56 140.3C270.72 150.74 273.6 171.98 273.6 193.4C273.6 224.54 266.4 250.82 242.64 266.3L230.4 258.74C254.34 245.42 261 221.3 261 192.5C261 171.44 258.66 157.04 257.04 149.12C256.32 146.06 255.42 143.18 254.52 140.66L268.56 140.3Z" fill="#f00"/>
<path d="M63.2002 110.78C62.3002 116.72 61.7602 123.02 61.4002 128.96C60.6802 149.3 59.2402 191.96 59.2402 218.78C59.2402 238.58 71.6602 245.42 88.7602 245.42C121.7 245.42 140.42 227.06 153.38 208.34L163.46 220.58C151.22 237.68 127.82 260.18 88.4002 260.18C62.4802 260.18 44.6602 249.56 44.6602 220.04C44.6602 193.4 46.4602 147.86 46.4602 128.96C46.4602 122.3 45.9202 116 44.8402 110.78H63.2002Z" fill="#f00"/>
<path d="M19.1211 122V112.18H18.98L16 114.272V112.213L19.1294 110.022H21.2627V122H19.1211Z" fill="#000"/>
<path fill-rule="evenodd" clip-rule="evenodd" d="M40.7667 187.343L34.4027 193.707C34.0122 194.098 33.379 194.098 32.9885 193.707L26.6245 187.343C26.234 186.953 26.234 186.319 26.6245 185.929C27.0151 185.538 27.6482 185.538 28.0388 185.929L32.6956 190.586L32.6956 109L34.6956 109L34.6956 190.586L39.3525 185.929C39.743 185.538 40.3761 185.538 40.7667 185.929C41.1572 186.319 41.1572 186.953 40.7667 187.343Z" fill="#000"/>
<path d="M181.121 153.978V144.158H180.98L178 146.25V144.191L181.129 142H183.263V153.978H181.121Z" fill="#000"/>
<path d="M280.573 120.802C280.573 119.684 280.961 118.771 281.735 118.062C282.516 117.354 283.52 117 284.749 117C285.933 117 286.907 117.324 287.67 117.971C288.44 118.619 288.824 119.443 288.824 120.445C288.824 121.087 288.631 121.723 288.243 122.354C287.856 122.979 287.153 123.796 286.135 124.803L283.628 127.318V127.459H289.007V129.277H280.689V127.791L284.682 123.707C285.501 122.877 286.046 122.254 286.317 121.839C286.589 121.419 286.724 120.998 286.724 120.578C286.724 120.052 286.53 119.618 286.143 119.274C285.761 118.931 285.274 118.76 284.682 118.76C284.057 118.76 283.55 118.948 283.163 119.324C282.776 119.701 282.582 120.193 282.582 120.802V120.835H280.573V120.802Z" fill="#000"/>
<path fill-rule="evenodd" clip-rule="evenodd" d="M196.767 184.321L190.403 190.685C190.012 191.076 189.379 191.076 188.989 190.685L182.625 184.321C182.234 183.931 182.234 183.297 182.625 182.907C183.015 182.516 183.648 182.516 184.039 182.907L188.696 187.564L188.696 143.978L190.696 143.978L190.696 187.564L195.352 182.907C195.743 182.516 196.376 182.516 196.767 182.907C197.157 183.297 197.157 183.931 196.767 184.321Z" fill="#000"/>
<path fill-rule="evenodd" clip-rule="evenodd" d="M285.49 148.677L280.09 155.877C279.759 156.319 279.132 156.408 278.69 156.077L271.49 150.677C271.048 150.345 270.959 149.719 271.29 149.277C271.621 148.835 272.248 148.745 272.69 149.077L277.959 153.028L273.3 120.418L275.28 120.135L279.939 152.745L283.89 147.477C284.221 147.035 284.848 146.945 285.29 147.277C285.732 147.608 285.821 148.235 285.49 148.677Z" fill="#000"/>
<path d="M306.505 241.1C306.56 241.649 307.05 242.05 307.6 241.995L316.555 241.1C317.104 241.045 317.505 240.555 317.45 240.005C317.395 239.455 316.905 239.054 316.356 239.109L308.396 239.905L307.6 231.945C307.545 231.396 307.055 230.995 306.505 231.05C305.955 231.105 305.554 231.595 305.609 232.144L306.505 241.1ZM299.553 154.894C321.935 166.086 337.852 202.324 306.726 240.367L308.274 241.633C340.148 202.676 324.065 164.914 300.447 153.106L299.553 154.894Z" fill="#000"/>
</svg>
